<?xml version="1.0" encoding="utf-8"?>
<!DOCTYPE svg PUBLIC "-//W3C//DTD SVG 1.1//EN" "http://www.w3.org/Graphics/SVG/1.1/DTD/svg11.dtd">
<svg version="1.1" id="Layer_1" xmlns="http://www.w3.org/2000/svg" xmlns:xlink="http://www.w3.org/1999/xlink" x="0px" y="0px"
  width="160px" height="160px" viewBox="-219 321 160 160" enable-background="new -219 321 160 160" xml:space="preserve">
  <g>
    <path fill="#E0E0E0" d="M-107,357L-107,357c0.6,0,1-0.4,1-1v-2c0-0.6-0.4-1-1-1l0,0c-0.6,0-1,0.4-1,1v2
      C-108,356.6-107.6,357-107,357z"/>
    <path fill="#E0E0E0" d="M-107,369L-107,369c0.6,0,1-0.4,1-1v-6c0-0.6-0.4-1-1-1l0,0c-0.6,0-1,0.4-1,1v6
      C-108,368.6-107.6,369-107,369z"/>
    <path fill="#E0E0E0" d="M-171,369L-171,369c0.6,0,1-0.4,1-1v-6c0-0.6-0.4-1-1-1l0,0c-0.6,0-1,0.4-1,1v6
      C-172,368.6-171.6,369-171,369z"/>
    <path fill="#E0E0E0" d="M-107,379L-107,379c0.6,0,1-0.4,1-1v-6c0-0.6-0.4-1-1-1l0,0c-0.6,0-1,0.4-1,1v6
      C-108,378.6-107.6,379-107,379z"/>
  </g>
  <g>
    <path fill="#E0E0E0" d="M-171,343v116c0,3.3,2.7,6,6,6h52c3.3,0,6-2.7,6-6V343c0-3.3-2.7-6-6-6h-52C-168.3,337-171,339.7-171,343z"
      />
    <path fill="#EEEEEE" d="M-108,347v-4c0-2.8-2.2-5-5-5h-52c-2.8,0-5,2.2-5,5v4H-108z"/>
    <path fill="#EEEEEE" d="M-170,455v4c0,2.8,2.2,5,5,5h52c2.8,0,5-2.2,5-5v-4H-170z"/>
    <rect x="-171" y="348" fill="#EEEEEE" width="64" height="106"/>
  </g>
  <g>
    <circle fill="#FFFFFF" cx="-160" cy="342" r="3.2"/>
    <circle fill="#2B2B2B" cx="-160" cy="342" r="3"/>
    <circle fill="#383838" cx="-160" cy="342" r="2"/>
    <circle fill="#444444" cx="-160" cy="342" r="1"/>
    <circle fill="#006666" cx="-159.6" cy="341.6" r="0.5"/>
    <circle fill="#006666" cx="-160.4" cy="342.4" r="0.5"/>
    <circle fill="#2B2B2B" cx="-154.5" cy="342.5" r="0.5"/>
    <circle fill="#E0E0E0" cx="-150.5" cy="342.5" r="1.5"/>
    <circle fill="#FFFFFF" cx="-150.5" cy="341.8" r="0.8"/>
    <circle fill="#FFFFFF" cx="-150.5" cy="343.2" r="0.8"/>
  </g>
  <circle fill="#E0E0E0" cx="-139" cy="371" r="8"/>
</svg>
