<?xml version="1.0" encoding="utf-8"?>
<!DOCTYPE svg PUBLIC "-//W3C//DTD SVG 1.1//EN" "http://www.w3.org/Graphics/SVG/1.1/DTD/svg11.dtd">
<svg version="1.1" id="Layer_1" xmlns="http://www.w3.org/2000/svg" xmlns:xlink="http://www.w3.org/1999/xlink" x="0px" y="0px"
  width="160px" height="160px" viewBox="-219 321 160 160" enable-background="new -219 321 160 160" xml:space="preserve">
  <path fill="#E0E0E0" d="M-176,337h4l0,1h1l0-1h64l0,1h1l0-1h4c1.7,0,3,1.3,3,3v3l-1,0v1l1,0v101c0,11-9,20-20,20h-57
    c-1.7,0-3-1.3-3-3V344l1,0v-1l-1,0v-3C-179,338.3-177.7,337-176,337z"/>
  <path fill="#676C7F" d="M-168,349h58c1.7,0,3,1.3,3,3v35c0,5.5-4.5,10-10,10h-51c-1.7,0-3-1.3-3-3v-42C-171,350.3-169.7,349-168,349
    z"/>
  <rect x="-159" y="355" fill="#7F7F0D" width="40" height="36"/>
  <rect x="-158" y="356" fill="#919A00" width="38" height="35"/>
  <rect x="-178" y="343" fill="#CCCCCC" width="78" height="1"/>
  <rect x="-172" y="338" fill="#CCCCCC" width="1" height="6"/>
  <rect x="-107" y="338" fill="#CCCCCC" width="1" height="6"/>
  <path fill="#CCCCCC" d="M-160.5,342h-7c-0.8,0-1.5-0.7-1.5-1.5l0,0c0-0.8,0.7-1.5,1.5-1.5h7c0.8,0,1.5,0.7,1.5,1.5l0,0
    C-159,341.3-159.7,342-160.5,342z"/>
  <path fill="#CCCCCC" d="M-132.5,462h-13c-0.8,0-1.5-0.7-1.5-1.5l0,0c0-0.8,0.7-1.5,1.5-1.5h13c0.8,0,1.5,0.7,1.5,1.5l0,0
    C-131,461.3-131.7,462-132.5,462z"/>
  <rect x="-167" y="337" fill="#CCCCCC" width="1" height="3"/>
  <rect x="-165" y="337" fill="#CCCCCC" width="1" height="3"/>
  <circle fill="#444444" cx="-165" cy="368" r="1"/>
  <path fill="#444444" d="M-163,401v2c0,0.6-0.4,1-1,1h-6c-0.6,0-1-0.4-1-1v-2c0-0.6,0.4-1,1-1h6C-163.4,400-163,400.4-163,401z"/>
  <path fill="#444444" d="M-161,400.5v3c0,0.3-0.2,0.5-0.5,0.5l0,0c-0.3,0-0.5-0.2-0.5-0.5v-3c0-0.3,0.2-0.5,0.5-0.5l0,0
    C-161.2,400-161,400.2-161,400.5z"/>
  <path fill="#E0E0E0" d="M-164,401.5v1c0,0.3-0.2,0.5-0.5,0.5l0,0c-0.3,0-0.5-0.2-0.5-0.5v-1c0-0.3,0.2-0.5,0.5-0.5l0,0
    C-164.2,401-164,401.2-164,401.5z"/>
  <path fill="#444444" d="M-159,400.5v3c0,0.3-0.2,0.5-0.5,0.5l0,0c-0.3,0-0.5-0.2-0.5-0.5v-3c0-0.3,0.2-0.5,0.5-0.5l0,0
    C-159.2,400-159,400.2-159,400.5z"/>
  <path fill="#444444" d="M-157,402.5v1c0,0.3-0.2,0.5-0.5,0.5l0,0c-0.3,0-0.5-0.2-0.5-0.5v-1c0-0.3,0.2-0.5,0.5-0.5l0,0
    C-157.2,402-157,402.2-157,402.5z"/>
  <path fill="#444444" d="M-155,400.5v3c0,0.3-0.2,0.5-0.5,0.5l0,0c-0.3,0-0.5-0.2-0.5-0.5v-3c0-0.3,0.2-0.5,0.5-0.5l0,0
    C-155.2,400-155,400.2-155,400.5z"/>
  <path fill="#444444" d="M-153,400.5v1c0,0.3-0.2,0.5-0.5,0.5l0,0c-0.3,0-0.5-0.2-0.5-0.5v-1c0-0.3,0.2-0.5,0.5-0.5l0,0
    C-153.2,400-153,400.2-153,400.5z"/>
  <path fill="#444444" d="M-151,400.5v1c0,0.3-0.2,0.5-0.5,0.5l0,0c-0.3,0-0.5-0.2-0.5-0.5v-1c0-0.3,0.2-0.5,0.5-0.5l0,0
    C-151.2,400-151,400.2-151,400.5z"/>
  <path fill="#444444" d="M-149,400.5v3c0,0.3-0.2,0.5-0.5,0.5l0,0c-0.3,0-0.5-0.2-0.5-0.5v-3c0-0.3,0.2-0.5,0.5-0.5l0,0
    C-149.2,400-149,400.2-149,400.5z"/>
  <path fill="#444444" d="M-147,400.5v3c0,0.3-0.2,0.5-0.5,0.5l0,0c-0.3,0-0.5-0.2-0.5-0.5v-3c0-0.3,0.2-0.5,0.5-0.5l0,0
    C-147.2,400-147,400.2-147,400.5z"/>
  <path fill="#444444" d="M-151.5,404h-2c-0.3,0-0.5-0.2-0.5-0.5l0,0c0-0.3,0.2-0.5,0.5-0.5h2c0.3,0,0.5,0.2,0.5,0.5l0,0
    C-151,403.8-151.2,404-151.5,404z"/>
  <circle fill="#444444" cx="-157.5" cy="400.5" r="0.5"/>
  <path fill="#444444" d="M-158,434h-4c-0.6,0-1-0.4-1-1v-18c0-0.6,0.4-1,1-1h4c0.6,0,1,0.4,1,1v18C-157,433.6-157.4,434-158,434z"/>
  <path fill="#444444" d="M-150,422v4c0,0.6-0.4,1-1,1h-18c-0.6,0-1-0.4-1-1v-4c0-0.6,0.4-1,1-1h18C-150.4,421-150,421.4-150,422z"/>
  <circle fill="#333333" cx="-160" cy="424" r="2.2"/>
  <circle fill="#555555" cx="-160" cy="424" r="2"/>
  <circle fill="#7F0D49" cx="-124" cy="426" r="5"/>
  <circle fill="#7F0D49" cx="-112" cy="420" r="5"/>
  <g>
    <path fill="#BBBBBB" d="M-150.2,448.8l0.4,0.9c0.1,0.3,0,0.5-0.2,0.7l0,0c-0.3,0.1-0.5,0-0.7-0.2l-0.4-0.9c-0.1-0.3,0-0.5,0.2-0.7
      l0,0C-150.6,448.5-150.4,448.6-150.2,448.8z"/>
    <path fill="#BBBBBB" d="M-146.4,448.7l-1.8,0.8c-0.3,0.1-0.5,0-0.7-0.2l0,0c-0.1-0.3,0-0.5,0.2-0.7l1.8-0.8c0.3-0.1,0.5,0,0.7,0.2
      l0,0C-146.1,448.3-146.1,448.6-146.4,448.7z"/>
    <path fill="#BBBBBB" d="M-152,449.7l0.4,0.9c0.1,0.3,0,0.5-0.2,0.7l0,0c-0.3,0.1-0.5,0-0.7-0.2l-0.4-0.9c-0.1-0.3,0-0.5,0.2-0.7
      l0,0C-152.4,449.3-152.2,449.4-152,449.7z"/>
    <path fill="#BBBBBB" d="M-148.4,448l0.4,0.9c0.1,0.3,0,0.5-0.2,0.7l0,0c-0.3,0.1-0.5,0-0.7-0.2l-0.4-0.9c-0.1-0.3,0-0.5,0.2-0.7
      l0,0C-148.8,447.6-148.5,447.7-148.4,448z"/>
    <path fill="#BBBBBB" d="M-144.8,446.3l0.4,0.9c0.1,0.3,0,0.5-0.2,0.7l0,0c-0.3,0.1-0.5,0-0.7-0.2l-0.4-0.9c-0.1-0.3,0-0.5,0.2-0.7
      l0,0C-145.2,445.9-144.9,446-144.8,446.3z"/>
  </g>
  <g>
    <path fill="#BBBBBB" d="M-135.2,448.5l0.4,0.9c0.1,0.3,0,0.5-0.2,0.7l0,0c-0.3,0.1-0.5,0-0.7-0.2l-0.4-0.9c-0.1-0.3,0-0.5,0.2-0.7
      l0,0C-135.6,448.1-135.4,448.2-135.2,448.5z"/>
    <path fill="#BBBBBB" d="M-131.4,448.3l-1.8,0.8c-0.3,0.1-0.5,0-0.7-0.2l0,0c-0.1-0.3,0-0.5,0.2-0.7l1.8-0.8c0.3-0.1,0.5,0,0.7,0.2
      l0,0C-131.1,447.9-131.1,448.2-131.4,448.3z"/>
    <path fill="#BBBBBB" d="M-138.9,450.1l0.4,0.9c0.1,0.3,0,0.5-0.2,0.7l0,0c-0.3,0.1-0.5,0-0.7-0.2l-0.4-0.9c-0.1-0.3,0-0.5,0.2-0.7
      l0,0C-139.2,449.8-139,449.9-138.9,450.1z"/>
    <path fill="#BBBBBB" d="M-137,449.3l0.4,0.9c0.1,0.3,0,0.5-0.2,0.7l0,0c-0.3,0.1-0.5,0-0.7-0.2l-0.4-0.9c-0.1-0.3,0-0.5,0.2-0.7
      l0,0C-137.4,448.9-137.2,449-137,449.3z"/>
    <path fill="#BBBBBB" d="M-133.4,447.6l0.4,0.9c0.1,0.3,0,0.5-0.2,0.7l0,0c-0.3,0.1-0.5,0-0.7-0.2l-0.4-0.9c-0.1-0.3,0-0.5,0.2-0.7
      l0,0C-133.8,447.2-133.5,447.3-133.4,447.6z"/>
  </g>
  <rect x="-155" y="444" transform="matrix(0.9063 -0.4226 0.4226 0.9063 -202.1065 -21.6821)" fill="#444444" width="10" height="2"/>
  <rect x="-142" y="444" transform="matrix(0.9063 -0.4226 0.4226 0.9063 -200.9049 -16.1845)" fill="#444444" width="10" height="2"/>
</svg>
