<?xml version="1.0" encoding="utf-8"?>
<!DOCTYPE svg PUBLIC "-//W3C//DTD SVG 1.1//EN" "http://www.w3.org/Graphics/SVG/1.1/DTD/svg11.dtd">
<svg version="1.1" id="Layer_1" xmlns="http://www.w3.org/2000/svg" xmlns:xlink="http://www.w3.org/1999/xlink" x="0px" y="0px"
  width="160px" height="160px" viewBox="-219 321 160 160" enable-background="new -219 321 160 160" xml:space="preserve">
  <g>
    <path fill="#383838" d="M-77,434h-124c-1.1,0-2-0.9-2-2v-76c0-1.7,1.3-3,3-3h122c1.7,0,3,1.3,3,3v76C-75,433.1-75.9,434-77,434z"/>
    <rect x="-199" y="359" fill="#F9F9F9" width="120" height="69"/>
    <path fill="#E0E0E0" d="M-72,438h-134c-2.7,0-5-2-5-2v-3h144v3C-67,436-69.3,438-72,438z"/>
    <path fill="#CCCCCC" d="M-72,438h-134c-2.7,0-5-2-5-2h144C-67,436-69.3,438-72,438z"/>
    <path fill="#CCCCCC" d="M-129,433h-20l0,0c0,1.1,0.9,2,2,2h16C-129.9,435-129,434.1-129,433L-129,433z"/>
  </g>
  <circle fill="#2B2B2B" cx="-139" cy="356" r="0.5"/>
  <circle fill="#383838" cx="-139" cy="356" r="0.2"/>
</svg>
