<svg xmlns="http://www.w3.org/2000/svg"
  width="160px" height="160px" viewBox="0 0 160 160">
  <path fill="#99e7ff" d="M133,125H27c-1.6999969,0-3-1.2999878-3-3V38c0-1.7000122,1.3000031-3,3-3h26.3000031
    C54.4000092,35,55.5,35.6000061,56,36.7000122l3.3000031,6.7000122c0.5,1,1.5,1.7000122,2.6999969,1.7000122h71
    c1.6999969,0,3,1.2999878,3,3v74C136,123.7000122,134.6999969,125,133,125z"/>
  <path fill="#6dd3f2" d="M133,125H27c-1.6999969,0-3-1.2999878-3-3V56c0-1.7000122,1.3000031-3,3-3h106c1.6999969,0,3,1.2999878,3,3
    v66C136,123.7000122,134.6999969,125,133,125z"/>
  <rect x="24" y="116" fill="#78dfff" width="112" height="1"/>
  <rect x="24" y="118" fill="#67c7e5" width="112" height="1"/>
  <rect x="24" y="119" fill="#78dfff" width="112" height="1"/>
  <rect x="24" y="121" fill="#67c7e5" width="112" height="1"/>
</svg>
