<?xml version="1.0" encoding="utf-8"?>
<!DOCTYPE svg PUBLIC "-//W3C//DTD SVG 1.1//EN" "http://www.w3.org/Graphics/SVG/1.1/DTD/svg11.dtd">
<svg version="1.1" id="Layer_1" xmlns="http://www.w3.org/2000/svg" xmlns:xlink="http://www.w3.org/1999/xlink" x="0px" y="0px"
  width="160px" height="160px" viewBox="-219 321 160 160" enable-background="new -219 321 160 160" xml:space="preserve">
  <path fill="#444444" d="M-109,375c-8.8,0-16,11.1-16,26s7.2,26,16,26s13.9-11.1,13.9-26S-100.2,375-109,375z M-119,388
    c6.7,0-0.1-7,10-7c5.6,0,9,8.8,9,20s-3.4,20-9,20c-10,0-3.3-7-10-7V388z"/>
  <path fill="#DDDDDD" d="M-180,433v13c0,1.8,1.3,3,3,3h52c1.7,0,3-1.2,3-3v-13H-180z"/>
  <path fill="#DDDDDD" d="M-122,361h-58c-1.7,0-3,1.5-3,3.3v4.7h64v-4.7C-119,362.5-120.3,361-122,361z"/>
  <path fill="#333333" d="M-183,364.3v78.4c0,1.8,1.3,3.3,3,3.3h58c1.7,0,3-1.5,3-3.3v-78.4H-183z"/>
  <path fill="#444444" d="M-179,364.3V441c0,1.1,0.9,2,2,2h57c0.6,0,1-0.4,1-1v-77.7H-179z"/>
  <text transform="matrix(1 0 0 1 -174.5278 396)"><tspan x="0" y="0" fill="#EEEEEE" font-family="'Helvetica-Bold'" font-size="18">li</tspan><tspan x="8.6" y="0" fill="#EEEEEE" font-family="'Helvetica-Bold'" font-size="18">k</tspan><tspan x="18.2" y="0" fill="#EEEEEE" font-family="'Helvetica-Bold'" font-size="18" letter-spacing="1">e</tspan><tspan x="29.3" y="0" fill="#EEEEEE" font-family="'Helvetica-Bold'" font-size="18" letter-spacing="1">•</tspan><tspan x="37" y="0" fill="#EEEEEE" font-family="'Helvetica-Bold'" font-size="18">a </tspan><tspan x="-1.6" y="18" fill="#EEEEEE" font-family="'Helvetica-Bold'" font-size="18">BO</tspan><tspan x="24.7" y="18" fill="#EEEEEE" font-family="'Helvetica-Bold'" font-size="18">S</tspan><tspan x="36.7" y="18" fill="#EEEEEE" font-family="'Helvetica-Bold'" font-size="18">S</tspan></text>
  <line fill="#4EFF52" x1="-119" y1="419" x2="-119" y2="422"/>
</svg>
