<?xml version="1.0" encoding="utf-8"?>
<!DOCTYPE svg PUBLIC "-//W3C//DTD SVG 1.1//EN" "http://www.w3.org/Graphics/SVG/1.1/DTD/svg11.dtd">
<svg version="1.1" id="Layer_1" xmlns="http://www.w3.org/2000/svg" xmlns:xlink="http://www.w3.org/1999/xlink" x="0px" y="0px"
  width="160px" height="160px" viewBox="-219 321 160 160" enable-background="new -219 321 160 160" xml:space="preserve">
  <path fill="#CCCCCC" d="M-120.2,444.4c0.1,1.5,1.3,2.6,2.8,2.7l10.4,0.9v1h-64v-1l11.5-0.9c1.5-0.1,2.6-1.3,2.8-2.7l1.8-20.4h33
    L-120.2,444.4z"/>
  <rect x="-171" y="448" fill="#E0E0E0" width="64" height="1"/>
  <path fill="#383838" d="M-70,425h-138c-1.7,0-3-1.3-3-3v-82c0-1.7,1.3-3,3-3h138c1.7,0,3,1.3,3,3v82C-67,423.7-68.3,425-70,425z"/>
  <rect x="-203" y="345" fill="#F9F9F9" width="128" height="72"/>
  <circle fill="#CCCCCC" cx="-139" cy="421.1" r="2"/>
  <circle fill="#2B2B2B" cx="-139" cy="341" r="0.5"/>
  <circle fill="#383838" cx="-139" cy="341" r="0.2"/>
</svg>
