<?xml version="1.0" encoding="utf-8"?>
<!DOCTYPE svg PUBLIC "-//W3C//DTD SVG 1.1//EN" "http://www.w3.org/Graphics/SVG/1.1/DTD/svg11.dtd">
<svg version="1.1" id="Layer_1" xmlns="http://www.w3.org/2000/svg" xmlns:xlink="http://www.w3.org/1999/xlink" x="0px" y="0px"
  width="160px" height="160px" viewBox="-219 321 160 160" enable-background="new -219 321 160 160" xml:space="preserve">
  <rect x="-159" y="338" fill="#E0E0E0" width="8" height="27"/>
  <path fill="#555555" d="M-136,443h-6c-0.6,0-1-0.4-1-1v-1h8v1C-135,442.6-135.4,443-136,443z"/>
  <polygon fill="#555555" points="-136,454 -137,455 -141,455 -142,454 -142,442 -136,442 "/>
  <rect x="-143" y="338" fill="#E0E0E0" width="8" height="104"/>
  <rect x="-142" y="338" fill="#EEEEEE" width="5" height="101"/>
  <rect x="-143" y="338" fill="#555555" width="8" height="5"/>
  <path fill="#444444" d="M-137,394h-2c-0.6,0-1-0.4-1-1v-6c0-0.6,0.4-1,1-1h2c0.6,0,1,0.4,1,1v6C-136,393.6-136.4,394-137,394z"/>
  <path fill="#444444" d="M-136.5,396h-3c-0.3,0-0.5-0.2-0.5-0.5l0,0c0-0.3,0.2-0.5,0.5-0.5h3c0.3,0,0.5,0.2,0.5,0.5l0,0
    C-136,395.8-136.2,396-136.5,396z"/>
  <path fill="#FFFFFF" d="M-137.5,393h-1c-0.3,0-0.5-0.2-0.5-0.5l0,0c0-0.3,0.2-0.5,0.5-0.5h1c0.3,0,0.5,0.2,0.5,0.5l0,0
    C-137,392.8-137.2,393-137.5,393z"/>
  <path fill="#444444" d="M-136.5,398h-3c-0.3,0-0.5-0.2-0.5-0.5l0,0c0-0.3,0.2-0.5,0.5-0.5h3c0.3,0,0.5,0.2,0.5,0.5l0,0
    C-136,397.8-136.2,398-136.5,398z"/>
  <path fill="#444444" d="M-138.5,400h-1c-0.3,0-0.5-0.2-0.5-0.5l0,0c0-0.3,0.2-0.5,0.5-0.5h1c0.3,0,0.5,0.2,0.5,0.5l0,0
    C-138,399.8-138.2,400-138.5,400z"/>
  <path fill="#444444" d="M-136.5,402h-3c-0.3,0-0.5-0.2-0.5-0.5l0,0c0-0.3,0.2-0.5,0.5-0.5h3c0.3,0,0.5,0.2,0.5,0.5l0,0
    C-136,401.8-136.2,402-136.5,402z"/>
  <path fill="#444444" d="M-136.5,404h-1c-0.3,0-0.5-0.2-0.5-0.5l0,0c0-0.3,0.2-0.5,0.5-0.5h1c0.3,0,0.5,0.2,0.5,0.5l0,0
    C-136,403.8-136.2,404-136.5,404z"/>
  <path fill="#444444" d="M-136.5,406h-1c-0.3,0-0.5-0.2-0.5-0.5l0,0c0-0.3,0.2-0.5,0.5-0.5h1c0.3,0,0.5,0.2,0.5,0.5l0,0
    C-136,405.8-136.2,406-136.5,406z"/>
  <path fill="#444444" d="M-136.5,408h-3c-0.3,0-0.5-0.2-0.5-0.5l0,0c0-0.3,0.2-0.5,0.5-0.5h3c0.3,0,0.5,0.2,0.5,0.5l0,0
    C-136,407.8-136.2,408-136.5,408z"/>
  <path fill="#444444" d="M-136.5,410h-3c-0.3,0-0.5-0.2-0.5-0.5l0,0c0-0.3,0.2-0.5,0.5-0.5h3c0.3,0,0.5,0.2,0.5,0.5l0,0
    C-136,409.8-136.2,410-136.5,410z"/>
  <path fill="#444444" d="M-140,405.5v-2c0-0.3,0.2-0.5,0.5-0.5l0,0c0.3,0,0.5,0.2,0.5,0.5v2c0,0.3-0.2,0.5-0.5,0.5l0,0
    C-139.8,406-140,405.8-140,405.5z"/>
  <circle fill="#444444" cx="-136.5" cy="399.5" r="0.5"/>
  <rect x="-142" y="440" fill="#EEEEEE" width="5" height="1"/>
  <rect x="-143" y="365" fill="#444444" width="8" height="1"/>
  <rect x="-143" y="342" fill="#444444" width="8" height="1"/>
  <path fill="#A83333" d="M-135.5,338h-7c-0.3,0-0.5-0.2-0.5-0.5l0,0c0-0.3,0.2-0.5,0.5-0.5h7c0.3,0,0.5,0.2,0.5,0.5l0,0
    C-135,337.8-135.2,338-135.5,338z"/>
  <rect x="-141" y="341" fill="#555555" width="4" height="21"/>
  <rect x="-141" y="361" fill="#444444" width="4" height="1"/>
  <rect x="-142" y="443" fill="#444444" width="6" height="1"/>
  <rect x="-140" y="454" fill="#444444" width="2" height="1"/>
  <polygon fill="#666666" points="-140,455 -141,455 -142,454 -140,454 "/>
  <rect x="-141" y="455" fill="#555555" width="4" height="5"/>
  <rect x="-140" y="455" fill="#666666" width="2" height="5"/>
  <polygon fill="#A83333" points="-141,460 -140,460.5 -140,461 -139,465 -138,461 -138,460.5 -137,460 "/>
  <polygon fill="#666666" points="-137,341 -141,341 -141,343 -140,343 -140,360 -138,360 -138,343 -137,343 "/>
  <path fill="#555555" d="M-158,366h6c0.6,0,1,0.4,1,1v1h-8v-1C-159,366.4-158.6,366-158,366z"/>
  <rect x="-159" y="367" fill="#E0E0E0" width="8" height="77"/>
  <rect x="-158" y="370" fill="#EEEEEE" width="5" height="73"/>
  <rect x="-158" y="338" fill="#EEEEEE" width="5" height="27"/>
  <rect x="-159" y="338" fill="#555555" width="8" height="5"/>
  <path fill="#444444" d="M-157,415h2c0.6,0,1,0.4,1,1v6c0,0.6-0.4,1-1,1h-2c-0.6,0-1-0.4-1-1v-6C-158,415.4-157.6,415-157,415z"/>
  <path fill="#444444" d="M-157.5,413h3c0.3,0,0.5,0.2,0.5,0.5l0,0c0,0.3-0.2,0.5-0.5,0.5h-3c-0.3,0-0.5-0.2-0.5-0.5l0,0
    C-158,413.2-157.8,413-157.5,413z"/>
  <path fill="#FFFFFF" d="M-156.5,416h1c0.3,0,0.5,0.2,0.5,0.5l0,0c0,0.3-0.2,0.5-0.5,0.5h-1c-0.3,0-0.5-0.2-0.5-0.5l0,0
    C-157,416.2-156.8,416-156.5,416z"/>
  <path fill="#444444" d="M-157.5,411h3c0.3,0,0.5,0.2,0.5,0.5l0,0c0,0.3-0.2,0.5-0.5,0.5h-3c-0.3,0-0.5-0.2-0.5-0.5l0,0
    C-158,411.2-157.8,411-157.5,411z"/>
  <path fill="#444444" d="M-155.5,409h1c0.3,0,0.5,0.2,0.5,0.5l0,0c0,0.3-0.2,0.5-0.5,0.5h-1c-0.3,0-0.5-0.2-0.5-0.5l0,0
    C-156,409.2-155.8,409-155.5,409z"/>
  <path fill="#444444" d="M-157.5,407h3c0.3,0,0.5,0.2,0.5,0.5l0,0c0,0.3-0.2,0.5-0.5,0.5h-3c-0.3,0-0.5-0.2-0.5-0.5l0,0
    C-158,407.2-157.8,407-157.5,407z"/>
  <path fill="#444444" d="M-157.5,405h1c0.3,0,0.5,0.2,0.5,0.5l0,0c0,0.3-0.2,0.5-0.5,0.5h-1c-0.3,0-0.5-0.2-0.5-0.5l0,0
    C-158,405.2-157.8,405-157.5,405z"/>
  <path fill="#444444" d="M-157.5,403h1c0.3,0,0.5,0.2,0.5,0.5l0,0c0,0.3-0.2,0.5-0.5,0.5h-1c-0.3,0-0.5-0.2-0.5-0.5l0,0
    C-158,403.2-157.8,403-157.5,403z"/>
  <path fill="#444444" d="M-157.5,401h3c0.3,0,0.5,0.2,0.5,0.5l0,0c0,0.3-0.2,0.5-0.5,0.5h-3c-0.3,0-0.5-0.2-0.5-0.5l0,0
    C-158,401.2-157.8,401-157.5,401z"/>
  <path fill="#444444" d="M-157.5,399h3c0.3,0,0.5,0.2,0.5,0.5l0,0c0,0.3-0.2,0.5-0.5,0.5h-3c-0.3,0-0.5-0.2-0.5-0.5l0,0
    C-158,399.2-157.8,399-157.5,399z"/>
  <path fill="#444444" d="M-154,403.5v2c0,0.3-0.2,0.5-0.5,0.5l0,0c-0.3,0-0.5-0.2-0.5-0.5v-2c0-0.3,0.2-0.5,0.5-0.5l0,0
    C-154.2,403-154,403.2-154,403.5z"/>
  <circle fill="#444444" cx="-157.5" cy="409.5" r="0.5"/>
  <rect x="-158" y="368" fill="#EEEEEE" width="5" height="1"/>
  <rect x="-159" y="365" fill="#444444" width="8" height="1"/>
  <rect x="-159" y="342" fill="#444444" width="8" height="1"/>
  <path fill="#A83333" d="M-151.5,338h-7c-0.3,0-0.5-0.2-0.5-0.5l0,0c0-0.3,0.2-0.5,0.5-0.5h7c0.3,0,0.5,0.2,0.5,0.5l0,0
    C-151,337.8-151.2,338-151.5,338z"/>
  <rect x="-157" y="341" fill="#555555" width="4" height="21"/>
  <rect x="-157" y="361" fill="#444444" width="4" height="1"/>
  <rect x="-157" y="444" fill="#555555" width="4" height="5"/>
  <rect x="-156" y="444" fill="#666666" width="2" height="5"/>
  <polygon fill="#666666" points="-153,341 -157,341 -157,343 -156,343 -156,360 -154,360 -154,343 -153,343 "/>
  <path fill="#00AAAA" d="M-123,465L-123,465c-0.1,0-0.2-0.1-0.2-0.2v-2.5c0-0.1,0.1-0.2,0.2-0.2l0,0c0.1,0,0.2,0.1,0.2,0.2v2.5
    C-122.8,464.9-122.9,465-123,465z"/>
  <path fill="#555555" d="M-120,443h-6c-0.6,0-1-0.4-1-1v-1h8v1C-119,442.6-119.4,443-120,443z"/>
  <polygon fill="#555555" points="-120,454 -121,455 -125,455 -126,454 -126,442 -120,442 "/>
  <rect x="-127" y="338" fill="#E0E0E0" width="8" height="104"/>
  <rect x="-126" y="338" fill="#EEEEEE" width="5" height="101"/>
  <rect x="-127" y="338" fill="#555555" width="8" height="5"/>
  <path fill="#444444" d="M-121,394h-2c-0.6,0-1-0.4-1-1v-6c0-0.6,0.4-1,1-1h2c0.6,0,1,0.4,1,1v6C-120,393.6-120.4,394-121,394z"/>
  <path fill="#444444" d="M-120.5,396h-3c-0.3,0-0.5-0.2-0.5-0.5l0,0c0-0.3,0.2-0.5,0.5-0.5h3c0.3,0,0.5,0.2,0.5,0.5l0,0
    C-120,395.8-120.2,396-120.5,396z"/>
  <path fill="#FFFFFF" d="M-121.5,393h-1c-0.3,0-0.5-0.2-0.5-0.5l0,0c0-0.3,0.2-0.5,0.5-0.5h1c0.3,0,0.5,0.2,0.5,0.5l0,0
    C-121,392.8-121.2,393-121.5,393z"/>
  <path fill="#444444" d="M-120.5,398h-3c-0.3,0-0.5-0.2-0.5-0.5l0,0c0-0.3,0.2-0.5,0.5-0.5h3c0.3,0,0.5,0.2,0.5,0.5l0,0
    C-120,397.8-120.2,398-120.5,398z"/>
  <path fill="#444444" d="M-122.5,400h-1c-0.3,0-0.5-0.2-0.5-0.5l0,0c0-0.3,0.2-0.5,0.5-0.5h1c0.3,0,0.5,0.2,0.5,0.5l0,0
    C-122,399.8-122.2,400-122.5,400z"/>
  <path fill="#444444" d="M-120.5,402h-3c-0.3,0-0.5-0.2-0.5-0.5l0,0c0-0.3,0.2-0.5,0.5-0.5h3c0.3,0,0.5,0.2,0.5,0.5l0,0
    C-120,401.8-120.2,402-120.5,402z"/>
  <path fill="#444444" d="M-120.5,404h-1c-0.3,0-0.5-0.2-0.5-0.5l0,0c0-0.3,0.2-0.5,0.5-0.5h1c0.3,0,0.5,0.2,0.5,0.5l0,0
    C-120,403.8-120.2,404-120.5,404z"/>
  <path fill="#444444" d="M-120.5,406h-1c-0.3,0-0.5-0.2-0.5-0.5l0,0c0-0.3,0.2-0.5,0.5-0.5h1c0.3,0,0.5,0.2,0.5,0.5l0,0
    C-120,405.8-120.2,406-120.5,406z"/>
  <path fill="#444444" d="M-120.5,408h-3c-0.3,0-0.5-0.2-0.5-0.5l0,0c0-0.3,0.2-0.5,0.5-0.5h3c0.3,0,0.5,0.2,0.5,0.5l0,0
    C-120,407.8-120.2,408-120.5,408z"/>
  <path fill="#444444" d="M-120.5,410h-3c-0.3,0-0.5-0.2-0.5-0.5l0,0c0-0.3,0.2-0.5,0.5-0.5h3c0.3,0,0.5,0.2,0.5,0.5l0,0
    C-120,409.8-120.2,410-120.5,410z"/>
  <path fill="#444444" d="M-124,405.5v-2c0-0.3,0.2-0.5,0.5-0.5l0,0c0.3,0,0.5,0.2,0.5,0.5v2c0,0.3-0.2,0.5-0.5,0.5l0,0
    C-123.8,406-124,405.8-124,405.5z"/>
  <circle fill="#444444" cx="-120.5" cy="399.5" r="0.5"/>
  <rect x="-126" y="440" fill="#EEEEEE" width="5" height="1"/>
  <rect x="-127" y="365" fill="#444444" width="8" height="1"/>
  <rect x="-127" y="342" fill="#444444" width="8" height="1"/>
  <path fill="#00AAAA" d="M-119.5,338h-7c-0.3,0-0.5-0.2-0.5-0.5l0,0c0-0.3,0.2-0.5,0.5-0.5h7c0.3,0,0.5,0.2,0.5,0.5l0,0
    C-119,337.8-119.2,338-119.5,338z"/>
  <rect x="-125" y="341" fill="#555555" width="4" height="21"/>
  <rect x="-125" y="361" fill="#444444" width="4" height="1"/>
  <rect x="-126" y="443" fill="#444444" width="6" height="1"/>
  <rect x="-124" y="454" fill="#444444" width="2" height="1"/>
  <polygon fill="#666666" points="-124,455 -125,455 -126,454 -124,454 "/>
  <rect x="-125" y="455" fill="#555555" width="4" height="5"/>
  <rect x="-124" y="460" fill="#E0E0E0" width="2" height="1"/>
  <rect x="-124" y="455" fill="#666666" width="2" height="5"/>
  <rect x="-123.5" y="461" fill="#E0E0E0" width="1" height="3"/>
  <rect x="-124" y="460" fill="#CCCCCC" width="2" height="0.5"/>
  <rect x="-123.2" y="460" fill="#FFFFFF" width="0.5" height="1"/>
  <rect x="-124" y="461.5" fill="#E0E0E0" width="2" height="0.5"/>
  <polygon fill="#666666" points="-121,341 -125,341 -125,343 -124,343 -124,360 -122,360 -122,343 -121,343 "/>
  <rect x="-123.2" y="461.5" fill="#FFFFFF" width="0.5" height="0.5"/>
  <rect x="-159" y="444" fill="#555555" width="8" height="2"/>
  <rect x="-159" y="448" fill="#555555" width="8" height="1"/>
</svg>
