<?xml version="1.0" encoding="utf-8"?>
<!DOCTYPE svg PUBLIC "-//W3C//DTD SVG 1.1//EN" "http://www.w3.org/Graphics/SVG/1.1/DTD/svg11.dtd">
<svg version="1.1" id="Layer_1" xmlns="http://www.w3.org/2000/svg" xmlns:xlink="http://www.w3.org/1999/xlink" x="0px" y="0px"
  width="160px" height="160px" viewBox="-219 321 160 160" enable-background="new -219 321 160 160" xml:space="preserve">
  <circle fill="#999999" cx="-139" cy="398" r="1"/>
  <rect x="-140" y="398" fill="#999999" width="2" height="5"/>
  <path fill="#333333" d="M-139.7,428c0,0-1.3-2.7-1.3-6s0.9-6,2-6s2,2.7,2,6s-1.3,6-1.3,6"/>
  <rect x="-124" y="391.1" fill="#666666" width="29" height="0.9"/>
  <rect x="-110" y="383" fill="#BBBBBB" width="1" height="17"/>
  <rect x="-110" y="392" fill="#AAAAAA" width="1" height="8"/>
  <rect x="-110" y="340" fill="#666666" width="1" height="35"/>
  <path fill="#BBBBBB" d="M-109.5,345c-6.9,0-12.5,5.6-12.5,12.5s5.6,12.5,12.5,12.5s12.5-5.6,12.5-12.5S-102.6,345-109.5,345z
    M-109.5,369c-6.3,0-11.5-5.1-11.5-11.5s5.1-11.5,11.5-11.5s11.5,5.1,11.5,11.5S-103.2,369-109.5,369z"/>
  <ellipse fill="#E0E0E0" cx="-109.5" cy="330" rx="2.5" ry="1"/>
  <rect x="-111" y="330" fill="#E0E0E0" width="0.5" height="10"/>
  <rect x="-110.5" y="330" fill="#BBBBBB" width="0.5" height="10"/>
  <rect x="-112" y="330" fill="#E0E0E0" width="0.5" height="10"/>
  <rect x="-111.5" y="330" fill="#BBBBBB" width="0.5" height="10"/>
  <rect x="-110" y="330" fill="#E0E0E0" width="0.5" height="10"/>
  <rect x="-109.5" y="330" fill="#BBBBBB" width="0.5" height="10"/>
  <rect x="-109" y="330" fill="#E0E0E0" width="0.5" height="10"/>
  <rect x="-108.5" y="330" fill="#BBBBBB" width="0.5" height="10"/>
  <rect x="-108" y="330" fill="#E0E0E0" width="0.5" height="10"/>
  <rect x="-107.5" y="330" fill="#BBBBBB" width="0.5" height="10"/>
  <g>
    <path fill="#E0E0E0" d="M-104,449l-2,6h-2v-87.6c0-0.3,0.1-0.5,0.3-0.7l2-2c0.6-0.6,1.7-0.2,1.7,0.7V449z"/>
    <polygon fill="#666666" points="-106,459 -108,461 -108,455 -106,455   "/>
    <g>
      <circle fill="#BBBBBB" cx="-104" cy="449" r="3"/>
      <circle fill="#666666" cx="-104" cy="449" r="0.5"/>
    </g>
    <circle fill="#BBBBBB" cx="-106" cy="393" r="1"/>
  </g>
  <g>
    <path fill="#E0E0E0" d="M-115,449l2,6h2v-87.6c0-0.3-0.1-0.5-0.3-0.7l-2-2c-0.6-0.6-1.7-0.2-1.7,0.7V449z"/>
    <polygon fill="#BBBBBB" points="-111,460 -111,455 -112,455   "/>
    <g>
      <circle fill="#BBBBBB" cx="-115" cy="449" r="3"/>
      <circle fill="#666666" cx="-115" cy="449" r="0.5"/>
    </g>
    <circle fill="#BBBBBB" cx="-113" cy="393" r="1"/>
  </g>
  <rect x="-110" y="384" fill="#AAAAAA" width="1" height="1"/>
  <rect x="-110" y="386" fill="#AAAAAA" width="1" height="1"/>
  <rect x="-110" y="388" fill="#AAAAAA" width="1" height="1"/>
  <rect x="-110" y="390" fill="#AAAAAA" width="1" height="1"/>
  <rect x="-110" y="392" fill="#999999" width="1" height="1"/>
  <rect x="-110" y="394" fill="#999999" width="1" height="1"/>
  <rect x="-110" y="396" fill="#999999" width="1" height="1"/>
  <rect x="-110" y="399" fill="#777777" width="1" height="1"/>
  <rect x="-110" y="398" fill="#999999" width="1" height="1"/>
  <rect x="-95" y="391" fill="#E0E0E0" width="6" height="0.5"/>
  <rect x="-95" y="391.5" fill="#BBBBBB" width="6" height="0.5"/>
  <rect x="-95" y="392" fill="#E0E0E0" width="6" height="0.5"/>
  <rect x="-95" y="392.5" fill="#BBBBBB" width="6" height="0.5"/>
  <rect x="-95" y="390" fill="#E0E0E0" width="6" height="0.5"/>
  <rect x="-95" y="390.5" fill="#BBBBBB" width="6" height="0.5"/>
  <rect x="-130" y="391" fill="#E0E0E0" width="6" height="0.5"/>
  <rect x="-130" y="391.5" fill="#BBBBBB" width="6" height="0.5"/>
  <rect x="-130" y="392" fill="#E0E0E0" width="6" height="0.5"/>
  <rect x="-130" y="392.5" fill="#BBBBBB" width="6" height="0.5"/>
  <rect x="-130" y="390" fill="#E0E0E0" width="6" height="0.5"/>
  <rect x="-130" y="390.5" fill="#BBBBBB" width="6" height="0.5"/>
  <rect x="-184" y="392" fill="#666666" width="33.1" height="1"/>
  <rect x="-170" y="384" fill="#BBBBBB" width="1" height="17"/>
  <rect x="-170" y="393" fill="#AAAAAA" width="1" height="8"/>
  <rect x="-170" y="340" fill="#666666" width="1" height="33"/>
  <path fill="#BBBBBB" d="M-169.5,345c-6.9,0-12.5,5.6-12.5,12.5s5.6,12.5,12.5,12.5s12.5-5.6,12.5-12.5S-162.6,345-169.5,345z
     M-169.5,369c-6.3,0-11.5-5.1-11.5-11.5s5.1-11.5,11.5-11.5s11.5,5.1,11.5,11.5S-163.2,369-169.5,369z"/>
  <ellipse fill="#E0E0E0" cx="-169.5" cy="330" rx="2.5" ry="1"/>
  <rect x="-171" y="330" fill="#E0E0E0" width="0.5" height="10"/>
  <rect x="-170.5" y="330" fill="#BBBBBB" width="0.5" height="10"/>
  <rect x="-172" y="330" fill="#E0E0E0" width="0.5" height="10"/>
  <rect x="-171.5" y="330" fill="#BBBBBB" width="0.5" height="10"/>
  <rect x="-170" y="330" fill="#E0E0E0" width="0.5" height="10"/>
  <rect x="-169.5" y="330" fill="#BBBBBB" width="0.5" height="10"/>
  <rect x="-169" y="330" fill="#E0E0E0" width="0.5" height="10"/>
  <rect x="-168.5" y="330" fill="#BBBBBB" width="0.5" height="10"/>
  <rect x="-168" y="330" fill="#E0E0E0" width="0.5" height="10"/>
  <rect x="-167.5" y="330" fill="#BBBBBB" width="0.5" height="10"/>
  <g>
    <path fill="#E0E0E0" d="M-153.5,447.7l-1.2,6.2l-2,0.3l-12-86.8c0-0.3,0-0.5,0.2-0.7l1.7-2.3c0.5-0.7,1.7-0.4,1.8,0.5L-153.5,447.7
      z"/>
    <polygon fill="#666666" points="-154.1,457.8 -155.8,460.1 -156.6,454.1 -154.7,453.9   "/>
    <g>
      <circle fill="#BBBBBB" cx="-153.5" cy="447.7" r="3"/>
      <circle fill="#666666" cx="-153.5" cy="447.7" r="0.5"/>
    </g>
    <circle fill="#BBBBBB" cx="-163.2" cy="392.5" r="1"/>
  </g>
  <rect x="-170" y="385" fill="#AAAAAA" width="1" height="1"/>
  <rect x="-170" y="387" fill="#AAAAAA" width="1" height="1"/>
  <rect x="-170" y="389" fill="#AAAAAA" width="1" height="1"/>
  <rect x="-170" y="391" fill="#AAAAAA" width="1" height="1"/>
  <rect x="-170" y="393" fill="#999999" width="1" height="1"/>
  <rect x="-170" y="395" fill="#999999" width="1" height="1"/>
  <rect x="-170" y="397" fill="#999999" width="1" height="1"/>
  <rect x="-170" y="400" fill="#777777" width="1" height="1"/>
  <rect x="-170" y="399" fill="#999999" width="1" height="1"/>
  <rect x="-155" y="392" fill="#E0E0E0" width="6" height="0.5"/>
  <rect x="-155" y="392.5" fill="#BBBBBB" width="6" height="0.5"/>
  <rect x="-155" y="393" fill="#E0E0E0" width="6" height="0.5"/>
  <rect x="-155" y="393.5" fill="#BBBBBB" width="6" height="0.5"/>
  <rect x="-155" y="391" fill="#E0E0E0" width="6" height="0.5"/>
  <rect x="-155" y="391.5" fill="#BBBBBB" width="6" height="0.5"/>
  <rect x="-190" y="392" fill="#E0E0E0" width="6" height="0.5"/>
  <rect x="-190" y="392.5" fill="#BBBBBB" width="6" height="0.5"/>
  <rect x="-190" y="393" fill="#E0E0E0" width="6" height="0.5"/>
  <rect x="-190" y="393.5" fill="#BBBBBB" width="6" height="0.5"/>
  <rect x="-190" y="391" fill="#E0E0E0" width="6" height="0.5"/>
  <rect x="-190" y="391.5" fill="#BBBBBB" width="6" height="0.5"/>
  <g>
    <path fill="#E0E0E0" d="M-185.5,447.7l1.2,6.2l2,0.3l12-86.8c0-0.3,0-0.5-0.2-0.7l-1.7-2.3c-0.5-0.7-1.7-0.4-1.8,0.5L-185.5,447.7z
      "/>
    <polygon fill="#BBBBBB" points="-183,458 -182.4,454.1 -183.3,454   "/>
    <g>
      <circle fill="#BBBBBB" cx="-185.5" cy="447.7" r="3"/>
      <circle fill="#666666" cx="-185.5" cy="447.7" r="0.5"/>
    </g>
    <circle fill="#BBBBBB" cx="-175.8" cy="392.5" r="1"/>
  </g>
  <circle fill="#666666" cx="-169.5" cy="373.5" r="2.5"/>
  <circle fill="#666666" cx="-109.5" cy="373.5" r="2.5"/>
  <rect x="-141" y="402" fill="#333333" width="4" height="20"/>
  <circle fill="#333333" cx="-134" cy="415.5" r="0.5"/>
  <circle fill="#E0E0E0" cx="-139" cy="415.5" r="0.5"/>
  <polygon fill="#999999" points="-139,430 -139.7,428 -138.3,428 "/>
  <rect x="-136" y="413" fill="#666666" width="2" height="5"/>
  <rect x="-136" y="414" fill="#555555" width="2" height="1"/>
  <rect x="-136" y="416" fill="#555555" width="2" height="1"/>
  <rect x="-136" y="417" fill="#343434" width="2" height="1"/>
  <rect x="-137" y="415" fill="#333333" width="1" height="1"/>
  <path fill="#444444" d="M-140,402v20c0,2.1,0.4,3.9,0.7,5h1.4c0.4-1.1,0.9-2.9,0.9-5v-20H-140z"/>
</svg>
