<svg version="1.1" id="Layer_1" xmlns="http://www.w3.org/2000/svg" xmlns:xlink="http://www.w3.org/1999/xlink" x="0px" y="0px"
   width="160px" height="160px" viewBox="-107 254 160 160">
<path fill="#96CCA8" d="M-59,348.2c-20.8,2.7-36.1-7.1-36.1-24.9C-102.6,348-72.9,356-44.5,348C-49.2,348.9-54.1,348.9-59,348.2z"/>
<path fill="#87BB9A" d="M-59,348.2c-14.9-2.1-28.8-11.1-36.1-24.9C-95,341.2-79.7,351-59,348.2z"/>
<path fill="#C6E5A8" d="M-12.5,297.3l-82.5,26c7.3,13.9,21.2,22.9,36.1,24.9c4.8,0.7,9.7,0.6,14.6-0.2c3.2-0.6,6.3-1.5,9.3-2.7
  c3.7-1.6,7.1-3.6,10-5.9c5.4-4.3,10.9-7.6,17.7-17.7c6.8-10.1,8.2-18.6,9.1-28.8L-12.5,297.3z"/>
<path fill="#DD9075" d="M-18,299l-70.4,22.2c6.2,11.8,18.1,19.5,30.7,21.3c4.1,0.6,8.3,0.5,12.4-0.2c2.7-0.5,5.4-1.2,8-2.3
  c3.2-1.3,6.1-3,8.6-5.1c4.6-3.7,9.3-6.5,15.1-15.1c5.8-8.6,7-15.8,7.7-24.6L-18,299z"/>
<path fill="#62696A" d="M-70.9,323.6c-1.3,0.6-2.1-0.1-1.1-1.1c1.3-0.9,2.4-1,3.6-1.2c0.5-0.1-0.3,0.7-0.9,1.1
  C-69.8,323-70.5,323.4-70.9,323.6z"/>
<path fill="#62696A" d="M-66.8,330.2c-1.1,0.9-2.2,0.6-1.5-0.5c1-1.2,2.1-1.7,3.3-2.2c0.5-0.2,0,0.7-0.5,1.2
  C-65.9,329.3-66.5,329.9-66.8,330.2z"/>
<path fill="#62696A" d="M-59.9,334.4c-0.7,1.1-2.1,1.2-1.8,0c0.5-1.3,1.5-2.1,2.5-2.9c0.4-0.3,0.3,0.6,0,1.2
  C-59.4,333.3-59.7,334.1-59.9,334.4z"/>
<path fill="#62696A" d="M-51,335.6c-0.3,1.2-1.6,1.7-1.8,0.6c0-1.3,0.7-2.2,1.4-3.2c0.3-0.4,0.5,0.4,0.5,1
  C-50.9,334.6-50.9,335.3-51,335.6z"/>
<path fill="#62696A" d="M-41.3,333.7c0.2,1.1-1,1.9-1.6,1.1c-0.5-1.1-0.2-2.1,0.1-3.2c0.1-0.4,0.7,0.2,0.9,0.6
  C-41.6,332.8-41.4,333.4-41.3,333.7z"/>
<path fill="#62696A" d="M-32.1,328.9c0.6,0.8-0.3,2-1.2,1.5c-1-0.7-1.1-1.7-1.2-2.7c0-0.4,0.8-0.1,1.2,0.2
  C-32.7,328.3-32.2,328.7-32.1,328.9z"/>
<path fill="#62696A" d="M-24.4,321.9c1,0.5,0.5,1.7-0.7,1.7c-1.3-0.3-1.8-1.1-2.3-1.9c-0.2-0.3,0.8-0.3,1.3-0.2
  C-25.4,321.6-24.7,321.7-24.4,321.9z"/>
<path fill="#62696A" d="M-19.4,313.5c1.2,0.1,1.3,1.3,0,1.6c-1.4,0.2-2.3-0.3-3.1-0.8c-0.3-0.2,0.7-0.5,1.3-0.6
  C-20.6,313.5-19.8,313.5-19.4,313.5z"/>
<path fill="#62696A" d="M-17.7,304.8c1.3-0.3,1.8,0.6,0.6,1.3c-1.4,0.6-2.5,0.5-3.6,0.4c-0.4-0.1,0.5-0.7,1.1-0.9
  C-18.8,305.2-18.1,304.9-17.7,304.8z"/>
<path fill="#62696A" d="M-58.7,323.2c-0.7,0.6-1.4,0.4-1-0.3c0.6-0.8,1.3-1.1,2.1-1.4c0.3-0.1,0,0.4-0.3,0.8
  C-58.2,322.6-58.5,323-58.7,323.2z"/>
<path fill="#62696A" d="M-54.3,325.9c-0.5,0.7-1.3,0.8-1.1,0c0.3-0.8,1-1.3,1.6-1.8c0.3-0.2,0.2,0.4,0,0.7
  C-54,325.2-54.2,325.6-54.3,325.9z"/>
<path fill="#62696A" d="M-48.6,326.6c-0.2,0.8-1,1.1-1.2,0.4c0-0.8,0.4-1.4,0.9-2.1c0.2-0.3,0.3,0.3,0.3,0.6
  C-48.5,326-48.6,326.4-48.6,326.6z"/>
<path fill="#62696A" d="M-42.4,325.4c0.1,0.7-0.6,1.2-1.1,0.7c-0.3-0.7-0.1-1.3,0.1-2c0.1-0.3,0.4,0.1,0.6,0.4
  C-42.6,324.8-42.5,325.2-42.4,325.4z"/>
<path fill="#62696A" d="M-36.5,322.4c0.4,0.5-0.2,1.2-0.8,1c-0.6-0.5-0.7-1.1-0.7-1.7c0-0.3,0.5-0.1,0.8,0.2
  C-37,321.9-36.6,322.2-36.5,322.4z"/>
<path fill="#62696A" d="M-31.6,317.9c0.6,0.3,0.3,1.1-0.4,1.1c-0.8-0.2-1.1-0.7-1.5-1.2c-0.1-0.2,0.5-0.2,0.9-0.1
  C-32.3,317.7-31.8,317.8-31.6,317.9z"/>
<path fill="#62696A" d="M-28.4,312.5c0.8,0.1,0.8,0.8,0,1c-0.9,0.1-1.5-0.2-2-0.5c-0.2-0.1,0.4-0.3,0.8-0.4
  C-29.2,312.5-28.7,312.5-28.4,312.5z"/>
<path fill="#62696A" d="M-27.8,307.6c0.6,0,0.7,0.5,0.1,0.8c-0.7,0.2-1.2,0-1.6-0.2c-0.2-0.1,0.3-0.3,0.6-0.4
  C-28.4,307.7-28,307.6-27.8,307.6z"/>
<path fill="#87BB9A" d="M-5.5,314c-5.2-0.9-10.6-0.3-15.8-1.1c-1.5-0.2-3-0.6-4.4-1.3c1.8,0.8,2.3,3.6,3.1,5.2
  c0.7,1.5,1.3,3,1.9,4.5c1.3,3.2,2.5,6.5,4.2,9.5c1.5,2.7,3.5,5.6,6.4,7c2.5,1.2,5.1,0.8,7.6,0.1c3.4-0.9,6.8-1.8,10.3-2.5
  c-0.7-1.5-1.4-3.1-1.4-4.8c-0.1-1.8,0.4-3.5,0.6-5.3c0.5-3.7-1.2-6.4-4.3-8.4C0.1,315.4-2.6,314.5-5.5,314z"/>
<path fill="#96CCA8" d="M5.3,333.8c-5.8-8.9-14.4-17.1-25.5-19.5C-9.7,318.4-3.2,327.3,5.3,333.8L5.3,333.8z"/>
<path fill="#A9C690" d="M23.7,314.8c-2.2-4.8-5.9-8.8-8.2-13.6c-0.7-1.4-1.2-2.8-1.5-4.3c0.4,2-1.6,4-2.5,5.5
  c-0.8,1.4-1.7,2.8-2.6,4.1c-1.9,2.9-3.9,5.7-5.4,8.9c-1.4,2.8-2.6,6.1-2.1,9.2c0.4,2.7,2.2,4.6,4.3,6.3c2.7,2.3,5.4,4.5,7.9,7
  c0.8-1.5,1.7-2.9,3.1-3.9c1.4-1.1,3.1-1.7,4.7-2.5c3.3-1.8,4.6-4.7,4.4-8.4C25.8,320.2,25,317.4,23.7,314.8z"/>
<path fill="#C6E5A8" d="M13.7,335.1c4-9.9,5.7-21.6,1.3-32.1C17.6,313.9,14.2,324.3,13.7,335.1L13.7,335.1z"/>
<path fill="#968D9C" d="M25.7,342.9c-3.4,1.8-7.5,0.8-9.2-2.3c-1.7-3.1-0.4-7.2,3-9s7.5-0.8,9.2,2.3
  C30.4,337.1,29.1,341.1,25.7,342.9z"/>
<path fill="#C09AA1" d="M27.5,340.4c0.5-0.3,1-0.6,1.4-1c0.8-1.8,0.7-3.8-0.2-5.5c-1.7-3.1-5.8-4.2-9.2-2.3c-0.5,0.3-1,0.6-1.4,1
  c-0.8,1.8-0.7,3.8,0.2,5.5C20,341.3,24.1,342.3,27.5,340.4z"/>
<ellipse fill="#968D9C" cx="19.2" cy="333.1" rx="6.5" ry="7"/>
<path fill="#C09AA1" d="M24.3,330.3c0-0.6-0.1-1.2-0.2-1.7c-1.2-1.5-3-2.5-4.9-2.5c-3.6,0-6.5,3.1-6.5,7c0,0.6,0.1,1.2,0.2,1.7
  c1.2,1.5,3,2.5,4.9,2.5C21.4,337.3,24.3,334.2,24.3,330.3z"/>
<path fill="#968D9C" d="M29.6,347.6c-3.4,1.8-7.5,0.8-9.2-2.3c-1.7-3.1-0.4-7.2,3-9s7.5-0.8,9.2,2.3C34.3,341.8,33,345.8,29.6,347.6
  z"/>
<path fill="#C09AA1" d="M31.4,345.2c0.5-0.3,1-0.6,1.4-1c0.8-1.8,0.7-3.8-0.2-5.5c-1.7-3.1-5.8-4.2-9.2-2.3c-0.5,0.3-1,0.6-1.4,1
  c-0.8,1.8-0.7,3.8,0.2,5.5C23.9,346,28,347,31.4,345.2z"/>
<path fill="#968D9C" d="M20.7,350.8c-3.4,1.8-7.5,0.8-9.2-2.3c-1.7-3.1-0.4-7.2,3-9s7.5-0.8,9.2,2.3C25.4,345,24,349,20.7,350.8z"/>
<path fill="#C09AA1" d="M22.4,348.4c0.5-0.3,1-0.6,1.4-1c0.8-1.8,0.7-3.8-0.2-5.5c-1.7-3.1-5.8-4.2-9.2-2.3c-0.5,0.3-1,0.6-1.4,1
  c-0.8,1.8-0.7,3.8,0.2,5.5C14.9,349.2,19.1,350.2,22.4,348.4z"/>
<ellipse fill="#968D9C" cx="25.1" cy="348.9" rx="6.5" ry="7"/>
<path fill="#C09AA1" d="M30.3,346.2c0-0.6-0.1-1.2-0.2-1.7c-1.2-1.5-3-2.5-4.9-2.5c-3.6,0-6.5,3.1-6.5,7c0,0.6,0.1,1.2,0.2,1.7
  c1.2,1.5,3,2.5,4.9,2.5C27.4,353.1,30.3,350,30.3,346.2z"/>
<path fill="#968D9C" d="M32.1,355.9c3.3,2,7.4,1.1,9.3-1.9c1.8-3.1,0.7-7.1-2.6-9.1c-3.3-2-7.4-1.1-9.3,1.9S28.8,353.9,32.1,355.9z"
  />
<path fill="#C09AA1" d="M30.4,353.3c-0.5-0.3-1-0.7-1.4-1.1c-0.7-1.8-0.6-3.8,0.4-5.5c1.8-3.1,6-3.9,9.3-1.9c0.5,0.3,1,0.7,1.4,1.1
  c0.7,1.8,0.6,3.8-0.4,5.5C37.8,354.5,33.7,355.3,30.4,353.3z"/>
<path fill="#968D9C" d="M35.5,363.5c-3.4,1.8-7.5,0.8-9.2-2.3c-1.7-3.1-0.4-7.2,3-9s7.5-0.8,9.2,2.3
  C40.3,357.6,38.9,361.6,35.5,363.5z"/>
<path fill="#C09AA1" d="M37.3,361c0.5-0.3,1-0.6,1.4-1c0.8-1.8,0.7-3.8-0.2-5.5c-1.7-3.1-5.8-4.2-9.2-2.3c-0.5,0.3-1,0.6-1.4,1
  c-0.8,1.8-0.7,3.8,0.2,5.5C29.8,361.8,34,362.9,37.3,361z"/>
<ellipse fill="#968D9C" cx="0.4" cy="336" rx="6.5" ry="7"/>
<path fill="#C09AA1" d="M5.5,333.2c0-0.6-0.1-1.2-0.2-1.7c-1.2-1.5-3-2.5-4.9-2.5c-3.6,0-6.5,3.1-6.5,7c0,0.6,0.1,1.2,0.2,1.7
  c1.2,1.5,3,2.5,4.9,2.5C2.7,340.2,5.5,337.1,5.5,333.2z"/>
<path fill="#968D9C" d="M13.8,343.1c-3.4,1.8-7.5,0.8-9.2-2.3c-1.7-3.1-0.4-7.2,3-9s7.5-0.8,9.2,2.3
  C18.5,337.2,17.2,341.2,13.8,343.1z"/>
<path fill="#C09AA1" d="M15.6,340.6c0.5-0.3,1-0.6,1.4-1c0.8-1.8,0.7-3.8-0.2-5.5c-1.7-3.1-5.8-4.2-9.2-2.3c-0.5,0.3-1,0.6-1.4,1
  c-0.8,1.8-0.7,3.8,0.2,5.5C8.1,341.4,12.2,342.4,15.6,340.6z"/>
<path fill="#968D9C" d="M10.8,350.6c-3.4,1.8-7.5,0.8-9.2-2.3c-1.7-3.1-0.4-7.2,3-9s7.5-0.8,9.2,2.3
  C15.5,344.7,14.2,348.7,10.8,350.6z"/>
<path fill="#C09AA1" d="M12.6,348.1c0.5-0.3,1-0.6,1.4-1c0.8-1.8,0.7-3.8-0.2-5.5c-1.7-3.1-5.8-4.2-9.2-2.3c-0.5,0.3-1,0.6-1.4,1
  c-0.8,1.8-0.7,3.8,0.2,5.5C5.1,348.9,9.3,349.9,12.6,348.1z"/>
<path fill="#968D9C" d="M1.9,353.8c-3.4,1.8-7.5,0.8-9.2-2.3c-1.7-3.1-0.4-7.2,3-9s7.5-0.8,9.2,2.3C6.6,347.9,5.3,351.9,1.9,353.8z"
  />
<path fill="#C09AA1" d="M3.7,351.3c0.5-0.3,1-0.6,1.4-1c0.8-1.8,0.7-3.8-0.2-5.5c-1.7-3.1-5.8-4.2-9.2-2.3c-0.5,0.3-1,0.6-1.4,1
  c-0.8,1.8-0.7,3.8,0.2,5.5C-3.8,352.1,0.3,353.1,3.7,351.3z"/>
<ellipse fill="#968D9C" cx="6.4" cy="351.8" rx="6.5" ry="7"/>
<path fill="#C09AA1" d="M11.5,349.1c0-0.6-0.1-1.2-0.2-1.7c-1.2-1.5-3-2.5-4.9-2.5c-3.6,0-6.5,3.1-6.5,7c0,0.6,0.1,1.2,0.2,1.7
  c1.2,1.5,3,2.5,4.9,2.5C8.6,356,11.5,352.9,11.5,349.1z"/>
<path fill="#968D9C" d="M13.3,358.8c3.3,2,7.4,1.1,9.3-1.9c1.8-3.1,0.7-7.1-2.6-9.1c-3.3-2-7.4-1.1-9.3,1.9
  C8.9,352.7,10,356.8,13.3,358.8z"/>
<path fill="#C09AA1" d="M11.6,356.3c-0.5-0.3-1-0.7-1.4-1.1c-0.7-1.8-0.6-3.8,0.4-5.5c1.8-3.1,6-3.9,9.3-1.9c0.5,0.3,1,0.7,1.4,1.1
  c0.7,1.8,0.6,3.8-0.4,5.5C19.1,357.4,14.9,358.2,11.6,356.3z"/>
<path fill="#968D9C" d="M21.1,367c3.6,1.4,7.5-0.1,8.9-3.4c1.3-3.3-0.4-7.2-4-8.6s-7.5,0.1-8.9,3.4C15.7,361.7,17.5,365.6,21.1,367z
  "/>
<path fill="#C09AA1" d="M19,364.7c-0.6-0.2-1.1-0.5-1.5-0.8c-0.9-1.7-1.2-3.7-0.4-5.5c1.3-3.3,5.3-4.8,8.9-3.4
  c0.6,0.2,1.1,0.5,1.5,0.8c0.9,1.7,1.2,3.7,0.4,5.5C26.5,364.7,22.6,366.2,19,364.7z"/>
<path fill="#968D9C" d="M16.8,366.4c-3.4,1.8-7.5,0.8-9.2-2.3c-1.7-3.1-0.4-7.2,3-9s7.5-0.8,9.2,2.3
  C21.5,360.5,20.2,364.6,16.8,366.4z"/>
<path fill="#C09AA1" d="M18.6,363.9c0.5-0.3,1-0.6,1.4-1c0.8-1.8,0.7-3.8-0.2-5.5c-1.7-3.1-5.8-4.2-9.2-2.3c-0.5,0.3-1,0.6-1.4,1
  c-0.8,1.8-0.7,3.8,0.2,5.5C11.1,364.7,15.2,365.8,18.6,363.9z"/>
<path fill="#968D9C" d="M25,375.5c3.6,1.5,7.5-0.1,8.9-3.4c1.3-3.3-0.4-7.2-4-8.6s-7.5,0.1-8.9,3.4C19.7,370.2,21.5,374,25,375.5z"
  />
<path fill="#968D9C" d="M2.3,369.9c3.6,1.4,7.5-0.1,8.9-3.4c1.3-3.3-0.4-7.2-4-8.6s-7.5,0.1-8.9,3.4C-3,364.6-1.2,368.5,2.3,369.9z"
  />
<path fill="#C09AA1" d="M0.3,367.7c-0.6-0.2-1.1-0.5-1.5-0.8c-0.9-1.7-1.2-3.7-0.4-5.5c1.3-3.3,5.3-4.8,8.9-3.4
  c0.6,0.2,1.1,0.5,1.5,0.8c0.9,1.7,1.2,3.7,0.4,5.5C7.8,367.6,3.8,369.1,0.3,367.7z"/>
<path fill="#968D9C" d="M27,370.8c3.3,2,7.4,1.1,9.3-1.9c1.8-3.1,0.7-7.1-2.6-9.1c-3.3-2-7.4-1.1-9.3,1.9
  C22.6,364.8,23.8,368.8,27,370.8z"/>
<path fill="#C09AA1" d="M25.4,368.3c-0.5-0.3-1-0.7-1.4-1.1c-0.7-1.8-0.6-3.8,0.4-5.5c1.8-3.1,6-3.9,9.3-1.9c0.5,0.3,1,0.7,1.4,1.1
  c0.7,1.8,0.6,3.8-0.4,5.5C32.8,369.4,28.7,370.3,25.4,368.3z"/>
<path fill="#968D9C" d="M20.8,374.9c-3.4,1.8-7.5,0.8-9.2-2.3c-1.7-3.1-0.4-7.2,3-9s7.5-0.8,9.2,2.3C25.5,369,24.2,373,20.8,374.9z"
  />
<path fill="#C09AA1" d="M22.6,372.4c0.5-0.3,1-0.6,1.4-1c0.8-1.8,0.7-3.8-0.2-5.5c-1.7-3.1-5.8-4.2-9.2-2.3c-0.5,0.3-1,0.6-1.4,1
  c-0.8,1.8-0.7,3.8,0.2,5.5C15.1,373.2,19.2,374.2,22.6,372.4z"/>
<path fill="#968D9C" d="M24.3,382.1c3.6,1.3,7.5-0.4,8.7-3.7c1.2-3.4-0.7-7.1-4.3-8.4c-3.6-1.3-7.5,0.4-8.7,3.7
  C18.7,377,20.7,380.8,24.3,382.1z"/>
<path fill="#C09AA1" d="M22.1,379.9c-0.6-0.2-1.1-0.5-1.6-0.8c-1-1.6-1.3-3.6-0.6-5.5c1.2-3.4,5.1-5,8.7-3.7
  c0.6,0.2,1.1,0.5,1.6,0.8c1,1.6,1.3,3.6,0.6,5.5C29.7,379.6,25.8,381.2,22.1,379.9z"/>
</svg>
