<svg version="1.1" xmlns="http://www.w3.org/2000/svg" xmlns:xlink="http://www.w3.org/1999/xlink"
 width="160px" height="160px" viewBox="-219 321 160 160">
<path fill="#808184" d="M-101.4,334.2h-6.6c1.2,0,2.2,4.9,2.2,11c0,6.1-1,11-2.2,11h6.6c1.2,0,2.2-4.9,2.2-11
C-99.2,339.1-100.2,334.2-101.4,334.2z"/>
<ellipse fill="#BBBDBF" cx="-108" cy="345.2" rx="2.2" ry="11"/>
<path fill="#808184" d="M-114.9,337.4h1.6h4.7l0,0c0.9,0,1.6,3.5,1.6,7.9c0,4.3-0.7,7.8-1.6,7.9l0,0h-4.7h-1.6h-17.3v-15.7H-114.9z"
/>
<path fill="#808184" d="M-140,337.4c4.3,0,7.9,0,7.9,0l0,0h0c0.9,0,1.6,3.5,1.6,7.9c0,4.3-0.7,7.9-1.6,7.9h0v15.7l0,0
c0,0.9-3.5,1.6-7.9,1.6c-4.3,0-7.9-0.7-7.9-1.6h0v-15.7v-3.1c0-1.3,0-2.9,0-4.7C-147.9,340.9-144.4,337.4-140,337.4z"/>
<path fill="#A6A8AB" d="M-115.5,383.3c0,8.5-11,14.5-24.5,14.5c-13.5,0-24.5-6-24.5-14.5c0-1.9,11-16.3,24.5-16.3
C-126.5,367-115.5,381.4-115.5,383.3z"/>
<path fill="#BBBDBF" d="M-140,376.1c-14.7,0-26.7,3.5-26.7,8.4v9.4h53.4v-9.4C-113.3,379.6-125.3,376.1-140,376.1z"/>
<path fill="#A6A8AB" d="M-113.3,393.9c0,4.9-12,8.4-26.7,8.4c-14.7,0-26.7-3.5-26.7-8.4c0-4.9,12-9.4,26.7-9.4
C-125.3,384.5-113.3,389-113.3,393.9z"/>
<path fill="#D0D2D3" d="M-120,393.4c0,2.5-8.9,4.6-20,4.6c-11,0-20-2-20-4.6c0-2.5,8.9-4.6,20-4.6C-129,388.8-120,390.9-120,393.4z"
/>
<ellipse fill="#929497" cx="-152.3" cy="392" rx="1.5" ry="0.4"/>
<ellipse fill="#929497" cx="-149.2" cy="391.3" rx="1.5" ry="0.4"/>
<path fill="#929497" d="M-144.6,390.6c0,0.2-0.7,0.4-1.5,0.4c-0.9,0-1.5-0.2-1.5-0.4c0-0.2,0.7-0.4,1.5-0.4
C-145.3,390.2-144.6,390.4-144.6,390.6z"/>
<ellipse fill="#929497" cx="-143.1" cy="389.9" rx="1.5" ry="0.4"/>
<ellipse fill="#929497" cx="-143.1" cy="391.3" rx="1.5" ry="0.4"/>
<ellipse fill="#929497" cx="-136.9" cy="391.3" rx="1.5" ry="0.4"/>
<ellipse fill="#929497" cx="-130.8" cy="391.3" rx="1.5" ry="0.4"/>
<path fill="#929497" d="M-132.3,390.6c0,0.2-0.7,0.4-1.5,0.4c-0.9,0-1.5-0.2-1.5-0.4c0-0.2,0.7-0.4,1.5-0.4
C-133,390.2-132.3,390.4-132.3,390.6z"/>
<ellipse fill="#929497" cx="-136.9" cy="389.9" rx="1.5" ry="0.4"/>
<path fill="#929497" d="M-138.5,390.6c0,0.2-0.7,0.4-1.5,0.4c-0.9,0-1.5-0.2-1.5-0.4c0-0.2,0.7-0.4,1.5-0.4
C-139.2,390.2-138.5,390.4-138.5,390.6z"/>
<path fill="#929497" d="M-150.8,393.4c0,0.2-0.7,0.4-1.5,0.4c-0.9,0-1.5-0.2-1.5-0.4c0-0.2,0.7-0.3,1.5-0.3
C-151.5,393-150.8,393.2-150.8,393.4z"/>
<path fill="#929497" d="M-153.9,392.7c0,0.2-0.7,0.4-1.5,0.4c-0.9,0-1.5-0.2-1.5-0.4c0-0.2,0.7-0.3,1.5-0.3
C-154.5,392.3-153.9,392.5-153.9,392.7z"/>
<ellipse fill="#929497" cx="-146.2" cy="392" rx="1.5" ry="0.4"/>
<path fill="#929497" d="M-138.5,393.4c0,0.2-0.7,0.4-1.5,0.4c-0.9,0-1.5-0.2-1.5-0.4c0-0.2,0.7-0.3,1.5-0.3
C-139.2,393-138.5,393.2-138.5,393.4z"/>
<ellipse fill="#929497" cx="-140" cy="392" rx="1.5" ry="0.4"/>
<path fill="#929497" d="M-141.6,392.7c0,0.2-0.7,0.4-1.5,0.4c-0.9,0-1.5-0.2-1.5-0.4c0-0.2,0.7-0.3,1.5-0.3
C-142.2,392.3-141.6,392.5-141.6,392.7z"/>
<path fill="#929497" d="M-144.6,393.4c0,0.2-0.7,0.4-1.5,0.4c-0.8,0-1.5-0.2-1.5-0.4c0-0.2,0.7-0.3,1.5-0.3
C-145.3,393-144.6,393.2-144.6,393.4z"/>
<path fill="#929497" d="M-147.7,392.7c0,0.2-0.7,0.4-1.5,0.4c-0.9,0-1.5-0.2-1.5-0.4c0-0.2,0.7-0.3,1.5-0.3
C-148.4,392.3-147.7,392.5-147.7,392.7z"/>
<path fill="#929497" d="M-153.9,394.1c0,0.2-0.7,0.4-1.5,0.4c-0.8,0-1.5-0.2-1.5-0.4c0-0.2,0.7-0.3,1.5-0.3
C-154.5,393.7-153.9,393.9-153.9,394.1z"/>
<path fill="#929497" d="M-147.7,394.1c0,0.2-0.7,0.4-1.5,0.4c-0.9,0-1.5-0.2-1.5-0.4c0-0.2,0.7-0.3,1.5-0.3
C-148.4,393.7-147.7,393.9-147.7,394.1z"/>
<ellipse fill="#929497" cx="-143.1" cy="395.5" rx="1.5" ry="0.4"/>
<ellipse fill="#929497" cx="-140" cy="396.2" rx="1.5" ry="0.4"/>
<path fill="#929497" d="M-141.6,394.1c0,0.2-0.7,0.4-1.5,0.4c-0.9,0-1.5-0.2-1.5-0.4c0-0.2,0.7-0.3,1.5-0.3
C-142.2,393.7-141.6,393.9-141.6,394.1z"/>
<path fill="#929497" d="M-144.6,394.8c0,0.2-0.7,0.4-1.5,0.4c-0.8,0-1.5-0.2-1.5-0.4c0-0.2,0.7-0.3,1.5-0.3
C-145.3,394.4-144.6,394.6-144.6,394.8z"/>
<ellipse fill="#929497" cx="-149.2" cy="395.5" rx="1.5" ry="0.4"/>
<ellipse fill="#929497" cx="-146.2" cy="396.2" rx="1.5" ry="0.4"/>
<path fill="#929497" d="M-150.8,394.8c0,0.2-0.7,0.4-1.5,0.4c-0.9,0-1.5-0.2-1.5-0.4c0-0.2,0.7-0.3,1.5-0.3
C-151.5,394.4-150.8,394.6-150.8,394.8z"/>
<ellipse fill="#929497" cx="-136.9" cy="394.1" rx="1.5" ry="0.4"/>
<path fill="#929497" d="M-135.4,392.7c0,0.2-0.7,0.4-1.5,0.4c-0.9,0-1.5-0.2-1.5-0.4c0-0.2,0.7-0.3,1.5-0.3
C-136.1,392.3-135.4,392.5-135.4,392.7z"/>
<path fill="#929497" d="M-132.3,393.4c0,0.2-0.7,0.4-1.5,0.4c-0.9,0-1.5-0.2-1.5-0.4c0-0.2,0.7-0.3,1.5-0.3
C-133,393-132.3,393.2-132.3,393.4z"/>
<ellipse fill="#929497" cx="-133.9" cy="392" rx="1.5" ry="0.4"/>
<path fill="#929497" d="M-129.3,392.7c0,0.2-0.7,0.4-1.5,0.4c-0.9,0-1.5-0.2-1.5-0.4c0-0.2,0.7-0.3,1.5-0.3
C-129.9,392.3-129.3,392.5-129.3,392.7z"/>
<ellipse fill="#929497" cx="-127.7" cy="392" rx="1.5" ry="0.4"/>
<path fill="#929497" d="M-126.2,393.4c0,0.2-0.7,0.4-1.5,0.4c-0.9,0-1.5-0.2-1.5-0.4c0-0.2,0.7-0.3,1.5-0.3
C-126.9,393-126.2,393.2-126.2,393.4z"/>
<path fill="#929497" d="M-123.1,392.7c0,0.2-0.7,0.4-1.5,0.4c-0.9,0-1.5-0.2-1.5-0.4c0-0.2,0.7-0.3,1.5-0.3
C-123.8,392.3-123.1,392.5-123.1,392.7z"/>
<ellipse fill="#929497" cx="-140" cy="394.8" rx="1.5" ry="0.4"/>
<ellipse fill="#929497" cx="-136.9" cy="395.5" rx="1.5" ry="0.4"/>
<ellipse fill="#929497" cx="-133.9" cy="396.2" rx="1.5" ry="0.4"/>
<ellipse fill="#929497" cx="-136.9" cy="396.9" rx="1.5" ry="0.4"/>
<ellipse fill="#929497" cx="-143.1" cy="396.9" rx="1.5" ry="0.4"/>
<ellipse fill="#929497" cx="-130.8" cy="394.1" rx="1.5" ry="0.4"/>
<ellipse fill="#929497" cx="-124.6" cy="394.1" rx="1.5" ry="0.4"/>
<ellipse fill="#929497" cx="-127.7" cy="394.8" rx="1.5" ry="0.4"/>
<ellipse fill="#929497" cx="-130.8" cy="395.5" rx="1.5" ry="0.4"/>
<path fill="#929497" d="M-132.3,394.8c0,0.2-0.7,0.4-1.5,0.4c-0.9,0-1.5-0.2-1.5-0.4c0-0.2,0.7-0.3,1.5-0.3
C-133,394.4-132.3,394.6-132.3,394.8z"/>
<path fill="#A4DBDF" d="M-148.9,413.8c0,1.7-1.4,3.1-3.1,3.1c-1.7,0-3.1-1.4-3.1-3.1c0-1.7,3.1-6.2,3.1-6.2
S-148.9,412.1-148.9,413.8z"/>
<path fill="#A4DBDF" d="M-136.4,413.8c0,1.7-1.4,3.1-3.1,3.1c-1.7,0-3.1-1.4-3.1-3.1c0-1.7,3.1-6.2,3.1-6.2
S-136.4,412.1-136.4,413.8z"/>
<path fill="#A4DBDF" d="M-123.9,413.8c0,1.7-1.4,3.1-3.1,3.1c-1.7,0-3.1-1.4-3.1-3.1c0-1.7,3.1-6.2,3.1-6.2
S-123.9,412.1-123.9,413.8z"/>
<path fill="#A4DBDF" d="M-136.4,432.5c0,1.7-1.4,3.1-3.1,3.1c-1.7,0-3.1-1.4-3.1-3.1c0-1.7,3.1-6.2,3.1-6.2
S-136.4,430.8-136.4,432.5z"/>
<path fill="#A4DBDF" d="M-123.9,432.5c0,1.7-1.4,3.1-3.1,3.1c-1.7,0-3.1-1.4-3.1-3.1c0-1.7,3.1-6.2,3.1-6.2
S-123.9,430.8-123.9,432.5z"/>
<path fill="#A4DBDF" d="M-155.1,423.2c0,1.7-1.4,3.1-3.1,3.1c-1.7,0-3.1-1.4-3.1-3.1c0-1.7,3.1-6.2,3.1-6.2
S-155.1,421.4-155.1,423.2z"/>
<path fill="#A4DBDF" d="M-142.6,423.2c0,1.7-1.4,3.1-3.1,3.1c-1.7,0-3.1-1.4-3.1-3.1c0-1.7,3.1-6.2,3.1-6.2
S-142.6,421.4-142.6,423.2z"/>
<path fill="#A4DBDF" d="M-130.1,423.2c0,1.7-1.4,3.1-3.1,3.1c-1.7,0-3.1-1.4-3.1-3.1c0-1.7,3.1-6.2,3.1-6.2
S-130.1,421.4-130.1,423.2z"/>
<path fill="#A4DBDF" d="M-117.6,423.2c0,1.7-1.4,3.1-3.1,3.1c-1.7,0-3.1-1.4-3.1-3.1c0-1.7,3.1-6.2,3.1-6.2
S-117.6,421.4-117.6,423.2z"/>
<path fill="#A4DBDF" d="M-148.9,432.5c0,1.7-1.4,3.1-3.1,3.1c-1.7,0-3.1-1.4-3.1-3.1c0-1.7,3.1-6.2,3.1-6.2
S-148.9,430.8-148.9,432.5z"/>
<path fill="#A4DBDF" d="M-123.9,451.3c0,1.7-1.4,3.1-3.1,3.1c-1.7,0-3.1-1.4-3.1-3.1c0-1.7,3.1-6.2,3.1-6.2
S-123.9,449.5-123.9,451.3z"/>
<path fill="#A4DBDF" d="M-148.9,451.3c0,1.7-1.4,3.1-3.1,3.1c-1.7,0-3.1-1.4-3.1-3.1c0-1.7,3.1-6.2,3.1-6.2
S-148.9,449.5-148.9,451.3z"/>
<path fill="#A4DBDF" d="M-142.6,441.9c0,1.7-1.4,3.1-3.1,3.1c-1.7,0-3.1-1.4-3.1-3.1c0-1.7,3.1-6.2,3.1-6.2
S-142.6,440.2-142.6,441.9z"/>
<path fill="#A4DBDF" d="M-130.1,441.9c0,1.7-1.4,3.1-3.1,3.1c-1.7,0-3.1-1.4-3.1-3.1c0-1.7,3.1-6.2,3.1-6.2
S-130.1,440.2-130.1,441.9z"/>
<path fill="#A4DBDF" d="M-117.6,441.9c0,1.7-1.4,3.1-3.1,3.1c-1.7,0-3.1-1.4-3.1-3.1c0-1.7,3.1-6.2,3.1-6.2
S-117.6,440.2-117.6,441.9z"/>
<path fill="#A4DBDF" d="M-155.1,441.9c0,1.7-1.4,3.1-3.1,3.1c-1.7,0-3.1-1.4-3.1-3.1c0-1.7,3.1-6.2,3.1-6.2
S-155.1,440.2-155.1,441.9z"/>
<path fill="#A4DBDF" d="M-107.5,454.7c1.2-1.2,3.2-1.2,4.4,0c1.2,1.2,1.2,3.2,0,4.4c-1.2,1.2-6.6,2.2-6.6,2.2
S-108.8,455.9-107.5,454.7z"/>
<path fill="#A4DBDF" d="M-175.9,459.1c-1.2-1.2-1.2-3.2,0-4.4c1.2-1.2,3.2-1.2,4.4,0c1.2,1.2,2.2,6.6,2.2,6.6
S-174.6,460.3-175.9,459.1z"/>
<path fill="#A4DBDF" d="M-136.4,451.3c0,1.7-1.4,3.1-3.1,3.1c-1.7,0-3.1-1.4-3.1-3.1c0-1.7,3.1-6.2,3.1-6.2
S-136.4,449.6-136.4,451.3z"/>
<path fill="#A4DBDF" d="M-130.1,460.6c0,1.7-1.4,3.1-3.1,3.1c-1.7,0-3.1-1.4-3.1-3.1c0-1.7,3.1-6.2,3.1-6.2
S-130.1,458.9-130.1,460.6z"/>
<path fill="#A4DBDF" d="M-117.6,460.6c0,1.7-1.4,3.1-3.1,3.1c-1.7,0-3.1-1.4-3.1-3.1c0-1.7,3.1-6.2,3.1-6.2
S-117.6,458.9-117.6,460.6z"/>
<path fill="#A4DBDF" d="M-142.6,460.6c0,1.7-1.4,3.1-3.1,3.1c-1.7,0-3.1-1.4-3.1-3.1c0-1.7,3.1-6.2,3.1-6.2
S-142.6,458.9-142.6,460.6z"/>
<path fill="#A4DBDF" d="M-155.1,460.6c0,1.7-1.4,3.1-3.1,3.1c-1.7,0-3.1-1.4-3.1-3.1c0-1.7,3.1-6.2,3.1-6.2
S-155.1,458.9-155.1,460.6z"/>
</svg>
