<svg version="1.1" id="Layer_1" xmlns="http://www.w3.org/2000/svg" xmlns:xlink="http://www.w3.org/1999/xlink" x="0px" y="0px"
   width="160px" height="160px" viewBox="-107 254 160 160">
<path fill="#999999" d="M-32.1,325.6c-0.8,0-8.1-2.8-7.8-8.2l9.4-1L-32.1,325.6z"/>
<path fill="#F0D0B3" d="M-45.7,333.2c-4.6-3-10.8-11.4-13.2-17.1c-1.1-2.6-0.8-3.1,1.9-4.3c1.9-0.9,2.6-0.6,2.8-0.4
  c0,0,1.8,2.4,2.5,3.2c5,6.2,8.9,6.4,14.2,10.3C-35,332.1-44.4,334-45.7,333.2z"/>
<path fill="#F0D0B3" d="M-45.5,332.9c7.9-0.6,16.1-9.8,17.7-14.7c0.8-2.3,0.5-5.2-1.2-7.1c-3.8-4.3-5.7,0.7-5.9,0.9
  c0,0-0.3,0.4-0.9,1.1c-5.6,6-4.7,7.3-8.4,10C-46.5,329.1-46.8,333-45.5,332.9z"/>
<path fill="#F399C0" d="M-29.5,308.1c-2.7-1-5.3,3.3-5.5,3.5c0,0-0.3,0.5-1,1.2c-1.8,2-3,3.4-3.9,4.7c0.2,0.1,0.5,0.1,0.7,0.2
  c3.8,1.1,6.5,4.3,7.1,8c2.3-2.6,4.1-5.3,4.7-7.4C-26.6,315.8-27.7,310.2-29.5,308.1z"/>
<path fill="#816F9F" d="M-34.6,351.5c-7.7-2.8-19.9,10-24.9,16.1c-5.2,5.3-14.8,10-14.9,20.1c0,1.1,1.4,5.7,5,4.6
  c0.1,0,0.1,0,0.2,0.1c8.2,0.2,13.8-7.1,19.1-11.2c6.8-5.6,16.1-5.2,25.4-5.1c1.2-0.1,1.9-0.1,1.9-0.1
  C-26.2,366.9-27,354.3-34.6,351.5z"/>
<path fill="#F0D0B3" d="M-8.5,288.2c2.4,2.2,5.3,4.1,7.5,6.4c-1,0.3-4.3-0.6-4.1,1.6c0.1,1,4.5,1.4,8.7,3.2c3.6,1.5,4.5-0.2,9.3-3.3
  c-3.8-2.7-12.2-13.7-13.5-12.4c-1.1,1.2,3.4,4.1,3.1,4.3c-0.8,0.6-4.7-6-6.4-4.3c-1.3,1.3,3.7,2.8,4.6,6c-4.2-3-6.3-7.3-7.7-5.9
  c-1.3,1.4,2.7,3.7,5.9,7.7C-3.3,290.1-8.8,284-8.5,288.2"/>
<path fill="#BBBDBF" d="M-21.6,320.7c9.7-1.3,19.6-1.7,28.8-4.5c-4.6-5.4-6.1-12.8-5.5-19.7c0.1-2.3,0.2-4.7,0.3-7
  c-8,1.6-18.1-1.8-22.3,3.3c-2.4,2.6-3.3,6.5-3.5,10.8c0.9,4.4-0.2,8.8,1.2,13.1C-22.1,319.2-21.6,320.7-21.6,320.7z"/>
<path fill="#9A84BD" d="M-43.6,369.1c5.1,13.5,16.1,8.8,22.5,7.3c3-0.7,5.8-3.2,6.6-6.7c1.7-8.2-5-6.9-5.3-7c0,0-2.8-0.2-3.9-0.5
  c-1.2-0.3-3-0.9-4.7-1.7C-36.6,361.9-44.3,367.3-43.6,369.1z"/>
<path fill="#9A84BD" d="M-43.6,377.2c7-1.2,16.4-5.8,25.6-4.4c2.1-0.1,3.6-4.6,3.6-4.6c-2.2-9.4-2.2-17.4-8.6-22.5
  c-3.2-2.6-3.9,5.2-9.6,7c-3.5,1.1-6.9,2.7-9.5,4.4c-9,3.7-17.5,7.1-20.6,11.7c-2.4,3.5-3.4,8.6-1.5,12.6
  C-59.7,390.5-50.6,378.4-43.6,377.2z"/>
<path fill="#F0D0B3" d="M-13.7,339.8c3.9-2.7,6.6-6.3,9.2-13.5c2.7-7.5-2.4-13.8-6.8-16.2c-4.7-1.5-8.5-3.4-18.1-2
  c-0.1,6.6-3.2,26.9-0.6,28.6C-28,338.1-14.6,340.5-13.7,339.8z"/>
<path fill="#F0D0B3" d="M-19.7,310.4c2-0.1,4.6-1.7,8.4-0.2c0,0-0.3-5.6,1.9-8.2s-10.9-2.6-10.9-2.6s-0.7,6.7-2.6,8.9
  c-0.5,0.6,0.4,1.3,1,1.6C-21.1,310.3-20.4,310.4-19.7,310.4z"/>
<path fill="#F0D0B3" d="M-14.7,306.1c6-2,8.7-6.1,11.6-13.2c3-7.4-1.6-15.2-9.8-17.8c-8.2-2.5-16.6,1.7-18.8,9.3
  c-2.2,7.7,1.2,17.6,5.8,19.9C-22,306.3-16.2,306.6-14.7,306.1z"/>
<path fill="#808284" d="M-17.9,291.8c0.4,0.4,1,0.3,1.2-0.3c0.3-0.6,0.1-1.3-0.3-1.8c-0.4-0.4-1-0.3-1.2,0.3
  C-18.4,290.6-18.3,291.4-17.9,291.8z"/>
<path fill="#808284" d="M-28.8,290c0.3,0.4,0.8,0.4,1-0.2c0.3-0.5,0.2-1.3-0.1-1.8c-0.3-0.4-0.8-0.4-1,0.2
  C-29.1,288.8-29.1,289.5-28.8,290z"/>
<path fill="#BBBDBF" d="M-3.1,296.2c1.4-2.2,4.1-3.8,4.9-6.3c0.8-2.3,0.2-5.2-0.6-7.4c-1-2.5-2-5.4-3.6-7.6
  c-3.4-4.5-11-7.5-16.5-7.3c-1.7,0.1-3.4,0.4-5.1,0.8c-1.3,0.3-2.5,0.4-3.6,1.2c-1.1,0.7-7.2,11.6-6.8,13.1c0.2,0.6,0.1,0,1.8-0.2
  c0,0,8.2-4.4,21.4,4c3.8,2.4,0.4,8.8,4,7.4c2.5-1,1.6,3.5,0.1,6.4c1,0.4,2.2-2,2.2-1.9C-4.1,297.6-3.5,297-3.1,296.2z"/>
<path fill="#808284" d="M-24.5,294.6c0,0,2.1-4.9,2-4.9s-0.1,0-0.2,0l0,0l-2.6,4.8l0.7,1.3l2.1,0.3L-24.5,294.6z"/>
<path fill="#F399C0" d="M-51.7,359.1c8.6-9.7,13.8-17.1,17.1-25.6c0.7-1.9-1.9-6-1.4-8.1c1.5-5.5,5.8-9.7,6.4-17.3
  c-0.5,5-0.1,12.7,1.6,13.4c4,1.9,9-9.2,16.6-11.4c3.7,1.3,4.9,2.3,6.9,5.4c1.5,2.3,1.6,3.5,1.6,5s-0.6,3.7-0.8,4.3
  c-6.5,21.7-6.7,34.5-11.8,45.7C-22.5,375.6-29.5,346.6-51.7,359.1z"/>
<path fill="#999999" d="M3.8,326.5c0.5-0.9,2.6-10.2-3.2-13.5l-7.3,9L3.8,326.5z"/>
<path fill="#F0D0B3" d="M20.3,317.5c0-5.7-3.7-15.9-7.4-21.2c-1.7-2.5-2.3-2.5-4.9-0.8c-1.9,1.2-2.1,1.9-2,2.3c0,0,1,2.9,1.4,4
  c2.6,7.9,0.5,11.4,0.9,18.2C13.3,326.2,20.3,319.1,20.3,317.5z"/>
<path fill="#F0D0B3" d="M20.3,317.5c-5.9,7.7-20.9,10-27.1,8.4c-2.9-0.8-5.7-3-6.5-6c-1.9-6.9,4.5-5.4,4.8-5.4c0,0,0.7,0,1.8-0.2
  c9.9-1.7,10.7,0,16-1.9C17.1,314,21.3,316.2,20.3,317.5z"/>
<path fill="#F399C0" d="M-14,320c-2-7.4,4.9-5.8,5.2-5.9c0,0,0.7-0.1,1.9-0.3c3.2-0.6,5.6-0.8,7.4-0.9c-0.1,0.3-0.2,0.6-0.3,0.8
  c-1.4,4.7,0.1,9.6,3.5,12.7c-4.3,0.7-8.2,0.6-10.8-0.1C-10.1,325.6-13.1,323.2-14,320z"/>
<polygon fill="#EC1C24" points="-44,289.5 -46.7,289.8 -46.7,289.8 -57.7,308.9 "/>
<polygon fill="#F37521" points="-40.5,295 -40.6,292.3 -40.7,292.3 -57.7,308.9 "/>
<polygon fill="#EC1C24" points="-40.7,292.3 -43.3,292.1 -43.3,292.1 -57.7,308.9 "/>
<polygon fill="#F37521" points="-43.3,292.1 -44,289.5 -44,289.5 -57.7,308.9 "/>
<polygon fill="#F37521" points="-50.4,288.1 -51.9,285.9 -51.9,285.9 -57.7,308.9 "/>
<polygon fill="#EC1C24" points="-47.8,287.3 -50.4,288.1 -50.4,288.1 -57.7,308.9 "/>
<polygon fill="#F37521" points="-46.7,289.8 -47.8,287.3 -47.8,287.3 -57.7,308.9 "/>
<polygon fill="#F37521" points="-36.7,302.2 -35.8,299.6 -35.8,299.6 -57.7,308.9 "/>
<polygon fill="#EC1C24" points="-34,308.1 -35.8,306.1 -35.8,306.1 -57.7,308.9 "/>
<polygon fill="#EC1C24" points="-37.9,295.8 -40.5,295 -40.5,295 -57.7,308.9 "/>
<polygon fill="#F37521" points="-35.8,306.1 -34.5,303.8 -34.5,303.8 -57.7,308.9 "/>
<polygon fill="#F37521" points="-35.7,310.2 -34,308.1 -34,308.1 -57.7,308.9 "/>
<polygon fill="#F37521" points="-38.3,298.4 -37.9,295.7 -37.9,295.8 -57.7,308.9 "/>
<polygon fill="#EC1C24" points="-34.5,303.8 -36.7,302.2 -36.7,302.2 -57.7,308.9 "/>
<polygon fill="#EC1C24" points="-35.8,299.6 -38.3,298.4 -38.3,298.4 -57.7,308.9 "/>
<polygon fill="#EC1C24" points="-51.9,285.9 -54.3,287.1 -54.3,287.1 -57.7,308.9 "/>
<polygon fill="#F37521" points="-54.3,287.1 -56.2,285.2 -56.2,285.2 -57.7,308.9 "/>
<polygon fill="#EC1C24" points="-35.7,310.2 -57.7,308.9 -34.2,312.5 "/>
<polygon fill="#E4B885" points="-55.5,284.4 -56.9,284.3 -58.6,312.7 -57.2,312.7 "/>
<polygon fill="#E4B885" points="-33.5,313.3 -33.3,312 -61.3,307.6 -61.6,309 "/>
<path fill="#F0D0B3" d="M-51.5,299.4c-1.9,2-3.5,4.5-5.5,6.4c-0.3-0.8-2.6,0.3-4.1,3.9c-1.3,3,0.1,3.8,2.7,8
  c2.3-3.2,11.8-10.3,10.7-11.4c-1-1-3.5,2.8-3.7,2.6c-0.5-0.7,5.2-4,3.7-5.4c-1.1-1.1-2.5,3.1-5.2,3.9c2.6-3.6,6.3-5.3,5.1-6.5
  s-3.2,2.3-6.6,5C-53.2,303.9-48,299.2-51.5,299.4"/>
</svg>
