<svg version="1.1" xmlns="http://www.w3.org/2000/svg" xmlns:xlink="http://www.w3.org/1999/xlink"
 width="160px" height="160px" viewBox="-219 321 160 160">
<polygon fill="#00ADEE" points="-131.3,455.1 -144,446.5 -157.1,455 -150.9,397.6 -137,397.6 "/>
<polygon fill="#00ADEE" points="-92.3,431.8 -107.5,433.2 -112.3,448.1 -144.2,394.1 -136.7,388.6 "/>
<polygon fill="#00ADEE" points="-128.8,413.3 -136.2,409.1 -140.2,416.6 -145.7,410.1 -152.2,415.6 -154.8,407.5 -162.9,410.3
-162.4,401.9 -171,401.5 -167.5,393.8 -175.4,390.4 -169.3,384.5 -175.5,378.5 -167.6,375.1 -171.2,367.3 -162.7,367 -163.2,358.4
-155.1,361.3 -152.6,353 -146,358.6 -140.7,351.8 -136.5,359.4 -129.2,355 -128,363.6 -119.6,362.2 -121.6,370.6 -113.2,372.3
-118.1,379.4 -110.9,384 -118,388.9 -113.1,395.8 -121.4,397.8 -119.3,406 -127.7,404.8 "/>
<path fill="#E7E7E8" d="M-143.4,361.6c-12.7,0-22.9,10.3-22.9,22.9s10.3,22.9,22.9,22.9s22.9-10.3,22.9-22.9
S-130.7,361.6-143.4,361.6z M-143.4,406.6c-12.2,0-22.1-9.9-22.1-22.1s9.9-22.1,22.1-22.1s22.1,9.9,22.1,22.1
S-131.3,406.6-143.4,406.6z"/>
<path fill="#FFFFFF" d="M-141.5,372.4l2.2,23.6l-5.9,0.5l-1.2-12.7c-0.2-1.8-0.3-2.9-0.4-3.3c-0.1-0.4-0.4-0.6-0.8-0.8
c-0.4-0.2-1.3-0.2-2.7,0l-0.6,0.1l-0.3-2.8c2.8-0.9,4.8-2.3,6.1-4.4L-141.5,372.4z"/>
<path fill="#E7E7E8" d="M-143.4,364.1c-11.2,0-20.4,9.1-20.4,20.4s9.1,20.4,20.4,20.4c11.2,0,20.4-9.1,20.4-20.4
S-132.2,364.1-143.4,364.1z M-143.4,403.3c-10.4,0-18.8-8.4-18.8-18.8s8.4-18.8,18.8-18.8s18.8,8.4,18.8,18.8
S-133,403.3-143.4,403.3z"/>
</svg>
