<svg version="1.1" xmlns="http://www.w3.org/2000/svg" xmlns:xlink="http://www.w3.org/1999/xlink" width="160px"
  height="160px" viewBox="0 0 160 160" >
  <ellipse fill="#A6A8AB" stroke="#A6A8AB" stroke-width="0.91283" cx="85.11035" cy="75.67053" rx="64.499" ry="39.0606"/>
  <ellipse fill="#FFFFFF" stroke="#A6A8AB" stroke-width="0.91283" cx="85.11035" cy="70.80334" rx="64.499" ry="39.0606"/>
  <ellipse fill="none" stroke="#E6E7E8" stroke-width="1.82565" cx="84.9082" cy="70.62573" rx="35.31545" ry="17.332"/>
  <path fill="#A6A8AB" d="M69.28024,82.96749l16.4932-23.7383c0.291-0.4707,1.1865-1.0664,1.6562-0.7754
    c0.4697,0.2891,0.335,1.3574,0.0459,1.8281l-12.4414,21.9297c-0.2695,0.4356-0.1357,1.0117,0.3027,1.2832
    c0.4395,0.2696,1.0157,0.1328,1.28619-0.3047l13.7461-21.123c0.289-0.4707,1.1845-1.0684,1.65331-0.7774
    c0.4707,0.2891,0.3379,1.3575,0.0478,1.8262l-12.7568,21.7324c-0.2705,0.4414-0.1348,1.0176,0.3037,1.2891
    c0.4395,0.2695,1.0147,0.1348,1.2842-0.3066l14.0312-20.9454c0.2901-0.4707,1.1836-1.0683,1.6543-0.7792
    c0.4698,0.291,0.337,1.3574,0.0469,1.82809l-13.831,25.3789c-2.584,5.02151-7.4913,1.79881-11.3643,8.0742
    c-5.0156,8.123-27.7666,46.55859-29.4951,49.35941c-0.7754,1.2558-2.6787,1.48439-4.252,0.5136
    c-1.5722-0.9726-2.2207-2.7773-1.4453-4.0332c1.7285-2.7988,25.8965-40.3613,30.9112-48.4843
    C71.03123,90.46939,65.95113,87.52799,69.28024,82.96749z"/>
  <path fill="#D0D2D3" d="M68.71674,82.48509l16.4932-23.7364c0.29-0.4707,1.1865-1.0664,1.6562-0.7773
    c0.4698,0.291,0.335,1.3574,0.045,1.8281l-12.4405,21.9297c-0.2695,0.4375-0.1357,1.0137,0.3028,1.2832
    c0.4384,0.2715,1.01559,0.1348,1.28609-0.3066l13.7451-21.1192c0.2901-0.4707,1.1846-1.0703,1.6543-0.7793
    c0.4707,0.291,0.3379,1.3574,0.0479,1.8281l-12.7569,21.7325c-0.2705,0.4394-0.1347,1.0156,0.3037,1.2871
    c0.4385,0.2715,1.0147,0.1347,1.2852-0.3047l14.0303-20.9473c0.29-0.4707,1.1836-1.0703,1.65331-0.7793
    c0.4707,0.291,0.3379,1.3594,0.0478,1.8282l-13.831,25.3808c-2.584,5.0195-7.4912,1.79691-11.3643,8.0723
    c-5.0156,8.123-27.76661,46.56049-29.4951,49.3594c-0.7754,1.2558-2.6787,1.4843-4.2519,0.51559
    c-1.5723-0.97459-2.2207-2.7793-1.4463-4.03319c1.7285-2.7989,25.8974-40.3633,30.9131-48.4864
    C70.46774,89.98699,65.38863,87.04369,68.71674,82.48509z"/>

</svg>
