<svg xmlns="http://www.w3.org/2000/svg"x="0px" y="0px" width="160px" height="160px" viewBox="0 0 160 160">
<path fill="#f09a36" d="M135.9,51.4c-1.8-5.3,0.1-11.4-2.9-14.5c-0.3-0.3-1.7-4-2.5-5.1c-13.4,12.3-41.6,35.1-71.2,56.9
  c-8,5.8-15.6,11.4-22.4,16.4c-4.6,3.3-8.6,6-12.1,8.3c0.5,0.5,0.9,1.1,1.4,1.7c1.9,2.2,9.1,6.3,11.8,7.4c4.6,1.9,8.6,5,13.4,5.7
  c8.7,1.5,11.9,0.3,20.1,0.9c7.7,0.4,9.5-1.9,16.9-3.6c16.2-3.9,36.1-20.3,43.6-34c5-14.4,8.5-16.5,5.7-31.5
  C137,56.9,136.4,53.6,135.9,51.4z"/>
<path fill="#865936" d="M130.5,37.3c1.4,0.3,2.8,0.2,2.8,0.2c0.9-2.1-0.8-4.4-2.9-5.7C130.5,33.6,130.5,35.4,130.5,37.3z"/>
<path fill="#ffecdc" d="M62.6,99.3c-0.6,2.2-2.9,2.2-3.2-0.1c0.1-2.6,1.4-4,2.6-5.5c0.4-0.6,0.9,1.1,0.8,2.3
  C62.9,97.3,62.7,98.8,62.6,99.3z"/>
<path fill="#ffecdc" d="M83.3,90.6c0.8,1.8-0.6,3.1-1.9,1.7c-1.3-1.9-1.3-3.4-1.4-5.1c-0.1-0.7,1.1,0.4,1.7,1.1
  C82.4,89.1,83,90.1,83.3,90.6z"/>
<path fill="#ffecdc" d="M110.8,57.4c1.7-0.2,2.6,1.5,1.1,2.2c-1.7,0.7-3.2,0.2-4.7-0.4c-0.6-0.2,0.5-1,1.2-1.2
  C109.3,57.9,110.3,57.6,110.8,57.4z"/>
<path fill="#ffecdc" d="M99.9,75c1.8,0.4,2.1,2.1,0.5,2.5c-1.9,0-3.3-0.9-4.5-1.8c-0.5-0.4,0.8-0.8,1.6-0.7
  C98.3,74.9,99.4,74.9,99.9,75z"/>
<path fill="#ffecdc" d="M128.6,33.5c-0.2,0.2,0,2.1,0,2.6c0,0.9-0.2,1.9-0.2,2.8c-0.2,1.9-0.5,3.7-0.8,5.5
  c-0.7,3.8-1.6,7.3-2.9,10.9c-0.7,1.9-1.1,4.1-2.2,5.7c-1.3,2.1-3.2,2.8-5.4,3.2c-1.5,0.4-3.1,0.9-4.6,1.5c-3.7,1.2-7.6,2.3-11.2,3.5
  c-4,1.3-8,2.4-12,3.7c-3.3,0.9-6.5,2-9.7,2.9c-1.5,0.4-2.7,0.1-2.2-0.8c0,0-4.7,3.6-5.8,4.4c0.1,0,0.9,0.3,1.1,0.4
  c1.9,0.7,1.5,3,1.5,4.5c0.1,4.1,0.3,8.3,0.5,12.3c0.1,1.7,0.5,3.4,0.4,5.2c-0.1,2.2-1.6,3-3.5,3.7c-9.9,3.6-20.5,5.8-31,6
  c-4.4,0.4-9,0.3-13-0.1c-1.1,0.8-2.1,1.4-3.1,2.1c6,0.9,12.7,1.2,19.4,0.8c10.5-0.2,21-2.3,30.7-5.8c37.5-11.6,57.4-45,55.6-76.7
  C129.8,32.2,129.2,32.8,128.6,33.5z M98.3,91.3c-5.7,4.5-12.3,8.2-19.4,11.3c-0.8,0.4-2.7,0.6-2.8-1.6c-0.2-3.4-0.4-6.9-0.6-10.4
  c-0.1-2.3-0.1-4.6-0.4-6.9c-0.2-1.6-0.3-4.3,2.2-4.2c1,0.1,2.2,1.1,3,1.5c2.4,1.2,4.7,2.3,7,3.5c3.5,1.7,7,3.5,10.5,5
  C99.6,90.4,98.7,91,98.3,91.3z M116.4,71.9c-2,2.8-4,5.6-6.2,8.2c-1.2,1.4-2.3,2.5-3.4,3.9c-1.6,1.6-3.2,3.1-4.8,4.6
  c-0.6,0.5-1.6,1-3.7,0c-5.3-2.6-10.7-5.2-16-7.8c-3.1-1.5-5.7-2.8-1.4-4.2c2.2-0.8,4.5-1.1,6.9-1.8c7-2.1,13.9-4.3,20.9-6.4
  c3.6-1,6.7-3.3,10.9-2.7C119.6,68.2,117.8,70,116.4,71.9z"/>
</svg>
