<svg version="1.1" xmlns="http://www.w3.org/2000/svg" xmlns:xlink="http://www.w3.org/1999/xlink"
 width="160px" height="160px" viewBox="-219 321 160 160">
<path fill="#D9EBF5" d="M-104.7,403.3c-0.1-0.2-0.2-0.3-0.3-0.5c0,0-0.1-0.1-0.1-0.1c0,0,0-0.1-0.1-0.1c-5.2-6.7-14.9-14.1-3.3-37.9
c0.5-2.9,0.7-5.9,0.7-9.1c0-1.6-0.1-3.2-0.3-4.8c-8.2,3-17.8,4.8-28.2,4.8c-10.3,0-23.7-1.8-35.7-4.8c-0.3,1.6-0.5,3.2-0.5,4.8
c0,4.7,2,9.2,5.1,13.2c5.5,9.5,8.9,20.8,1.5,34c0,0,0,0,0,0c-0.8,1.1-1.6,2.3-2.3,3.5c-0.8,1.2-1.6,2.4-2.2,3.7
c-0.2,0.6-0.4,1.1-0.5,1.7c-2.4,5.6-3.7,11.8-3.7,18.4c0,11.9,4.4,22.7,11.5,30.5c0,1.5,12.4,2.8,27.8,2.8c15.4,0,27.8-1.2,27.8-2.8
c7.1-7.8,11.5-18.6,11.5-30.5C-96.2,420-99.4,410.7-104.7,403.3z"/>
<path fill="#BFE0EF" d="M-136.3,346.1c-10.4,0-23.7,1.8-35.7,4.8c12,3,25.3,4.8,35.7,4.8c10.3,0,20-1.8,28.2-4.8
C-116.3,347.8-125.9,346.1-136.3,346.1z"/>
<path fill="#BFE0EF" d="M-107.8,416.2c-5.3,0.4-3.4-7.2-0.7-7.6c2.7-0.4,4.6-0.9,5.3-1.7c1.5-1.9,0.7-7.7-0.3-15.1
c-0.4-2.7-0.8-5.8-1.2-9.3c-1-9.2-2.6-12.5-3.8-13.6c-0.8-0.8-1.6-0.8-4.4-0.5c-0.8,0.1,1.4-0.3-2.5,0.2c-3.9,0.5-5.3-6.7-0.3-7.6
c2-0.2,1.3-0.1,2-0.2c3-0.3,7-0.7,10.5,2.7c3.1,3.1,5,8.7,6.1,18.2c0.4,3.3,0.8,6.4,1.1,9.1c1.4,10.2,2.2,16.4-1.3,20.8
C-100,415.1-104.6,415.9-107.8,416.2C-107.8,416.2-102.5,415.8-107.8,416.2z"/>
<path fill="#EECB30" d="M-146.3,355.2c0.1-0.4,0.1-0.9,0.1-1.3c0-2.7-1-5.2-2.6-7.1c-2-2.4-5-3.9-8.3-3.9
c-4.6,0-8.5,2.8-10.1,6.9c-0.3,0.7-0.5,1.3-0.6,2c-0.1,0.7-0.2,1.3-0.2,2c0,6,4.9,10.9,10.9,10.9c1.2,0,2.4-0.2,3.5-0.6
c-1.7-2.4-3.5-4.6-3.5-10.4c0,0,0,0,0,0C-153.5,354.4-149.8,354.9-146.3,355.2z"/>
<path fill="#CF8846" d="M-103,430.2c0-4.8-0.8-9.4-2.4-13.8c-5.4,1-10.8,3.7-15.9,5.7c-0.7,0.2-1.5,0.4-2.2,0.6
c-0.9,0.3-1.8,0.4-2.7,0.5c-0.2,0-0.5,0-0.7,0c-8.1,0.4-12.9-5.1-20.8-2c-0.3-0.1-0.5-0.2-0.8-0.3c-2.4-0.8-4.8-2.2-7.4-3.9
c-0.3-0.1-0.6-0.2-1-0.2c-2.8-0.7-5.7-0.9-8.5-0.4c-1.6,4.3-2.4,8.9-2.4,13.7c0,8.8,2.8,17.1,7.8,23.6h0c0,0.6,11,2.3,24.6,2.3
c13.6,0,24.6-1.7,24.6-2.3h0C-105.8,447.2-103,438.9-103,430.2z"/>
<path fill="#CEA17C" d="M-121.3,422.1c-0.7,0.2-1.5,0.4-2.2,0.6c-0.9,0.3-1.8,0.4-2.7,0.5c-0.2,0-0.5,0-0.7,0
c-8.1,0.4-12.9-5.1-20.8-2c-0.3-0.1-0.5-0.2-0.8-0.3c-2.4-0.8-4.8-2.2-7.4-3.9c-0.3-0.1-0.6-0.2-1-0.2c-2.8-0.7-5.7-0.9-8.5-0.4
c-1.6,4.3,8.6,14.1,13.8,11.9c0.7-0.2,1.5-0.4,2.2-0.6c0.9-0.3,1.8-0.4,2.7-0.5c0.2,0,0.5,0,0.7,0c2.8-0.1,5.5,0.1,8.3,0.3
c3.2,0.2,6.4,0.2,9.5-0.5c1.2-0.3,2.4-0.8,3.6-0.7c1.2,0.1,2.3,0,3.6-0.2c2.3-0.5,4.5-1.4,6.7-2.3c2.8-1.2,5.8-2.6,7.9-4.7
c0.4-0.4,0.8-0.8,1-1.4c0-0.1,0.2-1.3,0-1.3C-110.9,417.4-116.2,420.1-121.3,422.1z"/>
<path fill="#F5EBA5" d="M-157.2,345c-4.9,0-8.9,4-8.9,8.9c0,4.9,4,8.9,8.9,8.9c0.8,0,1.5-0.1,2.3-0.3c-1.2-1.9-2.3-4.2-2.3-8.6
c0,0,0,0,0,0c3,0.5,5.9,0.8,8.8,1.1c0-0.4,0.1-0.7,0.1-1.1C-148.3,348.9-152.2,345-157.2,345z"/>
</svg>
