<svg version="1.1" xmlns="http://www.w3.org/2000/svg" xmlns:xlink="http://www.w3.org/1999/xlink"
 width="160px" height="160px" viewBox="-219 321 160 160">
<path fill="#845727" d="M-135.1,383c-0.3-0.2-0.5-0.3-0.8-0.5c-0.6-0.4-1.3-0.3-2-0.6c-0.9-0.4-1.2-1.4-2.1-1.8
c-1-0.4-1.6,0-2.4-0.9c-0.7-0.7-0.5-0.6-1.5-0.8c-0.7-0.1-1.1-0.6-1.8-0.8c-1.6-0.5-3.2-0.3-4.9-0.2c-1.4,0.1-2.5-0.6-3.9-0.5
c-1.2,0.1-2.1-0.3-3.2-0.3c-1.8,0.1-3.6,0.2-5.3,0.5c-1.6,0.3-3.2,0.2-4.8,0.3c-1.1,0.1-2.1,0.5-3.1,0.9c-1.4,0.5-3,0.3-4.4,0.7
c-0.5,0.2-1,0.6-1.5,0.7c-0.5,0.1-1,0-1.5,0c-0.9,0.1-1.5,0.8-2,1.5c-0.6,0.9-0.7,0.9-1.6,1.4c-0.7,0.4-0.6,0.8-1,1.4
c-0.7,0.9-1.9,1-2,2.3c0,0.7,0.1,1.1-0.2,1.7c-0.4,0.8-0.1,1.3,0.2,2.3c0.6,2.5,11.2,5,26.4,5.1c15.2,0,25.7-1.9,26.5-5
c0.4-1.3,0.3-2.7-0.2-3.9c-0.5-1-0.9-2.4-1.9-3.1C-134.4,383.4-134.8,383.2-135.1,383z"/>
<path fill="#B27746" d="M-134.1,383.6c-0.3-0.2-0.6-0.4-1-0.6c-0.3-0.2-0.5-0.3-0.8-0.5c-0.6-0.4-1.3-0.3-2-0.6
c-0.9-0.4-1.2-1.4-2.1-1.8c-1-0.4-1.6,0-2.4-0.9c-0.7-0.7-0.5-0.6-1.5-0.8c-0.7-0.1-1.1-0.6-1.8-0.8c-1.6-0.5-3.2-0.3-4.9-0.2
c-1.4,0.1-2.5-0.6-3.9-0.5c-1.2,0.1-2.1-0.3-3.2-0.3c-1.8,0.1-3.6,0.2-5.3,0.5c-1.6,0.3-3.2,0.2-4.8,0.3c-1.1,0.1-2.1,0.5-3.1,0.9
c-1.4,0.5-3,0.3-4.4,0.7c-0.5,0.2-1,0.6-1.5,0.7c-0.5,0.1-1,0-1.5,0c-0.9,0.1-1.5,0.8-2,1.5c-0.6,0.9-0.7,0.9-1.6,1.4
c-0.7,0.4-0.6,0.8-1,1.4c-0.7,0.9-1.9,1-2,2.3c0,0.7,0.1,1.1-0.2,1.7c0,0.1-0.1,0.2-0.1,0.2c2.8,2.1,12.5,4,25.6,4
c15.2,0,25.7-1.9,26.5-5c0.2-0.7,0.3-1.4,0.2-2.1C-133.2,384.6-133.6,384-134.1,383.6z"/>
<path fill="#632C00" d="M-173.4,386.4c-0.8,0.5-2.8,0.3-3.1-0.6c-0.3-1.1,1.5-2.2,1.7-2.2c0.2,0,0.2,0.3,0.5,0.6
c0.3,0.4,0.8,0.5,0.8,0.9C-173.2,385.4-172.8,386-173.4,386.4C-173.4,386.3-173.4,386.4-173.4,386.4z"/>
<path fill="#632C00" d="M-151.4,379.4c-0.7,0.5-2.5,0.3-2.8-0.6c-0.3-1.1,1.4-2.3,1.5-2.3c0.2,0,0.2,0.3,0.4,0.6
c0.2,0.4,0.7,0.5,0.7,0.9C-151.2,378.4-150.9,378.9-151.4,379.4C-151.4,379.3-151.4,379.3-151.4,379.4z"/>
<path fill="#632C00" d="M-141.8,390.5c1,0.6,3.3,0.2,3.6-1.1c0.3-1.5-3.3-2.2-3.6-2.2c-0.2,0-0.3,0.4-0.5,0.9
C-142.6,388.7-142.5,390-141.8,390.5C-141.9,390.5-141.8,390.5-141.8,390.5z"/>
<path fill="#632C00" d="M-165.1,381.7c-0.1,0-0.3,0-0.4,0c-0.4,0.1-0.7,0.3-1.1,0.3c-0.1,0-0.2,0-0.2-0.1c-0.4-0.1-0.6-0.3-0.7-0.6
c-0.1-0.4,0.1-0.8,0.5-1.1c0,0,0.1-0.1,0.1-0.1c0.1-0.1,0.2-0.1,0.2-0.2c0,0,0.1-0.1,0.1-0.1c0.2-0.2,0.5-0.3,0.8-0.4
c0.1,0.5,0.4,0.9,0.8,1.3c0,0,0.1,0.1,0.1,0.1c0.1,0.2,0.2,0.3,0.1,0.5C-164.8,381.5-164.9,381.6-165.1,381.7
C-165.1,381.7-165.1,381.7-165.1,381.7z"/>
<path fill="#632C00" d="M-167.9,386.4c-0.4,0.1-0.7,0.3-1.1,0.3c-0.1,0-0.2,0-0.2-0.1c-0.4-0.1-0.6-0.3-0.7-0.6
c-0.1-0.4,0.9-1.1,1-1.1c0.2-0.2,0.5-0.3,0.8-0.4c0.1,0.5,1,1.3,1,1.5c0,0.2-0.1,0.4-0.3,0.4C-167.5,386.4-167.7,386.3-167.9,386.4z
"/>
<path fill="#632C00" d="M-145.7,383.3c-0.1,0-0.3,0-0.4,0c-0.4,0.1-0.8,0.4-1.3,0.3c-0.1,0-0.2,0-0.3-0.1c-0.4-0.1-0.7-0.3-0.8-0.6
c-0.2-0.5,0.1-0.9,0.5-1.3c0.1,0,0.1-0.1,0.2-0.1c0.1-0.1,0.2-0.2,0.3-0.2c0,0,0.1-0.1,0.1-0.1c0.2-0.2,1.4,0.5,1.8,1
c0,0,0.1,0.1,0.1,0.1c0.1,0.2,0.2,0.4,0.1,0.6C-145.4,383.1-145.4,383.3-145.7,383.3C-145.7,383.3-145.7,383.3-145.7,383.3z"/>
<path fill="#632C00" d="M-137.6,385.3c0.1,0,0.2,0,0.4,0c0.4,0.1,0.7,0.3,1.1,0.3c0.1,0,0.1,0,0.2-0.1c0.4-0.1,0.6-0.3,0.7-0.5
c0.1-0.4-0.1-0.8-0.4-1.1c0,0-0.1-0.1-0.1-0.1c-0.1-0.1-0.2-0.1-0.2-0.2c0,0-0.1-0.1-0.1-0.1c-0.2-0.2-1.2,0.4-1.5,0.9
c0,0-0.1,0.1-0.1,0.1c-0.1,0.1-0.1,0.3-0.1,0.5C-137.9,385.1-137.8,385.2-137.6,385.3C-137.6,385.3-137.6,385.3-137.6,385.3z"/>
<path fill="#632C00" d="M-160,388.6c0.2,0,0.4,0,0.5,0c0.5,0.1,1,0.5,1.6,0.4c0.1,0,0.2,0,0.3-0.1c0.5-0.2,0.9-0.4,1-0.8
c0.2-0.6-0.1-1.1-0.6-1.6c-0.1-0.1-0.1-0.1-0.2-0.2c-0.1-0.1-0.2-0.2-0.3-0.3c-0.1,0-0.1-0.1-0.2-0.1c-0.2-0.2-1.7,0.6-2.2,1.2
c0,0.1-0.1,0.1-0.1,0.2c-0.2,0.2-0.2,0.5-0.2,0.7C-160.4,388.3-160.3,388.5-160,388.6C-160.1,388.6-160,388.6-160,388.6z"/>
<path fill="#632C00" d="M-147,389.4c-0.1,0-0.3,0-0.4,0c-0.4,0.1-0.8,0.4-1.3,0.3c-0.1,0-0.2,0-0.3-0.1c-0.4-0.1-0.7-0.3-0.8-0.6
c-0.2-0.5,0.1-0.9,0.5-1.3c0.1,0,0.1-0.1,0.2-0.1c0.1-0.1,0.2-0.2,0.3-0.2c0,0,0.1-0.1,0.1-0.1c0.2-0.2,1.4,0.5,1.8,1
c0,0,0.1,0.1,0.1,0.1c0.1,0.2,0.2,0.4,0.1,0.6C-146.7,389.1-146.7,389.3-147,389.4C-146.9,389.4-147,389.4-147,389.4z"/>
<path fill="#632C00" d="M-168.6,391.8c0.2,0,0.3,0,0.5,0c0.5,0.1,1,0.4,1.5,0.4c0.1,0,0.2,0,0.3-0.1c0.5-0.1,0.9-0.4,1-0.7
c0.2-0.6-0.1-1.1-0.6-1.5c-0.5-0.5-1.6-0.8-2-0.9c-0.1,0.7-0.4,1-0.8,1.5c0,0.1-0.1,0.1-0.1,0.2c-0.2,0.2-0.2,0.4-0.2,0.7
C-169,391.5-168.9,391.7-168.6,391.8C-168.6,391.8-168.6,391.8-168.6,391.8z"/>
<path fill="#845727" d="M-158.3,386.4c-0.3-0.1-0.6-0.2-0.9-0.3c-0.7-0.3-1.3,0-2.1-0.2c-1-0.2-1.4-1.1-2.4-1.3
c-1-0.2-1.6,0.3-2.5-0.4c-0.8-0.6-0.6-0.5-1.6-0.5c-0.7,0-1.2-0.4-1.9-0.4c-1.7-0.1-3.2,0.4-4.8,0.8c-1.4,0.4-2.6-0.1-4,0.3
c-1.1,0.3-2.1,0.1-3.2,0.4c-1.7,0.4-3.5,1-5.1,1.6c-1.5,0.6-3.1,0.8-4.6,1.3c-1,0.3-2,0.9-2.9,1.5c-1.3,0.8-2.8,0.9-4.2,1.6
c-0.5,0.3-0.8,0.8-1.3,1c-0.5,0.2-1,0.2-1.5,0.3c-0.9,0.3-1.3,1.1-1.6,1.9c-0.4,1-0.5,1.1-1.3,1.7c-0.6,0.5-0.4,1-0.7,1.6
c-0.5,1-1.7,1.4-1.4,2.7c0.1,0.7,0.3,1,0.1,1.7c-0.2,0.9,0.2,1.3,0.6,2.2c1.1,2.3,12,2.6,26.9-0.6c14.9-3.1,24.7-7.2,24.8-10.4
c0.1-1.4-0.2-2.7-1.1-3.7c-0.7-0.9-1.4-2.1-2.5-2.6C-157.6,386.7-158,386.6-158.3,386.4z"/>
<path fill="#B27746" d="M-157.3,386.8c-0.3-0.1-0.7-0.3-1.1-0.4c-0.3-0.1-0.6-0.2-0.9-0.3c-0.7-0.3-1.3,0-2.1-0.2
c-1-0.2-1.4-1.1-2.4-1.3c-1-0.2-1.6,0.3-2.5-0.4c-0.8-0.6-0.6-0.5-1.6-0.5c-0.7,0-1.2-0.4-1.9-0.4c-1.7-0.1-3.2,0.4-4.8,0.8
c-1.4,0.4-2.6-0.1-4,0.3c-1.1,0.3-2.1,0.1-3.2,0.4c-1.7,0.4-3.5,1-5.1,1.6c-1.5,0.6-3.1,0.8-4.6,1.3c-1,0.3-2,0.9-2.9,1.5
c-1.3,0.8-2.8,0.9-4.2,1.6c-0.5,0.3-0.8,0.8-1.3,1c-0.5,0.2-1,0.2-1.5,0.3c-0.9,0.3-1.3,1.1-1.6,1.9c-0.4,1-0.5,1.1-1.3,1.7
c-0.6,0.5-0.4,1-0.7,1.6c-0.5,1-1.7,1.4-1.4,2.7c0.1,0.7,0.3,1,0.1,1.7c0,0.1,0,0.2,0,0.3c3.2,1.5,13.1,1.3,25.9-1.4
c14.9-3.1,24.7-7.2,24.8-10.4c0-0.7,0-1.4-0.2-2.1C-156.1,387.6-156.6,387.1-157.3,386.8z"/>
<path fill="#632C00" d="M-195.1,397.7c-0.7,0.7-2.7,0.9-3.2,0c-0.5-1,1-2.5,1.2-2.5c0.2,0,0.3,0.3,0.6,0.5c0.3,0.3,0.9,0.3,1,0.7
C-195.1,396.8-194.6,397.2-195.1,397.7C-195.1,397.7-195.1,397.7-195.1,397.7z"/>
<path fill="#632C00" d="M-175,386.3c-0.6,0.6-2.4,0.8-2.8,0c-0.5-1,0.8-2.5,1-2.6c0.2,0,0.3,0.3,0.5,0.5c0.3,0.3,0.8,0.3,0.9,0.8
C-175.1,385.3-174.6,385.8-175,386.3C-175,386.3-175,386.3-175,386.3z"/>
<path fill="#632C00" d="M-161.2,394.6c-0.7,0.5-2.4,0.2-2.6-0.7c-0.2-1.1,2.6-1.6,2.5-1.6c0.2,0,0.2,0.3,0.4,0.6
C-160.6,393.2-160.7,394.2-161.2,394.6C-161.1,394.6-161.2,394.6-161.2,394.6z"/>
<path fill="#632C00" d="M-188,391.4c-0.1,0-0.3,0-0.4,0.1c-0.3,0.1-0.7,0.5-1,0.5c-0.1,0-0.2,0-0.2,0c-0.4,0-0.7-0.2-0.8-0.4
c-0.2-0.4-0.1-0.8,0.2-1.2c0-0.1,0.1-0.1,0.1-0.2c0.1-0.1,0.1-0.2,0.2-0.3c0,0,0.1-0.1,0.1-0.1c0.1-0.2,0.4-0.4,0.7-0.6
c0.2,0.5,0.6,0.8,1,1.1c0,0,0.1,0.1,0.1,0.1c0.2,0.1,0.2,0.3,0.2,0.5C-187.7,391.1-187.7,391.3-188,391.4
C-187.9,391.4-187.9,391.4-188,391.4z"/>
<path fill="#632C00" d="M-189.7,396.6c-0.3,0.1-0.7,0.5-1,0.5c-0.1,0-0.2,0-0.2,0c-0.4,0-0.7-0.2-0.8-0.4c-0.2-0.4,0.7-1.2,0.7-1.3
c0.1-0.2,0.4-0.4,0.7-0.6c0.2,0.5,1.3,1.1,1.3,1.3c0,0.2,0,0.4-0.2,0.4C-189.3,396.5-189.6,396.5-189.7,396.6z"/>
<path fill="#632C00" d="M-168.6,389c-0.1,0-0.3,0-0.4,0.1c-0.4,0.1-0.7,0.5-1.2,0.6c-0.1,0-0.2,0-0.3,0c-0.4,0-0.8-0.2-0.9-0.4
c-0.3-0.4-0.1-0.9,0.2-1.4c0-0.1,0.1-0.1,0.1-0.2c0.1-0.1,0.1-0.2,0.2-0.3c0,0,0.1-0.1,0.1-0.1c0.2-0.2,1.5,0.2,1.9,0.6
c0,0,0.1,0.1,0.1,0.1c0.2,0.1,0.2,0.3,0.3,0.5C-168.4,388.7-168.4,388.9-168.6,389C-168.6,389-168.6,389-168.6,389z"/>
<path fill="#632C00" d="M-160.3,389.2c0.1,0,0.2-0.1,0.4-0.1c0.4,0,0.8,0.2,1.1,0c0.1,0,0.1-0.1,0.2-0.1c0.3-0.2,0.6-0.4,0.6-0.7
c0-0.4-0.3-0.8-0.7-1c-0.1,0-0.1-0.1-0.2-0.1c-0.1-0.1-0.2-0.1-0.3-0.2c0,0-0.1,0-0.1-0.1c-0.2-0.1-1.1,0.7-1.3,1.2
c0,0,0,0.1-0.1,0.1c-0.1,0.2-0.1,0.4,0,0.5C-160.6,389-160.5,389.2-160.3,389.2C-160.3,389.2-160.3,389.2-160.3,389.2z"/>
<path fill="#632C00" d="M-181.5,397.1c0.2,0,0.3-0.1,0.5-0.1c0.5,0,1.1,0.2,1.6,0c0.1,0,0.2-0.1,0.3-0.1c0.5-0.3,0.8-0.6,0.8-1
c0.1-0.6-0.4-1.1-1-1.4c-0.1,0-0.2-0.1-0.2-0.1c-0.1-0.1-0.3-0.2-0.4-0.2c-0.1,0-0.1-0.1-0.2-0.1c-0.3-0.2-1.5,1-1.9,1.7
c0,0.1-0.1,0.1-0.1,0.2c-0.1,0.2-0.1,0.5,0,0.8C-182,396.9-181.9,397.1-181.5,397.1C-181.6,397.1-181.6,397.1-181.5,397.1z"/>
<path fill="#632C00" d="M-168.6,395.2c-0.1,0-0.3,0-0.4,0.1c-0.4,0.1-0.7,0.5-1.2,0.6c-0.1,0-0.2,0-0.3,0c-0.4,0-0.8-0.2-0.9-0.4
c-0.3-0.4-0.1-0.9,0.2-1.4c0-0.1,0.1-0.1,0.1-0.2c0.1-0.1,0.1-0.2,0.2-0.3c0,0,0.1-0.1,0.1-0.1c0.2-0.2,1.5,0.2,1.9,0.6
c0,0,0.1,0.1,0.1,0.1c0.2,0.1,0.2,0.3,0.3,0.5C-168.4,394.8-168.4,395.1-168.6,395.2C-168.6,395.2-168.6,395.2-168.6,395.2z"/>
<path fill="#632C00" d="M-189.3,402c0.2,0,0.3-0.1,0.5-0.1c0.5,0,1.1,0.2,1.5,0c0.1,0,0.2-0.1,0.3-0.1c0.4-0.2,0.8-0.6,0.8-0.9
c0.1-0.6-0.4-1-0.9-1.4c-0.6-0.4-1.7-0.4-2.1-0.5c0.1,0.7-0.1,1-0.5,1.7c0,0.1-0.1,0.1-0.1,0.2c-0.1,0.2-0.1,0.5,0,0.7
C-189.7,401.8-189.6,402-189.3,402C-189.3,402-189.3,402-189.3,402z"/>
<path fill="#B27746" d="M-104.6,388.1c-1.1,1.5-6.3,3.1-18.5,3.3c-10,0.2-18.2-1.5-18.4-3.3c-2.7,0.6-3.7,4.9-3.7,6
c0,2.3,9.6,4.2,22.3,4.2c12.7,0,22.1-1.8,22.1-4.1C-100.7,391.9-103.4,386.4-104.6,388.1z"/>
<path fill="#EEEEEE" d="M-122.8,392.2l-0.2,0c-6,0-19.3-1.1-19.3-4.1c0-3.3,11.1-5,19.2-5h0.1c7.6,0,19.5,1.3,19.5,4.6
C-103.4,390.7-114.6,392.2-122.8,392.2L-122.8,392.2z"/>
<polygon fill="#EF8A45" points="-134.3,386.1 -134.7,385.4 -134.4,384.6 -133.5,384.6 -133.1,385.3 -133.5,386 "/>
<polygon fill="#EF8A45" points="-125.1,387.1 -125.6,386.4 -125.2,385.6 -124.3,385.6 -123.9,386.3 -124.3,387 "/>
<polygon fill="#EF8A45" points="-119.5,389.1 -119.9,388.4 -119.5,387.7 -118.7,387.7 -118.2,388.4 -118.6,389.1 "/>
<polygon fill="#DCCD9A" points="-124.2,391.6 -125,391.4 -125.3,390.7 -124.7,390 -123.9,390.2 -123.6,391 "/>
<polygon fill="#DCCD9A" points="-108.4,387.1 -109.3,387 -109.5,386.2 -109,385.5 -108.2,385.7 -107.9,386.5 "/>
<polygon fill="#A4DBDF" points="-109.7,389.2 -110.3,388.7 -110.2,387.9 -109.4,387.6 -108.7,388.1 -108.9,389 "/>
<polygon fill="#A4DBDF" points="-133.9,389.5 -134.5,389 -134.3,388.2 -133.5,387.9 -132.9,388.5 -133.1,389.3 "/>
<polygon fill="#A4DBDF" points="-117.2,385.7 -117.8,385.1 -117.6,384.3 -116.8,384.1 -116.2,384.6 -116.4,385.4 "/>
<polygon fill="#CB1625" points="-113.3,386.8 -114.1,386.8 -114.5,386.1 -114.1,385.4 -113.3,385.3 -112.9,386.1 "/>
<polygon fill="#6E9A74" points="-128.3,388.7 -129.1,388.7 -129.5,388 -129.1,387.3 -128.3,387.3 -127.9,388 "/>
<polygon fill="#6E9A74" points="-120.6,385.6 -121.4,385.6 -121.8,384.9 -121.4,384.2 -120.6,384.1 -120.2,384.9 "/>
<polygon fill="#885780" points="-137.6,387.4 -138.4,387.7 -139,387.1 -138.8,386.3 -138,386.1 -137.4,386.6 "/>
<polygon fill="#F05F77" points="-127.3,385 -128.1,385.3 -128.7,384.7 -128.5,383.9 -127.7,383.7 -127.1,384.2 "/>
<polygon fill="#885780" points="-112.3,390.6 -113.1,390.8 -113.7,390.2 -113.5,389.4 -112.7,389.2 -112.1,389.8 "/>
<path fill="#B27746" d="M-104.3,380.5c-1.1,1.2-6.3,2.4-18.5,2.6c-10,0.1-18.2-1.1-18.4-2.6c-2.7,0.5-3.7,3.8-3.7,4.6
c0,1.8,9.6,3.3,22.3,3.3c12.7,0,22.1-1.4,22.1-3.2C-100.4,383.4-103.1,379.2-104.3,380.5z"/>
<path fill="#EEEEEE" d="M-122.4,383.7l-0.2,0c-6,0-19.3-0.8-19.3-3.2c0-2.5,11.1-3.9,19.2-3.9h0.1c7.6,0,19.5,1,19.5,3.6
C-103.1,382.5-114.3,383.7-122.4,383.7L-122.4,383.7z"/>
<polygon fill="#EF8A45" points="-134,378.9 -134.4,378.4 -134,377.8 -133.2,377.8 -132.8,378.3 -133.2,378.9 "/>
<polygon fill="#EF8A45" points="-124.8,379.7 -125.2,379.1 -124.9,378.6 -124,378.5 -123.6,379.1 -124,379.6 "/>
<polygon fill="#EF8A45" points="-119.1,381.3 -119.6,380.7 -119.2,380.2 -118.4,380.1 -117.9,380.7 -118.3,381.3 "/>
<polygon fill="#DCCD9A" points="-123.8,383.2 -124.7,383.1 -124.9,382.5 -124.4,382 -123.6,382.1 -123.3,382.7 "/>
<polygon fill="#DCCD9A" points="-108.1,379.7 -108.9,379.6 -109.2,379 -108.7,378.5 -107.9,378.6 -107.6,379.2 "/>
<polygon fill="#A4DBDF" points="-109.4,381.3 -110,380.9 -109.8,380.3 -109,380.1 -108.4,380.5 -108.6,381.1 "/>
<polygon fill="#A4DBDF" points="-133.5,381.6 -134.2,381.2 -134,380.5 -133.2,380.3 -132.6,380.8 -132.7,381.4 "/>
<polygon fill="#A4DBDF" points="-116.8,378.6 -117.5,378.2 -117.3,377.5 -116.5,377.3 -115.9,377.8 -116.1,378.4 "/>
<polygon fill="#CB1625" points="-112.9,379.5 -113.8,379.5 -114.2,378.9 -113.8,378.4 -113,378.3 -112.5,378.9 "/>
<polygon fill="#6E9A74" points="-128,381 -128.8,381 -129.2,380.4 -128.8,379.9 -128,379.9 -127.6,380.4 "/>
<polygon fill="#6E9A74" points="-120.3,378.5 -121.1,378.5 -121.5,378 -121.1,377.4 -120.3,377.4 -119.8,378 "/>
<polygon fill="#885780" points="-137.3,380 -138.1,380.1 -138.7,379.7 -138.5,379.1 -137.7,378.9 -137.1,379.4 "/>
<polygon fill="#F05F77" points="-127,378.1 -127.8,378.3 -128.4,377.8 -128.2,377.2 -127.4,377 -126.8,377.5 "/>
<polygon fill="#885780" points="-112,382.4 -112.8,382.6 -113.4,382.1 -113.2,381.5 -112.4,381.3 -111.8,381.8 "/>
<path fill="#B27746" d="M-106.2,372.6c-1,1.1-5.9,2.3-17.4,2.4c-9.4,0.1-17.1-1.1-17.3-2.4c-2.5,0.5-3.4,3.6-3.4,4.4
c0,1.7,9,3.1,20.9,3.1c12,0,20.8-1.3,20.8-3C-102.6,375.4-105.1,371.4-106.2,372.6z"/>
<path fill="#EEEEEE" d="M-123.3,375.6l-0.2,0c-5.7,0-18.1-0.8-18.1-3c0-2.4,10.5-3.6,18-3.6h0.1c7.1,0,18.4,0.9,18.4,3.4
C-105.1,374.5-115.7,375.6-123.3,375.6L-123.3,375.6z"/>
<polygon fill="#EF8A45" points="-134.2,371.1 -134.6,370.6 -134.2,370.1 -133.4,370.1 -133,370.6 -133.4,371.1 "/>
<polygon fill="#EF8A45" points="-125.5,371.8 -125.9,371.3 -125.6,370.8 -124.8,370.8 -124.4,371.3 -124.7,371.8 "/>
<polygon fill="#EF8A45" points="-120.2,373.4 -120.6,372.8 -120.3,372.3 -119.5,372.3 -119.1,372.8 -119.4,373.3 "/>
<polygon fill="#DCCD9A" points="-124.6,375.1 -125.4,375 -125.6,374.5 -125.1,374 -124.4,374.1 -124.1,374.7 "/>
<polygon fill="#DCCD9A" points="-109.8,371.9 -110.6,371.8 -110.9,371.2 -110.4,370.7 -109.6,370.8 -109.3,371.4 "/>
<polygon fill="#A4DBDF" points="-111,373.4 -111.6,373 -111.5,372.4 -110.7,372.2 -110.1,372.6 -110.3,373.2 "/>
<polygon fill="#A4DBDF" points="-133.7,373.7 -134.3,373.2 -134.1,372.7 -133.4,372.5 -132.8,372.9 -133,373.5 "/>
<polygon fill="#A4DBDF" points="-118,370.8 -118.6,370.4 -118.5,369.8 -117.7,369.7 -117.1,370.1 -117.3,370.6 "/>
<polygon fill="#CB1625" points="-114.4,371.6 -115.2,371.6 -115.5,371.1 -115.2,370.6 -114.4,370.6 -114,371.1 "/>
<polygon fill="#6E9A74" points="-128.5,373.1 -129.3,373.1 -129.7,372.5 -129.3,372 -128.5,372 -128.1,372.5 "/>
<polygon fill="#6E9A74" points="-121.2,370.8 -122,370.8 -122.4,370.3 -122,369.7 -121.3,369.7 -120.9,370.2 "/>
<polygon fill="#885780" points="-137.3,372.1 -138,372.3 -138.6,371.9 -138.4,371.3 -137.6,371.1 -137.1,371.5 "/>
<polygon fill="#F05F77" points="-127.6,370.4 -128.3,370.5 -128.9,370.1 -128.7,369.5 -128,369.4 -127.4,369.8 "/>
<polygon fill="#885780" points="-113.5,374.4 -114.2,374.6 -114.8,374.2 -114.6,373.6 -113.8,373.4 -113.3,373.8 "/>
<path fill="#B27746" d="M-83,393.8c-1.5,0-5.6-2.9-13.3-11.4c-6.3-7-10.5-13.5-9.7-14.6c-2-1.6-5-0.2-5.5,0.3
c-1.3,1.1,3.7,8.8,11.6,17.7c7.9,9,14.8,14.7,16.1,13.6C-82.7,398.4-81.4,393.8-83,393.8z"/>
<path fill="#EEEEEE" d="M-96.6,383l-0.1-0.1c-3.8-4.3-11.5-14.1-9.8-15.5c1.8-1.6,9.7,5.4,14.7,11.1l0.1,0.1
c4.7,5.3,11.5,14.4,9.7,16C-83.6,395.9-91.5,388.8-96.6,383L-96.6,383z"/>
<polygon fill="#EF8A45" points="-100.4,372 -100.3,371.3 -99.7,371.2 -99.1,371.8 -99.2,372.4 -99.9,372.5 "/>
<polygon fill="#EF8A45" points="-95.2,378.9 -95.1,378.2 -94.5,378.2 -93.9,378.7 -94,379.4 -94.7,379.5 "/>
<polygon fill="#EF8A45" points="-92.8,383.9 -92.7,383.2 -92.1,383.2 -91.5,383.7 -91.7,384.4 -92.3,384.5 "/>
<polygon fill="#DCCD9A" points="-97.1,381.8 -97.5,381.1 -97.3,380.6 -96.6,380.6 -96.2,381.3 -96.4,381.8 "/>
<polygon fill="#DCCD9A" points="-84.8,390.7 -85.3,390 -85,389.4 -84.3,389.5 -83.9,390.1 -84.2,390.7 "/>
<polygon fill="#A4DBDF" points="-86.8,390.8 -86.9,390.1 -86.3,389.8 -85.7,390.2 -85.6,390.9 -86.2,391.2 "/>
<polygon fill="#A4DBDF" points="-102,374 -102.1,373.3 -101.6,373 -100.9,373.4 -100.8,374.1 -101.4,374.4 "/>
<polygon fill="#A4DBDF" points="-89.5,383.8 -89.6,383.1 -89,382.9 -88.4,383.3 -88.3,384 -88.9,384.3 "/>
<polygon fill="#CB1625" points="-87.7,387.1 -88.2,386.5 -88.1,385.9 -87.4,385.8 -86.9,386.4 -87,387 "/>
<polygon fill="#6E9A74" points="-98.1,377.5 -98.6,376.9 -98.5,376.3 -97.9,376.2 -97.3,376.8 -97.5,377.4 "/>
<polygon fill="#6E9A74" points="-91.6,381.4 -92.1,380.8 -92,380.2 -91.3,380.1 -90.8,380.7 -90.9,381.3 "/>
<polygon fill="#885780" points="-103.2,370.3 -103.8,369.9 -103.9,369.2 -103.3,368.9 -102.7,369.4 -102.7,370.1 "/>
<polygon fill="#F05F77" points="-95.5,376.4 -96.1,375.9 -96.2,375.2 -95.6,375 -95,375.4 -94.9,376.1 "/>
<polygon fill="#885780" points="-89.2,389.6 -89.8,389.2 -89.8,388.5 -89.3,388.2 -88.6,388.7 -88.6,389.4 "/>
<path fill="#B27746" d="M-122.9,399.7c-1.3,1.8-7.5,3.7-22.1,4c-12,0.2-21.7-1.8-22-3.9c-3.2,0.8-4.4,5.9-4.4,7.1
c0,2.8,11.4,5,26.6,5.1c15.2,0,26.5-2.2,26.5-5C-118.3,404.2-121.5,397.7-122.9,399.7z"/>
<path fill="#EEEEEE" d="M-144.6,404.6l-0.2,0c-7.2,0-23.1-1.3-23.1-4.9c0-3.9,13.3-6,22.9-6h0.2c9,0,23.4,1.5,23.4,5.5
C-121.4,402.7-134.9,404.6-144.6,404.6L-144.6,404.6z"/>
<polygon fill="#EF8A45" points="-158.4,397.3 -158.9,396.4 -158.5,395.5 -157.5,395.5 -157,396.3 -157.4,397.2 "/>
<polygon fill="#EF8A45" points="-147.4,398.4 -148,397.6 -147.5,396.7 -146.5,396.7 -146,397.5 -146.4,398.4 "/>
<polygon fill="#EF8A45" points="-140.7,400.9 -141.2,400.1 -140.7,399.2 -139.7,399.2 -139.2,400 -139.7,400.9 "/>
<polygon fill="#DCCD9A" points="-146.3,403.9 -147.3,403.7 -147.6,402.7 -147,402 -146,402.2 -145.6,403.1 "/>
<polygon fill="#DCCD9A" points="-127.5,398.5 -128.5,398.3 -128.8,397.4 -128.2,396.6 -127.2,396.8 -126.9,397.7 "/>
<polygon fill="#A4DBDF" points="-129,401 -129.7,400.3 -129.5,399.4 -128.6,399.1 -127.9,399.7 -128.1,400.7 "/>
<polygon fill="#A4DBDF" points="-157.9,401.4 -158.6,400.7 -158.4,399.8 -157.5,399.5 -156.7,400.1 -156.9,401.1 "/>
<polygon fill="#A4DBDF" points="-137.9,396.8 -138.7,396.1 -138.5,395.1 -137.5,394.8 -136.8,395.5 -137,396.5 "/>
<polygon fill="#CB1625" points="-133.3,398.1 -134.2,398.1 -134.8,397.3 -134.3,396.4 -133.3,396.4 -132.8,397.2 "/>
<polygon fill="#6E9A74" points="-151.2,400.4 -152.2,400.4 -152.7,399.6 -152.2,398.7 -151.2,398.7 -150.7,399.6 "/>
<polygon fill="#6E9A74" points="-142,396.7 -143,396.7 -143.5,395.8 -143,395 -142,394.9 -141.5,395.8 "/>
<polygon fill="#885780" points="-162.4,398.9 -163.3,399.2 -164,398.5 -163.8,397.5 -162.8,397.2 -162.1,397.9 "/>
<polygon fill="#F05F77" points="-150.1,396 -151,396.3 -151.7,395.6 -151.5,394.6 -150.5,394.4 -149.8,395.1 "/>
<polygon fill="#885780" points="-132.1,402.7 -133.1,402.9 -133.8,402.2 -133.5,401.3 -132.6,401 -131.9,401.7 "/>
<path fill="#845727" d="M-81.7,410.2c-0.3-0.2-0.5-0.3-0.8-0.5c-0.6-0.4-1.3-0.3-2-0.6c-0.9-0.4-1.2-1.4-2.1-1.8
c-1-0.4-1.6,0-2.4-0.9c-0.7-0.7-0.5-0.6-1.5-0.8c-0.7-0.1-1.1-0.6-1.8-0.8c-1.6-0.5-3.2-0.3-4.9-0.2c-1.4,0.1-2.5-0.6-3.9-0.5
c-1.2,0.1-2.1-0.3-3.2-0.3c-1.8,0.1-3.6,0.2-5.3,0.5c-1.6,0.3-3.2,0.2-4.8,0.3c-1.1,0.1-2.1,0.5-3.1,0.9c-1.4,0.5-3,0.3-4.4,0.7
c-0.5,0.2-1,0.6-1.5,0.7c-0.5,0.1-1,0-1.5,0c-0.9,0.1-1.5,0.8-2,1.5c-0.6,0.9-0.7,0.9-1.6,1.4c-0.7,0.4-0.6,0.8-1,1.4
c-0.7,0.9-1.9,1-2,2.3c0,0.7,0.1,1.1-0.2,1.7c-0.4,0.8-0.1,1.3,0.2,2.3c0.6,2.5,11.2,5,26.4,5.1c15.2,0,25.7-1.9,26.5-5
c0.4-1.3,0.3-2.7-0.2-3.9c-0.5-1-0.9-2.4-1.9-3.1C-81,410.6-81.4,410.4-81.7,410.2z"/>
<path fill="#B27746" d="M-80.7,410.8c-0.3-0.2-0.6-0.4-1-0.6c-0.3-0.2-0.5-0.3-0.8-0.5c-0.6-0.4-1.3-0.3-2-0.6
c-0.9-0.4-1.2-1.4-2.1-1.8c-1-0.4-1.6,0-2.4-0.9c-0.7-0.7-0.5-0.6-1.5-0.8c-0.7-0.1-1.1-0.6-1.8-0.8c-1.6-0.5-3.2-0.3-4.9-0.2
c-1.4,0.1-2.5-0.6-3.9-0.5c-1.2,0.1-2.1-0.3-3.2-0.3c-1.8,0.1-3.6,0.2-5.3,0.5c-1.6,0.3-3.2,0.2-4.8,0.3c-1.1,0.1-2.1,0.5-3.1,0.9
c-1.4,0.5-3,0.3-4.4,0.7c-0.5,0.2-1,0.6-1.5,0.7c-0.5,0.1-1,0-1.5,0c-0.9,0.1-1.5,0.8-2,1.5c-0.6,0.9-0.7,0.9-1.6,1.4
c-0.7,0.4-0.6,0.8-1,1.4c-0.7,0.9-1.9,1-2,2.3c0,0.7,0.1,1.1-0.2,1.7c0,0.1-0.1,0.2-0.1,0.2c2.8,2.1,12.5,4,25.6,4
c15.2,0,25.7-1.9,26.5-5c0.2-0.7,0.3-1.4,0.2-2.1C-79.8,411.8-80.2,411.2-80.7,410.8z"/>
<path fill="#632C00" d="M-120,413.6c-0.8,0.5-2.8,0.3-3.1-0.6c-0.3-1.1,1.5-2.2,1.7-2.2c0.2,0,0.2,0.3,0.5,0.6
c0.3,0.4,0.8,0.5,0.8,0.9C-119.8,412.7-119.4,413.2-120,413.6C-120,413.6-120,413.6-120,413.6z"/>
<path fill="#632C00" d="M-98,406.6c-0.7,0.5-2.5,0.3-2.8-0.6c-0.3-1.1,1.4-2.3,1.5-2.3c0.2,0,0.2,0.3,0.4,0.6
c0.2,0.4,0.7,0.5,0.7,0.9C-97.8,405.6-97.5,406.2-98,406.6C-98,406.6-98,406.6-98,406.6z"/>
<path fill="#632C00" d="M-88.4,417.8c1,0.6,3.3,0.2,3.6-1.1c0.3-1.5-3.3-2.2-3.6-2.2c-0.2,0-0.3,0.4-0.5,0.9
C-89.2,415.9-89.1,417.3-88.4,417.8C-88.5,417.7-88.4,417.7-88.4,417.8z"/>
<path fill="#632C00" d="M-111.7,408.9c-0.1,0-0.3,0-0.4,0c-0.4,0.1-0.7,0.3-1.1,0.3c-0.1,0-0.2,0-0.2-0.1c-0.4-0.1-0.6-0.3-0.7-0.6
c-0.1-0.4,0.1-0.8,0.5-1.1c0,0,0.1-0.1,0.1-0.1c0.1-0.1,0.2-0.1,0.2-0.2c0,0,0.1-0.1,0.1-0.1c0.2-0.2,0.5-0.3,0.8-0.4
c0.1,0.5,0.4,0.9,0.8,1.3c0,0,0.1,0.1,0.1,0.1c0.1,0.2,0.2,0.3,0.1,0.5C-111.4,408.7-111.5,408.9-111.7,408.9
C-111.7,408.9-111.7,408.9-111.7,408.9z"/>
<path fill="#632C00" d="M-114.4,413.6c-0.4,0.1-0.7,0.3-1.1,0.3c-0.1,0-0.2,0-0.2-0.1c-0.4-0.1-0.6-0.3-0.7-0.6
c-0.1-0.4,0.9-1.1,1-1.1c0.2-0.2,0.5-0.3,0.8-0.4c0.1,0.5,1,1.3,1,1.5c0,0.2-0.1,0.4-0.3,0.4C-114,413.6-114.3,413.6-114.4,413.6z"
/>
<path fill="#632C00" d="M-92.3,410.6c-0.1,0-0.3,0-0.4,0c-0.4,0.1-0.8,0.4-1.3,0.3c-0.1,0-0.2,0-0.3-0.1c-0.4-0.1-0.7-0.3-0.8-0.6
c-0.2-0.5,0.1-0.9,0.5-1.3c0.1,0,0.1-0.1,0.2-0.1c0.1-0.1,0.2-0.2,0.3-0.2c0,0,0.1-0.1,0.1-0.1c0.2-0.2,1.4,0.5,1.8,1
c0,0,0.1,0.1,0.1,0.1c0.1,0.2,0.2,0.4,0.1,0.6C-92,410.3-92,410.5-92.3,410.6C-92.3,410.6-92.3,410.6-92.3,410.6z"/>
<path fill="#632C00" d="M-84.2,412.5c0.1,0,0.2,0,0.4,0c0.4,0.1,0.7,0.3,1.1,0.3c0.1,0,0.1,0,0.2-0.1c0.4-0.1,0.6-0.3,0.7-0.5
c0.1-0.4-0.1-0.8-0.4-1.1c0,0-0.1-0.1-0.1-0.1c-0.1-0.1-0.2-0.1-0.2-0.2c0,0-0.1-0.1-0.1-0.1c-0.2-0.2-1.2,0.4-1.5,0.9
c0,0-0.1,0.1-0.1,0.1c-0.1,0.1-0.1,0.3-0.1,0.5C-84.4,412.3-84.4,412.5-84.2,412.5C-84.2,412.5-84.2,412.5-84.2,412.5z"/>
<path fill="#632C00" d="M-106.6,415.8c0.2,0,0.4,0,0.5,0c0.5,0.1,1,0.5,1.6,0.4c0.1,0,0.2,0,0.3-0.1c0.5-0.2,0.9-0.4,1-0.8
c0.2-0.6-0.1-1.1-0.6-1.6c-0.1-0.1-0.1-0.1-0.2-0.2c-0.1-0.1-0.2-0.2-0.3-0.3c-0.1,0-0.1-0.1-0.2-0.1c-0.2-0.2-1.7,0.6-2.2,1.2
c0,0.1-0.1,0.1-0.1,0.2c-0.2,0.2-0.2,0.5-0.2,0.7C-107,415.5-106.9,415.8-106.6,415.8C-106.7,415.8-106.6,415.8-106.6,415.8z"/>
<path fill="#632C00" d="M-93.6,416.6c-0.1,0-0.3,0-0.4,0c-0.4,0.1-0.8,0.4-1.3,0.3c-0.1,0-0.2,0-0.3-0.1c-0.4-0.1-0.7-0.3-0.8-0.6
c-0.2-0.5,0.1-0.9,0.5-1.3c0.1,0,0.1-0.1,0.2-0.1c0.1-0.1,0.2-0.2,0.3-0.2c0,0,0.1-0.1,0.1-0.1c0.2-0.2,1.4,0.5,1.8,1
c0,0,0.1,0.1,0.1,0.1c0.1,0.2,0.2,0.4,0.1,0.6C-93.2,416.3-93.3,416.5-93.6,416.6C-93.5,416.6-93.6,416.6-93.6,416.6z"/>
<path fill="#632C00" d="M-115.2,419c0.2,0,0.3,0,0.5,0c0.5,0.1,1,0.4,1.5,0.4c0.1,0,0.2,0,0.3-0.1c0.5-0.1,0.9-0.4,1-0.7
c0.2-0.6-0.1-1.1-0.6-1.5s-1.6-0.8-2-0.9c-0.1,0.7-0.4,1-0.8,1.5c0,0.1-0.1,0.1-0.1,0.2c-0.2,0.2-0.2,0.4-0.2,0.7
C-115.6,418.7-115.5,418.9-115.2,419C-115.2,419-115.2,419-115.2,419z"/>
<path fill="#E19D83" d="M-195.8,419.2l0.9-1.8l-2.2-2.2l2.4-1.8l-1.1-2.2c0,0,1.2-0.3,2.3,0.2c4.4,2,8.9,1.1,8.9,3.8
c0,2.6-3.6,3.2-8.7,4.1C-195.1,419.6-195.8,419.2-195.8,419.2z"/>
<path fill="#DC6E71" d="M-195.8,419.2l0.9-1.8c0,0,1.9,2.5,10.2-2.2c0,2.6-3.6,3.2-8.7,4.1C-195.1,419.6-195.8,419.2-195.8,419.2z"
/>
<path fill="#E19D83" d="M-160.9,409c0-0.9-0.7-1.7-1.7-1.7h-20.9c-0.5,0-0.9,0.2-1.2,0.5l0,0l-2,1.6c-0.1,0.1-0.2,0.1-0.3,0.2l0,0
l0,0c-0.3,0.3-0.5,0.7-0.5,1.2v12.5c0,0.9,0.7,1.7,1.7,1.7h20.9c0.6,0,1.1-0.3,1.4-0.7h0l1.7-1.4c0.1-0.1,0.2-0.2,0.3-0.3l0,0l0,0
c0.3-0.3,0.5-0.7,0.5-1.1C-160.9,421.5-160.9,409-160.9,409z"/>
<path fill="#DC6E71" d="M-163.1,423.3c0,0.9-0.7,1.7-1.7,1.7h-20.9c-0.9,0-1.7-0.7-1.7-1.7v-12.5c0-0.9,0.7-1.7,1.7-1.7h20.9
c0.9,0,1.7,0.7,1.7,1.7C-163.1,410.8-163.1,423.3-163.1,423.3z"/>
<path fill="#DEAC8D" d="M-165,422.2c0,1.7-19,1.4-19,1.4c-0.8,0-1.4-0.6-1.4-1.4v-10.3c0-0.8,0.6-1.4,1.4-1.4h17.6
C-165.6,410.5-165,422.2-165,422.2z"/>
<path fill="#DC6E71" d="M-158.6,416.2c0,0.5-0.4,0.9-0.9,0.9h-2.1c-0.5,0-0.9-0.4-0.9-0.9v-2.3c0-0.5,0.4-0.9,0.9-0.9h2.1
c0.5,0,0.9,0.4,0.9,0.9V416.2z"/>
<path fill="#DC6E71" d="M-158.6,416.2c0,0.5-0.4,0.9-0.9,0.9h-0.5c-0.5,0-0.9-0.4-0.9-0.9v-2.3c0-0.5,0.4-0.9,0.9-0.9h0.5
c0.5,0,0.9,0.4,0.9,0.9V416.2z"/>
<path fill="#E19D83" d="M-151.4,418.4c0-0.4-0.7-1.5-0.7-1.5l1.8-1.8l-1.9-1.5c0,0,1.7-1.7,1.7-2.1c0,0-2.3-0.7-3.7-0.2
c-3.6,1.3-6.1,1.6-6.1,3.8c0,2.1,2,2.4,6.1,3C-152.8,418.4-151.4,418.9-151.4,418.4z"/>
<path fill="#DC6E71" d="M-151.4,418.4c0-0.4-0.7-1.5-0.7-1.5l1.8-1.8c0,0-4.3,2.7-10,0c0,2.1,2,2.4,6.1,3
C-152.8,418.4-151.4,418.4-151.4,418.4z"/>
<path fill="#F07458" d="M-177.5,416.3c1.5,1.3,1.4,3.5,0.3,4.9c-0.1,0.1-0.7,0.3-0.7,0.4c0,0-0.1,0.1-0.1,0.1c0,0-0.1,0.4-0.3,0.5
c-0.6,0.3-1.1,0.3-1.7,0.4c-0.6,0.1-1.1-0.1-1.7-0.4c-0.8-0.4-1.4-1.3-1.7-2.1c-0.1-0.9-0.3-1.7,0.1-2.4c0.1-0.1,0.1-0.2,0.2-0.3
c0.1-0.3,0-0.8,0.2-0.9c0,0,0.2-0.1,0.2-0.2c0.2-0.2,0.5-0.1,0.7-0.2c1-0.7,2.2-1,3.4-0.4C-178.2,415.8-177.9,416-177.5,416.3z"/>
<path fill="#F07458" d="M-177.5,416.3c-0.3-0.3-0.7-0.6-1.1-0.7c-1.2-0.6-2.3-0.3-3.4,0.4c-0.2,0.1-0.5,0-0.7,0.2
c0,0-0.2,0.1-0.2,0.2c-0.2,0.1,0,0.6-0.2,0.9c0,0.1-0.1,0.2-0.1,0.2c0,0.4,0.1,0.8,0.1,1.2c0.3,0.9,0.8,1.7,1.7,2.1
c0.6,0.3,1.1,0.6,1.7,0.4c0.6-0.1,1.4,0,1.9-0.2c0.1-0.1,0.8-1,0.9-1.1c0.2-0.2,0.3-0.5,0.5-0.8
C-176.4,418.1-176.7,417.1-177.5,416.3z"/>
<path fill="#B9D69D" d="M-181.5,413.8c-0.3-0.6-0.7-1-0.9-1.6c-0.1-0.2-0.1-0.3-0.2-0.5c0,0.2-0.2,0.5-0.3,0.6
c-0.1,0.2-0.2,0.3-0.3,0.5c-0.2,0.3-0.4,0.7-0.6,1c-0.2,0.3-0.3,0.7-0.2,1.1c0,0.3,0.3,0.5,0.5,0.7c0.3,0.3,0.6,0.5,0.9,0.8
c0.1-0.2,0.2-0.3,0.4-0.4c0.2-0.1,0.4-0.2,0.5-0.3c0.4-0.2,0.5-0.5,0.5-1C-181.2,414.4-181.3,414.1-181.5,413.8z"/>
<path fill="#A36C35" d="M-182.3,416.6c-0.2-0.8-1.5-0.5-2.1-0.9c0,0.1,0.1,0.2-0.1,0.3C-183.8,416.2-183,416.3-182.3,416.6
C-182.3,416.6-182.3,416.6-182.3,416.6z"/>
<polygon fill="#EF8A45" points="-171.4,417.3 -170.7,416.9 -169.9,417.4 -169.9,418.3 -170.7,418.7 -171.4,418.2 "/>
<polygon fill="#CB1625" points="-174.9,421.2 -174.9,420.3 -174.1,419.8 -173.3,420.3 -173.4,421.2 -174.2,421.6 "/>
<polygon fill="#6E9A74" points="-173.1,413.8 -173.1,412.9 -172.3,412.5 -171.5,413 -171.5,413.9 -172.3,414.3 "/>
<polygon fill="#F05F77" points="-169.2,415 -169.4,414.2 -168.7,413.5 -167.8,413.8 -167.6,414.7 -168.3,415.3 "/>
</svg>
