<svg version="1.1" xmlns="http://www.w3.org/2000/svg" xmlns:xlink="http://www.w3.org/1999/xlink"
 width="160px" height="160px" viewBox="-219 321 160 160">
<path fill="#CC7F40" d="M-97.2,362.1c20.9,17.9,20.3,49.6,4.1,70.1c-1.5,1.9-0.8,6.5-2.5,8.2c-1.8,1.7-3.6,3.3-5.7,4.7
c-1.8,1.3-6-0.3-8,0.7c-8.1,4.1-16.3,4.1-24.4,6.1c-8.1,2-16.3-2-24.4-6.1c-12.2-6.1-20.3-18.3-24.4-30.5c-2-12.2-4.1-24.4,2-34.6
c1.1-1.7,2.1-3.3,3-5c2.1-3.8,0-10.9,2.7-12.9c0.4-0.3,3-2,3.4-2.4c2.9-2.6,7.1-1,10.3-3.1c14.4-9.5,31.2-13.6,48.2-5.6
C-107,354.2-101.7,357.7-97.2,362.1z"/>
<path fill="#E89646" d="M-97.2,362.1c-4.5-4.4-9.9-7.9-15.8-10.3c-17-8-33.7-4-48.2,5.6c-3.2,2.1-7.4,0.5-10.3,3.1
c-0.3,0.3-3,2.1-3.4,2.4c-2.8,1.9-0.6,9-2.7,12.9c-0.6,1.1-1.3,2.3-2,3.5c0.1,5.7,1,11.5,2,17.4c4.1,12.2,12.2,24.4,24.4,30.5
c8.1,4.1,16.3,8.1,24.4,6.1c8.1-2,19.7,0.6,27.9-3.5c2-1.1,11.2-14.3,12.7-16.2c2.7-3.4,4.9-7.1,6.7-11
C-80.1,387.7-84.9,372.5-97.2,362.1z"/>
<path fill="#A9C690" d="M-198.1,393.8c0,1.7-0.8,5.8-0.7,7.4c0.2,3.6,1.5,4.7,1.9,8.2c0.3,2.6-0.3,7.7-0.1,10.4c0.1,1.4,1,0.4,1,1.8
c0,2.7-0.3,5.5-0.9,8.2c0.6-2.6,2.8-4.5,4.9-6.2c0.8-0.7,0.8,1.1,1.5,0.5c1.3-1.2,3.4-4.8,4.7-5.9c0.8-0.7,0.8,1,1.7,0.2
c0.7-0.6,2.3-3.7,3.1-4.3c1.6-1.4,2.4-0.3,4-1.7c2.2-2,5.3-6.4,7.3-8.7c3.8-4.1,3.1-10,4.6-15.7c1.3-4.9,0.4-8-1.9-11
c-5.6-7.2,0.6-11.9-1.2-17.6c-2.2,2.1-4.3,4-6.9,5c-2.7,1.1-5.5,1.2-8.2,1.7c-5.8,1.2-9.5,5.6-11.8,12
C-197.3,383.3-198,388.5-198.1,393.8z"/>
<path fill="#91A87B" d="M-170.3,364.4c-13.6,14.3-24.6,33.3-24.3,54.2C-191.7,398.1-178.5,382.5-170.3,364.4L-170.3,364.4z"/>
<path fill="#865936" d="M-171.1,363.3c-0.8,1-4.2,0.1-4.2,0.1c-0.6-2.9,4.1-4.7,5.6-3.9C-168.9,360.8-169.7,362.5-171.1,363.3z"/>
</svg>
