<svg version="1.1" xmlns="http://www.w3.org/2000/svg" xmlns:xlink="http://www.w3.org/1999/xlink" width="160px"
  height="160px" viewBox="0 0 160 160" >
  <polygon fill="#FFFFFF" points="65.88413,120.68638 62.69717,117.49865 59.51013,120.68638"/>
  <path fill="#A4DBDF" d="M62.39258,44.64746c-0.04199-0.00781-4.17188-0.79785-7.37012-1.96875
    c-2.62793-0.95996-3.95996-1.94922-3.95996-2.94238c0-2.73047,4.71387-2.94141,11.37402-2.94141
    c6.6582,0,11.37207,0.21094,11.37207,2.94141c0,0.99316-1.33301,1.9834-3.96094,2.94238
    c-3.19727,1.1709-7.3252,1.96094-7.36719,1.96875l-0.04395,0.00781L62.39258,44.64746z"/>
  <path fill="#FFFFFF" d="M62.4364,37.03247c6.15576,0,11.13464,0.12109,11.13464,2.70349c0,1.00439-1.7157,1.95789-3.8042,2.71997
    c-3.21692,1.17773-7.33044,1.95789-7.33044,1.95789s-4.11511-0.78015-7.33264-1.95789
    c-2.08862-0.76208-3.80359-1.71558-3.80359-2.71997C51.30017,37.15356,56.27832,37.03247,62.4364,37.03247 M62.4364,36.55823
    c-5.97083,0-11.61047,0-11.61047,3.17773c0,1.11963,1.34607,2.15515,4.11523,3.16553
    c3.21643,1.17725,7.36536,1.97046,7.40686,1.97827l0.08838,0.01685l0.08838-0.01685
    c0.0415-0.00781,4.18896-0.80103,7.40515-1.97839c2.76904-1.0105,4.11536-2.0459,4.11536-3.16541
    C74.04529,36.55823,68.40637,36.55823,62.4364,36.55823L62.4364,36.55823z"/>
  <rect x="59.51014" y="38.47316" fill="#FFFFFF" width="6.374" height="2.24924"/>
  <path fill="none" stroke="#231F20" stroke-width="0.56915" stroke-linecap="round" d="M63.31964,38.60026L43.14552,51.28544
    c-3.18176,1.99665-2.71026,3.6316,1.04538,3.6316h37.01176c3.75564,0,4.22714-1.63495,1.04607-3.6316l-19.55157-12.2817"/>
  <line fill="none" stroke="#231F20" stroke-width="0.56915" stroke-linecap="round" x1="62.1128" y1="38.42389" x2="63.05359" y2="37.82759"/>
  <line fill="none" stroke="#231F20" stroke-width="0.56915" stroke-linecap="round" x1="62.1128" y1="37.47491" x2="63.05359" y2="36.87861"/>
  <line fill="none" stroke="#231F20" stroke-width="0.56915" stroke-linecap="round" x1="62.1128" y1="36.52587" x2="63.05359" y2="35.92957"/>
  <path fill="none" stroke="#231F20" stroke-width="0.56915" stroke-linecap="round" d="M59.54602,30.0413
    c0-1.93834,1.09849-3.03676,3.03753-3.03676c1.93987,0,3.03683,1.09841,3.03683,3.03676c0,3.16531-3.03683,2.5332-3.03683,3.98581
    c0,0.68147,0,1.27333,0,1.27333"/>
  <path fill="#A4DBDF" d="M87.09988,48.30844l-7.58902-2.13416L62.4364,44.04013l-17.07531,2.13416l-7.58826,2.13416
    L14.58139,79.63586l13.92117,9.88747l8.3213-11.71371v43.06508l25.61254-0.18831h0.45053H88.0474V77.1221l9.01027,12.23533
    l13.75597-10.10271L87.09988,48.30844z M83.77688,65.38444v5.92714v3.67491l-6.40163,3.20265l-6.40315-3.20265v-9.60205v-4.26976
    h5.28829h7.51649V65.38444z"/>
  <path fill="#404041" d="M60.82157,59.3019c0.3542,0,0.66578,0.28242,0.66578,0.66203c0,0.35566-0.31158,0.66655-0.66578,0.66655
    c-0.3796,0-0.68744-0.31089-0.68744-0.66655C60.13413,59.58432,60.44196,59.3019,60.82157,59.3019z"/>
  <path fill="#404041" d="M60.82157,65.37242c0.3542,0,0.66578,0.28396,0.66578,0.66357c0,0.37815-0.31158,0.66211-0.66578,0.66211
    c-0.3796,0-0.68744-0.28396-0.68744-0.66211C60.13413,65.65638,60.44196,65.37242,60.82157,65.37242z"/>
  <path fill="#404041" d="M60.82157,71.44158c0.3542,0,0.66578,0.30936,0.66578,0.66501c0,0.37961-0.31158,0.66357-0.66578,0.66357
    c-0.3796,0-0.68744-0.28396-0.68744-0.66357C60.13413,71.75094,60.44196,71.44158,60.82157,71.44158z"/>
  <path fill="#404041" d="M60.82157,77.51364c0.3542,0,0.66578,0.30791,0.66578,0.66356c0,0.37961-0.31158,0.68896-0.66578,0.68896
    c-0.3796,0-0.68744-0.30936-0.68744-0.68896C60.13413,77.82155,60.44196,77.51364,60.82157,77.51364z"/>
  <path fill="#404041" d="M60.82157,83.60667c0.3542,0,0.66578,0.28396,0.66578,0.66509c0,0.35565-0.31158,0.66356-0.66578,0.66356
    c-0.3796,0-0.68744-0.30791-0.68744-0.66356C60.13413,83.89062,60.44196,83.60667,60.82157,83.60667z"/>
  <path fill="#404041" d="M60.82157,89.6788c0.3542,0,0.66578,0.28396,0.66578,0.66357c0,0.3796-0.31158,0.66203-0.66578,0.66203
    c-0.3796,0-0.68744-0.28242-0.68744-0.66203C60.13413,89.96276,60.44196,89.6788,60.82157,89.6788z"/>
  <path fill="#404041" d="M60.82157,95.74941c0.3542,0,0.66578,0.30936,0.66578,0.66356c0,0.37953-0.31158,0.66349-0.66578,0.66349
    c-0.3796,0-0.68744-0.28396-0.68744-0.66349C60.13413,96.05878,60.44196,95.74941,60.82157,95.74941z"/>
  <path fill="#404041" d="M60.82157,101.81849c0.3542,0,0.66578,0.31089,0.66578,0.68896c0,0.3542-0.31158,0.66502-0.66578,0.66502
    c-0.3796,0-0.68744-0.31081-0.68744-0.66502C60.13413,102.12938,60.44196,101.81849,60.82157,101.81849z"/>
  <path fill="#404041" d="M60.82157,53.20435c-0.3796,0-0.68744,0.31089-0.68744,0.68744c0,0.19282,0.07093,0.33331,0.18977,0.47525
    c0.02395,0,0.02395,0.02395,0.02395,0.02395c0.11654,0.09565,0.28242,0.16734,0.47372,0.16734
    c0.07246,0,0.16666-0.0254,0.23613-0.04927c0,0,0,0,0.02395,0c0.23835-0.11807,0.4057-0.35275,0.4057-0.61727
    C61.48735,53.51524,61.17577,53.20435,60.82157,53.20435z"/>
  <polygon fill="#A4DBDF" points="71.20898,74.83984 71.20898,65.62207 83.54004,65.62207 83.54004,74.83984 77.375,77.92383  "/>
  <path fill="#FFFFFF" d="M83.30261,65.85864v5.45288v3.38184l-5.92737,2.96545l-5.92896-2.96545v-8.83472h7.96887H83.30261
     M83.77686,65.3844h-4.36169h-8.44312v9.60205l6.4032,3.20264l6.40161-3.20264v-3.67493V65.3844L83.77686,65.3844z"/>
  <polygon fill="#FFFFFF" points="76.26039,61.11467 70.9721,61.11467 70.9721,65.38444 79.41521,65.38444 83.77688,65.38444
    83.77688,61.11467"/>
  <line fill="none" stroke="#FFFFFF" stroke-width="0.47429" x1="62.66947" y1="44.28377" x2="62.69717" y2="120.68638"/>
  <path fill="#FFFFFF" d="M65.2793,49.59082l-2.49121-5.00488c1.01758-0.20605,4.36816-0.92188,7.05957-1.90723
    c1.90332-0.69434,3.12695-1.40527,3.65723-2.12207l1.17285,5.4668c-0.00586,0.01465-0.01953,0.07715-0.0459,0.13672
    c-0.50195,1.88672-6.46387,3.64062-8.95117,4.21875L65.2793,49.59082z"/>
  <path fill="#FFFFFF" d="M73.37109,41.06506l1.06091,4.94507c-0.00305,0.01782-0.00818,0.03491-0.01538,0.05078l-0.01624,0.03601
    l-0.01013,0.03821c-0.40393,1.52576-5.33044,3.20093-8.58203,3.97119l-0.31543-0.61914l-1.85278-3.7251l-0.50256-1.0061
    c1.27747-0.26697,4.31189-0.94653,6.79199-1.85449C71.57178,42.30212,72.71362,41.69421,73.37109,41.06506 M73.57104,39.73596
    c0,1.00439-1.7157,1.95789-3.8042,2.71997c-3.21692,1.17773-7.33044,1.95789-7.33044,1.95789l0.7793,1.56018l1.85242,3.72437
    l0.48572,0.95349c0,0,8.64563-1.94287,9.29492-4.39539c0.04126-0.09119,0.06055-0.18835,0.06055-0.28247L73.57104,39.73596
    L73.57104,39.73596z"/>

  <path fill="#FFFFFF" d="M59.19043,50.37891c-2.48828-0.57812-8.4502-2.33203-8.94043-4.18262
    c-0.03809-0.09668-0.05273-0.16211-0.05273-0.22266l1.16797-5.41797c0.53027,0.7168,1.75391,1.42773,3.65723,2.12305
    c2.69238,0.98535,6.04395,1.70117,7.0625,1.90723l-2.49414,5.00684L59.19043,50.37891z"/>
  <path fill="#FFFFFF" d="M51.49988,41.06506c0.65723,0.62915,1.79883,1.23706,3.4408,1.8363
    c2.48083,0.90796,5.51599,1.58752,6.79419,1.85449l-0.50403,1.00684l-1.8512,3.7207l-0.31689,0.62292
    c-3.25208-0.76978-8.17908-2.44446-8.58325-3.97119l-0.00916-0.03491l-0.0144-0.03296
    c-0.00842-0.01929-0.0144-0.03918-0.01794-0.05823L51.49988,41.06506 M51.30017,39.73596L49.96045,45.974
    c0,0.09412,0.02087,0.19128,0.06055,0.28247c0.64929,2.45251,9.29639,4.39539,9.29639,4.39539l0.48499-0.95349l1.85315-3.72437
    l0.78088-1.56018c0,0-4.11511-0.78015-7.33264-1.95789C53.01514,41.69385,51.30017,40.74036,51.30017,39.73596L51.30017,39.73596z"/>

  <path fill="#8A74A5" d="M80.88867,52.64258c-0.04199-0.00781-4.17188-0.79785-7.36914-1.9668
    c-2.62793-0.96191-3.96094-1.95312-3.96094-2.94434c0-2.72949,4.71387-2.94043,11.37402-2.94043
    s11.37402,0.21094,11.37402,2.94043c0,0.99316-1.33301,1.9834-3.96094,2.94434c-3.19824,1.16895-7.32715,1.95898-7.36914,1.9668
    l-0.04395,0.00781L80.88867,52.64258z"/>
  <path fill="#FFFFFF" d="M80.93286,45.02808c6.15576,0,11.13611,0.12244,11.13611,2.70349
    c0,1.00427-1.71558,1.95776-3.8042,2.72144c-3.21753,1.17615-7.33191,1.9563-7.33191,1.9563s-4.11499-0.78015-7.33264-1.9563
    c-2.08557-0.76367-3.80432-1.71716-3.80432-2.72144C69.7959,45.15051,74.77637,45.02808,80.93286,45.02808 M80.93286,44.55383
    c-5.97119,0-11.61121,0-11.61121,3.17773c0,1.11694,1.34619,2.15271,4.11548,3.16675
    c3.21704,1.17603,7.36584,1.96912,7.40735,1.97693l0.08838,0.01685l0.08838-0.01685c0.0415-0.00781,4.1897-0.8009,7.40637-1.97681
    c2.76941-1.01257,4.1156-2.04846,4.1156-3.16687C92.54321,44.55383,86.90356,44.55383,80.93286,44.55383L80.93286,44.55383z"/>
  <rect x="78.00662" y="46.47023" fill="#FFFFFF" width="6.37469" height="2.24924"/>
  <path fill="none" stroke="#231F20" stroke-width="0.56915" stroke-linecap="round" d="M81.81611,46.59422L61.64283,59.28246
    c-3.18107,1.99657-2.70957,3.6316,1.04607,3.6316h37.01176c3.75564,0,4.22561-1.63503,1.04607-3.6316L81.1944,46.99923"/>
  <line fill="none" stroke="#231F20" stroke-width="0.56915" stroke-linecap="round" x1="80.6108" y1="46.42091" x2="81.54937" y2="45.8246"/>
  <line fill="none" stroke="#231F20" stroke-width="0.56915" stroke-linecap="round" x1="80.6108" y1="45.47186" x2="81.54937" y2="44.87555"/>
  <line fill="none" stroke="#231F20" stroke-width="0.56915" stroke-linecap="round" x1="80.6108" y1="44.52288" x2="81.54937" y2="43.92658"/>
  <path fill="none" stroke="#231F20" stroke-width="0.56915" stroke-linecap="round" d="M78.04401,38.03831
    c0-1.93988,1.09849-3.03683,3.03683-3.03683c1.93911,0,3.03752,1.09696,3.03752,3.03683c0,3.16531-3.03752,2.53167-3.03752,3.98581
    c0,0.67994,0,1.27325,0,1.27325"/>
  <path fill="#8A74A5" d="M105.5949,56.30539l-7.58749-2.13561l-17.07454-2.13263l-17.07378,2.13263l-7.58895,2.13561
    l-23.1922,31.32596l13.92117,9.88899l8.32275-11.71524v43.0666l25.61101-0.18985h0.45206h25.15817V85.11912l9.0118,12.23388
    l13.7552-10.10126L105.5949,56.30539z M102.27487,73.3784v5.93012v3.67499l-6.40162,3.20119l-6.40163-3.20119V73.3784v-4.26823
    h5.28676h7.51649V73.3784z"/>
  <path fill="#404041" d="M79.31956,67.29585c0.35275,0,0.6628,0.28548,0.6628,0.66509c0,0.35412-0.31005,0.66348-0.6628,0.66348
    c-0.3796,0-0.68743-0.30936-0.68743-0.66348C78.63213,67.58134,78.93996,67.29585,79.31956,67.29585z"/>
  <path fill="#404041" d="M79.31956,73.36799c0.35275,0,0.6628,0.28396,0.6628,0.66356c0,0.37953-0.31005,0.66348-0.6628,0.66348
    c-0.3796,0-0.68743-0.28395-0.68743-0.66348C78.63213,73.65195,78.93996,73.36799,79.31956,73.36799z"/>
  <path fill="#404041" d="M79.31956,79.4386c0.35275,0,0.6628,0.30936,0.6628,0.66348c0,0.38113-0.31005,0.66509-0.6628,0.66509
    c-0.3796,0-0.68743-0.28396-0.68743-0.66509C78.63213,79.74796,78.93996,79.4386,79.31956,79.4386z"/>
  <path fill="#404041" d="M79.31956,85.5092c0.35275,0,0.6628,0.30783,0.6628,0.66502c0,0.37807-0.31005,0.68598-0.6628,0.68598
    c-0.3796,0-0.68743-0.30791-0.68743-0.68598C78.63213,85.81703,78.93996,85.5092,79.31956,85.5092z"/>
  <path fill="#404041" d="M79.31956,91.60368c0.35275,0,0.6628,0.28242,0.6628,0.66356c0,0.35566-0.31005,0.66502-0.6628,0.66502
    c-0.3796,0-0.68743-0.30936-0.68743-0.66502C78.63213,91.88611,78.93996,91.60368,79.31956,91.60368z"/>
  <path fill="#404041" d="M79.31956,97.67574c0.35275,0,0.6628,0.28251,0.6628,0.66211c0,0.37961-0.31005,0.66356-0.6628,0.66356
    c-0.3796,0-0.68743-0.28395-0.68743-0.66356C78.63213,97.95825,78.93996,97.67574,79.31956,97.67574z"/>
  <path fill="#404041" d="M79.31956,103.74337c0.35275,0,0.6628,0.31089,0.6628,0.66654c0,0.37961-0.31005,0.66211-0.6628,0.66211
    c-0.3796,0-0.68743-0.2825-0.68743-0.66211C78.63213,104.05426,78.93996,103.74337,79.31956,103.74337z"/>
  <path fill="#404041" d="M79.31956,109.81551c0.35275,0,0.6628,0.30936,0.6628,0.68744c0,0.35573-0.31005,0.66654-0.6628,0.66654
    c-0.3796,0-0.68743-0.31081-0.68743-0.66654C78.63213,110.12487,78.93996,109.81551,79.31956,109.81551z"/>
  <path fill="#404041" d="M79.31956,61.20137c-0.3796,0-0.68743,0.30936-0.68743,0.68744c0,0.19129,0.06871,0.33331,0.18831,0.47525
    c0.02464,0,0.02464,0.02242,0.02464,0.02242c0.11654,0.09412,0.2832,0.16887,0.47449,0.16887
    c0.07246,0,0.16666-0.0254,0.23614-0.0508c0,0,0,0,0.02165,0c0.23988-0.11807,0.40501-0.35267,0.40501-0.61574
    C79.98236,61.51073,79.67231,61.20137,79.31956,61.20137z"/>
  <polygon fill="#8A74A5" points="89.70898,82.83691 89.70898,73.61523 102.03711,73.61523 102.03711,82.83691 95.87305,85.91895"/>
  <path fill="#FFFFFF" d="M101.80066,73.85266v5.45581v3.38196l-5.92737,2.96399l-5.92737-2.96399v-8.83777h7.96729H101.80066
     M102.2749,73.37842h-4.36169h-8.44153v9.6051l6.40161,3.20117l6.40161-3.20117v-3.67505V73.37842L102.2749,73.37842z"/>
  <polygon fill="#FFFFFF" points="94.75838,69.11016 89.47163,69.11016 89.47163,73.3784 97.91322,73.3784 102.27487,73.3784
    102.27487,69.11016"/>
  <line fill="none" stroke="#FFFFFF" stroke-width="0.47429" x1="81.16678" y1="52.28078" x2="81.1944" y2="128.68185"/>
  <polygon fill="#FFFFFF" points="84.38136,128.68185 81.1944,125.49567 78.00668,128.68185"/>
  <path fill="#FFFFFF" d="M83.77539,57.58691l-2.49121-5.00586c1.01758-0.20605,4.36914-0.9209,7.06152-1.90527
    c1.90332-0.69531,3.12695-1.40723,3.65723-2.12402l1.1748,5.46777c-0.00586,0.01074-0.02051,0.07324-0.04883,0.13867
    c-0.50195,1.88281-6.46289,3.63965-8.9502,4.21777L83.77539,57.58691z"/>
  <path fill="#FFFFFF" d="M91.86914,49.06006l1.06189,4.94324c-0.00378,0.0188-0.01038,0.03918-0.01978,0.06079l-0.0144,0.0332
    l-0.00928,0.03479c-0.40344,1.5238-5.3302,3.19971-8.58179,3.97107l-0.31641-0.6189l-1.85217-3.72693l-0.50305-1.00586
    c1.27783-0.26697,4.31262-0.94617,6.79346-1.85303C90.06995,50.29797,91.21179,49.68921,91.86914,49.06006 M92.06897,47.73157
    c0,1.00427-1.71558,1.95776-3.8042,2.72144c-3.21753,1.17615-7.33191,1.9563-7.33191,1.9563l0.78015,1.56018l1.85168,3.72583
    l0.48718,0.95337c0,0,8.64563-1.94568,9.29419-4.39514c0.04041-0.09277,0.06274-0.18835,0.06274-0.28406L92.06897,47.73157
    L92.06897,47.73157z"/>

  <path fill="#FFFFFF" d="M77.68652,58.37598c-2.4873-0.5791-8.44824-2.33398-8.93848-4.18262
    c-0.03906-0.09668-0.05273-0.16113-0.05273-0.22363l1.16699-5.41895c0.53027,0.7168,1.75391,1.42871,3.65723,2.125
    c2.69141,0.98438,6.04395,1.69922,7.0625,1.90527l-2.49316,5.00879L77.68652,58.37598z"/>
  <path fill="#FFFFFF" d="M69.99609,49.05933c0.65747,0.62891,1.79919,1.23792,3.44128,1.83911
    c2.4812,0.90698,5.51672,1.58618,6.79443,1.85303l-0.50293,1.00684l-1.85107,3.72144l-0.31812,0.62341
    c-3.25146-0.77087-8.1781-2.44641-8.58228-3.97119l-0.00928-0.03479l-0.0144-0.03308
    c-0.00891-0.02039-0.01514-0.04028-0.01855-0.05945L69.99609,49.05933 M69.7959,47.73157l-1.33826,6.23792
    c0,0.0957,0.02087,0.19128,0.06128,0.28406c0.64929,2.44946,9.29492,4.39514,9.29492,4.39514l0.48645-0.95337l1.85327-3.72583
    l0.7793-1.56018c0,0-4.11499-0.78015-7.33264-1.9563C71.51465,49.68933,69.7959,48.73584,69.7959,47.73157L69.7959,47.73157z"/>

  <path fill="#D9BC7B" d="M99.3877,60.63867c-0.04199-0.00781-4.17285-0.79688-7.37012-1.96582
    c-2.62793-0.96387-3.96094-1.9541-3.96094-2.94434c0-2.72949,4.71484-2.94043,11.375-2.94043
    c6.65918,0,11.37305,0.21094,11.37305,2.94043c0,0.99023-1.33301,1.98145-3.95996,2.94434
    c-3.19922,1.16895-7.32715,1.95801-7.36914,1.96582l-0.04395,0.00781L99.3877,60.63867z"/>
  <path fill="#FFFFFF" d="M99.43164,53.02502c6.15503,0,11.13611,0.12097,11.13611,2.70349
    c0,1.00427-1.71643,1.9563-3.80493,2.72156c-3.21765,1.17615-7.33118,1.95471-7.33118,1.95471s-4.11584-0.77856-7.3335-1.95471
    c-2.08704-0.76526-3.8042-1.71729-3.8042-2.72156C88.29395,53.146,93.27429,53.02502,99.43164,53.02502 M99.43164,52.55078
    c-5.97156,0-11.61194,0-11.61194,3.17773c0,1.1156,1.34607,2.15149,4.11511,3.16687
    c3.21741,1.17603,7.36719,1.96753,7.40869,1.97546l0.08813,0.0166l0.08826-0.0166c0.0415-0.00793,4.18884-0.79944,7.40576-1.97534
    c2.77002-1.01501,4.11633-2.0509,4.11633-3.16699C111.04199,52.55078,105.40234,52.55078,99.43164,52.55078L99.43164,52.55078z"/>
  <rect x="96.50539" y="54.46722" fill="#FFFFFF" width="6.374" height="2.24916"/>
  <path fill="none" stroke="#231F20" stroke-width="0.56915" stroke-linecap="round" d="M100.31334,54.59124L80.14083,67.27641
    c-3.18176,1.99964-2.71026,3.63314,1.04684,3.63314h37.01099c3.75565,0,4.22714-1.6335,1.04539-3.63314L99.6924,54.99471"/>
  <line fill="none" stroke="#231F20" stroke-width="0.56915" stroke-linecap="round" x1="99.10735" y1="54.41486" x2="100.04882" y2="53.82009"/>
  <line fill="none" stroke="#231F20" stroke-width="0.56915" stroke-linecap="round" x1="99.10735" y1="53.46742" x2="100.04882" y2="52.87112"/>
  <line fill="none" stroke="#231F20" stroke-width="0.56915" stroke-linecap="round" x1="99.10735" y1="52.5199" x2="100.04882" y2="51.9236"/>
  <path fill="none" stroke="#231F20" stroke-width="0.56915" stroke-linecap="round" d="M96.54125,46.03533
    c0-1.94133,1.09849-3.03829,3.0376-3.03829c1.93835,0,3.03676,1.09696,3.03676,3.03829c0,3.16378-3.03676,2.53014-3.03676,3.98428
    c0,0.68002,0,1.27333,0,1.27333"/>
  <path fill="#D9BC7B" d="M124.0929,64.3024l-7.58902-2.1356l-17.07224-2.13416l-17.07455,2.13416l-7.58894,2.1356L51.57594,95.62836
    l13.92117,9.88746l8.32199-11.71378v43.06515l25.61254-0.18831h0.45206h25.15894V93.1146l9.01172,12.23534l13.75307-10.10118
    L124.0929,64.3024z M120.77364,81.37541v5.92867V90.979l-6.40315,3.20119l-6.40308-3.20119v-9.60358v-4.26823h5.28822h7.51801
    V81.37541z"/>
  <path fill="#404041" d="M97.81757,75.29287c0.35343,0,0.66433,0.28395,0.66433,0.66501c0,0.3542-0.3109,0.66357-0.66433,0.66357
    c-0.38037,0-0.6882-0.30936-0.6882-0.66357C97.12936,75.57682,97.43719,75.29287,97.81757,75.29287z"/>
  <path fill="#404041" d="M97.81757,81.36493c0.35343,0,0.66433,0.28396,0.66433,0.66211c0,0.3796-0.3109,0.66501-0.66433,0.66501
    c-0.38037,0-0.6882-0.28541-0.6882-0.66501C97.12936,81.64889,97.43719,81.36493,97.81757,81.36493z"/>
  <path fill="#404041" d="M97.81757,87.43408c0.35343,0,0.66433,0.30783,0.66433,0.66356c0,0.38106-0.3109,0.66502-0.66433,0.66502
    c-0.38037,0-0.6882-0.28396-0.6882-0.66502C97.12936,87.74191,97.43719,87.43408,97.81757,87.43408z"/>
  <path fill="#404041" d="M97.81757,93.50469c0.35343,0,0.66433,0.30936,0.66433,0.66502c0,0.37814-0.3109,0.68743-0.66433,0.68743
    c-0.38037,0-0.6882-0.30929-0.6882-0.68743C97.12936,93.81405,97.43719,93.50469,97.81757,93.50469z"/>
  <path fill="#404041" d="M97.81757,99.6007c0.35343,0,0.66433,0.28242,0.66433,0.66203c0,0.35719-0.3109,0.66654-0.66433,0.66654
    c-0.38037,0-0.6882-0.30936-0.6882-0.66654C97.12936,99.88313,97.43719,99.6007,97.81757,99.6007z"/>
  <path fill="#404041" d="M97.81757,105.67131c0.35343,0,0.66433,0.28396,0.66433,0.66348c0,0.3796-0.3109,0.66211-0.66433,0.66211
    c-0.38037,0-0.6882-0.28251-0.6882-0.66211C97.12936,105.95527,97.43719,105.67131,97.81757,105.67131z"/>
  <path fill="#404041" d="M97.81757,111.74039c0.35343,0,0.66433,0.31089,0.66433,0.66654c0,0.37961-0.3109,0.66203-0.66433,0.66203
    c-0.38037,0-0.6882-0.28242-0.6882-0.66203C97.12936,112.05128,97.43719,111.74039,97.81757,111.74039z"/>
  <path fill="#404041" d="M97.81757,117.81245c0.35343,0,0.66433,0.30936,0.66433,0.68752c0,0.35565-0.3109,0.66654-0.66433,0.66654
    c-0.38037,0-0.6882-0.31089-0.6882-0.66654C97.12936,118.12181,97.43719,117.81245,97.81757,117.81245z"/>
  <path fill="#404041" d="M97.81757,69.19831c-0.38037,0-0.6882,0.30936-0.6882,0.68751c0,0.18977,0.07101,0.33324,0.18908,0.47372
    c0.02464,0,0.02464,0.02242,0.02464,0.02242c0.11654,0.09565,0.2832,0.16888,0.47449,0.16888
    c0.07177,0,0.16589-0.02387,0.23392-0.04928c0,0,0,0,0.0254,0c0.23988-0.1196,0.40501-0.35275,0.40501-0.61574
    C98.4819,69.50767,98.171,69.19831,97.81757,69.19831z"/>
<polygon fill="#D9BC7B" points="108.20508,90.83203 108.20508,81.6123 120.53613,81.6123 120.53613,90.83203 114.37012,93.91504"/>
  <path fill="#FFFFFF" d="M120.29944,81.84961v5.45447v3.38184l-5.92896,2.96399l-5.92883-2.96399v-8.8363h7.96814H120.29944
  M120.77368,81.37537h-4.36389h-8.44238V90.979l6.40308,3.20117l6.4032-3.20117v-3.67493V81.37537L120.77368,81.37537z"/>
  <polygon fill="#FFFFFF" points="113.25562,77.10718 107.96741,77.10718 107.96741,81.37541 116.40976,81.37541 120.77364,81.37541
    120.77364,77.10718"/>
  <line fill="none" stroke="#FFFFFF" stroke-width="0.47429" x1="99.66478" y1="60.27773" x2="99.6924" y2="136.67888"/>
  <path fill="#FFFFFF" d="M102.27539,65.58301l-2.49316-5.00586c1.01855-0.20605,4.36914-0.91992,7.06152-1.9043
    c1.90332-0.69727,3.12598-1.40918,3.65723-2.125l1.17285,5.46875c-0.00586,0.01172-0.01953,0.07422-0.04688,0.13672
    c-0.50195,1.88281-6.46387,3.63867-8.9502,4.2168L102.27539,65.58301z"/>
  <path fill="#FFFFFF" d="M110.36731,57.05591l1.06042,4.94507c-0.00354,0.0188-0.00989,0.03882-0.01868,0.0592l-0.01428,0.03271
    l-0.00916,0.03455c-0.40393,1.5238-5.33044,3.19897-8.58215,3.96985l-0.31482-0.6178l-1.85327-3.72473l-0.50281-1.00757
    c1.27747-0.26648,4.31213-0.94482,6.79346-1.85181C108.56799,58.29382,109.70972,57.68469,110.36731,57.05591 M110.56775,55.72852
    c0,1.00427-1.71643,1.9563-3.80493,2.72156c-3.21765,1.17615-7.33118,1.95471-7.33118,1.95471l0.7793,1.56177l1.85315,3.72424
    l0.48499,0.95203c0,0,8.64563-1.94434,9.29504-4.3938c0.04028-0.09277,0.06128-0.18835,0.06128-0.28247L110.56775,55.72852
    L110.56775,55.72852z"/>
  <path fill="#FFFFFF" d="M96.18457,66.37012c-2.4873-0.57812-8.44922-2.33301-8.9375-4.18164
    c-0.03906-0.09961-0.05371-0.16309-0.05371-0.22168l1.16699-5.41895c0.53027,0.71484,1.75391,1.42676,3.65625,2.125
    c2.69238,0.98438,6.0459,1.69824,7.06445,1.9043l-2.49609,5.00781L96.18457,66.37012z"/>
  <path fill="#FFFFFF" d="M88.49438,57.05554c0.65735,0.62878,1.79907,1.23792,3.44092,1.83997
    c2.4812,0.90698,5.51733,1.58533,6.79541,1.85168L98.22766,61.755l-1.85327,3.72021l-0.31738,0.62207
    c-3.25146-0.77026-8.17761-2.44495-8.58081-3.96948l-0.00879-0.03345l-0.01367-0.03186
    c-0.0094-0.02209-0.01624-0.04346-0.02014-0.06274L88.49438,57.05554 M88.29395,55.72852l-1.33826,6.23804
    c0,0.09412,0.02234,0.1897,0.06201,0.28247c0.64783,2.44946,9.29346,4.3938,9.29346,4.3938l0.48572-0.95203l1.85535-3.72424
    l0.77942-1.56177c0,0-4.11584-0.77856-7.3335-1.95471C90.01111,57.68481,88.29395,56.73279,88.29395,55.72852L88.29395,55.72852z"/>

</svg>
