<svg version="1.1" xmlns="http://www.w3.org/2000/svg" xmlns:xlink="http://www.w3.org/1999/xlink"
 width="160px" height="160px" viewBox="-219 321 160 160">
<rect x="-142.6" y="404.3" fill="#6D6E70" width="6.8" height="53.9"/>
<polygon fill="#BF4A50" points="-156.5,432.2 -180.7,408 -180.7,373.9 -156.5,349.7 -122.4,349.7 -98.2,373.9 -98.2,408
-122.4,432.2 "/>
<g>
<path fill="#FFFFFF" d="M-123.9,428.6h-31.2l-22.1-22.1v-31.2l22.1-22.1h31.2l22.1,22.1v31.2L-123.9,428.6z M-154.1,426.3h29.3
l20.7-20.7v-29.3l-20.7-20.7h-29.3l-20.7,20.7v29.3L-154.1,426.3z"/>
</g>
<path fill="#FFFFFF" d="M-153,383.3c-9.6-8.8-18.7,11.7-8.6,17.1c4.9,2.7,11,0.9,13.5-4.2c0.6-1.2,1.4-6.6,2.3-6.6
c-0.6,0-3.6,2.4-4.2,3c-1.5,1.8-1.4,3.8-0.1,5.6c3.2,4.3,11.3,6.3,14.6,1.3c1.4-2.1,1.9-5.1,2.2-7.5c0.3-1.9-0.1-4.6,1.5-6
c0.7-0.6,6.8-1.3,7.7-0.9c1.7,0,2.1,0.7,1.3,2.3c-0.3,1.2-0.5,2.3-0.6,3.5c-0.1,1.2,0,2.4,0.3,3.6c0.6,2.3,2,4.6,4.3,5.4
c7.4,2.7,8.9-6.9,8.6-11.8c-0.1-2.6-4.3-3.7-4.1-0.4c0.4,1.7,0.2,3.2-0.5,4.7c-0.2,2.8-1.7,2.8-4.5,0.1c-0.3-0.8,0.5-2.7,0.6-3.5
c0.3-1.9,0.6-4-0.1-5.8c-1.6-3.6-5.6-2.9-8.8-2.6c-3.4,0.3-8-0.1-9.1,3.9c-0.7,2.3-0.4,5.1-0.9,7.5c-0.3,1.4-0.9,4.7-2.4,5.4
c-1.4,0.6-6.7-0.2-6.4-1.5c0.1-0.5,3.7-2.3,4.3-3.3c0.7-1.1,1-2.3,0.8-3.6c-0.3-2.5-2.5-5.1-5.3-4.7c-5,0.7-3.8,6.8-5.9,9.9
c-2.1,3-8.5,4.4-9.3-0.3c-0.4-2.5,2.5-11.1,6.3-7.6C-153,388.6-150.9,385.3-153,383.3L-153,383.3z"/>
</svg>
