<svg version="1.1" xmlns="http://www.w3.org/2000/svg" xmlns:xlink="http://www.w3.org/1999/xlink"
 width="160px" height="160px" viewBox="-219 321 160 160">
<path fill="#A9DEF0" d="M-145.7,367.8c-0.1,0-0.3,0.1-0.4,0.1h-0.1h-0.1c-6.2,1.6-13.1,3.4-35.3,8.7c-2.7,0.6-5.5,1.3-8.5,2.1
c-1.5,0.4-3,0.7-4.5,1.1c2.9-0.6,10.2,17.8,13.1,27.3c2.9,9.5,7.1,29.3,4.5,30.7c1.4-0.5,2.9-1,4.3-1.6c4.3-1.6,8.3-3.1,11.9-4.5
c8.5-3.3,18.6-7.1,30.7-11.2l0,0c1-0.3,2.1-0.7,3.1-1.1c1.1-0.4,2.2-0.7,3.4-1.1c0.5-0.2,1-0.4,1.5-0.5c5.1-1.8,10.7-3.8,16.7-5.9
c10.7-3.9,20.4-7.6,27.4-10.4c1.4-0.5,1.6-11.7-2.6-25.9c-4.3-14.1-10.1-21.1-11.5-20.7c-7.3,1.7-17.4,4.1-28.5,6.8
C-130.2,363.9-138.9,366-145.7,367.8z"/>
<path fill="#FFFFFF" d="M-155.8,423.3c0,0,20.6-7.3,24.9-8.7l0,0c0.8-0.3,1.1-0.4,2-0.7c0.9-0.3,2.2-0.7,3.2-1.1
c0.4-0.1,0.8-0.3,1.2-0.4c4.1-1.4,8.6-3,13.3-4.7c8.6-3.1,16.3-6.1,21.9-8.3c1.1-0.4,1.4-9.2-2-20.3c-3.4-11.1-8-16.5-9.1-16.3
c-5.8,1.3-13.9,3.3-22.8,5.4C-130.7,370-155.8,423.3-155.8,423.3z"/>
<path fill="#00ADEE" d="M-190.4,409.7c2.9,9.5,10.5,28.7,13.4,28.1c2.6-1.4-1.6-21.2-4.5-30.7s-10.2-27.9-13.1-27.3
C-197.5,380.6-193.3,400.2-190.4,409.7z"/>
<path fill="#A9DEF0" d="M-89.7,379.1c2.3,7.6,8.7,22.9,11.6,22.3c2.6-1.3-0.1-17.4-2.4-25.1c-2.7-8.8-7.8-20.5-11.8-21.5
C-95.1,355.6-92,371.5-89.7,379.1z"/>
<path fill="#A9DEF0" d="M-178.4,433.4c2,0-4.6-25.9-4.6-25.9c-2.5-8.1-8.4-23.7-10.4-23.4c-1.9,0.5,2,17.1,4.4,25.2
C-186.5,417.4-180.4,433.7-178.4,433.4"/>
<path fill="#D0D2D3" d="M-123.1,368.2c-5.5,3.1,1.9,5.9,0,9.6s-6,6-6.3,6.4c-2.2,3.2-2.6,6.7-3.7,10.8c-0.2,0.4-0.4,0.7-0.6,1.1
c-1.6,2.6-5.1,4.8-7.3,7.4c-0.3,0.4-0.6,0.8-0.9,1.2c-1.4,2-0.1,8.4-8.2,13.8c-1.2,2.5-5.4,4.8-5.7,4.6c-0.3-0.1-1.9-0.4-1.7-1.8
c0.1-0.3,0.1-0.7,0.2-1.1c-0.1-2.8,5.8-14.2,7.3-16.2c0.3-0.4,0.6-0.8,0.9-1.2c2.6-2.6,3.2-6.4,4.5-9.5c0.2-0.5,0.4-0.9,0.6-1.3
c1.3-3.2,3.5-5.6,5.3-8.3c0.3-0.4,0.5-0.8,0.8-1.1c3.4-3.7,4.9-7.4,7.8-11C-128.8,370.2-123.3,368.1-123.1,368.2z"/>
<path fill="#D0D2D3" d="M-173.3,447.4c0,3.2-2.6,5.8-5.9,5.8c-3.2,0-5.9-2.6-5.9-5.8c0-2.2,1-6.8,4-12.2c1.3-2.4,2.9-3.3,2.4-1.6
C-180.2,440-173.3,444.2-173.3,447.4z"/>
<path fill="#FFFFFF" d="M-175.7,445.6c0.1,2.3-1.6,4-3.4,4.1c-1.9,0.1-3.3-1.4-3.4-3.6c-0.1-1.6,0.3-4,1.8-7.9
c0.7-1.7,0.9-3,0.7-1.7C-180.7,441-175.8,443.3-175.7,445.6z"/>
</svg>
