<svg version="1.1" xmlns="http://www.w3.org/2000/svg" xmlns:xlink="http://www.w3.org/1999/xlink"
 width="160px" height="160px" viewBox="-219 321 160 160">
<path fill="#E3D0C4" d="M-159.8,375.5c0,8.9,2.8,6.7,2.8,35.9c0.1,5.3-0.6,5-2.6,9.4c-0.8,2.1,0.6,10,2.5,10.6
c8.8,2.5,10.4,3.6,20.5-1.2c3.7-1.7,0.7-5.6-0.5-8.2c-4-7.9-2.1-11.6-2.2-20.2c0-4.8,3.8-17.8,4.3-25.7c0.4-6.8,0.9-21.2-4.3-30.4
c-3.6-6.2-22.7-4.5-19.4,2.1C-154.9,355.2-159.8,358.7-159.8,375.5z"/>
<path fill="#E3D0C4" d="M-126.4,451.9c-0.4-0.7,0.3-1.6,0.3-2.2c0-0.8-1.8-5.6-4.1-8.2c-2.4-2.6-3.3-6.3-4.6-9
c-1.2-2.7-0.1-4.7-0.1-4.7s-1.2-1.1-3.6-2.8c-2.4-1.7-6.9-1.7-7.3-1.1c-0.5,0.6-11.4,7.4-11.4,7.4c0,2.4-1,3.1-1,6.9
c0,3.8-0.3,6.2-1.7,7.9c-1.5,1.8-2,5.4-2,7.7s-0.6,6.4,3.8,6.4c4.4,0,6.4,0.6,7.2-1.1c0.8-1.7,8.5-1.2,12.8-1.1
c2.3,0.1,5.9-0.3,8.9-0.9c0.4,1.5,1.5,2.5,2.8,2.5c1.6,0,3-1.7,3-3.9C-123.5,453.7-124.8,452-126.4,451.9z"/>
<ellipse fill="#E3D0C4" cx="-126.5" cy="456.6" rx="3" ry="3.2"/>
<ellipse fill="#E3D0C4" cx="-131.8" cy="457.7" rx="3" ry="3.2"/>
<ellipse fill="#E3D0C4" cx="-137.8" cy="458.2" rx="4" ry="3.7"/>
<ellipse fill="#E3D0C4" cx="-145.7" cy="457.7" rx="4.6" ry="4.3"/>
<path fill="#E3D0C4" d="M-148.6,456.9c0,3.1-1.2,5.6-7.2,5.6c-3.3,0-6-2.5-6-5.6c0-3.1,2.7-5.6,6-5.6
C-152.6,451.3-148.6,453.8-148.6,456.9z"/>
<path fill="#FFF3EA" d="M-152.1,453.8l1.4,1.7c0.1,0.8-1.7-0.3-4-0.2c-2.3,0.1-4.2,1.3-4.3,0.5l1.2-1.9
C-155.9,453.1-153.3,453.1-152.1,453.8z"/>
<path fill="#FFF3EA" d="M-144.1,455.6l1.4,1c0.1,0.3-0.7-0.2-2.3-0.1c-1.6,0-2.6,0.3-2.8,0l0.5-0.7
C-147,455.6-144.9,455.4-144.1,455.6z"/>
<path fill="#FFF3EA" d="M-136.4,456.3l1,1c0.1,0.3-0.6,0-1.8,0.1c-1.2,0-1.9,0.1-2-0.2l0.3-0.7C-138.6,456.3-137,456-136.4,456.3z"
/>
<path fill="#FFF3EA" d="M-130.6,456.1l0.8,1c0.1,0.3-0.4,0.3-1.4,0.3c-1,0-1.6-0.1-1.6-0.4l0.3-0.7
C-132.4,456.1-131.1,455.8-130.6,456.1z"/>
<path fill="#FFF3EA" d="M-125.3,455.6l0.8,1c0.1,0.3-0.4,0.3-1.4,0.3c-1,0-1.6-0.1-1.6-0.4l0.3-0.7
C-127.1,455.6-125.8,455.4-125.3,455.6z"/>
</svg>
