<svg version="1.1" xmlns="http://www.w3.org/2000/svg" xmlns:xlink="http://www.w3.org/1999/xlink"
 width="160px" height="160px" viewBox="-219 321 160 160">
<path fill="#989788" d="M-82.9,373.9c-0.4-0.4-1-1-1.7-1.7c1.3,2.1,1.4,3.6,1.4,5.5v54.1c0,7.1-5.8,12.8-12.8,12.8h-20.2l0.7,0.7h-9
l-0.7-0.7h-33l0.7,0.7h-9l-0.7-0.7h-12.8c-1.9,0-3.4-0.1-4.8-0.7c0.3,0.3,0.5,0.6,0.8,0.8c2.2,2.2,5.2,3.6,8.6,3.6h84.1
c6.6,0,12-5.4,12-12v-54.1C-79.5,379-80.8,376-82.9,373.9z"/>
<path fill="#989788" d="M-91.5,365.2c-2.2-2.5-5.4-4-8.9-4h-84.1c-6.6,0-12,5.4-12,12v54.1c0,3,1.1,5.7,2.9,7.8
c1.2,1.4,6.8,5.6,7.3,6c2.1,1.7,3.7,1.9,6.3,1.9h11.2l-0.7-0.7h9l0.7,0.7h33l-0.7-0.7h9l0.7,0.7H-96c6.2,0,11.2-5,11.2-11.2v-54.1
c0-1.4,0-2.5-0.8-4.1C-86.2,372.4-90.6,366.2-91.5,365.2z M-194.9,427.3v-54.1c0-5.7,4.6-10.3,10.3-10.3h84.1
c5.7,0,10.3,4.6,10.3,10.3v54.1c0,5.7-4.6,10.3-10.3,10.3h-84.1C-190.3,437.6-194.9,433-194.9,427.3z M-187,439
C-187.1,439-187.1,439-187,439C-187.1,439-187.1,439-187,439z M-185.8,439.2c0,0-0.1,0-0.1,0C-185.9,439.2-185.9,439.2-185.8,439.2z
"/>
<path fill="#989788" d="M-158.3,361.2v-4.8c0-1.3,1-2.3,2.3-2.3h26.8c1.3,0,2.3,1,2.3,2.3v4.8h10.6v-4.8c0-7.1-5.8-12.9-12.9-12.9
h-26.8c-7.1,0-12.9,5.8-12.9,12.9v4.8H-158.3z"/>
<rect x="-151" y="375.8" fill="#C16558" width="17.4" height="48.5"/>
<rect x="-166.5" y="391.3" fill="#C16558" width="48.5" height="17.4"/>
</svg>
