<svg version="1.1" xmlns="http://www.w3.org/2000/svg" xmlns:xlink="http://www.w3.org/1999/xlink"
 width="160px" height="160px" viewBox="-219 321 160 160">
<path fill="#D0EBEF" d="M-117,364.5c-19.8-0.6-39-2.7-58.9-0.9c-7.5,28.6,0,58,1.7,86.9c19.6,1.8,40.5,6.8,57.5-1.2
c3.5-1.8,1.1-12.8,1.1-19.9c-0.6-17.3-2.9-34.5-1.9-51.7C-116.9,369.9-117,364.5-117,364.5z"/>
<path fill="#6DB8CC" d="M-93.1,382c-5.1-7.3-17.8-11.5-23.9-17.5c-7.5,28.6-0.2,58.7,1.5,87.6C-95.9,453.8-93.1,382-93.1,382z"/>
<path fill="#6DB8CC" d="M-150.6,380.8c-10.5-3.2-14.6-14.1-25.3-17.2c-7.5,28.6,0,58,1.7,86.9c8.8,5.7,15,14.9,21.9,17.2
c3.7,1.3,36.8-31.2,36.8-38.4C-116.1,412-150.6,380.8-150.6,380.8z"/>
<path fill="#7ED4F2" d="M-93.1,466.4c-19.8,0.6-39.3,3-59.2,1.2c-7.5-28.6,0-58,1.7-86.9c19.6-1.8,41.5,7,57.5,1.2
c0.8,3.6,1.1,12.8,1.1,19.9c-0.6,17.3-2.9,34.5-1.9,51.7C-93.4,461.3-93.1,466.4-93.1,466.4z"/>
<path fill="#00ADEE" d="M-156.3,365.6c2-7.4-3-20.6,7.2-22c3.5-0.4,6.8-0.3,10.4,0.2c2.5,0.4,4.5,2.6,4.8,5.2
c0.6,5.6-1.2,11.1,0,16.6c0.1,0.5,2.8,0.3,4.5,0.3c-1.2-8.7,5.2-23.7-5.4-26.5c-6.7-1.7-13.6-1-20.5-0.5c-0.6,0.1-1.4,0.2-2,0.4
c-0.5,0.1-0.9,0.4-1.4,0.6c-1.7,1-2.8,2.7-2.8,4.7c0.1,7.1-0.2,14.2-0.4,21.3L-156.3,365.6z"/>
<path fill="#00ADEE" d="M-131,381.5c2,7.4-3.4,23.8,6.9,25.2c3.5,0.4,6.8,0.3,10.4-0.2c2.5-0.4,4.5-2.6,4.8-5.2
c0.6-5.6-3.7-12.1-2.6-17.5c0.1-0.5,4.6,0.2,6.2,0.2c-1.1,8.7,6.1,24.1-4.6,26.9c-6.7,1.7-13.6,1-20.5,0.5c-0.6-0.1-1.4-0.2-2-0.4
c-0.5-0.1-0.9-0.4-1.4-0.6c-1.7-1-2.8-2.7-2.8-4.7c0.1-7.1-0.9-17.7-1.1-24.9L-131,381.5z"/>
</svg>
