<svg version="1.1" id="Layer_1" xmlns="http://www.w3.org/2000/svg" xmlns:xlink="http://www.w3.org/1999/xlink" x="0px" y="0px"
   width="160px" height="160px" viewBox="-107 254 160 160">
<path fill="#F0D0B3" d="M-28.7,300.9c0.6-1,1.6-1.9,2.4-2.7c-1.3,1.3-4.5,0.7-4.5,0.7c-0.3,1.2-0.5,2.5-0.6,3.8
  C-30.2,303.1-29.3,301.8-28.7,300.9z"/>
<path fill="#D0EBEF" d="M-17,323.7c-14.9-0.5-29.4-2-44.3-0.7c-5.6,20.8,0,42.2,1.3,63.1c14.7,1.3,30.5,5,43.2-0.9
  c2.6-1.3,0.9-9.3,0.9-14.5c-0.4-12.5-2.2-25.1-1.4-37.5C-16.9,327.6-17,323.7-17,323.7z"/>
<path fill="#B08775" d="M-46.5,324.5c1.5-5.4-2.3-22.1,5.4-23.1c2.6-0.3,5.1-0.2,7.8,0.2c1.9,0.3,3.4,1.9,3.6,3.8
  c0.5,4.1-0.9,15.2,0,19.2c0.1,0.4,2.1,0.2,3.4,0.2c-0.9-6.3,3.9-24.4-4.1-26.4c-5-1.3-10.2-0.7-15.4-0.4c-0.5,0.1-1,0.2-1.5,0.3
  c-0.4,0.1-0.7,0.3-1,0.5c-1.3,0.7-2.1,2-2.1,3.4c0.1,5.2-0.2,17.4-0.3,22.6L-46.5,324.5z"/>
<path fill="#BBBBBB" d="M-30.6,317.9c0.2,0.4,2.6,1.5,6.1,2.3h0.1c3.6,0.8,6.4,0.6,6.6,0.3c0.1-0.3-2.2-1.6-6.2-2.5h-0.1
  C-27.8,317.2-30.4,317.5-30.6,317.9L-30.6,317.9z"/>
<path fill="#F48473" d="M-17.4,322.7l-14.5-3.1l-3.7,17.3l0,0l0,0l0,0l0,0c-0.2,0.7,3,2,7,2.9s7.4,0.9,7.6,0.1l0,0L-17.4,322.7z"/>
<path fill="#DDDDDD" d="M-17.7,321.8c-0.2,0.7-3.3,0.7-7-0.1c-3.7-0.8-6.6-2-6.4-2.8c0.2-0.7,3.3-1,7.1-0.2
  C-20.4,319.6-17.6,321.1-17.7,321.8z"/>
<path fill="#888888" d="M-23.4,319.8c-0.5-0.4-1.6-0.6-2.3-0.5s-1.8,0.5-1.1,0.9c0.7,0.5,2.3,0.5,3,0.4
  C-23,320.5-22.8,320.1-23.4,319.8z"/>
<path fill="#BBBBBB" d="M-17.7,320.6c-0.5,0.5-2.5,0.6-6.8-0.2c-3.6-0.7-6.3-1.9-6.3-2.6c-0.9,1.1-1,1.4-1,1.8c-0.2,0.7,3,2,7,2.9
  s7.4,1,7.5,0.2C-17.2,322-17.2,320.1-17.7,320.6z"/>
<path fill="#D0D2D3" d="M-24.5,320.7L-24.5,320.7c-2.2-0.5-6.8-1.8-6.6-2.9c0.2-1.2,4.3-0.9,7.2-0.3h0.1c2.7,0.6,6.9,1.9,6.6,3.1
  C-17.5,321.6-21.6,321.3-24.5,320.7L-24.5,320.7z M-30.6,317.9c0.2,0.4,2.6,1.5,6.1,2.3h0.1c3.6,0.8,6.4,0.6,6.6,0.3
  c0.1-0.3-2.2-1.6-6.2-2.5h-0.1C-27.8,317.2-30.4,317.5-30.6,317.9L-30.6,317.9z"/>
<path fill="#888888" d="M-20.5,318.2c-0.6-0.3-1.6-0.3-2.3-0.1c-0.7,0.3-1.7,1-0.9,1.4s2.4,0,3.1-0.3C-20,319-19.9,318.5-20.5,318.2
  z M-23.4,319.4c-0.4-0.2,0-0.5,0.3-0.7c0.3-0.1,1.5,0.5,1.2,0.6C-22.2,319.5-23,319.6-23.4,319.4z M-22.5,318.3
  c0.5-0.2,1.2-0.2,1.7,0c0.4,0.2,0.4,0.6-0.1,0.8C-21.4,319.3-23,318.5-22.5,318.3z"/>
<path fill="#DDDDDD" d="M-20.5,318c-0.6-0.3-1.6-0.3-2.3,0s-1.7,1-0.9,1.4s2.4,0,3.1-0.3C-19.9,318.8-19.9,318.4-20.5,318z
   M-23.4,319.3c-0.4-0.2,0-0.5,0.3-0.7c0.3-0.1,1.5,0.5,1.2,0.6C-22.2,319.3-22.9,319.5-23.4,319.3z M-22.4,318.1
  c0.5-0.2,1.2-0.2,1.7,0c0.4,0.2,0.4,0.6-0.1,0.8C-21.3,319.1-22.9,318.3-22.4,318.1z"/>
<path fill="#BBBBBB" d="M-43.7,323c0.3,0.3,3,0.3,6.5-0.4h0.1c3.6-0.8,6.1-2.1,6.1-2.5c-0.1-0.3-2.7-0.6-6.7,0.3h-0.1
  C-41.4,321.2-43.7,322.6-43.7,323L-43.7,323z"/>
<path fill="#D5562B" d="M-29.7,321.9l-14.5,3.2l3.8,17.3l0,0l0,0l0,0l0,0c0.2,0.7,3.5,0.6,7.5-0.3s7.1-2.3,6.9-3l0,0L-29.7,321.9z"
  />
<path fill="#DDDDDD" d="M-30.3,321.3c0.2,0.7-2.7,2-6.4,2.8s-6.8,0.9-7,0.1c-0.2-0.7,2.7-2.2,6.4-3.1
  C-33.7,320.4-30.5,320.6-30.3,321.3z"/>
<path fill="#888888" d="M-36.3,321.7c-0.6-0.1-1.7,0.1-2.3,0.5s-1.5,1.2-0.6,1.3c0.9,0.1,2.3-0.5,2.9-0.9
  C-35.7,322.2-35.7,321.8-36.3,321.7z"/>
<path fill="#BBBBBB" d="M-30.8,320.2c-0.3,0.6-2,1.6-6.3,2.6c-3.5,0.8-6.6,0.9-6.8,0.3c-0.4,1.3-0.3,1.7-0.2,2
  c0.2,0.7,3.5,0.6,7.5-0.3s7.1-2.2,7-2.9C-29.8,321.2-30.5,319.5-30.8,320.2z"/>
<path fill="#D0D2D3" d="M-37,323L-37,323c-2.2,0.5-7,1.1-7.2,0.1c-0.3-1.2,3.6-2.6,6.4-3.3h0.1c2.7-0.6,7-1.1,7.3,0.1
  C-30.2,321-34.1,322.4-37,323L-37,323z M-43.7,323c0.3,0.3,3,0.3,6.5-0.4h0.1c3.6-0.8,6.1-2.1,6.1-2.5c-0.1-0.3-2.7-0.6-6.7,0.3
  h-0.1C-41.4,321.2-43.7,322.6-43.7,323L-43.7,323z"/>
<path fill="#888888" d="M-34.4,319.1c-0.7,0-1.6,0.4-2.1,0.9s-1.1,1.6-0.2,1.6c0.9,0,2.2-1,2.7-1.5
  C-33.5,319.6-33.7,319.1-34.4,319.1z M-36.5,321.4c-0.5,0-0.2-0.5,0-0.7s1.6-0.2,1.3,0.1C-35.4,321-36,321.4-36.5,321.4z M-36.1,320
  c0.4-0.4,1.1-0.7,1.5-0.7c0.5,0,0.6,0.4,0.2,0.7C-34.7,320.4-36.5,320.4-36.1,320z"/>
<path fill="#DDDDDD" d="M-34.4,319c-0.7,0-1.6,0.4-2.1,0.9s-1.1,1.6-0.2,1.6c0.9,0,2.2-1,2.7-1.5C-33.6,319.5-33.7,319-34.4,319z
   M-36.5,321.3c-0.5,0-0.2-0.5,0-0.7s1.6-0.2,1.3,0.1C-35.5,320.9-36.1,321.3-36.5,321.3z M-36.2,319.9c0.4-0.4,1.1-0.7,1.5-0.7
  c0.5,0,0.6,0.4,0.2,0.7C-34.7,320.3-36.5,320.2-36.2,319.9z"/>
<path fill="#A0CC42" d="M-56.8,316.6c-2-0.3-4-0.1-5.9-0.4c-0.6-0.1-1.1-0.2-1.6-0.5c0.7,0.3,0.9,1.3,1.2,2c0.3,0.6,0.5,1.1,0.7,1.7
  c0.5,1.2,0.9,2.4,1.6,3.6c0.6,1,1.3,2.1,2.4,2.6c0.9,0.5,1.9,0.3,2.8,0c1.3-0.3,2.5-0.7,3.9-0.9c-0.3-0.6-0.5-1.1-0.5-1.8
  c0-0.7,0.2-1.3,0.2-2c0.2-1.4-0.5-2.4-1.6-3.2C-54.7,317.1-55.7,316.8-56.8,316.6z"/>
<path fill="#A0CC42" d="M-45.9,316.9c-0.8-1.8-2.2-3.3-3.1-5.1c-0.3-0.5-0.4-1.1-0.5-1.6c0.1,0.7-0.6,1.5-0.9,2.1
  c-0.3,0.5-0.6,1-1,1.5c-0.7,1.1-1.5,2.2-2,3.3c-0.5,1-1,2.3-0.8,3.5c0.2,1,0.8,1.7,1.6,2.4c1,0.8,2,1.7,3,2.6
  c0.3-0.6,0.6-1.1,1.2-1.5c0.5-0.4,1.2-0.6,1.8-0.9c1.2-0.7,1.7-1.8,1.7-3.1C-45.1,318.9-45.4,317.9-45.9,316.9z"/>
<path fill="#80739B" d="M-45.1,327.4c-1.3,0.7-2.8,0.3-3.5-0.9c-0.6-1.2-0.1-2.7,1.1-3.4c1.3-0.7,2.8-0.3,3.5,0.9
  S-43.8,326.8-45.1,327.4z"/>
<path fill="#80739B" d="M-44.4,326.5c0.2-0.1,0.4-0.2,0.5-0.4c0.3-0.7,0.3-1.4-0.1-2.1c-0.6-1.2-2.2-1.6-3.5-0.9
  c-0.2,0.1-0.4,0.2-0.5,0.4c-0.3,0.7-0.3,1.4,0.1,2.1C-47.2,326.8-45.7,327.2-44.4,326.5z"/>
<ellipse fill="#80739B" cx="-47.6" cy="323.8" rx="2.4" ry="2.6"/>
<path fill="#A582A2" d="M-45.6,322.7c0-0.2,0-0.4-0.1-0.6c-0.4-0.6-1.1-0.9-1.9-0.9c-1.3,0-2.4,1.2-2.4,2.6c0,0.2,0,0.4,0.1,0.6
  c0.4,0.6,1.1,0.9,1.8,0.9C-46.7,325.3-45.6,324.2-45.6,322.7z"/>
<path fill="#80739B" d="M-43.7,329.2c-1.3,0.7-2.8,0.3-3.5-0.9c-0.6-1.2-0.1-2.7,1.1-3.4c1.3-0.7,2.8-0.3,3.5,0.9
  C-41.9,327-42.4,328.5-43.7,329.2z"/>
<path fill="#A582A2" d="M-43,328.3c0.2-0.1,0.4-0.2,0.5-0.4c0.3-0.7,0.3-1.4-0.1-2.1c-0.6-1.2-2.2-1.6-3.5-0.9
  c-0.2,0.1-0.4,0.2-0.5,0.4c-0.3,0.7-0.3,1.4,0.1,2.1C-45.8,328.6-44.2,329-43,328.3z"/>
<path fill="#80739B" d="M-47,330.4c-1.3,0.7-2.8,0.3-3.4-0.9c-0.6-1.2-0.1-2.7,1.1-3.4c1.3-0.7,2.8-0.3,3.5,0.9
  C-45.2,328.2-45.7,329.7-47,330.4z"/>
<path fill="#80739B" d="M-46.3,329.5c0.2-0.1,0.4-0.2,0.5-0.4c0.3-0.7,0.3-1.4-0.1-2.1c-0.6-1.2-2.2-1.6-3.5-0.9
  c-0.2,0.1-0.4,0.2-0.5,0.4c-0.3,0.7-0.3,1.4,0.1,2.1C-49.1,329.8-47.6,330.2-46.3,329.5z"/>
<ellipse fill="#80739B" cx="-45.3" cy="329.7" rx="2.4" ry="2.6"/>
<path fill="#A582A2" d="M-43.4,328.7c0-0.2,0-0.4-0.1-0.6c-0.4-0.6-1.1-0.9-1.9-0.9c-1.3,0-2.4,1.2-2.4,2.6c0,0.2,0,0.4,0.1,0.6
  c0.4,0.6,1.1,0.9,1.9,0.9C-44.5,331.3-43.4,330.1-43.4,328.7z"/>
<path fill="#80739B" d="M-42.7,332.3c1.2,0.7,2.8,0.4,3.5-0.7s0.2-2.7-1-3.4c-1.2-0.7-2.8-0.4-3.5,0.7
  C-44.4,330-44,331.6-42.7,332.3z"/>
<path fill="#A582A2" d="M-43.4,331.4c-0.2-0.1-0.4-0.3-0.5-0.4c-0.3-0.7-0.2-1.4,0.2-2.1c0.7-1.1,2.3-1.5,3.5-0.7
  c0.2,0.1,0.4,0.3,0.5,0.4c0.3,0.7,0.2,1.4-0.2,2.1C-40.6,331.8-42.1,332.1-43.4,331.4z"/>
<ellipse transform="matrix(-0.4815 -0.8764 0.8764 -0.4815 -354.9555 455.9234)" fill="#80739B" cx="-42.6" cy="333" rx="2.4" ry="2.6"/>
<path fill="#A582A2" d="M-40.8,334.2c0.2-0.1,0.4-0.2,0.5-0.4c0.3-0.7,0.3-1.4-0.1-2.1c-0.6-1.2-2.2-1.6-3.5-0.9
  c-0.2,0.1-0.4,0.2-0.5,0.4c-0.3,0.7-0.3,1.4,0.1,2.1C-43.6,334.5-42,334.9-40.8,334.2z"/>
<ellipse fill="#80739B" cx="-54.6" cy="324.8" rx="2.4" ry="2.6"/>
<path fill="#80739B" d="M-52.7,323.8c0-0.2,0-0.4-0.1-0.6c-0.4-0.6-1.1-0.9-1.9-0.9c-1.3,0-2.4,1.2-2.4,2.6c0,0.2,0,0.4,0.1,0.6
  c0.4,0.6,1.1,0.9,1.9,0.9C-53.8,326.4-52.7,325.3-52.7,323.8z"/>
<ellipse transform="matrix(-0.4812 -0.8766 0.8766 -0.4812 -360.2762 437.4473)" fill="#80739B" cx="-50.7" cy="325.3" rx="2.4" ry="2.6"/>
<path fill="#A582A2" d="M-48.9,326.6c0.2-0.1,0.4-0.2,0.5-0.4c0.3-0.7,0.3-1.4-0.1-2.1c-0.6-1.2-2.2-1.6-3.5-0.9
  c-0.2,0.1-0.4,0.2-0.5,0.4c-0.3,0.7-0.3,1.4,0.1,2.1C-51.7,326.9-50.2,327.3-48.9,326.6z"/>
<ellipse transform="matrix(-0.4815 -0.8764 0.8764 -0.4815 -364.3335 440.7036)" fill="#80739B" cx="-51.8" cy="328.1" rx="2.4" ry="2.6"/>
<path fill="#A582A2" d="M-50,329.4c0.2-0.1,0.4-0.2,0.5-0.4c0.3-0.7,0.3-1.4-0.1-2.1c-0.6-1.2-2.2-1.6-3.4-0.9
  c-0.2,0.1-0.4,0.2-0.5,0.4c-0.3,0.7-0.3,1.4,0.1,2.1C-52.8,329.7-51.3,330.1-50,329.4z"/>
<path fill="#80739B" d="M-54,331.5c-1.3,0.7-2.8,0.3-3.5-0.9c-0.6-1.2-0.1-2.7,1.1-3.4c1.3-0.7,2.8-0.3,3.5,0.9
  C-52.3,329.3-52.8,330.8-54,331.5z"/>
<path fill="#80739B" d="M-53.4,330.6c0.2-0.1,0.4-0.2,0.5-0.4c0.3-0.7,0.3-1.4-0.1-2.1c-0.6-1.2-2.2-1.6-3.5-0.9
  c-0.2,0.1-0.4,0.2-0.5,0.4c-0.3,0.7-0.3,1.4,0.1,2.1C-56.2,330.9-54.6,331.3-53.4,330.6z"/>
<ellipse fill="#80739B" cx="-52.4" cy="330.8" rx="2.4" ry="2.6"/>
<path fill="#80739B" d="M-50.4,329.8c0-0.2,0-0.4-0.1-0.6c-0.4-0.6-1.1-0.9-1.9-0.9c-1.3,0-2.4,1.2-2.4,2.6c0,0.2,0,0.4,0.1,0.6
  c0.4,0.6,1.1,0.9,1.9,0.9C-51.5,332.4-50.4,331.2-50.4,329.8z"/>
<ellipse transform="matrix(0.5163 -0.8564 0.8564 0.5163 -307.1481 118.6937)" fill="#80739B" cx="-48.5" cy="331.3" rx="2.4" ry="2.6"/>
<path fill="#A582A2" d="M-50.4,332.4c-0.2-0.1-0.4-0.2-0.5-0.4c-0.3-0.7-0.2-1.4,0.2-2.1c0.7-1.1,2.3-1.5,3.5-0.7
  c0.2,0.1,0.4,0.3,0.5,0.4c0.3,0.7,0.2,1.4-0.2,2.1C-47.6,332.9-49.2,333.2-50.4,332.4z"/>
<ellipse transform="matrix(0.3771 -0.9262 0.9262 0.3771 -338.1071 165.643)" fill="#80739B" cx="-45.9" cy="334.2" rx="2.4" ry="2.6"/>
<path fill="#80739B" d="M-47.6,335.6c-0.2-0.1-0.4-0.2-0.6-0.3c-0.4-0.6-0.4-1.4-0.2-2.1c0.5-1.2,2-1.8,3.3-1.3
  c0.2,0.1,0.4,0.2,0.6,0.3c0.4,0.6,0.4,1.4,0.2,2.1C-44.8,335.6-46.3,336.2-47.6,335.6z"/>
<ellipse transform="matrix(-0.4815 -0.8765 0.8765 -0.4815 -366.2939 451.4436)" fill="#80739B" cx="-49.6" cy="334.1" rx="2.4" ry="2.6"/>
<path fill="#80739B" d="M-47.8,335.3c0.2-0.1,0.4-0.2,0.5-0.4c0.3-0.7,0.3-1.4-0.1-2.1c-0.6-1.2-2.2-1.6-3.5-0.9
  c-0.2,0.1-0.4,0.2-0.5,0.4c-0.3,0.7-0.3,1.4,0.1,2.1C-50.6,335.6-49,336-47.8,335.3z"/>
<ellipse transform="matrix(0.3775 -0.926 0.926 0.3775 -340.0515 168.8908)" fill="#80739B" cx="-44.4" cy="337.4" rx="2.4" ry="2.6"/>
<path fill="#80739B" d="M-53.9,337.6c1.3,0.5,2.8,0,3.3-1.3c0.5-1.2-0.2-2.7-1.5-3.2s-2.8,0-3.3,1.3
  C-55.9,335.6-55.2,337-53.9,337.6z"/>
<path fill="#80739B" d="M-54.7,336.7c-0.2-0.1-0.4-0.2-0.6-0.3c-0.4-0.6-0.4-1.4-0.2-2.1c0.5-1.2,2-1.8,3.3-1.3
  c0.2,0.1,0.4,0.2,0.6,0.3c0.4,0.6,0.4,1.4,0.2,2.1C-51.8,336.7-53.3,337.3-54.7,336.7z"/>
<ellipse transform="matrix(0.5163 -0.8564 0.8564 0.5163 -308.509 125.2355)" fill="#80739B" cx="-43.4" cy="335.7" rx="2.4" ry="2.6"/>
<path fill="#80739B" d="M-45.2,337c-0.2-0.1-0.4-0.3-0.5-0.4c-0.3-0.7-0.2-1.4,0.2-2.1c0.7-1.1,2.3-1.5,3.5-0.7
  c0.2,0.1,0.4,0.2,0.5,0.4c0.3,0.7,0.2,1.4-0.2,2.1C-42.4,337.4-44,337.7-45.2,337z"/>
<ellipse transform="matrix(-0.4815 -0.8764 0.8764 -0.4815 -366.8661 457.4391)" fill="#80739B" cx="-48.1" cy="337.2" rx="2.4" ry="2.6"/>
<path fill="#80739B" d="M-46.3,338.5c0.2-0.1,0.4-0.2,0.5-0.4c0.3-0.7,0.3-1.4-0.1-2.1c-0.6-1.2-2.2-1.6-3.4-0.9
  c-0.2,0.1-0.4,0.2-0.5,0.4c-0.3,0.7-0.3,1.4,0.1,2.1C-49.1,338.8-47.5,339.2-46.3,338.5z"/>
<path fill="#80739B" d="M-45.6,342.1c1.4,0.5,2.8-0.1,3.3-1.4s-0.3-2.7-1.6-3.2c-1.4-0.5-2.8,0.1-3.3,1.4
  C-47.7,340.2-47,341.6-45.6,342.1z"/>
<path fill="#80739B" d="M-46.4,341.3c-0.2-0.1-0.4-0.2-0.6-0.3c-0.4-0.6-0.5-1.4-0.2-2.1c0.5-1.3,1.9-1.9,3.3-1.4
  c0.2,0.1,0.4,0.2,0.6,0.3c0.4,0.6,0.5,1.4,0.2,2.1C-43.6,341.2-45.1,341.8-46.4,341.3z"/>
<path fill="#F6921E" d="M-20.2,341.6c-0.8,5.7-6.5,9.2-11.9,8.7c-0.5,0-1.2,0.6-1.7,0.5s-1-0.3-1.5-0.5c-0.4-0.2-0.6-1.1-1-1.3
  c-1.6-1-2.6-2.4-3.9-3.6c-1.3-1.2-1.5-3.1-1.7-5c-0.3-2.9,0.9-5.7,2.6-7.8c1.9-1.8,3.9-3.5,6.3-3.6c0.4,0,0.8,0,1.2,0
  c0.9-0.1,1.9-1.3,2.6-1c0.1,0,0.7,0.3,0.8,0.3c0.8,0.2,1,1.1,1.7,1.5c3.3,1.5,6,4,6.5,7.9C-20,338.9-20,340.3-20.2,341.6z"/>
<path fill="#A0CC42" d="M-37.3,327.3c-0.3,0.2-1.1,0.5-1.4,0.7c-0.6,0.4-0.7,0.8-1.2,1.3c-0.4,0.4-1.4,0.8-1.9,1.2
  c-0.2,0.2,0,0.2-0.2,0.4c-0.5,0.3-1,0.6-1.6,0.8c0.5-0.2,1.1,0,1.7,0.2c0.2,0.1-0.1,0.3,0.1,0.3c0.4,0.1,1.2,0.1,1.6,0.2
  c0.2,0.1-0.1,0.3,0.1,0.3c0.2,0.1,0.9,0,1.1,0c0.4,0.1,0.3,0.4,0.8,0.5c0.6,0.2,1.7,0.2,2.4,0.3c1.1,0.2,2.1-0.6,3.3-1
  c1-0.3,1.5-0.8,1.7-1.6c0.6-1.8,2.2-1.3,3-2.2c-0.6-0.1-1.2-0.3-1.7-0.7c-0.5-0.4-0.8-0.8-1.2-1.3c-0.9-0.9-2.1-1-3.5-0.7
  C-35.4,326.3-36.4,326.8-37.3,327.3z"/>
<path fill="#885A36" d="M-28.9,328.6c-0.3,0-0.5-0.7-0.5-0.7c0.4-0.4,1.3,0.2,1.3,0.6C-28.2,328.7-28.6,328.8-28.9,328.6z"/>
<path fill="#00C1F2" d="M-1.6,319.9c1.1-3.5-0.7-7.8-2.5-9.6c-0.7,1.6-1.7,1.4-2.9,1c-1.2-0.4-2.3-0.7-1.9-2.4
  c-2.5,0.5-6.4,3.1-7.5,6.5l-3.9,12.7c-0.2,0.6-0.1,1.2,0.1,1.8c-0.6,0.8-1.1,1.6-1.4,2.4c-0.2,0.6-0.1,1.2,0.1,1.8
  c-0.6,0.8-1.1,1.7-1.4,2.4c-0.2,0.6-0.1,1.2,0.1,1.8c-0.6,0.8-1.1,1.6-1.4,2.4c-0.2,0.6-0.1,1.2,0.1,1.8c-0.6,0.8-1.1,1.6-1.4,2.4
  c-0.1,0.4-0.1,0.7-0.1,1.1c-0.3,0.3-0.5,0.6-0.6,1c-0.7,2.3,2,5.2,6.1,6.5s8,0.4,8.7-2c0.1-0.4,0.1-0.7,0.1-1.1
  c0.3-0.3,0.5-0.6,0.6-1c0.2-0.8,0.3-1.7,0.2-2.8c0.5-0.4,0.9-0.9,1.1-1.5c0.2-0.7,0.3-1.7,0.2-2.8c0.5-0.4,0.9-0.9,1.1-1.5
  c0.2-0.8,0.3-1.7,0.2-2.8c0.5-0.4,0.9-0.9,1.1-1.5c0.2-0.8,0.3-1.7,0.2-2.8c0.5-0.4,0.9-0.9,1.1-1.5L-1.6,319.9z"/>
<path fill="#EEEEEE" d="M-9.6,319.8c-2.6-0.8-4.7-2.3-5.6-3.9l-2.6,8.3c-0.4,1.4,1.6,3.8,5.3,5c3.7,1.1,6.7,0.3,7.2-1.1l2.5-8.3
  C-4.5,320.5-7,320.6-9.6,319.8z"/>
<path fill="#00C1F2" d="M-3.9,309.9c-0.6,2.1-1.7,1.8-3.1,1.4c-1.3-0.4-2.4-0.7-1.8-2.9c0.6-2.1,1.7-1.8,3.1-1.4
  C-4.4,307.5-3.3,307.8-3.9,309.9z"/>
<path fill="#A6A8AB" d="M-2.1,306.4c0.4-1.1-0.7-2.5-2.4-3.1c-1.7-0.6-3.4-0.1-3.8,1.1l-0.7,2.1l0,0l0,0c-0.4,1.1,0.7,2.5,2.4,3.1
  c1.7,0.6,3.4,0.1,3.8-1.1l0,0l0,0L-2.1,306.4z"/>
<path fill="#EEEEEE" d="M-5.3,305.7c1.2,0.4,2.2,0,2.3-0.3c0.1-0.3-0.4-1.2-1.7-1.6c-1.2-0.4-2.2,0-2.3,0.3
  C-7.1,304.5-6.6,305.3-5.3,305.7z"/>
<path fill="#00ADEE" d="M5.9,328c2.2-2.9,2-7.5,1-9.9c-1.2,1.3-2,0.7-3.1-0.1c-1-0.8-1.9-1.5-0.9-2.9c-2.5-0.4-7.1,0.7-9.3,3.5
  l-8.1,10.6c-0.4,0.5-0.6,1.1-0.6,1.7c-0.9,0.5-1.6,1.1-2.1,1.8c-0.4,0.5-0.6,1.1-0.6,1.7c-0.9,0.5-1.6,1.1-2.1,1.8
  c-0.4,0.5-0.6,1.1-0.6,1.7c-0.9,0.5-1.6,1.2-2.1,1.8c-0.4,0.5-0.6,1.1-0.6,1.7c-0.9,0.5-1.6,1.1-2.1,1.8c-0.2,0.3-0.4,0.7-0.5,1
  c-0.3,0.2-0.6,0.4-0.9,0.7c-1.5,1.9,0.1,5.6,3.5,8.2s7.4,3.1,8.8,1.2c0.2-0.3,0.4-0.7,0.5-1c0.3-0.2,0.6-0.4,0.9-0.7
  c0.5-0.6,0.9-1.5,1.2-2.5c0.6-0.2,1.2-0.5,1.5-1c0.5-0.6,0.9-1.5,1.2-2.5c0.6-0.2,1.2-0.5,1.5-1c0.5-0.6,0.9-1.5,1.1-2.5
  c0.6-0.2,1.2-0.5,1.5-1c0.5-0.6,0.9-1.5,1.2-2.5c0.6-0.2,1.2-0.5,1.5-1L5.9,328z"/>
<path fill="#EEEEEE" d="M-1.6,325.1c-2.2-1.7-3.6-3.8-3.9-5.6l-5.3,6.9c-0.9,1.2,0.2,4.2,3.2,6.5c3.1,2.3,6.2,2.6,7.1,1.4l5.3-6.9
  C3,327.5,0.6,326.7-1.6,325.1z"/>
<path fill="#00ADEE" d="M7.1,317.8c-1.3,1.8-2.2,1.1-3.4,0.2c-1.1-0.9-2-1.5-0.7-3.3s2.2-1.1,3.4-0.2C7.5,315.4,8.5,316.1,7.1,317.8
  z"/>
<path fill="#A6A8AB" d="M10,315.2c0.7-0.9,0.2-2.6-1.2-3.7c-1.4-1.1-3.2-1.3-3.9-0.3l-1.4,1.7l0,0l0,0c-0.7,1-0.2,2.6,1.2,3.7
  c1.4,1.1,3.2,1.3,3.9,0.3l0,0l0,0L10,315.2z"/>
<path fill="#EEEEEE" d="M7.2,313.4c1,0.8,2,0.8,2.2,0.5s0-1.2-1-2s-2-0.8-2.2-0.5C6,311.6,6.2,312.6,7.2,313.4z"/>
<path fill="#F0DBCB" d="M-42.2,335.5c-7.9-2.3-11-10.3-19-12.5c-5.6,20.8,0,42.2,1.3,63.1c6.6,4.1,11.3,10.8,16.4,12.5
  c2.8,0.9,27.7-22.7,27.7-27.9C-16.3,358.2-42.2,335.5-42.2,335.5z"/>
<path fill="#EFC7AF" d="M1,397.8c-14.9,0.5-29.6,2.2-44.5,0.9c-5.6-20.8,0-42.2,1.3-63.1c14.7-1.3,31.2,5.1,43.2,0.9
  c0.6,2.6,0.9,9.3,0.9,14.5c-0.4,12.5-2.2,25.1-1.4,37.5C0.8,394,1,397.8,1,397.8z"/>
<path fill="#B08775" d="M-27.5,336.1c1.5,5.4-2.6,17.3,5.2,18.3c2.6,0.3,5.1,0.2,7.8-0.2c1.9-0.3,3.4-1.9,3.6-3.8
  c0.5-4.1-2.8-8.8-2-12.7c0.1-0.4,3.4,0.1,4.7,0.1c-0.9,6.3,4.6,17.5-3.4,19.6c-5,1.3-10.2,0.7-15.4,0.4c-0.5-0.1-1-0.2-1.5-0.3
  c-0.4-0.1-0.7-0.3-1-0.5c-1.3-0.7-2.1-2-2.1-3.4c0.1-5.2-0.7-12.9-0.8-18.1L-27.5,336.1z"/>
<path fill="#F0D0B3" d="M-31.2,302.7c-0.1,0-0.1,0-0.2,0c0.2-1.3,0.3-2.6,0.6-3.8c0,0,3.1,0.7,4.5-0.7c-0.6,0.7,2-1.2,1-3.4
  c-1.2-2.7-2.2-5.6-2.8-8.5c-0.4-2.2-0.6-4.4-0.7-6.6c-0.1-1.3-0.1-2.6-0.4-3.8c-0.2-1-0.6-1.9-1.2-2.7c-0.9-1.2-2.3-1.9-3.7-2.4
  c-2.6-0.9-5.3-1.3-8-1.6c-0.8-0.1-1.6-0.2-2.3-0.3c-0.6,4.9-1.5,9.7-2.5,14.5c-0.6,2.9-1.3,5.9-1.8,8.9c-0.3,1.4-0.7,2.7-1,4.1
  c-0.3,1.1-0.7,2.4-0.4,3.5c0.1,0.4,0.6,1.1,1,1.4c1.8,1.3,2.5-1.5,2.3-0.7c-0.5,1.9,0.8,2.4,1.5,2.8c1.9,1,2.8-0.7,3.2-1.5
  c-0.3,1.3-0.3,2.5,0.9,3.4c1,0.7,2.5,1.1,3.4,0.2c0.6-0.5,0.9-1.3,1.1-2c0.3,0.6-0.3,1.3,0,1.8c1.6,2.5,3.4,1.1,3.8,0.9
  c0.9-0.6,1.2-0.8,1.4-2.3C-31.4,303.5-31.4,303.1-31.2,302.7C-31.3,302.7-31.3,302.7-31.2,302.7z"/>
</svg>
