<svg version="1.1" xmlns="http://www.w3.org/2000/svg" xmlns:xlink="http://www.w3.org/1999/xlink"
 width="160px" height="160px" viewBox="-219 321 160 160" >
<path fill="#E3D0C4" d="M-211.8,443.3c17.9,16.5,23.6,6,33.6-4.3c11.8-12.2,29.3-18.6,28-22c-2.8-7.7-12.7,0.3-16.4,0.6
C-166.6,417.6-190,410.2-211.8,443.3z"/>
<path fill="#E3D0C4" d="M-124.4,384.2c3.8,11.4,10.2,22.7,13.3,34.2c-3.7-0.6-12.8-9.5-16.3-2c-1.6,3.3,15.3,11.1,26,24.3
c9,11.1,5.7,18.9,33.1,7.1c-7.6-15.6-15.8-66.3-22.1-64.3c-5.8,1.9,3.8,19.3,2.5,19.4c-3.6,0.4-4.8-27.9-13.4-25.2
c-6.6,2.1,7.1,15.8,4.5,27.8c-8.6-17.2-7.7-35.1-14.6-32.9c-6.8,2.2,2.3,16.9,5.8,35.7C-110.8,399.6-118.1,370-124.4,384.2"/>
<polygon fill="#CE9D77" points="-97,416.1 -175.3,416.1 -196.7,389.4 -196.7,382.3 -97,409 "/>
<polygon fill="#F5E0CD" points="-97,409 -175.3,409 -196.7,382.3 -118.4,382.3 "/>
<path fill="#9ABB6C" d="M-193.8,378.2c0,1.9-1.2,1.1-2.4,2.4c-1.5,1.5-3,4.6-1.8,6.7c1.1,1.9,3.6,2.5,5.6,1.9
c0.6-0.2,3.1-2.4,3.5-2.3c0.8,0.3,0.3,6,0.4,6.7c0.1,1.6,0,4.8,2.1,4.8c0.6,0,1.1-0.4,1.7-0.2c0.9,0.2,1.5,1.1,2.1,1.7
c1.5,1.6,3.3,3.1,5.6,2c1.5-0.7,2.5-2.1,4-2.9c1.7-0.8,4-2,5.9-2.2c2.6-0.1,2.2,2.4,1.5,4.2c-0.5,1.3-2.6,3.2-2.5,4.7
c0.1,1.6,2.4,2.1,3.6,2.1c2.4,0,4.7-1.4,7.1-0.9c1.2,0.2,3.5,2.3,4.5,1.7c1.6-1-0.1-3.3,1.5-4.3c1.7-1.1,4.6,0.7,6.4,0.2
c2-0.6-0.4-4.2,0.8-5.6c2.7-3.4,9.7,3.4,10.2,6c0.3,1.4-0.4,3,0.7,4.3c1,1.2,2.7,1.5,4.1,1.3c4.2-0.5,6.5-5.1,8.3-8.3
c2.6-4.7,6.6-5.5,11.3-3.3c4.6,2.1,9.6,4.3,14.5,5.3c2.1,0.4,4.5,0.2,3.1-2.6c-2.6-5.2,2.6-7.8-2.6-7.8c-5.2,0-5.2-2.6-10.4,0
c-5.2,2.6-7.8-13-7.8-13s-75.7-5.2-78.3-5.2C-193.8,375.6-193.8,373-193.8,378.2z"/>
<path fill="#ED1E3D" d="M-163.6,364.1c-15.1,0-27.6,5-29.9,11.6h-0.4v2.2c0,7.6,13.6,13.8,30.3,13.8c16.8,0,30.3-6.2,30.3-13.8
C-133.3,370.3-146.8,364.1-163.6,364.1z"/>
<path fill="#F0646E" d="M-133.3,375.7c0,7.6-13.6,13.8-30.3,13.8c-16.7,0-30.3-6.2-30.3-13.8c0-7.6,13.6-13.8,30.3-13.8
C-146.8,361.9-133.3,368.1-133.3,375.7z"/>
<path fill="#ED1E3D" d="M-160.1,384.1c-0.7,7.6,12.2,15.2,28.9,16.9c16.7,1.8,30.7-2.9,31.5-10.5c0.7-7.6-12.2-15.2-28.9-16.9
C-145.3,371.8-159.4,376.5-160.1,384.1z"/>
<path fill="#F0646E" d="M-159.9,381.9c-0.7,7.6,12.2,15.2,28.9,16.9c16.7,1.8,30.7-2.9,31.5-10.5c0.7-7.6-12.2-15.2-28.9-16.9
C-145.1,369.7-159.2,374.4-159.9,381.9z"/>
<path fill="#ED1E3D" d="M-190.4,383.9c-0.7,7.6,12.2,15.2,28.9,16.9c16.7,1.8,30.8-2.9,31.5-10.5c0.7-7.6-12.2-15.2-28.9-16.9
C-175.6,371.6-189.7,376.3-190.4,383.9z"/>
<path fill="#F0646E" d="M-190.2,381.7c-0.7,7.6,12.2,15.2,28.9,16.9c16.7,1.8,30.7-2.9,31.5-10.5c0.7-7.6-12.2-15.2-28.9-16.9
C-175.4,369.4-189.5,374.1-190.2,381.7z"/>
<path fill="#F8DB88" d="M-103.9,381.5c-3.5-4.9-9.9-6.3-15.3-7.6c-7.1-1.8-14-2.6-21.2-3.2c-7.6-0.6-15.2-1.3-22.8-2
c-4.5-0.4-9.4-1.5-13.9-1c-4.7,0.6-10,5.9-9.8,11c0.1,2.8,2.9,3.9,4.8,5.5c2.6,2.1,4.2,4.9,6.6,7.2c2.6,2.5,5.5,2.2,8.8,1.6
c4.7-0.9,9-1.4,13.7-0.8c5.4,0.8,10.3,1.6,15.7,0.4c5.1-1.1,10.5-4.4,15.8-3.8c4.3,0.4,7,4.4,11.1,5
C-103.7,394.8-100.3,386.6-103.9,381.5z"/>
<polygon fill="#F2D7BF" points="-97,390.2 -175.3,390.2 -196.7,363.5 -196.7,356.4 -97,383.1 "/>
<polygon fill="#F2D7BF" points="-97,383.1 -175.3,383.1 -196.7,356.4 -118.4 ,356.4 "/>
<polygon fill="#2E86C7" points="-146.5,334.2 -136,339.4 -146.5,344.6 "/>
<rect x="-147.6" y="334.2" fill="#CE9D77" width="1.1" height="34.7"/>
<path fill="#E3D0C4" d="M-111,418.3c-3.7-0.6-12.8-9.5-16.3-2c-1.6,3.3,15.3,11.1,26,24.3c9,11.1,5.7,18.9,33.1,7.1
C-86,419.2-111,418.3-111,418.3z"/>
<path fill="#E3D0C4" d="M-150.4,384.7c-4.8,11-12.2,21.8-16.2,32.9c3.8-0.3,0.2,9.2-11.6,21.4c-9.9,10.3-15.7,20.7-33.6,4.3
c8.9-14.9,21.4-64.7,27.6-62.2c5.6,2.3-5.4,18.9-4.1,19.2c3.6,0.7,7.2-27.4,15.5-23.9c6.4,2.7-8.4,15.2-6.8,27.4
c10-16.4,10.7-34.3,17.4-31.5c6.6,2.8-3.7,16.6-8.8,35.1C-165.2,399-155.4,370.1-150.4,384.7"/>
<path fill="#FFF4F0" d="M-156.9,384.4l0.7-1.9c0.5-0.9,1.7-1.2,2.8-0.6c1.1,0.5,1.6,1.7,1.1,2.6l-1.4,1.8
C-154.1,386.4-156.6,385.5-156.9,384.4z"/>
<path fill="#FFF4F0" d="M-156.9,418.9l0.3-1.3c0.9-1,3.2-2,4.4-1c1.2,1,0.1,2.4-0.8,3.4l-1.6,1.1
C-155.1,421.2-156.9,420.4-156.9,418.9z"/>
<path fill="#FFF4F0" d="M-166,376l0.4-2c0.3-1,1.5-1.5,2.6-1.1c1.2,0.3,1.9,1.4,1.6,2.4l-1,2C-162.8,377.4-165.5,377-166,376z"/>
<path fill="#FFF4F0" d="M-177.4,380.2l0.6-1.9c0.4-0.9,1.6-1.3,2.7-0.8c1.1,0.5,1.7,1.6,1.3,2.5l-1.3,1.8
C-174.5,382.1-177.2,381.3-177.4,380.2z"/>
<path fill="#FFF4F0" d="M-186.4,384.6l0.2-1.3c0.2-0.6,0.8-1,1.5-0.8c0.7,0.2,1.1,0.8,1,1.4l-0.6,1.3
C-184.5,385.3-186.1,385.2-186.4,384.6z"/>
</svg>
