<svg version="1.1" xmlns="http://www.w3.org/2000/svg" xmlns:xlink="http://www.w3.org/1999/xlink"
 width="160px" height="160px" viewBox="-219 321 160 160">
<path fill="#5652A2" d="M-101.2,452.4c-4.3,5.9-25,2.5-34.1,0.5c-6.7-1-15.7-0.3-22.9-3.8c-6.8-3.3-1.1-11.6,1.1-11.9
c6.1-0.9,13.4,0.6,19.2,0.9c10.3,0.7,12.9-4.2,12.9-4.2C-120.8,442.1-96.8,446.4-101.2,452.4z"/>
<path fill="#5652A2" d="M-161.7,449.8c6.2-0.2,14.9-3.1,22.7-0.9c1,0.2,1.6,0.3,1.6,0.3c-0.8-8.4,2.1-19.3-2.8-24.5
c-2.5-2.6-3.9,4.1-9.1,5c-3.1,0.5-6.3,1.5-8.7,2.7c-8.2,2.2-15.9,4.1-19.2,7.8c-2.5,2.8-4,7.1-2.7,10.7
C-178.3,456-167.9,450.1-161.7,449.8z"/>
<path fill="#5652A2" d="M-117.8,449.8c-6.2-0.2-14.9-3.1-22.7-0.9c-1,0.2-1.6,0.3-1.6,0.3c0.8-8.4-2.1-19.3,2.8-24.5
c2.5-2.6,3.9,4.1,9.1,5c3.1,0.5,6.3,1.5,8.7,2.7c8.2,2.2,15.9,4.1,19.2,7.8c2.5,2.8,4,7.1,2.7,10.7
C-101.2,456-111.6,450.1-117.8,449.8z"/>
<path fill="#ABADAF" d="M-147.7,395.1c6.7-3.4,25-6.2,31.1-10.7c-4.5-3.3-7.2-8.9-8.4-14.6c-0.5-1.9-0.9-3.8-1.4-5.7
c-5.5,3.2-13.5,3-15.4,8.2c-1.2,2.7-12.2-9-11.4-5.5c1.6,3.3,1.9,22.2,3.8,25.4C-148.4,394-147.7,395.1-147.7,395.1z"/>
<path fill="#F0D0B3" d="M-141.2,386.3c1.6-0.6,2.9-2.6,6.3-2.4c0,0-1.2-4.3,0-7c1.2-2.7-9.5,0.6-9.5,0.6s1,5.6,0.1,7.9
c-0.2,0.6,0.7,0.9,1.2,1.1C-142.3,386.6-141.7,386.5-141.2,386.3z"/>
<path fill="#F0D0B3" d="M-135,380.1c3.9-3.1,5.2-5.6,5.7-12.1c0.5-6.7-4.5-11.9-11-12c-6.5,0-12.2,5.5-11.5,12.2
c0.7,6.7,6,13.3,9.9,13.6C-138.6,382.1-135.9,380.9-135,380.1z"/>
<path fill="#F0D0B3" d="M-132.9,406.2c4.8-3.1,6.5-5.6,7.1-12.1c0.6-6.7-5.6-11.9-13.6-12c-8,0-15.1,5.5-14.2,12.2
c0.9,6.7,7.4,13.3,12.3,13.6C-137.3,408.2-134.1,407-132.9,406.2z"/>
<path fill="#ABADAF" d="M-128.5,370.7c0.5-2.2,2.1-4.1,2.2-6.3c0-2.1-1-4.2-2.1-5.8c-1.3-1.8-2.6-3.9-4.3-5.2
c-3.5-2.8-9.6-3.4-13.6-1.8c-1.2,0.5-2.4,1.2-3.5,1.9c-0.9,0.5-3.1,3.7-3.9,5.9c-0.4,1-0.9,9.1-0.2,10.3c0.3,0.4,0,0,1.3-0.6
c0,0,4.7-7.6,16.1-4.1c3.2,1,4.5,6.5,6.8,4.5c1.6-1.4-0.4,3-0.8,5.6c0.8,0,1.2-2.1,1.2-2.1C-128.9,372.1-128.6,371.5-128.5,370.7z"
/>
<path fill="#F399C0" d="M-128.3,409.2c5.3-1,2-10.4,3.5-15.5c0-0.6,0-2.4-0.3-3.6c-0.3-1.2,0.4-4.4-1.6-5c-1.9-0.5-3.4-1.4-6-1.6
c-2.2,7.1-3.4,12.6-7,12.6c-3.7,0-4.7-6.4-7-12.4c-2.6,0.2-4.6,1.2-7.4,2.2c-2,0.7,0.1,3-0.2,4.2c-0.3,1.2-0.4,3-0.3,3.6
c1.5,5.2-2,12.4,3.4,15.8c0.6,13.6-5.3,19.4-4.7,22.6c3.6,5.6,9.3,5.7,17.9,5.7c0,0,0.1,0,0.4-0.1c5.8-0.5,12.4-2.7,14.3-5.6
C-123,427.9-128.9,422.6-128.3,409.2z"/>
<path fill="#F0D0B3" d="M-122.8,411.9c0.7,4.8,5.4,9.3,8.7,16.9c0,0,2.2,1.8,4.2,0.1c1.4-1.2,0.1-4.5-0.3-5.3
c-3.1-6.3-4.7-8.3-5.8-13.9C-120.9,405-123,410.5-122.8,411.9z"/>
<path fill="#F0D0B3" d="M-116.1,411.1c1-2.4-7-23.3-7.3-23.5c-1.8-1.8-2.5-2.6-5.1-2.6c-2.3,1.3-2.3,6.2-2.2,6.5c0,0,1,4.6,2,5.1
c2.7,6.7,5.6,13.3,6.4,17.3C-117.7,418.8-116.6,412.4-116.1,411.1z"/>
<path fill="#F0D0B3" d="M-103.5,430.9c-0.7-0.7,5.3,3.8,4.3,4.9c-1,1.1-4.8-2.8-5.6-3.4c0.7,0.6,4.7,3.3,3.7,4.4
c-1.2,1.4-4.4-3.4-5-2.9c-0.2,0.2,3.8,2.5,3,3.5c-0.7,0.8-7.2-5.2-10.6-8.4c-0.9-0.8-1-3.2,0.1-3.7c1.4-0.6,3.3-0.8,5.1-0.1
c3.7,1.4,7.9,1.1,8,2c0.3,1.8-2.5,1.1-3.3,1.3c0.7-0.2,1.9,2.4,2.7,1.4c0.4-0.5-0.1-1.9,0.6-2.3c1.5-0.9,1.6,3.5,0,4.5
c-0.9,0.6-0.8,0.6-1.5,0L-103.5,430.9z"/>
<path fill="#F0D0B3" d="M-157.6,411.9c-0.7,4.8-5.4,9.3-8.7,16.9c0,0-2.2,1.8-4.2,0.1c-1.4-1.2-0.1-4.5,0.3-5.3
c3.1-6.3,4.7-8.3,5.8-13.9C-159.5,405-157.4,410.5-157.6,411.9z"/>
<path fill="#F0D0B3" d="M-164.3,411.1c-1-2.4,7-23.3,7.3-23.5c1.5-1.2,3.9-2.1,5.5-2.1c1.5,1.6,1,7.4,0.6,8.3c-0.5,1.4-1,2.7-1.6,4
c-0.7-0.1-4.9,12.1-5.7,16C-162.7,418.8-163.8,412.4-164.3,411.1z"/>
<path fill="#F0D0B3" d="M-176.4,430.9c0.7-0.7-5.1,3.6-4.2,4.7c0.9,1.1,4.7-2.7,5.4-3.3c-0.7,0.5-4.5,3.2-3.6,4.2
c1.2,1.4,4.2-3.3,4.8-2.8c0.2,0.2-3.7,2.4-2.9,3.4c0.7,0.8,7-5,10.3-8.1c0.9-0.8,1-3.1-0.1-3.6c-1.3-0.6-3.2-0.8-4.9-0.1
c-3.6,1.4-7.6,1.1-7.7,1.9c-0.3,1.7,2.4,1,3.2,1.3c-0.7-0.2-1.8,2.3-2.6,1.4c-0.4-0.5,0.1-1.9-0.6-2.3c-1.4-0.8-1.5,3.4,0,4.3
c0.9,0.5,0.8,0.6,1.5,0L-176.4,430.9z"/>
<path fill="#F0D0B3" d="M-166.7,433.2c-0.1,3.3,1.9,5.3,3.4,6.7c2.7,2.5,6.6,0.9,9.3,1.3c2,0.3,1.9,2,5.3-1.1
c1.5-1.4,3.7-0.8,2.9-1.4c-1-1-2.5-1.9-2.6-2c0,0-1.6-0.8-2.2-1.3c-0.7-0.5-3.2-2.2-5.4-2.3C-158.2,433-166.6,431.9-166.7,433.2z"/>
<path fill="#F0D0B3" d="M-109.6,433.9c0.4,3.9-1.9,6.5-3.4,8.2c-2.9,3.2-7.8,1.6-11,2.4c-2.3,0.5-4,5.1-8.3,1.7
c-5-4,1.1-6.5,1.3-6.6c0,0,1.8-1.1,2.5-1.7c0.7-0.6,3.6-2.9,6.2-3.2C-119.6,434.4-109.7,432.4-109.6,433.9z"/>
<path fill="#5652A2" d="M-158.9,454.4c8.1-1.1,16.9-7.8,24-3.6c0.9,0.5,7.1-2.2,7.1-2.2c1.3-8.3,0.3-4.9-3.2-11.1
c-1-1.9-3-0.2-4.2,0.6c-4,2.4-9,2.7-13.5,3c-2.5,0.2-14.1,0.5-16.5-0.2c-3.4-1-8.8-0.6-13.4,2.4c-3.1,2.1,2.1,12.7,5.9,11.9
C-168.5,454.1-165,455.2-158.9,454.4z"/>
</svg>
