<svg version="1.1" xmlns="http://www.w3.org/2000/svg" xmlns:xlink="http://www.w3.org/1999/xlink" width="160px"
  height="160px" viewBox="0 0 160 160" >
  <path fill="#BA9653" d="M103.83781,119.93265l-21.0683-30.3584l-7.1914,4.4043l17.4746,32.5606
    c1.8222,2.9795,5.7187,3.917,8.6953,2.0918C104.72841,126.80575,105.66401,122.91215,103.83781,119.93265z"/>
  <ellipse transform="matrix(0.85278 -0.52227 0.52227 0.85278 -36.2763 54.86205)" fill="#BA9653" cx="79.17381" cy="91.77637" rx="4.21646" ry="2.10768"/>
  <path fill="#808184" d="M81.11711,86.87605c0.91209,1.4922,0.043,3.6855-1.94331,4.90141
    c-1.9844,1.2168-4.334,0.9961-5.24609-0.4952c-0.9121-1.4892-0.04301-3.6806,1.9433-4.8984
    C77.85741,85.16805,80.20701,85.38975,81.11711,86.87605z"/>
  <path fill="#808184" d="M48.34761,32.78325l-6.5586,4.0166c-10.9199,6.6895-12.377,24.1875-3.2559,39.0811
    c9.1231,14.8935,25.3711,21.541,36.293,14.8506l6.55659-4.0166c9.0899-5.3614,13.5293-21.1123,2.9922-38.9141
    C75.48041,32.76955,59.26951,26.09285,48.34761,32.78325z"/>
  <path fill="#A9DEF0" d="M47.47451,34.98245c-8.5859,7.2725-9.2363,22.7588-1.0742,36.0791
    c8.1602,13.3243,22.2481,19.7803,32.6289,15.4327c8.58601-7.2715,9.2383-22.7549,1.0762-36.0791
    C71.94521,37.09385,57.85341,30.63675,47.47451,34.98245z"/>
  <path fill="#FFFFFF" d="M53.91201,66.45905c3.7325,6.08791,10.8614,8.5098,7.8067,10.38181
    c-3.0547,1.8702-8.5567-1.5498-12.2832-7.6386c-3.7305-6.0879-4.2774-12.542-1.2246-14.4131
    C51.26361,52.91905,50.18551,60.36825,53.91201,66.45905z"/>
  <path fill="#FFFFFF" d="M53.32811,46.24025c1.0605,1.7295,0.3066,3.8291-0.5606,4.3604c-0.8691,0.5322-2.7168,0.0332-3.7773-1.6992
    c-1.0606-1.7305-0.9317-4.0371-0.0625-4.5674C49.79491,43.80085,52.26751,44.50785,53.32811,46.24025z"/>

</svg>
