<svg version="1.1" xmlns="http://www.w3.org/2000/svg" xmlns:xlink="http://www.w3.org/1999/xlink" width="160px"
  height="160px" viewBox="0 0 160 160" >
  <polygon fill="#D0D2D3" points="150.81747,89.37374 51.23337,89.37374 19.69477,113.90908 19.69477,123.8615 119.28073,123.8615
    150.81747,99.32611"/>
  <polygon fill="#A6A8AB" points="150.81747,89.37374 51.23337,89.37374 19.69477,113.90908 119.28073,113.90908"/>
  <rect x="53.93271" y="96.72855" fill="#B0CED9" width="54.21392" height="9.82658"/>
  <polygon fill="#B0CED9" points="124.23058,93.40097 108.14663,106.5015 108.14663,96.7286 120.33472,77.41325 123.9696,74.62514"/>
  <polygon fill="#C7E9F4" points="120.33472,77.41325 123.9696,74.62514 74.4917,74.62514 68.9256,77.32906 53.9327,96.7286
    108.30212,96.7286"/>
  <path fill="#B0CED9" d="M109.98927,83.7402c-1.86719,0-3.3291-0.93555-3.3291-2.12988v-1.78906
      c0-1.19629,1.46191-2.13281,3.3291-2.13281s3.3291,0.93652,3.3291,2.13281v1.78906
      C113.31837,82.80466,111.85646,83.7402,109.98927,83.7402z"/>
  <path fill="#FFFFFF" d="M109.98903,78.03146c1.64905,0,2.98621,0.80042,2.98621,1.78967v1.7887
      c0,0.98645-1.33716,1.78784-2.98621,1.78784c-1.6499,0-2.98608-0.80139-2.98608-1.78784v-1.7887
      C107.00294,78.83188,108.33913,78.03146,109.98903,78.03146 M109.98903,77.34506c-2.05933,0-3.67249,1.08765-3.67249,2.47607
      v1.7887c0,1.38745,1.61316,2.47424,3.67249,2.47424c2.05945,0,3.67261-1.08679,3.67261-2.47424v-1.7887
      C113.66164,78.43271,112.04848,77.34506,109.98903,77.34506L109.98903,77.34506z"/>
  <ellipse fill="#C7E9F4" cx="109.98901" cy="79.82117" rx="2.98617" ry="1.78875"/>
  <path fill="#B0CED9" d="M105.70412,91.38571c-1.86621,0-3.32812-0.93652-3.32812-2.13184v-1.78906
      c0-1.19531,1.46191-2.13086,3.32812-2.13086s3.32812,0.93555,3.32812,2.13086v1.78906
      C109.03224,90.44919,107.57033,91.38571,105.70412,91.38571z"/>
  <path fill="#FFFFFF" d="M105.70363,85.67685c1.64905,0,2.98621,0.80042,2.98621,1.78784v1.7887
      c0,0.98926-1.33716,1.78967-2.98621,1.78967s-2.98523-0.80042-2.98523-1.78967v-1.7887
      C102.7184,86.47726,104.05458,85.67685,105.70363,85.67685 M105.70363,84.99045c-2.05884,0-3.67163,1.08679-3.67163,2.47424
      v1.7887c0,1.38843,1.61279,2.47607,3.67163,2.47607c2.05945,0,3.67261-1.08765,3.67261-2.47607v-1.7887
      C109.37624,86.07724,107.76308,84.99045,105.70363,84.99045L105.70363,84.99045z"/>
  <ellipse fill="#C7E9F4" cx="105.7041" cy="87.46472" rx="2.98572" ry="1.78875"/>
  <polygon fill="#B0CED9" points="103.73909,80.71407 72.67613,80.71407 72.67613,79.12151 104.99298,79.12151"/>
  <polygon fill="#9EB8C0" points="72.67613,80.71407 71.42134,80.71407 72.67613,79.12151"/>
  <polygon fill="#B0CED9" points="101.94479,83.04137 70.88274,83.04137 70.88274,81.44698 103.19958,81.44698"/>
  <polygon fill="#9EB8C0" points="70.88274,83.04137 69.62889,83.04137 70.88274,81.44698"/>
  <polygon fill="#B0CED9" points="100.15234,85.36874 69.08939,85.36874 69.08939,83.77338 101.40623,83.77338"/>
  <polygon fill="#9EB8C0" points="69.08939,85.36874 67.83455,85.36874 69.08939,83.77338"/>
  <polygon fill="#B0CED9" points="98.35805,87.69604 67.29599,87.69604 67.29599,86.10069 99.61284,86.10069"/>
  <polygon fill="#9EB8C0" points="67.29599,87.69604 66.04211,87.69604 67.29599,86.10069"/>
  <polygon fill="#B0CED9" points="96.56465,90.02151 65.50265,90.02151 65.50265,88.42801 97.81949,88.42801"/>
  <polygon fill="#9EB8C0" points="65.50265,90.02151 64.24781,90.02151 65.50265,88.42801"/>
  <polygon fill="#B0CED9" points="94.7713,92.34698 63.70925,92.34698 63.70925,90.75437 96.02609,90.75437"/>
  <polygon fill="#9EB8C0" points="63.70925,92.34698 62.45536,92.34698 63.70925,90.75437"/>
  <path fill="none" stroke="#9EB8C0" stroke-width="2.74549" d="M26.70727,81.80231c0-23.12969,18.74992-41.87966,41.88056-41.87966
    c11.5653,0,22.03595,4.68703,29.61567,12.2668"/>
  <path fill="none" stroke="#9EB8C0" stroke-width="2.74549" d="M37.43789,81.80231c0-17.34707,14.06384-31.40906,31.41181-31.40906
    c8.60874,0,16.40782,3.46275,22.08218,9.0696"/>
  <path fill="none" stroke="#9EB8C0" stroke-width="2.74549" d="M47.64753,81.80417c0-11.5653,9.37591-20.94026,20.9412-20.94026
    c5.78268,0,11.01755,2.34394,14.80694,6.13152"/>

</svg>
