<svg version="1.1" xmlns="http://www.w3.org/2000/svg" xmlns:xlink="http://www.w3.org/1999/xlink" width="160px"
  height="160px" viewBox="0 0 160 160" >
  <path fill="#86AE61" d="M136.85522,62.09058c2.51961,9.47355,2.04492,13.09425,0.38832,13.53352
    c-1.65517,0.4407-3.86595-2.46576-6.38409-11.94061c-2.52106-9.47485-2.05916-17.82174-1.56592-17.95205
    C129.78807,45.60112,134.33417,52.61572,136.85522,62.09058z"/>
  <path fill="#86AE61" d="M123.71148,75.17627c9.61227-1.92724,13.19613-1.23142,13.53207,0.44782
    c0.33868,1.68069-2.69969,3.70719-12.31196,5.63444c-9.61227,1.93015-17.91374,0.95513-18.01445,0.45348
    C106.81657,81.21035,114.09921,77.10641,123.71148,75.17627z"/>
  <path fill="#86AE61" d="M113.60596,49.45284c0.02844,7.99529-1.094,10.75301-2.49129,10.75867s-2.53947-2.74641-2.56777-10.74038
    c-0.02699-7.99529,2.06336-14.48429,2.47998-14.48429C111.44351,34.98393,113.57767,41.45742,113.60596,49.45284z"/>
  <path fill="#86AE61" d="M103.79678,51.94269c6.52863,4.61415,8.12428,7.12809,7.31789,8.26882
    c-0.80494,1.14073-3.70995,0.47612-10.23727-4.13789c-6.53008-4.61415-10.60426-10.08142-10.36338-10.42157
    C90.75636,45.3119,97.26669,47.32709,103.79678,51.94269z"/>
  <path fill="#86AE61" d="M88.70155,64.83422c2.20499-7.68503,4.053-10.01902,5.39646-9.6336
    c1.34331,0.38397,1.67213,3.34441-0.53286,11.02945c-2.20644,7.68503-6.02567,13.33224-6.4253,13.21746
    C86.74021,79.33128,86.49657,72.51781,88.70155,64.83422z"/>
  <path fill="#86AE61" d="M60.20053,43.81826c7.21167,3.44933,9.20842,5.65998,8.60476,6.91985s-3.57544,1.09401-10.78711-2.35663
    c-7.21312-3.44933-12.14899-8.15128-11.96905-8.52683C46.22776,39.4791,52.9874,40.36907,60.20053,43.81826z"/>
  <path fill="#86AE61" d="M62.44528,58.18225c2.20499-7.68503,4.05285-10.01902,5.39631-9.63361
    c1.34345,0.38411,1.67228,3.34442-0.53286,11.02945c-2.20644,7.68503-6.02407,13.33224-6.42516,13.21746
    C60.48393,72.67931,60.24014,65.86583,62.44528,58.18225z"/>
  <path fill="#86AE61" d="M40.65847,50.80471c4.75013,2.27015,6.06528,3.72708,5.6684,4.55742
    c-0.39674,0.83048-2.35518,0.71991-7.10676-1.55169c-4.75157-2.27304-8.00253-5.36946-7.8834-5.61746
    C31.45571,47.94498,35.9069,48.53167,40.65847,50.80471z"/>
  <path fill="#86AE61" d="M18.96236,59.37261c3.06101,1.46535,3.90847,2.40336,3.65191,2.93912
    c-0.25511,0.53416-1.51773,0.46334-4.58005-1.00055c-3.06246-1.46521-5.15688-3.46196-5.0804-3.62216
    C13.0303,57.53041,15.89859,57.90871,18.96236,59.37261z"/>
  <path fill="#86AE61" d="M19.82114,66.62826c0.70438-1.48799,1.15916-1.9004,1.41862-1.77705
    c0.25932,0.12465,0.22812,0.73689-0.47757,2.22487c-0.70583,1.48798-1.66938,2.50828-1.74745,2.47141
    C18.93682,69.51063,19.11547,68.11769,19.82114,66.62826z"/>
  <path fill="#86AE61" d="M40.57621,58.86805c3.3444-4.06853,5.07197-4.99667,5.78331-4.41288
    c0.71004,0.58393,0.13466,2.4601-3.20699,6.52863c-3.34427,4.06868-7.13084,6.48626-7.34068,6.31052
    C35.5994,67.12004,37.23468,62.93803,40.57621,58.86805z"/>
  <path fill="#86AE61" d="M144.93002,79.44897c-3.20845-0.01277-6.90999-0.62225-10.6951-3.12907
    c-3.77237-2.54935-15.23539-10.20187-26.68858-15.2042c-11.42764-5.15412-22.70217-7.11401-22.6852-7.06583
    c0.04252,0.01132-11.20647-2.38638-23.66021-1.26828c-12.46911,0.85733-25.40316,5.75488-29.49868,7.54891
    c-5.94339,2.57924-9.84605,4.38182-14.1485,6.76821c-1.24275,0.68871-1.66938,0.14453-0.58379-0.78506
    c3.80355-3.25793,7.62974-5.64867,13.73188-8.32701c4.21727-1.86485,17.40077-6.86732,30.28664-7.7573
    c12.83334-1.14784,24.38287,1.32924,24.33891,1.31791c-0.01842-0.05238,11.5623,1.95569,23.2478,7.22169
    c11.73513,5.12277,23.29176,12.85598,27.07544,15.43231c0.61513,0.41096,1.22156,0.76954,1.82248,1.08559
    c2.63017,1.38306,5.12988,1.94146,7.58011,2.29713L144.93002,79.44897z"/>
  <path fill="#606627" d="M93.85989,56.48734c2.83985,0.8389,4.93296,3.80355,4.93296,8.33833
    c0,5.41199-2.97728,8.38361-6.65052,8.38361c-3.67179,0-6.64907-2.97162-6.64907-8.38361
    c0-4.55175,2.10719-7.52207,4.96416-8.34964c0.53851-0.1544,1.10387,0.469,1.68491,0.469
    C92.73758,56.94502,93.31281,56.32437,93.85989,56.48734z"/>
  <path fill="#858333" d="M131.49286,82.95911c3.05666-0.7794,6.58682,0.79362,9.05679,4.94574
    c2.94621,4.94994,1.8409,9.29056-1.5192,11.29152c-3.35994,2.00111-7.70201,0.9042-10.65099-4.0501
    c-2.47853-4.16489-2.16828-8.02938-0.0042-10.34205c0.40659-0.4365,1.26393-0.17297,1.79677-0.49033
    C130.71622,83.98941,130.90327,83.10785,131.49286,82.95911z"/>
  <path fill="#86AE61" d="M83.1195,56.39098c7.53905-2.66137,10.51357-2.50827,10.97852-1.19036
    c0.4648,1.31646-1.75442,3.3019-9.29491,5.96181c-7.5405,2.65992-14.35397,2.82578-14.49285,2.43311
    C70.17137,63.20171,75.58045,59.05235,83.1195,56.39098z"/>
  <path fill="none" stroke="#86AE61" stroke-width="1.30597" d="M130.17204,84.31388
    c1.03175,2.98729-2.53947-8.34965,4.06288-7.99397"/>
  <path fill="#86AE61" d="M33.84354,78.1608c-5.58916,4.57018-6.86731,6.93668-6.06804,7.91315
    c0.79914,0.97778,3.37273,0.19416,8.96173-4.37747c5.59207-4.57163,8.9137-9.7555,8.67572-10.04601
    C45.17483,71.35995,39.43546,73.58917,33.84354,78.1608z"/>
  <path fill="#86AE61" d="M36.05143,91.64179c-4.90888-5.29575-7.34924-6.42516-8.27593-5.56784
    c-0.92684,0.85878,0.01553,3.37837,4.92441,8.67413c4.90742,5.29575,10.2869,8.29436,10.56174,8.03794
    C43.53809,102.52946,40.96031,96.93899,36.05143,91.64179z"/>
  <path fill="#86AE61" d="M47.99059,94.24642c0.58393-5.8598,1.61409-7.79561,2.64018-7.69345
    c1.02174,0.10056,1.65095,2.20499,1.06992,8.06334c-0.58393,5.8598-2.60753,10.45553-2.91227,10.42578
    C48.48383,105.01234,47.40825,100.10912,47.99059,94.24642z"/>
  <path fill="#86AE61" d="M55.36667,93.16228c-4.43407-3.87146-5.41473-5.83556-4.7359-6.60931
    c0.67303-0.77374,2.75192-0.06805,7.18613,3.80486c4.43552,3.87451,7.00911,8.18668,6.80782,8.41625
    C64.4207,99.00655,59.80088,97.0368,55.36667,93.16228z"/>
  <path fill="#86AE61" d="M87.49844,100.29893c-5.79321-1.05003-7.93871-0.58945-8.12154,0.42228
    c-0.1827,1.01332,1.66226,2.19512,7.45837,3.24385c5.79449,1.05004,10.77012,0.3712,10.82397,0.06806
    C97.71439,103.73259,93.29438,101.34897,87.49844,100.29893z"/>
  <path fill="#86AE61" d="M96.15557,112.8985c-3.81342-0.69437-5.22769-0.39108-5.34959,0.27775
    c-0.12045,0.66606,1.09691,1.44416,4.9131,2.13562c3.81921,0.69306,7.09412,0.24524,7.12952,0.04543
    C102.88547,115.15747,99.97479,113.58865,96.15557,112.8985z"/>
  <path fill="#86AE61" d="M105.41928,127.36871c-2.4601-0.44361-3.36981-0.25076-3.44919,0.17994
    c-0.07662,0.43084,0.70715,0.93104,3.16578,1.37756c2.46301,0.44492,4.57439,0.15585,4.59718,0.02831
    C109.75568,128.82695,107.87938,127.81508,105.41928,127.36871z"/>
  <path fill="#86AE61" d="M92.72902,117.74788c-0.24234-3.87147-0.87429-5.16965-1.55169-5.12858
    c-0.67463,0.04252-1.13941,1.41006-0.89853,5.28167c0.24234,3.87161,1.46243,6.94815,1.66225,6.93393
    C92.14378,124.82213,92.9699,121.61949,92.72902,117.74788z"/>
  <path fill="#86AE61" d="M21.53724,85.04366c1.92158,1.37611,4.3959,2.60898,7.73612,2.7435
    c3.35282,0.10347,13.49795,0.47757,22.49394,2.4276c9.04676,1.84786,16.62268,5.53954,16.59291,5.56362
    c-0.02974-0.01422,7.72189,3.40392,14.67715,9.4422c7.077,5.8881,12.68881,14.38939,14.36109,17.22649
    c2.43747,4.10394,3.9906,6.86311,5.52953,10.14368c0.44637,0.94672,0.93539,0.80495,0.68871-0.21811
    c-0.8672-3.5853-2.12286-6.66328-4.61125-10.89202c-1.71465-2.93346-7.42992-11.60627-14.74085-17.69418
    c-7.16783-6.21678-15.13483-9.71719-15.10364-9.70573c0.03396-0.02279-7.74598-3.81632-16.99692-5.71107
    c-9.21699-2.00096-19.45281-2.36374-22.82131-2.45719c-0.54548-0.01988-1.06281-0.06806-1.5588-0.13902
    c-2.16537-0.30749-3.89846-1.05148-5.51675-1.89604L21.53724,85.04366z"/>
  <path fill="#606627" d="M73.3656,100.91261c-1.31226-0.46059-2.92214,0.09345-4.16634,1.81957
    c-1.48668,2.05755-1.17062,4.00468,0.22666,5.01379c1.39584,1.00896,3.34442,0.69436,4.82951-1.36334
    c1.24999-1.73177,1.26552-3.43932,0.40674-4.54044c-0.16295-0.20692-0.54838-0.12465-0.76952-0.2834
    C73.66598,101.39439,73.61781,101.00185,73.3656,100.91261z"/>
  <path fill="#606627" d="M26.62751,92.3688c2.30715-0.27209,4.73184,1.22011,6.13189,4.48936
    c1.66938,3.90281,0.44362,6.96367-2.20644,8.09744c-2.6457,1.13652-5.71091-0.0878-7.3832-3.99206
    c-1.40295-3.28056-0.80204-6.07224,1.002-7.55037c0.33869-0.27919,0.93946-0.0029,1.36043-0.18284
    C25.96159,93.04474,26.1826,92.41974,26.62751,92.3688z"/>
  <path fill="#86AE61" d="M70.85152,91.46461c-5.72512,1.38031-7.89051,1.04452-8.13285,0.04542
    c-0.24089-1.00055,1.53485-2.28727,7.25999-3.66758c5.72659-1.38017,10.73037-0.98634,10.80264-0.69016
    C80.85356,87.45282,76.57665,90.08443,70.85152,91.46461z"/>
  <path fill="none" stroke="#86AE61" stroke-width="0.96193" d="M25.5322,93.23034c0.46335,2.28161-1.04307-6.34303,3.74262-5.44318"/>
  <path fill="none" stroke="#86AE61" stroke-width="0.96193" d="M73.73679,100.91958c-0.35422,2.29858,0.74545-6.3854-3.99335-5.2631"/>

</svg>
