<svg version="1.1" xmlns="http://www.w3.org/2000/svg" xmlns:xlink="http://www.w3.org/1999/xlink" width="160px"
  height="160px" viewBox="0 0 160 160" >
  <polygon fill="#FFC40C" points="117.76337,29.97788 121.95215,38.59383 89.63907,100.17436 85.45026,91.55855"/>
  <rect x="87.12729" y="22.4284" transform="matrix(-0.88551 -0.46462 0.46462 -0.88551 152.18227 151.9008)" fill="#FFDA3A" width="15.35871" height="69.54362"/>
  <polygon fill="#FFF241" points="94.72182,24.3068 104.16433,22.84188 71.85399,84.42241 62.41011,85.88871"/>
  <path fill="#A6A8AB" d="M77.12523,124.02524l12.51384-23.85088c2.43031-4.63301-1.69381-11.58743-9.21366-15.53107
    c-7.51723-3.94502-15.58375-3.38897-18.01529,1.24542l-12.51246,23.84674L77.12523,124.02524z"/>
  <path fill="#808284" d="M49.89766,109.73545c2.43032-4.63177,10.49547-5.19183,18.01532-1.2468
    c7.51984,3.9464,11.64259,10.90082,9.21226,15.53659c-2.43295,4.6304-10.49684,5.18907-18.01669,1.24405
    C51.5887,121.32565,47.46595,114.36985,49.89766,109.73545z"/>
  <path fill="#F399C0" d="M68.32094,138.20045l6.66351-12.69816c2.24047-4.26958-1.56061-10.67594-8.48924-14.31129
    c-6.92478-3.63673-14.35983-3.12246-16.59892,1.14712l-6.66212,12.69554L68.32094,138.20045z"/>
  <path fill="#CC80A3" d="M43.23415,125.03366c2.23771-4.26544,9.67276-4.77985,16.5974-1.14574
    c6.92877,3.63535,10.73111,10.04296,8.48938,14.31254c-2.24047,4.2682-9.6729,4.78261-16.5989,1.14713
    C44.79324,135.71222,40.99092,129.30461,43.23415,125.03366z"/>
  <path fill="#808284" d="M58.11901,100.33195c0.58831-1.12561,1.68966-1.7113,2.45323-1.31009
    c0.76339,0.39984,0.90334,1.63865,0.31627,2.76426c-0.59107,1.12561-1.69104,1.7113-2.45583,1.31271
    C57.66788,102.69762,57.5252,101.45895,58.11901,100.33195z"/>
  <path fill="#808284" d="M63.79684,88.14669c0.58983-1.12836,1.6898-1.7153,2.45321-1.31146
    c0.76342,0.39722,0.90612,1.63726,0.31505,2.76288c-0.59107,1.12561-1.68978,1.7113-2.45321,1.31146
    C63.34586,90.50835,63.20578,89.27093,63.79684,88.14669z"/>
  <path fill="#808284" d="M80.18978,111.9154c0.59107-1.12699,0.44837-2.3658-0.3138-2.76426
    c-0.76479-0.40121-1.86338,0.1831-2.45445,1.31133c-0.59121,1.12575-0.44975,2.36442,0.31505,2.76563
    C78.50398,113.62932,79.59871,113.03963,80.18978,111.9154z"/>
  <path fill="#808284" d="M86.99325,100.31707c0.58981-1.12562,0.45111-2.36429-0.31644-2.76412
    c-0.76203-0.39998-1.86198,0.18448-2.45307,1.31271c-0.58983,1.12561-0.44837,2.36304,0.31504,2.76288
    C85.30219,102.02975,86.40353,101.44282,86.99325,100.31707z"/>

</svg>
