<svg version="1.1" xmlns="http://www.w3.org/2000/svg" xmlns:xlink="http://www.w3.org/1999/xlink"
 width="160px" height="160px" viewBox="-219 321 160 160">
<ellipse fill="#4D4D62" cx="-135.3" cy="402.2" rx="60.1" ry="60.3"/>
<path fill="#F0EAD6" d="M-129.1,415.1c-5.1,0-10-1.1-14.7-3.4l-2.6-1.2l2.8-0.4c14.6-1.8,25.6-14.3,25.6-29c0-14.7-11-27.2-25.6-29
l-2.8-0.4l2.6-1.2c4.6-2.2,9.6-3.4,14.7-3.4c18.7,0,34,15.2,34,34C-95.1,399.8-110.4,415.1-129.1,415.1z"/>
<polygon fill="#D9BC7B" points="-191.3,370.6 -196.3,365.8 -189.4,364.8 -186.4,358.6 -183.3,364.8 -176.5,365.8 -181.4,370.6
-180.3,377.4 -186.4,374.2 -192.5,377.4 "/>
<polygon fill="#D9BC7B" points="-165.3,428.3 -171.4,422.3 -163,421.1 -159.3,413.5 -155.5,421.1 -147.1,422.3 -153.2,428.3
-151.8,436.6 -159.3,432.7 -166.8,436.6 "/>
<polygon fill="#D9BC7B" points="-123.8,430.5 -127.6,426.9 -122.4,426.1 -120.1,421.4 -117.7,426.1 -112.5,426.9 -116.3,430.5
-115.4,435.7 -120.1,433.3 -124.7,435.7 "/>
<polygon fill="#D9BC7B" points="-99,419.7 -101.9,421.2 -101.3,418 -103.6,415.7 -100.4,415.3 -99,412.3 -97.5,415.3 -94.3,415.7
-96.6,418 -96.1,421.2 "/>
</svg>
