<svg version="1.1" xmlns="http://www.w3.org/2000/svg" xmlns:xlink="http://www.w3.org/1999/xlink" width="160px"
  height="160px" viewBox="0 0 160 160" >
  <path fill="#A6A8AB" d="M49.53873,28.7295c-0.74791,0.77353-0.84212,1.73053,0.05785,2.59276
    c0.89984,0.86279,67.79107,63.96101,68.00359,64.119c1.75133,1.34238,10.19173,8.66105,10.36803,8.47813l0.008-0.00813
    c0.16679-0.1741-7.9064-8.81697-9.03625-10.09352l0,0c-0.3511-0.40894-66.06412-64.39075-66.81602-65.11043
    C51.37339,27.9871,50.28527,27.95611,49.53873,28.7295z"/>
  <path fill="#A6A8AB" d="M51.11238,30.34102c2.10104-2.18451,3.50541-4.28693,3.10859-4.6675
    c-0.26225-0.2522-0.92408-0.44585-1.15272-0.44117c-0.45205,0.02617-3.4999-0.39489-5.48539,1.66524l-0.02686,0.02892
    c-2.07143,2.16082-1.41772,5.19269-1.36525,5.61844l0,0c0.06047,0.41225,0.20853,0.82918,0.4223,1.03303
    C47.02062,33.96806,49.01011,32.52471,51.11238,30.34102z"/>
  <path fill="#A6A8AB" d="M113.88912,15.81264c0.74654,0.7734,0.40757,1.64238-0.31073,2.33244
    c-0.7183,0.68937-67.53957,64.22119-67.75085,64.38c-1.75256,1.3417-10.19172,8.66036-10.36927,8.47745l-0.00675-0.00813
    c-0.1668-0.17424,7.90652-8.81711,9.03638-10.09352l0,0c0.35109-0.40894,66.46754-64.27243,67.06754-64.84818
    C112.15529,15.47643,113.14259,15.03994,113.88912,15.81264z"/>
  <path fill="#A6A8AB" d="M112.31396,17.42403c-2.09829-2.18368-3.50526-4.28679-3.10708-4.66736
    c0.26225-0.25165,0.92271-0.44599,1.15273-0.44062c0.4519,0.02631,3.49852-0.39475,5.48386,1.66455l0.02824,0.02892
    c2.07157,2.16096,1.41911,5.19269,1.36539,5.61844l0,0c-0.0606,0.41225-0.20991,0.82932-0.42244,1.03303
    C116.4071,21.05175,114.41776,19.60785,112.31396,17.42403z"/>
  <path fill="#E3BB3D" d="M92.81286,74.52105l-45.26085,45.25961c-0.32147,0.32011-0.84074,0.32011-1.15947-0.00069
    c-0.32148-0.32079-0.32148-0.83992,0-1.16071l45.25824-45.25892c0.32009-0.32024,0.83936-0.32024,1.16208,0
    C93.13172,73.68113,93.13172,74.20095,92.81286,74.52105L92.81286,74.52105z"/>
  <path fill="#E3BB3D" d="M95.90657,77.61546L50.6471,122.87506c-0.32023,0.3201-0.83937,0.3201-1.15947,0
    c-0.32148-0.32079-0.32148-0.84075,0-1.16085l45.25685-45.25892c0.3201-0.32079,0.84061-0.32079,1.16209,0
    C96.22681,76.77553,96.22681,77.29604,95.90657,77.61546L95.90657,77.61546z"/>
  <path fill="#E3BB3D" d="M99.00029,80.71054l-45.25961,45.25893c-0.3201,0.3201-0.83923,0.32079-1.15934,0
    c-0.32024-0.32011-0.32024-0.84007,0-1.16085L97.84081,79.5497c0.32011-0.32011,0.83937-0.32011,1.15948,0
    C99.32176,79.87118,99.32176,80.38976,99.00029,80.71054L99.00029,80.71054z"/>
  <path fill="#E3BB3D" d="M102.09539,83.80495l-45.25962,45.25948c-0.32148,0.32024-0.83937,0.32024-1.16085,0
    c-0.3201-0.3208-0.3201-0.83992,0-1.16071l45.26098-45.25892c0.32148-0.32011,0.838-0.32079,1.15948,0
    C102.41685,82.96489,102.41685,83.48485,102.09539,83.80495L102.09539,83.80495z"/>
  <path fill="#E3BB3D" d="M105.18909,86.89935l-45.25823,45.25877c-0.3201,0.32094-0.83937,0.32149-1.15947,0
    c-0.32148-0.3201-0.32148-0.83923,0-1.15947l45.25685-45.25947c0.3201-0.32079,0.84075-0.32079,1.16085,0
    C105.51057,86.05998,105.51057,86.57911,105.18909,86.89935L105.18909,86.89935z"/>
  <path fill="#E3BB3D" d="M108.28419,89.99431l-45.25961,45.25891c-0.31886,0.3201-0.83799,0.3201-1.15947,0
    c-0.32011-0.3201-0.32011-0.84006,0-1.16016l45.25961-45.25947c0.3201-0.32024,0.83923-0.32024,1.15947,0
    C108.60429,89.15438,108.60429,89.6742,108.28419,89.99431L108.28419,89.99431z"/>
  <path fill="#E3BB3D" d="M111.37914,93.08871l-45.25823,45.25961c-0.3201,0.3201-0.84199,0.3208-1.16209,0
    c-0.32011-0.32079-0.32011-0.84074,0-1.16084l45.26084-45.25892c0.31886-0.32011,0.838-0.32011,1.15948,0
    C111.70061,92.24865,111.70061,92.76861,111.37914,93.08871L111.37914,93.08871z"/>
  <path fill="#E3BB3D" d="M114.47285,96.18311l-45.25823,45.25961c-0.3201,0.3201-0.83937,0.32079-1.15947,0
    c-0.32148-0.32024-0.32148-0.84006,0-1.16016L113.312,95.02295c0.32286-0.3201,0.84075-0.3201,1.16085,0
    C114.79433,95.34374,114.79433,95.8637,114.47285,96.18311L114.47285,96.18311z"/>
  <path fill="#E3BB3D" d="M117.56795,99.27821L72.3111,144.53767c-0.32287,0.32024-0.84076,0.32024-1.16224,0
    c-0.3201-0.32147-0.3201-0.83992,0-1.16071l45.25961-45.25961c0.32011-0.3201,0.83938-0.3201,1.15947,0
    C117.88805,98.43884,117.88805,98.95728,117.56795,99.27821L117.56795,99.27821z"/>
  <path fill="#E3BB3D" d="M120.66428,102.37247l-45.25947,45.25893c-0.32024,0.32079-0.84212,0.32079-1.16222,0
    c-0.32011-0.3201-0.32011-0.83992,0-1.16017l45.25961-45.25877c0.32148-0.32093,0.842-0.32093,1.16209,0
    C120.98314,101.53255,120.98314,102.05237,120.66428,102.37247L120.66428,102.37247z"/>
  <path fill="#E28257" d="M105.28055,118.23249l-43.6186-54.55893c-0.32148-0.3201-0.32148-0.83992-0.00138-1.16071
    c0.32024-0.3201,0.84212-0.3201,1.16222,0.00069l43.61861,54.55949c0.3201,0.3201,0.3201,0.83937,0,1.15947
    C106.12116,118.55328,105.59927,118.55397,105.28055,118.23249L105.28055,118.23249z"/>
  <path fill="#E28257" d="M102.18546,121.32758L58.56699,77.70966c-0.32023-0.3201-0.32023-0.84006,0-1.16085
    c0.3201-0.3201,0.83923-0.3201,1.15947,0l43.61847,43.61861c0.32285,0.32011,0.3201,0.83993,0,1.16016
    C103.02483,121.64768,102.50556,121.64838,102.18546,121.32758L102.18546,121.32758z"/>
  <path fill="#E28257" d="M99.08913,124.42254L55.4719,80.80462c-0.31886-0.32079-0.31886-0.84061-0.00138-1.16071
    c0.3201-0.32079,0.84199-0.32079,1.16347,0l43.61585,43.61792c0.32148,0.32079,0.32024,0.83992,0,1.16071
    C99.93111,124.74277,99.40923,124.74277,99.08913,124.42254L99.08913,124.42254z"/>
  <path fill="#E28257" d="M95.99541,127.51625L52.37819,83.89833c-0.32148-0.3201-0.32148-0.83992-0.00138-1.16002
    c0.32148-0.32024,0.84199-0.32024,1.16222,0.00055l43.61585,43.61792c0.32148,0.3201,0.32148,0.84006,0,1.15947
    C96.83479,127.83704,96.31551,127.83773,95.99541,127.51625L95.99541,127.51625z"/>
  <path fill="#E28257" d="M92.9017,130.61203l-43.6186-43.61791c-0.3201-0.32148-0.3201-0.84061,0-1.16154
    c0.3201-0.3201,0.83937-0.3201,1.15948,0.00069l43.61861,43.61792c0.32009,0.3201,0.32009,0.84074,0,1.16084
    C93.74107,130.93144,93.2218,130.93144,92.9017,130.61203L92.9017,130.61203z"/>
  <path fill="#E28257" d="M89.80523,133.70644L46.18676,90.08852c-0.31886-0.32079-0.31886-0.84074,0-1.16154
    c0.32272-0.31941,0.84061-0.31941,1.16209,0.00069l43.61723,43.61793c0.3201,0.32079,0.3201,0.84006,0,1.16084
    C90.64598,134.02654,90.12547,134.02722,89.80523,133.70644L89.80523,133.70644z"/>
  <path fill="#E28257" d="M86.71152,136.8007L43.09304,93.18292c-0.3201-0.32024-0.3201-0.84006,0-1.16016
    c0.32148-0.32148,0.84199-0.32148,1.16209,0l43.61585,43.61793c0.32148,0.3201,0.32148,0.83992,0,1.16002
    C87.55089,137.12163,87.033,137.12163,86.71152,136.8007L86.71152,136.8007z"/>
  <path fill="#E28257" d="M83.61794,139.8958L39.99934,96.27788c-0.32011-0.32148-0.32011-0.84061,0-1.1614
    c0.3201-0.32011,0.83937-0.32011,1.15947,0.00069l43.61861,43.61777c0.3201,0.32094,0.3201,0.84006,0,1.16086
    C84.45593,140.2159,83.93804,140.2159,83.61794,139.8958L83.61794,139.8958z"/>
  <path fill="#E28257" d="M80.52147,142.9902L36.90286,99.37159c-0.3201-0.3201-0.3201-0.83992,0-1.16016
    c0.32286-0.3201,0.84075-0.3201,1.16085,0l43.61861,43.61861c0.3201,0.3201,0.3201,0.84006,0,1.16017
    C81.36221,143.3103,80.84432,143.3103,80.52147,142.9902L80.52147,142.9902z"/>
  <path fill="#E28257" d="M77.42638,146.08459l-43.61585-43.61791c-0.32148-0.3201-0.32148-0.84075,0-1.16085
    c0.31886-0.3201,0.84075-0.3201,1.16085,0.00069l43.61585,43.61792c0.32149,0.32079,0.32149,0.84006,0,1.16016
    C78.26713,146.4054,77.74786,146.4054,77.42638,146.08459L77.42638,146.08459z"/>
  <path fill="#E3BB3D" d="M96.7352,67.50307l-50.73011,50.72942c-0.3201,0.32079-0.8406,0.32148-1.16071,0
    c-0.32024-0.3201-0.32024-0.84006,0-1.16016L95.57573,66.3429c0.31873-0.32079,0.83938-0.32079,1.15947,0
    C97.0553,66.66315,97.0553,67.18296,96.7352,67.50307L96.7352,67.50307z"/>
  <path fill="#E3BB3D" d="M94.35979,76.06798l-45.25961,45.25961c-0.3201,0.3201-0.83936,0.3201-1.15947,0
    c-0.32285-0.32024-0.32285-0.84006,0-1.16016l45.25824-45.25961c0.31886-0.3201,0.84074-0.3201,1.16084,0
    C94.67989,75.22861,94.67989,75.74787,94.35979,76.06798L94.35979,76.06798z"/>
  <path fill="#E3BB3D" d="M97.45488,79.16307l-45.26099,45.25947c-0.3201,0.32024-0.83937,0.32024-1.16085,0
    c-0.3201-0.32148-0.3201-0.83992,0-1.16071l45.25961-45.25892c0.31873-0.32024,0.84075-0.32079,1.16223,0
    C97.77498,78.32301,97.7736,78.84214,97.45488,79.16307L97.45488,79.16307z"/>
  <path fill="#E3BB3D" d="M100.54722,82.25733l-45.25824,45.25892c-0.32024,0.32079-0.84075,0.32079-1.16085,0
    c-0.3201-0.3201-0.3201-0.83992,0-1.16016l45.25961-45.25878c0.3201-0.32093,0.83923-0.32093,1.15948,0
    C100.86993,81.41741,100.86993,81.93723,100.54722,82.25733L100.54722,82.25733z"/>
  <path fill="#E3BB3D" d="M103.64355,85.35242l-45.25962,45.25961c-0.3201,0.31941-0.83923,0.31941-1.15947,0
    c-0.32272-0.32079-0.32272-0.84074,0-1.16153l45.25823-45.25893c0.32024-0.3201,0.84074-0.3201,1.16086,0
    C103.96365,84.51237,103.96365,85.03163,103.64355,85.35242L103.64355,85.35242z"/>
  <path fill="#E3BB3D" d="M106.73726,88.44614l-45.25961,45.2603c-0.3201,0.3201-0.83923,0.3201-1.16071,0
    c-0.32024-0.32079-0.32024-0.84074,0-1.16084l45.26084-45.25893c0.3201-0.3201,0.83937-0.3201,1.15947,0
    C107.05874,87.60677,107.05874,88.12672,106.73726,88.44614L106.73726,88.44614z"/>
  <path fill="#E3BB3D" d="M109.83097,91.54192L64.57275,136.8007c-0.32011,0.32092-0.84061,0.32092-1.16084,0
    c-0.32011-0.32079-0.32011-0.83992,0-1.16002l45.2596-45.25893c0.3201-0.32079,0.83937-0.32148,1.15947,0
    C110.15108,90.70117,110.15108,91.22168,109.83097,91.54192L109.83097,91.54192z"/>
  <path fill="#E3BB3D" d="M112.92744,94.63618L67.66784,139.8958c-0.32011,0.3201-0.83937,0.3201-1.16223-0.00069
    c-0.3201-0.32011-0.31734-0.83992,0-1.16072l45.26099-45.25892c0.3201-0.32024,0.84061-0.32024,1.16085,0
    C113.24754,93.79695,113.24754,94.3154,112.92744,94.63618L112.92744,94.63618z"/>
  <path fill="#E3BB3D" d="M116.02102,97.73059L70.76156,142.9902c-0.32024,0.3201-0.83938,0.3201-1.16086,0
    c-0.31873-0.3208-0.31873-0.84076,0-1.16086l45.26085-45.25892c0.32024-0.32079,0.83937-0.32079,1.15947,0
    C116.34126,96.89067,116.34126,97.41118,116.02102,97.73059L116.02102,97.73059z"/>
  <path fill="#E3BB3D" d="M119.11611,100.82568l-45.2596,45.25891c-0.32011,0.3208-0.84062,0.3208-1.16072,0
    c-0.32024-0.3201-0.32024-0.84006,0-1.16016l45.25947-45.25892c0.32024-0.32079,0.83938-0.32079,1.16085,0
    C119.43759,99.98562,119.43497,100.50558,119.11611,100.82568L119.11611,100.82568z"/>
  <path fill="#E28257" d="M103.73238,119.78065L60.11378,76.16273c-0.32148-0.32147-0.32148-0.84061,0-1.1614
    c0.3201-0.32024,0.83937-0.32024,1.16223,0l43.61709,43.61792c0.31886,0.32134,0.31886,0.83992,0,1.1614
    C104.57162,120.10076,104.05249,120.10076,103.73238,119.78065L103.73238,119.78065z"/>
  <path fill="#E28257" d="M100.63729,122.87506L57.02007,79.25645c-0.3201-0.32011-0.3201-0.83992,0-1.16016
    c0.31886-0.32079,0.83937-0.32079,1.15947,0.00069l43.61861,43.61791c0.3201,0.32011,0.3201,0.84007,0,1.16016
    S100.9574,123.19585,100.63729,122.87506L100.63729,122.87506z"/>
  <path fill="#E28257" d="M97.5422,125.96947L53.92635,82.35155c-0.32148-0.32011-0.32148-0.84007-0.00262-1.16085
    c0.3201-0.3201,0.84061-0.3201,1.16071,0l43.61723,43.61792c0.32285,0.32148,0.32285,0.84074,0,1.16085
    C98.38295,126.28957,97.86244,126.29025,97.5422,125.96947L97.5422,125.96947z"/>
  <path fill="#E28257" d="M94.44725,129.06442L50.82864,85.44664c-0.3201-0.32079-0.3201-0.84144,0-1.16085
    c0.32148-0.32011,0.84061-0.32011,1.16348,0l43.61585,43.61792c0.32024,0.32079,0.32024,0.83991,0,1.16071
    C95.28786,129.38466,94.76872,129.38466,94.44725,129.06442L94.44725,129.06442z"/>
  <path fill="#E28257" d="M91.35353,132.15883L47.73493,88.5409c-0.32148-0.32079-0.32148-0.84061,0-1.16071
    c0.32148-0.32079,0.84061-0.32079,1.16085,0l43.61846,43.61847c0.32148,0.32024,0.32024,0.83937-0.00261,1.16017
    C92.19415,132.47961,91.67501,132.47961,91.35353,132.15883L91.35353,132.15883z"/>
  <path fill="#E28257" d="M88.25844,135.25322l-43.6186-43.61791c-0.3201-0.32079-0.3201-0.83992,0-1.16071
    c0.3201-0.31955,0.84075-0.31955,1.16222,0l43.61847,43.61847c0.32024,0.32079,0.32024,0.84006,0,1.16016
    C89.09905,135.57332,88.57854,135.57402,88.25844,135.25322L88.25844,135.25322z"/>
  <path fill="#E28257" d="M85.16335,138.34831L41.54488,94.72971c-0.32024-0.3201-0.32024-0.84006,0-1.16016
    c0.32148-0.3201,0.84061-0.3201,1.16209,0l43.61723,43.61792c0.32011,0.32079,0.32011,0.84006,0,1.16084
    C86.0041,138.66841,85.48483,138.66911,85.16335,138.34831L85.16335,138.34831z"/>
  <path fill="#E28257" d="M82.06963,141.44272L38.4524,97.8248c-0.32272-0.3201-0.32272-0.84006,0-1.16016
    c0.32024-0.32079,0.83675-0.32079,1.15947,0l43.61861,43.61792c0.3201,0.3201,0.3201,0.83992,0,1.16016
    C82.90763,141.7635,82.39111,141.76421,82.06963,141.44272L82.06963,141.44272z"/>
  <path fill="#E28257" d="M78.97468,144.53767l-43.6186-43.61778c-0.3201-0.32092-0.3201-0.84006,0-1.16085
    c0.3201-0.32079,0.84061-0.32079,1.16209,0l43.61861,43.61793c0.32011,0.32079,0.32011,0.83992,0,1.16071
    C79.81529,144.85791,79.29616,144.85791,78.97468,144.53767L78.97468,144.53767z"/>
  <path fill="#E28257" d="M75.88097,147.63139l-43.61861-43.61792c-0.32148-0.32011-0.32148-0.83993,0-1.16003
    c0.3201-0.32024,0.83937-0.32024,1.15947,0l43.61861,43.61848c0.32011,0.32024,0.32011,0.84006,0,1.15947
    C76.7202,147.95218,76.20107,147.95287,75.88097,147.63139L75.88097,147.63139z"/>

</svg>
