<svg version="1.1" xmlns="http://www.w3.org/2000/svg" xmlns:xlink="http://www.w3.org/1999/xlink"
 width="160px" height="160px" viewBox="-219 321 160 160">
<path fill="#EC1C24" d="M-189,463.3c6-14.4,14.2-18.4,20.8-24.9c7.2-7,17.4-20.6,20.3-27.4l1.7,0.3c-3.2,7.3-12.1,22.8-19.4,29.8
c-6.4,6.2-13.1,10.7-18.7,24.2l-1.2-3.6L-189,463.3L-189,463.3z"/>
<path fill="#EC1C24" d="M-199,447.2c9.4-11.8,18.2-13.8,25.5-17.7c8-4.3,20.1-11.9,25.4-18.3l1.7,0.8c-5.7,6.9-17.5,16.2-25.5,20.5
c-7,3.8-14.5,6.8-23.2,17.9l-0.2-3.7L-199,447.2L-199,447.2z"/>
<polygon fill="#00ADEE" points="-121.4,342.7 -107.7,378.7 -148.8,415.5 -155.4,360.6 "/>
<polygon fill="#FFC30C" points="-121.4,342.7 -148.8,415.5 -107.7,378.7 -155.4,360.6 "/>
<g>
<path fill="#844F31" d="M-148.8,416.9c-0.2,0-0.3,0-0.5-0.1c-0.7-0.3-1.1-1.1-0.8-1.8l27.4-72.8c0.3-0.7,1.1-1.1,1.8-0.8
c0.7,0.3,1.1,1.1,0.8,1.8l-27.4,72.8C-147.7,416.5-148.2,416.9-148.8,416.9z"/>
</g>
<line fill="none" stroke="#844F31" stroke-width="2.8607" stroke-linecap="round" x1="-155.4" y1="360.5" x2="-107.7" y2="378.6"/>
<g>
<path fill="#58595B" d="M-81.3,463.1c-5-5.2-17.1-21.2-17.3-30.2l1.4,0c0.2,7.9,11.1,23.2,16.9,29.2L-81.3,463.1z"/>
</g>
<g>
<path fill="#58595B" d="M-100,430c-6.1-1.7-16.8-15-19.9-21.1c-8.5-16.8-10.3-27-11.5-33.8c-0.3-1.7-0.6-3.3-0.9-4.6l1.4-0.3
c0.3,1.4,0.6,3,0.9,4.7c1.2,7.1,2.9,16.8,11.3,33.4c2.9,5.8,13.6,18.8,19,20.3L-100,430z"/>
</g>
<polygon fill="#EC1C24" points="-145.6,411.6 -148.7,410.5 -147.7,407.8 -144.6,408.9 "/>
<g>
<path fill="#58595B" d="M-132.4,371.5c-0.7,0-1.5-0.2-1.8-0.6c-0.3-0.3-0.3-0.8,0.1-1.1c0.3-0.3,0.8-0.3,1.1,0
c0.2,0.1,1.2,0.2,1.9-0.1c0.6-0.2,0.9-0.7,1-1.2c0.1-0.4,0.5-0.7,0.9-0.6c0.4,0.1,0.7,0.5,0.6,0.9c-0.3,1.3-1.2,2.2-2.5,2.6
C-131.6,371.4-132,371.5-132.4,371.5z"/>
</g>
<path fill="#B32C39" d="M-171.5,450.9c0.1-0.4-0.1-0.6-0.5-0.5l-14.2,3c-0.4,0.1-0.6-0.2-0.5-0.5l2.3-6.5c0.1-0.4,0.4-0.4,0.7-0.1
l9,11.3c0.2,0.3,0.6,0.3,0.7-0.1L-171.5,450.9z"/>
<path fill="#B32C39" d="M-177.4,452.4c-0.4,1.2-1,1.5-2.2,1l0,0c-1.2-0.4-1.5-1-1-2.2l0,0c0.4-1.2,1-1.5,2.2-1l0,0
C-177.2,450.7-177,451.2-177.4,452.4L-177.4,452.4z"/>
<path fill="#B32C39" d="M-172.3,436.3c0.3-0.3,0.2-0.6-0.2-0.7l-14.2-2.7c-0.4-0.1-0.5-0.4-0.2-0.7l4.7-5.1c0.3-0.3,0.6-0.2,0.7,0.2
l3.9,14c0.1,0.4,0.4,0.5,0.7,0.2L-172.3,436.3z"/>
<path fill="#B32C39" d="M-178.4,435.4c-0.9,1-1.5,1-2.4,0.1l0,0c-1-0.9-1-1.5-0.1-2.4l0,0c0.9-1,1.5-1,2.4-0.1l0,0
C-177.5,433.9-177.5,434.4-178.4,435.4L-178.4,435.4z"/>
<polygon fill="#58595B" points="-97.9,428 -98.6,422.5 -97.1,422.5 "/>
<polygon fill="#58595B" points="-96.3,428.9 -92.9,424.7 -91.8,425.8 "/>
<polygon fill="#58595B" points="-96,430.7 -90.5,430.3 -90.6,431.9 "/>
</svg>
