<svg version="1.1" xmlns="http://www.w3.org/2000/svg" xmlns:xlink="http://www.w3.org/1999/xlink"
 width="160px" height="160px" viewBox="-219 321 160 160">
<path fill="#A36C35" d="M-122.3,426.7c0-3.5-8.2-6.3-18.3-6.3c-10.1,0-18.3,2.8-18.3,6.3c0,0.6,3.1,21.5,3.1,22.1
c0,3.5,6.8,6.3,15.2,6.3c8.4,0,15.2-2.8,15.2-6.3C-125.4,448.2-122.3,427.3-122.3,426.7z"/>
<path fill="#C08041" d="M-118.8,418.9c0-5-9.8-9.1-21.8-9.1c-12,0-21.8,4.1-21.8,9.1c0,0.9,0,4.1,0,5c0,5,9.8,9.1,21.8,9.1
c12,0,21.8-4.1,21.8-9.1C-118.8,423-118.8,419.8-118.8,418.9z"/>
<path fill="#C08041" d="M-118.8,418.9c0,5-9.8,9.1-21.8,9.1c-12,0-21.8-4.1-21.8-9.1c0-5,9.8-9.1,21.8-9.1
C-128.6,409.9-118.8,413.9-118.8,418.9z"/>
<ellipse fill="#7E5D3B" cx="-140.6" cy="417.8" rx="17.5" ry="7.3"/>
<path fill="#C1D5AE" d="M-119.8,347.3c-7.5,9.4-6.6,27.9-8.1,39.5c-1.8,13.7,3.4,16.9-0.2,21.5c-2.6,3.3-11.3,4.2-14.6,1.7
c5.8-0.7,3.5-11.9,5.2-24.9C-136,373.4-130.3,360.5-119.8,347.3z"/>
<path fill="#C1D5AE" d="M-158.4,351.4c15.6,5.3,13.8,24.5,12.8,36.2c-1.1,11.7,0,19.4,3.7,23.9c2.7,3.2,11.4,4,14.6,1.3
c-5.8-0.5-7.6-11.5-9.6-24.4C-138.7,376.7-142.5,356.7-158.4,351.4z"/>
<path fill="#A2C18B" d="M-89.4,374.6c-16.2-2.9-23.9,14.8-28.7,25.5c-4.7,10.8-9.3,17-14.8,19.1c-3.9,1.5-11.9-2-13.4-5.9
c5.4,2.4,12.1-6.4,20.2-16.8C-119,387.3-106,371.6-89.4,374.6z"/>
<path fill="#A2C18B" d="M-179.9,365.9c16.4-0.1,15,18.2,17.8,29.5c2.8,11.4,6.3,18.3,11.3,21.4c3.6,2.2,12.1,0,14.2-3.5
c-5.7,1.4-4.4-7.8-10.5-19.4C-152.5,383.5-163.1,365.8-179.9,365.9z"/>
<path fill="#A2C18B" d="M-106.3,364.3c-16.4,1.7-19,20.7-20.6,32.4c-1.6,11.6-4.3,18.9-9,22.4c-3.3,2.5-12,1.3-14.5-2
c5.8,0.8,9.9-9.5,14.8-21.6C-131.3,384.5-123,365.9-106.3,364.3z"/>
</svg>
