<svg version="1.1" xmlns="http://www.w3.org/2000/svg" xmlns:xlink="http://www.w3.org/1999/xlink" width="160px"
  height="160px" viewBox="0 0 160 160" >
  <path fill="#7091A4" d="M113.27173,136.43018c-4.89355,0-8.30322-2.14746-8.30322-4.0752
    c0-0.4917,0.11572-2.01416,0.22168-2.34619l0.22949-0.49707l-0.25195-0.44531c-0.13428-0.28711-0.19922-0.5542-0.19922-0.81641
    c0-0.73779,0.23975-1.7373,0.65869-2.74268l0.26221-0.62891l-0.41504-0.54053c-0.33594-0.4375-0.50586-0.88574-0.50586-1.3335
    c0-0.73828,0.24023-1.73975,0.65918-2.74805l0.26123-0.62842l-0.41455-0.54004c-0.33594-0.4375-0.50586-0.88574-0.50586-1.3335
    c0-0.73828,0.24023-1.73975,0.65918-2.74805l0.26172-0.62988l-0.4165-0.54053c-0.33496-0.43408-0.50439-0.88135-0.50439-1.3291
    c0-0.74023,0.23975-1.7417,0.65869-2.74707l0.26318-0.63135l-0.41846-0.5415c-0.33398-0.43213-0.50342-0.87793-0.50342-1.32568
    V91.51807c0-3.23682,2.39258-6.48633,4.55371-8.16406c0.86426,1.47119,2.60449,1.47119,3.74951,1.47119s2.88477,0,3.74658-1.46924
    c2.1626,1.67627,4.55615,4.92383,4.55615,8.16211v15.74316c0,0.44531-0.16992,0.89258-0.50488,1.32861l-0.41455,0.53955
    l0.26025,0.62842c0.41895,1.01123,0.65918,2.01318,0.65918,2.74902c0,0.44531-0.16992,0.89355-0.50586,1.33203l-0.41309,0.53857
    l0.25928,0.62695c0.41943,1.01416,0.65967,2.01611,0.65967,2.75c0,0.44531-0.17041,0.89502-0.50732,1.33643l-0.41064,0.53809
    l0.2583,0.62549c0.42578,1.02881,0.65967,2.00537,0.65967,2.75c0,0.44531-0.17041,0.89502-0.50732,1.33643l-0.41113,0.53857
    l0.25928,0.62598c0.42529,1.02588,0.65918,2.00098,0.65918,2.74463c0,0.2627-0.06494,0.52832-0.19873,0.81104l-0.23682,0.50098
    l0.23486,0.50146c0.08496,0.2793,0.20068,1.7998,0.20068,2.2915C121.57446,134.28271,118.16479,136.43018,113.27173,136.43018z"/>
  <path fill="#A4DBDF" d="M109.41357,84.99513c1.28229,1.00677,3.00586,1.00675,3.85797,1.00675
    c0.85217,0,2.57544-0.00014,3.85645-1.00513c1.68695,1.61662,3.26984,4.13812,3.26984,6.52143v15.74304
    c0,0.17997-0.08783,0.38547-0.26117,0.61079l-0.82977,1.0789l0.521,1.25742c0.35687,0.86131,0.56995,1.72047,0.56995,2.29827
    c0,0.18067-0.08875,0.38808-0.26373,0.61647l-0.82544,1.07723l0.51855,1.25415c0.3573,0.86407,0.57062,1.72383,0.57062,2.29987
    c0,0.18132-0.08954,0.39056-0.26617,0.62187l-0.82202,1.07652l0.51758,1.25168c0.36267,0.87697,0.57062,1.71524,0.57062,2.29986
    c0,0.18132-0.08954,0.39055-0.26617,0.62187l-0.82269,1.07737l0.51886,1.25232c0.35693,0.86145,0.57001,1.719,0.57001,2.29394
    c0,0.03117,0,0.12601-0.08636,0.30872l-0.47296,1.0006l0.39703,0.84901c0.08057,0.4373,0.16229,1.58699,0.16229,1.94713
    c0,1.02176-2.70557,2.89819-7.12628,2.89819s-7.12628-1.87643-7.12628-2.89819c0-0.35141,0.0835-1.52052,0.16266-1.95428
    l0.38916-0.84181l-0.4632-0.99121c-0.08862-0.18973-0.08862-0.28638-0.08862-0.31815c0-0.57893,0.21252-1.43505,0.56854-2.29012
    l0.52356-1.25732l-0.8291-1.08054c-0.1745-0.22749-0.263-0.43526-0.263-0.61752c0-0.58002,0.21277-1.43836,0.56921-2.29605
    l0.52222-1.25667l-0.82843-1.07968c-0.263-0.34283-0.263-0.54958-0.263-0.61752c0-0.58002,0.21277-1.43837,0.56921-2.29604
    l0.52325-1.25916l-0.83191-1.08039c-0.26056-0.33843-0.26056-0.54443-0.26056-0.61212c0-0.58179,0.21252-1.43953,0.56854-2.29445
    l0.5257-1.26245l-0.83624-1.08203c-0.1712-0.22153-0.258-0.42557-0.258-0.60645V91.51819
    C106.14526,89.13565,107.72742,86.61314,109.41357,84.99513 M110.19586,81.52013c-2.7998,1.43281-6.40466,5.71091-6.40466,9.99806
    v15.74304c0,0.72662,0.26685,1.42154,0.74945,2.04597c-0.46899,1.12623-0.74945,2.27303-0.74945,3.19941
    c0,0.73117,0.26685,1.42154,0.74945,2.0483c-0.46899,1.12855-0.74945,2.27525-0.74945,3.19942
    c0,0.73117,0.26685,1.42153,0.74945,2.05051c-0.46899,1.12856-0.74945,2.27303-0.74945,3.19941
    c0,0.72897,0.26685,1.42153,0.74945,2.05051c-0.46899,1.12635-0.74945,2.27072-0.74945,3.19499
    c0,0.46088,0.11475,0.89685,0.31,1.3147c-0.19525,0.42236-0.31,2.33664-0.31,2.79076c0,2.90202,4.24402,5.25224,9.48035,5.25224
    s9.48035-2.35022,9.48035-5.25224c0-0.45412-0.11462-2.36839-0.31213-2.79076c0.19751-0.41785,0.31213-0.85382,0.31213-1.3147
    c0-0.92881-0.28259-2.06864-0.74927-3.19499c0.48029-0.62897,0.74927-1.32153,0.74927-2.05051
    c0-0.93323-0.28259-2.07085-0.74927-3.19941c0.48029-0.62898,0.74927-1.31934,0.74927-2.05051
    c0-0.92416-0.28259-2.07087-0.74927-3.19942c0.48029-0.62676,0.74927-1.31713,0.74927-2.0483
    c0-0.92871-0.28259-2.07318-0.74927-3.19941c0.48029-0.62444,0.74927-1.31935,0.74927-2.04597V91.51819
    c0-4.28716-3.60699-8.56525-6.40912-9.99586c-0.17944,2.09367-1.48053,2.12551-3.07123,2.12551
    C111.67865,83.64783,110.37976,83.61599,110.19586,81.52013L110.19586,81.52013z"/>
  <path fill="#808184" d="M36.99964,58.97391L36.99964,58.97391c-2.33768,0.00453-4.23717,6.64426-4.23717,14.82793
    c0,8.18833,1.89949,14.82793,4.23717,14.83247l0,0h12.6764V58.97391H36.99964z"/>
  <circle fill="#808184" cx="73.0176" cy="29.31117" r="6.35523"/>
  <path fill="#808184" d="M85.72864,59.62114V46.26008H60.3054v13.36106c-3.89198,3.49007-6.35581,8.54247-6.35581,14.18303
    c0,10.52938,8.53805,19.06743,19.06859,19.06743c10.52939,0,19.06743-8.53805,19.06743-19.06743
    C92.08561,68.1636,89.62074,63.11121,85.72864,59.62114z"/>
  <path fill="#808184" d="M70.89838,29.3135c0,2.34117-14.60878,4.23717-16.94878,4.23717c-2.34117,0-4.23717-1.896-4.23717-4.23717
    s1.896-4.23717,4.23717-4.23717C56.2896,25.07633,70.89838,26.97233,70.89838,29.3135z"/>
  <path fill="#808184" d="M75.13567,29.3135c0,2.34117,14.60878,4.23717,16.94994,4.23717c2.34001,0,4.23601-1.896,4.23601-4.23717
    s-1.896-4.23717-4.23601-4.23717C89.74445,25.07633,75.13567,26.97233,75.13567,29.3135z"/>
  <path fill="#A6A8AB" d="M53.94959,73.80184c0,8.19054-1.8052,14.83247-4.02604,14.83247
    c-2.22072,0-4.02708-6.64194-4.02708-14.83247c0-8.186,1.80636-14.82793,4.02708-14.82793
    C52.14439,58.97391,53.94959,65.61584,53.94959,73.80184z"/>
  <path fill="#808184" d="M96.32162,63.21107h-2.11969h-6.3536l0,0c-1.17052,0.00686-2.11736,4.74593-2.11736,10.59309
    c0,5.84483,0.94684,10.58611,2.11736,10.59297l0,0h6.3536h2.11969h6.35477V63.21107H96.32162z"/>
  <path fill="#A6A8AB" d="M73.04086,48.79192c-7.00409,0-12.68209-1.13309-12.68209-2.52963
    c0-1.39875,5.678-2.53184,12.68209-2.53184c7.00978,0,12.68778,1.13309,12.68778,2.53184
    C85.72864,47.65882,80.05064,48.79192,73.04086,48.79192z"/>
  <path fill="#808184" d="M70.89838,29.3135v16.94658c0,0.25659,0.94695,0.46551,2.11749,0.46551
    c1.17064,0,2.1198-0.20892,2.1198-0.46551V29.3135H70.89838z"/>
  <path fill="#808184" d="M100.61227,89.56987v4.2667c0,1.39433,5.66661,2.52742,12.65709,2.52742
    c6.99269,0,12.65942-1.13309,12.65942-2.52742v-4.2667H100.61227z"/>
  <path fill="#808184" d="M49.71243,63.21107v0.01825c-0.01139,0-0.02267-0.01825-0.03639-0.01825
    c-1.17053,0-2.11969,4.74139-2.11969,10.59309c0,5.84937,0.94916,10.59297,2.11969,10.59297
    c0.01372,0,0.02499-0.01814,0.03639-0.01814v0.01814h8.47329V63.21107H49.71243z"/>
  <path fill="#A6A8AB" d="M113.26936,92.09718c-6.99048,0-12.65709-1.13309-12.65709-2.52731
    c0-1.40107,5.66661-2.53416,12.65709-2.53416c6.99269,0,12.65942,1.13309,12.65942,2.53416
    C125.92877,90.96409,120.26205,92.09718,113.26936,92.09718z"/>
  <path fill="#808184" d="M113.27157,63.21107c-5.85054,0-10.59298,0-10.59298,0v0.00232l-0.0022-0.00232
    c-1.17065,0-2.1198,4.74139-2.1198,10.59309c0,5.84937,0.94916,10.59297,2.1198,10.59297h0.0022v4.23264l-0.0022,0.00454
    c0,1.16715,4.74244,2.11631,10.59297,2.11631c5.85054,0,10.59298-0.94916,10.59298-2.11631h0.00233v-4.23717v-4.23717
    c0-1.77578,0-3.96023,0-6.3558C123.86466,67.95247,119.12222,63.21107,113.27157,63.21107z"/>
  <path fill="#A4DBDF" d="M111.80923,102.84687c0,0.7857-0.63467,1.42154-1.42037,1.42154
    c-0.78221,0-1.41805-0.63584-1.41805-1.42154c0-0.78104,0.63584-1.41689,1.41805-1.41689
    C111.17455,101.42999,111.80923,102.06583,111.80923,102.84687z"/>
  <circle fill="#A4DBDF" cx="116.10947" cy="111.9231" r="0.60346"/>
  <circle fill="#A4DBDF" cx="112.66927" cy="118.07452" r="2.28042"/>
  <circle fill="#A4DBDF" cx="117.87496" cy="128.39963" r="1.16204"/>
  <circle fill="#A4DBDF" cx="110.73345" cy="132.09862" r="0.81802"/>

</svg>
