<svg version="1.1" id="Layer_1" xmlns="http://www.w3.org/2000/svg" xmlns:xlink="http://www.w3.org/1999/xlink" x="0px" y="0px"
   width="160px" height="160px" viewBox="-107 254 160 160">
<rect x="-79.4" y="277.2" fill="#6B482D" width="104.8" height="71.7"/>
<polygon fill="#6C5844" points="7.4,375.6 5.3,375.6 1.2,351.9 6.2,351.9 "/>
<polygon fill="#6C5844" points="-60.8,375.6 -58.7,375.6 -54.6,351.9 -59.6,351.9 "/>
<rect x="-60.8" y="375.6" fill="#B45332" width="2.1" height="0.8"/>
<rect x="5.3" y="375.6" fill="#B45332" width="2.1" height="0.8"/>
<polygon fill="#6C5844" points="-69.5,385.7 -66.4,385.7 -61.1,351.9 -68.5,351.9 "/>
<rect x="-69.5" y="385.7" fill="#B45332" width="3.1" height="3.2"/>
<polygon fill="#6C5844" points="16.1,385.7 13,385.7 7.7,351.9 15.1,351.9 "/>
<rect x="13" y="385.7" fill="#B45332" width="3.1" height="3.2"/>
<rect x="-77.5" y="279.1" fill="#A36C35" width="100.8" height="67.9"/>
<rect x="-0.8" y="285.6" fill="#A7906D" width="16.5" height="53.6"/>
<polygon fill="#BBBDBF" points="-66,334.7 -70.8,339.1 -70.8,285.6 -66,289.5 "/>
<polygon fill="#BBBDBF" points="-9.2,334.7 -4.8,339.1 -4.8,285.6 -9.2,289.5 "/>
<polygon fill="#D0D2D3" points="-66,334.7 -9.2,334.7 -4.8,339.1 -70.8,339.1 "/>
<rect x="1" y="330.3" fill="#DDDDDD" width="13.1" height="7.3"/>
<polygon fill="#C79D76" points="18.6,283.4 -72,283.4 -77.5,279.1 23.4,279.1 "/>
<polygon fill="#6C5844" points="-72,342.1 18.6,342.1 23.4,347 -77.5,347 "/>
<circle fill="#DDDDDD" cx="7.5" cy="292.9" r="4.3"/>
<rect x="-72" y="347.9" fill="#5D4F42" width="90.6" height="4"/>
<rect x="-72" y="364.8" fill="#5D4F42" width="90.6" height="4"/>
<polygon fill="#5D4F42" points="18.6,364.8 -72,364.8 -62.4,357.4 8.6,357.4 "/>
<polygon fill="#929497" points="-9.2,289.5 -66,289.5 -70.8,285.6 -4.8,285.6 "/>
<path fill="#DDDDDD" d="M-9.2,334.7c-18.9,0.8-37.9,0.8-56.8,0c-1-15.1-1-30.1,0-45.2c18.9-0.8,37.9-0.8,56.8,0
  C-8.2,304.6-8.2,319.6-9.2,334.7z"/>
</svg>
