<svg version="1.1" id="Layer_1" xmlns="http://www.w3.org/2000/svg" xmlns:xlink="http://www.w3.org/1999/xlink" x="0px" y="0px"
   width="160px" height="160px" viewBox="-107 254 160 160">
<polygon fill="#CE9D77" points="31.9,374.4 -60,374.4 -85.1,343 -85.1,334.6 31.9,366 "/>
<polygon fill="#F5E0CD" points="31.9,366 -60,366 -85.1,334.6 6.8,334.6 "/>
<path fill="#9ABB6C" d="M-81.8,329.8c0,2.2-1.4,1.3-2.9,2.9c-1.8,1.8-3.5,5.4-2.1,7.8c1.2,2.2,4.3,2.9,6.6,2.3
  c0.8-0.2,3.6-2.8,4.1-2.6c0.9,0.4,0.4,7,0.4,7.9c0.1,1.9,0,5.6,2.5,5.6c0.7,0,1.2-0.5,2-0.2c1,0.3,1.8,1.3,2.5,2
  c1.8,1.8,3.9,3.7,6.5,2.3c1.8-0.9,3-2.5,4.7-3.4c2-1,4.7-2.4,6.9-2.5c3-0.2,2.6,2.9,1.8,4.9c-0.6,1.5-3.1,3.8-3,5.5
  c0.2,1.9,2.8,2.5,4.3,2.4c2.8,0,5.5-1.6,8.4-1.1c1.4,0.3,4.1,2.8,5.3,2c1.9-1.1-0.1-3.9,1.7-5.1c2-1.3,5.4,0.8,7.6,0.2
  c2.3-0.7-0.4-5,0.9-6.6c3.2-3.9,11.3,4,12,7c0.4,1.7-0.4,3.6,0.8,5c1.1,1.4,3.1,1.7,4.8,1.5c4.9-0.6,7.7-5.9,9.8-9.8
  c3-5.5,7.8-6.5,13.3-3.9c5.4,2.5,11.2,5.1,17.1,6.2c2.4,0.5,5.3,0.2,3.7-3c-3.1-6.1,3.1-9.2-3.1-9.2c-6.1,0-6.1-3.1-12.3,0
  c-6.1,3.1-9.2-15.3-9.2-15.3s-88.9-6.1-91.9-6.1C-81.8,326.8-81.8,323.7-81.8,329.8z"/>
<path fill="#ED1E3D" d="M-46.3,313.3c-17.7,0-32.4,5.9-35.1,13.6h-0.5v2.6c0,8.9,15.9,16.2,35.6,16.2c19.7,0,35.6-7.3,35.6-16.2
  C-10.7,320.6-26.6,313.3-46.3,313.3z"/>
<path fill="#F0646E" d="M-10.7,327c0,8.9-15.9,16.2-35.6,16.2c-19.7,0-35.6-7.3-35.6-16.2c0-8.9,15.9-16.2,35.6-16.2
  C-26.6,310.7-10.7,318-10.7,327z"/>
<path fill="#ED1E3D" d="M-42.2,336.8c-0.8,8.9,14.4,17.8,33.9,19.9c19.6,2.1,36.1-3.4,37-12.3c0.8-8.9-14.4-17.8-33.9-19.9
  C-24.8,322.4-41.4,327.9-42.2,336.8z"/>
<path fill="#F0646E" d="M-42,334.2c-0.8,8.9,14.4,17.8,33.9,19.9c19.6,2.1,36.1-3.4,37-12.3c0.8-8.9-14.4-17.8-33.9-19.9
  C-24.6,319.8-41.1,325.3-42,334.2z"/>
<path fill="#ED1E3D" d="M-77.8,336.5c-0.8,8.9,14.4,17.8,33.9,19.9c19.6,2.1,36.1-3.4,37-12.3c0.8-8.9-14.3-17.8-33.9-19.9
  C-60.4,322.1-77,327.6-77.8,336.5z"/>
<path fill="#F0646E" d="M-77.6,333.9c-0.8,8.9,14.4,17.8,33.9,19.9c19.6,2.1,36.1-3.4,36.9-12.3c0.8-8.9-14.4-17.8-33.9-19.9
  C-60.2,319.5-76.7,325-77.6,333.9z"/>
<path fill="#F8DB88" d="M23.8,333.8c-4.1-5.8-11.6-7.4-18-9c-8.3-2.1-16.4-3.1-25-3.7c-9-0.7-17.9-1.5-26.8-2.4
  c-5.2-0.5-11-1.8-16.3-1.1c-5.5,0.7-11.8,7-11.5,12.9c0.2,3.2,3.4,4.6,5.6,6.4c3.1,2.5,5,5.8,7.8,8.5c3.1,3,6.4,2.6,10.4,1.9
  c5.5-1,10.5-1.7,16.1-0.9c6.3,0.9,12.1,1.9,18.4,0.4c6-1.3,12.3-5.1,18.5-4.5c5,0.5,8.2,5.2,13.1,5.9
  C24.1,349.3,28,339.7,23.8,333.8z"/>
<polygon fill="#CE9D77" points="31.9,343.9 -60,343.9 -85.1,312.6 -85.1,304.2 31.9,335.6 "/>
<polygon fill="#F5E0CD" points="31.9,335.6 -60,335.6 -85.1,304.2 6.8,304.2 "/>
<polygon fill="#2E86C7" points="-26.2,278.2 -13.9,284.3 -26.2,290.4 "/>
<rect x="-27.5" y="278.2" fill="#CE9D77" width="1.3" height="40.8"/>
</svg>
