<svg version="1.1" xmlns="http://www.w3.org/2000/svg" xmlns:xlink="http://www.w3.org/1999/xlink"
 width="160px" height="160px" viewBox="-219 321 160 160">
<path fill="#A9DEF0" d="M-101.9,402.8c0-0.1,0-0.2,0-0.4c0,0,0-0.1,0-0.1c0,0,0,0,0-0.1c0.4-5.4,0.8-11.4,2.8-30.5
c0.2-2.3,0.5-4.8,0.7-7.3c0.1-1.3,0.2-2.6,0.4-3.9c-0.4,2.4-27.7,3.9-41.4,3.9c-13.8,0-41.7-1.4-42.6-3.9c0.1,1.3,0.2,2.5,0.3,3.9
c0.3,3.8,0.8,7.4,1.2,10.6c1,7.6,1.9,16.7,2.5,27.4c0,0,0,0,0,0c0,0.9,0.1,1.8,0.1,2.8c0,1,0.1,1.9,0.2,3c0,0.5,0.1,0.9,0.1,1.4
c0.3,4.5,0.7,9.5,1.1,14.8c0.9,9.6,1.9,18.3,2.8,24.5c0.1,1.2,14.9,4.2,35.3,4.2c20.4,0,32-3,32.1-4.2c0.7-6.3,1.6-15,2.5-24.5
C-102.9,416.3-102.3,408.7-101.9,402.8z"/>
<path fill="#00ADEE" d="M-110.2,396.4c0-0.1,0.3-5.1,1-13.1h-61.4c0.3,3.5,0.6,7.2,0.8,11.2c0,0,0,0,0,0c0,0.7,0,1.1,0.1,1.9
c0,0.8,0.1,2.1,0.1,3c0,0.4,0,0.8,0.1,1.1c0.2,3.8,1,8,1.3,12.4c0.7,8,2.3,15.3,3,20.5c0.1,1,11.1,5.5,26.3,5.5
c15.2,0,23.9-4.5,24-5.5c0.5-5.3,2.1-12.5,2.8-20.5C-111.4,406.1-110.5,401.4-110.2,396.4z"/>
<path fill="#00ADEE" d="M-139.4,354.2c-13.8,0-42.2,2.3-42.6,6.4c0.8,4,28.8,6.4,42.6,6.4c13.8,0,41-2.4,41.4-6.4
C-97.9,356.5-125.7,354.2-139.4,354.2z"/>
<path fill="#A9DEF0" d="M-139.5,442.6c-11.1,0-33.9,2.3-34.2,6.4c0.7,4,23.1,6.9,34.2,6.9c12.7,0,30.3-2,33.3-6.9
C-106.2,444.9-128.4,442.6-139.5,442.6z"/>
<path fill="#A9DEF0" d="M-139.5,356.3c-11.7,0-35.8,1.6-36.1,4.3c0.7,2.7,24.5,4.3,36.1,4.3c11.7,0,34.8-1.6,35.2-4.3
C-104.3,357.9-127.8,356.3-139.5,356.3z"/>
<polygon fill="#B8E2F8" points="-153.2,379.2 -135.9,381.5 -135.9,395.9 -142.7,401.5 -159.9,399.3 -159.9,384.9 "/>
<path fill="#FFFFFF" d="M-135.8,380.7l-17.3-2.2c-0.2,0-0.4,0-0.6,0.2l-6.8,5.6c-0.2,0.1-0.3,0.3-0.3,0.6v14.4
c0,0.4,0.3,0.7,0.6,0.7l17.3,2.2c0,0,0.1,0,0.1,0c0.2,0,0.3-0.1,0.5-0.2l6.8-5.6c0.2-0.1,0.3-0.3,0.3-0.6v-14.4
C-135.2,381.1-135.4,380.8-135.8,380.7z M-152.9,380l3.3,0.4c-0.2,0.1-0.3,0.3-0.2,0.5c0.2,0.7,1.4,1,2.1,1.1
c1.5,0.2,2.9,0.4,4.4,0.6c-0.6,0.5-1.1,0.9-1.7,1.4c-0.9,0.7,2.4,2,3.4,1.3c1-0.8,2-1.7,3-2.5c0.5-0.4,0-0.8-0.6-1l2.1,0.3l-5.6,4.7
l-15.7-2L-152.9,380z M-159.2,385.4l16.1,2.1v13.3l-16.1-2.1V385.4z M-142.3,400.3v-13l5.7-4.7v13L-142.3,400.3z"/>
<path fill="#FFFFFF" d="M-151.2,387.5l-5.6-0.6c-0.4,0-0.7,0.1-1,0.3c-0.3,0.2-0.4,0.6-0.4,1v6.5c0,0.7,0.6,1.3,1.3,1.3
c0.7,0,1.3-0.6,1.3-1.3v-5l4.1,0.5c0.7,0.1,1.4-0.4,1.5-1.2C-150,388.2-150.5,387.6-151.2,387.5z"/>
<path fill="#FFFFFF" d="M-145.7,388.4l-1.5-0.3c-0.7-0.1-1.4,0.3-1.5,1c-0.1,0.7,0.3,1.4,1,1.5l1.5,0.3c0.1,0,0.2,0,0.3,0
c0.6,0,1.2-0.4,1.3-1.1C-144.5,389.2-145,388.5-145.7,388.4z"/>
<polygon fill="#B8E2F8" points="-139,407.3 -140.4,390 -126.3,387 -119.4,392.4 -118,409.8 -132.1,412.8 "/>
<path fill="#FFFFFF" d="M-141.2,390l1.4,17.3c0,0.2,0.1,0.4,0.3,0.5l6.9,5.5c0.2,0.1,0.4,0.2,0.6,0.1l14.1-3
c0.4-0.1,0.6-0.4,0.6-0.8l-1.4-17.3c0,0,0-0.1,0-0.1c0-0.2-0.1-0.3-0.3-0.4l-6.9-5.5c-0.2-0.1-0.4-0.2-0.6-0.1l-14.1,3
C-140.9,389.3-141.2,389.7-141.2,390z M-138.3,406.9l-0.3-3.3c0.1,0.2,0.3,0.3,0.6,0.1c0.7-0.4,0.7-1.6,0.7-2.3
c-0.1-1.5-0.2-2.9-0.4-4.4c0.6,0.5,1.1,0.9,1.7,1.4c0.9,0.7,1.5-2.8,0.6-3.6c-1-0.8-2.1-1.6-3.1-2.4c-0.5-0.4-0.7,0.1-0.9,0.8
l-0.2-2.1l5.7,4.5l1.3,15.8L-138.3,406.9z M-131.8,411.9l-1.3-16.2l13-2.7l1.3,16.2L-131.8,411.9z"/>
<path fill="#FFFFFF" d="M-131.4,403.7l0.5,5.6c0,0.4,0.2,0.7,0.5,0.9c0.3,0.2,0.7,0.3,1,0.2l6.4-1.3c0.7-0.1,1.2-0.8,1-1.6
c-0.1-0.7-0.8-1.2-1.6-1l-4.9,1l-0.4-4.2c-0.1-0.7-0.7-1.3-1.4-1.2C-130.9,402.3-131.4,403-131.4,403.7z"/>
<path fill="#FFFFFF" d="M-131.7,398.1l0,1.5c0,0.7,0.6,1.3,1.3,1.3c0.7,0,1.3-0.6,1.3-1.3l0-1.5c0-0.1,0-0.2,0-0.3
c-0.1-0.6-0.7-1-1.3-1C-131.1,396.8-131.7,397.4-131.7,398.1z"/>
<polygon fill="#B8E2F8" points="-139.8,402.9 -153.6,413.5 -146.4,426 -137.7,427.5 -123.9,416.9 -131.1,404.5 "/>
<path fill="#FFFFFF" d="M-154.2,413.8l7.2,12.5c0.1,0.2,0.3,0.3,0.5,0.4l8.7,1.5c0.2,0,0.3,0,0.5-0.1c0,0,0.1,0,0.1-0.1l13.8-10.5
c0.3-0.2,0.4-0.6,0.2-1l-7.2-12.5c-0.1-0.2-0.3-0.3-0.5-0.4l-8.7-1.5c-0.2,0-0.4,0-0.6,0.1l-13.8,10.5
C-154.4,413.1-154.4,413.5-154.2,413.8z M-124.8,416.8l-12.9,9.9l-6.6-11.5l13-9.9L-124.8,416.8z M-145.9,425.3l-6.5-11.2l7.3,1.3
l6.5,11.2L-145.9,425.3z"/>
<path fill="#FFFFFF" d="M-131,407.6l0.8,1.3c0.4,0.6,0.1,1.4-0.5,1.8c-0.6,0.4-1.4,0.1-1.8-0.5l-0.8-1.3c0-0.1-0.1-0.2-0.1-0.2
c-0.2-0.6,0-1.2,0.6-1.6C-132.2,406.7-131.4,406.9-131,407.6z"/>
<path fill="#FFFFFF" d="M-132.4,412.2l0.4,0.7c0.2,0.3,0.1,0.7-0.2,0.9c-0.3,0.2-0.7,0.1-0.9-0.2l-0.4-0.7c0,0,0-0.1-0.1-0.1
c-0.1-0.3,0-0.6,0.3-0.8C-133,411.7-132.6,411.8-132.4,412.2z"/>
<path fill="#FFFFFF" d="M-156.5,398.7v1.5c0,0.7-0.5,1.3-1,1.3c-0.6,0-1-0.6-1-1.3l0-1.5c0-0.1,0-0.2,0-0.3c0.1-0.6,0.5-1.1,1-1.1
C-156.9,397.4-156.5,398-156.5,398.7z"/>
<path fill="#FFFFFF" d="M-150.9,407.9v2.5c0,1.2-0.7,2.2-1.7,2.2c-0.9,0-1.6-1-1.7-2.2l0-2.5c0-0.1,0-0.3,0-0.4
c0.1-1,0.8-1.7,1.6-1.7C-151.7,405.8-150.9,406.7-150.9,407.9z"/>
<path fill="#00ADEE" d="M-109.1,383.4c-4.9,2.7-11.7,3.6-17.3,2.3c-0.6,0-1.2,0-1.8-0.1c-4.8-0.2-9.4-0.4-14.4,1.1c-0.5,0-1,0-1.6,0
c-3.6,0.1-7.4-0.2-11.5-0.7c-0.6,0-1.2-0.1-1.8-0.1c-3-0.2-6.1-0.5-9.2-1.2c-0.5-0.1-0.9-0.2-1.3-0.2c-1.6-0.3-2.5-0.7-2.5-1.1
c0-0.4,0.9-0.8,2.5-1.1c0.4-0.1,0.9-0.2,1.3-0.3c3.2-1.3,6.2-1.1,9.2-0.8c0.6,0.1,1.2,0.1,1.8,0.2c4.3,1,8.5,0.1,12.6-0.5
c0.6-0.1,1.2-0.2,1.8-0.2c4.1-0.7,8.1-1,12-0.8c0.6,0,1.1,0.1,1.7,0.1c6,1.1,11.9,2,17.4,2.7C-109.5,382.8-109.1,383.1-109.1,383.4z
"/>
<path fill="#B8E2F8" d="M-158.6,383.8c0.4,0,0.8,0.1,1.2,0.1c0.6,0,1.2,0.1,1.8,0.1c4.1,0.5,7.8,0.8,11.5,0.7
c0.5,0,1,0,1.6,0c2.3-0.7,4.5-1,6.7-1.1v-2.1l-17.3-2.2L-158.6,383.8z"/>
<path fill="#FFFFFF" d="M-135.8,380.7l-17.3-2.2c-0.2,0-0.4,0-0.6,0.2l-6.1,5.1c0.7,0.1,1.4,0.1,2.1,0.2l4.6-3.9l3.3,0.4
c-0.2,0.1-0.3,0.3-0.2,0.5c0.2,0.7,1.4,1,2.1,1.1c1.5,0.2,2.9,0.4,4.4,0.6c-0.6,0.5-1.1,0.9-1.7,1.4c-0.2,0.2-0.2,0.4,0.1,0.6
c0.3,0,0.6,0,0.9,0c0.5,0,1,0,1.6,0c0.8-0.2,1.6-0.4,2.3-0.6c0.5-0.4,1-0.8,1.5-1.3c0.5-0.4,0-0.8-0.6-1l2.1,0.3l-2.2,1.9
c0.5-0.1,0.9-0.1,1.4-0.2l1.4-1.2v1c0.5,0,1-0.1,1.5-0.1v-2C-135.2,381.1-135.4,380.8-135.8,380.7z"/>
</svg>
