<svg xmlns="http://www.w3.org/2000/svg" width="160px" height="160px" viewBox="0 0 160 160">
  <g>
    <path fill="#b27746" d="M101.7,58.7c-1.5,2.1-8.6,4.3-25.4,4.6c-13.8,0.2-24.9-2.1-25.3-4.5C47.4,59.7,46,65.6,46,67
      c0,3.2,13.1,5.7,30.6,5.9c17.5,0,30.4-2.5,30.4-5.7C107,63.9,103.3,56.4,101.7,58.7z"/>
    <path fill="#eeeeee" d="M76.8,64.3h-0.2c-8.3,0-26.5-1.5-26.5-5.6c0-4.5,15.3-6.9,26.3-6.9h0.2c10.3,0,26.9,1.7,26.9,6.3
      C103.4,62.2,87.9,64.3,76.8,64.3L76.8,64.3z"/>
    <polygon fill="#ef8a45" points="60.9,55.9 60.3,54.9 60.8,53.9 61.9,53.9 62.5,54.8 62.1,55.8   "/>
    <polygon fill="#ef8a45" points="73.5,57.2 72.9,56.3 73.4,55.3 74.6,55.3 75.2,56.2 74.7,57.2   "/>
    <polygon fill="#ef8a45" points="81.2,60.1 80.7,59.2 81.2,58.1 82.4,58.1 83,59 82.4,60.1   "/>
    <polygon fill="#dccd9a" points="74.8,63.5 73.7,63.3 73.3,62.2 74,61.3 75.2,61.6 75.6,62.6   "/>
    <polygon fill="#dccd9a" points="96.4,57.3 95.3,57.1 94.9,56.1 95.6,55.1 96.8,55.4 97.1,56.4   "/>
    <polygon fill="#a4dbdf" points="94.7,60.2 93.9,59.4 94.1,58.4 95.1,58 96,58.7 95.7,59.9   "/>
    <polygon fill="#a4dbdf" points="61.5,60.7 60.7,59.9 60.9,58.8 61.9,58.5 62.9,59.2 62.6,60.3   "/>
    <polygon fill="#a4dbdf" points="84.5,55.4 83.5,54.6 83.8,53.4 84.9,53.1 85.7,53.9 85.5,55   "/>
    <polygon fill="#cb1625" points="89.7,56.9 88.7,56.9 88,55.9 88.6,54.9 89.7,54.9 90.3,55.8   "/>
    <polygon fill="#6e9a74" points="69.2,59.5 68,59.5 67.5,58.6 68,57.6 69.2,57.6 69.8,58.6   "/>
    <polygon fill="#6e9a74" points="79.8,55.3 78.6,55.3 78,54.2 78.6,53.3 79.8,53.2 80.3,54.2   "/>
    <polygon fill="#885780" points="56.3,57.8 55.3,58.1 54.5,57.3 54.7,56.2 55.9,55.8 56.7,56.6   "/>
    <polygon fill="#f05f77" points="70.4,54.5 69.4,54.8 68.6,54 68.8,52.8 70,52.6 70.8,53.4   "/>
    <polygon fill="#885780" points="91.1,62.2 90,62.4 89.2,61.6 89.5,60.5 90.6,60.2 91.4,61   "/>
  </g>
  <g>
    <path fill="#e19d83" d="M17.5,84.8l1.2-2.4l-2.9-2.9l3.2-2.4l-1.5-2.9c0,0,1.6-0.4,3,0.3c5.8,2.6,11.7,1.5,11.7,5
      c0,3.4-4.7,4.2-11.5,5.4C18.4,85.3,17.5,84.8,17.5,84.8z"/>
    <path fill="#dc6e71" d="M17.5,84.8l1.2-2.4c0,0,2.5,3.3,13.5-2.9c0,3.4-4.7,4.2-11.5,5.4C18.4,85.3,17.5,84.8,17.5,84.8z"/>
    <path fill="#e19d83" d="M63.5,71.3c0-1.2-0.9-2.2-2.2-2.2H33.7c-0.7,0-1.2,0.3-1.6,0.7l0,0l-2.6,2.1c-0.1,0.1-0.3,0.1-0.4,0.3l0,0
      l0,0c-0.4,0.4-0.7,0.9-0.7,1.6v16.5c0,1.2,0.9,2.2,2.2,2.2h27.6c0.8,0,1.5-0.4,1.8-0.9l0,0l2.2-1.8c0.1-0.1,0.3-0.3,0.4-0.4l0,0
      l0,0c0.4-0.4,0.7-0.9,0.7-1.5C63.5,87.8,63.5,71.3,63.5,71.3z"/>
    <path fill="#dc6e71" d="M60.8,90.2c0,1.2-0.9,2.2-2.2,2.2H31c-1.2,0-2.2-0.9-2.2-2.2V74.2c0-1.2,0.9-2.2,2.2-2.2h27.6
      c1.2,0,2.2,0.9,2.2,2.2V90.2z"/>
    <path fill="#deac8d" d="M58.1,88.7c0,2.2-25.1,1.8-25.1,1.8c-1.1,0-1.8-0.8-1.8-1.8V75.1c0-1.1,0.8-1.8,1.8-1.8h23.2
      C57.3,73.3,58.1,88.7,58.1,88.7z"/>
    <path fill="#dc6e71" d="M66.5,80.8c0,0.7-0.5,1.2-1.2,1.2h-2.8c-0.7,0-1.2-0.5-1.2-1.2v-3c0-0.7,0.5-1.2,1.2-1.2h2.8
      c0.7,0,1.2,0.5,1.2,1.2V80.8z"/>
    <path fill="#e19d83" d="M76,83.7c0-0.5-0.9-2-0.9-2l2.4-2.4l-2.5-2c0,0,2.2-2.2,2.2-2.8c0,0-3-0.9-4.9-0.3c-4.7,1.7-8,2.1-8,5
      c0,2.8,2.6,3.2,8,4C74.2,83.7,76,84.4,76,83.7z"/>
    <path fill="#dc6e71" d="M76,83.7c0-0.5-0.9-2-0.9-2l2.4-2.4c0,0-5.7,3.6-13.2,0c0,2.8,2.6,3.2,8,4C74.2,83.7,76,83.7,76,83.7z"/>
    <path fill="#f07458" d="M41.6,80.9c2,1.7,1.8,4.6,0.4,6.5c-0.1,0.1-0.9,0.4-0.9,0.5L40.9,88c0,0-0.1,0.5-0.4,0.7
      c-0.8,0.4-1.5,0.4-2.2,0.5c-0.8,0.1-1.5-0.1-2.2-0.5c-1.1-0.5-1.8-1.7-2.2-2.8c-0.1-1.2-0.4-2.2,0.1-3.2c0.1-0.1,0.1-0.3,0.3-0.4
      c0.1-0.4,0-1.1,0.3-1.2c0,0,0.3-0.1,0.3-0.3c0.3-0.3,0.7-0.1,0.9-0.3c1.3-0.9,2.9-1.3,4.5-0.5C40.7,80.3,41.1,80.5,41.6,80.9z"/>
    <path fill="#b9d69d" d="M36.3,77.6c-0.4-0.8-0.9-1.3-1.2-2.1c-0.1-0.3-0.1-0.4-0.3-0.7c0,0.3-0.3,0.7-0.4,0.8
      c-0.1,0.3-0.3,0.4-0.4,0.7c-0.3,0.4-0.5,0.9-0.8,1.3C33,78,32.9,78.6,33,79.1c0,0.4,0.4,0.7,0.7,0.9c0.4,0.4,0.8,0.7,1.2,1.1
      c0.1-0.3,0.3-0.4,0.5-0.5s0.5-0.3,0.7-0.4c0.5-0.3,0.7-0.7,0.7-1.3C36.7,78.4,36.6,78,36.3,77.6z"/>
    <path fill="#a36c35" d="M35.3,81.3c-0.3-1.1-2-0.7-2.8-1.2c0,0.1,0.1,0.3-0.1,0.4C33.3,80.8,34.3,80.9,35.3,81.3L35.3,81.3z"/>
    <polygon fill="#ef8a45" points="49.6,82.2 50.6,81.7 51.6,82.4 51.6,83.6 50.6,84.1 49.6,83.4   "/>
    <polygon fill="#cb1625" points="45,87.4 45,86.2 46.1,85.5 47.1,86.2 47,87.4 45.9,87.9   "/>
    <polygon fill="#6e9a74" points="47.4,77.6 47.4,76.4 48.4,75.9 49.5,76.6 49.5,77.8 48.4,78.3   "/>
    <polygon fill="#f05f77" points="52.5,79.2 52.3,78.2 53.2,77.2 54.4,77.6 54.6,78.8 53.7,79.6   "/>
  </g>
  <g>
    <path fill="#845727" d="M138.4,94.5c-0.5-0.3-0.8-0.5-1.2-0.8c-0.9-0.6-2-0.5-3-0.9c-1.4-0.6-1.8-2.1-3.2-2.7
      c-1.5-0.6-2.4,0-3.6-1.4c-1.1-1.1-0.8-0.9-2.3-1.2c-1.1-0.2-1.7-0.9-2.7-1.2c-2.4-0.8-4.8-0.5-7.4-0.3c-2.1,0.2-3.8-0.9-5.9-0.8
      c-1.8,0.2-3.2-0.5-4.8-0.5c-2.7,0.2-5.5,0.3-8,0.8c-2.4,0.5-4.8,0.3-7.3,0.5c-1.7,0.2-3.2,0.8-4.7,1.4c-2.1,0.8-4.5,0.5-6.7,1.1
      c-0.8,0.3-1.5,0.9-2.3,1.1s-1.5,0-2.3,0c-1.4,0.2-2.3,1.2-3,2.3c-0.9,1.4-1.1,1.4-2.4,2.1c-1.1,0.6-0.9,1.2-1.5,2.1
      c-1.1,1.4-2.9,1.5-3,3.5c0,1.1,0.2,1.7-0.3,2.6c-0.6,1.2-0.2,2,0.3,3.5c0.9,3.8,17,7.6,40,7.7c23,0,38.9-2.9,40.1-7.6
      c0.6-2,0.5-4.1-0.3-5.9c-0.8-1.5-1.4-3.6-2.9-4.7C139.4,95.1,138.8,94.8,138.4,94.5z"/>
    <path fill="#b27746" d="M139.9,95.4c-0.5-0.3-0.9-0.6-1.5-0.9c-0.5-0.3-0.8-0.5-1.2-0.8c-0.9-0.6-2-0.5-3-0.9
      c-1.4-0.6-1.8-2.1-3.2-2.7c-1.5-0.6-2.4,0-3.6-1.4c-1.1-1.1-0.8-0.9-2.3-1.2c-1.1-0.2-1.7-0.9-2.7-1.2c-2.4-0.8-4.8-0.5-7.4-0.3
      c-2.1,0.2-3.8-0.9-5.9-0.8c-1.8,0.2-3.2-0.5-4.8-0.5c-2.7,0.2-5.5,0.3-8,0.8c-2.4,0.5-4.8,0.3-7.3,0.5c-1.7,0.2-3.2,0.8-4.7,1.4
      c-2.1,0.8-4.5,0.5-6.7,1.1c-0.8,0.3-1.5,0.9-2.3,1.1s-1.5,0-2.3,0c-1.4,0.2-2.3,1.2-3,2.3c-0.9,1.4-1.1,1.4-2.4,2.1
      c-1.1,0.6-0.9,1.2-1.5,2.1c-1.1,1.4-2.9,1.5-3,3.5c0,1.1,0.2,1.7-0.3,2.6c0,0.2-0.2,0.3-0.2,0.3c2.7,2,9.4,3.9,18.9,5
      c0.1,0,0.2,0,0.3,0c0.8,0,1.7,0.1,2.6,0.3c0.2,0,0.3,0.1,0.5,0.1c7,2.7,13-0.4,19.9,0.6c0.1,0,0.2,0,0.3,0c6-0.1,11.4-0.4,16.2-0.8
      c0.1,0,0.2,0,0.3,0c6.6-0.1,12.7-0.1,17.6-4.1c0.1-0.1,0.2-0.1,0.3-0.2c1.2-0.7,1.9-1.5,2.1-2.4c0.3-1.1,0.5-2.1,0.3-3.2
      C141.3,96.9,140.6,96,139.9,95.4z"/>
    <path fill="#632c00" d="M75.9,98.6c-1.2,0.8-4.2,0.5-4.7-0.9c-0.5-1.7,2.3-3.3,2.6-3.3s0.3,0.5,0.8,0.9c0.5,0.6,1.2,0.8,1.2,1.4
      C76.2,97.2,76.9,98,75.9,98.6L75.9,98.6z"/>
    <path fill="#632c00" d="M113.7,89.1c-1.1,0.8-3.8,0.5-4.2-0.9c-0.5-1.7,2.1-3.5,2.3-3.5c0.3,0,0.3,0.5,0.6,0.9
      c0.3,0.6,1.1,0.8,1.1,1.4C114,87.5,114.4,88.4,113.7,89.1L113.7,89.1z"/>
    <path fill="#632c00" d="M128.2,106c1.5,0.9,5,0.3,5.5-1.7c0.5-2.3-5-3.3-5.5-3.3c-0.3,0-0.5,0.6-0.8,1.4
      C127,103.1,127.2,105.3,128.2,106C128.1,105.9,128.2,105.9,128.2,106z"/>
    <path fill="#632c00" d="M92.9,92.5c-0.2,0-0.5,0-0.6,0c-0.6,0.2-1.1,0.5-1.7,0.5c-0.2,0-0.3,0-0.3-0.2c-0.6-0.2-0.9-0.5-1.1-0.9
      c-0.2-0.6,0.2-1.2,0.8-1.7l0.2-0.2c0.2-0.2,0.3-0.2,0.3-0.3l0.2-0.2c0.3-0.3,0.8-0.5,1.2-0.6c0.2,0.8,0.6,1.4,1.2,2l0.2,0.2
      c0.2,0.3,0.3,0.5,0.2,0.8C93.4,92.2,93.2,92.5,92.9,92.5L92.9,92.5z"/>
    <path fill="#632c00" d="M84.8,97.2c-0.6,0.2-1.1,0.5-1.7,0.5c-0.2,0-0.3,0-0.3-0.2c-0.6-0.2-0.9-0.5-1.1-0.9
      c-0.2-0.6,1.4-1.7,1.5-1.7c0.3-0.3,0.8-0.5,1.2-0.6c0.2,0.8,1.5,2,1.5,2.3s-0.2,0.6-0.5,0.6C85.4,97.2,85,97.2,84.8,97.2z"/>
    <path fill="#632c00" d="M122.3,95.1c-0.2,0-0.5,0-0.6,0c-0.6,0.2-1.2,0.6-2,0.5c-0.2,0-0.3,0-0.5-0.2c-0.6-0.2-1.1-0.5-1.2-0.9
      c-0.3-0.8,0.2-1.4,0.8-2c0.2,0,0.2-0.2,0.3-0.2c0.2-0.2,0.3-0.3,0.5-0.3l0.2-0.2c0.3-0.3,2.1,0.8,2.7,1.5l0.2,0.2
      c0.2,0.3,0.3,0.6,0.2,0.9C122.8,94.7,122.8,95,122.3,95.1L122.3,95.1z"/>
    <path fill="#632c00" d="M134.6,98c0.2,0,0.3,0,0.6,0c0.6,0.2,1.1,0.5,1.7,0.5c0.2,0,0.2,0,0.3-0.2c0.6-0.2,0.9-0.5,1.1-0.8
      c0.2-0.6-0.2-1.2-0.6-1.7l-0.2-0.2c-0.2-0.2-0.3-0.2-0.3-0.3l-0.2-0.2c-0.3-0.3-1.8,0.6-2.3,1.4l-0.2,0.2c-0.2,0.2-0.2,0.5-0.2,0.8
      C134.3,97.7,134.3,98,134.6,98L134.6,98z"/>
    <path fill="#632c00" d="M98,93.3c0.2,0,0.4,0,0.8,0c0.8,0.2,1.4,0.6,2.3,0.6c0.2,0,0.2,0,0.4-0.2c0.8-0.2,1.2-0.6,1.4-1
      c0.2-0.8-0.2-1.7-0.8-2.3l-0.2-0.2c-0.2-0.2-0.4-0.2-0.4-0.4l-0.2-0.2c-0.4-0.4-2.5,0.8-3.1,1.9L98,91.7c-0.2,0.2-0.2,0.6-0.2,1
      C97.5,92.9,97.5,93.3,98,93.3L98,93.3z"/>
    <path fill="#632c00" d="M94.1,101.4c0.3,0,0.6,0,0.8,0c0.8,0.2,1.5,0.8,2.4,0.6c0.2,0,0.3,0,0.5-0.2c0.8-0.3,1.4-0.6,1.5-1.2
      c0.3-0.9-0.2-1.7-0.9-2.4c-0.2-0.2-0.2-0.2-0.3-0.3c-0.2-0.2-0.3-0.3-0.5-0.5c-0.2,0-0.2-0.2-0.3-0.2C97,97,94.7,98.2,94,99.1
      c0,0.2-0.2,0.2-0.2,0.3c-0.3,0.3-0.3,0.8-0.3,1.1C93.5,100.9,93.7,101.4,94.1,101.4C94,101.4,94.1,101.4,94.1,101.4z"/>
    <path fill="#632c00" d="M113.1,98.8c0.5,0,0.6-0.5,0.6-0.9c0-0.3,0-0.8-0.3-1.1c0-0.2-0.2-0.2-0.2-0.3c-0.8-0.9-3-2.1-3.3-1.8
      c-0.2,0-0.2,0.2-0.3,0.2c-0.2,0.2-0.3,0.3-0.5,0.5c-0.2,0.2-0.2,0.2-0.3,0.3c-0.8,0.8-1.2,1.5-0.9,2.4c0.2,0.6,0.8,0.9,1.5,1.2
      c0.2,0.2,0.3,0.2,0.5,0.2c0.9,0.2,1.7-0.5,2.4-0.6C112.5,98.8,112.8,98.8,113.1,98.8C113.1,98.8,113.3,98.8,113.1,98.8z"/>
    <path fill="#632c00" d="M120.3,104.2c-0.2,0-0.5,0-0.6,0c-0.6,0.2-1.2,0.6-2,0.5c-0.2,0-0.3,0-0.5-0.2c-0.6-0.2-1.1-0.5-1.2-0.9
      c-0.3-0.8,0.2-1.4,0.8-2c0.2,0,0.2-0.2,0.3-0.2c0.2-0.2,0.3-0.3,0.5-0.3l0.2-0.2c0.3-0.3,2.1,0.8,2.7,1.5l0.2,0.2
      c0.2,0.3,0.3,0.6,0.2,0.9C121,103.7,120.8,104,120.3,104.2C120.5,104.2,120.3,104.2,120.3,104.2z"/>
    <path fill="#632c00" d="M87.6,107.8c0.3,0,0.5,0,0.8,0c0.8,0.2,1.5,0.6,2.3,0.6c0.2,0,0.3,0,0.5-0.2c0.8-0.2,1.4-0.6,1.5-1.1
      c0.3-0.9-0.2-1.7-0.9-2.3c-0.8-0.6-2.4-1.2-3-1.4c-0.2,1.1-0.6,1.5-1.2,2.3c0,0.2-0.2,0.2-0.2,0.3c-0.3,0.3-0.3,0.6-0.3,1.1
      C87,107.4,87.2,107.7,87.6,107.8L87.6,107.8z"/>
  </g>
</svg>
