<svg version="1.1" id="Layer_1" xmlns="http://www.w3.org/2000/svg" xmlns:xlink="http://www.w3.org/1999/xlink" x="0px" y="0px"
   width="160px" height="160px" viewBox="-107 254 160 160" enable-background="new -107 254 160 160" xml:space="preserve">
<path fill="#DAEBF2" d="M-8.9,347c0-0.1,0-0.3,0-0.4v-0.1c0,0,0,0,0-0.1c0.3-5.7,0.5-11.9,1.8-32.1c0.1-2.4,0.3-5,0.4-7.7
  c0.1-1.4,0.2-2.7,0.2-4.1c-0.3,2.6-17.6,4.1-26.4,4.1s-26.6-1.5-27.1-4.1c0.1,1.3,0.1,2.7,0.2,4.1c0.2,4,0.5,7.8,0.8,11.2
  c0.6,8,1.2,17.5,1.6,28.8l0,0c0,0.9,0.1,1.9,0.1,2.9s0.1,2,0.1,3.1c0,0.5,0,1,0.1,1.4c0.2,4.7,0.4,10,0.7,15.6
  c0.5,10.1,1.2,19.2,1.8,25.8c0.1,1.3,9.5,4.4,22.5,4.4s20.4-3.1,20.5-4.4c0.5-6.6,1-15.7,1.6-25.8C-9.6,361.1-9.2,353.3-8.9,347z"/>
<path fill="#F4EDC3" d="M-36.4,301c-0.2-0.9-0.5-1.9-0.8-2.7c-2.2-5.3-7.5-9-13.6-9c-4.4,0.1-8.4,2.1-11,5.3
  c-2.1,2.6-3.4,5.9-3.4,9.5c0,0.6,0,0.8,0.1,1.4c4.1-0.2,8.5-0.4,12.9-1v-8.4h2.8l1.4,21.8c7.5-0.7,12-6.4,11.9-14.1
  C-36.1,302.8-36.2,301.9-36.4,301z"/>
<path fill="#CC8645" d="M-14.2,349.4c0-0.1,0.2-5.1,0.6-13.2h-39.1c0.2,3.5,0.4,7.2,0.5,11.3l0,0c0,0.8,0,1.1,0.1,1.9
  c0,0.8,0.1,2.1,0.1,3c0,0.4,0,0.8,0,1.1c0.1,3.8,0.3,8,0.6,12.5c0.4,8.1,0.9,15.3,1.4,20.6c0.1,1,7.4,3.5,17.7,3.5
  c10.2,0,16-2.5,16.1-3.5c0.4-5.3,0.8-12.6,1.3-20.6C-14.7,359.2-14.4,354.4-14.2,349.4z"/>
<path fill="#E5DBD8" d="M-13.5,336.3c-3.2,1.8-7.4,2.3-11,1.5c-0.4,0-0.8,0-1.1,0c-3-0.1-6-0.3-9.2,0.7c-0.3,0-0.7,0-1,0
  c-2.3,0-4.7-0.1-7.3-0.5c-0.4,0-0.8,0-1.2-0.1c-1.9-0.1-3.9-0.3-5.9-0.8c-0.3,0-0.6-0.1-0.9-0.2c-1-0.2-1.6-0.5-1.6-0.7
  c0-0.3,0.6-0.5,1.6-0.7c0.3-0.1,0.5-0.1,0.9-0.2c2-0.8,4-0.7,5.9-0.5c0.4,0,0.8,0.1,1.2,0.1c2.8,0.7,5.4,0.1,8-0.3
  c0.4-0.1,0.7-0.1,1.1-0.1c2.6-0.5,5.1-0.6,7.6-0.5c0.4,0,0.7,0,1.1,0.1c3.8,0.7,7.6,1.3,11.1,1.7C-13.8,336-13.5,336.1-13.5,336.3z"
  />
<path fill="#BAC3D7" d="M-19,336.5c-0.4,0.4-3.1,0.2-3.5-0.2l4.2-68.2l3.5,0.2L-19,336.5z"/>
<path fill="#85B1D4" d="M-32.8,298.6c-8.8,0-26.9,1.5-27.1,4.1c0.5,2.5,18.4,4.1,27.1,4.1c8.8,0,26.1-1.5,26.4-4.1
  C-6.4,300.1-24.1,298.6-32.8,298.6z"/>
<path fill="#CFDEE2" d="M-32.9,391.4c-7,0-21.6,1.5-21.8,4.1c0.4,2.5,14.7,4.4,21.8,4.4c8.1,0,19.3-1.3,21.2-4.4
  C-11.6,392.9-25.8,391.4-32.9,391.4z"/>
<path fill="#DAEBF2" d="M-32.9,299.9c-7.4,0-22.8,1-23,2.7c0.4,1.7,15.6,2.7,23,2.7s22.2-1,22.4-2.7
  C-10.4,300.9-25.4,299.9-32.9,299.9z"/>
<polygon fill="#E4B174" points="-43.7,342 -32.7,343.4 -32.7,352.6 -37.1,356.2 -48,354.7 -48,345.6 "/>
<path fill="#E5DBD8" d="M-32.7,342.9l-11-1.4c-0.1,0-0.3,0-0.4,0.1l-4.3,3.6c-0.1,0.1-0.2,0.2-0.2,0.4v9.2c0,0.2,0.2,0.4,0.4,0.5
  l11,1.4c0,0,0,0,0.1,0s0.2,0,0.3-0.1l4.3-3.6c0.1-0.1,0.2-0.2,0.2-0.4v-9.2C-32.3,343.1-32.4,342.9-32.7,342.9z M-43.6,342.5
  l2.1,0.3c-0.1,0.1-0.2,0.2-0.2,0.3c0.1,0.5,0.9,0.7,1.3,0.7c0.9,0.1,1.9,0.2,2.8,0.4c-0.4,0.3-0.7,0.6-1.1,0.9
  c-0.6,0.5,1.6,1.3,2.1,0.8c0.6-0.5,1.3-1.1,1.9-1.6c0.3-0.2,0-0.5-0.4-0.7l1.4,0.2l-3.6,3l-10-1.3L-43.6,342.5z M-47.6,345.9
  l10.3,1.3v8.5l-10.3-1.3C-47.6,354.3-47.6,345.9-47.6,345.9z M-36.8,355.3V347l3.6-3v8.3L-36.8,355.3z"/>
<path fill="#E5DBD8" d="M-42.5,347.2l-3.6-0.4c-0.2,0-0.5,0-0.7,0.2s-0.3,0.4-0.3,0.6v4.1c0,0.5,0.4,0.8,0.8,0.8
  c0.5,0,0.8-0.4,0.8-0.8v-3.2l2.6,0.3c0.5,0.1,0.9-0.3,0.9-0.7C-41.7,347.7-42,347.3-42.5,347.2z"/>
<path fill="#E5DBD8" d="M-39,347.8l-0.9-0.2c-0.5-0.1-0.9,0.2-1,0.7s0.2,0.9,0.7,1l0.9,0.2c0.1,0,0.1,0,0.2,0c0.4,0,0.7-0.3,0.8-0.7
  C-38.2,348.3-38.5,347.8-39,347.8z"/>
<polygon fill="#E4B174" points="-32.5,348.3 -21.5,346.7 -19,355.6 -22.2,360.2 -33.2,361.8 -35.7,352.9 "/>
<path fill="#E5DBD8" d="M-21.6,346.2l-11,1.6c-0.1,0-0.2,0.1-0.3,0.2l-3.2,4.6c-0.1,0.1-0.1,0.3-0.1,0.4l2.5,8.9
  c0.1,0.2,0.3,0.4,0.5,0.3l11-1.6c0,0,0,0,0.1,0s0.2-0.1,0.3-0.2l3.2-4.6c0.1-0.1,0.1-0.3,0.1-0.4l-2.5-8.9
  C-21.1,346.3-21.3,346.2-21.6,346.2z M-32.2,348.7l2.1-0.3c-0.1,0.1-0.2,0.2-0.1,0.4c0.3,0.4,1,0.4,1.5,0.3c0.9-0.1,1.9-0.3,2.8-0.4
  c-0.3,0.4-0.5,0.8-0.8,1.1c-0.4,0.6,1.9,0.8,2.3,0.2c0.5-0.7,1-1.4,1.4-2.1c0.2-0.3-0.1-0.5-0.5-0.5l1.4-0.2l-2.6,3.8l-10,1.4
  L-32.2,348.7z M-35.1,353.1l10.3-1.5l2.3,8.2l-10.3,1.5L-35.1,353.1z M-22.2,359.3l-2.2-8l2.7-3.9l2.2,8L-22.2,359.3z"/>
<path fill="#E5DBD8" d="M-26.3,352.6l-1,0.1c-0.5,0-0.8,0.4-0.8,0.9s0.4,0.8,0.9,0.8l1-0.1c0.1,0,0.1,0,0.2,0
  c0.4-0.1,0.6-0.5,0.6-0.9C-25.5,352.9-25.9,352.6-26.3,352.6z"/>
<polygon fill="#E4B174" points="-40.2,360.1 -29.2,358.5 -26.8,367.4 -30,372 -40.9,373.6 -43.4,364.7 "/>
<path fill="#E5DBD8" d="M-29.3,358l-11,1.6c-0.1,0-0.2,0.1-0.3,0.2l-3.2,4.6c-0.1,0.1-0.1,0.3-0.1,0.4l2.5,8.9
  c0.1,0.2,0.3,0.4,0.5,0.3l11-1.6c0,0,0,0,0.1,0s0.2-0.1,0.3-0.2l3.2-4.6c0.1-0.1,0.1-0.3,0.1-0.4l-2.5-8.9
  C-28.8,358.2-29.1,358-29.3,358z M-39.9,360.5l2.1-0.3c-0.1,0.1-0.2,0.2-0.1,0.4c0.3,0.4,1,0.4,1.5,0.3c0.9-0.1,1.9-0.3,2.8-0.4
  c-0.3,0.4-0.5,0.8-0.8,1.1c-0.4,0.6,1.9,0.8,2.3,0.2c0.5-0.7,1-1.4,1.4-2.1c0.2-0.3-0.1-0.5-0.5-0.5l1.4-0.2l-2.6,3.8l-10,1.4
  L-39.9,360.5z M-42.9,364.9l10.3-1.5l2.3,8.2l-10.3,1.5L-42.9,364.9z M-29.9,371.1l-2.2-8l2.7-3.9l2.2,8L-29.9,371.1z"/>
<path fill="#E5DBD8" d="M-34.1,364.4l-1,0.1c-0.5,0-0.8,0.4-0.8,0.9s0.4,0.8,0.9,0.8l1-0.1c0.1,0,0.1,0,0.2,0
  c0.4-0.1,0.6-0.5,0.6-0.9C-33.2,364.7-33.6,364.4-34.1,364.4z"/>
<polygon fill="#E4B174" points="-31.7,367.4 -32.6,356.3 -23.6,354.4 -19.2,357.9 -18.3,369 -27.3,370.9 "/>
<path fill="#E5DBD8" d="M-33,356.4l0.9,11c0,0.1,0.1,0.3,0.2,0.3l4.4,3.5c0.1,0.1,0.3,0.1,0.4,0.1l9-1.9c0.2,0,0.4-0.3,0.4-0.5
  l-0.9-11c0,0,0,0,0-0.1c0-0.1-0.1-0.2-0.2-0.3l-4.4-3.5c-0.1-0.1-0.3-0.1-0.4-0.1l-9,1.9C-32.9,355.9-33.1,356.1-33,356.4z
   M-31.2,367.1l-0.2-2.1c0.1,0.1,0.2,0.2,0.4,0.1c0.4-0.2,0.5-1,0.4-1.4c-0.1-0.9-0.1-1.9-0.2-2.8c0.4,0.3,0.7,0.6,1.1,0.9
  c0.6,0.4,1-1.8,0.4-2.3c-0.7-0.5-1.3-1-2-1.6c-0.3-0.2-0.5,0.1-0.6,0.5L-32,357l3.7,2.9l0.8,10.1L-31.2,367.1z M-27.1,370.3
  l-0.8-10.3l8.3-1.7l0.8,10.3L-27.1,370.3z"/>
<path fill="#E5DBD8" d="M-25.1,364.9c0-0.5-0.5-0.8-0.9-0.8c-0.5,0-0.8,0.5-0.8,0.9l0.3,3.6c0,0.2,0.1,0.5,0.3,0.6
  c0.2,0.1,0.4,0.2,0.7,0.1l4.1-0.9c0.5-0.1,0.7-0.5,0.6-1s-0.5-0.7-1-0.6l-3.1,0.7"/>
<path fill="#E5DBD8" d="M-27,361.5v1c0,0.5,0.4,0.8,0.8,0.8c0.5,0,0.8-0.4,0.8-0.8v-1c0-0.1,0-0.1,0-0.2c-0.1-0.4-0.4-0.7-0.8-0.7
  C-26.6,360.7-27,361.1-27,361.5z"/>
<polygon fill="#E4B174" points="-35.7,368.4 -44.5,375.1 -40,383.1 -34.4,384 -25.6,377.3 -30.2,369.3 "/>
<path fill="#E5DBD8" d="M-45,375.3l4.6,8c0.1,0.1,0.2,0.2,0.3,0.2l5.5,1c0.1,0,0.2,0,0.3-0.1l0,0l8.8-6.7c0.2-0.1,0.2-0.4,0.1-0.6
  l-4.6-8c-0.1-0.1-0.2-0.2-0.3-0.2l-5.5-1c-0.1,0-0.3,0-0.4,0.1l-8.8,6.7C-45,374.9-45.1,375.1-45,375.3z M-26.2,377.2l-8.3,6.3
  l-4.2-7.3l8.3-6.3L-26.2,377.2z M-39.7,382.6l-4.1-7.2l4.6,0.8l4.1,7.2L-39.7,382.6z"/>
<path fill="#E5DBD8" d="M-30.2,371.3l0.5,0.8c0.2,0.4,0.1,0.9-0.3,1.1s-0.9,0.1-1.1-0.3l-0.5-0.8c0,0,0-0.1-0.1-0.1
  c-0.1-0.4,0-0.8,0.4-1S-30.4,370.9-30.2,371.3z"/>
<path fill="#E5DBD8" d="M-31.1,374.2l0.2,0.4c0.1,0.2,0,0.5-0.2,0.6c-0.2,0.1-0.5,0-0.6-0.2l-0.2-0.4c0,0,0,0,0-0.1
  c-0.1-0.2,0-0.4,0.2-0.5C-31.4,374-31.2,374-31.1,374.2z"/>
<path fill="#E5DBD8" d="M-46.4,360.4v1c0,0.5-0.3,0.8-0.6,0.8c-0.4,0-0.6-0.4-0.6-0.8v-1c0-0.1,0-0.1,0-0.2c0.1-0.4,0.3-0.7,0.6-0.7
  C-46.7,359.6-46.4,359.9-46.4,360.4z"/>
<path fill="#E5DBD8" d="M-42.8,366.3v1.6c0,0.8-0.5,1.4-1.1,1.4s-1.1-0.6-1.1-1.4v-1.6c0-0.1,0-0.2,0-0.3c0.1-0.6,0.5-1.1,1-1.1
  C-43.3,364.9-42.8,365.5-42.8,366.3z"/>
<path fill="#E8C519" d="M-36.2,305.3c0.1-0.6,0.1-0.8,0.1-1.4c0-3.6-1.3-6.9-3.5-9.4c-2.7-3.1-6.6-5.1-11.1-5.1
  c-6.1,0-11.4,3.8-13.5,9.1c-0.4,0.9-0.6,1.8-0.8,2.7c-0.2,0.9-0.3,1.8-0.3,2.7c0,8,6.5,14.6,14.6,14.6c1.6,0,0-6.9,0-14.6v0.3
  C-45.8,305-40.8,305.1-36.2,305.3z"/>
<path fill="#F5EBA5" d="M-50.7,292.1c-6.6,0-11.9,5.3-11.9,11.9c0,6.6,5.3,11.9,11.9,11.9c1,0,0-6,0-11.9v0.3c4,0.6,7.6,0.8,11.8,1
  c0.1-0.5,0.1-0.8,0.1-1.3C-38.8,297.4-44.1,292.1-50.7,292.1z"/>
<polygon fill="#BAC3D7" points="-17.1,304.4 -20.6,304.8 -18.3,268.1 -14.9,268.3 "/>
</svg>
