<svg xmlns="http://www.w3.org/2000/svg" width="160px" height="160px" viewBox="0 0 160 160"
  role="img" aria-labelledby="title" aria-describedby="desc">
  <title id="title">Desktop computer</title>
  <desc id="desc">A desktop computer with a blank screen</desc>
  <path fill="#cccccc" d="M98.8000031,135.5c0.0999985,1.5,1.3000031,2.6000061,2.8000031,2.7000122l10.5,0.7999878v1h-64v-1
    L59.5,138.2000122c1.5-0.1000061,2.6000061-1.2999878,2.8000031-2.7000122l1.8000031-20.3999939h33L98.8000031,135.5z"/>
  <rect x="48" y="139" fill="#e0e0e0" width="64" height="1"/>
  <path fill="#383838" d="M152,116H8V23c0-1.7000122,1.3000031-3,3-3h138c1.6999969,0,3,1.2999878,3,3V116z"/>
  <path fill="#e0e0e0" d="M149,124H11c-1.6999969,0-3-1.2999878-3-3v-13h144v13C152,122.7000122,150.6999969,124,149,124z"/>
  <rect x="16" y="28" fill="#f9f9f9" width="128" height="72"/>
  <circle fill="#2b2b2b" cx="80" cy="24.5" r="0.5"/>
  <circle fill="#383838" cx="80" cy="24.5" r="0.2000122"/>
  <circle fill="#cccccc" cx="80" cy="116" r="4"/>
</svg>
