<svg xmlns="http://www.w3.org/2000/svg" width="160px" height="160px" viewBox="0 0 160 160" role="img" aria-labelledby="title" aria-describedby="desc">
  <title id="title">Tower desktop computer</title>
  <desc id="desc">The back view of a modern tower desktop computer with an assortment of ports</desc>>
  <path fill="#2b2b2b" d="M111,16H49c-5.5,0-10,4.5-10,10v108c0,5.5,10.5,10,23.5,10h35c13,0,23.5-4.5,23.5-10V26
    C121,20.5,116.5,16,111,16z"/>
  <path fill="#262626" d="M49,16c-5.5,0-10,4.5-10,10v107.7c0,0.2,2.6,0.7,7,1V26c0-5.5,4.5-10,10-10H49z"/>
  <path fill="#202020" d="M87,127H73c-3.3,0-6-2.7-6-6V55c0-3.3,2.7-6,6-6h14c3.3,0,6,2.7,6,6v66C93,124.3,90.3,127,87,127z"/>
  <path fill="#383838" d="M87,126.5H73c-3,0-5.5-2.5-5.5-5.5V55c0-3,2.5-5.5,5.5-5.5h14c3,0,5.5,2.5,5.5,5.5v66
    C92.5,124,90,126.5,87,126.5z"/>
  <circle fill="#202020" cx="75" cy="61" r="0.8"/>
  <circle fill="#202020" cx="85" cy="61" r="0.8"/>
  <path fill="#444444" d="M90,94H70c-0.6,0-1,0.4-1,1v6c0,0.6,0.4,1,1,1h20c0.6,0,1-0.4,1-1v-6C91,94.4,90.6,94,90,94z"/>
  <path fill="#aaaaaa" d="M89.6,94.7H70.4c-0.4,0-0.7,0.3-0.7,0.7v5.2c0,0.4,0.3,0.7,0.7,0.7h19.2c0.4,0,0.7-0.3,0.7-0.7v-5.2
    C90.3,95,90,94.7,89.6,94.7z"/>
  <path fill="#2b2b2b" d="M89.5,95h-19c-0.3,0-0.5,0.2-0.5,0.5v5c0,0.3,0.2,0.5,0.5,0.5h19c0.3,0,0.5-0.2,0.5-0.5v-5
    C90,95.2,89.8,95,89.5,95z"/>
  <path fill="#444444" d="M90,66H70c-0.6,0-1,0.4-1,1v7c0,0.6,0.4,1,1,1h20c0.6,0,1-0.4,1-1v-7C91,66.4,90.6,66,90,66z"/>
  <path fill="#aaaaaa" d="M89.6,66.7H70.4c-0.4,0-0.7,0.3-0.7,0.7v6.2c0,0.4,0.3,0.7,0.7,0.7h19.2c0.4,0,0.7-0.3,0.7-0.7v-6.2
    C90.3,67,90,66.7,89.6,66.7z"/>
  <path fill="#2b2b2b" d="M89.5,67h-19c-0.3,0-0.5,0.2-0.5,0.5v6c0,0.3,0.2,0.5,0.5,0.5h19c0.3,0,0.5-0.2,0.5-0.5v-6
    C90,67.2,89.8,67,89.5,67z"/>
  <path fill="#262626" d="M88,111H72c-0.6,0-1,0.4-1,1v10c0,0.6,0.4,1,1,1h16c0.6,0,1-0.4,1-1v-10C89,111.4,88.6,111,88,111z"/>
  <path fill="#2b2b2b" d="M88,111.5H72c-0.3,0-0.5,0.2-0.5,0.5v10c0,0.3,0.2,0.5,0.5,0.5h16c0.3,0,0.5-0.2,0.5-0.5v-10
    C88.5,111.7,88.3,111.5,88,111.5z"/>
  <path fill="#444444" d="M90,92H70c-0.6,0-1-0.4-1-1V79c0-0.6,0.4-1,1-1h20c0.6,0,1,0.4,1,1v12C91,91.6,90.6,92,90,92z"/>
  <path fill="#aaaaaa" d="M89.5,91.2H70.4c-0.4,0-0.7-0.3-0.7-0.7V79.4c0-0.4,0.3-0.7,0.7-0.7h19.1c0.4,0,0.7,0.3,0.7,0.7v11.1
    C90.2,90.9,89.9,91.2,89.5,91.2z"/>
  <path fill="#2b2b2b" d="M89.5,91H70.4c-0.2,0-0.5-0.2-0.5-0.5V79.4c0-0.2,0.2-0.5,0.5-0.5h19.1c0.2,0,0.5,0.2,0.5,0.5v11.1
    C90,90.8,89.8,91,89.5,91z"/>
  <circle fill="#2b2b2b" cx="86" cy="106" r="2"/>
  <path fill="#ffffff" d="M86.5,105v0.3c0.2,0.2,0.4,0.4,0.4,0.7c0,0.5-0.4,0.9-0.9,0.9s-0.9-0.4-0.9-0.9c0-0.3,0.2-0.5,0.4-0.7V105
    c-0.4,0.2-0.6,0.6-0.6,1c0,0.6,0.5,1.1,1.1,1.1s1.1-0.5,1.1-1.1C87.1,105.6,86.9,105.2,86.5,105z"/>
  <rect x="85.9" y="104.5" fill="#ffffff" width="0.2" height="1.5"/>
  <path fill="#202020" d="M85.9,118.1l-2.7,2.7c-0.1,0.1-0.2,0.1-0.4,0.1h-5.6c-0.1,0-0.3-0.1-0.4-0.1l-2.7-2.7c-0.1-0.1-0.1-0.2-0.1-0.4
    v-4.3c0-0.3,0.2-0.5,0.5-0.5h11c0.3,0,0.5,0.2,0.5,0.5v4.3C86,117.9,85.9,118.1,85.9,118.1z"/>
  <circle fill="#cccccc" cx="80" cy="97.5" r="0.5"/>
  <path fill="#aaaaaa" d="M76.5,116.5L76.5,116.5c-0.1,0-0.2-0.1-0.2-0.2v-1.5c0-0.1,0.1-0.2,0.2-0.2l0,0c0.1,0,0.2,0.1,0.2,0.2v1.5
    C76.8,116.4,76.6,116.5,76.5,116.5z"/>
  <path fill="#aaaaaa" d="M83.5,116.5L83.5,116.5c-0.1,0-0.2-0.1-0.2-0.2v-1.5c0-0.1,0.1-0.2,0.2-0.2l0,0c0.1,0,0.2,0.1,0.2,0.2v1.5
    C83.8,116.4,83.6,116.5,83.5,116.5z"/>
  <path fill="#aaaaaa" d="M80,119.5L80,119.5c-0.1,0-0.2-0.1-0.2-0.2v-2c0-0.1,0.1-0.2,0.2-0.2l0,0c0.1,0,0.2,0.1,0.2,0.2v2
    C80.2,119.4,80.1,119.5,80,119.5z"/>
  <path fill="#202020" d="M59.3,49c-0.2,0-3.5,0-3.7,0c-2,0-3.7,1.8-3.7,4s1.6,4,3.7,4c0.2,0,3.5,0,3.7,0c2,0,3.7-1.8,3.7-4
    S61.4,49,59.3,49z"/>
  <path fill="#202020" d="M59.3,49c-0.2,0-3.5,0-3.7,0c-2,0-3.7,1.8-3.7,4s1.6,4,3.7,4c0.2,0,3.5,0,3.7,0c2,0,3.7-1.8,3.7-4
    S61.4,49,59.3,49z"/>
  <ellipse fill="#383838" cx="55.5" cy="53" rx="3.5" ry="4"/>
  <circle fill="#aaaaaa" cx="80" cy="38" r="5"/>
  <path fill="#cccccc" d="M76.5,34.5c2-2,5.1-2,7.1,0s2,5.1,0,7.1L76.5,34.5z"/>
  <polygon fill="#202020" points="79,105 78,106 72,106 71,105 71,104 79,104 "/>
  <polygon fill="#aaaaaa" points="74,58 76,57 76,59 "/>
  <polygon fill="#aaaaaa" points="84,59 84,57 86,57 86,59 85,58 "/>
  <polygon fill="#cccccc" points="80,82 79,84 81,84 80,86 "/>
  <polygon fill="#cccccc" points="79,98 78,97.5 79,97 "/>
  <polygon fill="#cccccc" points="81,98 82,97.5 81,97 "/>
  <polygon fill="#cccccc" points="81,69 79,69 79.8,70.5 79.8,72 80.2,72 80.2,70.5 "/>
  <path fill="#aaaaaa" d="M77,107c-0.2,0-0.4,0.2-0.5,0.4h-1.1c-0.1-0.2-0.2-0.4-0.5-0.4c-0.2,0-0.4,0.2-0.5,0.4h-1.1
    c-0.1-0.2-0.2-0.4-0.5-0.4s-0.5,0.2-0.5,0.5s0.2,0.5,0.5,0.5c0.2,0,0.4-0.2,0.5-0.4h1.1c0.1,0.2,0.2,0.4,0.5,0.4
    c0.2,0,0.4-0.2,0.5-0.4h1.1c0.1,0.2,0.2,0.4,0.5,0.4s0.5-0.2,0.5-0.5S77.3,107,77,107z"/>
  <polygon fill="#202020" points="75,97 75,96 73,96 73,97 72,97 72,100 76,100 76,97 "/>
  <polygon fill="#202020" points="87,97 87,96 85,96 85,97 84,97 84,100 88,100 88,97 "/>
  <polygon fill="#202020" points="76,88 75,89 73,89 72,88 72,87 76,87 "/>
  <polygon fill="#202020" points="76,82 75,83 73,83 72,82 72,81 76,81 "/>
  <polygon fill="#202020" points="76,85 75,86 73,86 72,85 72,84 76,84 "/>
  <polygon fill="#202020" points="88,88 87,89 85,89 84,88 84,87 88,87 "/>
  <polygon fill="#202020" points="88,82 87,83 85,83 84,82 84,81 88,81 "/>
  <polygon fill="#202020" points="88,85 87,86 85,86 84,85 84,84 88,84 "/>
  <rect x="72" y="71" fill="#202020" width="5" height="2"/>
  <rect x="72" y="68" fill="#202020" width="5" height="2"/>
  <rect x="83" y="68" fill="#202020" width="5" height="2"/>
  <rect x="83" y="71" fill="#202020" width="5" height="2"/>
  <path fill="#444444" d="M60.8,54L60.8,54c-0.1,0-0.2-0.1-0.2-0.2v-1.5c0-0.1,0.1-0.2,0.2-0.2l0,0c0.1,0,0.2,0.1,0.2,0.2v1.5
    C61,53.9,60.9,54,60.8,54z"/>
  <path fill="#202020" d="M80,138c-0.6,0-1,0.4-1,1v5h2v-5C81,138.4,80.6,138,80,138z"/>
  <path fill="#202020" d="M83,138c-0.6,0-1,0.4-1,1v5h2v-5C84,138.4,83.6,138,83,138z"/>
  <path fill="#202020" d="M86,138c-0.6,0-1,0.4-1,1v5l2-1v-4C87,138.4,86.6,138,86,138z"/>
  <path fill="#202020" d="M89,138c-0.6,0-1,0.4-1,1v5l2-1v-4C90,138.4,89.6,138,89,138z"/>
  <path fill="#202020" d="M92,138c-0.6,0-1,0.4-1,1v5l2-2v-3C93,138.4,92.6,138,92,138z"/>
  <path fill="#202020" d="M95,138c-0.6,0-1,0.4-1,1v5l2-2v-3C96,138.4,95.6,138,95,138z"/>
  <path fill="#202020" d="M98,138c-0.6,0-1,0.4-1,1v5l2-2v-3C99,138.4,98.6,138,98,138z"/>
  <path fill="#202020" d="M101,138c-0.6,0-1,0.4-1,1v4l2-2v-2C102,138.4,101.6,138,101,138z"/>
  <path fill="#202020" d="M104,138c-0.6,0-1,0.4-1,1v4l2-3v-1C105,138.4,104.6,138,104,138z"/>
  <path fill="#202020" d="M108,139c0-0.6-0.4-1-1-1s-1,0.4-1,1v3l1.4-2.1C107.7,139.8,108,139.4,108,139z"/>
  <path fill="#202020" d="M110,138c-0.6,0-1,0.4-1,1v2l1-1c0.6,0,1-0.4,1-1S110.6,138,110,138z"/>
  <circle fill="#202020" cx="113" cy="139" r="1"/>
  <path fill="#202020" d="M77,138c-0.6,0-1,0.4-1,1v5h2v-5C78,138.4,77.6,138,77,138z"/>
  <path fill="#202020" d="M74,138c-0.6,0-1,0.4-1,1v4l2,1v-5C75,138.4,74.6,138,74,138z"/>
  <path fill="#202020" d="M71,138c-0.6,0-1,0.4-1,1v4l2,1v-5C72,138.4,71.6,138,71,138z"/>
  <path fill="#202020" d="M68,138c-0.6,0-1,0.4-1,1v3l2,2v-5C69,138.4,68.6,138,68,138z"/>
  <path fill="#202020" d="M65,138c-0.6,0-1,0.4-1,1v3l2,2v-5C66,138.4,65.6,138,65,138z"/>
  <path fill="#202020" d="M62,138c-0.6,0-1,0.4-1,1v3l2,2v-5C63,138.4,62.6,138,62,138z"/>
  <path fill="#202020" d="M59,138c-0.6,0-1,0.4-1,1v2l2,2v-4C60,138.4,59.6,138,59,138z"/>
  <path fill="#202020" d="M56,138c-0.6,0-1,0.4-1,1v1l2,3v-4C57,138.4,56.6,138,56,138z"/>
  <path fill="#202020" d="M54,139c0-0.6-0.4-1-1-1s-1,0.4-1,1c0,0.4,0.3,0.8,0.6,0.9L54,142V139z"/>
  <path fill="#202020" d="M50,138c-0.6,0-1,0.4-1,1s0.4,1,1,1l1,1v-2C51,138.4,50.6,138,50,138z"/>
  <circle fill="#202020" cx="47" cy="139" r="1"/>
  <rect x="112" y="139" fill="#202020" width="1" height="1"/>
  <rect x="47" y="139" fill="#202020" width="1" height="1"/>
  <path fill="#202020" d="M80,135.2c-22.9,0-39.4-0.9-41-1.8v0.5c1,0.4,3.9,0.8,11.9,1.2c7.9,0.4,18.2,0.6,29.2,0.6
    c10.9,0,21.3-0.2,29.1-0.6c8-0.4,10.8-0.8,11.8-1.2v-0.5C119.4,134.4,102.9,135.2,80,135.2z"/>
</svg>
