<?xml version="1.0" encoding="utf-8"?>
<!DOCTYPE svg PUBLIC "-//W3C//DTD SVG 1.1//EN" "http://www.w3.org/Graphics/SVG/1.1/DTD/svg11.dtd">
<svg version="1.1" id="Layer_1" xmlns="http://www.w3.org/2000/svg" xmlns:xlink="http://www.w3.org/1999/xlink" x="0px" y="0px"
  width="160px" height="160px" viewBox="-219 321 160 160" enable-background="new -219 321 160 160" xml:space="preserve">
  <polygon fill="#E5D6B7" points="-124,461 -126,450 -126,448 -120,448 -120,450 -122,461 -123,462 "/>
  <polygon fill="#DEAC00" points="-126,338 -120,338 -120,450 -121,449 -122,450 -123,449 -124,450 -125,449 -126,450 "/>
  <polygon fill="#E5D6B7" points="-169,461 -172,447 -172,445 -164,445 -164,447 -167,461 -168,462 "/>
  <path fill="#DEAC00" d="M-171,337h6c0.6,0,1,0.4,1,1v109l-1-1l-1,1l-1-1l-1,1l-1-1l-1,1l-1-1l-1,1V338C-172,337.4-171.6,337-171,337
    z"/>
  <rect x="-171" y="348" fill="#E5C15C" width="5" height="95"/>
  <path fill="#FF9999" d="M-171,337h6c0.6,0,1,0.4,1,1v6h-8v-6C-172,337.4-171.6,337-171,337z"/>
  <rect x="-172" y="344" fill="#555555" width="8" height="9"/>
  <g>
    <path fill="#444444" d="M-168,367h-1c-0.6,0-1-0.4-1-1v-4c0-0.6,0.4-1,1-1h1c0.6,0,1,0.4,1,1v4C-167,366.6-167.4,367-168,367z"/>
    <path fill="#444444" d="M-168.5,373h-1c-0.3,0-0.5-0.2-0.5-0.5l0,0c0-0.3,0.2-0.5,0.5-0.5h1c0.3,0,0.5,0.2,0.5,0.5l0,0
      C-168,372.8-168.2,373-168.5,373z"/>
    <path fill="#444444" d="M-167.5,379h-2c-0.3,0-0.5-0.2-0.5-0.5l0,0c0-0.3,0.2-0.5,0.5-0.5h2c0.3,0,0.5,0.2,0.5,0.5l0,0
      C-167,378.8-167.2,379-167.5,379z"/>
    <path fill="#444444" d="M-167.5,381h-2c-0.3,0-0.5-0.2-0.5-0.5l0,0c0-0.3,0.2-0.5,0.5-0.5h2c0.3,0,0.5,0.2,0.5,0.5l0,0
      C-167,380.8-167.2,381-167.5,381z"/>
    <path fill="#444444" d="M-170,376.5v-2c0-0.3,0.2-0.5,0.5-0.5l0,0c0.3,0,0.5,0.2,0.5,0.5v2c0,0.3-0.2,0.5-0.5,0.5l0,0
      C-169.8,377-170,376.8-170,376.5z"/>
    <circle fill="#444444" cx="-167.5" cy="376.5" r="0.5"/>
    <path fill="#444444" d="M-167.5,369h-2c-0.3,0-0.5-0.2-0.5-0.5l0,0c0-0.3,0.2-0.5,0.5-0.5h2c0.3,0,0.5,0.2,0.5,0.5l0,0
      C-167,368.8-167.2,369-167.5,369z"/>
    <path fill="#444444" d="M-167.5,371h-2c-0.3,0-0.5-0.2-0.5-0.5l0,0c0-0.3,0.2-0.5,0.5-0.5h2c0.3,0,0.5,0.2,0.5,0.5l0,0
      C-167,370.8-167.2,371-167.5,371z"/>
    <path fill="#444444" d="M-167.5,375h-2c-0.3,0-0.5-0.2-0.5-0.5l0,0c0-0.3,0.2-0.5,0.5-0.5h2c0.3,0,0.5,0.2,0.5,0.5l0,0
      C-167,374.8-167.2,375-167.5,375z"/>
    <circle fill="#FFFFFF" cx="-168.5" cy="365.5" r="0.5"/>
  </g>
  <rect x="-171" y="444" fill="#EEEEEE" width="5" height="1"/>
  <rect x="-172" y="354" fill="#444444" width="8" height="1"/>
  <rect x="-172" y="343" fill="#444444" width="8" height="1"/>
  <path fill="#444444" d="M-169,461l0.8,3.8c0.1,0.3,0.4,0.3,0.5,0l0.8-3.8H-169z"/>
  <rect x="-171" y="354" fill="#777777" width="5" height="1"/>
  <rect x="-171" y="344" fill="#777777" width="4" height="9"/>
  <circle fill="#444444" cx="-169.5" cy="351.5" r="0.5"/>
  <circle fill="#444444" cx="-169.5" cy="348.5" r="0.5"/>
  <circle fill="#444444" cx="-169.5" cy="345.5" r="0.5"/>
  <circle fill="#444444" cx="-165.5" cy="351.5" r="0.5"/>
  <circle fill="#444444" cx="-165.5" cy="348.5" r="0.5"/>
  <circle fill="#444444" cx="-165.5" cy="345.5" r="0.5"/>
  <rect x="-171" y="343" fill="#555555" width="5" height="1"/>
  <polygon fill="#E5D6B7" points="-138,461 -140,450 -140,448 -134,448 -134,450 -136,461 -137,462 "/>
  <path fill="#DEAC00" d="M-139,337h4c0.6,0,1,0.4,1,1l0,112l-1-1l-1,1l-1-1l-1,1l-1-1l-1,1V338C-140,337.4-139.6,337-139,337z"/>
  <polygon fill="#E5C15C" points="-139,348 -135,348 -135,448 -136,449 -137,448 -138,449 -139,448 "/>
  <path fill="#FF9999" d="M-139,337h4c0.6,0,1,0.4,1,1v6h-6v-6C-140,337.4-139.6,337-139,337z"/>
  <rect x="-140" y="344" fill="#555555" width="6" height="9"/>
  <rect x="-140" y="354" fill="#444444" width="6" height="1"/>
  <rect x="-140" y="343" fill="#444444" width="6" height="1"/>
  <path fill="#444444" d="M-138,461l0.8,3.8c0,0.3,0.3,0.3,0.4,0l0.8-3.8H-138z"/>
  <rect x="-139" y="354" fill="#777777" width="4" height="1"/>
  <rect x="-139" y="344" fill="#777777" width="4" height="9"/>
  <circle fill="#444444" cx="-137.5" cy="351.5" r="0.5"/>
  <circle fill="#444444" cx="-137.5" cy="348.5" r="0.5"/>
  <circle fill="#444444" cx="-137.5" cy="345.5" r="0.5"/>
  <rect x="-139" y="343" fill="#555555" width="4" height="1"/>
  <polygon fill="#E5D6B7" points="-153,461 -156,447 -156,445 -148,445 -148,447 -151,461 -152,462 "/>
  <polygon fill="#DEAC00" points="-156,338 -148,338 -148,447 -149,446 -150,447 -151,446 -152,447 -153,446 -154,447 -155,446
    -156,447 "/>
  <path fill="#E5C15C" d="M-153,340h3v102c0,0.6-0.4,1-1,1h-3V341C-154,340.4-153.6,340-153,340z"/>
  <g>
    <path fill="#444444" d="M-152,352L-152,352c-0.6,0-1-0.4-1-1v-3c0-0.6,0.4-1,1-1l0,0c0.6,0,1,0.4,1,1v3
      C-151,351.6-151.4,352-152,352z"/>
    <path fill="#444444" d="M-151.5,358h-1c-0.3,0-0.5-0.2-0.5-0.5l0,0c0-0.3,0.2-0.5,0.5-0.5h1c0.3,0,0.5,0.2,0.5,0.5l0,0
      C-151,357.8-151.2,358-151.5,358z"/>
    <path fill="#444444" d="M-153,361.5v-2c0-0.3,0.2-0.5,0.5-0.5l0,0c0.3,0,0.5,0.2,0.5,0.5v2c0,0.3-0.2,0.5-0.5,0.5l0,0
      C-152.8,362-153,361.8-153,361.5z"/>
    <path fill="#444444" d="M-151.5,354h-1c-0.3,0-0.5-0.2-0.5-0.5l0,0c0-0.3,0.2-0.5,0.5-0.5h1c0.3,0,0.5,0.2,0.5,0.5l0,0
      C-151,353.8-151.2,354-151.5,354z"/>
    <path fill="#444444" d="M-151.5,356h-1c-0.3,0-0.5-0.2-0.5-0.5l0,0c0-0.3,0.2-0.5,0.5-0.5h1c0.3,0,0.5,0.2,0.5,0.5l0,0
      C-151,355.8-151.2,356-151.5,356z"/>
    <path fill="#444444" d="M-151.5,360h-1c-0.3,0-0.5-0.2-0.5-0.5l0,0c0-0.3,0.2-0.5,0.5-0.5h1c0.3,0,0.5,0.2,0.5,0.5l0,0
      C-151,359.8-151.2,360-151.5,360z"/>
    <path fill="#444444" d="M-151.5,364h-1c-0.3,0-0.5-0.2-0.5-0.5l0,0c0-0.3,0.2-0.5,0.5-0.5h1c0.3,0,0.5,0.2,0.5,0.5l0,0
      C-151,363.8-151.2,364-151.5,364z"/>
    <path fill="#444444" d="M-151.5,366h-1c-0.3,0-0.5-0.2-0.5-0.5l0,0c0-0.3,0.2-0.5,0.5-0.5h1c0.3,0,0.5,0.2,0.5,0.5l0,0
      C-151,365.8-151.2,366-151.5,366z"/>
  </g>
  <g>
    <path fill="#444444" d="M-137,361L-137,361c-0.6,0-1-0.4-1-1v-3c0-0.6,0.4-1,1-1l0,0c0.6,0,1,0.4,1,1v3
      C-136,360.6-136.4,361-137,361z"/>
    <path fill="#444444" d="M-136.5,367h-1c-0.3,0-0.5-0.2-0.5-0.5l0,0c0-0.3,0.2-0.5,0.5-0.5h1c0.3,0,0.5,0.2,0.5,0.5l0,0
      C-136,366.8-136.2,367-136.5,367z"/>
    <path fill="#444444" d="M-138,370.5v-2c0-0.3,0.2-0.5,0.5-0.5l0,0c0.3,0,0.5,0.2,0.5,0.5v2c0,0.3-0.2,0.5-0.5,0.5l0,0
      C-137.8,371-138,370.8-138,370.5z"/>
    <path fill="#444444" d="M-136.5,363h-1c-0.3,0-0.5-0.2-0.5-0.5l0,0c0-0.3,0.2-0.5,0.5-0.5h1c0.3,0,0.5,0.2,0.5,0.5l0,0
      C-136,362.8-136.2,363-136.5,363z"/>
    <path fill="#444444" d="M-136.5,365h-1c-0.3,0-0.5-0.2-0.5-0.5l0,0c0-0.3,0.2-0.5,0.5-0.5h1c0.3,0,0.5,0.2,0.5,0.5l0,0
      C-136,364.8-136.2,365-136.5,365z"/>
    <path fill="#444444" d="M-136.5,369h-1c-0.3,0-0.5-0.2-0.5-0.5l0,0c0-0.3,0.2-0.5,0.5-0.5h1c0.3,0,0.5,0.2,0.5,0.5l0,0
      C-136,368.8-136.2,369-136.5,369z"/>
    <path fill="#444444" d="M-136.5,373h-1c-0.3,0-0.5-0.2-0.5-0.5l0,0c0-0.3,0.2-0.5,0.5-0.5h1c0.3,0,0.5,0.2,0.5,0.5l0,0
      C-136,372.8-136.2,373-136.5,373z"/>
    <path fill="#444444" d="M-136.5,375h-1c-0.3,0-0.5-0.2-0.5-0.5l0,0c0-0.3,0.2-0.5,0.5-0.5h1c0.3,0,0.5,0.2,0.5,0.5l0,0
      C-136,374.8-136.2,375-136.5,375z"/>
  </g>
  <rect x="-154" y="444" fill="#EEEEEE" width="4" height="1"/>
  <path fill="#444444" d="M-153,461l0.8,3.8c0.1,0.3,0.4,0.3,0.5,0l0.8-3.8H-153z"/>
  <polygon fill="#E5D6B7" points="-150,339 -154,339 -156,338 -148,338 "/>
  <polygon fill="#E5D6B7" points="-150,337 -154,337 -156,338 -148,338 "/>
  <polygon fill="#444444" points="-151,337.5 -153,337.5 -154,338 -153,338.5 -151,338.5 -150,338 "/>
  <polygon fill="#E5D6B7" points="-121,337 -125,337 -126,338 -125,339 -121,339 -120,338 "/>
  <circle fill="#FFFFFF" cx="-137" cy="360" r="0.5"/>
  <path fill="#E5C15C" d="M-124,340h3v107.9l-1,1.1l-1-1.1l-1,1.1l-1-1.1V341C-125,340.4-124.6,340-124,340z"/>
  <path fill="#444444" d="M-124,461l0.8,3.8c0,0.3,0.3,0.3,0.4,0l0.8-3.8H-124z"/>
  <g>
    <path fill="#444444" d="M-123,352L-123,352c-0.6,0-1-0.4-1-1v-3c0-0.6,0.4-1,1-1l0,0c0.6,0,1,0.4,1,1v3
      C-122,351.6-122.4,352-123,352z"/>
    <path fill="#444444" d="M-122.5,358h-1c-0.3,0-0.5-0.2-0.5-0.5l0,0c0-0.3,0.2-0.5,0.5-0.5h1c0.3,0,0.5,0.2,0.5,0.5l0,0
      C-122,357.8-122.2,358-122.5,358z"/>
    <path fill="#444444" d="M-124,361.5v-2c0-0.3,0.2-0.5,0.5-0.5l0,0c0.3,0,0.5,0.2,0.5,0.5v2c0,0.3-0.2,0.5-0.5,0.5l0,0
      C-123.8,362-124,361.8-124,361.5z"/>
    <path fill="#444444" d="M-122.5,354h-1c-0.3,0-0.5-0.2-0.5-0.5l0,0c0-0.3,0.2-0.5,0.5-0.5h1c0.3,0,0.5,0.2,0.5,0.5l0,0
      C-122,353.8-122.2,354-122.5,354z"/>
    <path fill="#444444" d="M-122.5,356h-1c-0.3,0-0.5-0.2-0.5-0.5l0,0c0-0.3,0.2-0.5,0.5-0.5h1c0.3,0,0.5,0.2,0.5,0.5l0,0
      C-122,355.8-122.2,356-122.5,356z"/>
    <path fill="#444444" d="M-122.5,360h-1c-0.3,0-0.5-0.2-0.5-0.5l0,0c0-0.3,0.2-0.5,0.5-0.5h1c0.3,0,0.5,0.2,0.5,0.5l0,0
      C-122,359.8-122.2,360-122.5,360z"/>
    <path fill="#444444" d="M-122.5,364h-1c-0.3,0-0.5-0.2-0.5-0.5l0,0c0-0.3,0.2-0.5,0.5-0.5h1c0.3,0,0.5,0.2,0.5,0.5l0,0
      C-122,363.8-122.2,364-122.5,364z"/>
    <path fill="#444444" d="M-122.5,366h-1c-0.3,0-0.5-0.2-0.5-0.5l0,0c0-0.3,0.2-0.5,0.5-0.5h1c0.3,0,0.5,0.2,0.5,0.5l0,0
      C-122,365.8-122.2,366-122.5,366z"/>
    <circle fill="#FFFFFF" cx="-123" cy="351" r="0.5"/>
  </g>
  <circle fill="#FFFFFF" cx="-152" cy="351" r="0.5"/>
  <polygon fill="#444444" points="-122,337.5 -124,337.5 -124.5,338 -124,338.5 -122,338.5 -121.5,338 "/>
  <polygon fill="#E5D6B7" points="-110,461 -112,450 -112,448 -106,448 -106,450 -108,461 -109,462 "/>
  <polygon fill="#B23C2D" points="-112,338 -106,338 -106,450 -107,449 -108,450 -109,449 -110,450 -111,449 -112,450 "/>
  <polygon fill="#E5D6B7" points="-107,337 -111,337 -112,338 -111,339 -107,339 -106,338 "/>
  <path fill="#DD5136" d="M-110,340h3v107.9l-1,1.1l-1-1.1l-1,1.1l-1-1.1V341C-111,340.4-110.6,340-110,340z"/>
  <path fill="#DD5136" d="M-110,461l0.8,3.8c0,0.3,0.3,0.3,0.4,0l0.8-3.8H-110z"/>
  <g>
    <path fill="#444444" d="M-109,352L-109,352c-0.6,0-1-0.4-1-1v-3c0-0.6,0.4-1,1-1l0,0c0.6,0,1,0.4,1,1v3
      C-108,351.6-108.4,352-109,352z"/>
    <path fill="#444444" d="M-108.5,358h-1c-0.3,0-0.5-0.2-0.5-0.5l0,0c0-0.3,0.2-0.5,0.5-0.5h1c0.3,0,0.5,0.2,0.5,0.5l0,0
      C-108,357.8-108.2,358-108.5,358z"/>
    <path fill="#444444" d="M-110,361.5v-2c0-0.3,0.2-0.5,0.5-0.5l0,0c0.3,0,0.5,0.2,0.5,0.5v2c0,0.3-0.2,0.5-0.5,0.5l0,0
      C-109.8,362-110,361.8-110,361.5z"/>
    <path fill="#444444" d="M-108.5,354h-1c-0.3,0-0.5-0.2-0.5-0.5l0,0c0-0.3,0.2-0.5,0.5-0.5h1c0.3,0,0.5,0.2,0.5,0.5l0,0
      C-108,353.8-108.2,354-108.5,354z"/>
    <path fill="#444444" d="M-108.5,356h-1c-0.3,0-0.5-0.2-0.5-0.5l0,0c0-0.3,0.2-0.5,0.5-0.5h1c0.3,0,0.5,0.2,0.5,0.5l0,0
      C-108,355.8-108.2,356-108.5,356z"/>
    <path fill="#444444" d="M-108.5,360h-1c-0.3,0-0.5-0.2-0.5-0.5l0,0c0-0.3,0.2-0.5,0.5-0.5h1c0.3,0,0.5,0.2,0.5,0.5l0,0
      C-108,359.8-108.2,360-108.5,360z"/>
    <path fill="#444444" d="M-108.5,364h-1c-0.3,0-0.5-0.2-0.5-0.5l0,0c0-0.3,0.2-0.5,0.5-0.5h1c0.3,0,0.5,0.2,0.5,0.5l0,0
      C-108,363.8-108.2,364-108.5,364z"/>
    <path fill="#444444" d="M-108.5,366h-1c-0.3,0-0.5-0.2-0.5-0.5l0,0c0-0.3,0.2-0.5,0.5-0.5h1c0.3,0,0.5,0.2,0.5,0.5l0,0
      C-108,365.8-108.2,366-108.5,366z"/>
    <circle fill="#FFFFFF" cx="-109" cy="351" r="0.5"/>
  </g>
  <polygon fill="#DD5136" points="-108,337.5 -110,337.5 -110.5,338 -110,338.5 -108,338.5 -107.5,338 "/>
</svg>
