<?xml version="1.0" encoding="utf-8"?>
<!DOCTYPE svg PUBLIC "-//W3C//DTD SVG 1.1//EN" "http://www.w3.org/Graphics/SVG/1.1/DTD/svg11.dtd">
<svg version="1.1" id="Layer_1" xmlns="http://www.w3.org/2000/svg" xmlns:xlink="http://www.w3.org/1999/xlink" x="0px" y="0px"
	 width="160px" height="160px" viewBox="-219 321 160 160" enable-background="new -219 321 160 160" xml:space="preserve">
<path fill="#CCCCCC" d="M-77,337h-124c-1.1,0-2,0.9-2,2v124c0,1.1,0.9,2,2,2h124c1.1,0,2-0.9,2-2V339C-75,337.9-75.9,337-77,337z"/>
<path fill="#333333" d="M-203,343h128v120c0,1.1-0.9,2-2,2h-124c-1.1,0-2-0.9-2-2V343z"/>
<circle fill="#FF3333" cx="-200" cy="340" r="1"/>
<circle fill="#FFFF33" cx="-196" cy="340" r="1"/>
<circle fill="#39B54A" cx="-192" cy="340" r="1"/>
<path fill="#2D2D2D" d="M-194,465h-7c-1.1,0-2-0.9-2-2V343h9V465z"/>
<text transform="matrix(1 0 0 1 -200 350)"><tspan x="0" y="0" fill="#777777" font-family="'Courier'" font-size="4">1</tspan><tspan x="0" y="8" fill="#777777" font-family="'Courier'" font-size="4">2</tspan><tspan x="0" y="16" fill="#777777" font-family="'Courier'" font-size="4">3</tspan><tspan x="0" y="24" fill="#777777" font-family="'Courier'" font-size="4">4</tspan><tspan x="0" y="32" fill="#777777" font-family="'Courier'" font-size="4">5</tspan><tspan x="0" y="40" fill="#777777" font-family="'Courier'" font-size="4">6</tspan><tspan x="0" y="48" fill="#777777" font-family="'Courier'" font-size="4">7</tspan><tspan x="0" y="56" fill="#777777" font-family="'Courier'" font-size="4">8</tspan><tspan x="0" y="64" fill="#777777" font-family="'Courier'" font-size="4">9</tspan><tspan x="0" y="72" fill="#777777" font-family="'Courier'" font-size="4">10</tspan><tspan x="0" y="80" fill="#777777" font-family="'Courier'" font-size="4">11</tspan><tspan x="0" y="88" fill="#777777" font-family="'Courier'" font-size="4">12</tspan><tspan x="0" y="96" fill="#777777" font-family="'Courier'" font-size="4">13</tspan><tspan x="0" y="104" fill="#777777" font-family="'Courier'" font-size="4">14</tspan></text>
<text transform="matrix(1 0 0 1 -192 350)"><tspan x="0" y="0" fill="#9A6E35" font-family="'Courier'" font-size="4">!!!</tspan><tspan x="0" y="8" fill="#9A6E35" font-family="'Courier'" font-size="4">%html</tspan><tspan x="0" y="16" fill="#9A6E35" font-family="'Courier'" font-size="4">  %head</tspan><tspan x="0" y="24" fill="#9A6E35" font-family="'Courier'" font-size="4">    %meta</tspan><tspan x="21.6" y="24" fill="#FFFFFF" font-family="'Courier'" font-size="4">(</tspan><tspan x="24" y="24" fill="#D1CA7E" font-family="'Courier'" font-size="4">charset</tspan><tspan x="40.8" y="24" fill="#FFFFFF" font-family="'Courier'" font-size="4">=</tspan><tspan x="43.2" y="24" fill="#96B38B" font-family="'Courier'" font-size="4">&apos;utf-8&apos;</tspan><tspan x="60" y="24" fill="#FFFFFF" font-family="'Courier'" font-size="4">)</tspan><tspan x="0" y="32" fill="#D1CA7E" font-family="'Courier'" font-size="4">    </tspan><tspan x="9.6" y="32" fill="#9A6E35" font-family="'Courier'" font-size="4">%meta</tspan><tspan x="21.6" y="32" fill="#FFFFFF" font-family="'Courier'" font-size="4">(</tspan><tspan x="24" y="32" fill="#D1CA7E" font-family="'Courier'" font-size="4">content</tspan><tspan x="40.8" y="32" fill="#FFFFFF" font-family="'Courier'" font-size="4">=</tspan><tspan x="43.2" y="32" fill="#96B38B" font-family="'Courier'" font-size="4">&quot;detail&quot;</tspan><tspan x="62.4" y="32" fill="#D1CA7E" font-family="'Courier'" font-size="4"> name</tspan><tspan x="74.4" y="32" fill="#FFFFFF" font-family="'Courier'" font-size="4">=</tspan><tspan x="76.8" y="32" fill="#96B38B" font-family="'Courier'" font-size="4">&quot;description&quot;</tspan><tspan x="108" y="32" fill="#FFFFFF" font-family="'Courier'" font-size="4">)</tspan><tspan x="0" y="40" fill="#D1CA7E" font-family="'Courier'" font-size="4">    </tspan><tspan x="9.6" y="40" fill="#9A6E35" font-family="'Courier'" font-size="4">%meta</tspan><tspan x="21.6" y="40" fill="#FFFFFF" font-family="'Courier'" font-size="4">(</tspan><tspan x="24" y="40" fill="#D1CA7E" font-family="'Courier'" font-size="4">content</tspan><tspan x="40.8" y="40" fill="#FFFFFF" font-family="'Courier'" font-size="4">=</tspan><tspan x="43.2" y="40" fill="#96B38B" font-family="'Courier'" font-size="4">&apos;width=device-width&apos;</tspan><tspan x="91.2" y="40" fill="#FFFFFF" font-family="'Courier'" font-size="4">)</tspan><tspan x="0" y="48" fill="#D1CA7E" font-family="'Courier'" font-size="4">    </tspan><tspan x="9.6" y="48" fill="#9A6E35" font-family="'Courier'" font-size="4">%title</tspan><tspan x="0" y="56" fill="#D1CA7E" font-family="'Courier'" font-size="4">      </tspan><tspan x="14.4" y="56" fill="#FFFFFF" font-family="'Courier'" font-size="4">-</tspan><tspan x="16.8" y="56" fill="#D1CA7E" font-family="'Courier'" font-size="4"> if content_for?</tspan><tspan x="55.2" y="56" fill="#FFFFFF" font-family="'Courier'" font-size="4">(</tspan><tspan x="57.6" y="56" fill="#96B38B" font-family="'Courier'" font-size="4">:title</tspan><tspan x="72" y="56" fill="#FFFFFF" font-family="'Courier'" font-size="4">)</tspan><tspan x="0" y="64" fill="#D1CA7E" font-family="'Courier'" font-size="4">        </tspan><tspan x="19.2" y="64" fill="#FFFFFF" font-family="'Courier'" font-size="4">=</tspan><tspan x="21.6" y="64" fill="#D1CA7E" font-family="'Courier'" font-size="4"> yield </tspan><tspan x="38.4" y="64" fill="#96B38B" font-family="'Courier'" font-size="4">:title</tspan><tspan x="0" y="72" fill="#D1CA7E" font-family="'Courier'" font-size="4">      </tspan><tspan x="14.4" y="72" fill="#FFFFFF" font-family="'Courier'" font-size="4">-</tspan><tspan x="16.8" y="72" fill="#D1CA7E" font-family="'Courier'" font-size="4"> else</tspan><tspan x="0" y="80" fill="#D1CA7E" font-family="'Courier'" font-size="4">        </tspan><tspan x="19.2" y="80" fill="#FFFFFF" font-family="'Courier'" font-size="4">=</tspan><tspan x="21.6" y="80" fill="#D1CA7E" font-family="'Courier'" font-size="4"> title</tspan><tspan x="0" y="96" fill="#D1CA7E" font-family="'Courier'" font-size="4">    </tspan><tspan x="9.6" y="96" fill="#FFFFFF" font-family="'Courier'" font-size="4">=</tspan><tspan x="12" y="96" fill="#D1CA7E" font-family="'Courier'" font-size="4"> stylesheet_link_tag </tspan><tspan x="62.4" y="96" fill="#96B38B" font-family="'Courier'" font-size="4">:application</tspan><tspan x="0" y="104" fill="#D1CA7E" font-family="'Courier'" font-size="4">    </tspan><tspan x="9.6" y="104" fill="#FFFFFF" font-family="'Courier'" font-size="4">=</tspan><tspan x="12" y="104" fill="#D1CA7E" font-family="'Courier'" font-size="4"> javascript_include_tag </tspan><tspan x="69.6" y="104" fill="#96B38B" font-family="'Courier'" font-size="4">&apos;app.js&apos;</tspan></text>
<path fill="#222222" d="M-77.5,457L-77.5,457c0.3,0,0.5-0.2,0.5-0.5v-110c0-0.3-0.2-0.5-0.5-0.5l0,0c-0.3,0-0.5,0.2-0.5,0.5v110
	C-78,456.8-77.8,457-77.5,457z"/>
<path fill="#777777" d="M-77.5,377L-77.5,377c0.3,0,0.5-0.2,0.5-0.5v-30c0-0.3-0.2-0.5-0.5-0.5l0,0c-0.3,0-0.5,0.2-0.5,0.5v30
	C-78,376.8-77.8,377-77.5,377z"/>
</svg>
