<svg xmlns="http://www.w3.org/2000/svg"
  width="160px" height="160px" viewBox="0 0 160 160" aria-labelledby="title" aria-describedby="desc">
  <title id="title">Browser windor</title>
  <desc id="desc">A blank browser window with two tabs</desc>
  <path fill="#cccccc" d="M142,16H18c-1.1000061,0-2,0.8999939-2,2v123c0,1.6000061,1.3999939,3,3,3h122c1.6999969,0,3-1.3999939,3-3
    V18C144,16.8999939,143.1000061,16,142,16z"/>
  <path fill="#f5f5f5" d="M17,23h126v118c0,1.1000061-0.8999939,2-2,2H19c-1.1000061,0-2-0.8999939-2-2V23z"/>
  <circle fill="#ff3333" cx="19" cy="19" r="1"/>
  <circle fill="#aaaaaa" cx="141" cy="19" r="1"/>
  <circle fill="#ffff33" cx="23" cy="19" r="1"/>
  <circle fill="#39b54a" cx="27" cy="19" r="1"/>
  <path fill="#aaaaaa" d="M73.6000061,18H59c-0.6000061,0-1,0.3999939-1,1v4h19v-1l-2.6999969-3.7000122
    C74.1000061,18.1000061,73.8999939,18,73.6000061,18z"/>
  <path fill="#ffffff" d="M17,23c0-0.6000061,0.3999939-1,1-1h124c0.6000061,0,1,0.3999939,1,1H17z"/>
  <path fill="#ffffff" d="M55.6000061,18H41c-0.6000061,0-1,0.3999939-1,1v4h19v-1l-2.6999969-3.7000122
    C56.1000061,18.1000061,55.8999939,18,55.6000061,18z"/>
  <polygon fill="#aaaaaa" points="33,20 32,20 31,19 32,18 33,18 32,19 "/>
  <polygon fill="#aaaaaa" points="35,20 36,20 37,19 36,18 35,18 36,19 "/>
  <g>
    <path fill="#666666" d="M47,19.5v1c0,0.2999878-0.1999969,0.5-0.5,0.5l0,0c-0.3000031,0-0.5-0.2000122-0.5-0.5v-1
      c0-0.2999878,0.1999969-0.5,0.5-0.5l0,0C46.8000031,19,47,19.2000122,47,19.5z"/>
    <path fill="#666666" d="M50.5,21h-2c-0.3000031,0-0.5-0.2000122-0.5-0.5l0,0c0-0.2999878,0.1999969-0.5,0.5-0.5h2
      c0.3000031,0,0.5,0.2000122,0.5,0.5l0,0C51,20.7999878,50.8000031,21,50.5,21z"/>
    <path fill="#666666" d="M43,19.5v1c0,0.2999878-0.1999969,0.5-0.5,0.5l0,0c-0.3000031,0-0.5-0.2000122-0.5-0.5v-1
      c0-0.2999878,0.1999969-0.5,0.5-0.5l0,0C42.8000031,19,43,19.2000122,43,19.5z"/>
    <path fill="#666666" d="M45,19.5v1c0,0.2999878-0.1999969,0.5-0.5,0.5l0,0c-0.3000031,0-0.5-0.2000122-0.5-0.5v-1
      c0-0.2999878,0.1999969-0.5,0.5-0.5l0,0C44.8000031,19,45,19.2000122,45,19.5z"/>
    <path fill="#666666" d="M49,19.5v1c0,0.2999878-0.1999969,0.5-0.5,0.5l0,0c-0.3000031,0-0.5-0.2000122-0.5-0.5v-1
      c0-0.2999878,0.1999969-0.5,0.5-0.5l0,0C48.8000031,19,49,19.2000122,49,19.5z"/>
    <path fill="#666666" d="M53,19.5v1c0,0.2999878-0.1999969,0.5-0.5,0.5l0,0c-0.3000031,0-0.5-0.2000122-0.5-0.5v-1
      c0-0.2999878,0.1999969-0.5,0.5-0.5l0,0C52.8000031,19,53,19.2000122,53,19.5z"/>
    <path fill="#666666" d="M55,19.5v1c0,0.2999878-0.1999969,0.5-0.5,0.5l0,0c-0.3000031,0-0.5-0.2000122-0.5-0.5v-1
      c0-0.2999878,0.1999969-0.5,0.5-0.5l0,0C54.8000031,19,55,19.2000122,55,19.5z"/>
  </g>
  <g>
    <path fill="#888888" d="M65,19.5v1c0,0.2999878-0.1999969,0.5-0.5,0.5l0,0c-0.3000031,0-0.5-0.2000122-0.5-0.5v-1
      c0-0.2999878,0.1999969-0.5,0.5-0.5l0,0C64.8000031,19,65,19.2000122,65,19.5z"/>
    <path fill="#888888" d="M68.5,21h-2c-0.3000031,0-0.5-0.2000122-0.5-0.5l0,0c0-0.2999878,0.1999969-0.5,0.5-0.5h2
      c0.3000031,0,0.5,0.2000122,0.5,0.5l0,0C69,20.7999878,68.8000031,21,68.5,21z"/>
    <path fill="#888888" d="M61,19.5v1c0,0.2999878-0.1999969,0.5-0.5,0.5l0,0c-0.3000031,0-0.5-0.2000122-0.5-0.5v-1
      c0-0.2999878,0.1999969-0.5,0.5-0.5l0,0C60.8000031,19,61,19.2000122,61,19.5z"/>
    <path fill="#888888" d="M63,19.5v1c0,0.2999878-0.1999969,0.5-0.5,0.5l0,0c-0.3000031,0-0.5-0.2000122-0.5-0.5v-1
      c0-0.2999878,0.1999969-0.5,0.5-0.5l0,0C62.8000031,19,63,19.2000122,63,19.5z"/>
    <path fill="#888888" d="M67,19.5v1c0,0.2999878-0.1999969,0.5-0.5,0.5l0,0c-0.3000031,0-0.5-0.2000122-0.5-0.5v-1
      c0-0.2999878,0.1999969-0.5,0.5-0.5l0,0C66.8000031,19,67,19.2000122,67,19.5z"/>
    <path fill="#888888" d="M71,19.5v1c0,0.2999878-0.1999969,0.5-0.5,0.5l0,0c-0.3000031,0-0.5-0.2000122-0.5-0.5v-1
      c0-0.2999878,0.1999969-0.5,0.5-0.5l0,0C70.8000031,19,71,19.2000122,71,19.5z"/>
    <path fill="#888888" d="M73,19.5v1c0,0.2999878-0.1999969,0.5-0.5,0.5l0,0c-0.3000031,0-0.5-0.2000122-0.5-0.5v-1
      c0-0.2999878,0.1999969-0.5,0.5-0.5l0,0C72.8000031,19,73,19.2000122,73,19.5z"/>
  </g>
</svg>
