<svg version="1.1" xmlns="http://www.w3.org/2000/svg" xmlns:xlink="http://www.w3.org/1999/xlink" x="0px" y="0px"
  width="160px" height="160px" viewBox="-219 321 160 160">
	<path fill="#B28B70" d="M-203,343v116c0,3.3,2.7,6,6,6h58V337h-58C-200.3,337-203,339.7-203,343z"/>
	<path fill="#7F7A77" d="M-202,344v114.5c0,3,2.5,5.5,5.5,5.5h56.5l1-1V340l-1-1h-57C-199.8,339-202,341.2-202,344z"/>
	<path fill="#CCC2BC" d="M-201,344v114c0,2.8,2.2,5,5,5h56l1-1V340l-1-1h-56C-198.8,339-201,341.2-201,344z"/>
	<path fill="#B28B70" d="M-81,337h-58v128h58c3.3,0,6-2.7,6-6V343C-75,339.7-77.7,337-81,337z"/>
	<path fill="#7F7A77" d="M-81,339h-57l-1,1v123l1,1h56.5c3,0,5.5-2.5,5.5-5.5V344C-76,341.2-78.2,339-81,339z"/>
	<path fill="#CCC2BC" d="M-82,339h-56l-1,1v122l1,1h56c2.8,0,5-2.2,5-5V344C-77,341.2-79.2,339-82,339z"/>
	<path fill="#FFF4EE" d="M-200,344v114c0,2.8,2.2,5,5,5h55l1-1V340l-1-1h-55C-197.8,339-200,341.2-200,344z"/>
	<path fill="#FFF8F5" d="M-195,339c-2.8,0-5,2.2-5,5v114c0,2.8,2.2,5,5,5h2c-2.8,0-5-2.2-5-5V345c0-2.8,2.2-5,5-5h54l-1-1H-195z"/>
	<polygon fill="#FFF8F5" points="-139,462 -140,463 -140,339 -139,340 "/>
	<path fill="#FFF4EE" d="M-83,339h-55l-1,1v122l1,1h55c2.8,0,5-2.2,5-5V344C-78,341.2-80.2,339-83,339z"/>
	<polygon fill="#E5DEDA" points="-138,463 -139,462 -139,340 -138,339 -138,339 "/>
	<rect x="-200" y="353" fill="#EF9F78" width="62" height="0.4"/>
	<rect x="-200" y="359" fill="#F2E9E4" width="61" height="0.4"/>
	<rect x="-200" y="365" fill="#F2E9E4" width="61" height="0.4"/>
	<rect x="-200" y="371" fill="#F2E9E4" width="61" height="0.4"/>
	<rect x="-200" y="377" fill="#F2E9E4" width="61" height="0.4"/>
	<rect x="-200" y="383" fill="#F2E9E4" width="61" height="0.4"/>
	<rect x="-200" y="389" fill="#F2E9E4" width="61" height="0.4"/>
	<rect x="-200" y="395" fill="#F2E9E4" width="61" height="0.4"/>
	<rect x="-200" y="401" fill="#F2E9E4" width="61" height="0.4"/>
	<rect x="-200" y="407" fill="#F2E9E4" width="61" height="0.4"/>
	<rect x="-200" y="413" fill="#F2E9E4" width="61" height="0.4"/>
	<rect x="-200" y="419" fill="#F2E9E4" width="61" height="0.4"/>
	<rect x="-200" y="425" fill="#F2E9E4" width="61" height="0.4"/>
	<rect x="-200" y="431" fill="#F2E9E4" width="61" height="0.4"/>
	<rect x="-200" y="437" fill="#F2E9E4" width="61" height="0.4"/>
	<rect x="-200" y="443" fill="#F2E9E4" width="61" height="0.4"/>
	<rect x="-200" y="449" fill="#F2E9E4" width="61" height="0.4"/>
	<rect x="-200" y="455" fill="#F2E9E4" width="61" height="0.4"/>
	<rect x="-200" y="355" fill="#EF9F78" width="60.5" height="0.4"/>
	<rect x="-138.5" y="353" fill="#EF9F78" width="60.5" height="0.4"/>
	<rect x="-138" y="359" fill="#F2E9E4" width="60" height="0.4"/>
	<rect x="-138" y="365" fill="#F2E9E4" width="60" height="0.4"/>
	<rect x="-138" y="371" fill="#F2E9E4" width="60" height="0.4"/>
	<rect x="-138" y="377" fill="#F2E9E4" width="60" height="0.4"/>
	<rect x="-138" y="383" fill="#F2E9E4" width="60" height="0.4"/>
	<rect x="-138" y="389" fill="#F2E9E4" width="60" height="0.4"/>
	<rect x="-138" y="395" fill="#F2E9E4" width="60" height="0.4"/>
	<rect x="-138" y="401" fill="#F2E9E4" width="60" height="0.4"/>
	<rect x="-138" y="407" fill="#F2E9E4" width="60" height="0.4"/>
	<rect x="-138" y="413" fill="#F2E9E4" width="60" height="0.4"/>
	<rect x="-138" y="419" fill="#F2E9E4" width="60" height="0.4"/>
	<rect x="-138" y="425" fill="#F2E9E4" width="60" height="0.4"/>
	<rect x="-138" y="431" fill="#F2E9E4" width="60" height="0.4"/>
	<rect x="-138" y="437" fill="#F2E9E4" width="60" height="0.4"/>
	<rect x="-138" y="443" fill="#F2E9E4" width="60" height="0.4"/>
	<rect x="-138" y="449" fill="#F2E9E4" width="60" height="0.4"/>
	<rect x="-138" y="455" fill="#F2E9E4" width="60" height="0.4"/>
	<rect x="-138.5" y="355" fill="#EF9F78" width="60.5" height="0.4"/>
	<g>
		<path fill="#888888" d="M-139,353c-0.3,0-0.5,0.2-0.5,0.5v3.5h1v-3.5C-138.5,353.2-138.7,353-139,353z"/>
		<path fill="#BBBBBB" d="M-139,353c-0.3,0-0.5,0.2-0.5,0.5v3.5l0.5-1V353z"/>
		<polygon fill="#666666" points="-139,356 -139.5,357 -138.5,357 	"/>
		<path fill="#888888" d="M-139,362c-0.3,0-0.5-0.2-0.5-0.5V358h1v3.5C-138.5,361.8-138.7,362-139,362z"/>
		<path fill="#BBBBBB" d="M-139,362c-0.3,0-0.5-0.2-0.5-0.5V358l0.5,1V362z"/>
		<polygon fill="#666666" points="-139,359 -139.5,358 -138.5,358 	"/>
	</g>
	<g>
		<path fill="#888888" d="M-139,396c-0.3,0-0.5,0.2-0.5,0.5v3.5h1v-3.5C-138.5,396.2-138.7,396-139,396z"/>
		<path fill="#BBBBBB" d="M-139,396c-0.3,0-0.5,0.2-0.5,0.5v3.5l0.5-1V396z"/>
		<polygon fill="#666666" points="-139,399 -139.5,400 -138.5,400 	"/>
		<path fill="#888888" d="M-139,405c-0.3,0-0.5-0.2-0.5-0.5V401h1v3.5C-138.5,404.8-138.7,405-139,405z"/>
		<path fill="#BBBBBB" d="M-139,405c-0.3,0-0.5-0.2-0.5-0.5V401l0.5,1V405z"/>
		<polygon fill="#666666" points="-139,402 -139.5,401 -138.5,401 	"/>
	</g>
	<g>
		<path fill="#888888" d="M-139,440c-0.3,0-0.5,0.2-0.5,0.5v3.5h1v-3.5C-138.5,440.2-138.7,440-139,440z"/>
		<path fill="#BBBBBB" d="M-139,440c-0.3,0-0.5,0.2-0.5,0.5v3.5l0.5-1V440z"/>
		<polygon fill="#666666" points="-139,443 -139.5,444 -138.5,444 	"/>
		<path fill="#888888" d="M-139,449c-0.3,0-0.5-0.2-0.5-0.5V445h1v3.5C-138.5,448.8-138.7,449-139,449z"/>
		<path fill="#BBBBBB" d="M-139,449c-0.3,0-0.5-0.2-0.5-0.5V445l0.5,1V449z"/>
		<polygon fill="#666666" points="-139,446 -139.5,445 -138.5,445 	"/>
	</g>
</svg>
