<svg xmlns="http://www.w3.org/2000/svg" width="160px" height="160px" viewBox="0 0 160 160"
  aria-role="img" aria-labelledby="title" aria-describedby="desc">
  <title id="title">Padlock</title>
  <desc id="desc">A locked grey padlock</desc>
  <rect x="38" y="67" fill="#888888" width="34" height="7"/>
  <rect x="88" y="67" fill="#888888" width="34" height="7"/>
  <path fill="#bbbbbb" d="M80,14c-19.8999939,0-36,16.1000061-36,35.8999939C44,59.6999817,44,74,44,74h12
    c0-9.7999878,0-20.8999939,0-24.2999878C56,36.6000061,66.6999969,26,80,26s24,10.6000061,24,23.7000122
    C104,53.1000061,104,64.3000183,104,74h12c0,0,0-14.3999939,0-24.1000061C116,30.1000061,99.9000015,14,80,14z"/>
  <path fill="#888888" d="M88,74c0,4.3999939-3.6000061,8-8,8s-8-3.6000061-8-8H38c0,0,0,18.6000061,0,30
    c0,23.2000122,18.8000031,42,42,42s42-18.7999878,42-42c0-11.3999939,0-30,0-30H88z"/>
  <path fill="#eeeeee" d="M88,74c0,4.3999939-3.6000061,8-8,8s-8-3.6000061-8-8H38v24h84V74H88z"/>
  <path fill="#888888" d="M88,74c0,4.3999939-3.6000061,8-8,8s-8-3.6000061-8-8h-1c0,5,4,9,9,9s9-4,9-9H88z"/>
  <path fill="#aaaaaa" d="M80,20c-16.6000061,0-30,13.3999939-30,30v24h6c0-9.7999878,0-20.8999939,0-24.2999878
    C56,36.6000061,66.6999969,26,80,26s24,10.6000061,24,23.7000122C104,53.1000061,104,64.3000183,104,74h6V50
    C110,33.3999939,96.5999985,20,80,20z"/>
  <path fill="#cccccc" d="M111,74h-2V50c0-16-13-29-29-29S51,34,51,50v24h-2V50c0-17.1000061,13.8999939-31,31-31s31,13.8999939,31,31
    V74z"/>
  <rect x="38" y="74" fill="#e0e0e0" width="1" height="24"/>
  <rect x="121" y="74" fill="#e0e0e0" width="1" height="24"/>
  <polygon fill="#ffffff" points="71,74 38,74 39,75 70,75 "/>
  <polygon fill="#ffffff" points="122,74 89,74 90,75 121,75 "/>
  <path fill="#cccccc" d="M121,98H39v6c0,22.6000061,18.3000031,41,41,41s41-18.2999878,41-41V98z"/>
  <rect x="39" y="98" fill="#ffffff" width="82" height="1"/>
  <circle fill="#cccccc" cx="80" cy="100" r="11.8999939"/>
  <circle fill="#eeeeee" cx="80" cy="100" r="10"/>
  <circle fill="#eeeeee" cx="80" cy="120" r="6.1000061"/>
  <circle fill="#555555" cx="80" cy="120" r="4"/>
  <rect x="74" y="102" fill="#eeeeee" width="12" height="18"/>
  <rect x="76" y="102" fill="#555555" width="8" height="18"/>
  <circle fill="#555555" cx="80" cy="100" r="8"/>
</svg>
