<svg xmlns="http://www.w3.org/2000/svg" width="160px" height="160px" viewBox="0 0 160 160"
  aria-role="img" aria-labelledby="title" aria-describedby="desc">
  <title id="title">An assortment of pencils</title>
  <desc id="desc">Four graphite pencils and one red colored pencil</desc>
  <polygon fill="#e5d6b7" points="95,140 93,129 93,127 99,127 99,129 97,140 96,141 "/>
  <polygon fill="#deac00" points="93,17 99,17 99,129 98,128 97,129 96,128 95,129 94,128 93,129 "/>
  <polygon fill="#e5d6b7" points="50,140 47,126 47,124 55,124 55,126 52,140 51,141 "/>
  <path fill="#deac00" d="M48,16h6c0.6000061,0,1,0.3999939,1,1v109l-1-1l-1,1l-1-1l-1,1l-1-1l-1,1l-1-1l-1,1V17
    C47,16.3999939,47.3999939,16,48,16z"/>
  <rect x="48" y="27" fill="#e5c15c" width="5" height="95"/>
  <path fill="#ff9999" d="M48,16h6c0.6000061,0,1,0.3999939,1,1v6h-8v-6C47,16.3999939,47.3999939,16,48,16z"/>
  <rect x="47" y="23" fill="#555555" width="8" height="9"/>
  <g>
    <path fill="#444444" d="M51,46h-1c-0.6000061,0-1-0.3999939-1-1v-4c0-0.6000061,0.3999939-1,1-1h1c0.6000061,0,1,0.3999939,1,1v4
      C52,45.6000061,51.6000061,46,51,46z"/>
    <path fill="#444444" d="M50.5,52h-1c-0.3000031,0-0.5-0.2000122-0.5-0.5l0,0c0-0.2999878,0.1999969-0.5,0.5-0.5h1
      c0.3000031,0,0.5,0.2000122,0.5,0.5l0,0C51,51.7999878,50.8000031,52,50.5,52z"/>
    <path fill="#444444" d="M51.5,58h-2c-0.3000031,0-0.5-0.2000122-0.5-0.5l0,0c0-0.2999878,0.1999969-0.5,0.5-0.5h2
      c0.3000031,0,0.5,0.2000122,0.5,0.5l0,0C52,57.7999878,51.8000031,58,51.5,58z"/>
    <path fill="#444444" d="M51.5,60h-2c-0.3000031,0-0.5-0.2000122-0.5-0.5l0,0c0-0.2999878,0.1999969-0.5,0.5-0.5h2
      c0.3000031,0,0.5,0.2000122,0.5,0.5l0,0C52,59.7999878,51.8000031,60,51.5,60z"/>
    <path fill="#444444" d="M49,55.5v-2c0-0.2999878,0.1999969-0.5,0.5-0.5l0,0c0.3000031,0,0.5,0.2000122,0.5,0.5v2
      c0,0.2999878-0.1999969,0.5-0.5,0.5l0,0C49.1999969,56,49,55.7999878,49,55.5z"/>
    <circle fill="#444444" cx="51.5" cy="55.5" r="0.5"/>
    <path fill="#444444" d="M51.5,48h-2c-0.3000031,0-0.5-0.2000122-0.5-0.5l0,0c0-0.2999878,0.1999969-0.5,0.5-0.5h2
      c0.3000031,0,0.5,0.2000122,0.5,0.5l0,0C52,47.7999878,51.8000031,48,51.5,48z"/>
    <path fill="#444444" d="M51.5,50h-2c-0.3000031,0-0.5-0.2000122-0.5-0.5l0,0c0-0.2999878,0.1999969-0.5,0.5-0.5h2
      c0.3000031,0,0.5,0.2000122,0.5,0.5l0,0C52,49.7999878,51.8000031,50,51.5,50z"/>
    <path fill="#444444" d="M51.5,54h-2c-0.3000031,0-0.5-0.2000122-0.5-0.5l0,0c0-0.2999878,0.1999969-0.5,0.5-0.5h2
      c0.3000031,0,0.5,0.2000122,0.5,0.5l0,0C52,53.7999878,51.8000031,54,51.5,54z"/>
    <circle fill="#ffffff" cx="50.5" cy="44.5" r="0.5"/>
  </g>
  <rect x="48" y="123" fill="#eeeeee" width="5" height="1"/>
  <rect x="47" y="33" fill="#444444" width="8" height="1"/>
  <rect x="47" y="22" fill="#444444" width="8" height="1"/>
  <path fill="#444444" d="M50,140l0.8000031,3.7999878c0.1000061,0.2999878,0.3999939,0.2999878,0.5,0L52.1000061,140H50z"/>
  <rect x="48" y="33" fill="#777777" width="5" height="1"/>
  <rect x="48" y="23" fill="#777777" width="4" height="9"/>
  <circle fill="#444444" cx="49.5" cy="30.5" r="0.5"/>
  <circle fill="#444444" cx="49.5" cy="27.5" r="0.5"/>
  <circle fill="#444444" cx="49.5" cy="24.5" r="0.5"/>
  <circle fill="#444444" cx="53.5" cy="30.5" r="0.5"/>
  <circle fill="#444444" cx="53.5" cy="27.5" r="0.5"/>
  <circle fill="#444444" cx="53.5" cy="24.5" r="0.5"/>
  <rect x="48" y="22" fill="#555555" width="5" height="1"/>
  <polygon fill="#e5d6b7" points="81,140 79,129 79,127 85,127 85,129 83,140 82,141 "/>
  <path fill="#deac00" d="M80,16h4c0.6000061,0,1,0.3999939,1,1v112l-1-1l-1,1l-1-1l-1,1l-1-1l-1,1V17
    C79,16.3999939,79.3999939,16,80,16z"/>
  <polygon fill="#e5c15c" points="80,27 84,27 84,127 83,128 82,127 81,128 80,127 "/>
  <path fill="#ff9999" d="M80,16h4c0.6000061,0,1,0.3999939,1,1v6h-6v-6C79,16.3999939,79.3999939,16,80,16z"/>
  <rect x="79" y="23" fill="#555555" width="6" height="9"/>
  <rect x="79" y="33" fill="#444444" width="6" height="1"/>
  <rect x="79" y="22" fill="#444444" width="6" height="1"/>
  <path fill="#444444" d="M81,140l0.8000031,3.7999878c0,0.2999878,0.3000031,0.2999878,0.3999939,0L83,140H81z"/>
  <rect x="80" y="33" fill="#777777" width="4" height="1"/>
  <rect x="80" y="23" fill="#777777" width="4" height="9"/>
  <circle fill="#444444" cx="81.5" cy="30.5" r="0.5"/>
  <circle fill="#444444" cx="81.5" cy="27.5" r="0.5"/>
  <circle fill="#444444" cx="81.5" cy="24.5" r="0.5"/>
  <rect x="80" y="22" fill="#555555" width="4" height="1"/>
  <polygon fill="#e5d6b7" points="66,140 63,126 63,124 71,124 71,126 68,140 67,141 "/>
  <polygon fill="#deac00" points="63,17 71,17 71,126 70,125 69,126 68,125 67,126 66,125 65,126 64,125 63,126 "/>
  <path fill="#e5c15c" d="M66,19h3v102c0,0.6000061-0.3999939,1-1,1h-3V20C65,19.3999939,65.3999939,19,66,19z"/>
  <g>
    <path fill="#444444" d="M67,31L67,31c-0.6000061,0-1-0.3999939-1-1v-3c0-0.6000061,0.3999939-1,1-1l0,0
      c0.6000061,0,1,0.3999939,1,1v3C68,30.6000061,67.6000061,31,67,31z"/>
    <path fill="#444444" d="M67.5,37h-1c-0.3000031,0-0.5-0.2000122-0.5-0.5l0,0c0-0.2999878,0.1999969-0.5,0.5-0.5h1
      c0.3000031,0,0.5,0.2000122,0.5,0.5l0,0C68,36.7999878,67.8000031,37,67.5,37z"/>
    <path fill="#444444" d="M66,40.5v-2c0-0.2999878,0.1999969-0.5,0.5-0.5l0,0c0.3000031,0,0.5,0.2000122,0.5,0.5v2
      c0,0.2999878-0.1999969,0.5-0.5,0.5l0,0C66.1999969,41,66,40.7999878,66,40.5z"/>
    <path fill="#444444" d="M67.5,33h-1c-0.3000031,0-0.5-0.2000122-0.5-0.5l0,0c0-0.2999878,0.1999969-0.5,0.5-0.5h1
      c0.3000031,0,0.5,0.2000122,0.5,0.5l0,0C68,32.7999878,67.8000031,33,67.5,33z"/>
    <path fill="#444444" d="M67.5,35h-1c-0.3000031,0-0.5-0.2000122-0.5-0.5l0,0c0-0.2999878,0.1999969-0.5,0.5-0.5h1
      c0.3000031,0,0.5,0.2000122,0.5,0.5l0,0C68,34.7999878,67.8000031,35,67.5,35z"/>
    <path fill="#444444" d="M67.5,39h-1c-0.3000031,0-0.5-0.2000122-0.5-0.5l0,0c0-0.2999878,0.1999969-0.5,0.5-0.5h1
      c0.3000031,0,0.5,0.2000122,0.5,0.5l0,0C68,38.7999878,67.8000031,39,67.5,39z"/>
    <path fill="#444444" d="M67.5,43h-1c-0.3000031,0-0.5-0.2000122-0.5-0.5l0,0c0-0.2999878,0.1999969-0.5,0.5-0.5h1
      c0.3000031,0,0.5,0.2000122,0.5,0.5l0,0C68,42.7999878,67.8000031,43,67.5,43z"/>
    <path fill="#444444" d="M67.5,45h-1c-0.3000031,0-0.5-0.2000122-0.5-0.5l0,0c0-0.2999878,0.1999969-0.5,0.5-0.5h1
      c0.3000031,0,0.5,0.2000122,0.5,0.5l0,0C68,44.7999878,67.8000031,45,67.5,45z"/>
  </g>
  <g>
    <path fill="#444444" d="M82,40L82,40c-0.6000061,0-1-0.3999939-1-1v-3c0-0.6000061,0.3999939-1,1-1l0,0
      c0.6000061,0,1,0.3999939,1,1v3C83,39.6000061,82.6000061,40,82,40z"/>
    <path fill="#444444" d="M82.5,46h-1c-0.3000031,0-0.5-0.2000122-0.5-0.5l0,0c0-0.2999878,0.1999969-0.5,0.5-0.5h1
      c0.3000031,0,0.5,0.2000122,0.5,0.5l0,0C83,45.7999878,82.8000031,46,82.5,46z"/>
    <path fill="#444444" d="M81,49.5v-2c0-0.2999878,0.1999969-0.5,0.5-0.5l0,0c0.3000031,0,0.5,0.2000122,0.5,0.5v2
      c0,0.2999878-0.1999969,0.5-0.5,0.5l0,0C81.1999969,50,81,49.7999878,81,49.5z"/>
    <path fill="#444444" d="M82.5,42h-1c-0.3000031,0-0.5-0.2000122-0.5-0.5l0,0c0-0.2999878,0.1999969-0.5,0.5-0.5h1
      c0.3000031,0,0.5,0.2000122,0.5,0.5l0,0C83,41.7999878,82.8000031,42,82.5,42z"/>
    <path fill="#444444" d="M82.5,44h-1c-0.3000031,0-0.5-0.2000122-0.5-0.5l0,0c0-0.2999878,0.1999969-0.5,0.5-0.5h1
      c0.3000031,0,0.5,0.2000122,0.5,0.5l0,0C83,43.7999878,82.8000031,44,82.5,44z"/>
    <path fill="#444444" d="M82.5,48h-1c-0.3000031,0-0.5-0.2000122-0.5-0.5l0,0c0-0.2999878,0.1999969-0.5,0.5-0.5h1
      c0.3000031,0,0.5,0.2000122,0.5,0.5l0,0C83,47.7999878,82.8000031,48,82.5,48z"/>
    <path fill="#444444" d="M82.5,52h-1c-0.3000031,0-0.5-0.2000122-0.5-0.5l0,0c0-0.2999878,0.1999969-0.5,0.5-0.5h1
      c0.3000031,0,0.5,0.2000122,0.5,0.5l0,0C83,51.7999878,82.8000031,52,82.5,52z"/>
    <path fill="#444444" d="M82.5,54h-1c-0.3000031,0-0.5-0.2000122-0.5-0.5l0,0c0-0.2999878,0.1999969-0.5,0.5-0.5h1
      c0.3000031,0,0.5,0.2000122,0.5,0.5l0,0C83,53.7999878,82.8000031,54,82.5,54z"/>
  </g>
  <rect x="65" y="123" fill="#eeeeee" width="4" height="1"/>
  <path fill="#444444" d="M66,140l0.8000031,3.7999878c0.1000061,0.2999878,0.3999939,0.2999878,0.5,0L68.1000061,140H66z"/>
  <polygon fill="#e5d6b7" points="69,18 65,18 63,17 71,17 "/>
  <polygon fill="#e5d6b7" points="69,16 65,16 63,17 71,17 "/>
  <polygon fill="#444444" points="68,16.5 66,16.5 65,17 66,17.5 68,17.5 69,17 "/>
  <polygon fill="#e5d6b7" points="98,16 94,16 93,17 94,18 98,18 99,17 "/>
  <circle fill="#ffffff" cx="82" cy="39" r="0.5"/>
  <path fill="#e5c15c" d="M95,19h3v107.8999939L97,128l-1-1.1000061L95,128l-1-1.1000061V20C94,19.3999939,94.4000015,19,95,19z"/>
  <path fill="#444444" d="M95,140l0.8000031,3.7999878c0,0.2999878,0.3000031,0.2999878,0.4000015,0L97.0000076,140H95z"/>
  <g>
    <path fill="#444444" d="M96,31L96,31c-0.5999985,0-1-0.3999939-1-1v-3c0-0.6000061,0.4000015-1,1-1l0,0
      c0.5999985,0,1,0.3999939,1,1v3C97,30.6000061,96.5999985,31,96,31z"/>
    <path fill="#444444" d="M96.5,37h-1c-0.3000031,0-0.5-0.2000122-0.5-0.5l0,0c0-0.2999878,0.1999969-0.5,0.5-0.5h1
      c0.3000031,0,0.5,0.2000122,0.5,0.5l0,0C97,36.7999878,96.8000031,37,96.5,37z"/>
    <path fill="#444444" d="M95,40.5v-2c0-0.2999878,0.1999969-0.5,0.5-0.5l0,0c0.3000031,0,0.5,0.2000122,0.5,0.5v2
      c0,0.2999878-0.1999969,0.5-0.5,0.5l0,0C95.1999969,41,95,40.7999878,95,40.5z"/>
    <path fill="#444444" d="M96.5,33h-1c-0.3000031,0-0.5-0.2000122-0.5-0.5l0,0c0-0.2999878,0.1999969-0.5,0.5-0.5h1
      c0.3000031,0,0.5,0.2000122,0.5,0.5l0,0C97,32.7999878,96.8000031,33,96.5,33z"/>
    <path fill="#444444" d="M96.5,35h-1c-0.3000031,0-0.5-0.2000122-0.5-0.5l0,0c0-0.2999878,0.1999969-0.5,0.5-0.5h1
      c0.3000031,0,0.5,0.2000122,0.5,0.5l0,0C97,34.7999878,96.8000031,35,96.5,35z"/>
    <path fill="#444444" d="M96.5,39h-1c-0.3000031,0-0.5-0.2000122-0.5-0.5l0,0c0-0.2999878,0.1999969-0.5,0.5-0.5h1
      c0.3000031,0,0.5,0.2000122,0.5,0.5l0,0C97,38.7999878,96.8000031,39,96.5,39z"/>
    <path fill="#444444" d="M96.5,43h-1c-0.3000031,0-0.5-0.2000122-0.5-0.5l0,0c0-0.2999878,0.1999969-0.5,0.5-0.5h1
      c0.3000031,0,0.5,0.2000122,0.5,0.5l0,0C97,42.7999878,96.8000031,43,96.5,43z"/>
    <path fill="#444444" d="M96.5,45h-1c-0.3000031,0-0.5-0.2000122-0.5-0.5l0,0c0-0.2999878,0.1999969-0.5,0.5-0.5h1
      c0.3000031,0,0.5,0.2000122,0.5,0.5l0,0C97,44.7999878,96.8000031,45,96.5,45z"/>
    <circle fill="#ffffff" cx="96" cy="30" r="0.5"/>
  </g>
  <circle fill="#ffffff" cx="67" cy="30" r="0.5"/>
  <polygon fill="#444444" points="97,16.5 95,16.5 94.5,17 95,17.5 97,17.5 97.5,17 "/>
  <polygon fill="#e5d6b7" points="109,140 107,129 107,127 113,127 113,129 111,140 110,141 "/>
  <polygon fill="#b23c2d" points="107,17 113,17 113,129 112,128 111,129 110,128 109,129 108,128 107,129 "/>
  <polygon fill="#e5d6b7" points="112,16 108,16 107,17 108,18 112,18 113,17 "/>
  <path fill="#dd5136" d="M109,19h3v107.8999939L111,128l-1-1.1000061L109,128l-1-1.1000061V20C108,19.3999939,108.4000015,19,109,19z
    "/>
  <path fill="#dd5136" d="M109,140l0.8000031,3.7999878c0,0.2999878,0.3000031,0.2999878,0.4000015,0L111.0000076,140H109z"/>
  <g>
    <path fill="#444444" d="M110,31L110,31c-0.5999985,0-1-0.3999939-1-1v-3c0-0.6000061,0.4000015-1,1-1l0,0
      c0.5999985,0,1,0.3999939,1,1v3C111,30.6000061,110.5999985,31,110,31z"/>
    <path fill="#444444" d="M110.5,37h-1c-0.3000031,0-0.5-0.2000122-0.5-0.5l0,0c0-0.2999878,0.1999969-0.5,0.5-0.5h1
      c0.3000031,0,0.5,0.2000122,0.5,0.5l0,0C111,36.7999878,110.8000031,37,110.5,37z"/>
    <path fill="#444444" d="M109,40.5v-2c0-0.2999878,0.1999969-0.5,0.5-0.5l0,0c0.3000031,0,0.5,0.2000122,0.5,0.5v2
      c0,0.2999878-0.1999969,0.5-0.5,0.5l0,0C109.1999969,41,109,40.7999878,109,40.5z"/>
    <path fill="#444444" d="M110.5,33h-1c-0.3000031,0-0.5-0.2000122-0.5-0.5l0,0c0-0.2999878,0.1999969-0.5,0.5-0.5h1
      c0.3000031,0,0.5,0.2000122,0.5,0.5l0,0C111,32.7999878,110.8000031,33,110.5,33z"/>
    <path fill="#444444" d="M110.5,35h-1c-0.3000031,0-0.5-0.2000122-0.5-0.5l0,0c0-0.2999878,0.1999969-0.5,0.5-0.5h1
      c0.3000031,0,0.5,0.2000122,0.5,0.5l0,0C111,34.7999878,110.8000031,35,110.5,35z"/>
    <path fill="#444444" d="M110.5,39h-1c-0.3000031,0-0.5-0.2000122-0.5-0.5l0,0c0-0.2999878,0.1999969-0.5,0.5-0.5h1
      c0.3000031,0,0.5,0.2000122,0.5,0.5l0,0C111,38.7999878,110.8000031,39,110.5,39z"/>
    <path fill="#444444" d="M110.5,43h-1c-0.3000031,0-0.5-0.2000122-0.5-0.5l0,0c0-0.2999878,0.1999969-0.5,0.5-0.5h1
      c0.3000031,0,0.5,0.2000122,0.5,0.5l0,0C111,42.7999878,110.8000031,43,110.5,43z"/>
    <path fill="#444444" d="M110.5,45h-1c-0.3000031,0-0.5-0.2000122-0.5-0.5l0,0c0-0.2999878,0.1999969-0.5,0.5-0.5h1
      c0.3000031,0,0.5,0.2000122,0.5,0.5l0,0C111,44.7999878,110.8000031,45,110.5,45z"/>
    <circle fill="#ffffff" cx="110" cy="30" r="0.5"/>
  </g>
  <polygon fill="#dd5136" points="111,16.5 109,16.5 108.5,17 109,17.5 111,17.5 111.5,17 "/>
</svg>
