<svg xmlns="http://www.w3.org/2000/svg"
  width="160px" height="160px" viewBox="0 0 160 160">
  <g>
    <path fill="#383838" d="M142,118.5H18c-1.1000061,0-2-0.8999939-2-2v-76c0-1.7000122,1.3000031-3,3-3h122
      c1.6999969,0,3,1.2999878,3,3v76C144,117.6000061,143.1000061,118.5,142,118.5z"/>
    <rect x="20" y="43.5" fill="#f9f9f9" width="120" height="69"/>
    <path fill="#e0e0e0" d="M147,122.5H13c-2.6999969,0-5-2-5-2v-3h144v3C152,120.5,149.6999969,122.5,147,122.5z"/>
    <path fill="#cccccc" d="M147,122.5H13c-2.6999969,0-5-2-5-2h144C152,120.5,149.6999969,122.5,147,122.5z"/>
    <path fill="#cccccc" d="M90,117.5H70l0,0c0,1.1000061,0.8999939,2,2,2h16C89.1000061,119.5,90,118.6000061,90,117.5L90,117.5z"/>
  </g>
  <circle fill="#2b2b2b" cx="80" cy="40.5" r="0.5"/>
  <circle fill="#383838" cx="80" cy="40.5" r="0.2000122"/>
</svg>
