<svg xmlns="http://www.w3.org/2000/svg"
  width="160px" height="160px" viewBox="0 0 160 160" aria-labelledby="title" aria-describedby="desc">
  <title id="title">Computer monitor</title>
  <desc id="desc">A computer monitor with a blank screen</desc>
  <path fill="#cccccc" d="M98.8000031,131.3999939c0.0999985,1.5,1.3000031,2.6000061,2.8000031,2.7000122L112.0000076,135v1H48v-1
    l11.5-0.8999939C61,134,62.1000061,132.8000183,62.3000031,131.3999939L64.1000061,111h33L98.8000031,131.3999939z"/>
  <rect x="48" y="135" fill="#e0e0e0" width="64" height="1"/>
  <path fill="#383838" d="M149,112H11c-1.6999969,0-3-1.2999878-3-3V27c0-1.7000122,1.3000031-3,3-3h138c1.6999969,0,3,1.2999878,3,3
    v82C152,110.7000122,150.6999969,112,149,112z"/>
  <rect x="16" y="32" fill="#f9f9f9" width="128" height="72"/>
  <circle fill="#cccccc" cx="80" cy="108.1000061" r="2"/>
  <circle fill="#2b2b2b" cx="80" cy="28" r="0.5"/>
  <circle fill="#383838" cx="80" cy="28" r="0.2000122"/>
</svg>
