<?xml version="1.0" encoding="utf-8"?>
<!-- Generator: Adobe Illustrator 18.1.0, SVG Export Plug-In . SVG Version: 6.00 Build 0)  -->
<!DOCTYPE svg PUBLIC "-//W3C//DTD SVG 1.1//EN" "http://www.w3.org/Graphics/SVG/1.1/DTD/svg11.dtd">
<svg version="1.1" id="Layer_1" xmlns="http://www.w3.org/2000/svg" xmlns:xlink="http://www.w3.org/1999/xlink" x="0px" y="0px"
	 width="160px" height="160px" viewBox="-219 321 160 160" enable-background="new -219 321 160 160" xml:space="preserve">
<path fill="#CCCCCC" d="M-77,337h-124c-1.1,0-2,0.9-2,2v123c0,1.6,1.4,3,3,3h122c1.7,0,3-1.4,3-3V339C-75,337.9-75.9,337-77,337z"/>
<path fill="#F5F5F5" d="M-202,344h126v118c0,1.1-0.9,2-2,2h-122c-1.1,0-2-0.9-2-2V344z"/>
<circle fill="#FF3333" cx="-200" cy="340" r="1"/>
<circle fill="#FFFF33" cx="-196" cy="340" r="1"/>
<circle fill="#39B54A" cx="-192" cy="340" r="1"/>
<path fill="#AAAAAA" d="M-145.4,339H-160c-0.6,0-1,0.4-1,1v4h19v-1l-2.7-3.7C-144.9,339.1-145.1,339-145.4,339z"/>
<path fill="#FFFFFF" d="M-202,344c0-0.6,0.4-1,1-1h124c0.6,0,1,0.4,1,1H-202z"/>
<path fill="#FFFFFF" d="M-163.4,339H-178c-0.6,0-1,0.4-1,1v4h19v-1l-2.7-3.7C-162.9,339.1-163.1,339-163.4,339z"/>
<polygon fill="#AAAAAA" points="-186,341 -187,341 -188,340 -187,339 -186,339 -187,340 "/>
<polygon fill="#AAAAAA" points="-184,341 -183,341 -182,340 -183,339 -184,339 -183,340 "/>
</svg>
