<?xml version="1.0" encoding="utf-8"?>
<!-- Generator: Adobe Illustrator 19.1.0, SVG Export Plug-In . SVG Version: 6.00 Build 0)  -->
<!DOCTYPE svg PUBLIC "-//W3C//DTD SVG 1.1//EN" "http://www.w3.org/Graphics/SVG/1.1/DTD/svg11.dtd">
<svg version="1.1" id="X" xmlns="http://www.w3.org/2000/svg" xmlns:xlink="http://www.w3.org/1999/xlink" x="0px" y="0px"
	 width="160px" height="160px" viewBox="-419 421 160 160" style="enable-background:new -419 421 160 160;" xml:space="preserve">
<style type="text/css">
	.st0{fill:#CECECE;}
	.st1{fill:#E1E1E1;}
	.st2{fill:#E5E5E5;}
	.st3{fill:#5E5E5E;}
	.st4{fill:#AFAFAF;}
	.st5{fill:#B28B70;}
	.st6{fill:#919A00;}
	.st7{fill:#CCA27D;}
	.st8{fill:#666666;}
	.st9{fill:#7F7F0D;}
	.st10{fill:#B2B2B2;}
	.st11{fill:none;}
	.st12{fill:#6DD3F2;}
	.st13{fill:none;stroke:#E1E1E1;stroke-width:0.5;stroke-miterlimit:10;}
</style>
<path class="st0" d="M-300.3,498.8l-7.6-18.5c-1.5-3.8-2.4-6.1-1.6-7.4c0.5-0.7,1.6-1.1,3.5-1.1c1.3,0,1.9-0.7,1.9-1.4
	s-0.6-1.4-1.9-1.4c-1.8,0-2.8-0.4-3.1-1.1l0.2-0.1c0.3,0.6,1.2,0.9,2.9,0.9c1.5,0,2.1,0.8,2.1,1.6s-0.7,1.6-2.1,1.6
	c-1.8,0-2.8,0.3-3.3,1c-0.8,1.2,0.2,3.6,1.6,7.2l0.4,1l7.2,17.4L-300.3,498.8z"/>
<path class="st0" d="M-300.2,499.1l-8.9-21.5c-0.7-1.6-1.3-1.5-3.5-1.2l-0.1,0l0-0.2l0.1,0c2.2-0.3,3-0.4,3.8,1.3l8.9,21.5
	L-300.2,499.1z"/>
<rect x="-336" y="455.1" transform="matrix(0.1409 0.99 -0.99 0.1409 186.1767 744.5546)" class="st0" width="0.2" height="48.9"/>
<rect x="-313.5" y="471.8" transform="matrix(-0.3162 -0.9487 0.9487 -0.3162 -858.9343 325.8152)" class="st1" width="2.8" height="1.3"/>
<g>
	<rect x="-299.1" y="493" class="st0" width="0.2" height="54"/>
	<rect x="-295.1" y="493" class="st0" width="0.2" height="54"/>
	
		<rect x="-325.6" y="521.1" transform="matrix(0.5878 0.809 -0.809 0.5878 298.5447 456.4223)" class="st0" width="54" height="0.3"/>
	
		<rect x="-322.4" y="518.7" transform="matrix(0.5878 0.809 -0.809 0.5878 297.9773 452.8381)" class="st0" width="54" height="0.3"/>
	
		<rect x="-324.6" y="521.8" transform="matrix(0.9511 0.309 -0.309 0.9511 146.7064 117.5087)" class="st0" width="54" height="0.3"/>
	<rect x="-323.4" y="518" transform="matrix(0.9511 0.309 -0.309 0.9511 145.5915 116.9405)" class="st0" width="54" height="0.3"/>
	
		<rect x="-296.5" y="494.9" transform="matrix(0.3116 0.9502 -0.9502 0.3116 291.8827 640.9338)" class="st0" width="0.3" height="54"/>
	
		<rect x="-297.7" y="491.1" transform="matrix(0.3116 0.9502 -0.9502 0.3116 287.4171 639.4899)" class="st0" width="0.3" height="54"/>
	
		<rect x="-295.5" y="494.2" transform="matrix(0.8111 0.5849 -0.5849 0.8111 249.0458 271.2301)" class="st0" width="0.3" height="54"/>
	
		<rect x="-298.7" y="491.8" transform="matrix(0.8111 0.5849 -0.5849 0.8111 247.0594 272.679)" class="st0" width="0.3" height="54"/>
	<rect x="-325.9" y="520.5" transform="matrix(0.309 0.9511 -0.9511 0.309 288.6 644.018)" class="st0" width="54" height="0.3"/>
	
		<rect x="-322.1" y="519.3" transform="matrix(0.309 0.9511 -0.9511 0.309 290.053 639.5447)" class="st0" width="54" height="0.3"/>
	
		<rect x="-325.2" y="521.5" transform="matrix(0.809 0.5878 -0.5878 0.809 249.6535 274.8842)" class="st0" width="54" height="0.3"/>
	
		<rect x="-322.8" y="518.3" transform="matrix(0.809 0.5878 -0.5878 0.809 248.2001 272.8845)" class="st0" width="54" height="0.3"/>
	<rect x="-324" y="521.9" class="st0" width="54" height="0.2"/>
	<rect x="-324" y="517.9" class="st0" width="54" height="0.2"/>
	
		<rect x="-295.9" y="494.6" transform="matrix(0.5849 0.8111 -0.8111 0.5849 300.2888 456.4533)" class="st0" width="0.3" height="54"/>
	
		<rect x="-298.3" y="491.4" transform="matrix(0.5849 0.8111 -0.8111 0.5849 296.6882 457.0166)" class="st0" width="0.3" height="54"/>
	
		<rect x="-295.2" y="493.6" transform="matrix(0.9502 0.3116 -0.3116 0.9502 147.5118 117.8494)" class="st0" width="0.3" height="54"/>
	
		<rect x="-299" y="492.4" transform="matrix(0.9502 0.3116 -0.3116 0.9502 146.9374 118.973)" class="st0" width="0.3" height="54"/>
</g>
<polygon class="st1" points="-309,469 -310,468 -312,468 -312,467 -309,467 -308,468 "/>
<path class="st2" d="M-297,547c-14.9,0-27-12.1-27-27s12.1-27,27-27s27,12.1,27,27S-282.1,547-297,547z M-297,495
	c-13.8,0-25,11.2-25,25s11.2,25,25,25s25-11.2,25-25S-283.2,495-297,495z"/>
<path class="st3" d="M-297,491c-16,0-29,13-29,29s13,29,29,29s29-13,29-29S-281,491-297,491z M-297,546.5
	c-14.6,0-26.5-11.9-26.5-26.5s11.9-26.5,26.5-26.5s26.5,11.9,26.5,26.5S-282.4,546.5-297,546.5z"/>
<g>
	<rect x="-384.1" y="493" class="st0" width="0.2" height="54"/>
	<rect x="-380.1" y="493" class="st0" width="0.2" height="54"/>
	
		<rect x="-410.6" y="521.1" transform="matrix(0.5878 0.809 -0.809 0.5878 263.5066 525.1886)" class="st0" width="54" height="0.2"/>
	
		<rect x="-407.4" y="518.7" transform="matrix(0.5878 0.809 -0.809 0.5878 262.9388 521.6047)" class="st0" width="54" height="0.2"/>
	
		<rect x="-409.6" y="521.8" transform="matrix(0.9511 0.309 -0.309 0.9511 142.5475 143.7758)" class="st0" width="54" height="0.3"/>
	<rect x="-408.4" y="518" transform="matrix(0.9511 0.309 -0.309 0.9511 141.4326 143.2078)" class="st0" width="54" height="0.3"/>
	
		<rect x="-381.5" y="494.9" transform="matrix(0.308 0.9514 -0.9514 0.308 232.6198 723.9798)" class="st0" width="0.3" height="54"/>
	
		<rect x="-382.7" y="491.1" transform="matrix(0.308 0.9514 -0.9514 0.308 228.1459 722.5235)" class="st0" width="0.3" height="54"/>
	
		<rect x="-380.5" y="494.2" transform="matrix(0.8097 0.5868 -0.5868 0.8097 233.4451 322.3523)" class="st0" width="0.2" height="54"/>
	
		<rect x="-383.7" y="491.8" transform="matrix(0.8097 0.5868 -0.5868 0.8097 231.4499 323.8041)" class="st0" width="0.2" height="54"/>
	
		<rect x="-410.9" y="520.5" transform="matrix(0.309 0.9511 -0.9511 0.309 229.867 724.8531)" class="st0" width="54" height="0.2"/>
	
		<rect x="-407.1" y="519.3" transform="matrix(0.309 0.9511 -0.9511 0.309 231.3207 720.3792)" class="st0" width="54" height="0.2"/>
	
		<rect x="-410.2" y="521.5" transform="matrix(0.809 0.5878 -0.5878 0.809 233.4187 324.8429)" class="st0" width="54" height="0.3"/>
	
		<rect x="-407.8" y="518.3" transform="matrix(0.809 0.5878 -0.5878 0.809 231.9655 322.843)" class="st0" width="54" height="0.3"/>
	<rect x="-409" y="521.9" class="st0" width="54" height="0.2"/>
	<rect x="-409" y="517.9" class="st0" width="54" height="0.2"/>
	
		<rect x="-380.9" y="494.6" transform="matrix(0.5849 0.8111 -0.8111 0.5849 265.0072 525.3958)" class="st0" width="0.3" height="54"/>
	
		<rect x="-383.3" y="491.4" transform="matrix(0.5849 0.8111 -0.8111 0.5849 261.4063 525.9594)" class="st0" width="0.3" height="54"/>
	
		<rect x="-380.2" y="493.6" transform="matrix(0.9498 0.3127 -0.3127 0.9498 143.7392 144.9688)" class="st0" width="0.2" height="54"/>
	
		<rect x="-384" y="492.4" transform="matrix(0.9498 0.3127 -0.3127 0.9498 143.1619 146.0964)" class="st0" width="0.2" height="54"/>
</g>
<path class="st2" d="M-382,547c-14.9,0-27-12.1-27-27s12.1-27,27-27s27,12.1,27,27S-367.1,547-382,547z M-382,495
	c-13.8,0-25,11.2-25,25s11.2,25,25,25s25-11.2,25-25S-368.2,495-382,495z"/>
<path class="st3" d="M-382,491c-16,0-29,13-29,29s13,29,29,29s29-13,29-29S-366,491-382,491z M-382,546.5
	c-14.6,0-26.5-11.9-26.5-26.5s11.9-26.5,26.5-26.5s26.5,11.9,26.5,26.5S-367.4,546.5-382,546.5z"/>
<path class="st4" d="M-312.9,469.8h1.6c0.4,0,0.7-0.2,0.8-0.5c0.1-0.3,0.1-0.7-0.2-1l-2.8-2.8l-1.1,1.1l1.6,1.7h-0.9
	c-0.3,0-0.5,0.1-0.7,0.4s-0.2,0.5-0.1,0.8l2.9,8.8l1.4-0.5L-312.9,469.8z"/>
<circle class="st1" cx="-382" cy="520" r="3"/>
<path class="st5" d="M-310.5,467h-3c-0.3,0-0.5-0.2-0.5-0.5v-1c0-0.3,0.2-0.5,0.5-0.5h2c0.8,0,1.5,0.7,1.5,1.5l0,0
	C-310,466.8-310.2,467-310.5,467z"/>
<circle class="st1" cx="-297" cy="520" r="3"/>
<rect x="-384.5" y="496.3" transform="matrix(0.3162 0.9487 -0.9487 0.3162 228.0727 677.566)" class="st4" width="56.9" height="1.5"/>
<rect x="-363" y="481.6" transform="matrix(0.8574 0.5146 -0.5146 0.8574 197.6527 255.6432)" class="st6" width="1" height="5.8"/>
<rect x="-367.9" y="486" transform="matrix(0.8519 0.5237 -0.5237 0.8519 203.7195 265.5465)" class="st0" width="0.5" height="14.1"/>
<polygon class="st0" points="-362,470.5 -363,470.5 -364,470 -368,470 -368,472.5 -367,473.5 -366,473.5 -365,472.5 -365,471.5 
	-362,471.5 -358,470 -358,469 "/>
<path class="st7" d="M-376,468L-376,468c0-0.6,0.4-1,1-1h17.3c0.5,0,0.9,0.1,1.3,0.3l2.7,1.3c1.1,0.6,1.7,0.9,1.7,1.3l0,0
	c0,1-1.6,1-2.2,1l0,0c-1.2,0-2.3-0.3-3.3-0.8l-0.2-0.1c-0.2-0.1-0.4-0.1-0.6-0.1h-4.5c-0.1,0-0.3,0-0.4,0.1l-5.6,1.9
	c-0.1,0-0.3,0.1-0.4,0.1l0,0c-0.8,0-1.6-0.3-2.2-0.9l-0.7-0.7c-0.2-0.2-0.5-0.4-0.9-0.4h-1C-375.1,470-376,469.1-376,468z"/>
<circle class="st8" cx="-347" cy="524" r="1"/>
<rect x="-372.3" y="499.5" transform="matrix(0.8321 0.5547 -0.5547 0.8321 215.1247 289.4913)" class="st9" width="3.6" height="1"/>
<circle class="st10" cx="-382" cy="520" r="2"/>
<rect x="-366.3" y="489.5" transform="matrix(0.8321 0.5547 -0.5547 0.8321 210.5854 284.4836)" class="st9" width="3.6" height="1"/>
<path class="st11" d="M-360.1,487.8c-0.1-0.2-0.3-0.2-0.4-0.1l-19.7,31.4l30.3,3.5c0.7,0.1,1.3-0.6,1.1-1.3L-360.1,487.8z"/>
<path class="st11" d="M-311.4,479.9c-0.2-0.5-0.6-0.7-1.1-0.7l-45.6,6.5c-0.3,0-0.5,0.4-0.4,0.7l11.4,34.1c0.2,0.7,1.2,0.9,1.7,0.4
	l34.9-37.6c0.1-0.1,0.2-0.3,0.1-0.5L-311.4,479.9z"/>
<path class="st6" d="M-311.1,474.7l-1.9,0.6l0.4,1.3c0.1,0.3-0.1,0.6-0.4,0.7l-46,6.6c-0.2,0-0.5-0.1-0.5-0.3l-0.6-1.8l-1.9,0.6
	l0.7,2.1c0.1,0.3,0.1,0.6-0.1,0.8l-21.5,34.2l0,1.5l0.7,0l35.1,4h0.4l36.6-39.5c0.1-0.1,0.4-0.1,0.4,0.1l2.7,8.1l1.9-0.6
	L-311.1,474.7z M-350,522.7l-28.7-3.3c-0.7-0.1-1.1-0.9-0.7-1.5l18.9-30.1c0.1-0.2,0.4-0.1,0.4,0.1l11.2,33.5
	C-348.7,522-349.3,522.7-350,522.7z M-310.6,483.2l-34.9,37.6c-0.5,0.6-1.4,0.4-1.7-0.4l-11.4-34.1c-0.1-0.3,0.1-0.6,0.4-0.7
	l45.6-6.5c0.5-0.1,0.9,0.2,1.1,0.7l0.9,2.8C-310.4,482.9-310.5,483.1-310.6,483.2z"/>
<path class="st1" d="M-347,517c-3.9,0-7,3.1-7,7s3.1,7,7,7s7-3.1,7-7S-343.1,517-347,517z M-342.8,523.5h-3.4l1.7-2.9
	c0.3-0.6,1.2-0.7,1.6-0.2c0.4,0.5,0.8,1.1,1,1.7C-341.6,522.8-342.1,523.5-342.8,523.5z M-347,518.5c0.3,0,0.7,0,1,0.1
	c0.7,0.1,1,0.9,0.7,1.5l-1.7,2.9l-1.7-2.9c-0.3-0.6,0-1.4,0.7-1.5C-347.7,518.5-347.3,518.5-347,518.5z M-349.5,520.6l1.7,2.9h-3.4
	c-0.7,0-1.2-0.7-0.9-1.3c0.2-0.6,0.6-1.2,1-1.7C-350.7,519.9-349.9,520-349.5,520.6z M-351.2,524.5h3.4l-1.7,2.9
	c-0.3,0.6-1.2,0.7-1.6,0.2c-0.4-0.5-0.8-1.1-1-1.7C-352.4,525.2-351.9,524.5-351.2,524.5z M-347,529.5c-0.3,0-0.7,0-1-0.1
	c-0.7-0.1-1-0.9-0.7-1.5l1.7-2.9l1.7,2.9c0.3,0.6,0,1.4-0.7,1.5C-346.3,529.5-346.7,529.5-347,529.5z M-344.5,527.4l-1.7-2.9h3.4
	c0.7,0,1.2,0.7,0.9,1.3c-0.2,0.6-0.6,1.2-1,1.7C-343.3,528.1-344.1,528-344.5,527.4z"/>
<circle class="st10" cx="-297" cy="520" r="2"/>
<circle class="st4" cx="-372" cy="499" r="1"/>
<circle class="st0" cx="-372" cy="499" r="0.5"/>
<polygon class="st0" points="-340.7,537.4 -348,524.7 -345.9,523.5 -339.3,536.6 "/>
<circle class="st0" cx="-340" cy="537" r="1.5"/>
<polygon class="st8" points="-343,538 -344,537.5 -344,536.5 -343,536 "/>
<polygon class="st8" points="-337,538 -337,536 -336,536.5 -336,537.5 "/>
<circle class="st0" cx="-347" cy="524" r="2.4"/>
<circle class="st1" cx="-347" cy="524" r="1.6"/>
<path class="st7" d="M-312.5,467c0.3,0,0.5-0.2,0.5-0.5l0,0c0-0.8-0.7-1.5-1.5-1.5h-5.5c-0.6,0-1,0.4-1,1s0.4,1,1,1H-312.5z"/>
<path class="st9" d="M-359.3,482l-0.3-0.9l-3,1c-0.2,0.1-0.3,0.2-0.3,0.5c0,0.3,0.2,0.5,0.5,0.5c0.1,0,0.1,0,0.2,0L-359.3,482z"/>
<circle class="st3" cx="-362.5" cy="482.5" r="0.2"/>
<rect x="-311.1" y="478.4" transform="matrix(-0.3162 -0.9487 0.9487 -0.3162 -862.0367 336.7791)" class="st12" width="2.8" height="1.3"/>
<path class="st1" d="M-310,474.9l-0.3-0.9l-3,1c-0.2,0.1-0.3,0.2-0.3,0.5c0,0.3,0.2,0.5,0.5,0.5c0.1,0,0.1,0,0.2,0L-310,474.9z"/>
<circle class="st3" cx="-313.2" cy="475.5" r="0.2"/>
<circle class="st3" cx="-366.5" cy="472.5" r="0.2"/>
<circle class="st4" cx="-309" cy="468.1" r="0.2"/>
<rect x="-308" y="493.3" transform="matrix(0.3812 0.9245 -0.9245 0.3812 269.167 584.9105)" class="st0" width="11.3" height="0.5"/>
<rect x="-303" y="499.1" transform="matrix(-0.91 0.4146 -0.4146 -0.91 -368.2067 1079.188)" class="st9" width="3.6" height="1"/>
<rect x="-307.4" y="488.3" transform="matrix(-0.91 0.4146 -0.4146 -0.91 -380.9583 1060.2958)" class="st9" width="3.6" height="1"/>
<circle class="st4" cx="-299.6" cy="498.9" r="1"/>
<circle class="st0" cx="-299.6" cy="498.9" r="0.5"/>
<path class="st6" d="M-297,518.5c-0.8,0-1.5,0.7-1.5,1.5c0,0.2,0,0.4,0.1,0.6l2.8-1.1C-295.8,518.9-296.4,518.5-297,518.5z"/>
<path class="st0" d="M-298.4,520.6c0.2,0.6,0.8,0.9,1.4,0.9c0.8,0,1.5-0.7,1.5-1.5c0-0.2,0-0.4-0.1-0.6L-298.4,520.6z"/>
<path class="st6" d="M-382,518.5c-0.8,0-1.5,0.7-1.5,1.5h1.5v1.5c0.8,0,1.5-0.7,1.5-1.5S-381.2,518.5-382,518.5z"/>
<path class="st0" d="M-382,521.5V520h-1.5C-383.5,520.8-382.8,521.5-382,521.5z"/>
<circle class="st8" cx="-382" cy="520" r="1"/>
<path class="st6" d="M-296.3,519.8l-3.5-10.5l-2.8-10.7c0-0.1,0-0.1-0.1-0.2c0,0,0,0,0,0l-2.9-8.8c-0.3-0.8-1.1-1.2-1.9-0.9
	c-0.8,0.3,0.4,4.3,0.6,5.1l5.6,16.1l3.5,10.5c0.1,0.3,0.4,0.5,0.7,0.5c0.1,0,0.2,0,0.2,0C-296.4,520.6-296.2,520.2-296.3,519.8z"/>
<circle class="st8" cx="-297" cy="520" r="1"/>
<line class="st13" x1="-347" y1="524" x2="-340" y2="537"/>
<circle class="st8" cx="-347" cy="524" r="1"/>
<polygon class="st1" points="-337,538 -343,538 -344,537.5 -344,536.5 -343,536 -337,536 -336,536.5 -336,537.5 "/>
<circle class="st0" cx="-340" cy="537" r="1"/>
<circle class="st8" cx="-340" cy="537" r="0.5"/>
</svg>
