<svg xmlns="http://www.w3.org/2000/svg"
  width="160px" height="160px" viewBox="0 0 160 160">
  <g>
    <path fill="#e0e0e0" d="M112,36L112,36c0.5999985,0,1-0.3999939,1-1v-2c0-0.6000061-0.4000015-1-1-1l0,0
      c-0.5999985,0-1,0.3999939-1,1v2C111,35.6000061,111.4000015,36,112,36z"/>
    <path fill="#e0e0e0" d="M112,48L112,48c0.5999985,0,1-0.3999939,1-1v-6c0-0.6000061-0.4000015-1-1-1l0,0
      c-0.5999985,0-1,0.3999939-1,1v6C111,47.6000061,111.4000015,48,112,48z"/>
    <path fill="#e0e0e0" d="M48,48L48,48c0.6000061,0,1-0.3999939,1-1v-6c0-0.6000061-0.3999939-1-1-1l0,0
      c-0.6000061,0-1,0.3999939-1,1v6C47,47.6000061,47.3999939,48,48,48z"/>
    <path fill="#e0e0e0" d="M112,58L112,58c0.5999985,0,1-0.3999939,1-1v-6c0-0.6000061-0.4000015-1-1-1l0,0
      c-0.5999985,0-1,0.3999939-1,1v6C111,57.6000061,111.4000015,58,112,58z"/>
  </g>
  <g>
    <path fill="#e0e0e0" d="M48,22v116c0,3.2999878,2.6999969,6,6,6h52c3.3000031,0,6-2.7000122,6-6V22c0-3.2999878-2.6999969-6-6-6H54
      C50.6999969,16,48,18.7000122,48,22z"/>
    <path fill="#eeeeee" d="M111,26v-4c0-2.7999878-2.1999969-5-5-5H54c-2.8000031,0-5,2.2000122-5,5v4H111z"/>
    <path fill="#eeeeee" d="M49,134v4c0,2.7999878,2.1999969,5,5,5h52c2.8000031,0,5-2.2000122,5-5v-4H49z"/>
    <rect x="48" y="27" fill="#eeeeee" width="64" height="106"/>
  </g>
  <g>
    <circle fill="#ffffff" cx="59" cy="21" r="3.2000122"/>
    <circle fill="#2b2b2b" cx="59" cy="21" r="3"/>
    <circle fill="#383838" cx="59" cy="21" r="2"/>
    <circle fill="#444444" cx="59" cy="21" r="1"/>
    <circle fill="#006666" cx="59.3999939" cy="20.6000061" r="0.5"/>
    <circle fill="#006666" cx="58.6000061" cy="21.3999939" r="0.5"/>
    <circle fill="#2b2b2b" cx="64.5" cy="21.5" r="0.5"/>
    <circle fill="#e0e0e0" cx="68.5" cy="21.5" r="1.5"/>
    <circle fill="#ffffff" cx="68.5" cy="20.7999878" r="0.7999878"/>
    <circle fill="#ffffff" cx="68.5" cy="22.2000122" r="0.7999878"/>
  </g>
  <circle fill="#e0e0e0" cx="80" cy="50" r="8"/>
</svg>
