<svg xmlns="http://www.w3.org/2000/svg" width="160px" height="160px" viewBox="0 0 160 160"
  role="img" aria-labelledby="title" aria-describedby="desc">
  <title id="title">Notebook</title>
  <desc id="desc">A closed brown notebook with "Notes" written on the cover</desc>
  <path fill="#aaaaaa" d="M40,128L40,128c-0.6000061,0-1-0.3999939-1-1v-6c0-0.6000061,0.3999939-1,1-1l0,0
    c0.6000061,0,1,0.3999939,1,1v6C41,127.6000061,40.6000061,128,40,128z"/>
  <path fill="#cccccc" d="M40,127L40,127c-0.6000061,0-1-0.3999939-1-1v-4c0-0.6000061,0.3999939-1,1-1l0,0
    c0.6000061,0,1,0.3999939,1,1v4C41,126.6000061,40.6000061,127,40,127z"/>
  <path fill="#b28b70" d="M116,16H42v128h74c3.3000031,0,6-2.7000122,6-6V22C122,18.7000122,119.3000031,16,116,16z"/>
  <path fill="#aaaaaa" d="M40,40L40,40c-0.6000061,0-1-0.3999939-1-1v-6c0-0.6000061,0.3999939-1,1-1l0,0
    c0.6000061,0,1,0.3999939,1,1v6C41,39.6000061,40.6000061,40,40,40z"/>
  <path fill="#cccccc" d="M40,39L40,39c-0.6000061,0-1-0.3999939-1-1v-4c0-0.6000061,0.3999939-1,1-1l0,0
    c0.6000061,0,1,0.3999939,1,1v4C41,38.6000061,40.6000061,39,40,39z"/>
  <path fill="#ccc2bc" d="M116,17H41v126h75c2.8000031,0,5-2.2000122,5-5V22C121,19.2000122,118.8000031,17,116,17z"/>
  <path fill="#aaaaaa" d="M40,84L40,84c-0.6000061,0-1-0.3999939-1-1v-6c0-0.6000061,0.3999939-1,1-1l0,0
    c0.6000061,0,1,0.3999939,1,1v6C41,83.6000061,40.6000061,84,40,84z"/>
  <path fill="#cccccc" d="M40,83L40,83c-0.6000061,0-1-0.3999939-1-1v-4c0-0.6000061,0.3999939-1,1-1l0,0
    c0.6000061,0,1,0.3999939,1,1v4C41,82.6000061,40.6000061,83,40,83z"/>
  <path fill="#cca27d" d="M114,16H40v128h74c3.3000031,0,6-2.7000122,6-6V22C120,18.7000122,117.3000031,16,114,16z"/>
  <g>
      <path fill="#666666" d="M95,56L95,56c-0.6,0-1-0.4-1-1v-6c0-0.6,0.4-1,1-1l0,0c0.6,0,1,0.4,1,1v6C96,55.6,95.6,56,95,56z"/>
      <path fill="#666666" d="M99,56L99,56c-0.6,0-1-0.4-1-1v-6c0-0.6,0.4-1,1-1l0,0c0.6,0,1,0.4,1,1v6C100,55.6,99.6,56,99,56z"/>
      <path fill="#666666" d="M92,51L92,51c0,0.6-0.4,1-1,1h-2c-0.6,0-1-0.4-1-1l0,0c0-0.6,0.4-1,1-1h2C91.6,50,92,50.4,92,51z"/>
      <path fill="#666666" d="M90,55L90,55c0,0.6-0.4,1-1,1h-2c-0.6,0-1-0.4-1-1l0,0c0-0.6,0.4-1,1-1h2C89.6,54,90,54.4,90,55z"/>
      <path fill="#666666" d="M61,56L61,56c-0.6,0-1-0.4-1-1v-6c0-0.6,0.4-1,1-1l0,0c0.6,0,1,0.4,1,1v6C62,55.6,61.6,56,61,56z"/>
      <path fill="#666666" d="M89,56L89,56c-0.6,0-1-0.4-1-1v-6c0-0.6,0.4-1,1-1l0,0c0.6,0,1,0.4,1,1v6C90,55.6,89.6,56,89,56z"/>
      <path fill="#666666" d="M77,56L77,56c-0.6,0-1-0.4-1-1v-6c0-0.6,0.4-1,1-1l0,0c0.6,0,1,0.4,1,1v6C78,55.6,77.6,56,77,56z"/>
      <path fill="#666666" d="M80,49L80,49c0,0.6-0.4,1-1,1h-2c-0.6,0-1-0.4-1-1l0,0c0-0.6,0.4-1,1-1h2C79.6,48,80,48.4,80,49z"/>
      <path fill="#666666" d="M81,51L81,51c0.6,0,1,0.4,1,1v3c0,0.6-0.4,1-1,1l0,0c-0.6,0-1-0.4-1-1v-3C80,51.4,80.4,51,81,51z"/>
      <path fill="#666666" d="M85,48L85,48c0.6,0,1,0.4,1,1v3c0,0.6-0.4,1-1,1l0,0c-0.6,0-1-0.4-1-1v-3C84,48.4,84.4,48,85,48z"/>
      <path fill="#666666" d="M73,56L73,56c-0.6,0-1-0.4-1-1v-3c0-0.6,0.4-1,1-1l0,0c0.6,0,1,0.4,1,1v3C74,55.6,73.6,56,73,56z"/>
      <path fill="#666666" d="M69,48L69,48c0.6,0,1,0.4,1,1v6c0,0.6-0.4,1-1,1l0,0c-0.6,0-1-0.4-1-1v-6C68,48.4,68.4,48,69,48z"/>
      <path fill="#666666" d="M65,51L65,51c0.6,0,1,0.4,1,1v3c0,0.6-0.4,1-1,1l0,0c-0.6,0-1-0.4-1-1v-3C64,51.4,64.4,51,65,51z"/>
      <path fill="#666666" d="M70,52L70,52c0,0.6-0.4,1-1,1h-4c-0.6,0-1-0.4-1-1l0,0c0-0.6,0.4-1,1-1h4C69.6,51,70,51.4,70,52z"/>
      <path fill="#666666" d="M86,52L86,52c0,0.6-0.4,1-1,1h-4c-0.6,0-1-0.4-1-1l0,0c0-0.6,0.4-1,1-1h4C85.6,51,86,51.4,86,52z"/>
      <circle fill="#666666" cx="57" cy="50" r="1"/>
      <circle fill="#666666" cx="57" cy="54" r="1"/>
      <circle fill="#666666" cx="73" cy="49" r="1"/>
    </g>
</svg>
