<?xml version="1.0" encoding="utf-8"?>
<!DOCTYPE svg PUBLIC "-//W3C//DTD SVG 1.1//EN" "http://www.w3.org/Graphics/SVG/1.1/DTD/svg11.dtd">
<svg version="1.1" id="Layer_1" xmlns="http://www.w3.org/2000/svg" xmlns:xlink="http://www.w3.org/1999/xlink" x="0px" y="0px"
  width="160px" height="160px" viewBox="-219 321 160 160" enable-background="new -219 321 160 160" xml:space="preserve">
  <path fill="#E0E0E0" d="M-123,398.1l28.6,50.9H-123V398.1 M-139,337v128h72L-139,337L-139,337z"/>
  <path fill="#E0E0E0" d="M-211,337v19h1v44c0.6,0,1,0.4,1,1s-0.4,1-1,1v44h-1v19c35.3,0,64-28.7,64-64S-175.7,337-211,337z M-195,446
    v-90c18.6,6.6,32,24.1,32,45S-176.4,439.4-195,446z"/>
  <rect x="-211" y="337" fill="#444444" width="1" height="8"/>
  <rect x="-205.1" y="337.3" transform="matrix(0.9962 8.715574e-02 -8.715574e-02 0.9962 28.7032 19.1552)" fill="#444444" width="0.2" height="2"/>
  <rect x="-194.3" y="339.3" transform="matrix(0.9659 0.2588 -0.2588 0.9659 81.4523 61.8602)" fill="#444444" width="0.2" height="2"/>
  <rect x="-184" y="343.1" transform="matrix(0.9063 0.4226 -0.4226 0.9063 128.1968 109.9695)" fill="#444444" width="0.2" height="2"/>
  <rect x="-174.6" y="348.7" transform="matrix(0.8192 0.5736 -0.5736 0.8192 169.0185 163.3023)" fill="#444444" width="0.2" height="2"/>
  <rect x="-166.2" y="355.8" transform="matrix(0.7071 0.7071 -0.7071 0.7071 203.6506 221.9556)" fill="#444444" width="0.2" height="2"/>
  <rect x="-159.2" y="364.3" transform="matrix(0.5736 0.8192 -0.8192 0.5736 231.3683 286.0941)" fill="#444444" width="0.2" height="2"/>
  <rect x="-153.8" y="373.8" transform="matrix(0.4226 0.9063 -0.9063 0.4226 250.9712 355.7106)" fill="#444444" width="0.2" height="2"/>
  <rect x="-150.1" y="384.2" transform="matrix(0.2588 0.9659 -0.9659 0.2588 260.8628 430.3917)" fill="#444444" width="0.2" height="2"/>
  <rect x="-148.3" y="395" transform="matrix(8.715580e-02 0.9962 -0.9962 8.715580e-02 259.2204 509.1252)" fill="#444444" width="0.2" height="2"/>
  <rect x="-148.4" y="406" transform="matrix(-8.715577e-02 0.9962 -0.9962 -8.715577e-02 244.2331 590.1794)" fill="#444444" width="0.2" height="2"/>
  <rect x="-150.4" y="416.8" transform="matrix(-0.2588 0.9659 -0.9659 -0.2588 214.3824 671.0757)" fill="#444444" width="0.2" height="2"/>
  <rect x="-154.2" y="427.1" transform="matrix(-0.4226 0.9063 -0.9063 -0.4226 168.7252 748.6664)" fill="#444444" width="0.2" height="2"/>
  <rect x="-159.8" y="436.5" transform="matrix(-0.5736 0.8192 -0.8192 -0.5736 107.1468 819.3127)" fill="#444444" width="0.2" height="2"/>
  <rect x="-166.9" y="444.9" transform="matrix(-0.7071 0.7071 -0.7071 -0.7071 30.5445 879.1506)" fill="#444444" width="0.2" height="2"/>
  <rect x="-175.4" y="451.9" transform="matrix(-0.8192 0.5736 -0.5736 -0.8192 -59.0816 924.4151)" fill="#444444" width="0.2" height="2"/>
  <rect x="-185" y="457.3" transform="matrix(-0.9063 0.4226 -0.4226 -0.9063 -158.6498 951.7892)" fill="#444444" width="0.2" height="2"/>
  <rect x="-195.3" y="461" transform="matrix(-0.9659 0.2588 -0.2588 -0.9659 -264.1342 958.7394)" fill="#444444" width="0.2" height="2"/>
  <rect x="-206.1" y="462.8" transform="matrix(-0.9962 8.715564e-02 -8.715564e-02 -0.9962 -370.8075 943.7975)" fill="#444444" width="0.2" height="2"/>
  <rect x="-200" y="338" transform="matrix(0.9848 0.1736 -0.1736 0.9848 56.0108 39.8505)" fill="#444444" width="0.5" height="4"/>
  <rect x="-179.8" y="345.6" transform="matrix(0.866 0.5 -0.5 0.866 149.7208 136.3472)" fill="#444444" width="0.5" height="4"/>
  <rect x="-163.4" y="359.5" transform="matrix(0.6428 0.766 -0.766 0.6428 218.6569 254.1491)" fill="#444444" width="0.5" height="4"/>
  <rect x="-152.8" y="378.3" transform="matrix(0.342 0.9397 -0.9397 0.342 256.9451 393.5735)" fill="#444444" width="0.5" height="4"/>
  <rect x="-157" y="400.5" fill="#444444" width="10" height="1"/>
  <rect x="-153.2" y="420.7" transform="matrix(-0.342 0.9397 -0.9397 -0.342 191.9763 710.9269)" fill="#444444" width="0.5" height="4"/>
  <rect x="-164.1" y="439.2" transform="matrix(-0.6428 0.766 -0.766 -0.6428 68.8739 850.3553)" fill="#444444" width="0.5" height="4"/>
  <rect x="-180.7" y="452.9" transform="matrix(-0.866 0.5 -0.5 -0.866 -109.2208 939.1528)" fill="#444444" width="0.5" height="4"/>
  <rect x="-201" y="460.1" transform="matrix(-0.9848 0.1736 -0.1736 -0.9848 -318.1523 952.1246)" fill="#444444" width="0.5" height="4"/>
  <rect x="-190.5" y="340.8" transform="matrix(0.9397 0.342 -0.342 0.9397 106.466 85.7802)" fill="#444444" width="1" height="8"/>
  <rect x="-172.5" y="351.4" transform="matrix(0.766 0.6428 -0.6428 0.766 188.1682 193.7296)" fill="#444444" width="1" height="8"/>
  <rect x="-159.3" y="367.4" transform="matrix(0.5 0.866 -0.866 0.5 242.2762 323.2314)" fill="#444444" width="1" height="8"/>
  <rect x="-152.3" y="387.1" transform="matrix(0.1736 0.9848 -0.9848 0.1736 259.6716 472.6824)" fill="#444444" width="1" height="8"/>
  <rect x="-152.5" y="407.9" transform="matrix(-0.1736 0.9848 -0.9848 -0.1736 227.2608 633.1281)" fill="#444444" width="1" height="8"/>
  <rect x="-159.8" y="427.4" transform="matrix(-0.5 0.866 -0.866 -0.5 134.6992 785.0974)" fill="#444444" width="1" height="8"/>
  <rect x="-173.3" y="443.3" transform="matrix(-0.766 0.6428 -0.6428 -0.766 -17.6917 901.0074)" fill="#444444" width="1" height="8"/>
  <rect x="-191.4" y="453.6" transform="matrix(-0.9397 0.342 -0.342 -0.9397 -213.8894 952.8196)" fill="#444444" width="1" height="8"/>
  <rect x="-211" y="457" fill="#444444" width="1" height="8"/>
  <circle fill="#444444" cx="-157" cy="401" r="1"/>
  <circle fill="#444444" cx="-203" cy="401" r="1"/>
  <rect x="-139" y="344.2" fill="#444444" width="4" height="0.5"/>
  <rect x="-139" y="352" fill="#444444" width="8" height="1"/>
  <rect x="-139" y="360.2" fill="#444444" width="4" height="0.5"/>
  <rect x="-139" y="368" fill="#444444" width="8" height="1"/>
  <rect x="-139" y="376.2" fill="#444444" width="4" height="0.5"/>
  <rect x="-139" y="384" fill="#444444" width="8" height="1"/>
  <rect x="-139" y="392.2" fill="#444444" width="4" height="0.5"/>
  <rect x="-139" y="400" fill="#444444" width="8" height="1"/>
  <rect x="-139" y="408.2" fill="#444444" width="4" height="0.5"/>
  <rect x="-139" y="416" fill="#444444" width="8" height="1"/>
  <rect x="-139" y="424.2" fill="#444444" width="4" height="0.5"/>
  <rect x="-139" y="432" fill="#444444" width="8" height="1"/>
  <rect x="-139" y="440.2" fill="#444444" width="4" height="0.5"/>
  <rect x="-139" y="448" fill="#444444" width="8" height="1"/>
  <rect x="-139" y="456.2" fill="#444444" width="4" height="0.5"/>
  <rect x="-139" y="464" fill="#444444" width="8" height="1"/>
  <path fill="#444444" d="M-205,364h-2c-0.6,0-1-0.4-1-1v-6c0-0.6,0.4-1,1-1h2c0.6,0,1,0.4,1,1v6C-204,363.6-204.4,364-205,364z"/>
  <path fill="#444444" d="M-204.5,366h-3c-0.3,0-0.5-0.2-0.5-0.5l0,0c0-0.3,0.2-0.5,0.5-0.5h3c0.3,0,0.5,0.2,0.5,0.5l0,0
    C-204,365.8-204.2,366-204.5,366z"/>
  <path fill="#E0E0E0" d="M-205.5,363h-1c-0.3,0-0.5-0.2-0.5-0.5l0,0c0-0.3,0.2-0.5,0.5-0.5h1c0.3,0,0.5,0.2,0.5,0.5l0,0
    C-205,362.8-205.2,363-205.5,363z"/>
  <path fill="#444444" d="M-204.5,368h-3c-0.3,0-0.5-0.2-0.5-0.5l0,0c0-0.3,0.2-0.5,0.5-0.5h3c0.3,0,0.5,0.2,0.5,0.5l0,0
    C-204,367.8-204.2,368-204.5,368z"/>
  <path fill="#444444" d="M-206.5,370h-1c-0.3,0-0.5-0.2-0.5-0.5l0,0c0-0.3,0.2-0.5,0.5-0.5h1c0.3,0,0.5,0.2,0.5,0.5l0,0
    C-206,369.8-206.2,370-206.5,370z"/>
  <path fill="#444444" d="M-204.5,372h-3c-0.3,0-0.5-0.2-0.5-0.5l0,0c0-0.3,0.2-0.5,0.5-0.5h3c0.3,0,0.5,0.2,0.5,0.5l0,0
    C-204,371.8-204.2,372-204.5,372z"/>
  <path fill="#444444" d="M-204.5,374h-1c-0.3,0-0.5-0.2-0.5-0.5l0,0c0-0.3,0.2-0.5,0.5-0.5h1c0.3,0,0.5,0.2,0.5,0.5l0,0
    C-204,373.8-204.2,374-204.5,374z"/>
  <path fill="#444444" d="M-204.5,376h-1c-0.3,0-0.5-0.2-0.5-0.5l0,0c0-0.3,0.2-0.5,0.5-0.5h1c0.3,0,0.5,0.2,0.5,0.5l0,0
    C-204,375.8-204.2,376-204.5,376z"/>
  <path fill="#444444" d="M-204.5,378h-3c-0.3,0-0.5-0.2-0.5-0.5l0,0c0-0.3,0.2-0.5,0.5-0.5h3c0.3,0,0.5,0.2,0.5,0.5l0,0
    C-204,377.8-204.2,378-204.5,378z"/>
  <path fill="#444444" d="M-204.5,380h-3c-0.3,0-0.5-0.2-0.5-0.5l0,0c0-0.3,0.2-0.5,0.5-0.5h3c0.3,0,0.5,0.2,0.5,0.5l0,0
    C-204,379.8-204.2,380-204.5,380z"/>
  <path fill="#444444" d="M-208,375.5v-2c0-0.3,0.2-0.5,0.5-0.5l0,0c0.3,0,0.5,0.2,0.5,0.5v2c0,0.3-0.2,0.5-0.5,0.5l0,0
    C-207.8,376-208,375.8-208,375.5z"/>
  <circle fill="#444444" cx="-204.5" cy="369.5" r="0.5"/>
  <path fill="#444444" d="M-114,459v2c0,0.6-0.4,1-1,1h-6c-0.6,0-1-0.4-1-1v-2c0-0.6,0.4-1,1-1h6C-114.4,458-114,458.4-114,459z"/>
  <path fill="#444444" d="M-112,458.5v3c0,0.3-0.2,0.5-0.5,0.5l0,0c-0.3,0-0.5-0.2-0.5-0.5v-3c0-0.3,0.2-0.5,0.5-0.5l0,0
    C-112.2,458-112,458.2-112,458.5z"/>
  <path fill="#FFFFFF" d="M-115,459.5v1c0,0.3-0.2,0.5-0.5,0.5l0,0c-0.3,0-0.5-0.2-0.5-0.5v-1c0-0.3,0.2-0.5,0.5-0.5l0,0
    C-115.2,459-115,459.2-115,459.5z"/>
  <path fill="#444444" d="M-110,458.5v3c0,0.3-0.2,0.5-0.5,0.5l0,0c-0.3,0-0.5-0.2-0.5-0.5v-3c0-0.3,0.2-0.5,0.5-0.5l0,0
    C-110.2,458-110,458.2-110,458.5z"/>
  <path fill="#444444" d="M-108,460.5v1c0,0.3-0.2,0.5-0.5,0.5l0,0c-0.3,0-0.5-0.2-0.5-0.5v-1c0-0.3,0.2-0.5,0.5-0.5l0,0
    C-108.2,460-108,460.2-108,460.5z"/>
  <path fill="#444444" d="M-106,458.5v3c0,0.3-0.2,0.5-0.5,0.5l0,0c-0.3,0-0.5-0.2-0.5-0.5v-3c0-0.3,0.2-0.5,0.5-0.5l0,0
    C-106.2,458-106,458.2-106,458.5z"/>
  <path fill="#444444" d="M-104,458.5v1c0,0.3-0.2,0.5-0.5,0.5l0,0c-0.3,0-0.5-0.2-0.5-0.5v-1c0-0.3,0.2-0.5,0.5-0.5l0,0
    C-104.2,458-104,458.2-104,458.5z"/>
  <path fill="#444444" d="M-102,458.5v1c0,0.3-0.2,0.5-0.5,0.5l0,0c-0.3,0-0.5-0.2-0.5-0.5v-1c0-0.3,0.2-0.5,0.5-0.5l0,0
    C-102.2,458-102,458.2-102,458.5z"/>
  <path fill="#444444" d="M-100,458.5v3c0,0.3-0.2,0.5-0.5,0.5l0,0c-0.3,0-0.5-0.2-0.5-0.5v-3c0-0.3,0.2-0.5,0.5-0.5l0,0
    C-100.2,458-100,458.2-100,458.5z"/>
  <path fill="#444444" d="M-98,458.5v3c0,0.3-0.2,0.5-0.5,0.5l0,0c-0.3,0-0.5-0.2-0.5-0.5v-3c0-0.3,0.2-0.5,0.5-0.5l0,0
    C-98.2,458-98,458.2-98,458.5z"/>
  <path fill="#444444" d="M-102.5,462h-2c-0.3,0-0.5-0.2-0.5-0.5l0,0c0-0.3,0.2-0.5,0.5-0.5h2c0.3,0,0.5,0.2,0.5,0.5l0,0
    C-102,461.8-102.2,462-102.5,462z"/>
  <circle fill="#444444" cx="-108.5" cy="458.5" r="0.5"/>
  <rect x="-196" y="356" fill="#D6D6D6" width="1" height="90"/>
  <polygon fill="#D6D6D6" points="-124,449 -123,449 -123,398 -124,397 "/>
  <polygon fill="#D6D6D6" points="-67,465 -69,465 -139,339 -139,337 "/>
</svg>
