<svg xmlns="http://www.w3.org/2000/svg" width="160px" height="160px" viewBox="0 0 160 160"
  aria-role="img" aria-labelledby="title" aria-describedby="desc">
  <title id="title">Three pens</title>
  <desc id="desc">Three pens for drawing and designing</desc>
  <rect x="60" y="17" fill="#e0e0e0" width="8" height="27"/>
  <path fill="#555555" d="M83,122h-6c-0.6000061,0-1-0.3999939-1-1v-1h8v1C84,121.6000061,83.6000061,122,83,122z"/>
  <polygon fill="#555555" points="83,133 82,134 78,134 77,133 77,121 83,121 "/>
  <rect x="76" y="17" fill="#e0e0e0" width="8" height="104"/>
  <rect x="77" y="17" fill="#eeeeee" width="5" height="101"/>
  <rect x="76" y="17" fill="#555555" width="8" height="5"/>
  <path fill="#444444" d="M82,73h-2c-0.6000061,0-1-0.3999939-1-1v-6c0-0.6000061,0.3999939-1,1-1h2c0.6000061,0,1,0.3999939,1,1v6
    C83,72.6000061,82.6000061,73,82,73z"/>
  <path fill="#444444" d="M82.5,75h-3c-0.3000031,0-0.5-0.2000122-0.5-0.5l0,0c0-0.2999878,0.1999969-0.5,0.5-0.5h3
    c0.3000031,0,0.5,0.2000122,0.5,0.5l0,0C83,74.7999878,82.8000031,75,82.5,75z"/>
  <path fill="#ffffff" d="M81.5,72h-1c-0.3000031,0-0.5-0.2000122-0.5-0.5l0,0c0-0.2999878,0.1999969-0.5,0.5-0.5h1
    c0.3000031,0,0.5,0.2000122,0.5,0.5l0,0C82,71.7999878,81.8000031,72,81.5,72z"/>
  <path fill="#444444" d="M82.5,77h-3c-0.3000031,0-0.5-0.2000122-0.5-0.5l0,0c0-0.2999878,0.1999969-0.5,0.5-0.5h3
    c0.3000031,0,0.5,0.2000122,0.5,0.5l0,0C83,76.7999878,82.8000031,77,82.5,77z"/>
  <path fill="#444444" d="M80.5,79h-1c-0.3000031,0-0.5-0.2000122-0.5-0.5l0,0c0-0.2999878,0.1999969-0.5,0.5-0.5h1
    c0.3000031,0,0.5,0.2000122,0.5,0.5l0,0C81,78.7999878,80.8000031,79,80.5,79z"/>
  <path fill="#444444" d="M82.5,81h-3c-0.3000031,0-0.5-0.2000122-0.5-0.5l0,0c0-0.2999878,0.1999969-0.5,0.5-0.5h3
    c0.3000031,0,0.5,0.2000122,0.5,0.5l0,0C83,80.7999878,82.8000031,81,82.5,81z"/>
  <path fill="#444444" d="M82.5,83h-1c-0.3000031,0-0.5-0.2000122-0.5-0.5l0,0c0-0.2999878,0.1999969-0.5,0.5-0.5h1
    c0.3000031,0,0.5,0.2000122,0.5,0.5l0,0C83,82.7999878,82.8000031,83,82.5,83z"/>
  <path fill="#444444" d="M82.5,85h-1c-0.3000031,0-0.5-0.2000122-0.5-0.5l0,0c0-0.2999878,0.1999969-0.5,0.5-0.5h1
    c0.3000031,0,0.5,0.2000122,0.5,0.5l0,0C83,84.7999878,82.8000031,85,82.5,85z"/>
  <path fill="#444444" d="M82.5,87h-3c-0.3000031,0-0.5-0.2000122-0.5-0.5l0,0c0-0.2999878,0.1999969-0.5,0.5-0.5h3
    c0.3000031,0,0.5,0.2000122,0.5,0.5l0,0C83,86.7999878,82.8000031,87,82.5,87z"/>
  <path fill="#444444" d="M82.5,89h-3c-0.3000031,0-0.5-0.2000122-0.5-0.5l0,0c0-0.2999878,0.1999969-0.5,0.5-0.5h3
    c0.3000031,0,0.5,0.2000122,0.5,0.5l0,0C83,88.7999878,82.8000031,89,82.5,89z"/>
  <path fill="#444444" d="M79,84.5v-2c0-0.2999878,0.1999969-0.5,0.5-0.5l0,0c0.3000031,0,0.5,0.2000122,0.5,0.5v2
    c0,0.2999878-0.1999969,0.5-0.5,0.5l0,0C79.1999969,85,79,84.7999878,79,84.5z"/>
  <circle fill="#444444" cx="82.5" cy="78.5" r="0.5"/>
  <rect x="77" y="119" fill="#eeeeee" width="5" height="1"/>
  <rect x="76" y="44" fill="#444444" width="8" height="1"/>
  <rect x="76" y="21" fill="#444444" width="8" height="1"/>
  <path fill="#a83333" d="M83.5,17h-7c-0.3000031,0-0.5-0.2000122-0.5-0.5l0,0c0-0.2999878,0.1999969-0.5,0.5-0.5h7
    c0.3000031,0,0.5,0.2000122,0.5,0.5l0,0C84,16.7999878,83.8000031,17,83.5,17z"/>
  <rect x="78" y="20" fill="#555555" width="4" height="21"/>
  <rect x="78" y="40" fill="#444444" width="4" height="1"/>
  <rect x="77" y="122" fill="#444444" width="6" height="1"/>
  <rect x="79" y="133" fill="#444444" width="2" height="1"/>
  <polygon fill="#666666" points="79,134 78,134 77,133 79,133 "/>
  <rect x="78" y="134" fill="#555555" width="4" height="5"/>
  <rect x="79" y="134" fill="#666666" width="2" height="5"/>
  <polygon fill="#a83333" points="78,139 79,139.5 79,140 80,144 81,140 81,139.5 82,139 "/>
  <polygon fill="#666666" points="82,20 78,20 78,22 79,22 79,39 81,39 81,22 82,22 "/>
  <path fill="#555555" d="M61,45h6c0.6000061,0,1,0.3999939,1,1v1h-8v-1C60,45.3999939,60.3999939,45,61,45z"/>
  <rect x="60" y="46" fill="#e0e0e0" width="8" height="77"/>
  <rect x="61" y="49" fill="#eeeeee" width="5" height="73"/>
  <rect x="61" y="17" fill="#eeeeee" width="5" height="27"/>
  <rect x="60" y="17" fill="#555555" width="8" height="5"/>
  <path fill="#444444" d="M62,94h2c0.6000061,0,1,0.3999939,1,1v6c0,0.6000061-0.3999939,1-1,1h-2c-0.6000061,0-1-0.3999939-1-1v-6
    C61,94.3999939,61.3999939,94,62,94z"/>
  <path fill="#444444" d="M61.5,92h3c0.3000031,0,0.5,0.2000122,0.5,0.5l0,0c0,0.2999878-0.1999969,0.5-0.5,0.5h-3
    c-0.3000031,0-0.5-0.2000122-0.5-0.5l0,0C61,92.2000122,61.1999969,92,61.5,92z"/>
  <path fill="#ffffff" d="M62.5,95h1c0.3000031,0,0.5,0.2000122,0.5,0.5l0,0c0,0.2999878-0.1999969,0.5-0.5,0.5h-1
    c-0.3000031,0-0.5-0.2000122-0.5-0.5l0,0C62,95.2000122,62.1999969,95,62.5,95z"/>
  <path fill="#444444" d="M61.5,90h3c0.3000031,0,0.5,0.2000122,0.5,0.5l0,0c0,0.2999878-0.1999969,0.5-0.5,0.5h-3
    c-0.3000031,0-0.5-0.2000122-0.5-0.5l0,0C61,90.2000122,61.1999969,90,61.5,90z"/>
  <path fill="#444444" d="M63.5,88h1c0.3000031,0,0.5,0.2000122,0.5,0.5l0,0c0,0.2999878-0.1999969,0.5-0.5,0.5h-1
    c-0.3000031,0-0.5-0.2000122-0.5-0.5l0,0C63,88.2000122,63.1999969,88,63.5,88z"/>
  <path fill="#444444" d="M61.5,86h3c0.3000031,0,0.5,0.2000122,0.5,0.5l0,0c0,0.2999878-0.1999969,0.5-0.5,0.5h-3
    c-0.3000031,0-0.5-0.2000122-0.5-0.5l0,0C61,86.2000122,61.1999969,86,61.5,86z"/>
  <path fill="#444444" d="M61.5,84h1c0.3000031,0,0.5,0.2000122,0.5,0.5l0,0c0,0.2999878-0.1999969,0.5-0.5,0.5h-1
    c-0.3000031,0-0.5-0.2000122-0.5-0.5l0,0C61,84.2000122,61.1999969,84,61.5,84z"/>
  <path fill="#444444" d="M61.5,82h1c0.3000031,0,0.5,0.2000122,0.5,0.5l0,0c0,0.2999878-0.1999969,0.5-0.5,0.5h-1
    c-0.3000031,0-0.5-0.2000122-0.5-0.5l0,0C61,82.2000122,61.1999969,82,61.5,82z"/>
  <path fill="#444444" d="M61.5,80h3c0.3000031,0,0.5,0.2000122,0.5,0.5l0,0c0,0.2999878-0.1999969,0.5-0.5,0.5h-3
    c-0.3000031,0-0.5-0.2000122-0.5-0.5l0,0C61,80.2000122,61.1999969,80,61.5,80z"/>
  <path fill="#444444" d="M61.5,78h3c0.3000031,0,0.5,0.2000122,0.5,0.5l0,0c0,0.2999878-0.1999969,0.5-0.5,0.5h-3
    c-0.3000031,0-0.5-0.2000122-0.5-0.5l0,0C61,78.2000122,61.1999969,78,61.5,78z"/>
  <path fill="#444444" d="M65,82.5v2c0,0.2999878-0.1999969,0.5-0.5,0.5l0,0c-0.3000031,0-0.5-0.2000122-0.5-0.5v-2
    c0-0.2999878,0.1999969-0.5,0.5-0.5l0,0C64.8000031,82,65,82.2000122,65,82.5z"/>
  <circle fill="#444444" cx="61.5" cy="88.5" r="0.5"/>
  <rect x="61" y="47" fill="#eeeeee" width="5" height="1"/>
  <rect x="60" y="44" fill="#444444" width="8" height="1"/>
  <rect x="60" y="21" fill="#444444" width="8" height="1"/>
  <path fill="#a83333" d="M67.5,17h-7c-0.3000031,0-0.5-0.2000122-0.5-0.5l0,0c0-0.2999878,0.1999969-0.5,0.5-0.5h7
    c0.3000031,0,0.5,0.2000122,0.5,0.5l0,0C68,16.7999878,67.8000031,17,67.5,17z"/>
  <rect x="62" y="20" fill="#555555" width="4" height="21"/>
  <rect x="62" y="40" fill="#444444" width="4" height="1"/>
  <rect x="62" y="123" fill="#555555" width="4" height="5"/>
  <rect x="63" y="123" fill="#666666" width="2" height="5"/>
  <polygon fill="#666666" points="66,20 62,20 62,22 63,22 63,39 65,39 65,22 66,22 "/>
  <path fill="#00aaaa" d="M96,144L96,144c-0.0999985,0-0.1999969-0.1000061-0.1999969-0.2000122v-2.5
    c0-0.1000061,0.0999985-0.2000122,0.1999969-0.2000122l0,0c0.0999985,0,0.1999969,0.1000061,0.1999969,0.2000122v2.5
    C96.1999969,143.8999939,96.0999985,144,96,144z"/>
  <path fill="#555555" d="M99,122h-6c-0.5999985,0-1-0.3999939-1-1v-1h8v1C100,121.6000061,99.5999985,122,99,122z"/>
  <polygon fill="#555555" points="99,133 98,134 94,134 93,133 93,121 99,121 "/>
  <rect x="92" y="17" fill="#e0e0e0" width="8" height="104"/>
  <rect x="93" y="17" fill="#eeeeee" width="5" height="101"/>
  <rect x="92" y="17" fill="#555555" width="8" height="5"/>
  <path fill="#444444" d="M98,73h-2c-0.5999985,0-1-0.3999939-1-1v-6c0-0.6000061,0.4000015-1,1-1h2c0.5999985,0,1,0.3999939,1,1v6
    C99,72.6000061,98.5999985,73,98,73z"/>
  <path fill="#444444" d="M98.5,75h-3c-0.3000031,0-0.5-0.2000122-0.5-0.5l0,0c0-0.2999878,0.1999969-0.5,0.5-0.5h3
    c0.3000031,0,0.5,0.2000122,0.5,0.5l0,0C99,74.7999878,98.8000031,75,98.5,75z"/>
  <path fill="#ffffff" d="M97.5,72h-1c-0.3000031,0-0.5-0.2000122-0.5-0.5l0,0c0-0.2999878,0.1999969-0.5,0.5-0.5h1
    c0.3000031,0,0.5,0.2000122,0.5,0.5l0,0C98,71.7999878,97.8000031,72,97.5,72z"/>
  <path fill="#444444" d="M98.5,77h-3c-0.3000031,0-0.5-0.2000122-0.5-0.5l0,0c0-0.2999878,0.1999969-0.5,0.5-0.5h3
    c0.3000031,0,0.5,0.2000122,0.5,0.5l0,0C99,76.7999878,98.8000031,77,98.5,77z"/>
  <path fill="#444444" d="M96.5,79h-1c-0.3000031,0-0.5-0.2000122-0.5-0.5l0,0c0-0.2999878,0.1999969-0.5,0.5-0.5h1
    c0.3000031,0,0.5,0.2000122,0.5,0.5l0,0C97,78.7999878,96.8000031,79,96.5,79z"/>
  <path fill="#444444" d="M98.5,81h-3c-0.3000031,0-0.5-0.2000122-0.5-0.5l0,0c0-0.2999878,0.1999969-0.5,0.5-0.5h3
    c0.3000031,0,0.5,0.2000122,0.5,0.5l0,0C99,80.7999878,98.8000031,81,98.5,81z"/>
  <path fill="#444444" d="M98.5,83h-1c-0.3000031,0-0.5-0.2000122-0.5-0.5l0,0c0-0.2999878,0.1999969-0.5,0.5-0.5h1
    c0.3000031,0,0.5,0.2000122,0.5,0.5l0,0C99,82.7999878,98.8000031,83,98.5,83z"/>
  <path fill="#444444" d="M98.5,85h-1c-0.3000031,0-0.5-0.2000122-0.5-0.5l0,0c0-0.2999878,0.1999969-0.5,0.5-0.5h1
    c0.3000031,0,0.5,0.2000122,0.5,0.5l0,0C99,84.7999878,98.8000031,85,98.5,85z"/>
  <path fill="#444444" d="M98.5,87h-3c-0.3000031,0-0.5-0.2000122-0.5-0.5l0,0c0-0.2999878,0.1999969-0.5,0.5-0.5h3
    c0.3000031,0,0.5,0.2000122,0.5,0.5l0,0C99,86.7999878,98.8000031,87,98.5,87z"/>
  <path fill="#444444" d="M98.5,89h-3c-0.3000031,0-0.5-0.2000122-0.5-0.5l0,0c0-0.2999878,0.1999969-0.5,0.5-0.5h3
    c0.3000031,0,0.5,0.2000122,0.5,0.5l0,0C99,88.7999878,98.8000031,89,98.5,89z"/>
  <path fill="#444444" d="M95,84.5v-2c0-0.2999878,0.1999969-0.5,0.5-0.5l0,0c0.3000031,0,0.5,0.2000122,0.5,0.5v2
    c0,0.2999878-0.1999969,0.5-0.5,0.5l0,0C95.1999969,85,95,84.7999878,95,84.5z"/>
  <circle fill="#444444" cx="98.5" cy="78.5" r="0.5"/>
  <rect x="93" y="119" fill="#eeeeee" width="5" height="1"/>
  <rect x="92" y="44" fill="#444444" width="8" height="1"/>
  <rect x="92" y="21" fill="#444444" width="8" height="1"/>
  <path fill="#00aaaa" d="M99.5,17h-7c-0.3000031,0-0.5-0.2000122-0.5-0.5l0,0c0-0.2999878,0.1999969-0.5,0.5-0.5h7
    c0.3000031,0,0.5,0.2000122,0.5,0.5l0,0C100,16.7999878,99.8000031,17,99.5,17z"/>
  <rect x="94" y="20" fill="#555555" width="4" height="21"/>
  <rect x="94" y="40" fill="#444444" width="4" height="1"/>
  <rect x="93" y="122" fill="#444444" width="6" height="1"/>
  <rect x="95" y="133" fill="#444444" width="2" height="1"/>
  <polygon fill="#666666" points="95,134 94,134 93,133 95,133 "/>
  <rect x="94" y="134" fill="#555555" width="4" height="5"/>
  <rect x="95" y="139" fill="#e0e0e0" width="2" height="1"/>
  <rect x="95" y="134" fill="#666666" width="2" height="5"/>
  <rect x="95.5" y="140" fill="#e0e0e0" width="1" height="3"/>
  <rect x="95" y="139" fill="#cccccc" width="2" height="0.5"/>
  <rect x="95.8000031" y="139" fill="#ffffff" width="0.5" height="1"/>
  <rect x="95" y="140.5" fill="#e0e0e0" width="2" height="0.5"/>
  <polygon fill="#666666" points="98,20 94,20 94,22 95,22 95,39 97,39 97,22 98,22 "/>
  <rect x="95.8000031" y="140.5" fill="#ffffff" width="0.5" height="0.5"/>
  <rect x="60" y="123" fill="#555555" width="8" height="2"/>
  <rect x="60" y="127" fill="#555555" width="8" height="1"/>
</svg>
