<svg xmlns="http://www.w3.org/2000/svg" width="160px" height="160px" viewBox="0 0 160 160"
  role="img" aria-labelledby="title" aria-describedby="desc">
  <title id="title">Bicycle</title>
  <desc id="desc">A green bicycle with brown handlebars and seat</desc>
  <path fill="#cecece" d="M118.7,77.8l-7.6-18.5c-1.5-3.8-2.4-6.1-1.6-7.4c0.5-0.7,1.6-1.1,3.5-1.1c1.3,0,1.9-0.7,1.9-1.4
    s-0.6-1.4-1.9-1.4c-1.8,0-2.8-0.4-3.1-1.1l0.2-0.1c0.3,0.6,1.2,0.9,2.9,0.9c1.5,0,2.1,0.8,2.1,1.6s-0.7,1.6-2.1,1.6
    c-1.8,0-2.8,0.3-3.3,1c-0.8,1.2,0.2,3.6,1.6,7.2l0.4,1l7.2,17.4L118.7,77.8z"/>
  <path fill="#cecece" d="M118.8,78.1l-8.9-21.5c-0.7-1.6-1.3-1.5-3.5-1.2l-0.1,0l0-0.2l0.1,0c2.2-0.3,3-0.4,3.8,1.3L119,78L118.8,78.1z"/>
  <rect x="83" y="34.1" transform="matrix(0.1409 0.99 -0.99 0.1409 129.349 -31.9592)" fill="#cecece" width="0.2" height="48.9"/>
  <rect x="105.5" y="50.8" transform="matrix(-0.3162 -0.9487 0.9487 -0.3162 91.9608 169.1816)" fill="#e1e1e1" width="2.8" height="1.3"/>
  <g>
    <rect x="119.9" y="72" fill="#cecece" width="0.2" height="54"/>
    <rect x="123.9" y="72" fill="#cecece" width="0.2" height="54"/>
    <rect x="93.4" y="100.1" transform="matrix(0.5878 0.809 -0.809 0.5878 130.6664 -56.0972)" fill="#cecece" width="54" height="0.3"/>
    <rect x="96.6" y="97.7" transform="matrix(0.5878 0.809 -0.809 0.5878 130.0994 -59.6845)" fill="#cecece" width="54" height="0.3"/>
    <rect x="94.4" y="100.8" transform="matrix(0.9511 0.309 -0.309 0.9511 37.12 -32.5698)" fill="#cecece" width="54" height="0.3"/>
    <rect x="95.6" y="97" transform="matrix(0.9511 0.309 -0.309 0.9511 36.0052 -33.138)" fill="#cecece" width="54" height="0.3"/>
    <rect x="122.5" y="73.9" transform="matrix(0.3116 0.9502 -0.9502 0.3116 180.2963 -47.0496)" fill="#cecece" width="0.3" height="54"/>
    <rect x="121.3" y="70.1" transform="matrix(0.3116 0.9502 -0.9502 0.3116 175.8308 -48.4935)" fill="#cecece" width="0.3" height="54"/>
    <rect x="123.5" y="73.2" transform="matrix(0.8111 0.5849 -0.5849 0.8111 81.9473 -53.3828)" fill="#cecece" width="0.3" height="54"/>
    <rect x="120.3" y="70.8" transform="matrix(0.8111 0.5849 -0.5849 0.8111 79.9609 -51.9339)" fill="#cecece" width="0.3" height="54"/>
    <rect x="93.1" y="99.5" transform="matrix(0.309 0.9511 -0.9511 0.309 177.7302 -45.3848)" fill="#cecece" width="54" height="0.3"/>
    <rect x="96.9" y="98.3" transform="matrix(0.309 0.9511 -0.9511 0.309 179.1826 -49.8567)" fill="#cecece" width="54" height="0.3"/>
    <rect x="93.8" y="100.5" transform="matrix(0.809 0.5878 -0.5878 0.809 82.2176 -51.8027)" fill="#cecece" width="54" height="0.3"/>
    <rect x="96.2" y="97.3" transform="matrix(0.809 0.5878 -0.5878 0.809 80.7643 -53.8024)" fill="#cecece" width="54" height="0.3"/>
    <rect x="95" y="100.9" fill="#cecece" width="54" height="0.2"/>
    <rect x="95" y="96.9" fill="#cecece" width="54" height="0.2"/>
    <rect x="123.1" y="73.6" transform="matrix(0.5849 0.8111 -0.8111 0.5849 132.7379 -58.1418)" fill="#cecece" width="0.3" height="54"/>
    <rect x="120.7" y="70.4" transform="matrix(0.5849 0.8111 -0.8111 0.5849 129.1373 -57.5786)" fill="#cecece" width="0.3" height="54"/>
    <rect x="123.8" y="72.6" transform="matrix(0.9502 0.3116 -0.3116 0.9502 37.2028 -33.6437)" fill="#cecece" width="0.3" height="54"/>
    <rect x="120" y="71.4" transform="matrix(0.9502 0.3116 -0.3116 0.9502 36.6284 -32.5201)" fill="#cecece" width="0.3" height="54"/>
  </g>
  <polygon fill="#e1e1e1" points="110,48 109,47 107,47 107,46 110,46 111,47 "/>
  <path fill="#e5e5e5" d="M122,126c-14.9,0-27-12.1-27-27s12.1-27,27-27s27,12.1,27,27S136.9,126,122,126z M122,74c-13.8,0-25,11.2-25,25
    s11.2,25,25,25s25-11.2,25-25S135.8,74,122,74z"/>
  <path fill="#5e5e5e" d="M122,70c-16,0-29,13-29,29s13,29,29,29s29-13,29-29S138,70,122,70z M122,125.5c-14.6,0-26.5-11.9-26.5-26.5
    s11.9-26.5,26.5-26.5s26.5,11.9,26.5,26.5S136.6,125.5,122,125.5z"/>
  <g>
    <rect x="34.9" y="72" fill="#cecece" width="0.2" height="54"/>
    <rect x="38.9" y="72" fill="#cecece" width="0.2" height="54"/>
    <rect x="8.4" y="100.1" transform="matrix(0.5878 0.809 -0.809 0.5878 95.6283 12.6691)" fill="#cecece" width="54" height="0.2"/>
    <rect x="11.6" y="97.7" transform="matrix(0.5878 0.809 -0.809 0.5878 95.0609 9.0821)" fill="#cecece" width="54" height="0.2"/>
    <rect x="9.4" y="100.8" transform="matrix(0.9511 0.309 -0.309 0.9511 32.9604 -6.3042)" fill="#cecece" width="54" height="0.3"/>
    <rect x="10.6" y="97" transform="matrix(0.9511 0.309 -0.309 0.9511 31.8455 -6.8722)" fill="#cecece" width="54" height="0.3"/>
    <rect x="37.5" y="73.9" transform="matrix(0.308 0.9514 -0.9514 0.308 122.0263 34.0324)" fill="#cecece" width="0.3" height="54"/>
    <rect x="36.3" y="70.1" transform="matrix(0.308 0.9514 -0.9514 0.308 117.5524 32.5761)" fill="#cecece" width="0.3" height="54"/>
    <rect x="38.5" y="73.2" transform="matrix(0.8097 0.5868 -0.5868 0.8097 66.1275 -3.6018)" fill="#cecece" width="0.2" height="54"/>
    <rect x="35.3" y="70.8" transform="matrix(0.8097 0.5868 -0.5868 0.8097 64.1324 -2.1501)" fill="#cecece" width="0.2" height="54"/>
    <rect x="8.1" y="99.5" transform="matrix(0.309 0.9511 -0.9511 0.309 118.995 35.4548)" fill="#cecece" width="54" height="0.2"/>
    <rect x="11.9" y="98.3" transform="matrix(0.309 0.9511 -0.9511 0.309 120.4479 30.9825)" fill="#cecece" width="54" height="0.2"/>
    <rect x="8.8" y="100.5" transform="matrix(0.809 0.5878 -0.5878 0.809 65.9834 -1.8408)" fill="#cecece" width="54" height="0.3"/>
    <rect x="11.2" y="97.3" transform="matrix(0.809 0.5878 -0.5878 0.809 64.5301 -3.8408)" fill="#cecece" width="54" height="0.3"/>
    <rect x="10" y="100.9" fill="#cecece" width="54" height="0.2"/>
    <rect x="10" y="96.9" fill="#cecece" width="54" height="0.2"/>
    <rect x="38.1" y="73.6" transform="matrix(0.5849 0.8111 -0.8111 0.5849 97.4563 10.8007)" fill="#cecece" width="0.3" height="54"/>
    <rect x="35.7" y="70.4" transform="matrix(0.5849 0.8111 -0.8111 0.5849 93.8555 11.3643)" fill="#cecece" width="0.3" height="54"/>
    <rect x="38.8" y="72.6" transform="matrix(0.9498 0.3127 -0.3127 0.9498 33.1024 -7.1691)" fill="#cecece" width="0.2" height="54"/>
    <rect x="35" y="71.4" transform="matrix(0.9498 0.3127 -0.3127 0.9498 32.5251 -6.0415)" fill="#cecece" width="0.2" height="54"/>
  </g>
  <path fill="#e5e5e5" d="M37,126c-14.9,0-27-12.1-27-27s12.1-27,27-27s27,12.1,27,27S51.9,126,37,126z M37,74c-13.8,0-25,11.2-25,25
    s11.2,25,25,25s25-11.2,25-25S50.8,74,37,74z"/>
  <path fill="#5e5e5e" d="M37,70C21,70,8,83,8,99s13,29,29,29s29-13,29-29S53,70,37,70z M37,125.5c-14.6,0-26.5-11.9-26.5-26.5
    S22.4,72.5,37,72.5S63.5,84.4,63.5,99S51.6,125.5,37,125.5z"/>
  <path fill="#afafaf" d="M106.1,48.8h1.6c0.4,0,0.7-0.2,0.8-0.5c0.1-0.3,0.1-0.7-0.2-1l-2.8-2.8l-1.1,1.1l1.6,1.7h-0.9
    c-0.3,0-0.5,0.1-0.7,0.4s-0.2,0.5-0.1,0.8l2.9,8.8l1.4-0.5L106.1,48.8z"/>
  <circle fill="#e1e1e1" cx="37" cy="99" r="3"/>
  <path fill="#b28b70" d="M108.5,46h-3c-0.3,0-0.5-0.2-0.5-0.5v-1c0-0.3,0.2-0.5,0.5-0.5h2c0.8,0,1.5,0.7,1.5,1.5l0,0
    C109,45.8,108.8,46,108.5,46z"/>
  <circle fill="#e1e1e1" cx="122" cy="99" r="3"/>
  <rect x="34.5" y="75.3" transform="matrix(0.3162 0.9487 -0.9487 0.3162 115.1776 -7.8004)" fill="#afafaf" width="56.9" height="1.5"/>
  <rect x="56" y="60.6" transform="matrix(0.8574 0.5146 -0.5146 0.8574 40.7361 -20.0225)" fill="#919a00" width="1" height="5.8"/>
  <rect x="51.1" y="65" transform="matrix(0.8519 0.5237 -0.5237 0.8519 45.3009 -16.2065)" fill="#cecece" width="0.5" height="14.1"/>
  <polygon fill="#cecece" points="57,49.5 56,49.5 55,49 51,49 51,51.5 52,52.5 53,52.5 54,51.5 54,50.5 57,50.5 61,49 61,48 "/>
  <path fill="#cca27d" d="M43,47L43,47c0-0.6,0.4-1,1-1h17.3c0.5,0,0.9,0.1,1.3,0.3l2.7,1.3c1.1,0.6,1.7,0.9,1.7,1.3l0,0c0,1-1.6,1-2.2,1
    l0,0c-1.2,0-2.3-0.3-3.3-0.8l-0.2-0.1C61.1,49,60.9,49,60.7,49h-4.5c-0.1,0-0.3,0-0.4,0.1l-5.6,1.9c-0.1,0-0.3,0.1-0.4,0.1h0
    c-0.8,0-1.6-0.3-2.2-0.9l-0.7-0.7C46.6,49.1,46.3,49,46,49h-1C43.9,49,43,48.1,43,47z"/>
  <circle class="#666666" cx="72" cy="103" r="1"/>
  <rect x="46.7" y="78.5" transform="matrix(0.8321 0.5547 -0.5547 0.8321 51.9669 -13.6349)" fill="#7f7f0d" width="3.6" height="1"/>
  <circle fill="#b2b2b2" cx="37" cy="99" r="2"/>
  <rect x="52.7" y="68.5" transform="matrix(0.8321 0.5547 -0.5547 0.8321 47.4276 -18.6426)" fill="#7f7f0d" width="3.6" height="1"/>
  <path fill="#919a00" d="M107.9,53.7l-1.9,0.6l0.4,1.3c0.1,0.3-0.1,0.6-0.4,0.7l-46,6.6c-0.2,0-0.5-0.1-0.5-0.3l-0.6-1.8l-1.9,0.6
    l0.7,2.1c0.1,0.3,0.1,0.6-0.1,0.8L36.2,98.5l0,1.5l0.7,0l35.1,4h0.4L109,64.5c0.1-0.1,0.4-0.1,0.4,0.1l2.7,8.1l1.9-0.6L107.9,53.7z
     M69,101.7l-28.7-3.3c-0.7-0.1-1.1-0.9-0.7-1.5l18.9-30.1c0.1-0.2,0.4-0.1,0.4,0.1l11.2,33.5C70.3,101,69.7,101.7,69,101.7z
     M108.4,62.2L73.6,99.8c-0.5,0.6-1.4,0.4-1.7-0.4L60.5,65.4c-0.1-0.3,0.1-0.6,0.4-0.7l45.6-6.5c0.5-0.1,0.9,0.2,1.1,0.7l0.9,2.8
    C108.6,61.9,108.5,62.1,108.4,62.2z"/>
  <path fill="#e1e1e1" d="M72,96c-3.9,0-7,3.1-7,7s3.1,7,7,7s7-3.1,7-7S75.9,96,72,96z M76.2,102.5h-3.4l1.7-2.9c0.3-0.6,1.2-0.7,1.6-0.2
    c0.4,0.5,0.8,1.1,1,1.7C77.4,101.8,76.9,102.5,76.2,102.5z M72,97.5c0.3,0,0.7,0,1,0.1c0.7,0.1,1,0.9,0.7,1.5L72,102l-1.7-2.9
    c-0.3-0.6,0-1.4,0.7-1.5C71.3,97.5,71.7,97.5,72,97.5z M69.5,99.6l1.7,2.9h-3.4c-0.7,0-1.2-0.7-0.9-1.3c0.2-0.6,0.6-1.2,1-1.7
    C68.3,98.9,69.1,99,69.5,99.6z M67.8,103.5h3.4l-1.7,2.9c-0.3,0.6-1.2,0.7-1.6,0.2c-0.4-0.5-0.8-1.1-1-1.7
    C66.6,104.2,67.1,103.5,67.8,103.5z M72,108.5c-0.3,0-0.7,0-1-0.1c-0.7-0.1-1-0.9-0.7-1.5L72,104l1.7,2.9c0.3,0.6,0,1.4-0.7,1.5
    C72.7,108.5,72.3,108.5,72,108.5z M74.5,106.4l-1.7-2.9h3.4c0.7,0,1.2,0.7,0.9,1.3c-0.2,0.6-0.6,1.2-1,1.7
    C75.7,107.1,74.9,107,74.5,106.4z"/>
  <circle fill="#b2b2b2" cx="122" cy="99" r="2"/>
  <circle fill="#afafaf" cx="47" cy="78" r="1"/>
  <circle fill="#cecece" cx="47" cy="78" r="0.5"/>
  <polygon fill="#cecece" points="78.3,116.4 71,103.7 73.1,102.5 79.7,115.6 "/>
  <circle fill="#cecece" cx="79" cy="116" r="1.5"/>
  <polygon class="#666666" points="76,117 75,116.5 75,115.5 76,115 "/>
  <polygon class="#666666" points="82,117 82,115 83,115.5 83,116.5 "/>
  <circle fill="#cecece" cx="72" cy="103" r="2.4"/>
  <circle fill="#e1e1e1" cx="72" cy="103" r="1.6"/>
  <path fill="#cca27d" d="M106.5,46c0.3,0,0.5-0.2,0.5-0.5l0,0c0-0.8-0.7-1.5-1.5-1.5H100c-0.6,0-1,0.4-1,1s0.4,1,1,1H106.5z"/>
  <path fill="#7f7f0d" d="M59.7,61L59.3,60l-3,1c-0.2,0.1-0.3,0.2-0.3,0.5c0,0.3,0.2,0.5,0.5,0.5c0.1,0,0.1,0,0.2,0L59.7,61z"/>
  <circle fill="#5e5e5e" cx="56.5" cy="61.5" r="0.2"/>
  <rect x="107.9" y="57.4" transform="matrix(-0.3162 -0.9487 0.9487 -0.3162 88.8584 180.1455)" fill="#6dd3f2" width="2.8" height="1.3"/>
  <path fill="#e1e1e1" d="M109,53.9l-0.3-0.9l-3,1c-0.2,0.1-0.3,0.2-0.3,0.5c0,0.3,0.2,0.5,0.5,0.5c0.1,0,0.1,0,0.2,0L109,53.9z"/>
  <circle fill="#5e5e5e" cx="105.8" cy="54.5" r="0.2"/>
  <circle fill="#5e5e5e" cx="52.5" cy="51.5" r="0.2"/>
  <circle fill="#afafaf" cx="110" cy="47.1" r="0.2"/>
  <rect x="111" y="72.3" transform="matrix(0.3812 0.9245 -0.9245 0.3812 139.2207 -62.9372)" fill="#cecece" width="11.3" height="0.5"/>
  <rect x="116" y="78.1" transform="matrix(-0.91 0.4146 -0.4146 -0.91 257.5188 101.3517)" fill="#7f7f0d" width="3.6" height="1"/>
  <rect x="111.6" y="67.3" transform="matrix(-0.91 0.4146 -0.4146 -0.91 244.7672 82.4595)" fill="#7f7f0d" width="3.6" height="1"/>
  <circle fill="#afafaf" cx="119.4" cy="77.9" r="1"/>
  <circle fill="#cecece" cx="119.4" cy="77.9" r="0.5"/>
  <path fill="#919a00" d="M122,97.5c-0.8,0-1.5,0.7-1.5,1.5c0,0.2,0,0.4,0.1,0.6l2.8-1.1C123.2,97.9,122.6,97.5,122,97.5z"/>
  <path fill="#cecece" d="M120.6,99.6c0.2,0.6,0.8,0.9,1.4,0.9c0.8,0,1.5-0.7,1.5-1.5c0-0.2,0-0.4-0.1-0.6L120.6,99.6z"/>
  <path fill="#919a00" d="M37,97.5c-0.8,0-1.5,0.7-1.5,1.5H37v1.5c0.8,0,1.5-0.7,1.5-1.5S37.8,97.5,37,97.5z"/>
  <path fill="#cecece" d="M37,100.5V99h-1.5C35.5,99.8,36.2,100.5,37,100.5z"/>
  <circle class="#666666" cx="37" cy="99" r="1"/>
  <path fill="#cecece" d="M72,96c3.9,0,7,3.1,7,7s-3.1,7-7,7c-0.7,0-1.3-0.1-2-0.3L37,102c-1.7,0-3-1.3-3-3c0-1.7,1.3-3,3-3H72 M72,95.5
    H37c-1.9,0-3.5,1.6-3.5,3.5c0,1.9,1.5,3.5,3.4,3.5l33,7.7c0.7,0.2,1.4,0.3,2.1,0.3c4.1,0,7.5-3.4,7.5-7.5S76.1,95.5,72,95.5L72,95.5z"/>
  <path fill="#919a00" d="M122.7,98.8l-3.5-10.5l-2.8-10.7c0-0.1,0-0.1-0.1-0.2c0,0,0,0,0,0l-2.9-8.8c-0.3-0.8-1.1-1.2-1.9-0.9
    c-0.8,0.3,0.4,4.3,0.6,5.1l5.6,16.1l3.5,10.5c0.1,0.3,0.4,0.5,0.7,0.5c0.1,0,0.2,0,0.2,0C122.6,99.6,122.8,99.2,122.7,98.8z"/>
  <circle class="#666666" cx="122" cy="99" r="1"/>
  <rect x="68.1" y="109.3" transform="matrix(0.4741 0.8805 -0.8805 0.4741 136.1171 -8.8895)" fill="#e1e1e1" width="14.8" height="0.5"/>
  <circle class="#666666" cx="72" cy="103" r="1"/>
  <polygon fill="#e1e1e1" points="82,117 76,117 75,116.5 75,115.5 76,115 82,115 83,115.5 83,116.5 "/>
  <circle fill="#cecece" cx="79" cy="116" r="1"/>
  <circle class="#666666" cx="79" cy="116" r="0.5"/>
</svg>
