<svg xmlns="http://www.w3.org/2000/svg" width="160px" height="160px" viewBox="0 0 160 160"
  role="img" aria-labelledby="title" aria-describedby="desc">
  <title id="title">Mug</title>
  <desc id="desc">A black mug with "Like a Boss" written on it.</desc>
  <path fill="#444444" d="M111,50c-8.8000031,0-16,11.1000061-16,26s7.1999969,26,16,26s13.9000015-11.1000061,13.9000015-26
    S119.8000031,50,111,50z M101,63c6.6999969,0-0.0999985-7,10-7c5.5999985,0,9,8.7999878,9,20s-3.4000015,20-9,20
    c-10,0-3.3000031-7-10-7V63z"/>
  <path fill="#dddddd" d="M40,108v13c0,1.7999878,1.3000031,3,3,3h52c1.6999969,0,3-1.2000122,3-3v-13H40z"/>
  <path fill="#dddddd" d="M98,36H40c-1.6999969,0-3,1.5-3,3.2999878V44h64v-4.7000122C101,37.5,99.6999969,36,98,36z"/>
  <path fill="#333333" d="M37,39.2999878v78.3999939c0,1.7999878,1.3000031,3.2999878,3,3.2999878h58c1.6999969,0,3-1.5,3-3.2999878
    V39.2999878H37z"/>
  <path fill="#444444" d="M41,39.2999878V116c0,1.1000061,0.8999939,2,2,2h57c0.5999985,0,1-0.3999939,1-1V39.2999878H41z"/>
  <text transform="matrix(1 0 0 1 45.4721985 71)" fill="#eeeeee" font-family="'Helvetica-Bold'" font-size="18">like</text>
  <text transform="matrix(1 0 0 1 82.4721985 71)" fill="#eeeeee" font-family="'Helvetica-Bold'" font-size="18">a </text>
  <text transform="matrix(1 0 0 1 43.8721924 89)" fill="#eeeeee" font-family="'Helvetica-Bold'" font-size="18">BOSS</text>
  <line fill="none" x1="101" y1="94" x2="101" y2="97"/>
</svg>
