<svg xmlns="http://www.w3.org/2000/svg" width="160px" height="160px" viewBox="0 0 160 160"
  aria-role="img" aria-labelledby="title" aria-describedby="desc">
  <title id="title">Gameboy</title>
  <desc id="desc">A vintage gameboy with a blank screen</desc>
  <path fill="#e0e0e0" d="M43,16h4v1h1v-1h64v1h1v-1h4c1.6999969,0,3,1.2999878,3,3v3h-1v1h1v101c0,11-9,20-20,20H43
    c-1.6999969,0-3-1.2999878-3-3V23h1v-1h-1v-3C40,17.2999878,41.3000031,16,43,16z"/>
  <path fill="#676c7f" d="M51,28h58c1.6999969,0,3,1.2999878,3,3v35c0,5.5-4.5,10-10,10H51c-1.6999969,0-3-1.2999878-3-3V31
    C48,29.2999878,49.3000031,28,51,28z"/>
  <rect x="60" y="34" fill="#7f7f0d" width="40" height="36"/>
  <rect x="61" y="35" fill="#919a00" width="38" height="35"/>
  <rect x="41" y="22" fill="#cccccc" width="78" height="1"/>
  <rect x="47" y="17" fill="#cccccc" width="1" height="6"/>
  <rect x="112" y="17" fill="#cccccc" width="1" height="6"/>
  <path fill="#cccccc" d="M58.5,21h-7c-0.8000031,0-1.5-0.7000122-1.5-1.5l0,0c0-0.7999878,0.6999969-1.5,1.5-1.5h7
    c0.8000031,0,1.5,0.7000122,1.5,1.5l0,0C60,20.2999878,59.3000031,21,58.5,21z"/>
  <path fill="#cccccc" d="M86.5,141h-13c-0.8000031,0-1.5-0.7000122-1.5-1.5l0,0c0-0.7999878,0.6999969-1.5,1.5-1.5h13
    c0.8000031,0,1.5,0.7000122,1.5,1.5l0,0C88,140.2999878,87.3000031,141,86.5,141z"/>
  <rect x="52" y="16" fill="#cccccc" width="1" height="3"/>
  <rect x="54" y="16" fill="#cccccc" width="1" height="3"/>
  <circle fill="#444444" cx="54" cy="47" r="1"/>
  <path fill="#444444" d="M56,80v2c0,0.6000061-0.3999939,1-1,1h-6c-0.6000061,0-1-0.3999939-1-1v-2c0-0.6000061,0.3999939-1,1-1h6
    C55.6000061,79,56,79.3999939,56,80z"/>
  <path fill="#444444" d="M58,79.5v3c0,0.2999878-0.1999969,0.5-0.5,0.5l0,0c-0.3000031,0-0.5-0.2000122-0.5-0.5v-3
    c0-0.2999878,0.1999969-0.5,0.5-0.5l0,0C57.8000031,79,58,79.2000122,58,79.5z"/>
  <path fill="#e0e0e0" d="M55,80.5v1c0,0.2999878-0.1999969,0.5-0.5,0.5l0,0c-0.3000031,0-0.5-0.2000122-0.5-0.5v-1
    c0-0.2999878,0.1999969-0.5,0.5-0.5l0,0C54.8000031,80,55,80.2000122,55,80.5z"/>
  <path fill="#444444" d="M60,79.5v3c0,0.2999878-0.1999969,0.5-0.5,0.5l0,0c-0.3000031,0-0.5-0.2000122-0.5-0.5v-3
    c0-0.2999878,0.1999969-0.5,0.5-0.5l0,0C59.8000031,79,60,79.2000122,60,79.5z"/>
  <path fill="#444444" d="M62,81.5v1c0,0.2999878-0.1999969,0.5-0.5,0.5l0,0c-0.3000031,0-0.5-0.2000122-0.5-0.5v-1
    c0-0.2999878,0.1999969-0.5,0.5-0.5l0,0C61.8000031,81,62,81.2000122,62,81.5z"/>
  <path fill="#444444" d="M64,79.5v3c0,0.2999878-0.1999969,0.5-0.5,0.5l0,0c-0.3000031,0-0.5-0.2000122-0.5-0.5v-3
    c0-0.2999878,0.1999969-0.5,0.5-0.5l0,0C63.8000031,79,64,79.2000122,64,79.5z"/>
  <path fill="#444444" d="M66,79.5v1c0,0.2999878-0.1999969,0.5-0.5,0.5l0,0c-0.3000031,0-0.5-0.2000122-0.5-0.5v-1
    c0-0.2999878,0.1999969-0.5,0.5-0.5l0,0C65.8000031,79,66,79.2000122,66,79.5z"/>
  <path fill="#444444" d="M68,79.5v1c0,0.2999878-0.1999969,0.5-0.5,0.5l0,0c-0.3000031,0-0.5-0.2000122-0.5-0.5v-1
    c0-0.2999878,0.1999969-0.5,0.5-0.5l0,0C67.8000031,79,68,79.2000122,68,79.5z"/>
  <path fill="#444444" d="M70,79.5v3c0,0.2999878-0.1999969,0.5-0.5,0.5l0,0c-0.3000031,0-0.5-0.2000122-0.5-0.5v-3
    c0-0.2999878,0.1999969-0.5,0.5-0.5l0,0C69.8000031,79,70,79.2000122,70,79.5z"/>
  <path fill="#444444" d="M72,79.5v3c0,0.2999878-0.1999969,0.5-0.5,0.5l0,0c-0.3000031,0-0.5-0.2000122-0.5-0.5v-3
    c0-0.2999878,0.1999969-0.5,0.5-0.5l0,0C71.8000031,79,72,79.2000122,72,79.5z"/>
  <path fill="#444444" d="M67.5,83h-2c-0.3000031,0-0.5-0.2000122-0.5-0.5l0,0c0-0.2999878,0.1999969-0.5,0.5-0.5h2
    c0.3000031,0,0.5,0.2000122,0.5,0.5l0,0C68,82.7999878,67.8000031,83,67.5,83z"/>
  <circle fill="#444444" cx="61.5" cy="79.5" r="0.5"/>
  <path fill="#444444" d="M61,113h-4c-0.6000061,0-1-0.3999939-1-1V94c0-0.6000061,0.3999939-1,1-1h4c0.6000061,0,1,0.3999939,1,1v18
    C62,112.6000061,61.6000061,113,61,113z"/>
  <path fill="#444444" d="M69,101v4c0,0.6000061-0.3999939,1-1,1H50c-0.6000061,0-1-0.3999939-1-1v-4c0-0.6000061,0.3999939-1,1-1h18
    C68.6000061,100,69,100.3999939,69,101z"/>
  <circle fill="#333333" cx="59" cy="103" r="2.2000122"/>
  <circle fill="#555555" cx="59" cy="103" r="2"/>
  <circle fill="#7f0d49" cx="95" cy="105" r="5"/>
  <circle fill="#7f0d49" cx="107" cy="99" r="5"/>
  <g>
    <path fill="#bbbbbb" d="M68.8000031,127.7999878l0.3999939,0.8999939c0.1000061,0.2999878,0,0.5-0.1999969,0.7000122l0,0
      c-0.3000031,0.1000061-0.5,0-0.6999969-0.2000122l-0.3999939-0.8999939c-0.1000061-0.2999878,0-0.5,0.1999969-0.7000122l0,0
      C68.3999939,127.5,68.6000061,127.6000061,68.8000031,127.7999878z"/>
    <path fill="#bbbbbb" d="M72.6000061,127.7000122L70.8000031,128.5c-0.3000031,0.1000061-0.5,0-0.6999969-0.2000122l0,0
      c-0.1000061-0.2999878,0-0.5,0.1999969-0.7000122l1.8000031-0.7999878c0.3000031-0.1000061,0.5,0,0.6999969,0.2000122l0,0
      C72.8999939,127.2999878,72.8999939,127.6000061,72.6000061,127.7000122z"/>
    <path fill="#bbbbbb" d="M67,128.7000122l0.3999939,0.8999939c0.1000061,0.2999878,0,0.5-0.1999969,0.7000122l0,0
      c-0.3000031,0.1000061-0.5,0-0.6999969-0.2000122l-0.3999939-0.8999939c-0.1000061-0.2999878,0-0.5,0.1999969-0.7000122l0,0
      C66.6000061,128.2999878,66.8000031,128.3999939,67,128.7000122z"/>
    <path fill="#bbbbbb" d="M70.6000061,127L71,127.8999939c0.1000061,0.2999878,0,0.5-0.1999969,0.7000122l0,0
      c-0.3000031,0.1000061-0.5,0-0.6999969-0.2000122L69.7000122,127.5c-0.1000061-0.2999878,0-0.5,0.1999969-0.7000122l0,0
      C70.1999969,126.6000061,70.5,126.7000122,70.6000061,127z"/>
    <path fill="#bbbbbb" d="M74.1999969,125.2999878l0.3999939,0.8999939c0.1000061,0.2999878,0,0.5-0.1999969,0.7000122l0,0
      c-0.3000031,0.1000061-0.5,0-0.6999969-0.2000122l-0.3999939-0.8999939c-0.1000061-0.2999878,0-0.5,0.1999969-0.7000122l0,0
      C73.8000031,124.8999939,74.1000061,125,74.1999969,125.2999878z"/>
  </g>
  <g>
    <path fill="#bbbbbb" d="M83.8000031,127.5l0.3999939,0.8999939c0.1000061,0.2999878,0,0.5-0.1999969,0.7000122l0,0
      c-0.3000031,0.1000061-0.5,0-0.6999969-0.2000122L82.9000092,128c-0.1000061-0.2999878,0-0.5,0.1999969-0.7000122l0,0
      C83.3999939,127.1000061,83.6000061,127.2000122,83.8000031,127.5z"/>
    <path fill="#bbbbbb" d="M87.6000061,127.2999878l-1.8000031,0.7999878c-0.3000031,0.1000061-0.5,0-0.6999969-0.2000122l0,0
      c-0.1000061-0.2999878,0-0.5,0.1999969-0.7000122l1.8000031-0.7999878c0.3000031-0.1000061,0.5,0,0.6999969,0.2000122l0,0
      C87.8999939,126.8999939,87.8999939,127.2000122,87.6000061,127.2999878z"/>
    <path fill="#bbbbbb" d="M80.1000061,129.1000061L80.5,130c0.1000061,0.2999878,0,0.5-0.1999969,0.7000122l0,0
      c-0.3000031,0.1000061-0.5,0-0.6999969-0.2000122l-0.3999939-0.8999939c-0.1000061-0.2999878,0-0.5,0.1999969-0.7000122l0,0
      C79.8000031,128.7999878,80,128.8999939,80.1000061,129.1000061z"/>
    <path fill="#bbbbbb" d="M82,128.2999878l0.3999939,0.8999939c0.1000061,0.2999878,0,0.5-0.1999969,0.7000122l0,0
      c-0.3000031,0.1000061-0.5,0-0.6999969-0.2000122l-0.3999939-0.8999939c-0.1000061-0.2999878,0-0.5,0.1999969-0.7000122l0,0
      C81.6000061,127.8999939,81.8000031,128,82,128.2999878z"/>
    <path fill="#bbbbbb" d="M85.6000061,126.6000061L86,127.5c0.1000061,0.2999878,0,0.5-0.1999969,0.7000122l0,0
      c-0.3000031,0.1000061-0.5,0-0.6999969-0.2000122l-0.3999939-0.8999939c-0.1000061-0.2999878,0-0.5,0.1999969-0.7000122l0,0
      C85.1999969,126.2000122,85.5,126.2999878,85.6000061,126.6000061z"/>
  </g>
  <rect x="64.0055695" y="123.0114136" transform="matrix(-0.9063134 0.4226062 -0.4226062 -0.9063134 183.9540863 207.2424469)" fill="#444444" width="9.9998522" height="1.9999704"/>
  <rect x="76.9890671" y="123.0152206" transform="matrix(-0.9063134 0.4226062 -0.4226062 -0.9063134 208.7063141 201.7627869)" fill="#444444" width="9.9998522" height="1.9999704"/>
  <path fill="#e0e0e0" d="M44,16h4v1h1v-1h64v1h1v-1h4c1.6999969,0,3,1.2999878,3,3v3h-1v1h1v101c0,11-9,20-20,20H44
    c-1.6999969,0-3-1.2999878-3-3V23h1v-1h-1v-3C41,17.2999878,42.3000031,16,44,16z"/>
  <path fill="#676c7f" d="M52,28h58c1.6999969,0,3,1.2999878,3,3v35c0,5.5-4.5,10-10,10H52c-1.6999969,0-3-1.2999878-3-3V31
    C49,29.2999878,50.3000031,28,52,28z"/>
  <rect x="61" y="34" fill="#7f7f0d" width="40" height="36"/>
  <rect x="62" y="35" fill="#919a00" width="38" height="35"/>
  <rect x="42" y="22" fill="#cccccc" width="78" height="1"/>
  <rect x="48" y="17" fill="#cccccc" width="1" height="6"/>
  <rect x="113" y="17" fill="#cccccc" width="1" height="6"/>
  <path fill="#cccccc" d="M59.5,21h-7c-0.8000031,0-1.5-0.7000122-1.5-1.5l0,0c0-0.7999878,0.6999969-1.5,1.5-1.5h7
    c0.8000031,0,1.5,0.7000122,1.5,1.5l0,0C61,20.2999878,60.3000031,21,59.5,21z"/>
  <path fill="#cccccc" d="M87.5,141h-13c-0.8000031,0-1.5-0.7000122-1.5-1.5l0,0c0-0.7999878,0.6999969-1.5,1.5-1.5h13
    c0.8000031,0,1.5,0.7000122,1.5,1.5l0,0C89,140.2999878,88.3000031,141,87.5,141z"/>
  <rect x="53" y="16" fill="#cccccc" width="1" height="3"/>
  <rect x="55" y="16" fill="#cccccc" width="1" height="3"/>
  <circle fill="#444444" cx="55" cy="47" r="1"/>
  <path fill="#444444" d="M57,80v2c0,0.6000061-0.3999939,1-1,1h-6c-0.6000061,0-1-0.3999939-1-1v-2c0-0.6000061,0.3999939-1,1-1h6
    C56.6000061,79,57,79.3999939,57,80z"/>
  <path fill="#444444" d="M59,79.5v3c0,0.2999878-0.1999969,0.5-0.5,0.5l0,0c-0.3000031,0-0.5-0.2000122-0.5-0.5v-3
    c0-0.2999878,0.1999969-0.5,0.5-0.5l0,0C58.8000031,79,59,79.2000122,59,79.5z"/>
  <path fill="#e0e0e0" d="M56,80.5v1c0,0.2999878-0.1999969,0.5-0.5,0.5l0,0c-0.3000031,0-0.5-0.2000122-0.5-0.5v-1
    c0-0.2999878,0.1999969-0.5,0.5-0.5l0,0C55.8000031,80,56,80.2000122,56,80.5z"/>
  <path fill="#444444" d="M61,79.5v3c0,0.2999878-0.1999969,0.5-0.5,0.5l0,0c-0.3000031,0-0.5-0.2000122-0.5-0.5v-3
    c0-0.2999878,0.1999969-0.5,0.5-0.5l0,0C60.8000031,79,61,79.2000122,61,79.5z"/>
  <path fill="#444444" d="M63,81.5v1c0,0.2999878-0.1999969,0.5-0.5,0.5l0,0c-0.3000031,0-0.5-0.2000122-0.5-0.5v-1
    c0-0.2999878,0.1999969-0.5,0.5-0.5l0,0C62.8000031,81,63,81.2000122,63,81.5z"/>
  <path fill="#444444" d="M65,79.5v3c0,0.2999878-0.1999969,0.5-0.5,0.5l0,0c-0.3000031,0-0.5-0.2000122-0.5-0.5v-3
    c0-0.2999878,0.1999969-0.5,0.5-0.5l0,0C64.8000031,79,65,79.2000122,65,79.5z"/>
  <path fill="#444444" d="M67,79.5v1c0,0.2999878-0.1999969,0.5-0.5,0.5l0,0c-0.3000031,0-0.5-0.2000122-0.5-0.5v-1
    c0-0.2999878,0.1999969-0.5,0.5-0.5l0,0C66.8000031,79,67,79.2000122,67,79.5z"/>
  <path fill="#444444" d="M69,79.5v1c0,0.2999878-0.1999969,0.5-0.5,0.5l0,0c-0.3000031,0-0.5-0.2000122-0.5-0.5v-1
    c0-0.2999878,0.1999969-0.5,0.5-0.5l0,0C68.8000031,79,69,79.2000122,69,79.5z"/>
  <path fill="#444444" d="M71,79.5v3c0,0.2999878-0.1999969,0.5-0.5,0.5l0,0c-0.3000031,0-0.5-0.2000122-0.5-0.5v-3
    c0-0.2999878,0.1999969-0.5,0.5-0.5l0,0C70.8000031,79,71,79.2000122,71,79.5z"/>
  <path fill="#444444" d="M73,79.5v3c0,0.2999878-0.1999969,0.5-0.5,0.5l0,0c-0.3000031,0-0.5-0.2000122-0.5-0.5v-3
    c0-0.2999878,0.1999969-0.5,0.5-0.5l0,0C72.8000031,79,73,79.2000122,73,79.5z"/>
  <path fill="#444444" d="M68.5,83h-2c-0.3000031,0-0.5-0.2000122-0.5-0.5l0,0c0-0.2999878,0.1999969-0.5,0.5-0.5h2
    c0.3000031,0,0.5,0.2000122,0.5,0.5l0,0C69,82.7999878,68.8000031,83,68.5,83z"/>
  <circle fill="#444444" cx="62.5" cy="79.5" r="0.5"/>
  <path fill="#444444" d="M62,113h-4c-0.6000061,0-1-0.3999939-1-1V94c0-0.6000061,0.3999939-1,1-1h4c0.6000061,0,1,0.3999939,1,1v18
    C63,112.6000061,62.6000061,113,62,113z"/>
  <path fill="#444444" d="M70,101v4c0,0.6000061-0.3999939,1-1,1H51c-0.6000061,0-1-0.3999939-1-1v-4c0-0.6000061,0.3999939-1,1-1h18
    C69.6000061,100,70,100.3999939,70,101z"/>
  <circle fill="#333333" cx="60" cy="103" r="2.2000122"/>
  <circle fill="#555555" cx="60" cy="103" r="2"/>
  <circle fill="#7f0d49" cx="96" cy="105" r="5"/>
  <circle fill="#7f0d49" cx="108" cy="99" r="5"/>
  <g>
    <path fill="#bbbbbb" d="M69.8000031,127.7999878l0.3999939,0.8999939c0.1000061,0.2999878,0,0.5-0.1999969,0.7000122l0,0
      c-0.3000031,0.1000061-0.5,0-0.6999969-0.2000122l-0.3999939-0.8999939c-0.1000061-0.2999878,0-0.5,0.1999969-0.7000122l0,0
      C69.3999939,127.5,69.6000061,127.6000061,69.8000031,127.7999878z"/>
    <path fill="#bbbbbb" d="M73.6000061,127.7000122L71.8000031,128.5c-0.3000031,0.1000061-0.5,0-0.6999969-0.2000122l0,0
      c-0.1000061-0.2999878,0-0.5,0.1999969-0.7000122l1.8000031-0.7999878c0.3000031-0.1000061,0.5,0,0.6999969,0.2000122l0,0
      C73.8999939,127.2999878,73.8999939,127.6000061,73.6000061,127.7000122z"/>
    <path fill="#bbbbbb" d="M68,128.7000122l0.3999939,0.8999939c0.1000061,0.2999878,0,0.5-0.1999969,0.7000122l0,0
      c-0.3000031,0.1000061-0.5,0-0.6999969-0.2000122l-0.3999939-0.8999939c-0.1000061-0.2999878,0-0.5,0.1999969-0.7000122l0,0
      C67.6000061,128.2999878,67.8000031,128.3999939,68,128.7000122z"/>
    <path fill="#bbbbbb" d="M71.6000061,127L72,127.8999939c0.1000061,0.2999878,0,0.5-0.1999969,0.7000122l0,0
      c-0.3000031,0.1000061-0.5,0-0.6999969-0.2000122L70.7000122,127.5c-0.1000061-0.2999878,0-0.5,0.1999969-0.7000122l0,0
      C71.1999969,126.6000061,71.5,126.7000122,71.6000061,127z"/>
    <path fill="#bbbbbb" d="M75.1999969,125.2999878l0.3999939,0.8999939c0.1000061,0.2999878,0,0.5-0.1999969,0.7000122l0,0
      c-0.3000031,0.1000061-0.5,0-0.6999969-0.2000122l-0.3999939-0.8999939c-0.1000061-0.2999878,0-0.5,0.1999969-0.7000122l0,0
      C74.8000031,124.8999939,75.1000061,125,75.1999969,125.2999878z"/>
  </g>
  <g>
    <path fill="#bbbbbb" d="M84.8000031,127.5l0.3999939,0.8999939c0.1000061,0.2999878,0,0.5-0.1999969,0.7000122l0,0
      c-0.3000031,0.1000061-0.5,0-0.6999969-0.2000122L83.9000092,128c-0.1000061-0.2999878,0-0.5,0.1999969-0.7000122l0,0
      C84.3999939,127.1000061,84.6000061,127.2000122,84.8000031,127.5z"/>
    <path fill="#bbbbbb" d="M88.6000061,127.2999878l-1.8000031,0.7999878c-0.3000031,0.1000061-0.5,0-0.6999969-0.2000122l0,0
      c-0.1000061-0.2999878,0-0.5,0.1999969-0.7000122l1.8000031-0.7999878c0.3000031-0.1000061,0.5,0,0.6999969,0.2000122l0,0
      C88.8999939,126.8999939,88.8999939,127.2000122,88.6000061,127.2999878z"/>
    <path fill="#bbbbbb" d="M81.1000061,129.1000061L81.5,130c0.1000061,0.2999878,0,0.5-0.1999969,0.7000122l0,0
      c-0.3000031,0.1000061-0.5,0-0.6999969-0.2000122l-0.3999939-0.8999939c-0.1000061-0.2999878,0-0.5,0.1999969-0.7000122l0,0
      C80.8000031,128.7999878,81,128.8999939,81.1000061,129.1000061z"/>
    <path fill="#bbbbbb" d="M83,128.2999878l0.3999939,0.8999939c0.1000061,0.2999878,0,0.5-0.1999969,0.7000122l0,0
      c-0.3000031,0.1000061-0.5,0-0.6999969-0.2000122l-0.3999939-0.8999939c-0.1000061-0.2999878,0-0.5,0.1999969-0.7000122l0,0
      C82.6000061,127.8999939,82.8000031,128,83,128.2999878z"/>
    <path fill="#bbbbbb" d="M86.6000061,126.6000061L87,127.5c0.1000061,0.2999878,0,0.5-0.1999969,0.7000122l0,0
      c-0.3000031,0.1000061-0.5,0-0.6999969-0.2000122l-0.3999939-0.8999939c-0.1000061-0.2999878,0-0.5,0.1999969-0.7000122l0,0
      C86.1999969,126.2000122,86.5,126.2999878,86.6000061,126.6000061z"/>
  </g>
  <rect x="65.0055695" y="123.0114136" transform="matrix(-0.9063134 0.4226062 -0.4226062 -0.9063134 185.8603973 206.8198395)" fill="#444444" width="9.9998522" height="1.9999704"/>
  <rect x="77.9890671" y="123.0152206" transform="matrix(-0.9063134 0.4226062 -0.4226062 -0.9063134 210.6126251 201.3401794)" fill="#444444" width="9.9998522" height="1.9999704"/>
</svg>
