<?xml version="1.0" encoding="utf-8"?>
<!DOCTYPE svg PUBLIC "-//W3C//DTD SVG 1.1//EN" "http://www.w3.org/Graphics/SVG/1.1/DTD/svg11.dtd">
<svg version="1.1" id="Layer_1" xmlns="http://www.w3.org/2000/svg" xmlns:xlink="http://www.w3.org/1999/xlink" x="0px" y="0px"
  width="160px" height="160px" viewBox="-219 321 160 160" enable-background="new -219 321 160 160" xml:space="preserve">
  <g>
    <path fill="#E0E0E0" d="M-171,357L-171,357c-0.6,0-1-0.4-1-1v-2c0-0.6,0.4-1,1-1l0,0c0.6,0,1,0.4,1,1v2
      C-170,356.6-170.4,357-171,357z"/>
    <path fill="#E0E0E0" d="M-171,369L-171,369c-0.6,0-1-0.4-1-1v-6c0-0.6,0.4-1,1-1l0,0c0.6,0,1,0.4,1,1v6
      C-170,368.6-170.4,369-171,369z"/>
    <path fill="#E0E0E0" d="M-171,379L-171,379c-0.6,0-1-0.4-1-1v-6c0-0.6,0.4-1,1-1l0,0c0.6,0,1,0.4,1,1v6
      C-170,378.6-170.4,379-171,379z"/>
  </g>
  <g>
    <path fill="#E0E0E0" d="M-113,337h-52c-3.3,0-6,2.7-6,6v116c0,3.3,2.7,6,6,6h52c3.3,0,6-2.7,6-6V343C-107,339.7-109.7,337-113,337z
      "/>
    <path fill="#EEEEEE" d="M-113,338h-52c-2.8,0-5,2.2-5,5v116c0,2.8,2.2,5,5,5h52c2.8,0,5-2.2,5-5V343C-108,340.2-110.2,338-113,338z
      "/>
    <rect x="-167" y="353" fill="#383838" width="56" height="96"/>
  </g>
  <g>
    <path fill="#383838" d="M-134.5,347h-9c-0.3,0-0.5-0.2-0.5-0.5l0,0c0-0.3,0.2-0.5,0.5-0.5h9c0.3,0,0.5,0.2,0.5,0.5l0,0
      C-134,346.8-134.2,347-134.5,347z"/>
    <circle fill="#2B2B2B" cx="-139" cy="342" r="0.5"/>
    <circle fill="#383838" cx="-139" cy="342" r="0.2"/>
    <circle fill="#2B2B2B" cx="-149" cy="346.5" r="1"/>
    <circle fill="#383838" cx="-149" cy="346.5" r="0.4"/>
  </g>
  <g>
    <circle fill="#FFFFFF" cx="-139" cy="456" r="5"/>
    <path fill="#383838" d="M-135.5,452.5l-7.1,7.1c-2-2-2-5.1,0-7.1S-137.4,450.5-135.5,452.5z"/>
    <circle fill="#E0E0E0" cx="-139" cy="456" r="4.4"/>
  </g>
</svg>
