<?xml version="1.0" encoding="utf-8"?>
<!DOCTYPE svg PUBLIC "-//W3C//DTD SVG 1.1//EN" "http://www.w3.org/Graphics/SVG/1.1/DTD/svg11.dtd">
<svg version="1.1" id="Layer_1" xmlns="http://www.w3.org/2000/svg" xmlns:xlink="http://www.w3.org/1999/xlink" x="0px" y="0px"
  width="160px" height="160px" viewBox="-219 321 160 160" enable-background="new -219 321 160 160" xml:space="preserve">
  <path fill="#E0E0E0" d="M-98,337h-82c-1.7,0-3,1.3-3,3v122c0,1.7,1.3,3,3,3h82c1.7,0,3-1.3,3-3V340C-95,338.3-96.3,337-98,337z"/>
  <path fill="#EEEEEE" d="M-98,338h-82c-1.1,0-2,0.9-2,2v122c0,1.1,0.9,2,2,2h82c1.1,0,2-0.9,2-2V340C-96,338.9-96.9,338-98,338z"/>
  <circle fill="#2B2B2B" cx="-139" cy="341" r="0.5"/>
  <circle fill="#383838" cx="-139" cy="341" r="0.2"/>
  <rect x="-179" y="345" fill="#383838" width="80" height="108"/>
  <circle fill="#E0E0E0" cx="-139" cy="458.5" r="3"/>
</svg>
