<svg xmlns="http://www.w3.org/2000/svg" width="160px" height="160px" viewBox="0 0 160 160"
    role="img" aria-labelledby="title" aria-describedby="desc">
  <title id="title">Padlock</title>
  <desc id="desc">A locked grey padlock</desc>
  <path fill="#eeeeee" d="M80,15c-19.9,0-26,11.1-26,30.9c0,9.8,0,28.1,0,28.1h11c0-9.8,0-24.9,0-28.3C65,32.6,66.7,26,80,26
    s16,6.6,16,19.7c0,3.4,0,18.6,0,28.3h10c0,0,0-18.4,0-28.1C106,26.1,99.9,15,80,15z"/>
  <g>
    <path fill="#e1e1e1" d="M60,46v28h5c0-9.8,0-24.9,0-28.3c0-5.3,0.3-9.5,1.5-12.7l-4-4C60.6,33.3,60,39,60,46z"/>
    <path fill="#cccccc" d="M100,46c0-16.6-3.4-26-20-26c-9.6,0-14.8,3.2-17.5,9l4,4c1.8-4.7,5.6-7,13.5-7c13.3,0,16,6.6,16,19.7
      c0,2.2,0,13.9,0,21.3h4V46z"/>
    <path fill="#cccccc" d="M40,104c0,22,16.9,40,40,40c23,0,40-17.9,40-40v-1c0-4.6-0.4-9.5-2-14l-6-18c-0.8-2.5-3.5-4.7-6-5
      c0,0-18.5-3-26-3c-7.5,0-26,3-26,3c-2.5,0.3-4.7,2.3-6,5l-6.1,18.1C40.8,93.4,40,98.4,40,103V104z"/>
    <path fill="#e1e1e1" d="M119,103.5c0,21.8-17.5,39.5-39,39.5s-39-17.7-39-39.5S58.5,65,80,65S119,81.7,119,103.5z"/>
    <path fill="#cccccc" d="M40,103.5c0,21.8,18.5,40.5,40,40.5c10.8,0,21.2-4.6,28.2-11.8L49,72C49,72,40,92.5,40,103.5z"/>
  </g>
  <g>
    <path fill="#5e5e5e" d="M77,70v2c0,0.6-0.4,1-1,1h-6c-0.6,0-1-0.4-1-1v-2c0-0.6,0.4-1,1-1h6C76.6,69,77,69.4,77,70z"/>
    <path fill="#5e5e5e" d="M79,69.5v3c0,0.3-0.2,0.5-0.5,0.5l0,0c-0.3,0-0.5-0.2-0.5-0.5v-3c0-0.3,0.2-0.5,0.5-0.5l0,0
      C78.8,69,79,69.2,79,69.5z"/>
    <path fill="#d6d6d6" d="M76,70.5v1c0,0.3-0.2,0.5-0.5,0.5l0,0c-0.3,0-0.5-0.2-0.5-0.5v-1c0-0.3,0.2-0.5,0.5-0.5l0,0
      C75.8,70,76,70.2,76,70.5z"/>
    <path fill="#5e5e5e" d="M81,69.5v3c0,0.3-0.2,0.5-0.5,0.5l0,0c-0.3,0-0.5-0.2-0.5-0.5v-3c0-0.3,0.2-0.5,0.5-0.5l0,0
      C80.8,69,81,69.2,81,69.5z"/>
    <path fill="#5e5e5e" d="M83,71.5v1c0,0.3-0.2,0.5-0.5,0.5l0,0c-0.3,0-0.5-0.2-0.5-0.5v-1c0-0.3,0.2-0.5,0.5-0.5l0,0
      C82.8,71,83,71.2,83,71.5z"/>
    <path fill="#5e5e5e" d="M85,69.5v3c0,0.3-0.2,0.5-0.5,0.5l0,0c-0.3,0-0.5-0.2-0.5-0.5v-3c0-0.3,0.2-0.5,0.5-0.5l0,0
      C84.8,69,85,69.2,85,69.5z"/>
    <path fill="#5e5e5e" d="M87,69.5v1c0,0.3-0.2,0.5-0.5,0.5l0,0c-0.3,0-0.5-0.2-0.5-0.5v-1c0-0.3,0.2-0.5,0.5-0.5l0,0
      C86.8,69,87,69.2,87,69.5z"/>
    <path fill="#5e5e5e" d="M89,69.5v1c0,0.3-0.2,0.5-0.5,0.5l0,0c-0.3,0-0.5-0.2-0.5-0.5v-1c0-0.3,0.2-0.5,0.5-0.5l0,0
      C88.8,69,89,69.2,89,69.5z"/>
    <path fill="#5e5e5e" d="M91,69.5v3c0,0.3-0.2,0.5-0.5,0.5l0,0c-0.3,0-0.5-0.2-0.5-0.5v-3c0-0.3,0.2-0.5,0.5-0.5l0,0
      C90.8,69,91,69.2,91,69.5z"/>
    <path fill="#5e5e5e" d="M88.5,73h-2c-0.3,0-0.5-0.2-0.5-0.5l0,0c0-0.3,0.2-0.5,0.5-0.5h2c0.3,0,0.5,0.2,0.5,0.5l0,0
      C89,72.8,88.8,73,88.5,73z"/>
    <circle fill="#5e5e5e" cx="82.5" cy="69.5" r="0.5"/>
  </g>
  <circle fill="#e1e1e1" cx="80" cy="106" r="32"/>
  <circle fill="#666666" cx="80" cy="106" r="30"/>
  <circle fill="#4f4f4f" cx="80" cy="106" r="30"/>
  <g>
    <path fill="#dd5136" d="M85.5,134c-0.2,0-0.4-0.2-0.5-0.4l-0.3-1.7c-0.1-0.3,0.1-0.5,0.4-0.6c0.3-0.1,0.5,0.1,0.6,0.4l0.3,1.7
      C86,133.6,85.8,133.9,85.5,134C85.5,134,85.5,134,85.5,134z"/>
    <path fill="#dd5136" d="M95.6,129.8c-0.2,0-0.3-0.1-0.4-0.2l-1-1.5c-0.2-0.2-0.1-0.5,0.1-0.7c0.2-0.2,0.5-0.1,0.7,0.1l1,1.5
      c0.2,0.2,0.1,0.5-0.1,0.7C95.7,129.8,95.6,129.8,95.6,129.8z"/>
    <path fill="#dd5136" d="M103.3,122.1c-0.1,0-0.2,0-0.3-0.1l-1.5-1c-0.2-0.2-0.3-0.5-0.1-0.7s0.5-0.3,0.7-0.1l1.5,1
      c0.2,0.2,0.3,0.5,0.1,0.7C103.6,122,103.4,122.1,103.3,122.1z"/>
    <path fill="#dd5136" d="M107.5,112C107.4,112,107.4,112,107.5,112l-1.8-0.4c-0.3-0.1-0.4-0.3-0.4-0.6s0.3-0.4,0.6-0.4l1.7,0.3
      c0.3,0.1,0.4,0.3,0.4,0.6C107.9,111.8,107.7,112,107.5,112z"/>
    <path fill="#dd5136" d="M105.7,101.4c-0.2,0-0.4-0.2-0.5-0.4c-0.1-0.3,0.1-0.5,0.4-0.6l1.7-0.3c0.3-0.1,0.5,0.1,0.6,0.4
      s-0.1,0.5-0.4,0.6L105.7,101.4C105.8,101.4,105.8,101.4,105.7,101.4z"/>
    <path fill="#dd5136" d="M101.8,91.9c-0.2,0-0.3-0.1-0.4-0.2c-0.2-0.2-0.1-0.5,0.1-0.7l1.5-1c0.2-0.2,0.5-0.1,0.7,0.1
      c0.2,0.2,0.1,0.5-0.1,0.7l-1.5,1C102,91.9,101.9,91.9,101.8,91.9z"/>
    <path fill="#dd5136" d="M94.6,84.7c-0.1,0-0.2,0-0.3-0.1c-0.2-0.2-0.3-0.5-0.1-0.7l1-1.5c0.2-0.2,0.5-0.3,0.7-0.1
      c0.2,0.2,0.3,0.5,0.1,0.7l-1,1.5C94.9,84.6,94.7,84.7,94.6,84.7z"/>
    <path fill="#dd5136" d="M85.1,80.8C85.1,80.8,85.1,80.8,85.1,80.8c-0.4-0.1-0.5-0.3-0.5-0.6l0.3-1.7c0.1-0.3,0.3-0.4,0.6-0.4
      c0.3,0.1,0.4,0.3,0.4,0.6l-0.3,1.7C85.6,80.6,85.4,80.8,85.1,80.8z"/>
    <path fill="#dd5136" d="M74.9,80.8c-0.2,0-0.4-0.2-0.5-0.4L74,78.6c-0.1-0.3,0.1-0.5,0.4-0.6c0.3-0.1,0.5,0.1,0.6,0.4l0.3,1.7
      C75.4,80.4,75.2,80.7,74.9,80.8C74.9,80.8,74.9,80.8,74.9,80.8z"/>
    <path fill="#dd5136" d="M65.4,84.7c-0.2,0-0.3-0.1-0.4-0.2L64,83c-0.2-0.2-0.1-0.5,0.1-0.7s0.5-0.1,0.7,0.1l1,1.5
      c0.2,0.2,0.1,0.5-0.1,0.7C65.6,84.6,65.5,84.7,65.4,84.7z"/>
    <path fill="#dd5136" d="M58.2,91.9c-0.1,0-0.2,0-0.3-0.1l-1.5-1c-0.2-0.2-0.3-0.5-0.1-0.7c0.2-0.2,0.5-0.3,0.7-0.1l1.5,1
      c0.2,0.2,0.3,0.5,0.1,0.7C58.5,91.8,58.3,91.9,58.2,91.9z"/>
    <path fill="#dd5136" d="M54.3,101.4C54.2,101.4,54.2,101.4,54.3,101.4l-1.8-0.4c-0.3-0.1-0.4-0.3-0.4-0.6c0.1-0.3,0.3-0.5,0.6-0.4
      l1.7,0.3c0.3,0.1,0.4,0.3,0.4,0.6C54.7,101.2,54.5,101.4,54.3,101.4z"/>
    <path fill="#dd5136" d="M52.5,112c-0.2,0-0.4-0.2-0.5-0.4c-0.1-0.3,0.1-0.5,0.4-0.6l1.7-0.3c0.3-0.1,0.5,0.1,0.6,0.4
      c0.1,0.3-0.1,0.5-0.4,0.6L52.5,112C52.6,112,52.6,112,52.5,112z"/>
    <path fill="#dd5136" d="M56.7,122.1c-0.2,0-0.3-0.1-0.4-0.2c-0.2-0.2-0.1-0.5,0.1-0.7l1.5-1c0.2-0.2,0.5-0.1,0.7,0.1
      c0.2,0.2,0.1,0.5-0.1,0.7l-1.5,1C56.9,122,56.8,122.1,56.7,122.1z"/>
    <path fill="#dd5136" d="M64.4,129.8c-0.1,0-0.2,0-0.3-0.1c-0.2-0.2-0.3-0.5-0.1-0.7l1-1.5c0.2-0.2,0.5-0.3,0.7-0.1
      c0.2,0.2,0.3,0.5,0.1,0.7l-1,1.5C64.8,129.7,64.6,129.8,64.4,129.8z"/>
    <path fill="#dd5136" d="M74.5,134C74.5,134,74.5,134,74.5,134c-0.4-0.1-0.5-0.3-0.5-0.6l0.3-1.7c0.1-0.3,0.3-0.5,0.6-0.4
      c0.3,0.1,0.4,0.3,0.4,0.6l-0.3,1.7C75,133.8,74.8,134,74.5,134z"/>
    <path fill="#dd5136" d="M80,134.5c-0.3,0-0.5-0.2-0.5-0.5v-4c0-0.3,0.2-0.5,0.5-0.5s0.5,0.2,0.5,0.5v4
      C80.5,134.3,80.3,134.5,80,134.5z"/>
    <path fill="#dd5136" d="M90.7,132.4c-0.2,0-0.4-0.1-0.5-0.3l-1.3-3.2c-0.1-0.3,0-0.5,0.3-0.7c0.3-0.1,0.5,0,0.7,0.3l1.3,3.2
      c0.1,0.3,0,0.5-0.3,0.7C90.8,132.4,90.8,132.4,90.7,132.4z"/>
    <path fill="#dd5136" d="M99.8,126.3c-0.1,0-0.3,0-0.4-0.1l-2.5-2.5c-0.2-0.2-0.2-0.5,0-0.7s0.5-0.2,0.7,0l2.5,2.5
      c0.2,0.2,0.2,0.5,0,0.7C100.1,126.3,99.9,126.3,99.8,126.3z"/>
    <path fill="#dd5136" d="M105.9,117.2c-0.1,0-0.1,0-0.2,0l-3.2-1.3c-0.3-0.1-0.4-0.4-0.3-0.7s0.4-0.4,0.7-0.3l3.2,1.3
      c0.3,0.1,0.4,0.4,0.3,0.7C106.3,117.1,106.1,117.2,105.9,117.2z"/>
    <path fill="#dd5136" d="M108,106.5h-4c-0.3,0-0.5-0.2-0.5-0.5s0.2-0.5,0.5-0.5h4c0.3,0,0.5,0.2,0.5,0.5S108.3,106.5,108,106.5z"/>
    <path fill="#dd5136" d="M102.6,97.1c-0.2,0-0.4-0.1-0.5-0.3c-0.1-0.3,0-0.5,0.3-0.7l3.2-1.3c0.3-0.1,0.5,0,0.7,0.3
      c0.1,0.3,0,0.5-0.3,0.7l-3.2,1.3C102.8,97.1,102.7,97.1,102.6,97.1z"/>
    <path fill="#dd5136" d="M97.3,89.2c-0.1,0-0.3,0-0.4-0.1c-0.2-0.2-0.2-0.5,0-0.7l2.5-2.5c0.2-0.2,0.5-0.2,0.7,0s0.2,0.5,0,0.7
      L97.7,89C97.6,89.1,97.5,89.2,97.3,89.2z"/>
    <path fill="#dd5136" d="M89.4,83.9c-0.1,0-0.1,0-0.2,0c-0.3-0.1-0.4-0.4-0.3-0.7l1.3-3.2c0.1-0.3,0.4-0.4,0.7-0.3
      c0.3,0.1,0.4,0.4,0.3,0.7l-1.3,3.2C89.8,83.8,89.6,83.9,89.4,83.9z"/>
    <path fill="#dd5136" d="M80,82.5L80,82.5c-0.3,0-0.5-0.2-0.5-0.5l0-4c0-0.3,0.2-0.5,0.5-0.5h0c0.3,0,0.5,0.2,0.5,0.5l0,4
      C80.5,82.3,80.3,82.5,80,82.5z"/>
    <path fill="#dd5136" d="M70.6,83.9c-0.2,0-0.4-0.1-0.5-0.3l-1.3-3.2c-0.1-0.3,0-0.5,0.3-0.7c0.3-0.1,0.5,0,0.7,0.3l1.3,3.2
      c0.1,0.3,0,0.5-0.3,0.7C70.8,83.9,70.7,83.9,70.6,83.9z"/>
    <path fill="#dd5136" d="M62.7,89.2c-0.1,0-0.3,0-0.4-0.1l-2.5-2.5c-0.2-0.2-0.2-0.5,0-0.7s0.5-0.2,0.7,0l2.5,2.5
      c0.2,0.2,0.2,0.5,0,0.7C62.9,89.1,62.8,89.2,62.7,89.2z"/>
    <path fill="#dd5136" d="M57.4,97.1c-0.1,0-0.1,0-0.2,0l-3.2-1.3c-0.3-0.1-0.4-0.4-0.3-0.7s0.4-0.4,0.7-0.3l3.2,1.3
      c0.3,0.1,0.4,0.4,0.3,0.7C57.8,97,57.6,97.1,57.4,97.1z"/>
    <path fill="#dd5136" d="M56,106.5h-4c-0.3,0-0.5-0.2-0.5-0.5s0.2-0.5,0.5-0.5h4c0.3,0,0.5,0.2,0.5,0.5S56.3,106.5,56,106.5z"/>
    <path fill="#dd5136" d="M54.1,117.2c-0.2,0-0.4-0.1-0.5-0.3c-0.1-0.3,0-0.5,0.3-0.7l3.2-1.3c0.3-0.1,0.5,0,0.7,0.3s0,0.5-0.3,0.7
      l-3.2,1.3C54.3,117.2,54.2,117.2,54.1,117.2z"/>
    <path fill="#dd5136" d="M60.2,126.3c-0.1,0-0.3,0-0.4-0.1c-0.2-0.2-0.2-0.5,0-0.7l2.5-2.5c0.2-0.2,0.5-0.2,0.7,0s0.2,0.5,0,0.7
      l-2.5,2.5C60.5,126.3,60.3,126.3,60.2,126.3z"/>
    <path fill="#dd5136" d="M69.3,132.4c-0.1,0-0.1,0-0.2,0c-0.3-0.1-0.4-0.4-0.3-0.7l1.3-3.2c0.1-0.3,0.4-0.4,0.7-0.3
      c0.3,0.1,0.4,0.4,0.3,0.7l-1.3,3.2C69.7,132.3,69.5,132.4,69.3,132.4z"/>
  </g>
  <circle fill="#5e5e5e" cx="80" cy="106" r="18"/>
  <path fill="#686868" d="M92.7,93.3c-7-7-18.4-7-25.5,0l25.5,25.5C99.8,111.7,99.8,100.3,92.7,93.3z"/>
  <path fill="#cccccc" d="M91.5,115.7c0.3-0.4,0.9-0.5,1.4-0.1c0.2-0.2,0.3-0.4,0.5-0.7c-0.5-0.3-0.6-0.9-0.3-1.3
    c0.3-0.5,0.9-0.6,1.3-0.4c0.1-0.2,0.2-0.5,0.4-0.7c-0.5-0.2-0.8-0.8-0.6-1.3c0.2-0.5,0.7-0.8,1.2-0.6c0.1-0.3,0.1-0.5,0.2-0.8
    c-0.5-0.1-0.9-0.6-0.8-1.1c0.1-0.5,0.6-0.9,1.1-0.8c0-0.3,0-0.5,0.1-0.8c-0.5,0-1-0.5-1-1s0.4-1,1-1c0-0.3,0-0.5-0.1-0.8
    c-0.5,0.1-1-0.3-1.1-0.8c-0.1-0.5,0.3-1,0.8-1.1c-0.1-0.3-0.1-0.5-0.2-0.8c-0.5,0.2-1.1-0.1-1.2-0.6c-0.2-0.5,0.1-1.1,0.6-1.3
    c-0.1-0.2-0.2-0.5-0.4-0.7c-0.5,0.2-1.1,0.1-1.3-0.4c-0.3-0.5-0.1-1.1,0.3-1.3c-0.1-0.2-0.3-0.4-0.5-0.7c-0.4,0.3-1,0.3-1.4-0.1
    c-0.3-0.4-0.3-1,0.1-1.4c-0.2-0.2-0.4-0.4-0.6-0.6c-0.4,0.4-1,0.4-1.4,0.1c-0.4-0.3-0.5-0.9-0.1-1.4c-0.2-0.2-0.4-0.3-0.7-0.5
    c-0.3,0.5-0.9,0.6-1.3,0.3c-0.5-0.3-0.6-0.9-0.4-1.3c-0.2-0.1-0.5-0.2-0.7-0.4c-0.2,0.5-0.8,0.8-1.3,0.6c-0.5-0.2-0.8-0.7-0.6-1.2
    c-0.3-0.1-0.5-0.1-0.8-0.2c-0.1,0.5-0.6,0.9-1.1,0.8c-0.5-0.1-0.9-0.6-0.8-1.1c-0.3,0-0.5,0-0.8-0.1c0,0.5-0.5,1-1,1s-1-0.4-1-1
    c-0.3,0-0.5,0-0.8,0.1c0.1,0.5-0.3,1-0.8,1.1c-0.5,0.1-1-0.3-1.1-0.8c-0.3,0.1-0.5,0.1-0.8,0.2c0.2,0.5-0.1,1.1-0.6,1.2
    c-0.5,0.2-1.1-0.1-1.3-0.6c-0.2,0.1-0.5,0.2-0.7,0.4c0.2,0.5,0.1,1.1-0.4,1.3c-0.5,0.3-1.1,0.1-1.3-0.3c-0.2,0.1-0.4,0.3-0.7,0.5
    c0.3,0.4,0.3,1-0.1,1.4c-0.4,0.3-1,0.3-1.4-0.1c-0.2,0.2-0.4,0.4-0.6,0.6c0.4,0.4,0.4,1,0.1,1.4c-0.3,0.4-0.9,0.5-1.4,0.1
    c-0.2,0.2-0.3,0.4-0.5,0.7c0.5,0.3,0.6,0.9,0.3,1.3c-0.3,0.5-0.9,0.6-1.3,0.4c-0.1,0.2-0.2,0.5-0.4,0.7c0.5,0.2,0.8,0.8,0.6,1.3
    c-0.2,0.5-0.7,0.8-1.2,0.6c-0.1,0.3-0.1,0.5-0.2,0.8c0.5,0.1,0.9,0.6,0.8,1.1c-0.1,0.5-0.6,0.9-1.1,0.8c0,0.3,0,0.5-0.1,0.8
    c0.5,0,1,0.5,1,1s-0.4,1-1,1c0,0.3,0,0.5,0.1,0.8c0.5-0.1,1,0.3,1.1,0.8c0.1,0.5-0.3,1-0.8,1.1c0.1,0.3,0.1,0.5,0.2,0.8
    c0.5-0.2,1.1,0.1,1.2,0.6c0.2,0.5-0.1,1.1-0.6,1.3c0.1,0.2,0.2,0.5,0.4,0.7c0.5-0.2,1.1-0.1,1.3,0.4c0.3,0.5,0.1,1.1-0.3,1.3
    c0.1,0.2,0.3,0.4,0.5,0.7c0.4-0.3,1-0.3,1.4,0.1c0.3,0.4,0.3,1-0.1,1.4c0.2,0.2,0.4,0.4,0.6,0.6c0.4-0.4,1-0.4,1.4-0.1
    c0.4,0.3,0.5,0.9,0.1,1.4c0.2,0.2,0.4,0.3,0.7,0.5c0.3-0.5,0.9-0.6,1.3-0.3c0.5,0.3,0.6,0.9,0.4,1.3c0.2,0.1,0.5,0.2,0.7,0.4
    c0.2-0.5,0.8-0.8,1.3-0.6c0.5,0.2,0.8,0.7,0.6,1.2c0.3,0.1,0.5,0.1,0.8,0.2c0.1-0.5,0.6-0.9,1.1-0.8c0.5,0.1,0.9,0.6,0.8,1.1
    c0.3,0,0.5,0,0.8,0.1c0-0.5,0.5-1,1-1s1,0.4,1,1c0.3,0,0.5,0,0.8-0.1c-0.1-0.5,0.3-1,0.8-1.1c0.5-0.1,1,0.3,1.1,0.8
    c0.3-0.1,0.5-0.1,0.8-0.2c-0.2-0.5,0.1-1.1,0.6-1.2c0.5-0.2,1.1,0.1,1.3,0.6c0.2-0.1,0.5-0.2,0.7-0.4c-0.2-0.5-0.1-1.1,0.4-1.3
    c0.5-0.3,1.1-0.1,1.3,0.3c0.2-0.1,0.4-0.3,0.7-0.5c-0.3-0.4-0.3-1,0.1-1.4c0.4-0.3,1-0.3,1.4,0.1c0.2-0.2,0.4-0.4,0.6-0.6
    C91.2,116.7,91.2,116.1,91.5,115.7z"/>
  <circle fill="#666666" cx="80" cy="106" r="14"/>
  <g>
    <path fill="#444444" d="M76,105v2c0,0.6-0.4,1-1,1h-4c-0.6,0-1-0.4-1-1v-2c0-0.6,0.4-1,1-1h4C75.6,104,76,104.4,76,105z"/>
    <path fill="#444444" d="M78,104.5v3c0,0.3-0.2,0.5-0.5,0.5l0,0c-0.3,0-0.5-0.2-0.5-0.5v-3c0-0.3,0.2-0.5,0.5-0.5l0,0
      C77.8,104,78,104.2,78,104.5z"/>
    <path fill="#686868" d="M75,105.5v1c0,0.3-0.2,0.5-0.5,0.5l0,0c-0.3,0-0.5-0.2-0.5-0.5v-1c0-0.3,0.2-0.5,0.5-0.5l0,0
      C74.8,105,75,105.2,75,105.5z"/>
    <path fill="#444444" d="M80,104.5v3c0,0.3-0.2,0.5-0.5,0.5l0,0c-0.3,0-0.5-0.2-0.5-0.5v-3c0-0.3,0.2-0.5,0.5-0.5l0,0
      C79.8,104,80,104.2,80,104.5z"/>
    <path fill="#444444" d="M72.5,109h15c0.3,0,0.5,0.2,0.5,0.5l0,0c0,0.3-0.2,0.5-0.5,0.5h-15c-0.3,0-0.5-0.2-0.5-0.5l0,0
      C72,109.2,72.2,109,72.5,109z"/>
    <path fill="#444444" d="M82,106.5v1c0,0.3-0.2,0.5-0.5,0.5l0,0c-0.3,0-0.5-0.2-0.5-0.5v-1c0-0.3,0.2-0.5,0.5-0.5l0,0
      C81.8,106,82,106.2,82,106.5z"/>
    <path fill="#444444" d="M84,104.5v3c0,0.3-0.2,0.5-0.5,0.5l0,0c-0.3,0-0.5-0.2-0.5-0.5v-3c0-0.3,0.2-0.5,0.5-0.5l0,0
      C83.8,104,84,104.2,84,104.5z"/>
    <path fill="#444444" d="M86,104.5v1c0,0.3-0.2,0.5-0.5,0.5l0,0c-0.3,0-0.5-0.2-0.5-0.5v-1c0-0.3,0.2-0.5,0.5-0.5l0,0
      C85.8,104,86,104.2,86,104.5z"/>
    <path fill="#444444" d="M88,104.5v1c0,0.3-0.2,0.5-0.5,0.5l0,0c-0.3,0-0.5-0.2-0.5-0.5v-1c0-0.3,0.2-0.5,0.5-0.5l0,0
      C87.8,104,88,104.2,88,104.5z"/>
    <path fill="#444444" d="M90,104.5v3c0,0.3-0.2,0.5-0.5,0.5l0,0c-0.3,0-0.5-0.2-0.5-0.5v-3c0-0.3,0.2-0.5,0.5-0.5l0,0
      C89.8,104,90,104.2,90,104.5z"/>
    <path fill="#444444" d="M87.5,108h-2c-0.3,0-0.5-0.2-0.5-0.5l0,0c0-0.3,0.2-0.5,0.5-0.5h2c0.3,0,0.5,0.2,0.5,0.5l0,0
      C88,107.8,87.8,108,87.5,108z"/>
    <circle fill="#444444" cx="81.5" cy="104.5" r="0.5"/>
  </g>
  <circle fill="#444444" cx="80" cy="110" r="1"/>
  <path fill="#444444" d="M72,102.5L72,102.5c0-0.3,0.2-0.5,0.5-0.5h15c0.3,0,0.5,0.2,0.5,0.5l0,0c0,0.3-0.2,0.5-0.5,0.5h-15
    C72.2,103,72,102.8,72,102.5z"/>
  <circle fill="#444444" cx="80" cy="102" r="1"/>
</svg>
