<svg xmlns="http://www.w3.org/2000/svg" width="160px" height="160px" viewBox="0 0 160 160"
  role="img" aria-labelledby="title" aria-describedby="desc">
  <title id="title">Notebook</title>
  <desc id="desc">A closed brown notebook with "Notes" written on the cover</desc>
  <path fill="#aaaaaa" d="M40,128L40,128c-0.6000061,0-1-0.3999939-1-1v-6c0-0.6000061,0.3999939-1,1-1l0,0
    c0.6000061,0,1,0.3999939,1,1v6C41,127.6000061,40.6000061,128,40,128z"/>
  <path fill="#cccccc" d="M40,127L40,127c-0.6000061,0-1-0.3999939-1-1v-4c0-0.6000061,0.3999939-1,1-1l0,0
    c0.6000061,0,1,0.3999939,1,1v4C41,126.6000061,40.6000061,127,40,127z"/>
  <path fill="#b28b70" d="M116,16H42v128h74c3.3000031,0,6-2.7000122,6-6V22C122,18.7000122,119.3000031,16,116,16z"/>
  <path fill="#aaaaaa" d="M40,40L40,40c-0.6000061,0-1-0.3999939-1-1v-6c0-0.6000061,0.3999939-1,1-1l0,0
    c0.6000061,0,1,0.3999939,1,1v6C41,39.6000061,40.6000061,40,40,40z"/>
  <path fill="#cccccc" d="M40,39L40,39c-0.6000061,0-1-0.3999939-1-1v-4c0-0.6000061,0.3999939-1,1-1l0,0
    c0.6000061,0,1,0.3999939,1,1v4C41,38.6000061,40.6000061,39,40,39z"/>
  <path fill="#ccc2bc" d="M116,17H41v126h75c2.8000031,0,5-2.2000122,5-5V22C121,19.2000122,118.8000031,17,116,17z"/>
  <path fill="#aaaaaa" d="M40,84L40,84c-0.6000061,0-1-0.3999939-1-1v-6c0-0.6000061,0.3999939-1,1-1l0,0
    c0.6000061,0,1,0.3999939,1,1v6C41,83.6000061,40.6000061,84,40,84z"/>
  <path fill="#cccccc" d="M40,83L40,83c-0.6000061,0-1-0.3999939-1-1v-4c0-0.6000061,0.3999939-1,1-1l0,0
    c0.6000061,0,1,0.3999939,1,1v4C41,82.6000061,40.6000061,83,40,83z"/>
  <path fill="#cca27d" d="M114,16H40v128h74c3.3000031,0,6-2.7000122,6-6V22C120,18.7000122,117.3000031,16,114,16z"/>
  <text transform="matrix(1 0 0 1 55.0112 56)" fill="#666666" font-family="'Helvetica-Bold'" font-size="12" letter-spacing="1">NOTES</text>
</svg>
