<svg xmlns="http://www.w3.org/2000/svg"
  width="160px" height="160px" viewBox="0 0 160 160" aria-labelledby="title" aria-describedby="desc">
  <title id="title">Code editor window</title>
  <desc id="desc">A text editor window with code written inside it</desc>
  <path fill="#cccccc" d="M142,16H18c-1.1000061,0-2,0.8999939-2,2v124c0,1.1000061,0.8999939,2,2,2h124c1.1000061,0,2-0.8999939,2-2
    V18C144,16.8999939,143.1000061,16,142,16z"/>
  <path fill="#333333" d="M16,22h128v120c0,1.1000061-0.8999939,2-2,2H18c-1.1000061,0-2-0.8999939-2-2V22z"/>
  <circle fill="#ff3333" cx="19" cy="19" r="1"/>
  <circle fill="#ffff33" cx="23" cy="19" r="1"/>
  <circle fill="#39b54a" cx="27" cy="19" r="1"/>
  <path fill="#2d2d2d" d="M25,144h-7c-1.1000061,0-2-0.8999939-2-2V22h9V144z"/>
  <text transform="matrix(1 0 0 1 19 29)" fill="#777777" font-family="'Courier'" font-size="4">1</text>
  <text transform="matrix(1 0 0 1 19 37)" fill="#777777" font-family="'Courier'" font-size="4">2</text>
  <text transform="matrix(1 0 0 1 19 45)" fill="#777777" font-family="'Courier'" font-size="4">3</text>
  <text transform="matrix(1 0 0 1 19 53)" fill="#777777" font-family="'Courier'" font-size="4">4</text>
  <text transform="matrix(1 0 0 1 19 61)" fill="#777777" font-family="'Courier'" font-size="4">5</text>
  <text transform="matrix(1 0 0 1 19 69)" fill="#777777" font-family="'Courier'" font-size="4">6</text>
  <text transform="matrix(1 0 0 1 19 77)" fill="#777777" font-family="'Courier'" font-size="4">7</text>
  <text transform="matrix(1 0 0 1 19 85)" fill="#777777" font-family="'Courier'" font-size="4">8</text>
  <text transform="matrix(1 0 0 1 19 93)" fill="#777777" font-family="'Courier'" font-size="4">9</text>
  <text transform="matrix(1 0 0 1 19 101)" fill="#777777" font-family="'Courier'" font-size="4">10</text>
  <text transform="matrix(1 0 0 1 19 109)" fill="#777777" font-family="'Courier'" font-size="4">11</text>
  <text transform="matrix(1 0 0 1 19 117)" fill="#777777" font-family="'Courier'" font-size="4">12</text>
  <text transform="matrix(1 0 0 1 19 125)" fill="#777777" font-family="'Courier'" font-size="4">13</text>
  <text transform="matrix(1 0 0 1 19 133)" fill="#777777" font-family="'Courier'" font-size="4">14</text>
  <text transform="matrix(1 0 0 1 27 29)" fill="#9a6e35" font-family="'Courier'" font-size="4">!!!</text>
  <text transform="matrix(1 0 0 1 27 37)" fill="#9a6e35" font-family="'Courier'" font-size="4">%html</text>
  <text transform="matrix(1 0 0 1 27 45)" fill="#9a6e35" font-family="'Courier'" font-size="4">  %head</text>
  <text transform="matrix(1 0 0 1 27 53)" fill="#9a6e35" font-family="'Courier'" font-size="4">    %meta</text>
  <text transform="matrix(1 0 0 1 48.6000061 53)" fill="#ffffff" font-family="'Courier'" font-size="4">(</text>
  <text transform="matrix(1 0 0 1 51 53)" fill="#d1ca7e" font-family="'Courier'" font-size="4">charset</text>
  <text transform="matrix(1 0 0 1 67.7999878 53)" fill="#ffffff" font-family="'Courier'" font-size="4">=</text>
  <text transform="matrix(1 0 0 1 70.2000122 53)" fill="#96b38b" font-family="'Courier'" font-size="4">&apos;utf-8&apos;</text>
  <text transform="matrix(1 0 0 1 87 53)" fill="#ffffff" font-family="'Courier'" font-size="4">)</text>
  <text transform="matrix(1 0 0 1 27 61)" fill="#d1ca7e" font-family="'Courier'" font-size="4">    </text>
  <text transform="matrix(1 0 0 1 36.6000061 61)" fill="#9a6e35" font-family="'Courier'" font-size="4">%meta</text>
  <text transform="matrix(1 0 0 1 48.6000061 61)" fill="#ffffff" font-family="'Courier'" font-size="4">(</text>
  <text transform="matrix(1 0 0 1 51 61)" fill="#d1ca7e" font-family="'Courier'" font-size="4">content</text>
  <text transform="matrix(1 0 0 1 67.7999878 61)" fill="#ffffff" font-family="'Courier'" font-size="4">=</text>
  <text transform="matrix(1 0 0 1 70.2000122 61)" fill="#96b38b" font-family="'Courier'" font-size="4">&quot;detail&quot;</text>
  <text transform="matrix(1 0 0 1 89.3999939 61)" fill="#d1ca7e" font-family="'Courier'" font-size="4"> name</text>
  <text transform="matrix(1 0 0 1 101.3999939 61)" fill="#ffffff" font-family="'Courier'" font-size="4">=</text>
  <text transform="matrix(1 0 0 1 103.7999878 61)" fill="#96b38b" font-family="'Courier'" font-size="4">&quot;description&quot;</text>
  <text transform="matrix(1 0 0 1 135 61)" fill="#ffffff" font-family="'Courier'" font-size="4">)</text>
  <text transform="matrix(1 0 0 1 27 69)" fill="#d1ca7e" font-family="'Courier'" font-size="4">    </text>
  <text transform="matrix(1 0 0 1 36.6000061 69)" fill="#9a6e35" font-family="'Courier'" font-size="4">%meta</text>
  <text transform="matrix(1 0 0 1 48.6000061 69)" fill="#ffffff" font-family="'Courier'" font-size="4">(</text>
  <text transform="matrix(1 0 0 1 51 69)" fill="#d1ca7e" font-family="'Courier'" font-size="4">content</text>
  <text transform="matrix(1 0 0 1 67.7999878 69)" fill="#ffffff" font-family="'Courier'" font-size="4">=</text>
  <text transform="matrix(1 0 0 1 70.2000122 69)" fill="#96b38b" font-family="'Courier'" font-size="4">&apos;width=device-width&apos;</text>
  <text transform="matrix(1 0 0 1 118.2000122 69)" fill="#ffffff" font-family="'Courier'" font-size="4">)</text>
  <text transform="matrix(1 0 0 1 27 77)" fill="#d1ca7e" font-family="'Courier'" font-size="4">    </text>
  <text transform="matrix(1 0 0 1 36.6000061 77)" fill="#9a6e35" font-family="'Courier'" font-size="4">%title</text>
  <text transform="matrix(1 0 0 1 27 85)" fill="#d1ca7e" font-family="'Courier'" font-size="4">      </text>
  <text transform="matrix(1 0 0 1 41.3999939 85)" fill="#ffffff" font-family="'Courier'" font-size="4">-</text>
  <text transform="matrix(1 0 0 1 43.7999878 85)" fill="#d1ca7e" font-family="'Courier'" font-size="4"> if content_for?</text>
  <text transform="matrix(1 0 0 1 82.2000122 85)" fill="#ffffff" font-family="'Courier'" font-size="4">(</text>
  <text transform="matrix(1 0 0 1 84.6000061 85)" fill="#96b38b" font-family="'Courier'" font-size="4">:title</text>
  <text transform="matrix(1 0 0 1 99 85)" fill="#ffffff" font-family="'Courier'" font-size="4">)</text>
  <text transform="matrix(1 0 0 1 27 93)" fill="#d1ca7e" font-family="'Courier'" font-size="4">        </text>
  <text transform="matrix(1 0 0 1 46.2000122 93)" fill="#ffffff" font-family="'Courier'" font-size="4">=</text>
  <text transform="matrix(1 0 0 1 48.6000061 93)" fill="#d1ca7e" font-family="'Courier'" font-size="4"> yield </text>
  <text transform="matrix(1 0 0 1 65.3999939 93)" fill="#96b38b" font-family="'Courier'" font-size="4">:title</text>
  <text transform="matrix(1 0 0 1 27 101)" fill="#d1ca7e" font-family="'Courier'" font-size="4">      </text>
  <text transform="matrix(1 0 0 1 41.3999939 101)" fill="#ffffff" font-family="'Courier'" font-size="4">-</text>
  <text transform="matrix(1 0 0 1 43.7999878 101)" fill="#d1ca7e" font-family="'Courier'" font-size="4"> else</text>
  <text transform="matrix(1 0 0 1 27 109)" fill="#d1ca7e" font-family="'Courier'" font-size="4">        </text>
  <text transform="matrix(1 0 0 1 46.2000122 109)" fill="#ffffff" font-family="'Courier'" font-size="4">=</text>
  <text transform="matrix(1 0 0 1 48.6000061 109)" fill="#d1ca7e" font-family="'Courier'" font-size="4"> title</text>
  <text transform="matrix(1 0 0 1 27 125)" fill="#d1ca7e" font-family="'Courier'" font-size="4">    </text>
  <text transform="matrix(1 0 0 1 36.6000061 125)" fill="#ffffff" font-family="'Courier'" font-size="4">=</text>
  <text transform="matrix(1 0 0 1 39 125)" fill="#d1ca7e" font-family="'Courier'" font-size="4"> stylesheet_link_tag </text>
  <text transform="matrix(1 0 0 1 89.3999939 125)" fill="#96b38b" font-family="'Courier'" font-size="4">:application</text>
  <text transform="matrix(1 0 0 1 27 133)" fill="#d1ca7e" font-family="'Courier'" font-size="4">    </text>
  <text transform="matrix(1 0 0 1 36.6000061 133)" fill="#ffffff" font-family="'Courier'" font-size="4">=</text>
  <text transform="matrix(1 0 0 1 39 133)" fill="#d1ca7e" font-family="'Courier'" font-size="4"> javascript_include_tag </text>
  <text transform="matrix(1 0 0 1 96.6000061 133)" fill="#96b38b" font-family="'Courier'" font-size="4">&apos;app.js&apos;</text>
  <path fill="#222222" d="M141.5,136L141.5,136c0.3000031,0,0.5-0.2000122,0.5-0.5v-110c0-0.2999878-0.1999969-0.5-0.5-0.5l0,0
    c-0.3000031,0-0.5,0.2000122-0.5,0.5v110C141,135.7999878,141.1999969,136,141.5,136z"/>
  <path fill="#777777" d="M141.5,56L141.5,56c0.3000031,0,0.5-0.2000122,0.5-0.5v-30c0-0.2999878-0.1999969-0.5-0.5-0.5l0,0
    c-0.3000031,0-0.5,0.2000122-0.5,0.5v30C141,55.7999878,141.1999969,56,141.5,56z"/>
</svg>
