<svg version="1.1" xmlns="http://www.w3.org/2000/svg" xmlns:xlink="http://www.w3.org/1999/xlink" x="0px" y="0px"
   width="160px" height="160px" viewBox="-219 321 160 160">
  <rect x="-181" y="386" fill="#888888" width="34" height="7"/>
  <rect x="-131" y="386" fill="#888888" width="34" height="7"/>
  <path fill="#BBBBBB" d="M-139,333c-19.9,0-36,16.1-36,35.9c0,9.8,0,24.1,0,24.1h12c0-9.8,0-20.9,0-24.3c0-13.1,10.7-23.7,24-23.7
    s24,10.6,24,23.7c0,3.4,0,14.6,0,24.3h12c0,0,0-14.4,0-24.1C-103,349.1-119.1,333-139,333z"/>
  <path fill="#888888" d="M-131,393c0,4.4-3.6,8-8,8s-8-3.6-8-8h-34c0,0,0,18.6,0,30c0,23.2,18.8,42,42,42s42-18.8,42-42
  	c0-11.4,0-30,0-30H-131z"/>
  <path fill="#EEEEEE" d="M-131,393c0,4.4-3.6,8-8,8s-8-3.6-8-8h-34v24h84v-24H-131z"/>
  <path fill="#888888" d="M-131,393c0,4.4-3.6,8-8,8s-8-3.6-8-8h-1c0,5,4,9,9,9c5,0,9-4,9-9H-131z"/>
  <path fill="#AAAAAA" d="M-139,339c-16.6,0-30,13.4-30,30v24h6c0-9.8,0-20.9,0-24.3c0-13.1,10.7-23.7,24-23.7s24,10.6,24,23.7
    c0,3.4,0,14.6,0,24.3h6v-24C-109,352.4-122.4,339-139,339z"/>
  <path fill="#CCCCCC" d="M-108,393h-2v-24c0-16-13-29-29-29c-16,0-29,13-29,29v24h-2v-24c0-17.1,13.9-31,31-31c17.1,0,31,13.9,31,31
    V393z"/>
  <rect x="-181" y="393" fill="#E0E0E0" width="1" height="24"/>
  <rect x="-98" y="393" fill="#E0E0E0" width="1" height="24"/>
  <polygon fill="#FFFFFF" points="-148,393 -181,393 -180,394 -149,394 "/>
  <polygon fill="#FFFFFF" points="-97,393 -130,393 -129,394 -98,394 "/>
  <path fill="#CCCCCC" d="M-98,417h-82l0,6c0,22.6,18.3,41,41,41s41-18.3,41-41L-98,417z"/>
  <rect x="-180" y="417" fill="#FFFFFF" width="82" height="1"/>
  <circle fill="#CCCCCC" cx="-139" cy="419" r="11.9"/>
  <circle fill="#EEEEEE" cx="-139" cy="419" r="10"/>
  <circle fill="#EEEEEE" cx="-139" cy="439" r="6.1"/>
  <circle fill="#555555" cx="-139" cy="439" r="4"/>
  <rect x="-145" y="421" fill="#EEEEEE" width="12" height="18"/>
  <rect x="-143" y="421" fill="#555555" width="8" height="18"/>
  <circle fill="#555555" cx="-139" cy="419" r="8"/>
</svg>
