<svg xmlns="http://www.w3.org/2000/svg" width="160px" height="160px" viewBox="0 0 160 160"
  aria-role="img" aria-labelledby="title" aria-describedby="desc">
  <title id="title">Smart phone</title>
  <desc id="desc">A modern smart phone with a blank screen</desc>
  <g>
    <path fill="#e0e0e0" d="M48.5,36L48.5,36c-0.6000061,0-1-0.3999939-1-1v-2c0-0.6000061,0.3999939-1,1-1l0,0
      c0.6000061,0,1,0.3999939,1,1v2C49.5,35.6000061,49.1000061,36,48.5,36z"/>
    <path fill="#e0e0e0" d="M48.5,48L48.5,48c-0.6000061,0-1-0.3999939-1-1v-6c0-0.6000061,0.3999939-1,1-1l0,0
      c0.6000061,0,1,0.3999939,1,1v6C49.5,47.6000061,49.1000061,48,48.5,48z"/>
    <path fill="#e0e0e0" d="M48.5,58L48.5,58c-0.6000061,0-1-0.3999939-1-1v-6c0-0.6000061,0.3999939-1,1-1l0,0
      c0.6000061,0,1,0.3999939,1,1v6C49.5,57.6000061,49.1000061,58,48.5,58z"/>
  </g>
  <g>
    <path fill="#e0e0e0" d="M106.5,16h-52c-3.3000031,0-6,2.7000122-6,6v116c0,3.2999878,2.6999969,6,6,6h52
      c3.3000031,0,6-2.7000122,6-6V22C112.5,18.7000122,109.8000031,16,106.5,16z"/>
    <path fill="#eeeeee" d="M106.5,17h-52c-2.8000031,0-5,2.2000122-5,5v116c0,2.7999878,2.1999969,5,5,5h52
      c2.8000031,0,5-2.2000122,5-5V22C111.5,19.2000122,109.3000031,17,106.5,17z"/>
    <rect x="52.5" y="32" fill="#383838" width="56" height="96"/>
  </g>
  <g>
    <path fill="#383838" d="M85,26h-9c-0.3000031,0-0.5-0.2000122-0.5-0.5l0,0c0-0.2999878,0.1999969-0.5,0.5-0.5h9
      c0.3000031,0,0.5,0.2000122,0.5,0.5l0,0C85.5,25.7999878,85.3000031,26,85,26z"/>
    <circle fill="#2b2b2b" cx="80.5" cy="21" r="0.5"/>
    <circle fill="#383838" cx="80.5" cy="21" r="0.2000122"/>
    <circle fill="#2b2b2b" cx="70.5" cy="25.5" r="1"/>
    <circle fill="#383838" cx="70.5" cy="25.5" r="0.3999939"/>
  </g>
  <g>
    <circle fill="#ffffff" cx="80.5" cy="135" r="5"/>
    <path fill="#383838" d="M84,131.5l-7.1000061,7.1000061c-2-2-2-5.1000061,0-7.1000061S82.1000061,129.5,84,131.5z"/>
    <circle fill="#e0e0e0" cx="80.5" cy="135" r="4.3999939"/>
  </g>
</svg>
