<svg xmlns="http://www.w3.org/2000/svg" width="160px" height="160px" viewBox="0 0 160 160"
  aria-role="img" aria-labelledby="title" aria-describedby="desc">
  <title id="title">Microphone</title>
  <desc id="desc">A studio microphone</desc>
  <path fill="#cccccc" d="M88,24H72c-4.3999939,0-8,3.6000061-8,8v33h32V32C96,27.6000061,92.4000015,24,88,24z"/>
  <path fill="#888888" d="M88,25H72c-3.3000031,0-6,2.7000122-6,6l1,31h26l1-31C94,27.7000122,91.3000031,25,88,25z"/>
  <path fill="#777777" d="M94,31c-3.3000031,0-6,13.8999939-6,31h5L94,31z"/>
  <path fill="#777777" d="M66,31l1,31h5C72,44.8999939,69.3000031,31,66,31z"/>
  <circle fill="#444444" cx="69" cy="87" r="9"/>
  <rect x="79.5" y="72" fill="#bbbbbb" width="1" height="59"/>
  <polygon fill="#191919" points="79,132 80,131 51,72 50,73 "/>
  <polygon fill="#191919" points="81,132 80,131 109,72 110,73 "/>
  <path fill="#cccccc" d="M93,110H67c-1.6999969,0-3-1.2999878-3-3V68h32v39C96,108.7000122,94.6999969,110,93,110z"/>
  <rect x="77" y="110" fill="#444444" width="6" height="3"/>
  <rect x="64" y="64" fill="#e0e0e0" width="32" height="42"/>
  <path fill="#e0e0e0" d="M98.3000031,73.7999878l-1.6999969,0.8999939c-0.4000015,0.2000122-0.9000015,0.2999878-1.3000031,0.2999878
    H64.6999969c-0.5,0-0.8999939-0.1000061-1.3000031-0.2999878l-1.6999969-0.8999939c-1-0.5-1.6999969-1.5-1.6999969-2.7000122
    v-5.2999878c0-1.1000061,0.6000061-2.2000122,1.6999969-2.7000122l1.6999969-0.8999939
    c0.3999939-0.2000122,0.8999939-0.2999878,1.3000031-0.2999878h30.5999985c0.5,0,0.9000015,0.1000061,1.3000031,0.2999878
    l1.6999969,0.8999939c1,0.5,1.6999969,1.5,1.6999969,2.7000122v5.2999878
    C100,72.2999878,99.4000015,73.2999878,98.3000031,73.7999878z"/>
  <path fill="#cccccc" d="M98.3000031,73.7999878l-1.6999969,0.8999939c-0.4000015,0.2000122-0.9000015,0.2999878-1.3000031,0.2999878
    H64.6999969c-0.5,0-0.8999939-0.1000061-1.3000031-0.2999878l-1.6999969-0.8999939c-1-0.5-1.6999969-1.5-1.6999969-2.7000122h40
    C100,72.2999878,99.4000015,73.2999878,98.3000031,73.7999878z"/>
  <rect x="78" y="113" fill="#444444" width="4" height="4"/>
  <path fill="#bbbbbb" d="M47,106L47,106c0-0.6000061,0.3999939-1,1-1h63c0.5999985,0,1,0.3999939,1,1l0,0
    c0,0.6000061-0.4000015,1-1,1H48C47.3999939,107,47,106.6000061,47,106z"/>
  <rect x="79.3019257" y="60.3041573" transform="matrix(0.7071068 -0.7071068 0.7071068 0.7071068 -48.6955261 86.446106)" fill="#191919" width="1.3999804" height="83.3991928"/>
  <circle fill="#bbbbbb" cx="51" cy="73" r="2"/>
  <circle fill="#bbbbbb" cx="109" cy="131" r="2"/>
  <rect x="79.3038406" y="60.2984772" transform="matrix(-0.7071068 -0.7071068 0.7071068 -0.7071068 64.4515533 230.6928558)" fill="#191919" width="1.3999804" height="83.3991928"/>
  <rect x="50" y="72" fill="#bbbbbb" width="2" height="59"/>
  <circle fill="#bbbbbb" cx="51" cy="131" r="2"/>
  <circle fill="#bbbbbb" cx="80" cy="131" r="1.5"/>
  <circle fill="#bbbbbb" cx="109" cy="73" r="2"/>
  <circle fill="#bbbbbb" cx="80" cy="80" r="4"/>
  <circle fill="#999999" cx="80" cy="80" r="3"/>
  <circle fill="#bbbbbb" cx="80" cy="80" r="2"/>
  <circle fill="#ffffff" cx="80" cy="80" r="2"/>
  <circle fill="#999999" cx="80" cy="90" r="2"/>
  <rect x="79.8000031" y="78" fill="#191919" width="0.5" height="2"/>
  <rect x="108" y="72" fill="#bbbbbb" width="2" height="59"/>
  <circle fill="#191919" cx="80" cy="90" r="1"/>
</svg>
