<?xml version="1.0" encoding="utf-8"?>
<!DOCTYPE svg PUBLIC "-//W3C//DTD SVG 1.1//EN" "http://www.w3.org/Graphics/SVG/1.1/DTD/svg11.dtd">
<svg version="1.1" xmlns="http://www.w3.org/2000/svg" xmlns:xlink="http://www.w3.org/1999/xlink" x="0px" y="0px" width="160px"
  height="160px" viewBox="0 0 160 160" enable-background="new 0 0 160 160" xml:space="preserve">
  <path fill="#577D3D" d="M75.07831,89.25035c0,0-8.52623-0.14197-10.46239,4.92183
    c-1.93616,5.06379-3.58201,15.63818-3.50373,16.08498c0.07822,0.44681-0.81539,8.19143-2.90048,8.4893
    c-2.08509,0.29787-4.98116,2.82977-6.43739-6.99995c-1.45617-9.82971,8.52248-15.63818,8.67142-16.23392
    c0.14894-0.59574,7.64573-6.26225,7.64573-6.26225s2.63079-1.63132,4.26907-1.78025s3.42551,0,3.42551,0L75.07831,89.25035z"/>
  <path fill="#577D3D" d="M27.11484,94.88892c0,0,10.23929,10.04031,26.04386,1.149
    c7.41732-4.17304,14.13805-11.06367,13.11325-13.7177c-2.82977-7.3316-0.08847-14.09998-0.08847-14.09998
    s-7.86853-0.32581-12.08929-3.59422c-3.54537-2.74601-16.12776,3.05376-21.32971,8.99312
    C22.85768,84.93064,27.11484,94.88892,27.11484,94.88892z"/>
  <path fill="#577D3D" d="M57.91384,14.37033c0,0-12.36161,7.27047-7.89356,24.84481
    c2.0973,8.24904,6.99995,16.53179,9.82971,16.23392c7.81588-0.82265,13.63572,3.58725,13.63572,3.58725
    s2.36401-7.51192,6.61945-10.73613c3.57445-2.70818,1.25201-16.3666-3.12763-22.936
    C68.63717,12.85363,57.91384,14.37033,57.91384,14.37033z"/>
  <path fill="#577D3D" d="M88.59447,69.69214c0,0,9.21532-0.44681,11.46799,0.79936c2.25262,1.24617,2.21074,5.70142,6.10634,8.63824
    c6.15406,4.63908,14.06853,7.64454,18.91476,3.00313c4.84622-4.64142,1.93616-12.23711,0-14.62006
    c-1.93616-2.38297-3.0322-7.29782-12.7607-10.42546s-19.40928,0.32289-21.79224,1.94896
    c-2.38297,1.62548-8.49627,4.12014-9.46089,5.70261"/>
  <path fill="#577D3D" d="M109.15334,106.96665c0,0,8.54453-11.51804-2.42663-25.95605
    c-5.14928-6.77595-12.8951-12.49017-15.38392-11.11192c-6.87544,3.80654-13.95451,2.01819-13.95451,2.01819
    s0.75397,7.83887-1.90625,12.46688c-2.23456,3.88863,5.2334,15.55793,11.82902,19.89796
    C99.87165,112.54707,109.15334,106.96665,109.15334,106.96665z"/>
  <linearGradient id="SVGID_1_" gradientUnits="userSpaceOnUse" x1="95.8517" y1="91.07671" x2="98.96121" y2="88.27689">
    <stop  offset="0" style="stop-color:#608A47"/>
    <stop  offset="0.39709" style="stop-color:#5B8341"/>
    <stop  offset="1" style="stop-color:#577D3D"/>
  </linearGradient>
  <path fill="url(#SVGID_1_)" d="M105.87093,102.20419c0,0-5.88818-18.70529-18.76582-23.40086"/>
  <linearGradient id="SVGID_2_" gradientUnits="userSpaceOnUse" x1="62.72516" y1="36.80643" x2="69.78764" y2="33.05125">
    <stop  offset="0" style="stop-color:#608A47"/>
    <stop  offset="0.39709" style="stop-color:#5B8341"/>
    <stop  offset="1" style="stop-color:#577D3D"/>
  </linearGradient>
  <path fill="url(#SVGID_2_)" d="M71.31799,52.96721c0,0,0.06863-29.4397-12.70892-34.70187"/>
    <linearGradient id="SVGID_3_" gradientUnits="userSpaceOnUse" x1="-622.61243" y1="1640.24817" x2="-627.87646" y2="1642.51001" gradientTransform="matrix(-0.2546 -0.9671 0.9671 -0.2546 -1701.78711 -108.0585)">
    <stop  offset="0" style="stop-color:#608A47"/>
    <stop  offset="0.39709" style="stop-color:#5B8341"/>
    <stop  offset="1" style="stop-color:#577D3D"/>
  </linearGradient>
  <path fill="url(#SVGID_3_)" d="M61.48828,69.30002c0,0-25.90511,6.51764-31.57423,21.20407"/>
  <path fill="#577D3D" d="M74.39619,83.49889c0,0,1.48905,20.94981,1.38986,22.43916s4.07129,4.17018,4.07129,4.17018
    s-2.08569-15.58814-1.68833-20.45355C78.56637,84.78927,74.39619,83.49889,74.39619,83.49889z"/>
  <path fill="#577D3D" d="M84.27534,55.15119c0,0-0.49684,3.00372-1.63828,3.88512c-1.14144,0.8808-5.36166,4.45584-5.98212,4.65422
    c-0.62047,0.19838-2.55692-3.12823-2.35824-7.04999s-2.97871-3.67334-2.97871-3.67334v4.76128c0,0,2.73028,5.86256,1.93616,7.0046
    c-0.79412,1.14143-5.5103,2.53189-6.45365,2.4324s-4.17018-0.34731-4.61699-0.49625
    c-0.4468-0.14894,2.08509,5.60949,2.08509,5.60949s2.23463-2.5319,3.82287-2.92866
    c1.58824-0.39736,5.01405-1.78722,5.41111-1.88671c0.39706-0.09949,5.99636-3.27717,6.52288-3.82287
    c0.52651-0.5457,5.88818-4.36916,9.76048-3.27657C93.65826,61.4565,84.27534,55.15119,84.27534,55.15119z"/>
  <path fill="#608A47" d="M63.07682,29.98116c0,0-11.92035,9.68197-9.19531,20.25517
    c2.12441,8.24207,5.85821,11.95323,8.3017,10.74251c7.04183-3.49009,11.17013,0.2153,11.17013,0.2153
    s0.68362-5.0016,5.65924-6.93656c2.68083-1.04255,5.36166-9.68078,0.74467-16.08499
    C75.14056,31.76838,63.07682,29.98116,63.07682,29.98116z"/>
  <path fill="#608A47" d="M34.66424,80.66448c0,0,11.0564,12.65597,22.51249,9.26132
    c8.93056-2.64652,12.84333-6.87604,11.4232-9.49986c-4.0928-7.56429-0.20273-12.22489-0.20273-12.22489
    s-5.49725-0.55154-7.80837-5.91725c-1.24527-2.89148-10.79779-5.48385-17.62057-0.18385
    C36.14549,67.40051,34.66424,80.66448,34.66424,80.66448z"/>
  <path fill="#608A47" d="M110.96266,34.92628c0,0-15.66731-6.3152-23.3252-0.40612
    c-7.8907,6.08775-8.0565,12.96492-6.16573,15.28682c3.80488,4.67168,1.33231,11.15792,1.33231,11.15792
    s5.55421-1.75291,10.61216,1.39338c2.94439,1.83143,12.20803,1.00585,16.79482-6.81032
    C114.79774,47.73238,110.96266,34.92628,110.96266,34.92628z"/>
  <path fill="#608A47" d="M85.13637,90.50409c0,0,8.79766-9.27532,6.76607-16.3078c-2.09439-7.24551-6.88825-9.2724-9.04894-8.58646
    c-4.34503,1.38051-8.22401-2.16248-8.22401-2.16248s-0.30949,4.39704-3.92902,7.08371
    c-2.10719,1.56382-4.10007,8.31475,0.12766,13.71424C75.05621,89.64592,85.13637,90.50409,85.13637,90.50409z"/>
  <path fill="#608A47" d="M84.4499,145.68745c0,0,16.48872-11.69844,15.48925-23.22983
    c-1.03212-11.88341-7.85055-16.49628-11.41218-16.09255c-7.16402,0.81217-12.09806-5.87132-12.09806-5.87132
    s-1.82588,6.7271-8.26357,9.78724c-3.7481,1.78257-8.90584,11.64487-3.99885,21.31695
    C69.07349,141.2717,84.4499,145.68745,84.4499,145.68745z"/>
  <linearGradient id="SVGID_4_" gradientUnits="userSpaceOnUse" x1="63.70777" y1="45.88174" x2="73.00603" y2="45.88174">
    <stop  offset="0" style="stop-color:#608A47"/>
    <stop  offset="1" style="stop-color:#4B7E47"/>
  </linearGradient>
  <path fill="url(#SVGID_4_)" d="M63.70777,31.9953c0,0,4.16172,20.5251,9.29826,27.77287"/>
  <linearGradient id="SVGID_5_" gradientUnits="userSpaceOnUse" x1="-424.64117" y1="1505.91565" x2="-415.34164" y2="1505.91565" gradientTransform="matrix(-0.0665 -0.9978 0.9978 -0.0665 -1477.84241 -244.85809)">
    <stop  offset="0" style="stop-color:#608A47"/>
    <stop  offset="1" style="stop-color:#4B7E47"/>
  </linearGradient>
  <path fill="url(#SVGID_5_)" d="M39.14308,79.62891c0,0,20.20251-5.51817,27.09307-11.12592"/>
  <linearGradient id="SVGID_6_" gradientUnits="userSpaceOnUse" x1="-811.52966" y1="-403.48248" x2="-803.62762" y2="-403.48248" gradientTransform="matrix(0.4759 0.8795 -0.8795 0.4759 126.4487 949.86853)">
    <stop  offset="0" style="stop-color:#608A47"/>
    <stop  offset="1" style="stop-color:#4B7E47"/>
  </linearGradient>
  <path fill="url(#SVGID_6_)" d="M108.45287,36.88806c0,0-15.58874,10.17119-22.936,21.39542"/>
  <linearGradient id="SVGID_7_" gradientUnits="userSpaceOnUse" x1="-1831.18079" y1="954.20575" x2="-1825.3175" y2="954.20575" gradientTransform="matrix(-0.99 0.1411 -0.1411 -0.99 -1595.20251 1280.17725)">
    <stop  offset="0" style="stop-color:#608A47"/>
    <stop  offset="1" style="stop-color:#4B7E47"/>
  </linearGradient>
  <path fill="url(#SVGID_7_)" d="M84.72215,89.25035c0,0-1.58711-16.97163-9.22498-23.40086"/>
  <linearGradient id="SVGID_8_" gradientUnits="userSpaceOnUse" x1="-1826.04248" y1="909.21503" x2="-1821.48108" y2="909.21503" gradientTransform="matrix(-0.99 0.1411 -0.1411 -0.99 -1595.20251 1280.17725)">
    <stop  offset="0" style="stop-color:#608A47"/>
    <stop  offset="1" style="stop-color:#4B7E47"/>
  </linearGradient>
  <path fill="url(#SVGID_8_)" d="M84.72215,141.28571c0,0,2.18458-29.58864-7.59539-36.81258"/>
  <linearGradient id="SVGID_9_" gradientUnits="userSpaceOnUse" x1="105.94176" y1="72.58102" x2="108.1685" y2="68.01553">
    <stop  offset="0" style="stop-color:#608A47"/>
    <stop  offset="1" style="stop-color:#577D3D"/>
  </linearGradient>
  <path fill="url(#SVGID_9_)" d="M106.66565,69.69214c-3.37433-2.48186-15.39035-4.26443-15.39035-4.26443
    c20.55304-1.98036,29.78701,13.37562,29.78701,13.37562"/>

</svg>
