<?xml version="1.0" encoding="utf-8"?>
<!DOCTYPE svg PUBLIC "-//W3C//DTD SVG 1.1//EN" "http://www.w3.org/Graphics/SVG/1.1/DTD/svg11.dtd">
<svg version="1.1" xmlns="http://www.w3.org/2000/svg" xmlns:xlink="http://www.w3.org/1999/xlink" x="0px" y="0px" width="160px"
  height="160px" viewBox="0 0 160 160" enable-background="new 0 0 160 160" xml:space="preserve">
  <path fill="#F09A36" d="M90.99708,74.70656c-10.66157,4.95573-32.66823,13.68346-55.27349,21.59989
    c-6.06515,2.14427-11.90407,4.14376-17.14994,5.86771c-3.47848,1.15762-6.48726,2.12568-9.06612,2.92398
    c-0.00226,0.00168-0.00567,0.00284-0.00904,0.00336c0.00453,0.00174,0.00904,0.00342,0.01246,0.00626
    c3.45015,1.5338,7.27028,2.74797,11.4933,3.58311c6.48271,1.59435,13.26301,2.1211,19.95735,1.66056
    C66.29279,109.74548,85.54066,93.62123,90.99708,74.70656z"/>
  <linearGradient id="SVGID_1_" gradientUnits="userSpaceOnUse" x1="1096.37573" y1="3575.8562" x2="1052.42273" y2="3588.70703" gradientTransform="matrix(0.6485 0.7612 -0.7612 0.6485 2083.86157 -3046.14478)">
    <stop  offset="0" style="stop-color:#DDA96E"/>
    <stop  offset="0.15788" style="stop-color:#D2915E"/>
    <stop  offset="0.48912" style="stop-color:#B55533"/>
    <stop  offset="0.5" style="stop-color:#B45332"/>
    <stop  offset="1" style="stop-color:#EA892B"/>
  </linearGradient>
  <path fill="url(#SVGID_1_)" d="M77.27348,114.9501c6.0301-7.57358,11.65627-13.32871,11.34052-22.60416
    c-0.11993-1.56717-0.15614-3.07101-0.14368-4.52168c0.02033-3.40606,4.17771-7.4621,3.01338-9.8401
    c-0.09167-0.19241-0.55904-1.10217-0.93018-1.86311c-5.98937,18.29679-24.89669,33.64139-49.59193,34.23036
    c-6.69434,0.46054-13.47464-0.06622-19.95735-1.66056c-4.22302-0.83514-8.04431-2.05042-11.4933-3.58479
    c0.17427,0.40561,0.33042,0.81586,0.51824,1.21921c0.7457,1.56387,4.33049,5.18655,5.7472,6.30338
    c2.408,1.89764,6.26098,2.87647,9.05367,4.14208c4.96414,2.25012,6.46914,2.623,11.35408,4.25019
    c4.64398,1.54684,8.10544,1.75448,13.01412,1.9638C59.85872,123.44759,69.86288,121.76095,77.27348,114.9501z"/>
  <linearGradient id="SVGID_2_" gradientUnits="userSpaceOnUse" x1="1094.1355" y1="3569.84326" x2="1070.77148" y2="3576.67432" gradientTransform="matrix(0.6485 0.7612 -0.7612 0.6485 2083.86157 -3046.14478)">
    <stop  offset="0" style="stop-color:#EA892B"/>
    <stop  offset="0.058" style="stop-color:#E98F37"/>
    <stop  offset="0.34832" style="stop-color:#E6AA6E"/>
    <stop  offset="0.70786" style="stop-color:#EAAC69"/>
    <stop  offset="1" style="stop-color:#F09A36"/>
  </linearGradient>
  <path fill="url(#SVGID_2_)" d="M80.56065,102.11703c2.89454-3.64423,5.79134-7.28558,7.98434-11.1301
    c-0.05659-1.08682-0.07358-2.14485-0.07468-3.16267c0.02033-3.40606,4.17771-7.4621,3.01338-9.8401
    c-0.09167-0.19241-0.55904-1.10217-0.93018-1.86311c-5.98937,18.29679-24.89669,33.64139-49.59193,34.23036
    c-1.71317,0.1171-3.43428,0.16917-5.15312,0.15556c4.59301,2.69542,10.5337,2.96128,16.4733,3.22327
    C62.9445,114.18233,73.13876,108.93014,80.56065,102.11703z"/>
  <path fill="#865936" d="M89.93681,77.88458c0.80112,0.38927,1.73697,0.61673,1.73697,0.61673
    c0.97767-1.10612,0.2829-2.72995-0.69701-3.7772C90.67009,75.78724,90.33058,76.84243,89.93681,77.88458z"/>
  <linearGradient id="SVGID_3_" gradientUnits="userSpaceOnUse" x1="-1382.29358" y1="1940.52087" x2="-1380.07202" y2="1943.0293" gradientTransform="matrix(0.6732 0.5581 -0.6275 0.9652 2183.43921 -1001.52039)">
    <stop  offset="0" style="stop-color:#F1E2C5"/>
    <stop  offset="0.5" style="stop-color:#E7CF9B"/>
    <stop  offset="0.54321" style="stop-color:#E6CE98"/>
    <stop  offset="1" style="stop-color:#E1C281"/>
  </linearGradient>
  <path fill="url(#SVGID_3_)" d="M35.61044,103.10716c-0.81018,1.183-2.23255,0.75867-1.92817-0.62015
    c0.59066-1.48345,1.66902-2.1211,2.74744-2.75591c0.44693-0.26308,0.27497,0.84813-0.01019,1.49139
    C36.17508,101.97161,35.82428,102.75862,35.61044,103.10716z"/>
  <linearGradient id="SVGID_4_" gradientUnits="userSpaceOnUse" x1="-1627.75964" y1="-734.58307" x2="-1625.91064" y2="-732.49542" gradientTransform="matrix(0.8741 -0.027 0.1682 1.1389 1594.49731 892.40869)">
    <stop  offset="0" style="stop-color:#F1E2C5"/>
    <stop  offset="0.5" style="stop-color:#E7CF9B"/>
    <stop  offset="0.54321" style="stop-color:#E6CE98"/>
    <stop  offset="1" style="stop-color:#E1C281"/>
  </linearGradient>
  <path fill="url(#SVGID_4_)" d="M50.07522,101.44828c0.14484,1.18473-0.97541,1.70245-1.54573,0.67495
    c-0.44808-1.25205-0.12671-2.24276,0.19802-3.23399c0.13354-0.41019,0.63823,0.37965,0.81586,0.93636
    C49.80251,100.42814,50.01635,101.11219,50.07522,101.44828z"/>
  <linearGradient id="SVGID_5_" gradientUnits="userSpaceOnUse" x1="3315.95605" y1="-3897.96997" x2="3317.65063" y2="-3896.05688" gradientTransform="matrix(0.2112 -0.8486 1.1418 0.1472 3822.08179 3475.52734)">
    <stop  offset="0" style="stop-color:#F1E2C5"/>
    <stop  offset="0.5" style="stop-color:#E7CF9B"/>
    <stop  offset="0.54321" style="stop-color:#E6CE98"/>
    <stop  offset="1" style="stop-color:#E1C281"/>
  </linearGradient>
  <path fill="url(#SVGID_5_)" d="M73.70224,86.52238c1.08068,0.16634,1.25947,1.28316,0.21048,1.52986
    c-1.21526,0.0843-2.00851-0.44524-2.80173-0.97652c-0.32816-0.22125,0.49223-0.46905,1.02859-0.48718
    C72.73476,86.50877,73.39222,86.49011,73.70224,86.52238z"/>
  <linearGradient id="SVGID_6_" gradientUnits="userSpaceOnUse" x1="289.11292" y1="-2926.66431" x2="290.80679" y2="-2924.75195" gradientTransform="matrix(0.6744 -0.5567 0.8305 0.7972 2296.75537 2589.26465)">
    <stop  offset="0" style="stop-color:#F1E2C5"/>
    <stop  offset="0.5" style="stop-color:#E7CF9B"/>
    <stop  offset="0.54321" style="stop-color:#E6CE98"/>
    <stop  offset="1" style="stop-color:#E1C281"/>
  </linearGradient>
  <path fill="url(#SVGID_6_)" d="M63.51482,95.31517c0.76945,0.77686,0.25005,1.78113-0.74007,1.35506
    c-1.02744-0.65405-1.35107-1.55135-1.67128-2.45099c-0.13469-0.37282,0.67438-0.0843,1.11568,0.2201
    C62.74421,94.73019,63.2851,95.10416,63.51482,95.31517z"/>
  <path fill="none" d="M59.19111,103.18068c-1.83993-1.50668-3.64366-3.09818-5.40891-4.69143
    c-1.18924-1.07442-2.47584-2.06907-3.63798-3.16951c-0.45034-0.42722-0.91765-1.23061-1.52082-1.44839
    c-1.48797-0.53354-1.94289,1.11457-2.16239,2.116c-0.30893,1.41051-0.82381,2.73215-1.22212,4.11716
    c-0.58838,2.05267-1.1768,4.10309-1.78217,6.15067c-0.38023,1.28995,0.78642,1.4823,1.40877,1.41387
    c5.04224-0.55618,9.81066-1.71548,14.24184-3.37431C59.42308,104.17701,60.13141,103.95013,59.19111,103.18068z"/>
  <path fill="none" d="M70.09033,92.45121c-4.70053,0.08262-9.40105,0.1697-14.10042,0.25173
    c-1.5163,0.0255-3.03938-0.12896-4.56588-0.06448c-2.92624,0.12392-1.64075,1.26173-0.00562,2.69367
    c2.73609,2.39722,5.47109,4.79502,8.20606,7.19341c1.0388,0.91029,1.77882,0.85937,2.26317,0.64836
    c1.3284-0.57878,2.63422-1.20907,3.91629-1.88802c0.98787-0.52391,1.96218-1.07668,2.9172-1.65714
    c1.89764-1.15252,3.63456-2.49797,5.45417-3.76022c1.26166-0.87524,2.71799-1.59098,3.09818-3.26
    C74.92661,91.60251,72.53564,92.40823,70.09033,92.45121z"/>
  <path fill="none" d="M47.73402,92.0116c1.00937-0.0215,2.01982-0.04073,3.03035-0.06171
    c2.18164-0.04524,4.3633-0.08881,6.54492-0.13464c2.68864-0.05544,5.37606-0.10921,8.06464-0.16518
    c2.54037-0.05376,5.0796-0.10184,7.61882-0.15619c1.02182-0.02208,2.05494-0.09166,3.07559-0.05487
    c1.49371,0.05487,2.80741-0.01414,4.0046-1.01446c1.01504-0.84755,1.73246-1.99381,2.54832-3.02067
    c1.47443-1.85807,2.81986-3.82077,4.0046-5.87565c0.58505-1.01278,1.12929-2.04758,1.63513-3.10108
    c0.25005-0.52218,0.49107-1.04951,0.72078-1.58189c0.10637-0.24786,0.38927-1.39296,0.61105-1.49481
    c-9.03554,4.10193-24.68621,10.37756-41.87242,16.66114H47.73402z"/>
  <linearGradient id="SVGID_7_" gradientUnits="userSpaceOnUse" x1="9.51094" y1="92.60902" x2="90.99708" y2="92.60902">
    <stop  offset="0" style="stop-color:#F1E2C5"/>
    <stop  offset="0.5" style="stop-color:#E7CF9B"/>
    <stop  offset="0.54321" style="stop-color:#E6CE98"/>
    <stop  offset="1" style="stop-color:#E1C281"/>
  </linearGradient>
  <path fill="url(#SVGID_7_)" d="M89.59283,75.35046c-0.22178,0.10185-0.50468,1.24696-0.61105,1.49481
    c-0.22971,0.53237-0.47073,1.05971-0.72078,1.58189c-0.50584,1.0535-1.05008,2.0883-1.63513,3.10108
    c-1.18474,2.05488-2.53017,4.01758-4.0046,5.87565c-0.81586,1.02686-1.53328,2.17312-2.54832,3.02067
    c-1.19719,1.00032-2.51089,1.06933-4.0046,1.01446c-1.02065-0.03679-2.05377,0.03279-3.07559,0.05487
    c-2.53922,0.05434-5.07845,0.10242-7.61882,0.15619c-2.68858,0.05597-5.376,0.10973-8.06464,0.16518
    c-2.18163,0.04583-4.36328,0.0894-6.54492,0.13464c-1.01052,0.02097-2.02098,0.04021-3.03035,0.06171h-0.01361
    c-0.78075,0.28574-1.56491,0.57084-2.35249,0.85658c0.12904,0.04977,0.25689,0.10295,0.3621,0.17711
    c1.03763,0.73324,0.30775,1.9627-0.02602,2.91488c-0.84303,2.40684-1.45744,4.89971-2.19073,7.34218
    c-0.31116,1.03874-0.40961,2.11942-0.82037,3.1293c-0.51598,1.27077-1.61248,1.50443-2.85608,1.5944
    c-6.78599,0.4939-13.6568,0.00169-20.21766-1.56155c-2.78701-0.53411-5.38284-1.2425-7.83151-2.08263
    c-0.791,0.25115-1.55703,0.49222-2.27671,0.72472c3.45015,1.53496,7.27028,2.74913,11.4933,3.58427
    c6.48271,1.59377,13.26301,2.1211,19.95735,1.66056c25.33121-0.60595,44.57908-16.73019,50.03549-35.64487
    C90.55126,74.9142,90.07827,75.12978,89.59283,75.35046z M59.10733,104.29473c-4.43118,1.65883-9.19961,2.81813-14.24184,3.37431
    c-0.62235,0.06843-1.78901-0.12392-1.40877-1.41387c0.60537-2.04758,1.19379-4.09799,1.78217-6.15067
    c0.39831-1.38502,0.91319-2.70666,1.22212-4.11716c0.21951-1.00143,0.67442-2.64954,2.16239-2.116
    c0.60317,0.21778,1.07048,1.02118,1.52082,1.44839c1.16214,1.10044,2.44874,2.09509,3.63798,3.16951
    c1.76525,1.59325,3.56898,3.18475,5.40891,4.69143C60.13141,103.95013,59.42308,104.17701,59.10733,104.29473z M74.1753,95.86852
    c-1.81961,1.26225-3.55653,2.6077-5.45417,3.76022c-0.95502,0.58046-1.92933,1.13323-2.9172,1.65714
    c-1.28207,0.67896-2.58789,1.30924-3.91629,1.88802c-0.48435,0.21101-1.22438,0.26192-2.26317-0.64836
    c-2.73497-2.39838-5.46997-4.79618-8.20606-7.19341c-1.63513-1.43195-2.92062-2.56975,0.00562-2.69367
    c1.5265-0.06448,3.04958,0.08997,4.56588,0.06448c4.69937-0.08203,9.39989-0.16911,14.10042-0.25173
    c2.4453-0.04298,4.83627-0.8487,7.18314,0.1573C76.8933,94.27753,75.43696,94.99327,74.1753,95.86852z"/>
  <path fill="#F09A36" d="M89.59283,75.35046c0.48544-0.22068,0.95844-0.43626,1.40425-0.6439
    c-0.44582,0.20764-0.91881,0.42322-1.40315,0.64274L89.59283,75.35046z"/>
  <path fill="#F09A36" d="M99.65835,38.16628c0.44473,12.19234,0.13055,34.87902-1.08134,57.79105
    c-0.32079,6.42505-0.68909,12.58638-1.0874,18.09315c-0.25121,3.65721-0.49906,6.80864-0.74065,9.49722
    c0.00116,0.00284,0.00116,0.0062,0,0.0102c0.00342-0.004,0.00684-0.00736,0.01077-0.00962
    c2.7299-2.60828,5.30422-5.68104,7.68105-9.27035c3.93786-5.39078,7.00042-11.46271,9.11817-17.83006
    c8.83481-23.06712,1.83104-46.38909-12.81503-58.88089C100.36611,37.24476,99.63882,37.63104,99.65835,38.16628z"/>
  <linearGradient id="SVGID_8_" gradientUnits="userSpaceOnUse" x1="91.13526" y1="-128.32924" x2="47.79533" y2="-115.65773" gradientTransform="matrix(0.9505 -0.3107 0.3107 0.9505 75.5551 216.4693)">
    <stop  offset="0" style="stop-color:#DDA96E"/>
    <stop  offset="0.15788" style="stop-color:#D2915E"/>
    <stop  offset="0.48912" style="stop-color:#B55533"/>
    <stop  offset="0.5" style="stop-color:#B45332"/>
    <stop  offset="1" style="stop-color:#EA892B"/>
  </linearGradient>
  <path fill="url(#SVGID_8_)" d="M129.04947,63.50977c-5.09258-8.23439-5.34327-14.74994-14.04271-17.98167
    c-1.49591-0.48486-2.90018-1.02298-4.23717-1.58536c-3.14291-1.3126-5.31551-6.69938-7.95769-6.52568
    c-0.21275,0.01188-1.23172,0.09843-2.07753,0.15272c14.65036,12.49136,21.6615,35.81063,12.82457,58.87811
    c-2.11775,6.36735-5.18031,12.43928-9.11817,17.83006c-2.37682,3.58931-4.95284,6.66206-7.68272,9.26977
    c0.44188-0.00735,0.88034,0.00394,1.32506-0.0164c1.72956-0.09507,6.44254-2.03512,8.01429-2.92113
    c2.66993-1.50668,5.0394-4.69937,7.27087-6.80181c3.96729-3.73699,4.33843-5.52489,7.51981-9.57365
    c3.02299-3.8484,4.38819-7.03604,6.24284-11.58547C131.16663,82.77068,132.95732,72.78516,129.04947,63.50977z"/>
  <linearGradient id="SVGID_9_" gradientUnits="userSpaceOnUse" x1="89.62147" y1="-134.55475" x2="66.25729" y2="-127.72366" gradientTransform="matrix(0.9505 -0.3107 0.3107 0.9505 75.5551 216.4693)">
    <stop  offset="0" style="stop-color:#EA892B"/>
    <stop  offset="0.058" style="stop-color:#E98F37"/>
    <stop  offset="0.34832" style="stop-color:#E6AA6E"/>
    <stop  offset="0.70786" style="stop-color:#EAAC69"/>
    <stop  offset="1" style="stop-color:#F09A36"/>
  </linearGradient>
  <path fill="url(#SVGID_9_)" d="M120.98541,56.68983c-2.2711-4.0623-4.53929-8.12576-7.26183-11.61438
    c-1.02693-0.36094-2.01254-0.7468-2.954-1.13271c-3.14291-1.3126-5.31551-6.69938-7.95769-6.52568
    c-0.21275,0.01188-1.23172,0.09843-2.07753,0.15272c14.65036,12.49136,21.6615,35.81063,12.82457,58.87811
    c-0.54315,1.62887-1.14854,3.24135-1.81446,4.82555c4.23885-3.22437,6.74128-8.61857,9.24036-14.01329
    C125.4539,77.56831,124.46835,66.14291,120.98541,56.68983z"/>
  <linearGradient id="SVGID_10_" gradientUnits="userSpaceOnUse" x1="-1276.98877" y1="-1401.63245" x2="-1274.76721" y2="-1399.12415" gradientTransform="matrix(0.772 -0.4107 0.6545 0.9471 2005.01062 900.87451)">
    <stop  offset="0" style="stop-color:#F1E2C5"/>
    <stop  offset="0.5" style="stop-color:#E7CF9B"/>
    <stop  offset="0.54321" style="stop-color:#E6CE98"/>
    <stop  offset="1" style="stop-color:#E1C281"/>
  </linearGradient>
  <path fill="url(#SVGID_10_)" d="M104.82438,98.64597c0.78699,1.19888-0.14596,2.35307-1.30584,1.54794
    c-1.14794-1.11005-1.32789-2.34966-1.50552-3.58815c-0.07358-0.51372,0.88885,0.06732,1.3754,0.57536
    C103.98869,97.69205,104.58337,98.3155,104.82438,98.64597z"/>
  <linearGradient id="SVGID_11_" gradientUnits="userSpaceOnUse" x1="1374.64331" y1="-3444.1001" x2="1376.49231" y2="-3442.01245" gradientTransform="matrix(0.3071 -0.8188 1.1174 0.2771 3532.74683 2165.71729)">
    <stop  offset="0" style="stop-color:#F1E2C5"/>
    <stop  offset="0.5" style="stop-color:#E7CF9B"/>
    <stop  offset="0.54321" style="stop-color:#E6CE98"/>
    <stop  offset="1" style="stop-color:#E1C281"/>
  </linearGradient>
  <path fill="url(#SVGID_11_)" d="M108.78539,84.63494c1.15084,0.31628,1.20457,1.54967,0.03679,1.68658
    c-1.32848-0.06112-2.12225-0.73498-2.91604-1.41219c-0.32873-0.2789,0.5935-0.44582,1.17628-0.39889
    C107.73756,84.50024,108.45215,84.56194,108.78539,84.63494z"/>
  <linearGradient id="SVGID_12_" gradientUnits="userSpaceOnUse" x1="7251.77441" y1="-2726.4519" x2="7253.46875" y2="-2724.53882" gradientTransform="matrix(-0.7047 -0.5177 0.5699 -1.0003 6768.53369 1086.42126)">
    <stop  offset="0" style="stop-color:#F1E2C5"/>
    <stop  offset="0.5" style="stop-color:#E7CF9B"/>
    <stop  offset="0.54321" style="stop-color:#E6CE98"/>
    <stop  offset="1" style="stop-color:#E1C281"/>
  </linearGradient>
  <path fill="url(#SVGID_12_)" d="M103.95476,57.10905c0.56411-0.93636,1.66512-0.67721,1.4948,0.38644
    c-0.38358,1.15646-1.17512,1.68941-1.96722,2.22069c-0.32925,0.21952-0.24669-0.63307-0.05996-1.13607
    C103.57457,57.99907,103.80712,57.3835,103.95476,57.10905z"/>
  <linearGradient id="SVGID_13_" gradientUnits="userSpaceOnUse" x1="4648.11719" y1="-3854.90845" x2="4649.81104" y2="-3852.99585" gradientTransform="matrix(-0.2588 -0.8353 1.053 -0.4654 5369.33984 2160.51758)">
    <stop  offset="0" style="stop-color:#F1E2C5"/>
    <stop  offset="0.5" style="stop-color:#E7CF9B"/>
    <stop  offset="0.54321" style="stop-color:#E6CE98"/>
    <stop  offset="1" style="stop-color:#E1C281"/>
  </linearGradient>
  <path fill="url(#SVGID_13_)" d="M108.21791,69.87312c1.0111-0.41644,1.74266,0.44524,0.97205,1.19945
    c-0.99465,0.70213-1.94799,0.66024-2.9019,0.615c-0.39606-0.01756,0.17822-0.65572,0.62686-0.94882
    C107.384,70.36367,107.93507,70.00551,108.21791,69.87312z"/>
  <path fill="none" d="M113.85088,76.86108c-2.09226,1.12929-4.25014,2.19299-6.39446,3.22101
    c-1.44558,0.69135-2.85441,1.50385-4.31353,2.16073c-0.56638,0.25457-1.48745,0.38133-1.91803,0.85658
    c-1.05853,1.17344,0.29311,2.22069,1.13612,2.80457c1.187,0.82153,2.21443,1.79972,3.34378,2.69426
    c1.67528,1.32447,3.34882,2.64727,5.0128,3.98536c1.04893,0.84129,1.67018-0.16465,1.84329-0.76609
    c1.40091-4.87531,2.13982-9.72636,2.28918-14.45568C114.86134,77.02515,114.9202,76.28288,113.85088,76.86108z"/>
  <path fill="none" d="M108.06687,62.70238c-1.70923,4.37974-3.41452,8.76057-5.12426,13.13914
    c-0.5522,1.41219-1.27414,2.76274-1.79412,4.19926c-0.9969,2.75365,0.54373,1.99665,2.48997,1.02859
    c3.25665-1.62041,6.51329-3.23967,9.77111-4.8584c1.23676-0.61499,1.47099-1.3188,1.45969-1.84724
    c-0.03053-1.4484-0.11767-2.8957-0.25857-4.33958c-0.10921-1.11289-0.25063-2.22462-0.42542-3.3279
    c-0.34518-2.19357-0.92958-4.31126-1.40543-6.47424c-0.33041-1.49933-0.43904-3.11806-1.83826-4.10419
    C109.11922,57.90626,108.95573,60.42398,108.06687,62.70238z"/>
  <path fill="none" d="M99.16656,83.21591c0.36378-0.94198,0.7293-1.88402,1.09424-2.82664
    c0.787-2.03564,1.57569-4.07018,2.36211-6.10588c0.97033-2.50753,1.94121-5.01396,2.91042-7.52265
    c0.91597-2.37005,1.83536-4.73732,2.75023-7.10621c0.36777-0.95391,0.6965-1.9361,1.11799-2.86627
    c0.61783-1.36127,1.05351-2.6026,0.58278-4.08948c-0.39831-1.26109-1.18589-2.35985-1.8258-3.50501
    c-1.15814-2.07017-2.46286-4.06062-3.91351-5.93677c-0.71518-0.92559-1.46539-1.82238-2.24788-2.69084
    c-0.38754-0.42942-0.78358-0.85265-1.18925-1.26735c-0.18899-0.19235-1.14059-0.88938-1.1502-1.13271
    c0.36152,9.91593,0.22062,26.77735-0.49564,45.06226C99.16262,83.22501,99.16656,83.21649,99.16656,83.21591z"/>
  <linearGradient id="SVGID_14_" gradientUnits="userSpaceOnUse" x1="2178.18335" y1="-3073.90356" x2="2259.25757" y2="-3073.90356" gradientTransform="matrix(0.3799 -0.925 0.925 0.3799 2101.34082 3301.50806)">
    <stop  offset="0" style="stop-color:#F1E2C5"/>
    <stop  offset="0.5" style="stop-color:#E7CF9B"/>
    <stop  offset="0.54321" style="stop-color:#E6CE98"/>
    <stop  offset="1" style="stop-color:#E1C281"/>
  </linearGradient>
  <path fill="url(#SVGID_14_)" d="M99.65768,38.16611c0.00961,0.24333,0.96121,0.94036,1.1502,1.13271
    c0.40567,0.4147,0.80172,0.83793,1.18925,1.26735c0.78249,0.86846,1.5327,1.76525,2.24788,2.69084
    c1.45065,1.87614,2.75536,3.8666,3.91351,5.93677c0.63991,1.14516,1.42749,2.24392,1.8258,3.50501
    c0.47073,1.48687,0.03505,2.72821-0.58278,4.08948c-0.42149,0.93016-0.75021,1.91235-1.11799,2.86627
    c-0.91487,2.36889-1.83426,4.73616-2.75023,7.10621c-0.96921,2.50869-1.94009,5.01512-2.91042,7.52265
    c-0.78642,2.0357-1.57511,4.07024-2.36211,6.10588c-0.36494,0.94262-0.73045,1.88466-1.09424,2.82664
    c0,0-0.00394,0.0091-0.00452,0.01246c-0.03285,0.83057-0.06674,1.66456-0.10185,2.50134
    c0.09507-0.10011,0.19292-0.19861,0.30156-0.26761c1.07216-0.68121,1.93217,0.46111,2.68691,1.13155
    c1.90556,1.69399,3.97799,3.20914,5.95824,4.81594c0.84355,0.68237,1.80482,1.18421,2.58389,1.94798
    c0.97883,0.95959,0.77912,2.06287,0.38986,3.24702c-2.12111,6.4652-5.18709,12.63394-9.1255,18.10902
    c-1.55305,2.37514-3.19496,4.50755-4.90193,6.45274c-0.0679,0.82716-0.1358,1.62772-0.19518,2.38135
    c2.73158-2.6077,5.3059-5.68046,7.68272-9.26977c3.9367-5.39078,7.00042-11.46271,9.11817-17.83006
    c8.83481-23.06712,1.83104-46.38909-12.81503-58.88089C100.36611,37.24476,99.63729,37.63315,99.65768,38.16611z
     M114.85004,77.36182c-0.14936,4.72932-0.88828,9.58037-2.28918,14.45568c-0.17311,0.60144-0.79436,1.60738-1.84329,0.76609
    c-1.66398-1.33809-3.33752-2.66089-5.0128-3.98536c-1.12935-0.89454-2.15678-1.87273-3.34378-2.69426
    c-0.84301-0.58389-2.19466-1.63113-1.13612-2.80457c0.43058-0.47525,1.35165-0.60201,1.91803-0.85658
    c1.45912-0.65688,2.86795-1.46938,4.31353-2.16073c2.14432-1.02802,4.3022-2.09172,6.39446-3.22101
    C114.9202,76.28288,114.86134,77.02515,114.85004,77.36182z M112.77985,60.22202c0.47585,2.16298,1.06024,4.28067,1.40543,6.47424
    c0.1748,1.10328,0.31622,2.21501,0.42542,3.3279c0.1409,1.44389,0.22804,2.89118,0.25857,4.33958
    c0.0113,0.52843-0.22293,1.23225-1.45969,1.84724c-3.25782,1.61873-6.51447,3.23798-9.77111,4.8584
    c-1.94624,0.96806-3.48688,1.72505-2.48997-1.02859c0.51998-1.43652,1.24192-2.78707,1.79412-4.19926
    c1.70974-4.37858,3.41503-8.75941,5.12426-13.13914c0.88885-2.27839,1.05235-4.79612,2.87473-6.58455
    C112.34081,57.10396,112.44944,58.72269,112.77985,60.22202z"/>

</svg>
