<?xml version="1.0" encoding="utf-8"?>
<!DOCTYPE svg PUBLIC "-//W3C//DTD SVG 1.1//EN" "http://www.w3.org/Graphics/SVG/1.1/DTD/svg11.dtd">
<svg version="1.1" xmlns="http://www.w3.org/2000/svg" xmlns:xlink="http://www.w3.org/1999/xlink" x="0px" y="0px" width="160px"
  height="160px" viewBox="0 0 160 160" enable-background="new 0 0 160 160" xml:space="preserve">
  <linearGradient id="SVGID_1_" gradientUnits="userSpaceOnUse" x1="38.78421" y1="67.05892" x2="115.23493" y2="116.50311">
    <stop  offset="0" style="stop-color:#B1D1E1"/>
    <stop  offset="0.2312" style="stop-color:#C9E1ED"/>
    <stop  offset="0.5" style="stop-color:#E9F6FD"/>
    <stop  offset="1" style="stop-color:#D2D8DE"/>
  </linearGradient>
  <path fill="url(#SVGID_1_)" d="M102.41008,92.01625c0.00579-0.12991,0.01207-0.25929,0.01781-0.39028
    c0.00107-0.02827,0.00262-0.06077,0.00418-0.08904c0.00053-0.02306,0.00214-0.04559,0.00263-0.06914
    c0.25248-5.67566,0.47825-11.9348,1.76581-32.06744c0.14408-2.43948,0.29282-5.02715,0.44419-7.71015
    c0.0781-1.3787,0.15298-2.73438,0.22475-4.05547c-0.25195,2.5615-17.63347,4.06174-26.40231,4.06174
    c-8.76878,0-26.59765-1.51488-27.12042-4.06174c0.06072,1.32162,0.12884,2.67779,0.20372,4.05649
    c0.21638,3.9947,0.48404,7.77672,0.76897,11.16899c0.61133,8.00297,1.23623,17.54335,1.605,28.75895
    c0.00054,0.00998,0.00108,0.01991,0.00108,0.0309c0.02462,0.93821,0.05289,1.91563,0.08432,2.92555
    c0.02671,1.00054,0.05552,2.00312,0.09848,3.14296c0.01781,0.47353,0.03825,0.95285,0.06024,1.43529
    c0.18018,4.73015,0.42273,10.0108,0.72446,15.58272c0.5453,10.06997,1.1791,19.17824,1.76426,25.77316
    c0.07016,1.29593,9.49377,4.40327,22.50346,4.40327c13.00813,0,20.40137-3.10364,20.47469-4.39963
    c0.46565-6.60121,1.03718-15.7121,1.605-25.78099C101.72494,106.14635,102.12826,98.25496,102.41008,92.01625z"/>
  <linearGradient id="SVGID_2_" gradientUnits="userSpaceOnUse" x1="45.49274" y1="48.60084" x2="104.86405" y2="48.60084">
    <stop  offset="0" style="stop-color:#F1E2C5"/>
    <stop  offset="0.30386" style="stop-color:#EFD468"/>
    <stop  offset="0.5" style="stop-color:#EECB30"/>
    <stop  offset="0.72536" style="stop-color:#E8C519"/>
    <stop  offset="1" style="stop-color:#E2BE02"/>
  </linearGradient>
  <path opacity="0.35" fill="url(#SVGID_2_)" d="M74.87947,46.0271c-0.19064-0.94127-0.47246-1.85014-0.83442-2.7155
    c-2.22733-5.32153-7.50535-9.0307-13.62729-8.95266c-4.44463,0.05605-8.39373,2.10315-11.027,5.27647
    c-2.13356,2.57148-3.40643,5.87991-3.36036,9.48385c0.00735,0.59819,0.01572,0.80669,0.09328,1.38497
    c4.08792-0.2284,8.51893-0.4164,12.91957-1.04763v-8.38118h2.8496l1.35724,21.76854
    c7.52574-0.66052,12.02593-6.42049,11.92799-14.09663C75.16655,47.81544,75.05809,46.91081,74.87947,46.0271z"/>
  <linearGradient id="SVGID_3_" gradientUnits="userSpaceOnUse" x1="53.26147" y1="89.60558" x2="101.90468" y2="121.06538">
    <stop  offset="0" style="stop-color:#A36C35"/>
    <stop  offset="0.08194" style="stop-color:#B5773C"/>
    <stop  offset="0.18498" style="stop-color:#C48142"/>
    <stop  offset="0.30778" style="stop-color:#CC8645"/>
    <stop  offset="0.5" style="stop-color:#CF8846"/>
    <stop  offset="0.66531" style="stop-color:#CC8645"/>
    <stop  offset="0.80242" style="stop-color:#C17F41"/>
    <stop  offset="0.92908" style="stop-color:#B0743A"/>
    <stop  offset="1" style="stop-color:#A36C35"/>
  </linearGradient>
  <path fill="url(#SVGID_3_)" d="M97.10587,94.44677c0.00311-0.0686,0.20582-5.1015,0.63488-13.15897h-39.0998
    c0.19117,3.49178,0.36142,7.24343,0.49134,11.26377c0,0.00783,0.00053,0.01572,0.00053,0.02462
    c0.01936,0.7501,0.02725,1.06335,0.05235,1.87057c0.02097,0.79987,0.05713,2.0707,0.09119,2.98263
    c0.01411,0.37821,0.02982,0.76168,0.04715,1.14719c0.1414,3.78309,0.33155,8.00613,0.56831,12.46175
    c0.42799,8.05328,0.92507,15.33652,1.38449,20.61089c0.05498,1.0367,7.4493,3.5217,17.65755,3.5217
    c10.20723,0,16.00862-2.48244,16.06569-3.51907c0.36561-5.2791,0.81403-12.56442,1.25978-20.61663
    C96.63911,104.16894,96.88483,99.43568,97.10587,94.44677z"/>
  <linearGradient id="SVGID_4_" gradientUnits="userSpaceOnUse" x1="64.38692" y1="72.34991" x2="92.0019" y2="90.20979">
    <stop  offset="0" style="stop-color:#B3B5B9"/>
    <stop  offset="0.00814" style="stop-color:#B5B6BA"/>
    <stop  offset="0.09692" style="stop-color:#CAC3C0"/>
    <stop  offset="0.19627" style="stop-color:#D9CCC4"/>
    <stop  offset="0.31468" style="stop-color:#E1D1C6"/>
    <stop  offset="0.5" style="stop-color:#E4D3C7"/>
    <stop  offset="0.60343" style="stop-color:#E3D1C4"/>
    <stop  offset="0.68926" style="stop-color:#E1CBB9"/>
    <stop  offset="0.76879" style="stop-color:#DDC0A8"/>
    <stop  offset="0.84456" style="stop-color:#D8B290"/>
    <stop  offset="0.91766" style="stop-color:#D19F70"/>
    <stop  offset="0.98777" style="stop-color:#C9884A"/>
    <stop  offset="1" style="stop-color:#C78343"/>
  </linearGradient>
  <path fill="url(#SVGID_4_)" d="M97.7664,81.29671c-3.15342,1.75166-7.44458,2.28805-11.0092,1.47562
    c-0.38448-0.01314-0.76533-0.02724-1.14402-0.04195c-3.03192-0.11784-5.99782-0.2734-9.17268,0.68884
    c-0.33369,0.01308-0.66631,0.02199-0.99947,0.02779c-2.32367,0.03508-4.69501-0.109-7.31992-0.4547
    c-0.3876-0.01625-0.77209-0.03455-1.15765-0.05708c-1.91772-0.11001-3.86055-0.33267-5.86839-0.77841
    c-0.31063-0.04978-0.59561-0.1032-0.85228-0.1577c-1.02773-0.21896-1.60184-0.45937-1.60184-0.71132
    c0-0.252,0.5741-0.49241,1.60184-0.71136c0.25667-0.0545,0.54165-0.10793,0.8533-0.1687
    c2.00784-0.82497,3.95018-0.70139,5.86737-0.54106c0.38712,0.03353,0.7737,0.06861,1.16918,0.10213
    c2.7663,0.6537,5.43572,0.06126,8.02496-0.29437c0.37349-0.05187,0.7449-0.09902,1.11892-0.1378
    c2.6034-0.45465,5.14811-0.64426,7.64047-0.50968c0.35568,0.01942,0.71083,0.04505,1.06442,0.07756
    c3.80401,0.72547,7.55878,1.26187,11.09196,1.70606C97.5181,80.95465,97.7664,81.11964,97.7664,81.29671z"/>
    <linearGradient id="SVGID_5_" gradientUnits="userSpaceOnUse" x1="102.84045" y1="120.26572" x2="109.90244" y2="120.26572" gradientTransform="matrix(0.9981 0.061 -0.061 0.9981 -4.49481 -78.978)">
    <stop  offset="0" style="stop-color:#C7CDE2"/>
    <stop  offset="0.5" style="stop-color:#C0C6D9"/>
    <stop  offset="0.58559" style="stop-color:#BAC3D7"/>
    <stop  offset="1" style="stop-color:#A3B4CF"/>
  </linearGradient>
  <path fill="url(#SVGID_5_)" d="M92.26153,81.49888c-0.4311,0.37612-3.10052,0.20742-3.45879-0.21107l4.17015-68.20081
    l3.45879,0.21107L92.26153,81.49888z"/>
  <linearGradient id="SVGID_6_" gradientUnits="userSpaceOnUse" x1="59.2027" y1="59.86459" x2="97.06356" y2="35.37824">
    <stop  offset="0" style="stop-color:#ACC8E1"/>
    <stop  offset="0.5" style="stop-color:#85B1D4"/>
    <stop  offset="1" style="stop-color:#6EA4CC"/>
  </linearGradient>
  <path fill="url(#SVGID_6_)" d="M78.46978,43.57088c-8.77302,0-26.87899,1.47407-27.12305,4.06384
    c0.52224,2.54686,18.35004,4.06277,27.12305,4.06277c8.76669,0,26.14773-1.50127,26.39967-4.06277
    C104.90769,45.06013,87.23647,43.57088,78.46978,43.57088z"/>
  <linearGradient id="SVGID_7_" gradientUnits="userSpaceOnUse" x1="-149.57484" y1="151.89359" x2="-111.71306" y2="127.40663" gradientTransform="matrix(0.803 -0.0004 -0.0004 1 183.1001 0.7263)">
    <stop  offset="0" style="stop-color:#B1D1E1"/>
    <stop  offset="0.2312" style="stop-color:#C9E1ED"/>
    <stop  offset="0.5" style="stop-color:#E9F6FD"/>
    <stop  offset="1" style="stop-color:#D2D8DE"/>
  </linearGradient>
  <path fill="url(#SVGID_7_)" d="M78.43835,136.43388c-7.04437,0.0031-21.58364,1.48553-21.78109,4.07585
    c0.4185,2.54633,14.73307,4.40327,21.77792,4.40327c8.08734,0,19.30557-1.29648,21.20023-4.42682
    C99.66738,137.91159,85.478,136.43018,78.43835,136.43388z"/>
  <linearGradient id="SVGID_8_" gradientUnits="userSpaceOnUse" x1="62.0717" y1="58.00745" x2="94.17625" y2="37.24397">
    <stop  offset="0" style="stop-color:#B1D1E1"/>
    <stop  offset="0.2312" style="stop-color:#C9E1ED"/>
    <stop  offset="0.5" style="stop-color:#E9F6FD"/>
    <stop  offset="1" style="stop-color:#D2D8DE"/>
  </linearGradient>
  <path fill="url(#SVGID_8_)" d="M78.41528,44.89616c-7.44877,0-22.82245,0.99319-23.02987,2.73857
    c0.44365,1.71603,15.5811,2.73701,23.02987,2.73701c7.44356,0,22.20178-1.01154,22.41548-2.73701
    C100.86322,45.89981,85.85884,44.89616,78.41528,44.89616z"/>
  <polygon fill-rule="evenodd" clip-rule="evenodd" fill="#E4B174" points="67.5648,86.95713 78.5578,88.36935 78.5578,97.56038
    74.2425,101.15745 63.25009,99.74523 63.25009,90.55425"/>
  <linearGradient id="SVGID_9_" gradientUnits="userSpaceOnUse" x1="62.77812" y1="94.05747" x2="79.02924" y2="94.05747">
    <stop  offset="0" style="stop-color:#CEC5C1"/>
    <stop  offset="0.5" style="stop-color:#E4D3C7"/>
    <stop  offset="0.63477" style="stop-color:#E3D1C4"/>
    <stop  offset="0.7466" style="stop-color:#E1CBB9"/>
    <stop  offset="0.85021" style="stop-color:#DEC0A8"/>
    <stop  offset="0.94828" style="stop-color:#D9B290"/>
    <stop  offset="1" style="stop-color:#D6A880"/>
  </linearGradient>
  <path fill="url(#SVGID_9_)" d="M78.6175,87.90162l-10.99192-1.41228c-0.12885-0.01674-0.26192,0.02204-0.3625,0.10583
    l-4.31525,3.59659c-0.10739,0.08958-0.16972,0.22207-0.16972,0.3625v9.19098c0,0.2373,0.17653,0.43791,0.41174,0.46832
    l10.99294,1.41222c0.0199,0.00262,0.0398,0.00365,0.0597,0.00365c0.11002,0,0.21687-0.03825,0.30226-0.10948l4.31477-3.5976
    c0.10786-0.08904,0.16972-0.22212,0.16972-0.36196v-9.19102C79.02924,88.13205,78.8532,87.93198,78.6175,87.90162z
     M67.70937,87.4511l2.07333,0.26665c-0.12991,0.0686-0.20641,0.17754-0.15191,0.34834
    c0.14928,0.47406,0.90517,0.65322,1.32056,0.70664c0.93081,0.11994,1.86221,0.2394,2.79355,0.3588
    c-0.35622,0.29754-0.71346,0.59454-1.06963,0.89155c-0.55265,0.46044,1.55785,1.30225,2.14242,0.8151
    c0.64169-0.5343,1.28338-1.06915,1.92453-1.60398c0.2881-0.23988,0.00993-0.48345-0.35933-0.6684l1.36089,0.17497l-3.57352,2.97844
    l-10.03441-1.28965L67.70937,87.4511z M63.72207,90.85227l10.28474,1.32162v8.47811l-10.28474-1.32162V90.85227z
     M74.47878,100.34658v-8.27009l3.60705-3.00677v8.26961L74.47878,100.34658z"/>
  <linearGradient id="SVGID_10_" gradientUnits="userSpaceOnUse" x1="64.29564" y1="94.70627" x2="69.53976" y2="94.70627">
    <stop  offset="0" style="stop-color:#CEC5C1"/>
    <stop  offset="0.5" style="stop-color:#E4D3C7"/>
    <stop  offset="0.63477" style="stop-color:#E3D1C4"/>
    <stop  offset="0.7466" style="stop-color:#E1CBB9"/>
    <stop  offset="0.85021" style="stop-color:#DEC0A8"/>
    <stop  offset="0.94828" style="stop-color:#D9B290"/>
    <stop  offset="1" style="stop-color:#D6A880"/>
  </linearGradient>
  <path fill="url(#SVGID_10_)" d="M68.79685,92.20635l-3.57089-0.4023c-0.23575-0.0251-0.47305,0.04924-0.65113,0.20796
    c-0.1776,0.15871-0.27919,0.38556-0.27919,0.62388v4.14033c0,0.46254,0.3745,0.83705,0.83656,0.83705
    c0.46254,0,0.83705-0.37451,0.83705-0.83705v-3.20373l2.64008,0.29754c0.45991,0.05134,0.87373-0.27866,0.92506-0.73856
    C69.58627,92.67258,69.25574,92.25822,68.79685,92.20635z"/>
  <linearGradient id="SVGID_11_" gradientUnits="userSpaceOnUse" x1="70.37658" y1="93.48911" x2="72.99909" y2="93.48911">
    <stop  offset="0" style="stop-color:#CEC5C1"/>
    <stop  offset="0.5" style="stop-color:#E4D3C7"/>
    <stop  offset="0.63477" style="stop-color:#E3D1C4"/>
    <stop  offset="0.7466" style="stop-color:#E1CBB9"/>
    <stop  offset="0.85021" style="stop-color:#DEC0A8"/>
    <stop  offset="0.94828" style="stop-color:#D9B290"/>
    <stop  offset="1" style="stop-color:#D6A880"/>
  </linearGradient>
  <path fill="url(#SVGID_11_)" d="M72.32323,92.76055l-0.94814-0.18591c-0.45412-0.08749-0.89364,0.20635-0.98267,0.6595
    c-0.08904,0.45363,0.2064,0.89363,0.66003,0.98267l0.94807,0.18645c0.0545,0.01051,0.10899,0.01572,0.16242,0.01572
    c0.39184,0,0.74173-0.27657,0.82031-0.6757C73.0723,93.28966,72.77686,92.84965,72.32323,92.76055z"/>
  <polygon fill-rule="evenodd" clip-rule="evenodd" fill="#E4B174" points="78.83748,93.27759 89.80741,91.69457 92.26781,100.55036
    89.07357,105.17152 78.10417,106.7535 75.64372,97.89772"/>
  <linearGradient id="SVGID_12_" gradientUnits="userSpaceOnUse" x1="75.17176" y1="99.22458" x2="92.73991" y2="99.22458">
    <stop  offset="0" style="stop-color:#CEC5C1"/>
    <stop  offset="0.5" style="stop-color:#E4D3C7"/>
    <stop  offset="0.63477" style="stop-color:#E3D1C4"/>
    <stop  offset="0.7466" style="stop-color:#E1CBB9"/>
    <stop  offset="0.85021" style="stop-color:#DEC0A8"/>
    <stop  offset="0.94828" style="stop-color:#D9B290"/>
    <stop  offset="1" style="stop-color:#D6A880"/>
  </linearGradient>
  <path fill="url(#SVGID_12_)" d="M89.73982,91.22839l-10.96886,1.58194c-0.1283,0.01781-0.24567,0.09113-0.32055,0.19906
    l-3.19482,4.62013c-0.07961,0.11522-0.10423,0.25983-0.06651,0.39495l2.46039,8.85578
    c0.06341,0.22839,0.28757,0.37402,0.52175,0.3405l10.96988-1.58199c0.01991-0.00311,0.0398-0.00729,0.05869-0.01255
    c0.10583-0.02934,0.19906-0.09531,0.26192-0.1865l3.19376-4.62115c0.08067-0.11522,0.10476-0.25983,0.06705-0.39393
    l-2.46039-8.85573C90.19871,91.3405,89.97504,91.19487,89.73982,91.22839z M79.10938,93.71448l2.06909-0.29807
    c-0.10685,0.10111-0.15137,0.22577-0.05289,0.37559c0.27029,0.41694,1.04656,0.38765,1.46146,0.3279
    c0.92925-0.13356,1.85851-0.2682,2.78776-0.4023c-0.26396,0.38186-0.52798,0.76377-0.79253,1.1451
    c-0.40911,0.59191,1.85014,0.83812,2.28284,0.21161c0.47508-0.68621,0.95017-1.37344,1.42477-2.06019
    c0.21322-0.30853-0.11994-0.46827-0.5254-0.54739l1.35826-0.19589l-2.64583,3.826l-10.01337,1.44419L79.10938,93.71448z
     M76.17803,98.05907l10.26328-1.48034l2.27024,8.1685l-10.26377,1.48035L76.17803,98.05907z M89.08403,104.32712l-2.21371-7.96837
    l2.66996-3.86269l2.21365,7.96735L89.08403,104.32712z"/>
  <linearGradient id="SVGID_13_" gradientUnits="userSpaceOnUse" x1="83.23989" y1="98.46657" x2="85.87798" y2="98.46657">
    <stop  offset="0" style="stop-color:#CEC5C1"/>
    <stop  offset="0.5" style="stop-color:#E4D3C7"/>
    <stop  offset="0.63477" style="stop-color:#E3D1C4"/>
    <stop  offset="0.7466" style="stop-color:#E1CBB9"/>
    <stop  offset="0.85021" style="stop-color:#DEC0A8"/>
    <stop  offset="0.94828" style="stop-color:#D9B290"/>
    <stop  offset="1" style="stop-color:#D6A880"/>
  </linearGradient>
  <path fill="url(#SVGID_13_)" d="M84.9762,97.59492l-0.96331,0.0744c-0.46098,0.0377-0.80567,0.43791-0.77054,0.89889
    c0.0361,0.46098,0.4384,0.80561,0.89938,0.77l0.96332-0.07434c0.05551-0.00419,0.10947-0.01363,0.1608-0.02833
    c0.37768-0.10475,0.64014-0.46516,0.60973-0.87057C85.83996,97.904,85.43718,97.55931,84.9762,97.59492z"/>
  <polygon fill-rule="evenodd" clip-rule="evenodd" fill="#E4B174" points="71.10851,105.09089 82.07838,103.50788
    84.53877,112.36361 81.34454,116.98482 70.37514,118.56676 67.91475,109.71098"/>
  <linearGradient id="SVGID_14_" gradientUnits="userSpaceOnUse" x1="67.44273" y1="111.03783" x2="85.01089" y2="111.03783">
    <stop  offset="0" style="stop-color:#CEC5C1"/>
    <stop  offset="0.5" style="stop-color:#E4D3C7"/>
    <stop  offset="0.63477" style="stop-color:#E3D1C4"/>
    <stop  offset="0.7466" style="stop-color:#E1CBB9"/>
    <stop  offset="0.85021" style="stop-color:#DEC0A8"/>
    <stop  offset="0.94828" style="stop-color:#D9B290"/>
    <stop  offset="1" style="stop-color:#D6A880"/>
  </linearGradient>
  <path fill="url(#SVGID_14_)" d="M82.01085,103.04165l-10.96891,1.58199c-0.12831,0.01781-0.24567,0.09113-0.32056,0.19905
    l-3.19482,4.62009c-0.0796,0.11526-0.10422,0.25983-0.06651,0.395l2.4604,8.85573c0.0634,0.2284,0.28761,0.37403,0.52175,0.34051
    l10.96988-1.58194c0.01995-0.00317,0.03986-0.00735,0.05868-0.0126c0.10583-0.02934,0.19906-0.09531,0.26192-0.18645
    l3.19376-4.62121c0.08067-0.11521,0.10475-0.25977,0.06705-0.39388l-2.4604-8.85578
    C82.46968,103.15376,82.246,103.00813,82.01085,103.04165z M71.38035,105.52773l2.06909-0.29807
    c-0.10685,0.10111-0.15137,0.22577-0.05289,0.37558c0.27029,0.417,1.04662,0.38766,1.46146,0.32796
    c0.92924-0.13362,1.8585-0.2682,2.7878-0.4023c-0.26402,0.38186-0.52802,0.76372-0.79258,1.14504
    c-0.4091,0.59191,1.85014,0.83812,2.28285,0.21166c0.47508-0.68621,0.95022-1.3735,1.42477-2.06024
    c0.21321-0.30853-0.11994-0.46828-0.52541-0.54739l1.35831-0.19589l-2.64582,3.826l-10.01344,1.44419L71.38035,105.52773z
     M68.44905,109.87232l10.26323-1.48035l2.27029,8.16856l-10.26382,1.48029L68.44905,109.87232z M81.355,116.14043l-2.2137-7.96842
    l2.66996-3.86269l2.21365,7.96735L81.355,116.14043z"/>
  <linearGradient id="SVGID_15_" gradientUnits="userSpaceOnUse" x1="75.51086" y1="110.27988" x2="78.14899" y2="110.27988">
    <stop  offset="0" style="stop-color:#CEC5C1"/>
    <stop  offset="0.5" style="stop-color:#E4D3C7"/>
    <stop  offset="0.63477" style="stop-color:#E3D1C4"/>
    <stop  offset="0.7466" style="stop-color:#E1CBB9"/>
    <stop  offset="0.85021" style="stop-color:#DEC0A8"/>
    <stop  offset="0.94828" style="stop-color:#D9B290"/>
    <stop  offset="1" style="stop-color:#D6A880"/>
  </linearGradient>
  <path fill="url(#SVGID_15_)" d="M77.24718,109.40823l-0.96332,0.07439c-0.46098,0.03771-0.80566,0.43792-0.77053,0.89884
    c0.03616,0.46098,0.43845,0.80566,0.89938,0.77005l0.96331-0.0744c0.05552-0.00418,0.10948-0.01362,0.16081-0.02827
    c0.37768-0.10476,0.64014-0.46516,0.60977-0.87062C78.11098,109.7173,77.70815,109.37262,77.24718,109.40823z"/>
  <polygon fill-rule="evenodd" clip-rule="evenodd" fill="#E4B174" points="79.61906,112.38512 78.73325,101.33714
    87.72678,99.44088 92.13633,102.92171 93.02213,113.96915 84.02861,115.86488"/>
  <linearGradient id="SVGID_16_" gradientUnits="userSpaceOnUse" x1="78.26186" y1="107.65303" x2="93.49454" y2="107.65303">
    <stop  offset="0" style="stop-color:#CEC5C1"/>
    <stop  offset="0.5" style="stop-color:#E4D3C7"/>
    <stop  offset="0.63477" style="stop-color:#E3D1C4"/>
    <stop  offset="0.7466" style="stop-color:#E1CBB9"/>
    <stop  offset="0.85021" style="stop-color:#DEC0A8"/>
    <stop  offset="0.94828" style="stop-color:#D9B290"/>
    <stop  offset="1" style="stop-color:#D6A880"/>
  </linearGradient>
  <path fill="url(#SVGID_16_)" d="M78.26337,101.37486l0.88527,11.0469c0.01051,0.12992,0.07542,0.25146,0.17814,0.33268
    l4.40955,3.48077c0.10947,0.08695,0.25248,0.12048,0.38969,0.09113l8.99353-1.89568
    c0.23205-0.04924,0.39237-0.26353,0.37349-0.49976l-0.8858-11.04798c-0.00209-0.0199-0.0052-0.03926-0.00938-0.05862
    c-0.02253-0.10793-0.08175-0.20432-0.16924-0.27346l-4.41003-3.47976c-0.10948-0.08694-0.25248-0.12047-0.38921-0.09167
    l-8.99353,1.89626C78.40375,100.92439,78.24454,101.13808,78.26337,101.37486z M80.07269,112.14154l-0.16661-2.08379
    c0.09328,0.11264,0.21585,0.16499,0.37141,0.07703c0.43319-0.24411,0.45261-1.02044,0.41908-1.43791
    c-0.07439-0.93607-0.14982-1.87165-0.22475-2.8082c0.36459,0.28757,0.72864,0.57566,1.09269,0.86322
    c0.56472,0.4458,0.95285-1.79354,0.35568-2.26498c-0.65531-0.51703-1.31111-1.03508-1.96642-1.55157
    c-0.29389-0.23258-0.47509,0.08958-0.5799,0.48925l-0.10894-1.36771l3.65108,2.88206l0.8077,10.08466L80.07269,112.14154z
    M84.22295,115.34158l-0.82819-10.33662l8.29584-1.74854l0.82814,10.33613L84.22295,115.34158z"/>
  <linearGradient id="SVGID_17_" gradientUnits="userSpaceOnUse" x1="84.49721" y1="111.80496" x2="90.56575" y2="111.80496">
    <stop  offset="0" style="stop-color:#CEC5C1"/>
    <stop  offset="0.5" style="stop-color:#E4D3C7"/>
    <stop  offset="0.63477" style="stop-color:#E3D1C4"/>
    <stop  offset="0.7466" style="stop-color:#E1CBB9"/>
    <stop  offset="0.85021" style="stop-color:#DEC0A8"/>
    <stop  offset="0.94828" style="stop-color:#D9B290"/>
    <stop  offset="1" style="stop-color:#D6A880"/>
  </linearGradient>
  <path fill="url(#SVGID_17_)" d="M86.16792,109.93674c-0.04506-0.46092-0.45363-0.79778-0.91407-0.75272
    c-0.45943,0.04398-0.79677,0.45261-0.75278,0.91251l0.34313,3.57717c0.02408,0.23574,0.14563,0.45261,0.33788,0.594
    c0.1917,0.14145,0.43421,0.19331,0.66786,0.14407l4.05124-0.85383c0.45261-0.09532,0.74172-0.53902,0.64641-0.99105
    c-0.09532-0.45261-0.53902-0.74178-0.99158-0.64641l-3.13512,0.66106"/>
  <linearGradient id="SVGID_18_" gradientUnits="userSpaceOnUse" x1="84.31608" y1="107.00309" x2="86.00347" y2="107.00309">
    <stop  offset="0" style="stop-color:#CEC5C1"/>
    <stop  offset="0.5" style="stop-color:#E4D3C7"/>
    <stop  offset="0.63477" style="stop-color:#E3D1C4"/>
    <stop  offset="0.7466" style="stop-color:#E1CBB9"/>
    <stop  offset="0.85021" style="stop-color:#DEC0A8"/>
    <stop  offset="0.94828" style="stop-color:#D9B290"/>
    <stop  offset="1" style="stop-color:#D6A880"/>
  </linearGradient>
  <path fill="url(#SVGID_18_)" d="M84.31617,106.53138l0.01308,0.96648c0.00837,0.46199,0.38658,0.8313,0.84863,0.82551
    c0.462-0.00681,0.83131-0.38658,0.82552-0.84858l-0.01363-0.96648c-0.00102-0.05551-0.00729-0.10996-0.01834-0.16237
    c-0.08063-0.38293-0.42322-0.6684-0.83024-0.66314C84.6792,105.68962,84.30936,106.06938,84.31617,106.53138z"/>
  <polygon fill-rule="evenodd" clip-rule="evenodd" fill="#E4B174" points="75.5741,113.37408 66.75549,120.08792
    71.34527,128.05109 76.88049,129.01183 85.69857,122.29846 81.1088,114.33583"/>
  <linearGradient id="SVGID_19_" gradientUnits="userSpaceOnUse" x1="66.28376" y1="121.19346" x2="86.17035" y2="121.19346">
    <stop  offset="0" style="stop-color:#CEC5C1"/>
    <stop  offset="0.5" style="stop-color:#E4D3C7"/>
    <stop  offset="0.63477" style="stop-color:#E3D1C4"/>
    <stop  offset="0.7466" style="stop-color:#E1CBB9"/>
    <stop  offset="0.85021" style="stop-color:#DEC0A8"/>
    <stop  offset="0.94828" style="stop-color:#D9B290"/>
    <stop  offset="1" style="stop-color:#D6A880"/>
  </linearGradient>
  <path fill="url(#SVGID_19_)" d="M66.34692,120.32259l4.58978,7.96371c0.06963,0.121,0.1901,0.20485,0.32844,0.22893l5.53416,0.9617
    c0.11001,0.01889,0.22158-0.00101,0.31696-0.05653c0.01673-0.00943,0.03352-0.02043,0.04972-0.03197l8.81861-6.71331
    c0.18855-0.14407,0.24095-0.406,0.1231-0.61181l-4.59031-7.96268c-0.06963-0.12203-0.19016-0.20635-0.3279-0.22942
    l-5.53523-0.96123c-0.12889-0.02252-0.26245,0.01046-0.36614,0.08958l-8.81807,6.71277
    C66.28143,119.85641,66.228,120.1178,66.34692,120.32259z M85.08252,122.17487l-8.25019,6.28167l-4.23463-7.34507l8.25127-6.28168
    L85.08252,122.17487z M71.64436,127.62369l-4.12982-7.1649l4.62641,0.80357l4.12982,7.16486L71.64436,127.62369z"/>
  <linearGradient id="SVGID_20_" gradientUnits="userSpaceOnUse" x1="79.57252" y1="117.15447" x2="81.72841" y2="117.15447">
    <stop  offset="0" style="stop-color:#CEC5C1"/>
    <stop  offset="0.5" style="stop-color:#E4D3C7"/>
    <stop  offset="0.63477" style="stop-color:#E3D1C4"/>
    <stop  offset="0.7466" style="stop-color:#E1CBB9"/>
    <stop  offset="0.85021" style="stop-color:#DEC0A8"/>
    <stop  offset="0.94828" style="stop-color:#D9B290"/>
    <stop  offset="1" style="stop-color:#D6A880"/>
  </linearGradient>
  <path fill="url(#SVGID_20_)" d="M81.13395,116.31744l0.48351,0.8371c0.22888,0.40122,0.09269,0.91252-0.30752,1.14403
    c-0.4002,0.23048-0.91144,0.09269-1.14294-0.30698l-0.48297-0.83811c-0.02725-0.04817-0.04924-0.09795-0.06705-0.14874
    c-0.12627-0.36985,0.022-0.79097,0.37451-0.99421C80.39222,115.78002,80.904,115.91723,81.13395,116.31744z"/>
  <linearGradient id="SVGID_21_" gradientUnits="userSpaceOnUse" x1="79.46379" y1="119.66568" x2="80.5401" y2="119.66568">
    <stop  offset="0" style="stop-color:#CEC5C1"/>
    <stop  offset="0.5" style="stop-color:#E4D3C7"/>
    <stop  offset="0.63477" style="stop-color:#E3D1C4"/>
    <stop  offset="0.7466" style="stop-color:#E1CBB9"/>
    <stop  offset="0.85021" style="stop-color:#DEC0A8"/>
    <stop  offset="0.94828" style="stop-color:#D9B290"/>
    <stop  offset="1" style="stop-color:#D6A880"/>
  </linearGradient>
  <path fill="url(#SVGID_21_)" d="M80.24342,119.24771l0.241,0.41801c0.11468,0.20013,0.04662,0.45572-0.15298,0.57099
    c-0.20007,0.11522-0.45572,0.04662-0.57099-0.15298l-0.24094-0.41855c-0.01363-0.02409-0.02511-0.04871-0.03353-0.07435
    c-0.06286-0.1849,0.01052-0.395,0.18651-0.49606C79.87256,118.97952,80.1282,119.04764,80.24342,119.24771z"/>
  <linearGradient id="SVGID_22_" gradientUnits="userSpaceOnUse" x1="63.65395" y1="105.88079" x2="64.93626" y2="105.88079">
    <stop  offset="0" style="stop-color:#CEC5C1"/>
    <stop  offset="0.5" style="stop-color:#E4D3C7"/>
    <stop  offset="0.63477" style="stop-color:#E3D1C4"/>
    <stop  offset="0.7466" style="stop-color:#E1CBB9"/>
    <stop  offset="0.85021" style="stop-color:#DEC0A8"/>
    <stop  offset="0.94828" style="stop-color:#D9B290"/>
    <stop  offset="1" style="stop-color:#D6A880"/>
  </linearGradient>
  <path fill="url(#SVGID_22_)" d="M64.93626,105.39729v0.96701c-0.00102,0.462-0.28703,0.83603-0.64169,0.83704
    c-0.35354-0.00053-0.63955-0.37505-0.64062-0.83704l0.00054-0.96701c0-0.05552,0.00472-0.10996,0.01255-0.16237
    c0.05713-0.38342,0.3169-0.67468,0.6286-0.67468C64.64971,104.56126,64.93626,104.93582,64.93626,105.39729z"/>
  <linearGradient id="SVGID_23_" gradientUnits="userSpaceOnUse" x1="66.34327" y1="112.05379" x2="68.45007" y2="112.05379">
    <stop  offset="0" style="stop-color:#CEC5C1"/>
    <stop  offset="0.5" style="stop-color:#E4D3C7"/>
    <stop  offset="0.63477" style="stop-color:#E3D1C4"/>
    <stop  offset="0.7466" style="stop-color:#E1CBB9"/>
    <stop  offset="0.85021" style="stop-color:#DEC0A8"/>
    <stop  offset="0.94828" style="stop-color:#D9B290"/>
    <stop  offset="1" style="stop-color:#D6A880"/>
  </linearGradient>
  <path fill="url(#SVGID_23_)" d="M68.45007,111.25944v1.58875c-0.00156,0.759-0.47144,1.37344-1.05445,1.37553
    c-0.58091-0.00102-1.0508-0.61653-1.05235-1.37553l0.00054-1.58875c0-0.09167,0.00783-0.18124,0.02092-0.26717
    c0.09376-0.63016,0.52068-1.10841,1.03299-1.10841C67.97971,109.88541,68.45007,110.50092,68.45007,111.25944z"/>
  <linearGradient id="SVGID_24_" gradientUnits="userSpaceOnUse" x1="45.50812" y1="48.93224" x2="104.87804" y2="48.93224">
    <stop  offset="0" style="stop-color:#F1E2C5"/>
    <stop  offset="0.30386" style="stop-color:#EFD468"/>
    <stop  offset="0.5" style="stop-color:#EECB30"/>
    <stop  offset="0.72536" style="stop-color:#E8C519"/>
    <stop  offset="1" style="stop-color:#E2BE02"/>
  </linearGradient>
  <path fill="url(#SVGID_24_)" d="M75.11887,50.31933c0.06967-0.57936,0.07547-0.78732,0.07547-1.38658
    c0-3.60388-1.31481-6.8951-3.48083-9.43927c-2.67361-3.13979-6.64835-5.1361-11.09352-5.1361
    c-6.12193,0-11.35286,3.77676-13.51153,9.12608c-0.3515,0.87003-0.62179,1.78201-0.80041,2.72596
    c-0.16709,0.88473-0.26348,1.79199-0.26348,2.72334c0,8.04802,6.52525,14.57435,14.57542,14.57435c1.63011,0,0-6.89349,0-14.57381
    c0-0.00155,0.00102,0.28499,0.00102,0.28182C65.53922,49.98564,70.5433,50.12237,75.11887,50.31933z"/>
  <linearGradient id="SVGID_25_" gradientUnits="userSpaceOnUse" x1="48.32194" y1="48.93328" x2="96.63883" y2="48.93328">
    <stop  offset="0" style="stop-color:#F5F0D4"/>
    <stop  offset="0.5" style="stop-color:#F5EBA5"/>
    <stop  offset="1" style="stop-color:#ECE3A7"/>
  </linearGradient>
  <path fill="url(#SVGID_25_)" d="M60.61998,37.07181c-6.55094,0-11.86147,5.31053-11.86147,11.86147
    c0,6.55148,5.31053,11.86148,11.86147,11.86148c1.0471,0,0-6.03762,0-11.86148c0-0.00155,0.00102,0.28499,0.00102,0.28182
    c3.97952,0.62335,7.55668,0.77842,11.78182,1.00209c0.06239-0.49504,0.07858-0.7716,0.07858-1.28392
    C72.48141,42.38234,67.17141,37.07181,60.61998,37.07181z"/>
  <linearGradient id="SVGID_26_" gradientUnits="userSpaceOnUse" x1="102.92836" y1="418.31311" x2="109.9894" y2="418.31311" gradientTransform="matrix(0.9981 0.061 -0.0319 0.522 2.39729 -193.1983)">
    <stop  offset="0" style="stop-color:#C7CDE2"/>
    <stop  offset="0.5" style="stop-color:#9FACCD"/>
    <stop  offset="1" style="stop-color:#8B9CC2"/>
  </linearGradient>
  <polygon fill="url(#SVGID_26_)" points="94.22168,49.44141 90.72776,49.80074 92.97289,13.08699 96.43168,13.29806"/>

</svg>
