<svg xmlns="http://www.w3.org/2000/svg" width="161px" height="161px" viewBox="0 0 161 161">
  <path fill="#87bb9a" d="M57.6,43.5C49.8,42.2,41.8,43,34,41.9c-2.2-0.3-4.5-0.9-6.6-1.9c2.7,1.2,3.4,5.4,4.6,7.8
    c1,2.2,1.9,4.5,2.8,6.7c1.9,4.8,3.7,9.7,6.3,14.2c2.2,4,5.2,8.4,9.5,10.4c3.7,1.8,7.6,1.2,11.3,0.1c5.1-1.3,10.1-2.7,15.4-3.7
    c-1-2.2-2.1-4.6-2.1-7.2c-0.1-2.7,0.6-5.2,0.9-7.9c0.7-5.5-1.8-9.5-6.4-12.5C65.9,45.6,61.9,44.2,57.6,43.5z"/>
  <path fill="#96cca8" d="M73.7,73c-8.6-13.3-21.5-25.5-38-29.1C51.3,50.1,61,63.3,73.7,73L73.7,73z"/>
  <path fill="#a9c690" d="M101.1,44.7c-3.3-7.2-8.8-13.1-12.2-20.3c-1-2.1-1.8-4.2-2.2-6.4c0.6,3-2.4,6-3.7,8.2
    c-1.2,2.1-2.5,4.2-3.9,6.1c-2.8,4.3-5.8,8.5-8.1,13.3c-2.1,4.2-3.9,9.1-3.1,13.7c0.6,4,3.3,6.9,6.4,9.4c4,3.4,8.1,6.7,11.8,10.4
    c1.2-2.2,2.5-4.3,4.6-5.8c2.1-1.6,4.6-2.5,7-3.7c4.9-2.7,6.9-7,6.6-12.5C104.3,52.7,103.1,48.6,101.1,44.7z"/>
  <path fill="#c6e5a8" d="M86.2,75c6-14.8,8.5-32.2,1.9-47.9C92,43.3,87,58.9,86.2,75L86.2,75z"/>
  <path fill="#968d9c" d="M104.1,86.6c-5.1,2.7-11.2,1.2-13.7-3.4c-2.5-4.6-0.6-10.7,4.5-13.4c5.1-2.7,11.2-1.2,13.7,3.4
    C111.1,77.9,109.2,83.9,104.1,86.6z"/>
  <path fill="#c09aa1" d="M105.9,84c0.7-0.4,1.5-0.9,2.1-1.5c1.2-2.7,1-5.7-0.3-8.2c-2.5-4.6-8.6-6.3-13.7-3.4
    c-0.7,0.4-1.5,0.9-2.1,1.5c-1.2,2.7-1,5.7,0.3,8.2C94.7,85.4,100.8,86.9,105.9,84z"/>
  <ellipse fill="#968d9c" cx="94.4" cy="72" rx="9.7" ry="10.4"/>
  <path fill="#c09aa1" d="M101.6,67.7c0-0.9,0-2-0.4-2.5c-1.8-2.2-4.3-3.8-7.2-3.8c-5.4,0-9.7,4.6-9.7,10.4c0,0.9,0.1,1.8,0.3,2.5
    c1.8,2.2,4.5,3.7,7.3,3.7C97.2,78.2,101.6,73.6,101.6,67.7z"/>
  <path fill="#968d9c" d="M109.9,93.6c-5.1,2.7-11.2,1.2-13.7-3.4c-2.5-4.6-0.6-10.7,4.5-13.4c5.1-2.7,11.2-1.2,13.7,3.4
    C117,85,115,90.9,109.9,93.6z"/>
  <path fill="#c09aa1" d="M112.5,90.7c0.7-0.4,1.5-0.9,2.1-1.5c1.2-2.7,1-5.7-0.3-8.2c-2.5-4.6-8.6-6.3-13.7-3.4
    c-0.7,0.4-1.5,0.9-2.1,1.5c-1.2,2.7-1,5.7,0.3,8.2C101.4,91.9,107.5,93.4,112.5,90.7z"/>
  <path fill="#968d9c" d="M96.7,98.4c-5.1,2.7-11.2,1.2-13.7-3.4c-2.5-4.6-0.6-10.7,4.5-13.4c5.1-2.7,11.2-1.2,13.7,3.4
    C103.7,89.7,101.6,95.7,96.7,98.4z"/>
  <path fill="#c09aa1" d="M98.7,95.3c0.7-0.4,1.5-0.9,2.1-1.5c1.2-2.7,1-5.7-0.3-8.2c-2.5-4.6-8.6-6.3-13.7-3.4
    c-0.7,0.4-1.5,0.9-2.1,1.5c-1.2,2.7-1,5.7,0.3,8.2C87.5,96.5,93.7,98,98.7,95.3z"/>
  <ellipse fill="#968d9c" cx="103.2" cy="95.5" rx="9.7" ry="10.4"/>
  <path fill="#c09aa1" d="M110.3,91.9c0-0.9-0.1-1.8-0.3-2.5c-1.8-2.2-4.5-3.7-7.3-3.7c-5.4,0-9.7,4.6-9.7,10.4c0,0.9,0.1,1.8,0.3,2.5
    c1.8,2.2,4.5,3.7,7.3,3.7C106,102.1,110.3,97.5,110.3,91.9z"/>
  <path fill="#968d9c" d="M113.7,106c4.9,3,11,1.6,13.9-2.8c2.7-4.6,1-10.6-3.9-13.6c-4.9-3-11-1.6-13.9,2.8S108.7,103,113.7,106z"/>
  <path fill="#c09aa1" d="M111.3,103.6c-0.7-0.4-1.5-1-2.1-1.6c-1-2.7-0.9-5.7,0.6-8.2c2.7-4.6,8.9-5.8,13.9-2.8
    c0.7,0.4,1.5,1.1,2,1.7c1,2.7,0.9,5.6-0.6,8.1C122.3,105.4,116.2,106.6,111.3,103.6z"/>
  <path fill="#968d9c" d="M118.7,117.3c-5.1,2.7-11.2,1.2-13.7-3.4c-2.5-4.6-0.6-10.7,4.5-13.4c5.1-2.7,11.2-1.2,13.7,3.4
    C125.9,108.5,123.8,114.5,118.7,117.3z"/>
  <path fill="#c09aa1" d="M121.4,113.6c0.7-0.4,1.5-0.9,2.1-1.5c1.2-2.7,1-5.7-0.3-8.2c-2.5-4.6-8.6-6.3-13.7-3.4
    c-0.7,0.4-1.5,0.9-2.1,1.5c-1.2,2.7-1,5.7,0.3,8.2C110.2,114.8,116.5,116.4,121.4,113.6z"/>
  <ellipse fill="#968d9c" cx="66.4" cy="76.3" rx="9.7" ry="10.4"/>
  <path fill="#c09aa1" d="M73.5,72.3c0-0.9-0.1-1.7-0.3-2.5c-1.7-2.2-4.3-3.6-7.1-3.6c-5.2,0-9.4,4.5-9.4,10.1c0,0.9,0.1,1.7,0.3,2.5
    c1.7,2.2,4.3,3.6,7.1,3.6C69.5,82.5,73.5,78,73.5,72.3z"/>
  <path fill="#968d9c" d="M86.4,86.9c-5.1,2.7-11.2,1.2-13.7-3.4c-2.5-4.6-0.6-10.7,4.5-13.4c5.1-2.7,11.2-1.2,13.7,3.4
    C93.4,78.1,91.4,84.1,86.4,86.9z"/>
  <path fill="#c09aa1" d="M89.1,83.7c0.7-0.4,1.5-0.9,2.1-1.5c1.2-2.7,1-5.7-0.3-8.2c-2.5-4.6-8.6-6.3-13.7-3.4
    c-0.7,0.4-1.5,0.9-2.1,1.5c-1.2,2.7-1,5.7,0.3,8.2C78,84.9,84.1,86.4,89.1,83.7z"/>
  <path fill="#968d9c" d="M81.9,98.1c-5.1,2.7-11.2,1.2-13.7-3.4c-2.5-4.6-0.6-10.7,4.5-13.4c5.1-2.7,11.2-1.2,13.7,3.4
    C88.9,89.3,87,95.2,81.9,98.1z"/>
  <path fill="#c09aa1" d="M84.2,95.2c0.7-0.4,1.5-0.9,2.1-1.5c1.2-2.7,1-5.7-0.3-8.2c-2.5-4.6-8.6-6.3-13.7-3.4
    c-0.7,0.4-1.5,0.9-2.1,1.5c-1.2,2.7-1,5.7,0.3,8.2C73,96.4,79.3,97.9,84.2,95.2z"/>
  <path fill="#968d9c" d="M68.6,102.9c-5.1,2.7-11.2,1.2-13.7-3.4c-2.5-4.6-0.6-10.7,4.5-13.4c5.1-2.7,11.2-1.2,13.7,3.4
    C75.6,94.1,73.7,100,68.6,102.9z"/>
  <path fill="#c09aa1" d="M71.3,99.1c0.7-0.4,1.5-0.9,2.1-1.5c1.2-2.7,1-5.7-0.3-8.2c-2.5-4.6-8.6-6.3-13.7-3.4
    c-0.7,0.4-1.5,0.9-2.1,1.5c-1.2,2.7-1,5.7,0.3,8.2C60.1,100.3,66.2,101.8,71.3,99.1z"/>
  <ellipse fill="#968d9c" cx="75.3" cy="99.9" rx="9.7" ry="10.4"/>
  <path fill="#c09aa1" d="M82.6,96.1c0-0.9-0.1-1.7-0.3-2.5c-1.8-2.2-4.4-3.6-7.1-3.6c-5.3,0-9.5,4.5-9.5,10.2c0,0.9,0.1,1.7,0.3,2.5
    c1.8,2.2,4.4,3.6,7.1,3.6C78.3,106.1,82.6,101.6,82.6,96.1z"/>
  <path fill="#968d9c" d="M85.6,110.3c4.9,3,11,1.6,13.9-2.8c2.7-4.6,1-10.6-3.9-13.6c-4.9-3-11-1.6-13.9,2.8
    C79.1,101.2,80.7,107.3,85.6,110.3z"/>
  <path fill="#c09aa1" d="M83.7,107.5c-0.7-0.4-1.5-1-2.1-1.6c-1-2.7-0.9-5.7,0.6-8.2c2.7-4.6,8.9-5.8,13.9-2.8c0.7,0.4,1.5,1.2,2,2.2
    c1,2.7,1,5.1-0.5,7.7C94.9,109.1,88.6,110.3,83.7,107.5z"/>
  <path fill="#968d9c" d="M97.3,122.5c5.4,2.1,11.2-0.1,13.3-5.1c1.9-4.9-0.6-10.7-6-12.8c-5.4-2.1-11.2,0.1-13.3,5.1
    C89.2,114.6,91.9,120.4,97.3,122.5z"/>
  <path fill="#c09aa1" d="M94.5,119.8c-0.9-0.3-1.6-0.7-2.2-1.2c-1.3-2.5-1.8-5.5-0.6-8.2c1.9-4.9,7.9-7.2,13.3-5.1
    c0.9,0.3,1.6,0.7,2.2,1.2c1.3,2.5,1.8,5.5,0.6,8.2C105.7,119.8,99.9,122,94.5,119.8z"/>
  <path fill="#968d9c" d="M90.9,121.6c-5.1,2.7-11.2,1.2-13.7-3.4c-2.5-4.6-0.6-10.7,4.5-13.4c5.1-2.7,11.2-1.2,13.7,3.4
    C97.9,112.8,95.9,119,90.9,121.6z"/>
  <path fill="#c09aa1" d="M93.5,117.9c0.7-0.4,1.5-0.9,2.1-1.5c1.2-2.7,1-5.7-0.3-8.2c-2.5-4.6-8.6-6.3-13.7-3.4
    c-0.7,0.4-1.5,0.9-2.1,1.5c-1.2,2.7-1,5.7,0.3,8.2C82.4,119.1,88.5,120.7,93.5,117.9z"/>
  <path fill="#968d9c" d="M103.1,135.2c5.4,2.2,11.2-0.1,13.3-5.1c1.9-4.9-0.6-10.7-6-12.8c-5.4-2.1-11.2,0.1-13.3,5.1
    C95.2,127.3,97.9,133,103.1,135.2z"/>
  <path fill="#968d9c" d="M69.2,126.9c5.4,2.1,11.2-0.1,13.3-5.1c1.9-4.9-0.6-10.7-6-12.8c-5.4-2.1-11.2,0.1-13.3,5.1
    C61.3,119,64,124.8,69.2,126.9z"/>
  <path fill="#c09aa1" d="M66.2,123.6c-0.9-0.3-1.6-0.7-2.2-1.2c-1.3-2.5-1.8-5.5-0.6-8.2c1.9-4.9,7.9-7.2,13.3-5.1
    c0.9,0.3,1.6,0.7,2.2,1.2c1.3,2.5,1.8,5.5,0.6,8.2C77.4,123.4,71.5,125.7,66.2,123.6z"/>
  <path fill="#968d9c" d="M106.1,128.2c4.9,3,11,1.6,13.9-2.8c2.7-4.6,1-10.6-3.9-13.6c-4.9-3-11-1.6-13.9,2.8
    C99.5,119.3,101.3,125.2,106.1,128.2z"/>
  <path fill="#c09aa1" d="M103.3,125.2c-0.7-0.4-1.5-1-2.1-1.6c-1-2.7-0.9-5.7,0.6-8.2c2.7-4.6,8.9-5.8,13.9-2.8
    c0.7,0.4,1.5,1,2.1,1.6c1,2.7,0.9,5.7-0.6,8.2C114.3,126.8,108.2,128.1,103.3,125.2z"/>
  <path fill="#968d9c" d="M96.8,134.3c-5.1,2.7-11.2,1.2-13.7-3.4c-2.5-4.6-0.6-10.7,4.5-13.4c5.1-2.7,11.2-1.2,13.7,3.4
    C103.8,125.5,101.9,131.5,96.8,134.3z"/>
  <path fill="#c09aa1" d="M99,131.4c0.7-0.4,1.5-0.9,2.1-1.5c1.2-2.7,1-5.7-0.3-8.2c-2.5-4.6-8.6-6.3-13.7-3.4
    c-0.7,0.4-1.5,0.9-2.1,1.5c-1.2,2.7-1,5.7,0.3,8.2C87.8,132.6,93.9,134.1,99,131.4z"/>
  <path fill="#968d9c" d="M102,145.1c5.4,1.9,11.2-0.6,13-5.5c1.8-5.1-1-10.6-6.4-12.5c-5.4-1.9-11.2,0.6-13,5.5
    C93.7,137.5,96.7,143.1,102,145.1z"/>
  <path fill="#c09aa1" d="M98.8,141.7c-0.8-0.4-1.4-1.3-1.7-1.9c-1.2-2.5-1.7-5.1-0.5-7.8c2.1-4.8,7.7-6.4,12.5-3.9
    c0.8,0.4,1.5,0.9,2.1,1.5c1.2,2.5,1.4,5.5,0.2,8.1C109.3,142.6,103.7,144.3,98.8,141.7z"/>
</svg>
