<?xml version="1.0" encoding="utf-8"?>
<!DOCTYPE svg PUBLIC "-//W3C//DTD SVG 1.1//EN" "http://www.w3.org/Graphics/SVG/1.1/DTD/svg11.dtd">
<svg version="1.1" xmlns="http://www.w3.org/2000/svg" xmlns:xlink="http://www.w3.org/1999/xlink" x="0px" y="0px" width="160px"
  height="160px" viewBox="0 0 160 160" enable-background="new 0 0 160 160" xml:space="preserve">
  <path fill="#A5603E" d="M62.0832,84.65986c0.35283-0.60374,0.50239-1.38121,0.44556-2.31209
    c-0.02839-0.45412-1.71098-8.06749-1.84769-8.52864c-0.11959-0.40213-0.2429-0.81821-0.29441-1.25147
    c-0.02037-0.17262-0.02784-0.44397-0.03536-0.78976c-0.02575-1.04074-0.08472-3.4772-0.86329-3.53194l0.03486-0.48092
    c1.21502,0.08521,1.27129,2.44128,1.3094,4.0005c0.00747,0.32066,0.01444,0.59518,0.03217,0.7448
    c0.04662,0.39301,0.15923,0.77154,0.27716,1.17152c0.13941,0.46758,1.83699,8.12651,1.86812,8.63807
    c0.0627,1.02625-0.10833,1.89486-0.50991,2.58333L62.0832,84.65986z"/>
  <path fill="#A5603E" d="M59.94165,86.36063L59.94165,86.36063c-0.2552-0.01713-0.50508-0.07824-0.74315-0.17801
    c-1.41235-0.59408-1.72438-2.22676-1.79251-2.90079c-0.11151-1.08741,0.28419-11.25516,0.54209-12.24067
    c0.09493-0.36139,0.1925-0.73458,0.2697-1.1035c0.28743-1.38549-1.01285-0.52709-0.08417-1.43755
    c0.53193-0.52331,0.98715-0.76352,1.38928-0.73508c1.21502,0.08521,1.27129,2.44128,1.3094,4.0005
    c0.00747,0.32066,0.01444,0.59518,0.03217,0.7448c0.04662,0.39301,0.15923,0.77154,0.27716,1.17152
    c0.13941,0.46758,1.83699,8.12651,1.86812,8.63807c0.0627,1.02625-0.10833,1.89486-0.50991,2.58333
    C61.9427,85.85983,60.93896,86.4314,59.94165,86.36063L59.94165,86.36063z M59.48802,68.24596
    c-0.17373-0.01285-0.49113,0.08044-1.01713,0.59732c-0.84182,0.82628,0.48899-0.10882,0.21929,1.19196
    c-0.07989,0.38071-0.17965,0.76144-0.27563,1.12815c-0.25894,0.9877-0.63213,11.06969-0.53028,12.07018
    c0.05952,0.58766,0.32708,2.01022,1.5008,2.50508c0.18981,0.0794,0.38824,0.1276,0.59035,0.14155
    c0.80322,0.05793,1.65042-0.43266,2.10778-1.22034c0.35283-0.60374,0.50239-1.38121,0.44556-2.31209
    c-0.02839-0.45412-1.71098-8.06749-1.84769-8.52864c-0.11959-0.40213-0.2429-0.81821-0.29441-1.25147
    c-0.02037-0.17262-0.02784-0.44397-0.03536-0.78976C60.32555,70.73715,60.26659,68.3007,59.48802,68.24596L59.48802,68.24596z"/>
  <path fill="#E28257" d="M60.31057,86.38638L60.31057,86.38638c-0.25416-0.01713-0.50513-0.07829-0.74315-0.17745
    c-1.4118-0.59464-1.72333-2.22682-1.79196-2.90134c-0.11152-1.08631,0.28469-11.25302,0.54208-12.24017
    c0.09488-0.36084,0.19299-0.73508,0.27025-1.10454c0.28848-1.38605-1.01395-0.526-0.08417-1.43645
    c0.53083-0.52386,0.98655-0.76303,1.38819-0.73514c1.21605,0.08582,1.27343,2.44183,1.30934,4.00001
    c0.00862,0.31955,0.01609,0.59622,0.03273,0.74584c0.04771,0.39301,0.15923,0.77049,0.27826,1.17158
    c0.13781,0.46539,1.8354,8.12646,1.86653,8.63802c0.06325,1.0268-0.10833,1.89491-0.50887,2.58228
    C62.31271,85.88558,61.30843,86.45715,60.31057,86.38638L60.31057,86.38638z M59.85803,68.27171
    c-0.17378-0.01285-0.49119,0.08154-1.01774,0.59842c-0.84182,0.82574,0.48905-0.10887,0.2188,1.19086
    c-0.07884,0.38176-0.178,0.76138-0.27563,1.12925c-0.25789,0.9871-0.63213,11.06805-0.52973,12.06799
    c0.06056,0.5893,0.32653,2.0118,1.50135,2.50618c0.18981,0.07934,0.38764,0.1276,0.58925,0.14155
    c0.80322,0.05792,1.65091-0.43217,2.10883-1.21875c0.35228-0.6032,0.5019-1.38072,0.44556-2.31154
    c-0.02839-0.45682-1.71152-8.06963-1.84879-8.52969c-0.11898-0.40219-0.2434-0.81717-0.29435-1.25257
    c-0.01982-0.17048-0.02734-0.44452-0.03536-0.79031C60.69447,70.76285,60.63654,68.32749,59.85803,68.27171L59.85803,68.27171z"/>
  <path fill="#E28257" d="M59.75508,85.7644c0.18981,0.07934,0.38764,0.1276,0.58925,0.14155
    c0.80322,0.05792,1.65091-0.43217,2.10883-1.21875c0.35228-0.6032,0.5019-1.38072,0.44556-2.31154
    c-0.02839-0.45682-1.71152-8.06963-1.84879-8.52969c-0.11898-0.40219-0.2434-0.81717-0.29435-1.25257
    c-0.01982-0.17048-0.02734-0.44452-0.03536-0.79031c-0.02575-1.04025-0.08368-3.4756-0.86219-3.53139l0,0
    c-0.17378-0.01285-0.49119,0.08154-1.01774,0.59842l-0.33668-0.3437c0.53083-0.52386,0.98655-0.76303,1.38819-0.73514
    c1.21605,0.08582,1.27343,2.44183,1.30934,4.00001c0.00862,0.31955,0.01609,0.59622,0.03273,0.74584
    c0.04771,0.39301,0.15923,0.77049,0.27826,1.17158c0.13781,0.46539,1.8354,8.12646,1.86653,8.63802
    c0.06325,1.0268-0.10833,1.89491-0.50887,2.58228c-0.55708,0.95657-1.56136,1.52814-2.55922,1.45737l0,0l0,0
    c-0.25416-0.01713-0.50513-0.07829-0.74315-0.17745L59.75508,85.7644z"/>
  <path fill="#F0DBCB" d="M84.56086,75.36017c5.95921-6.18229,0.13348-4.8461-2.1035-10.00693
    c-1.04288-2.40752-3.34904-4.56351-6.0654-4.88042c-6.23589-0.72597-4.11794,4.67556-4.11416,4.95871
    c0.0005,0.00105,0.04662,0.57909,0.0241,1.57317c-0.20265,8.86055,1.42091,9.32544,0.43645,14.23694
    C75.21664,87.79762,83.56997,76.38587,84.56086,75.36017z"/>
  <polygon fill="#69330D" points="70.94051,55.07447 74.35231,53.26213 73.16091,51.54792"/>
  <linearGradient id="SVGID_1_" gradientUnits="userSpaceOnUse" x1="2306.57642" y1="270.98044" x2="2326.09644" y2="270.98044" gradientTransform="matrix(-0.963 0.2695 -0.2695 -0.963 2398.26758 -240.1004)">
    <stop  offset="0" style="stop-color:#B3B5B9"/>
    <stop  offset="0.00814" style="stop-color:#B5B6BA"/>
    <stop  offset="0.09692" style="stop-color:#CAC3C0"/>
    <stop  offset="0.19627" style="stop-color:#D9CCC4"/>
    <stop  offset="0.31468" style="stop-color:#E1D1C6"/>
    <stop  offset="0.5" style="stop-color:#E4D3C7"/>
    <stop  offset="0.73142" style="stop-color:#E3D0C4"/>
    <stop  offset="0.92316" style="stop-color:#E0C7B9"/>
    <stop  offset="1" style="stop-color:#DEC2B3"/>
  </linearGradient>
  <path fill="url(#SVGID_1_)" d="M84.03376,104.67636c-4.31956,11.54259,3.34262,29.24008,9.23375,34.75911
    c2.74689,2.57477,7.0139,4.09648,10.771,2.96405c8.6273-2.6032,2.75545-8.50882,2.58815-8.87823
    c-0.00159-0.00214-0.39143-0.73569-0.92972-2.05898c-4.79032-11.78329-7.1946-11.46803-8.70023-18.49857
    C89.99084,105.745,84.75067,102.75893,84.03376,104.67636z"/>
  <linearGradient id="SVGID_2_" gradientUnits="userSpaceOnUse" x1="1108.41199" y1="58.05951" x2="1125.04712" y2="58.05951" gradientTransform="matrix(-0.952 -0.3061 0.3061 -0.952 1117.15918 525.12903)">
    <stop  offset="0" style="stop-color:#B3B5B9"/>
    <stop  offset="0.00814" style="stop-color:#B5B6BA"/>
    <stop  offset="0.09692" style="stop-color:#CAC3C0"/>
    <stop  offset="0.19627" style="stop-color:#D9CCC4"/>
    <stop  offset="0.31468" style="stop-color:#E1D1C6"/>
    <stop  offset="0.5" style="stop-color:#E4D3C7"/>
    <stop  offset="0.73142" style="stop-color:#E3D0C4"/>
    <stop  offset="0.92316" style="stop-color:#E0C7B9"/>
    <stop  offset="1" style="stop-color:#DEC2B3"/>
  </linearGradient>
  <path fill="url(#SVGID_2_)" d="M69.22311,141.77002c5.16994,5.00589,8.83106-4.86214,9.5136-8.60583
    c0.71366-3.91205,0.63702-8.13509,0.29171-12.08304c-0.13726-1.57481-0.36677-3.11531-0.61072-4.67397
    c-0.22357-1.43382-1.96673-2.80696-5.39143-2.28848c-2.81014,0.42679-6.41763,1.53028-6.79834,4.23056
    C65.37163,124.43073,62.81241,135.5556,69.22311,141.77002z"/>
  <path fill="#004E80" d="M95.75057,104.95517c-7.11844-4.66859-14.18598-13.34845-21.11089-11.39402
    c-6.92648,1.95493-9.09214,17.49588-9.53506,24.42402c1.05627,3.64608,7.90398,6.87339,13.80104,4.81662
    c2.01817-7.54852,8.79779-12.04608,15.55379-16.77798C95.26801,105.35895,95.75057,104.95517,95.75057,104.95517z"/>
  <path fill="#26689E" d="M100.32215,98.86517c-8.4884,0.64717-20.76234-2.08099-26.08783,2.75704
    c-2.68468,2.42146,4.04716,4.07237,4.83699,9.34581c0.68901,4.59837,2.32439,9.16781,4.25147,11.76513
    c3.16939,4.18658,12.49269,0.31631,19.2224,1.16994c-1.5024-7.6686-5.05574-15.53129-2.59354-23.40365
    C100.18543,99.47852,100.32215,98.86517,100.32215,98.86517z"/>
  <path fill="#F0DBCB" d="M82.58924,80.56981c-4.27772,2.70934-13.52162,4.21496-19.25402,4.61819
    c0,0-2.50508-1.48202-2.54374-3.64608c-0.02839-1.54588,0.37858-1.93406,0.62631-1.98391
    c0.00269-0.0011,2.2938,0.2418,3.16407,0.06753c6.39994-1.28255,8.94044-6.11789,14.15864-9.06161
    C85.71526,71.25189,83.7796,79.78372,82.58924,80.56981z"/>
  <path fill="#806051" d="M82.59248,80.57678c4.56564-7.27399,1.81503-20.42566-1.43376-25.0176
    c-1.51419-2.1421-4.75924-3.85143-7.48203-3.6032c-6.25356,0.56839-3.35063,5.71148-3.28843,5.9882
    c0.00105,0.00104-0.0263,0.86537,0.15549,1.84341c0.59782,3.21716,0.11311,5.18762,0.81766,6.65036
    c4.0268-0.60753,3.51744,3.50668,3.54533,6.66591C78.6767,79.01163,81.83538,81.78427,82.59248,80.57678z"/>
  <path fill="#F0DBCB" d="M48.82321,78.46686c0.28205-0.35069,0.37748-0.43859,1.02306-0.45737
    c0.67024-0.01719,1.39944,0.03591,2.06271-0.05309c0.28046,0.91259,0.40806,1.12118-0.44128,1.02789
    c-0.54049-0.05902-0.85576-0.25311-1.09971-0.8075c-0.25257-0.57267,0.39889-0.96464,0.83056-1.16944
    c0.98655-0.46703,1.73832-1.63488,2.66376-1.0638c1.04771,0.64822,2.7067,2.39461,3.77429,2.73135
    c0.78279,0.24718,1.54686,0.49327,2.35546,0.64179c0.46807,0.08582,0.87185,0.13941,1.42947,0.24828
    c0.36035,0.06968,0.6788,0.29062,0.94477,0.52705c0.40213,0.35821,0.60484,0.83863,0.72816,1.31264
    c0.22731,0.87185,0.25037,1.69972,0.24773,2.81393c-0.00109,0.32329-0.00434,0.64608-0.00697,0.96941
    c-2.02521-0.04183-4.03004,0.08203-6.04662,0.24395c-1.23539,0.09921-2.46972,0.20161-3.7067,0.26437
    c-0.57108,0.02789-1.14051,0.11739-1.70884,0.17745c-0.45254,0.04668-0.99199,0.13672-1.42733-0.03915
    c-0.14106-0.05627-0.41822-0.32329-0.50294-0.4874c-0.41289-0.80585,0.72811-0.91846,0.40268-0.88629
    c-0.81557,0.08044-0.95015-0.47456-1.06759-0.78285c-0.31099-0.81288,0.42898-1.12173,0.78395-1.21128
    c-0.54373,0.03701-1.04881-0.01498-1.33784-0.53829c-0.23857-0.43217-0.30506-1.0665,0.11475-1.41075
    c0.24504-0.19997,0.57854-0.27557,0.87772-0.35442c-0.21018-0.13512-0.55548,0.05848-0.74798-0.10564
    C48.03822,79.26255,48.69879,78.62021,48.82321,78.46686z"/>
  <path fill="#A5603E" d="M62.04032,77.63789c-0.155,0.04612-0.30994,0.09115-0.46489,0.1287
    c0.46489,2.11954,0.93834,4.34207,0.95333,4.58118c0.05683,0.93088-0.09274,1.70834-0.44556,2.31209
    c-0.45737,0.78768-1.30457,1.27827-2.10778,1.22034c-0.03486-0.00263-0.06918-0.01175-0.1035-0.01608
    c0.05205,0.18179,0.155,0.35337,0.29226,0.49492c0.92171-0.02196,1.81981-0.57053,2.33564-1.45577
    c0.40158-0.68847,0.57261-1.55708,0.50991-2.58333C62.9931,82.04969,62.51163,79.78372,62.04032,77.63789z"/>
  <path fill="#E28257" d="M62.17061,76.58216c-0.15818,0.0257-0.31637,0.0504-0.47455,0.08147
    c0.52759,2.37748,1.18498,5.42783,1.20266,5.71203c0.05634,0.93082-0.09328,1.70834-0.44556,2.31154
    c-0.45792,0.78658-1.30561,1.27667-2.10883,1.21875c-0.20161-0.01395-0.39944-0.06221-0.58925-0.14155l-0.18767,0.44452
    c0.23802,0.09916,0.48899,0.16032,0.74315,0.17745c0.99786,0.07078,2.00214-0.50079,2.55922-1.45737
    c0.40054-0.68737,0.57212-1.55548,0.50887-2.58228C63.35933,82.02981,62.70194,78.97517,62.17061,76.58216z"/>
  <path fill="#806051" d="M94.70341,74.38806c2.61231-3.24395,3.95762-7.0547,4.28898-13.81015
    c0.34425-7.03054-5.07556-11.87445-9.41335-11.90234c-4.33565-0.02949-8.61227-0.69275-16.37794,2.96728
    c1.63054,5.60425,4.22517,23.55969,6.81552,24.32161C82.18228,76.60143,94.08302,75.15746,94.70341,74.38806z"/>
  <path fill="#806051" d="M67.54749,100.45174c8.83485-19.04922,9.81657-28.76982,5.65361-48.80889
    c0.89974,4.33136,3.16889,10.72379,4.79087,10.90986c3.84769,0.55065,5.02729-9.94099,10.85841-13.73614
    c-3.27025,6.24181-2.95284,12.62567,0.97639,13.94258c2.32653,0.77961,6.61819,0.0504,7.86373,1.74371
    c0.72064-1.80482,1.10081-7.11795,1.31692-7.29919c0.13403,0.61237,0.40965,1.34909,0.36298,1.9748
    c0.09922,20.05515,3.23165,30.88348,1.75282,41.65129c-4.65575,6.05146-23.34412,6.17692-34.53658,6.12865
    C66.58664,106.95841,65.40062,104.52734,67.54749,100.45174z"/>
  <path fill="#F0DBCB" d="M85.03645,79.41322c-5.01983,0.6665-14.33237-1.35387-19.41709-3.87987
    c-2.35014-1.16676-2.46648-1.67079-1.30775-4.14633c0.82787-1.76891,1.45572-2.03218,1.73349-1.98019
    c0.00269,0,2.70829,0.56191,3.68523,0.7448c7.19141,1.34904,10.03428-0.95015,16.00639-1.43651
    C91.77956,72.26579,86.44611,79.19765,85.03645,79.41322z"/>
  <path fill="#F0DBCB" d="M85.11365,79.47866c7.87395-3.1528,13.80796-15.1576,14.15277-20.65944
    c0.16247-2.56674-0.87778-5.4107-3.08363-6.77478c-5.0649-3.13024-5.62039,2.5394-5.74102,2.79411
    c0,0-0.21501,0.53566-0.67347,1.41553c-4.08412,7.837-2.88685,8.89915-5.90502,12.89592
    C83.11096,75.995,83.8059,80.00252,85.11365,79.47866z"/>
  <path fill="#F0DBCB" d="M54.39852,63.73182c0.3335-0.30243,0.88256-0.16516,1.4756,0.089
    c0.6161,0.26432,1.76462,0.15225,2.40318,0.34904c-0.1276,0.94641-0.09971,1.18981-0.83215,0.74963
    c-0.46538-0.28046-0.67024-0.58931-0.65843-1.19519c0.00966-0.62411,0.76621-0.70779,1.2434-0.71312
    c1.0912-0.00966,2.26328-0.7555,2.86488,0.15171c0.67886,1.02734,1.13567,1.43864,2.03058,2.29007
    c0.65574,0.62417,0.84769,2.17268,1.43914,2.85577c0.73887,0.85467,1.19569,0.96673,1.6804,1.09811
    c0.39198,0.10619,0.52654,0.6295,0.66486,1.0145c0.20859,0.58386,0.14748,1.21819,0.01021,1.81123
    c-0.25306,1.0906-0.21874,1.40642-0.68846,2.41712c-0.13622,0.29172-0.27453,0.58392-0.4129,0.87614
    c-1.8209-0.88574-3.6922-1.61446-5.5914-2.31313c-1.16351-0.42783-1.13507-0.55438-2.28469-1.01659
    c-0.53138-0.21501,0.15495-0.02465-0.48899-0.22841c-0.43271-0.13676-1.052-0.25954-1.45309-0.5003
    c-0.13029-0.07879-0.36353-0.38495-0.42146-0.56032c-0.28255-0.8595,0.86115-0.79411,0.53511-0.81283
    c-0.81766-0.04667-0.86488-0.61665-0.93241-0.93944c-0.18124-0.85252,0.59732-1.04129,0.9619-1.07561
    c-0.54258-0.04662-1.97689-0.38176-2.18064-0.94263c-0.16944-0.46434-0.13622-1.1013,0.33191-1.37583
    c0.27398-0.15928,0.61445-0.18229,0.92275-0.21397c-0.18712-0.1651-0.55817-0.02839-0.72223-0.22034
    C53.50037,64.39562,54.25269,63.8637,54.39852,63.73182z"/>
  <path fill="#FFF5F1" d="M51.96262,77.62823l-0.18283,0.20754c-0.28419,0.11256-0.90617,0.12167-1.11904-0.14803
    c-0.21232-0.2702,0.9088-0.61017,0.9088-0.61017C51.72186,77.10437,52.08698,77.36446,51.96262,77.62823z"/>
  <path fill="#FFF5F1" d="M51.32669,79.70065l0.39406,0.08253c0.19843,0.01933,0.37803-0.1544,0.40323-0.39088
    c0.02306-0.23593-0.11744-0.44447-0.31472-0.46484l-0.44183,0.03964C51.29183,79.01861,51.16527,79.53922,51.32669,79.70065z"/>
  <path fill="#FFF5F1" d="M52.15078,81.59018l0.39894,0.05573c0.19838,0.00856,0.36622-0.1796,0.37534-0.41553
    c0.00857-0.23808-0.14583-0.43645-0.34371-0.44293l-0.43914,0.06863C52.07089,80.91132,51.97975,81.44056,52.15078,81.59018z"/>
  <path fill="#B17C63" d="M72.20966,51.193c-0.38176,1.21979-1.86592,3.28469-1.26915,3.88147
    c0.59677,0.59732,1.11959-2.53781,2.01554-2.31368c0.89546,0.22363-0.12008,1.49707,1.11959,1.8461
    c1.23966,0.34959,6.10185-4.60051,6.10185-4.60051s-3.26865-1.61231-4.90831-0.97798
    C73.63058,49.66322,72.5078,50.23962,72.20966,51.193z"/>
  <path fill="#D0B69E" d="M86.76407,49.60156l-9.91041,2.67397l-1.48581,2.33136c0,0-1.14314,0.244-1.14314-2.89112
    c0-3.13458,3.05415-6.12064,3.05415-6.12064l9.48521-2.86055V49.60156z"/>
  <path fill="#F0DBCB" d="M67.84618,43.5705c-1.37051-1.03753-0.57481-3.96995-2.55977-4.92169
    c-0.02471,0.01019-0.5416,0.75013-0.27991,1.19356c0.58766,1.59892,0.01823,5.09434,0.01823,5.09434
    s1.06808,0.15279,1.9989-0.38123C67.95446,44.02036,67.84618,43.5705,67.84618,43.5705z"/>
  <path fill="#F0DBCB" d="M86.87448,44.95655c3.9099-4.7351,4.64664-6.75225,4.5791-14.51414
    c-0.07078-8.07666-7.8091-13.90827-15.61815-13.11252c-7.80801,0.793-13.47342,7.95383-12.65411,15.9897
    c0.81717,8.03858,7.10345,15.98382,11.84123,16.35867C78.98286,49.99139,84.72333,47.56296,86.87448,44.95655z"/>
  <path fill="#6D6E70" d="M93.49323,40.23164c-0.2048-0.30188-0.46972-0.69437-0.57695-1.09383
    c-0.07291-0.27292-0.07182-0.54906,0.07291-0.80214c0.09493-0.16782,0.24076-0.30133,0.39038-0.41984
    c0.09224-0.07238,0.55762-0.29276,0.57854-0.38659c0.03004-0.13083-0.77159-1.00589-0.77588-1.39194
    c0.03806-0.82091-0.24987-2.60323-0.24987-2.60537c-0.03536-0.84286,0.29171-2.31149,0.59518-3.92918
    c0.38818-2.07451-1.08576-6.17636-2.26591-6.60211c-0.83221-0.30083-1.59628-0.70455-1.78339-1.20963
    c-0.23165-0.62417-0.45364-1.20914-0.65843-1.73728c-0.64663-1.67238-2.57696-2.86592-3.91688-2.76298
    c-0.63433,0.04876-1.24022,0.13941-1.65091,0.30077c-0.34641-0.28364-1.1432-1.42733-1.91743-1.95602
    c-0.78609-0.53566-2.76463-1.13672-4.04931-0.55444c-0.91473,0.41503-1.87987,0.73568-2.50294,0.6172
    c-0.54368-0.1035-1.12705-0.24186-1.70082-0.39357c-1.83485-0.48471-3.80481,0.51793-4.245,2.01928
    c-0.24345,0.83001-0.18877,1.15873-0.54801,1.62412c-0.63323,0.19305-1.37315,0.51156-1.97585,0.67183
    c-1.98392,0.52655-2.36029,1.90348-1.82842,4.31044c0.10943,0.49866-0.02949,1.27832-0.13298,1.87564
    c0,0,5.78445-0.65311,10.93726,2.34152c2.16939,1.26114,0.41926,7.45305,3.44123,9.44285
    c0.13622,0.08955,0.53621-0.26488,0.75929-0.14638c0.19514,0.10402,0.28952,0.5689,0.31313,0.75442
    c-0.01559-0.12011-0.6424,0.47399-0.65201,0.53512c-0.15659,0.96032-0.10723,1.69115-0.59413,2.59517
    c-0.3614,0.67345-1.40049,1.61929-2.09219,1.93404c-0.69917,0.31796-2.26059-0.63539-2.97157-0.35871
    c-1.41234,0.54959-4.10081,1.68256-5.6418,1.66487c-1.31686-0.01447,0.08576,1.46061,1.2429,1.86592
    c0.19942,0.06973,3.45199-0.38709,4.76243-0.77154c-0.13403,0.28738-0.18767,0.526-0.4472,0.72652
    c-0.2327,0.18015-0.52221,0.29062-0.79246,0.40164c-0.33784,0.13831-1.96355,0.31576-2.05145,0.73618
    c-0.12656,0.6032,1.30077,1.22731,1.98067,1.65036c1.99139,1.24076,5.99408,1.0638,7.27718-0.3732
    c0.9244-1.03536-0.5137-1.62302-0.24988-2.95866c0.14584-0.73783,0.22896-1.48634,0.30775-2.23325
    c0.13996-1.3201,0.55768-2.51258,1.13354-3.704c0.15873-0.32922,0.15176-0.64772,0.04398-0.91903
    c0.08258-0.04182,0.16834-0.09598,0.25948-0.16408c0.47296-0.3571,1.41344-2.39302,1.72976-2.64074
    c1.53567-1.2,1.84451,2.13457,1.44771,4.3973c0.75391,0.03754,1.13622-1.84449,1.14533-1.82733
    c0.25202-0.63646,0.49009-1.18606,0.63483-1.80268c0.83753,1.51045,1.15818,2.98444,1.41821,4.45896
    c0.20216,1.13994-0.14314,2.26969-0.7437,3.39569c-0.77532,1.45468,0.45259,1.4225,1.066,1.03432
    c0.61335-0.38873,1.09059-0.73727,1.82732-1.00965c2.21336-0.81715,2.28365-1.34048,2.87399-1.60053
    c-0.89656-0.14156-1.5507-0.21555-1.81662-0.80482c0.00857-0.0118,0.01768-0.02305,0.02679-0.03485
    c0.60051-0.16729,1.10778-0.39839,1.81767-0.44611c0.64185-0.04343,1.50134,0.09062,2.0129-0.11957
    C94.62994,41.87828,93.58333,40.36569,93.49323,40.23164z"/>
  <path fill="#806051" d="M70.32123,37.91423c0.29704,0.63216,0.2059,1.51152-0.20485,1.96299
    c-0.4091,0.44987-0.98227,0.30241-1.27882-0.33083C68.54003,38.91261,70.02419,37.28152,70.32123,37.91423z"/>
  <path fill="#B17C63" d="M76.01613,56.97795c0,0,0.62142-4.92654,1.26273-4.25466c0.6402,0.67183,2.23269,4.70291,2.23269,4.70291
    l10.38815-8.7206l-3.13512-1.58014l-7.76244,4.21711l-2.986,0.93296C76.01613,52.27553,74.33623,56.64231,76.01613,56.97795z"/>
  <path fill="#B17C63" d="M96.13667,51.21821c-6.23913-4.02894-6.81448,2.81173-6.95658,3.11311
    c-0.00214,0.00319-0.2541,0.64075-0.79784,1.68468c-1.47236,2.82787-2.3603,4.92012-2.98386,6.59036
    c0.28738-0.01559,0.57426-0.03701,0.86647-0.03382c4.75442,0.05579,9.80422,0.38824,10.66592,6.95762
    c1.8595-3.74474,2.97315-7.41444,3.09433-9.96081C100.17791,56.46859,98.85622,52.97262,96.13667,51.21821z"/>

</svg>
