<?xml version="1.0" encoding="utf-8"?>
<!DOCTYPE svg PUBLIC "-//W3C//DTD SVG 1.1//EN" "http://www.w3.org/Graphics/SVG/1.1/DTD/svg11.dtd">
<svg version="1.1" xmlns="http://www.w3.org/2000/svg" xmlns:xlink="http://www.w3.org/1999/xlink" x="0px" y="0px" width="160px"
  height="160px" viewBox="0 0 160 160" enable-background="new 0 0 160 160" xml:space="preserve">

  <linearGradient id="SVGID_1_" gradientUnits="userSpaceOnUse" x1="2251.33081" y1="452.74756" x2="2337.74878" y2="452.74756" gradientTransform="matrix(-0.7628 -0.6466 0.6466 -0.7628 1540.30334 1918.76379)">
    <stop  offset="0" style="stop-color:#ACC8E1"/>
    <stop  offset="0.5" style="stop-color:#85B1D4"/>
    <stop  offset="1" style="stop-color:#6EA4CC"/>
  </linearGradient>
  <path fill="url(#SVGID_1_)" d="M100.98074,53.19295c-0.00362-8.72194-7.12548-17.43565-12.64896-20.34533
    c-0.35735,4.26135-2.92196,4.32076-6.06412,4.32233c-3.14472,0.00152-5.71032-0.05584-6.07182-4.32028
    c-5.52242,2.91792-12.62945,11.64033-12.6264,20.36169l0.01536,32.06651c0.00157,1.48226,0.52995,2.89129,1.48174,4.17332
    c-0.92264,2.28915-1.4766,4.6218-1.47508,6.51621c0,1.48122,0.52791,2.88924,1.4797,4.17175
    c-0.9206,2.29019-1.47561,4.62337-1.47456,6.51626c0,1.47912,0.52838,2.88919,1.48017,4.17023
    c-0.92107,2.29271-1.4766,4.6228-1.47508,6.51668c0.00157,1.48174,0.52843,2.89076,1.4797,4.17128
    c-0.92055,2.29172-1.47556,4.62542-1.47456,6.51727c0,0.92462,0.22528,1.81654,0.61646,2.67261
    c-0.39013,0.85863-0.61494,1.91234-0.61494,2.6747c0.00461,4.85374,8.37942,8.78438,18.71049,8.77924
    c10.33061-0.00356,18.70384-3.94138,18.70081-8.79512c0-0.76184-0.22786-1.81813-0.61593-2.67775
    c0.38708-0.85506,0.61388-1.74745,0.61388-2.67213c0-1.89697-0.55962-4.22397-1.48273-6.51469
    c0.94922-1.28204,1.47865-2.69205,1.47812-4.17432c-0.00105-1.89487-0.56062-4.22397-1.48326-6.51363
    c0.94975-1.28204,1.4797-2.69311,1.47713-4.17333c0-1.89593-0.55962-4.22449-1.48174-6.51516
    c0.94928-1.28204,1.47765-2.69106,1.47765-4.17227c-0.00204-1.89803-0.56015-4.22502-1.48279-6.51574
    c0.94928-1.28204,1.47765-2.69106,1.47561-4.1738L100.98074,53.19295z"/>

  <linearGradient id="SVGID_2_" gradientUnits="userSpaceOnUse" x1="2320.54785" y1="456.548" x2="2299.74658" y2="485.17856" gradientTransform="matrix(-0.7628 -0.6466 0.6466 -0.7628 1540.30334 1918.76379)">
    <stop  offset="0" style="stop-color:#E6EBF1"/>
    <stop  offset="0.5" style="stop-color:#D9DBDC"/>
    <stop  offset="1" style="stop-color:#D5DBDF"/>
  </linearGradient>
  <path fill="url(#SVGID_2_)" d="M82.27737,57.72568c-6.61195,0.00304-12.41083-1.30768-15.73779-3.28089l0.01075,20.14359
    c0,2.60198,6.46551,5.49836,15.73936,5.49632c9.27228-0.00462,15.7337-2.90613,15.7337-5.50659l-0.01174-20.14359
    C94.68673,56.40982,88.88937,57.72463,82.27737,57.72568z"/>

  <linearGradient id="SVGID_3_" gradientUnits="userSpaceOnUse" x1="2328.85938" y1="501.84714" x2="2335.92334" y2="491.37415" gradientTransform="matrix(-0.7628 -0.6466 0.6466 -0.7628 1540.30334 1918.76379)">
    <stop  offset="0" style="stop-color:#ACC8E1"/>
    <stop  offset="0.5" style="stop-color:#85B1D4"/>
    <stop  offset="1" style="stop-color:#6EA4CC"/>
  </linearGradient>
  <path fill="url(#SVGID_3_)" d="M88.40346,31.82159c0.00356,5.34322-2.74532,5.34836-6.13579,5.34836
    c-3.38946,0.00357-6.14297,0.001-6.14401-5.34018c-0.00356-5.34783,2.74947-5.34935,6.13888-5.3504
    C85.65299,26.47632,88.40194,26.47632,88.40346,31.82159z"/>

  <linearGradient id="SVGID_4_" gradientUnits="userSpaceOnUse" x1="2333.25659" y1="497.74777" x2="2328.68213" y2="492.94452" gradientTransform="matrix(-0.7628 -0.6466 0.6466 -0.7628 1540.30334 1918.76379)">
    <stop  offset="0" style="stop-color:#ACC8E1"/>
    <stop  offset="0.5" style="stop-color:#85B1D4"/>
    <stop  offset="1" style="stop-color:#6EA4CC"/>
  </linearGradient>
  <path fill="url(#SVGID_4_)" d="M82.20315,30.05566c-2.97461,0-4.61035-1.45654-4.61133-1.93896
    c0-0.48291,1.63672-1.94336,4.61328-1.94629c2.98047,0,4.61523,1.45898,4.61621,1.94238
    c0,0.48291-1.63672,1.94141-4.61523,1.94287H82.20315z"/>
  <path fill="#C5C7C9" d="M82.21266,26.60413c2.60377,0,3.94727,1.12378,4.15723,1.50861
    c-0.20947,0.38458-1.55395,1.50818-4.16674,1.50952c-2.60853,0-3.95154-1.12225-4.15992-1.50549
    c0.20826-0.38428,1.55201-1.5105,4.16151-1.51263H82.21266 M82.21266,25.737c-0.00268,0-0.00525,0-0.00793,0
    c-3.13147,0.00256-5.04676,1.54266-5.04627,2.38031c0.00098,0.83832,1.91541,2.37207,5.04469,2.37207
    c0.00121,0,0.00195,0,0.00305,0c3.13195-0.00159,5.04834-1.53857,5.04883-2.37726
    C87.25356,27.27576,85.33876,25.737,82.21266,25.737L82.21266,25.737z"/>

  <linearGradient id="SVGID_5_" gradientUnits="userSpaceOnUse" x1="2177.80273" y1="77.38448" x2="2170.98438" y2="92.00686" gradientTransform="matrix(-0.466 -0.8848 0.8848 -0.466 1020.49121 1987.67834)">
    <stop  offset="0" style="stop-color:#D0D2D3"/>
    <stop  offset="0.5" style="stop-color:#AAACAF"/>
    <stop  offset="1" style="stop-color:#A6A8AB"/>
  </linearGradient>
  <path fill="url(#SVGID_5_)" d="M90.12276,21.91953c-0.08651-2.95373-3.74734-4.17846-8.17307-4.07041
    c-4.42519,0.10701-7.94311,1.59231-7.85403,4.54704l0.15771,5.34223l0,0l-0.00105,0.00152
    c0.0896,1.74593,3.74986,3.0966,8.17353,3.01827c4.42986-0.07733,7.94316-1.55498,7.85613-3.30039v-0.00204l0,0L90.12276,21.91953z"/>
  <path fill="#E2E3E4" d="M82.17089,22.21035c3.12984-0.0625,5.0007-1.12234,4.97664-1.6794
    c-0.02611-0.5591-1.98757-1.54518-5.11641-1.48274c-3.13242,0.06197-5.00071,1.12433-4.97612,1.68139
    C77.08163,21.28871,79.04,22.2728,82.17089,22.21035z"/>

</svg>
