<svg version="1.1" xmlns="http://www.w3.org/2000/svg" xmlns:xlink="http://www.w3.org/1999/xlink"
 width="160px" height="160px" viewBox="-219 321 160 160">
<rect x="-109.7" y="341.6" fill="#E6CE98" width="14.4" height="100.9"/>
<rect x="-105.1" y="347.2" fill="#AC8457" width="9.7" height="1.3"/>
<rect x="-105.1" y="377.4" fill="#AC8457" width="9.7" height="1.3"/>
<rect x="-101.7" y="352.2" fill="#AC8457" width="6.3" height="0.8"/>
<rect x="-101.7" y="357.2" fill="#AC8457" width="6.3" height="0.8"/>
<rect x="-101.7" y="362.2" fill="#AC8457" width="6.3" height="0.8"/>
<rect x="-101.7" y="367.3" fill="#AC8457" width="6.3" height="0.8"/>
<rect x="-101.7" y="372.3" fill="#AC8457" width="6.3" height="0.8"/>
<rect x="-105.1" y="407.7" fill="#AC8457" width="9.7" height="1.3"/>
<rect x="-101.7" y="382.4" fill="#AC8457" width="6.3" height="0.8"/>
<rect x="-101.7" y="387.5" fill="#AC8457" width="6.3" height="0.8"/>
<rect x="-101.7" y="392.5" fill="#AC8457" width="6.3" height="0.8"/>
<rect x="-101.7" y="397.5" fill="#AC8457" width="6.3" height="0.8"/>
<rect x="-101.7" y="402.5" fill="#AC8457" width="6.3" height="0.8"/>
<polyline fill="#AC8457" points="-95.3,439.1 -95.3,437.9 -105.1,437.9 -105.1,439.1 "/>
<rect x="-101.7" y="412.7" fill="#AC8457" width="6.3" height="0.8"/>
<rect x="-101.7" y="417.7" fill="#AC8457" width="6.3" height="0.8"/>
<rect x="-101.7" y="422.7" fill="#AC8457" width="6.3" height="0.8"/>
<rect x="-101.7" y="427.7" fill="#AC8457" width="6.3" height="0.8"/>
<rect x="-101.7" y="432.7" fill="#AC8457" width="6.3" height="0.8"/>
<path fill="#E6CE98" d="M-139,435.9c-25,0-45.2-6.3-45.2-14v17.9c0,7.8,20.2,14,45.2,14c24.9,0,45.2-6.3,45.2-14v-17.9
C-93.8,429.6-114.1,435.9-139,435.9z"/>
<ellipse fill="#AC8457" cx="-139" cy="421.9" rx="45.2" ry="14"/>
<ellipse fill="#7F6041" cx="-139" cy="421.9" rx="18.2" ry="5.7"/>
<path fill="#AC8457" d="M-104.2,435c0.1,5.4,0.2,8.1,0.3,13.6c0.4-0.2,0.6-0.2,1.1-0.4c-0.1-5.4-0.2-8.1-0.3-13.6
C-103.6,434.8-103.8,434.9-104.2,435z"/>
<path fill="#AC8457" d="M-93.9,431.8c0,3.4,0,5.1,0,8.4c0-0.2,0-0.3,0-0.4c0-3.4,0-5,0-8.4C-93.8,431.6-93.8,431.6-93.9,431.8z"/>
<path fill="#AC8457" d="M-94.7,434c0,3.5,0,5.2,0,8.7c0.1-0.2,0.1-0.2,0.2-0.4c0-3.4,0-5.2,0-8.6C-94.6,433.8-94.6,433.8-94.7,434z"
/>
<path fill="#AC8457" d="M-96.7,436c0,3.5,0,5.3,0.1,8.8c0.2-0.1,0.2-0.2,0.4-0.3c0-3.5,0-5.3-0.1-8.8
C-96.5,435.8-96.6,435.9-96.7,436z"/>
<path fill="#AC8457" d="M-99.8,437.9c0,3.5,0.1,5.3,0.1,8.8c0.2-0.1,0.3-0.2,0.6-0.3c0-3.5-0.1-5.3-0.1-8.8
C-99.4,437.7-99.5,437.7-99.8,437.9z"/>
<path fill="#AC8457" d="M-135,440.9c0.1,5.2,0.1,7.7,0.2,12.9c0.5,0,0.8,0,1.3-0.1c-0.1-5.2-0.2-7.7-0.3-12.9
C-134.3,440.8-134.5,440.8-135,440.9z"/>
<path fill="#AC8457" d="M-108.2,441.1c0.1,3.5,0.1,5.3,0.2,8.8c0.3-0.1,0.5-0.1,0.8-0.2c-0.1-3.5-0.1-5.3-0.2-8.8
C-107.8,441-107.9,441-108.2,441.1z"/>
<path fill="#AC8457" d="M-113.2,442.4c0.1,3.5,0.2,5.2,0.3,8.7c0.3-0.1,0.5-0.1,0.8-0.2c-0.1-3.5-0.2-5.2-0.3-8.7
C-112.7,442.3-112.9,442.3-113.2,442.4z"/>
<path fill="#AC8457" d="M-118.5,443.5c0.1,3.5,0.2,5.2,0.3,8.6c0.4-0.1,0.5-0.1,0.9-0.1c-0.1-3.5-0.2-5.2-0.3-8.7
C-117.9,443.4-118.1,443.4-118.5,443.5z"/>
<path fill="#AC8457" d="M-123.8,444.3c0.1,3.4,0.2,5.1,0.3,8.6c0.4,0,0.5-0.1,0.9-0.1c-0.1-3.4-0.2-5.1-0.3-8.6
C-123.3,444.2-123.5,444.3-123.8,444.3z"/>
<path fill="#AC8457" d="M-129.2,444.9c0.1,3.4,0.1,5.1,0.2,8.5c0.4,0,0.5,0,0.9-0.1c-0.1-3.4-0.2-5.1-0.3-8.5
C-128.7,444.9-128.8,444.9-129.2,444.9z"/>
<path fill="#AC8457" d="M-166,437.4c-0.1,5.4-0.1,8.1-0.1,13.5c0.5,0.1,0.8,0.2,1.3,0.3c0.1-5.4,0.1-8.1,0.2-13.4
C-165.2,437.6-165.5,437.5-166,437.4z"/>
<path fill="#AC8457" d="M-139.2,445.4c0,3.4,0,5,0,8.4c0.3,0,0.5,0,0.8,0c0-3.4,0-5,0-8.4C-138.7,445.4-138.9,445.4-139.2,445.4z"/>
<path fill="#AC8457" d="M-144.2,445.3c0,3.4,0,5.1-0.1,8.4c0.3,0,0.5,0,0.9,0c0-3.4,0-5.1,0-8.4
C-143.6,445.3-143.8,445.3-144.2,445.3z"/>
<path fill="#AC8457" d="M-149.4,444.9c0,3.4-0.1,5.1-0.1,8.5c0.4,0,0.5,0,0.9,0.1c0-3.4,0.1-5.1,0.1-8.5
C-148.9,444.9-149.1,444.9-149.4,444.9z"/>
<path fill="#AC8457" d="M-154.8,444.2c0,3.4-0.1,5.2-0.1,8.6c0.4,0,0.5,0.1,0.9,0.1c0-3.4,0.1-5.1,0.1-8.6
C-154.3,444.3-154.5,444.3-154.8,444.2z"/>
<path fill="#AC8457" d="M-160.2,443.3c0,3.5-0.1,5.2-0.1,8.7c0.4,0.1,0.5,0.1,0.9,0.1c0-3.5,0.1-5.2,0.1-8.7
C-159.7,443.4-159.9,443.4-160.2,443.3z"/>
<path fill="#AC8457" d="M-184.2,439.8c0,0.3,0,0.4,0,0.6c0-5.2,0-7.8,0-13c0-0.2,0-0.3,0-0.5"/>
<path fill="#AC8457" d="M-170.5,440.9c0,3.5,0,5.3-0.1,8.9c0.3,0.1,0.5,0.1,0.8,0.2c0-3.5,0.1-5.3,0.1-8.9
C-170,441-170.2,441-170.5,440.9z"/>
<path fill="#AC8457" d="M-174.9,439.4c0,3.6,0,5.3-0.1,8.9c0.3,0.1,0.4,0.2,0.7,0.3c0-3.6,0-5.3,0.1-8.9
C-174.5,439.5-174.6,439.5-174.9,439.4z"/>
<path fill="#AC8457" d="M-178.6,437.7c0,3.6,0,5.3,0,8.9c0.2,0.1,0.3,0.2,0.6,0.3c0-3.6,0-5.3,0-8.9
C-178.2,437.8-178.3,437.8-178.6,437.7z"/>
<path fill="#AC8457" d="M-181.5,435.8c0,3.5,0,5.3,0,8.8c0.2,0.1,0.2,0.2,0.4,0.3c0-3.5,0-5.3,0-8.9
C-181.2,436-181.3,435.9-181.5,435.8z"/>
<path fill="#AC8457" d="M-183.4,433.8c0,3.5,0,5.2,0,8.7c0.1,0.2,0.1,0.2,0.2,0.4c0-3.5,0-5.2,0-8.7
C-183.2,434-183.3,434-183.4,433.8z"/>
</svg>
