<svg version="1.1" xmlns="http://www.w3.org/2000/svg" xmlns:xlink="http://www.w3.org/1999/xlink"
 width="160px" height="160px" viewBox="-219 321 160 160">
<path fill="#62696A" d="M-140.9,438.4l-7.3,1.2c0,0,0-0.3,0-0.8c0-0.3,0-0.6,0-1c-4.2-9.1-5.1-18.8,0.2-27.7c0.9-1.3,4.4-0.4,6.6,0
c-4,7.5-2.2,15.5,0.2,23.4c0.1,0.5,0.2,0.9,0.3,1.4c0,0.6,0,1.1,0,1.6C-140.9,438.4-140.9,438.4-140.9,438.4z"/>
<path fill="#62696A" d="M-150.3,445.6c-1.1-1.2-2.9-2.6-2.9-3.2c2.8-4.8,9.1-5.7,13.9-8.5c0.4-0.3,0.7-0.5,1.1-0.8
c4.4-3.1,8.1-7,10-12.2c0.3-0.4,0.6-0.8,0.9-1.2c4.2-5.2,9.5-9.5,16-12.1c0.6,0,1.8,2,2.9,3.3c-5.6,2.8-10.3,6.4-14.2,10.8
c-0.3,0.3-0.6,0.7-0.9,1c-2.3,5.1-5.8,9-9.9,12.3c-0.4,0.3-0.8,0.6-1.1,0.9c-5,3.2-11,4.4-15.2,9
C-150.1,445.4-150.3,445.6-150.3,445.6z"/>
<path fill="#5DB3AC" d="M-100.7,385.6c0,6.1-0.7,24.6-6.3,28.6c-4.7,3.3-4.7-11.8-19.4-5c-5.9,2.7-9.8,8.5-15.5,8.8
c-4.2,0.2-10.5-3.4-13.4-4c-13.3-2.7-17.2-2.6-25.2-6.9c-9.6-5.2-7.2-9.2-7.2-21.5c0-23.1,30-35.1,50.2-36.8
C-116.7,347-100.7,365.2-100.7,385.6z"/>
<path fill="#62696A" d="M-133.9,428.3l5.7,4.8c2.7-2.8,5-6,7-9.5l-6.3-5.3C-129.1,422-131.3,425.3-133.9,428.3z"/>
<path fill="#62696A" d="M-153.5,440.5c-1.2,2.9-2.9,6.8-4.2,8.4l3,2.5c1.4-1.5,4.6-4.1,6.1-6.8L-153.5,440.5z M-154.8,449.7
c-0.7,0-1.3-0.6-1.3-1.3c0-0.7,0.6-1.3,1.3-1.3s1.3,0.6,1.3,1.3C-153.5,449.1-154.1,449.7-154.8,449.7z"/>
<path fill="#62696A" d="M-134.2,363c0,1.8-1.5,3.3-3.4,3.3c-1.9,0-3.4-1.5-3.4-3.3c0-1.8,1.5-7.5,3.4-7.5
C-135.7,355.5-134.2,361.2-134.2,363z"/>
<path fill="#62696A" d="M-148.3,357.1c-2.1,0.7-4.9,0.7-6.2,0c-1.3-0.7-0.6-1.9,1.5-2.6c2.1-0.7,9.7-2.3,11-1.6
C-140.6,353.6-146.2,356.4-148.3,357.1z"/>
<path fill="#62696A" d="M-123.6,352.8c1.9,0.3,3.1,1.3,2.6,2.3c-0.5,0.9-2.5,1.5-4.4,1.1c-1.9-0.3-7.5-2.1-7-3
C-131.9,352.2-125.5,352.5-123.6,352.8z"/>
</svg>
