<?xml version="1.0" encoding="utf-8"?>
<!DOCTYPE svg PUBLIC "-//W3C//DTD SVG 1.1//EN" "http://www.w3.org/Graphics/SVG/1.1/DTD/svg11.dtd">
<svg version="1.1" xmlns="http://www.w3.org/2000/svg" xmlns:xlink="http://www.w3.org/1999/xlink" x="0px" y="0px" width="160px"
  height="160px" viewBox="0 0 160 160" enable-background="new 0 0 160 160" xml:space="preserve">
  <linearGradient id="SVGID_1_" gradientUnits="userSpaceOnUse" x1="8.2756" y1="117.80579" x2="154.99463" y2="117.80579">
    <stop  offset="0" style="stop-color:#C1D5AE"/>
    <stop  offset="0.5" style="stop-color:#A9C690"/>
    <stop  offset="1" style="stop-color:#9EBF88"/>
  </linearGradient>
  <path fill="url(#SVGID_1_)" d="M65.72323,140.46545c-6.679,0-12.69086-0.86967-19.0607,0.48643
    c-2.13738,0.08488-4.27711,0.17552-6.41684,0.25072c-10.70028,0.37572-21.39258,0.34476-31.97009-0.73715
    c7.87334-37.53165,48.48493-43.98119,60.93542-45.17783c2.07546-0.1996,4.16467-0.36026,6.26369-0.48186
    c14.19553-0.86797,33.97324-6.3205,46.80984,3.25371c14.71523,10.97455,22.11417,14.14278,32.71007,32.67458
    C121.09769,148.98589,89.77064,142.19669,65.72323,140.46545z"/>
  <linearGradient id="SVGID_2_" gradientUnits="userSpaceOnUse" x1="1110.04456" y1="278.02383" x2="1130.92822" y2="278.02383" gradientTransform="matrix(0.963 0.2695 0.2695 -0.963 -1086.85339 98.5996)">
    <stop  offset="0" style="stop-color:#B3B5B9"/>
    <stop  offset="0.00814" style="stop-color:#B5B6BA"/>
    <stop  offset="0.09692" style="stop-color:#CAC3C0"/>
    <stop  offset="0.19627" style="stop-color:#D9CCC4"/>
    <stop  offset="0.31468" style="stop-color:#E1D1C6"/>
    <stop  offset="0.5" style="stop-color:#E4D3C7"/>
    <stop  offset="0.73142" style="stop-color:#E3D0C4"/>
    <stop  offset="0.92316" style="stop-color:#E0C7B9"/>
    <stop  offset="1" style="stop-color:#DEC2B3"/>
  </linearGradient>
  <path fill="url(#SVGID_2_)" d="M78.4138,113.01801c4.62104,12.34898-3.57644,31.28288-9.87914,37.18742
    c-2.93879,2.7547-7.50391,4.38272-11.52349,3.17117c-9.23003-2.78506-2.94795-9.10327-2.76926-9.49855
    c0.002-0.00229,0.419-0.78702,0.99526-2.2028c5.12469-12.60652,7.69664-12.26923,9.30745-19.79093
    C72.04026,114.1613,77.64651,110.96663,78.4138,113.01801z"/>
  <linearGradient id="SVGID_3_" gradientUnits="userSpaceOnUse" x1="284.66995" y1="922.58173" x2="302.46698" y2="922.58173" gradientTransform="matrix(0.8784 -0.478 -0.478 -0.8784 276.61749 1087.68384)">
    <stop  offset="0" style="stop-color:#B3B5B9"/>
    <stop  offset="0.00814" style="stop-color:#B5B6BA"/>
    <stop  offset="0.09692" style="stop-color:#CAC3C0"/>
    <stop  offset="0.19627" style="stop-color:#D9CCC4"/>
    <stop  offset="0.31468" style="stop-color:#E1D1C6"/>
    <stop  offset="0.5" style="stop-color:#E4D3C7"/>
    <stop  offset="0.73142" style="stop-color:#E3D0C4"/>
    <stop  offset="0.92316" style="stop-color:#E0C7B9"/>
    <stop  offset="1" style="stop-color:#DEC2B3"/>
  </linearGradient>
  <path fill="url(#SVGID_3_)" d="M98.94528,150.89612c-4.43806,6.29124-10.25167-3.3524-11.71475-7.1517
    c-1.52882-3.97023-2.28887-8.42404-2.71252-12.64322c-0.16895-1.68254-0.23491-3.34782-0.28913-5.03435
    c-0.04993-1.55231,1.50843-3.3427,5.21216-3.4798c3.03836-0.11067,7.05048,0.33101,7.98812,3.0937
    C99.54075,131.90314,104.44604,143.08704,98.94528,150.89612z"/>
  <linearGradient id="SVGID_4_" gradientUnits="userSpaceOnUse" x1="-2136.30615" y1="-696.3382" x2="-2108.87671" y2="-697.05524" gradientTransform="matrix(-0.8588 0.5124 -0.5124 -0.8588 -2094.54224 607.68848)">
    <stop  offset="0" style="stop-color:#EC7B31"/>
    <stop  offset="0.18265" style="stop-color:#D47632"/>
    <stop  offset="0.5" style="stop-color:#A36C35"/>
    <stop  offset="0.74078" style="stop-color:#99856D"/>
    <stop  offset="1" style="stop-color:#8EA2AD"/>
  </linearGradient>
  <path fill="url(#SVGID_4_)" d="M65.87784,113.3163c7.61604-4.99475,15.17735-14.28101,22.58604-12.19003
    c7.41039,2.0915,9.72763,18.71819,10.20121,26.13028c-1.13037,3.90086-8.45617,7.35365-14.76551,5.15312
    c-2.15916-8.07582-9.41183-12.8876-16.64013-17.95007C66.39465,113.74829,65.87784,113.3163,65.87784,113.3163z"/>
  <linearGradient id="SVGID_5_" gradientUnits="userSpaceOnUse" x1="-2338.53149" y1="-206.52734" x2="-2305.28931" y2="-207.39633" gradientTransform="matrix(-0.9965 0.0832 -0.0832 -0.9965 -2257.16724 106.8888)">
    <stop  offset="0" style="stop-color:#EC7B31"/>
    <stop  offset="0.18265" style="stop-color:#D47632"/>
    <stop  offset="0.5" style="stop-color:#A36C35"/>
    <stop  offset="0.74078" style="stop-color:#99856D"/>
    <stop  offset="1" style="stop-color:#8EA2AD"/>
  </linearGradient>
  <path fill="url(#SVGID_5_)" d="M60.98688,106.80078c9.08171,0.69239,22.21314-2.22631,27.91063,2.94971
    c2.87229,2.59058-4.32963,4.35688-5.17486,9.99873c-0.73715,4.91962-2.48648,9.80824-4.5482,12.58701
    c-3.39116,4.47905-13.36575,0.33847-20.5659,1.25172c1.60735-8.20435,5.40923-16.61634,2.77502-25.03868
    C61.13344,107.45705,60.98688,106.80078,60.98688,106.80078z"/>
  <linearGradient id="SVGID_6_" gradientUnits="userSpaceOnUse" x1="-751.76178" y1="1164.72473" x2="-738.46411" y2="1160.67065" gradientTransform="matrix(-0.5292 0.8485 -0.8485 -0.5292 679.46332 1331.33826)">
    <stop  offset="0" style="stop-color:#DEC2B3"/>
    <stop  offset="0.07684" style="stop-color:#E0C7B9"/>
    <stop  offset="0.26858" style="stop-color:#E3D0C4"/>
    <stop  offset="0.5" style="stop-color:#E4D3C7"/>
    <stop  offset="0.68532" style="stop-color:#E1D1C6"/>
    <stop  offset="0.80373" style="stop-color:#D9CCC4"/>
    <stop  offset="0.90308" style="stop-color:#CAC3C0"/>
    <stop  offset="0.99186" style="stop-color:#B5B6BA"/>
    <stop  offset="1" style="stop-color:#B3B5B9"/>
  </linearGradient>
  <path fill="url(#SVGID_6_)" d="M75.7538,85.00323c4.0614,3.58472,13.5731,6.73692,19.56113,8.13092
    c0,0,2.89668-1.1427,3.3034-3.42241c0.29083-1.62803-0.07372-2.10701-0.32672-2.20164
    c-0.00259-0.00117-2.46439-0.13194-3.3538-0.46294c-6.54507-2.43573-8.41206-7.9732-13.42773-11.96464
    C74.02538,74.63161,74.62971,83.97179,75.7538,85.00323z"/>
  <linearGradient id="SVGID_7_" gradientUnits="userSpaceOnUse" x1="956.13226" y1="-1361.17798" x2="971.43805" y2="-1361.17798" gradientTransform="matrix(-0.9739 -0.227 -0.227 0.9739 713.04102 1615.32935)">
    <stop  offset="0" style="stop-color:#B3B5B9"/>
    <stop  offset="0.00814" style="stop-color:#B5B6BA"/>
    <stop  offset="0.09692" style="stop-color:#CAC3C0"/>
    <stop  offset="0.19627" style="stop-color:#D9CCC4"/>
    <stop  offset="0.31468" style="stop-color:#E1D1C6"/>
    <stop  offset="0.5" style="stop-color:#E4D3C7"/>
    <stop  offset="0.73142" style="stop-color:#E3D0C4"/>
    <stop  offset="0.92316" style="stop-color:#E0C7B9"/>
    <stop  offset="1" style="stop-color:#DEC2B3"/>
  </linearGradient>
  <path fill="url(#SVGID_7_)" d="M75.74915,85.00952c-3.59417-8.45499,1.5331-21.88471,5.74025-26.18714
    c1.96191-2.00715,5.67886-3.26463,8.51385-2.54299c6.51006,1.65728,2.57453,6.60046,2.4621,6.88213
    c-0.00117,0.00053-0.11819,0.91837-0.47587,1.92115c-3.18175,8.93227-5.96593,8.04715-6.85769,13.33044
    C80.15051,84.01826,76.3455,86.41328,75.74915,85.00952z"/>
  <linearGradient id="SVGID_8_" gradientUnits="userSpaceOnUse" x1="-17.84168" y1="-2146.61914" x2="-7.82435" y2="-2138.00928" gradientTransform="matrix(-0.9405 0.3399 0.3399 0.9405 820.04132 2109.62671)">
    <stop  offset="0" style="stop-color:#DEC2B3"/>
    <stop  offset="0.07684" style="stop-color:#E0C7B9"/>
    <stop  offset="0.26858" style="stop-color:#E3D0C4"/>
    <stop  offset="0.5" style="stop-color:#E4D3C7"/>
    <stop  offset="0.68532" style="stop-color:#E1D1C6"/>
    <stop  offset="0.80373" style="stop-color:#D9CCC4"/>
    <stop  offset="0.90308" style="stop-color:#CAC3C0"/>
    <stop  offset="0.99186" style="stop-color:#B5B6BA"/>
    <stop  offset="1" style="stop-color:#B3B5B9"/>
  </linearGradient>
  <path fill="url(#SVGID_8_)" d="M111.78159,88.48469c-0.23896-0.41818-0.32526-0.52715-1.0039-0.65568
    c-0.70472-0.13194-1.48463-0.19849-2.16986-0.40497c-0.45113,0.91667-0.62096,1.11633,0.2923,1.16103
    c0.58113,0.02872,0.9468-0.1233,1.29819-0.66772c0.36308-0.56216-0.25905-1.08649-0.68011-1.37562
    c-0.96342-0.65967-1.56001-2.02036-2.63445-1.57351c-1.21643,0.50771-3.26411,2.07259-4.44893,2.24816
    c-0.86826,0.12847-1.71696,0.25928-2.59668,0.27991c-0.50882,0.01151-0.9448,0-1.55143,0.02068
    c-0.39263,0.01316-0.76693,0.19273-1.0876,0.39697c-0.48592,0.31092-0.78045,0.78415-0.99097,1.26431
    c-0.38723,0.8823-0.55159,1.75309-0.73685,2.9308c-0.05363,0.34129-0.10497,0.68323-0.15637,1.0251
    c2.14636,0.29829,4.24332,0.76752,6.34687,1.27922c1.28815,0.31321,2.57453,0.62989,3.87103,0.90521
    c0.59917,0.12624,1.18459,0.31667,1.77541,0.47616c0.46958,0.12559,1.02516,0.31203,1.51448,0.19961
    c0.15831-0.03554,0.49619-0.27074,0.61379-0.43023c0.57191-0.78132-0.61408-1.09336-0.27591-1.00389
    c0.84782,0.22257,1.08391-0.34077,1.25972-0.64704c0.46635-0.80659-0.26328-1.2569-0.62302-1.4118
    c0.56821,0.13082,1.11034,0.16119,1.50385-0.34246c0.32555-0.41648,0.50312-1.07556,0.1176-1.50984
    c-0.22546-0.253-0.56445-0.38893-0.86791-0.52316c0.24519-0.10674,0.57767,0.15602,0.80794,0.01551
    C112.47598,89.45821,111.88657,88.66772,111.78159,88.48469z"/>
  <linearGradient id="SVGID_9_" gradientUnits="userSpaceOnUse" x1="1999.06433" y1="394.83902" x2="1998.9812" y2="396.64429" gradientTransform="matrix(0.314 -0.9494 -0.9494 -0.314 -142.61861 2109.22534)">
    <stop  offset="0" style="stop-color:#231F20;stop-opacity:0.3"/>
    <stop  offset="1" style="stop-color:#231F20;stop-opacity:0"/>
  </linearGradient>
  <path fill="url(#SVGID_9_)" d="M109.51768,86.54404c-0.43257-0.29483-0.79624-0.73539-1.15562-1.0899
    c0.56674,0.60175-0.08776,2.68925-0.08776,2.68925c0.52433,0.15772,1.64265,0.1216,2.00027-0.39926
    C110.47512,87.2336,109.90203,86.80796,109.51768,86.54404z"/>
  <linearGradient id="SVGID_10_" gradientUnits="userSpaceOnUse" x1="-2426.45483" y1="1905.45972" x2="-2398.27979" y2="1902.41602" gradientTransform="matrix(0.6504 0.7596 -0.7596 0.6504 3094.24609 663.04108)">
    <stop  offset="0" style="stop-color:#B3B5B9"/>
    <stop  offset="0.00814" style="stop-color:#B5B6BA"/>
    <stop  offset="0.09692" style="stop-color:#CAC3C0"/>
    <stop  offset="0.19627" style="stop-color:#D9CCC4"/>
    <stop  offset="0.31468" style="stop-color:#E1D1C6"/>
    <stop  offset="0.5" style="stop-color:#E4D3C7"/>
    <stop  offset="0.73142" style="stop-color:#E3D0C4"/>
    <stop  offset="0.92316" style="stop-color:#E0C7B9"/>
    <stop  offset="1" style="stop-color:#DEC2B3"/>
  </linearGradient>
  <path fill="url(#SVGID_10_)" d="M66.99845,80.61364c-2.79482-3.47058-4.23381-7.54749-4.58838-14.7749
    c-0.36855-7.52171,5.42962-12.70408,10.07075-12.73387c4.63883-0.0316,9.21394-0.7412,17.52243,3.17453
    c-1.74475,5.99583-4.52065,25.20562-7.29226,26.02078C80.39434,82.9817,67.66241,81.43685,66.99845,80.61364z"/>
  <linearGradient id="SVGID_11_" gradientUnits="userSpaceOnUse" x1="-2444.70825" y1="1880.29285" x2="-2416.74585" y2="1877.27209" gradientTransform="matrix(0.6504 0.7596 -0.7596 0.6504 3094.24609 663.04108)">
    <stop  offset="0" style="stop-color:#B3B5B9"/>
    <stop  offset="0.00814" style="stop-color:#B5B6BA"/>
    <stop  offset="0.09692" style="stop-color:#CAC3C0"/>
    <stop  offset="0.19627" style="stop-color:#D9CCC4"/>
    <stop  offset="0.31468" style="stop-color:#E1D1C6"/>
    <stop  offset="0.5" style="stop-color:#E4D3C7"/>
    <stop  offset="0.73142" style="stop-color:#E3D0C4"/>
    <stop  offset="0.92316" style="stop-color:#E0C7B9"/>
    <stop  offset="1" style="stop-color:#DEC2B3"/>
  </linearGradient>
  <path fill="url(#SVGID_11_)" d="M77.21858,50.41097c-4.89325-3.46941-7.41216-7.54691-8.03282-14.77438
    c-0.64592-7.52112,6.81581-13.70962,14.94132-13.74005c8.12141-0.03154,14.60197,6.07267,14.47145,13.62991
    c-0.12794,7.55901-5.9049,15.57174-10.75709,16.38637C83.78515,52.59488,78.38108,51.23477,77.21858,50.41097z"/>
  <path fill="#808184" d="M84.00661,38.34083c-0.48903,0.25412-0.94421-0.00576-1.01711-0.57996
    c-0.07285-0.57426,0.26504-1.24715,0.75348-1.50126c0.48791-0.25412,0.94339,0.00628,1.01541,0.58113
    C84.83205,37.41553,84.49422,38.08783,84.00661,38.34083z"/>
  <path fill="#808184" d="M94.35409,39.66305c-0.39211,0.3098-0.78732,0.11132-0.88225-0.44286
    c-0.09469-0.5564,0.14686-1.25854,0.53837-1.56834c0.39263-0.31092,0.78761-0.11126,0.88254,0.44285
    C94.98685,38.64999,94.7459,39.35272,94.35409,39.66305z"/>
  <linearGradient id="SVGID_12_" gradientUnits="userSpaceOnUse" x1="1184.27307" y1="-19.22646" x2="1219.04077" y2="-19.22646" gradientTransform="matrix(-0.9955 0.0952 0.0952 0.9955 1283.62854 -65.5768)">
    <stop  offset="0" style="stop-color:#D0D2D3"/>
    <stop  offset="0.5" style="stop-color:#AAACAF"/>
    <stop  offset="1" style="stop-color:#A6A8AB"/>
  </linearGradient>
  <path fill="url(#SVGID_12_)" d="M69.39888,38.21172c-0.79707-3.06098-1.34866-5.52654-0.67406-7.37944
    c0.12536-0.36943,1.12408-0.42676,1.29103-0.78127c0.29141-0.72916,0.70731-2.08469,0.70819-2.08698
    c0.83119-1.6389,1.30935-6.85798,3.1949-8.91964c0,0,3.57644,0.96542,4.45269,0.08371
    c1.86405-1.87698,3.32748-3.22563,3.32748-3.22563s2.83294,1.09683,3.74449,2.03992
    c0.85387-0.22604,2.79135-1.14846,4.56741-1.97278c0,0,2.12681,3.33289,3.54313,3.67882
    c2.15806,0.52662,5.16746,0.78473,5.16746,0.78473s-1.04208,3.61973-0.6824,5.15483
    c1.64583,0.92929,4.89841,3.30769,4.89841,3.30769s-3.48521,3.36902-4.33907,6.63077c0,0-5.10748-7.75456-19.36041-3.84858
    c-4.04854,1.10946-5.64443,3.12066-7.07944,5.20758c-1.43494,2.08639-0.35251,5.26614,0.16207,8.20722
    c-0.90351-1.63431-1.59044-3.09082-2.10583-4.40622c-0.01093,0.02179-0.02356,0.04417-0.03413,0.06656
    C69.84032,39.89596,69.58333,39.04926,69.39888,38.21172z"/>
  <linearGradient id="SVGID_13_" gradientUnits="userSpaceOnUse" x1="68.42165" y1="32.85733" x2="100.49101" y2="32.85733">
    <stop  offset="0" style="stop-color:#8EA2AD"/>
    <stop  offset="0.25922" style="stop-color:#99856D"/>
    <stop  offset="0.5" style="stop-color:#A36C35"/>
    <stop  offset="0.81735" style="stop-color:#D47632"/>
    <stop  offset="1" style="stop-color:#EC7B31"/>
  </linearGradient>
  <path fill="url(#SVGID_13_)" d="M69.68143,39.1204l-1.25978-1.29761l0.36227-2.16035
    c1.96532-3.34669,4.66779-6.46618,9.78391-7.71561c18.20448-4.44804,21.71924,3.46717,21.92319,3.8423l-0.49191,2.28259
    l-1.45997,2.56937c-0.1606-0.27362-4.21143-8.34204-19.49833-4.6087c-4.07034,0.99473-7.57134,4.25073-9.10098,6.85511
    L69.68143,39.1204z"/>
  <polygon fill="#808184" points="88.92705,43.90926 89.90058,42.87893 86.9847,43.58453"/>
  <path fill="#808184" d="M89.25318,41.1293c-0.1606-0.99297-0.54465-2.00433-0.50711-2.00773
    c0.06684-0.00693,0.12394,0.03325,0.13969,0.08946h0.00199l1.01283,3.6679l-0.56393,0.13657
    C89.33665,43.0155,89.40691,42.08045,89.25318,41.1293z"/>
  <linearGradient id="SVGID_14_" gradientUnits="userSpaceOnUse" x1="59.23635" y1="85.03551" x2="96.66365" y2="84.05711">
    <stop  offset="0" style="stop-color:#8ECDE9"/>
    <stop  offset="0.5" style="stop-color:#67BDE0"/>
    <stop  offset="0.58351" style="stop-color:#54B8DD"/>
    <stop  offset="0.8655" style="stop-color:#18A9D2"/>
    <stop  offset="1" style="stop-color:#00A3CE"/>
  </linearGradient>
  <path fill="url(#SVGID_14_)" d="M96.05125,108.49825c-9.45179-20.3801-10.50239-30.77981-6.048-52.21885
    c-0.9626,4.63396-3.39087,11.47303-5.12586,11.6721c-4.11651,0.58912-5.37828-10.63549-11.61701-14.69578
    c3.49902,6.67788,3.15884,13.50773-1.0446,14.91659c-2.48907,0.83414-7.08056,0.05392-8.41317,1.86552
    c-0.77098-1.9309-1.17765-7.61517-1.40916-7.80907c-0.1428,0.65509-0.43827,1.44329-0.38805,2.11276
    c-0.10585,21.4562-3.45713,33.04108-1.87498,44.5611c4.98071,6.47423,24.97501,6.60845,36.9491,6.55682
    C97.07953,115.45943,98.34811,112.85853,96.05125,108.49825z"/>
  <linearGradient id="SVGID_15_" gradientUnits="userSpaceOnUse" x1="176.7778" y1="1220.69983" x2="192.33342" y2="1210.00684" gradientTransform="matrix(0.2503 0.9682 -0.9682 0.2503 1215.05835 -405.59109)">
    <stop  offset="0" style="stop-color:#DEC2B3"/>
    <stop  offset="0.07684" style="stop-color:#E0C7B9"/>
    <stop  offset="0.26858" style="stop-color:#E3D0C4"/>
    <stop  offset="0.5" style="stop-color:#E4D3C7"/>
    <stop  offset="0.68532" style="stop-color:#E1D1C6"/>
    <stop  offset="0.80373" style="stop-color:#D9CCC4"/>
    <stop  offset="0.90308" style="stop-color:#CAC3C0"/>
    <stop  offset="0.99186" style="stop-color:#B5B6BA"/>
    <stop  offset="1" style="stop-color:#B3B5B9"/>
  </linearGradient>
  <path fill="url(#SVGID_15_)" d="M77.34047,85.98992c5.39749-0.47387,14.6502-4.75327,19.37134-8.57553
    c2.18214-1.76625,2.18619-2.31924,0.39926-4.63449c-1.27669-1.6544-1.99346-1.78293-2.27166-1.66357
    c-0.00288,0.00053-2.69672,1.21725-3.67424,1.63602c-7.19475,3.08453-10.69917,1.34577-17.04862,2.22977
    C68.63365,80.09736,75.81889,86.09319,77.34047,85.98992z"/>
  <linearGradient id="SVGID_16_" gradientUnits="userSpaceOnUse" x1="1307.54126" y1="-498.61478" x2="1322.09302" y2="-498.61478" gradientTransform="matrix(-0.8355 0.5494 0.5494 0.8355 1444.56958 -234.78751)">
    <stop  offset="0" style="stop-color:#B3B5B9"/>
    <stop  offset="0.00814" style="stop-color:#B5B6BA"/>
    <stop  offset="0.09692" style="stop-color:#CAC3C0"/>
    <stop  offset="0.19627" style="stop-color:#D9CCC4"/>
    <stop  offset="0.31468" style="stop-color:#E1D1C6"/>
    <stop  offset="0.5" style="stop-color:#E4D3C7"/>
    <stop  offset="0.73142" style="stop-color:#E3D0C4"/>
    <stop  offset="0.92316" style="stop-color:#E0C7B9"/>
    <stop  offset="1" style="stop-color:#DEC2B3"/>
  </linearGradient>
  <path fill="url(#SVGID_16_)" d="M77.34047,85.98992c-8.60361-3.22046-14.80445-16.18958-15.02385-22.20315
    c-0.10356-2.80516,1.12861-5.94931,3.60481-7.50737c5.68603-3.57608,6.13229,2.61471,6.25852,2.89009
    c0,0.00111,0.22169,0.58054,0.70214,1.52993c4.28087,8.46017,2.92734,9.6585,6.14321,13.94541
    C79.65519,82.1172,78.76971,86.52454,77.34047,85.98992z"/>
  <linearGradient id="SVGID_17_" gradientUnits="userSpaceOnUse" x1="745.80762" y1="-1614.35596" x2="755.82452" y2="-1605.74646" gradientTransform="matrix(-0.4016 0.9158 0.9158 0.4016 1876.80225 28.2518)">
    <stop  offset="0" style="stop-color:#DEC2B3"/>
    <stop  offset="0.07684" style="stop-color:#E0C7B9"/>
    <stop  offset="0.26858" style="stop-color:#E3D0C4"/>
    <stop  offset="0.5" style="stop-color:#E4D3C7"/>
    <stop  offset="0.68532" style="stop-color:#E1D1C6"/>
    <stop  offset="0.80373" style="stop-color:#D9CCC4"/>
    <stop  offset="0.90308" style="stop-color:#CAC3C0"/>
    <stop  offset="0.99186" style="stop-color:#B5B6BA"/>
    <stop  offset="1" style="stop-color:#B3B5B9"/>
  </linearGradient>
  <path fill="url(#SVGID_17_)" d="M104.68582,62.26835c-0.46752-0.11478-0.60633-0.12735-1.16679,0.2765
    c-0.58143,0.4193-1.16737,0.93846-1.78869,1.29296c0.35339,0.95861,0.38153,1.2196,1.0429,0.58859
    c0.42077-0.40156,0.56304-0.77098,0.41019-1.40087c-0.15631-0.64992-0.96548-0.56104-1.46484-0.4549
    c-1.14211,0.24378-2.53982-0.26158-2.95571,0.8255c-0.47011,1.23105-0.85187,1.76683-1.58732,2.86477
    c-0.53866,0.8043-0.37888,2.46557-0.83724,3.31686c-0.5725,1.06411-1.0234,1.28844-1.49892,1.53857
    c-0.38435,0.2019-0.40273,0.77956-0.45777,1.21384c-0.08236,0.65855,0.12994,1.30677,0.4116,1.8936
    c0.51799,1.07961,0.55588,1.41808,1.28181,2.36342c0.21024,0.27367,0.42247,0.54612,0.635,0.81863
    c1.69517-1.34924,3.4798-2.54587,5.29997-3.71783c1.11515-0.71765,2.23096-1.43124,3.32314-2.18161
    c0.50453-0.34763,1.04607-0.64075,1.56811-0.95914c0.41472-0.25353,0.93359-0.52773,1.18917-0.95914
    c0.08259-0.13998,0.14539-0.54671,0.11044-0.74173c-0.17153-0.95285-1.21472-0.30804-0.91755-0.49161
    c0.74602-0.46124,0.49937-1.02111,0.39921-1.35899c-0.26357-0.89429-1.09219-0.67518-1.45274-0.52145
    c0.48644-0.32126,0.88201-0.69409,0.7879-1.32627c-0.07742-0.52257-0.4331-1.10487-1.01306-1.1249
    c-0.339-0.01093-0.67088,0.14051-0.97693,0.26845c0.09151-0.25071,0.51082-0.31092,0.56732-0.57537
    C105.86923,62.43524,104.89059,62.31881,104.68582,62.26835z"/>
  <linearGradient id="SVGID_18_" gradientUnits="userSpaceOnUse" x1="1109.67151" y1="665.49274" x2="1109.58826" y2="667.29803" gradientTransform="matrix(-0.4718 -0.8817 -0.8817 0.4718 1212.88892 726.68451)">
    <stop  offset="0" style="stop-color:#231F20;stop-opacity:0.3"/>
    <stop  offset="1" style="stop-color:#231F20;stop-opacity:0"/>
  </linearGradient>
  <path fill="url(#SVGID_18_)" d="M101.71948,62.57293c-0.51141,0.11014-1.08109,0.07055-1.58614,0.08664
    c0.82661,0.00341,1.59701,1.17824,1.59701,1.17824c0.47587-0.27074,0.93305-0.64017,1.38049-0.98668
    C102.8791,62.35323,102.17549,62.47601,101.71948,62.57293z"/>
  <path fill="#FFF4F0" d="M108.60672,87.06837l0.15749,0.25012c0.28137,0.16747,0.93734,0.28166,1.2075,0.03325
    c0.26933-0.25007-0.85734-0.79848-0.85734-0.79848C108.94889,86.55555,108.51955,86.7689,108.60672,87.06837z"/>
  <path fill="#FFF4F0" d="M108.92827,89.36529l-0.43057,0.02061c-0.21223-0.01263-0.37313-0.22716-0.35909-0.48068
    c0.01434-0.25359,0.19791-0.44978,0.41019-0.43827l0.46059,0.11701C109.08053,88.65051,109.12559,89.22243,108.92827,89.36529z"/>
  <path fill="#FFF4F0" d="M107.73852,91.22217l-0.43052-0.00804c-0.21141-0.02467-0.35738-0.25183-0.32702-0.50248
    c0.03125-0.253,0.22775-0.43657,0.43798-0.41019l0.45261,0.14685C107.93783,90.51885,107.94469,91.09312,107.73852,91.22217z"/>
  <path fill="#FFF4F0" d="M107.66908,93.14679l-0.42623-0.06544c-0.20566-0.05392-0.31979-0.29711-0.2567-0.54148
    c0.06367-0.24612,0.28225-0.40273,0.48761-0.34992l0.42905,0.20589C107.95933,92.47443,107.89054,93.04463,107.66908,93.14679z"/>
  <path fill="#FFF4F0" d="M107.39059,94.73064l-0.26475-0.07172c-0.12617-0.04588-0.18932-0.19908-0.1411-0.33959
    c0.04905-0.13998,0.19102-0.21687,0.31779-0.16924l0.2607,0.15373C107.59624,94.35487,107.53256,94.68758,107.39059,94.73064z"/>

</svg>
