<svg xmlns="http://www.w3.org/2000/svg" width="160px" height="160px" viewBox="0 0 160 160">
  <path fill="#e6e7e8" d="M98.1,44.6c1.5,0,2.9,0,4.4,0c6.8,0.7,9.3,5.3,9.8,11.8c-0.1,2.9-0.1,5.9-0.2,8.9
    c-0.4,5.8-1.9,10.6-3.8,15.1c-0.6,1.5-1.7,3.1-2,4.4c-0.4,1.9-0.1,4.3-0.2,6.5c-0.4,10.8-1.7,19.9-4,29.6c-0.6,2.8-1.5,9.4-4,9.6
    c-2.4,0.2-4-4.4-4.7-6.3c-2.3-5.4-3.7-10.4-4.8-16.6c-0.9-5-0.1-10.7-4.6-12.5c-3.6-1.4-7.9,0-9.3,3.1c-1.2,2.4-1.1,6.1-1.6,8.9
    c-1.1,5.9-2.4,11.6-4.2,16.9c-0.8,2.4-1.4,5.2-3.8,6.7c-0.3,0-0.5,0-0.8,0c-2.9-2.1-3.1-5.9-3.7-9.4c-1.5-9.2-2.1-19.4-1.8-30.2
    c0.1-2,0.6-4.2,0.4-6.1c-0.1-1.6-1.1-3.5-1.6-5.2c-1.5-5.3-2.7-10.9-3.1-17c0-2.1-8.1-3.1-8-5.1c0.6-4,9.9-8.4,12.2-10.3
    c6.2-5.1,17.4-0.3,25.7-0.6C89.5,46.4,93.7,44.7,98.1,44.6z"/>
  <path fill="#f5f5f5" d="M87.1,52.2c1.5,0,2.9,0,4.4,0c6.8,0.7,9.3,5.5,9.8,12.1c-0.1,3-0.1,6.1-0.2,9.1c-0.4,6-1.9,11-3.8,15.6
    c-0.6,1.5-1.7,3.2-2,4.5c-0.4,2-0.1,4.5-0.1,6.7c-0.4,11.2-1.7,20.5-4,30.6c-0.7,2.9-1.5,9.7-4,9.9c-2.4,0.2-4-4.6-4.7-6.5
    c-2.3-5.6-3.7-10.7-4.8-17.1c-0.9-5.1-0.1-11.1-4.6-12.9c-3.6-1.4-7.9,0-9.4,3.2c-1.2,2.5-1.1,6.3-1.6,9.1c-1.1,6.1-2.3,12-4.2,17.4
    c-0.8,2.5-1.4,5.4-3.8,6.9c-0.3,0-0.5,0-0.8,0c-2.9-2.2-3.2-6.1-3.7-9.7c-1.5-9.5-2.1-20-1.8-31.2c0.1-2.1,0.6-4.3,0.4-6.3
    c-0.1-1.7-1.1-3.6-1.6-5.4c-1.5-5.4-2.7-11.3-3.1-17.5c0-2.2,0.1-4.3,0.2-6.4c0.6-4.1,1.7-7.5,4-9.5c6.2-5.3,17.4-0.3,25.7-0.6
    C78.5,54.1,82.8,52.3,87.1,52.2z"/>
  <path fill="#a4dbdf" d="M81.8,24.2c-5.7,1.1-9.3,2.3-14.9,10.4c-5.9,8.5-1.6,16.6,14.3,16.6c15.7,0,14.2-13.9,8.1-13.9
    C75.2,37.4,81.8,24.2,81.8,24.2z"/>
</svg>
