<?xml version="1.0" encoding="utf-8"?>
<!DOCTYPE svg PUBLIC "-//W3C//DTD SVG 1.1//EN" "http://www.w3.org/Graphics/SVG/1.1/DTD/svg11.dtd">
<svg version="1.1" xmlns="http://www.w3.org/2000/svg" xmlns:xlink="http://www.w3.org/1999/xlink" x="0px" y="0px" width="160px"
  height="160px" viewBox="0 0 160 160" enable-background="new 0 0 160 160" xml:space="preserve">
  <circle fill="#58595B" cx="59.69626" cy="100.33337" r="45.66667"/>
  <path fill-rule="evenodd" clip-rule="evenodd" fill="#E6E7E8" d="M60.08403,96.73608c0.57911,0,1.15767,0,1.74147,0
    c2.69791,0.29899,3.67725,2.28707,3.87385,5.04146c-0.02887,1.26302-0.05533,2.53073-0.08125,3.79495
    c-0.17068,2.50133-0.74158,4.55414-1.50842,6.46931c-0.25426,0.62852-0.6733,1.30888-0.78865,1.87274
    c-0.16477,0.82397-0.02357,1.84567-0.06003,2.79675c-0.16772,4.63303-0.68626,8.51152-1.57671,12.69375
    c-0.25662,1.19359-0.60502,4.01155-1.58201,4.10925c-0.93227,0.08353-1.56616-1.90457-1.8722-2.67912
    c-0.91166-2.31528-1.47721-4.44469-1.90155-7.09192c-0.34316-2.12701-0.03122-4.59657-1.81512-5.3534
    c-1.40899-0.59682-3.13455,0.01525-3.69781,1.30653c-0.45791,1.04762-0.42964,2.60847-0.64154,3.79495
    c-0.4502,2.51193-0.92986,4.96027-1.64969,7.2203c-0.33545,1.04521-0.54735,2.24706-1.49312,2.85677c-0.10185,0-0.2066,0-0.31134,0
    c-1.15767-0.88989-1.24421-2.53429-1.46666-4.0433c-0.59441-3.94912-0.84573-8.30673-0.71507-12.93976
    c0.02115-0.87695,0.23835-1.7833,0.17538-2.61433c-0.05237-0.69916-0.4373-1.49963-0.63389-2.23645
    c-0.59146-2.2494-1.06582-4.66955-1.21239-7.28032c0.01591-0.89809-3.19518-1.31243-3.17402-2.19763
    c0.24601-1.70206,3.905-3.59246,4.80841-4.40233c2.44835-2.19999,6.89835-0.11179,10.1483-0.25071
    C56.6693,97.52003,58.36076,96.7996,60.08403,96.73608z"/>
  <path fill-rule="evenodd" clip-rule="evenodd" fill="#FFFFFF" d="M55.74999,100.5863c0.58146,0,1.16002,0,1.74148,0
    c2.70026,0.29899,3.6796,2.28593,3.87324,5.04152c-0.02592,1.26181-0.05472,2.52953-0.07829,3.79495
    c-0.17067,2.50127-0.74393,4.55414-1.51138,6.4681c-0.25426,0.62852-0.6733,1.31008-0.78805,1.87273
    c-0.16242,0.82512-0.02356,1.84682-0.05767,2.79675c-0.16772,4.63303-0.68922,8.51157-1.57671,12.6973
    c-0.25957,1.19118-0.60737,4.00914-1.58436,4.1057c-0.92992,0.08473-1.56616-1.90337-1.8728-2.67671
    c-0.91106-2.31769-1.47425-4.44589-1.901-7.09433c-0.34075-2.12585-0.03176-4.59657-1.81271-5.3534
    c-1.40898-0.59682-3.13455,0.01881-3.70015,1.30774c-0.45556,1.04762-0.42965,2.60841-0.64154,3.79495
    c-0.4508,2.51072-0.92751,4.96021-1.65023,7.22024c-0.3349,1.04411-0.54741,2.24947-1.49257,2.85918
    c-0.10239,0-0.20425,0-0.30899,0c-1.16062-0.89224-1.24656-2.53429-1.46961-4.04565
    c-0.59146-3.94913-0.84277-8.30794-0.71447-12.93976c0.02055-0.87809,0.24071-1.78445,0.17773-2.61433
    c-0.05237-0.69922-0.43965-1.50077-0.63389-2.23645c-0.59441-2.24947-1.06817-4.66955-1.21474-7.28032
    c0.01826-0.89816,0.03887-1.78921,0.06002-2.6767c0.24601-1.70206,0.67331-3.1146,1.57671-3.92326
    c2.446-2.19999,6.89835-0.10944,10.14831-0.25191C52.33761,101.3691,54.02906,100.64874,55.74999,100.5863z"/>
  <polygon fill="#C67851" points="79.53721,78.88667 121.79006,28.579 97.84983,10.54831 61.15992,65.04526"/>
  <ellipse transform="matrix(-0.79878 -0.60162 0.60162 -0.79878 83.24506 171.77425)" fill="#9B5C40" cx="70.34857" cy="71.96594" rx="11.50336" ry="2.81815"/>
  <path fill="#BBBDBF" d="M59.47371,77.24342l8.80344,6.63173l5.69006-6.33979c0.56681-0.7522-1.20474-3.04397-3.95737-5.118
    c-2.75378-2.07283-5.44519-3.14281-6.01254-2.39182L59.47371,77.24342z"/>
  <ellipse transform="matrix(-0.79873 -0.60169 0.60169 -0.79873 66.42279 183.33766)" fill="#D0D2D3" cx="63.87543" cy="80.55933" rx="5.51091" ry="1.70832"/>
  <path fill="#D0D2D3" d="M57.82523,91.42269l8.19843-9.2449c0.27663-0.36606-0.46086-1.39011-1.64734-2.28352
    c-1.18594-0.8946-2.37247-1.31955-2.64789-0.95348l-6.62287,10.43259L57.82523,91.42269z"/>
  <ellipse transform="matrix(-0.79865 -0.6018 0.6018 -0.79865 47.16019 196.57512)" fill="#BBBDBF" cx="56.46539" cy="90.39807" rx="1.70267" ry="0.52683"/>
  <path fill="#A4DBDF" d="M55.33155,91.79936c-2.06583,0.39547-3.38122,0.83337-5.4429,3.81611
    c-2.14346,3.10165-0.59797,6.05732,5.2169,6.05732c5.72537,0,5.18037-5.06973,2.94212-5.06973
    C52.91557,96.60307,55.33155,91.79936,55.33155,91.79936z"/>

</svg>
