<svg version="1.1" xmlns="http://www.w3.org/2000/svg" xmlns:xlink="http://www.w3.org/1999/xlink"
 width="160px" height="160px" viewBox="-219 321 160 160">
<path fill="#587582" d="M-73.8,363.6c0.7,2-0.2,4.1-2.1,4.8l-5.8,2.1c-1.9,0.7-4-0.3-4.7-2.3l-2.7-7.2c-0.7-2,0.2-4.1,2.1-4.8
l5.8-2.1c1.9-0.7,4,0.3,4.7,2.3L-73.8,363.6z"/>
<path fill="#F0D0B3" d="M-81.4,362.4c3-8.8-3.2-18.2-12-20.3c-8.8-2.1-17.8,3.5-20,12.6c-2.2,9.1,1.9,21.8,10.7,23.8
C-91.4,381-86.3,376.5-81.4,362.4z"/>
<path fill="#808284" d="M-106.2,362.1c0.5,0.4,1,0.2,1.3-0.4c0.3-0.7,0.1-1.6-0.4-2c-0.5-0.4-1-0.2-1.3,0.4
C-106.9,360.8-106.7,361.7-106.2,362.1z"/>
<path fill="#AFC5E6" d="M-73.1,460.2c-6.7,4.2-31.7,8.4-33.9,3.7c-7.5-16.9-11-42.3-7-62c1.9-9.2,2.1-16.6,10.8-17.7
c1.2-0.2,16.4-0.7,16.6,0.4c0,0,1.2,2.1,0.8,5.7c-3.2,31.6,3.5,44.6,11.5,65C-73.5,458.4-73.1,460.2-73.1,460.2z"/>
<path fill="#AFC5E6" d="M-107.7,385.9c3.3,2.7,9.9,14.7,7.9,16.6c-7.3,6.8-19.6,13.1-30.3,14.5c-5,0.7-8.8,1.9-10.9-2.4
c-0.3-0.6-3.2-8.3-2.7-8.5c0,0,1-0.5,2.8-1.4c12.8-6.7,22.1-9.7,31.1-17.4C-108.6,386.4-107.7,385.9-107.7,385.9z"/>
<path fill="none" d="M-88.9,384.1c4.8,1.3,4.4,5.5,5.1,9.6"/>
<path fill="#587582" d="M-81.4,362.4c3.6-8.6-3.2-18.2-12-20.3c-8.8-2.1-17.8,3.5-20,12.6C-113.4,354.6-89.9,352.3-81.4,362.4z"/>
<path fill="#F0D0B3" d="M-158.2,414.5c3-1.5,6.4-2.4,9.2-4c-0.8-0.6-4.3-0.7-3.5-2.8c0.3-0.9,5.1,0.8,9.8,0.4
c3.9-0.4,7.8,2.7,7.8,5.1c-1.9,0.9-15.9,9.7-16.8,8.1c-0.8-1.5,4.5-3,4.3-3.3c-0.6-0.8-5.4,4.1-6.5,1.9c-0.9-1.7,4.3-3.7,5.3-4.1
c-1,0.6-6.3,4.1-7.2,2.3c-0.9-1.8,7-5.2,6.1-4.6C-152.6,414.1-159.7,418.4-158.2,414.5"/>
<path fill="#F0D0B3" d="M-85.2,451.7c0-3.3,0.6-6.8,0.4-10c-0.9,0.5-2.5,3.6-4.1,2c-0.7-0.7,3-4.2,4.6-8.6c1.4-3.7,5.9-5.8,8-4.8
c0,2.1,1.8,18.6-0.1,18.6c-1.7,0-0.7-5.3-1.1-5.3c-1,0.2,1.3,6.6-1.1,6.7c-1.9,0-1.4-5.5-1.4-6.6c0.1,1.2,0.9,7.5-1.1,7.5
c-2,0-1.6-8.6-1.4-7.5C-83.1,446.5-82.3,454.8-85.2,451.7"/>
<path fill="#F5E0CD" d="M-148.7,411.2c-3.3-0.3-6.8,0.1-10-0.4c0.6-0.9,3.8-2.2,2.3-3.9c-0.7-0.8-4.5,2.6-9,3.9
c-3.8,1.1-6.3,5.4-5.4,7.5c2.1,0.1,18.4,3.3,18.6,1.5c0.2-1.7-5.3-1.2-5.2-1.5c0.3-1,6.5,1.9,6.7-0.6c0.2-1.9-5.4-1.9-6.4-1.9
c1.1,0.2,7.4,1.5,7.6-0.5c0.2-2-8.5-2.3-7.3-2.1C-154.1,412.9-145.8,414.3-148.7,411.2"/>
<path fill="#F05A22" d="M-193.7,439c7.7-5.1,15.4-14.5,22.9-12.4c7.5,2.1,9.9,19,10.3,26.5c-1.1,4-8.6,7.5-15,5.2
c-2.2-8.2-9.5-13.1-16.9-18.2C-193.2,439.5-193.7,439-193.7,439z"/>
<path fill="#EF7D32" d="M-198.7,432.4c9.2,0.7,22.5-2.3,28.3,3c2.9,2.6-4.4,4.4-5.2,10.1c-0.7,5-2.5,9.9-4.6,12.8
c-3.4,4.5-13.6,0.3-20.9,1.3c1.6-8.3,5.5-16.8,2.8-25.4C-198.5,433.1-198.7,432.4-198.7,432.4z"/>
<path fill="#00ADEE" d="M-176.9,407c-0.7,5.5,2.1,15.2,4.4,21c0,0,2.6,1.8,4.8,0.8c1.5-0.7,1.7-1.3,1.7-1.5c0,0-1-2.3-1.3-3.3
c-1.7-6.9,0.5-18.5,0.9-25C-170.4,392.5-176.7,405.5-176.9,407z"/>
<path fill="#00ADEE" d="M-175.3,413.4c-6.1-7-5.3-21.6-2.6-27.1c1.3-2.5,4.5-4.9,7.4-5.1c6.8-0.4,4.7,6.8,4.7,7.9
c-0.3,9.6-0.3,9.6-2.5,15C-171.3,411-174.2,414.5-175.3,413.4z"/>
<path fill="#00ADEE" d="M-192.6,405.9c-2.8-3.5-4.3-7.7-4.7-15c-0.4-7.6,5.5-12.9,10.2-12.9c4.7,0,9.3-0.8,17.8,3.2
c-1.8,6.1-4.6,25.6-7.4,26.4C-179,408.3-191.9,406.7-192.6,405.9z"/>
<path fill="#F5E0CD" d="M-179.8,376.3c-5.4-2.8-8.5-6.5-10.2-13.7c-1.7-7.5,4.9-14.7,13-15.9c8.1-1.2,15.5,4,16.5,11.6
c1,7.6-3.7,16.5-8.4,18C-172.9,377.5-178.5,376.9-179.8,376.3z"/>
<path fill="#808284" d="M-166.1,362.9c-0.6,0.5-1.3,0.4-1.6-0.2c-0.4-0.6-0.2-1.4,0.4-1.9c0.6-0.5,1.3-0.4,1.6,0.2
C-165.4,361.6-165.6,362.4-166.1,362.9z"/>
<path fill="#AAACAF" d="M-191.2,363.2c-1.2-3-2.2-6.2-1.5-8.1c0.2-0.8,3.1-0.4,3.1-0.4c0.6-1.8,3.1-7.7,1.9-9.4c0,0,2.3-1.2,4.5-0.6
c1.6-2.2,2.9-3.7,2.9-3.7s2.9-0.5,4.1,1.5c0.8-0.3,2.6-1.6,4.3-2.6c0,0,3.2,0.9,4.1,3.2c2.2,0.2,5.3,0,5.3,0s1.5,2.3,0.1,5.3
c1.8,0.7,5.4,2.6,5.4,2.6s0.5,2.9-3.9,5c0,0-5.8-4.8-19.5,1.1c-3.9,1.7-5.2,3.9-6.4,6.2c-1.1,2.3,0,5.3,0.9,8.2
c-1.1-1.5-2-2.9-2.7-4.1c-0.3-0.6-2.1,0.4-1.8,1C-192.2,368.1-190.9,364-191.2,363.2z"/>
<path fill="#F5E0CD" d="M-160.7,362.4L-160.7,362.4c0-0.1-0.1-0.1-0.2-0.1c0,0-1.1,4.7-1.1,4.7s0.8,0.2,2,0c1.2-0.2,0.8-1.2,0.8-1.2
L-160.7,362.4z"/>
<path fill="#F0D0B3" d="M-113.2,362.1L-113.2,362.1c0-0.1,0.1-0.1,0.2-0.1c0,0,1.1,6.2,1.1,6.2s-1.1,0.2-2.6-0.1
c-1.5-0.3-1-1.6-1-1.6L-113.2,362.1z"/>
<path fill="#00ADEE" d="M-163.1,434.1c-9.6-20.7-10.6-31.2-6.1-53c-1,4.7-3.4,11.6-5.2,11.8c-4.2,0.6-5.5-10.8-11.8-14.9
c3.5,6.8,3.2,13.7-1.1,15.1c-2.5,0.8-7.2,0.1-8.5,1.9c-0.8-2-1.2-7.7-1.4-7.9c-0.1,0.7-0.4,1.5-0.4,2.1c-0.1,21.8-3.5,33.5-1.9,45.2
c5.1,6.6,25.3,6.7,37.5,6.6C-162.1,441.2-160.8,438.6-163.1,434.1z"/>
<path fill="#F5E0CD" d="M-191.2,413.3c4.6,3,14.7,5.3,20.9,5.1c2.8-0.1,3.2-0.5,3.2-3.5c0-2.1-0.5-2.7-0.8-2.7c0,0-2.9-0.7-4-1
c-7.7-2-12.3-6.3-18-9.5C-197.5,402.5-192.5,412.5-191.2,413.3z"/>
<path fill="#00ADEE" d="M-191.2,413.3c-7.2-5.9-8.9-20.4-7.2-26.2c0.8-2.7,3-5.3,5.9-6c6.6-1.6,5,4.5,5.1,4.8c0,0,0,0.6,0.2,1.7
c1.4,9.5-0.3,10.2,1.4,15.4C-187.7,410.4-190,414.3-191.2,413.3z"/>
<path fill="#AFC5E6" d="M-90.9,432.7c4.5,1.3,19.5-0.5,20-3.6c1.5-10.9-0.8-26-6.4-36.6c-2.6-4.9-4-9.2-9.1-8.3
c-0.7,0.1-9.5,2.4-9.4,3c0,0,0.2,1.3,0.5,3.4c2.2,15.8,5.5,26.1,4.3,39.1C-91,431.6-90.9,432.7-90.9,432.7z"/>
</svg>
