<?xml version="1.0" encoding="utf-8"?>
<!DOCTYPE svg PUBLIC "-//W3C//DTD SVG 1.1//EN" "http://www.w3.org/Graphics/SVG/1.1/DTD/svg11.dtd">
<svg version="1.1" xmlns="http://www.w3.org/2000/svg" xmlns:xlink="http://www.w3.org/1999/xlink" x="0px" y="0px" width="160px"
  height="160px" viewBox="0 0 160 160" enable-background="new 0 0 160 160" xml:space="preserve">
  <path fill="#A36C35" d="M51.10023,100.32398c0-0.90249,1.1855-1.6345,2.64632-1.6345c1.46157,0,2.64707,0.73201,2.64707,1.6345
    c0,0.15548,0,0.7389,0,0.89396c0,0.90286-1.1855,1.63491-2.64707,1.63491c-1.46083,0-2.64632-0.73205-2.64632-1.63491
    C51.10023,101.06288,51.10023,100.47946,51.10023,100.32398z"/>
  <path fill="#C08041" d="M51.56665,95.07267c0-0.74332,0.97617-1.3466,2.1799-1.3466c1.20411,0,2.18024,0.60328,2.18024,1.3466
    c0,0.12794,0.46684,5.09663,0.46684,5.25131c0,0.90366-1.1855,1.63571-2.64707,1.63571c-1.46083,0-2.64632-0.73206-2.64632-1.63571
    C51.10023,100.1693,51.56665,95.20061,51.56665,95.07267z"/>
  <path fill="#A36C35" d="M51.10351,94.81276c-0.01945-0.90208,1.14901-1.69076,2.60984-1.76041
    c1.46-0.07044,2.66046,0.60406,2.68028,1.50656c0.00323,0.15506,0.01621,0.73811,0.01944,0.89275
    c0.01982,0.9025-1.14864,1.6916-2.60947,1.76162c-1.46037,0.07007-2.66042-0.6049-2.68069-1.50735
    C51.11967,95.55087,51.10674,94.96824,51.10351,94.81276z"/>
  <path fill="#C08041" d="M51.45492,89.54205c-0.01621-0.74337,0.94582-1.39321,2.14951-1.45109
    c1.20287-0.0575,2.19201,0.49839,2.20781,1.24134c0.00323,0.12794,0.57816,5.07192,0.58139,5.22661
    c0.01944,0.90245-1.14864,1.69159-2.60901,1.76162c-1.46124,0.07043-2.66171-0.6049-2.68111-1.50777
    C51.10023,94.65807,51.45774,89.66958,51.45492,89.54205z"/>
  <path fill="#A36C35" d="M50.93871,89.70805c-0.05062-0.89964,1.08873-1.7758,2.54508-1.95718
    c1.45594-0.18098,2.67825,0.40162,2.72929,1.30046c0.00891,0.15464,0.04171,0.73608,0.05021,0.89034
    c0.05099,0.90042-1.08831,1.777-2.54467,1.95797c-1.45635,0.18139-2.67829-0.40162-2.72929-1.30167
    C50.98041,90.44371,50.9472,89.86191,50.93871,89.70805z"/>
  <path fill="#C08041" d="M51.10711,84.41669c-0.04208-0.74051,0.89681-1.46282,2.09649-1.61182
    c1.19963-0.14901,2.20619,0.33039,2.24827,1.07131c0.0073,0.12794,0.75229,5.0213,0.7612,5.17516
    c0.05099,0.90046-1.08831,1.77663-2.54508,1.95801c-1.45594,0.18139-2.67867-0.40166-2.72929-1.30128
    C50.93021,89.55337,51.11441,84.54421,51.10711,84.41669z"/>
  <path fill="#A36C35" d="M50.57958,84.28431c-0.0818-0.89478,1.02674-1.85437,2.47543-2.14384
    c1.44823-0.28951,2.68841,0.20203,2.77016,1.09681c0.01377,0.15386,0.06642,0.73202,0.08018,0.88504
    c0.08138,0.89561-1.02679,1.85515-2.47543,2.14425c-1.44868,0.28947-2.6884-0.20161-2.77021-1.09681
    C50.64596,85.01632,50.59335,84.43812,50.57958,84.28431z"/>
  <path fill="#C08041" d="M50.56905,78.98768c-0.0672-0.73691,0.84578-1.52762,2.03898-1.7661
    c1.19317-0.23806,2.21469,0.16642,2.28189,0.90328c0.01132,0.12674,0.92148,4.95935,0.93525,5.11242
    c0.08097,0.89478-1.02758,1.85516-2.47543,2.14421c-1.44864,0.2891-2.68878-0.20203-2.77016-1.09718
    C50.56582,84.13123,50.58037,79.11401,50.56905,78.98768z"/>
  <path fill="#A36C35" d="M50.04392,79.20874c-0.10812-0.88831,0.97049-1.92074,2.40864-2.3054
    c1.43811-0.38503,2.6916,0.02351,2.80014,0.91178c0.01862,0.15266,0.08827,0.72716,0.10688,0.8794
    c0.1085,0.88831-0.97011,1.92074-2.40822,2.30619c-1.43815,0.38466-2.69205-0.0243-2.80014-0.91257
    C50.13261,79.93549,50.06254,79.36176,50.04392,79.20874z"/>
  <path fill="#C08041" d="M49.87348,73.91775c-0.0891-0.73118,0.79922-1.58226,1.98388-1.89926
    c1.18467-0.31704,2.21751,0.01981,2.30619,0.75187c0.0158,0.1255,1.07049,4.89256,1.08915,5.04476
    c0.10809,0.88873-0.97012,1.92157-2.40822,2.30619c-1.43815,0.38466-2.69247-0.02347-2.80056-0.91257
    C50.02568,79.0565,49.88887,74.0437,49.87348,73.91775z"/>
  <path fill="#A36C35" d="M49.29325,73.94125c-0.14776-0.87616,0.88143-2.01224,2.29931-2.53778
    c1.41792-0.52554,2.6872-0.24129,2.83497,0.63445c0.02591,0.15022,0.12065,0.71622,0.14656,0.86684
    c0.14822,0.87534-0.88181,2.01224-2.29968,2.53778c-1.41788,0.52554-2.68679,0.24129-2.83497-0.63446
    C49.41353,74.65747,49.31879,74.09146,49.29325,73.94125z"/>
  <path fill="#C08041" d="M48.88554,68.67863c-0.12144-0.72148,0.7272-1.65755,1.89487-2.08998
    c1.16767-0.43321,2.21303-0.1988,2.33534,0.52231c0.02106,0.12388,1.2867,4.77676,1.31178,4.92697
    c0.14822,0.87576-0.88181,2.01266-2.29931,2.53816c-1.41788,0.52554-2.68716,0.24133-2.83497-0.63483
    C49.26776,73.79105,48.9066,68.80254,48.88554,68.67863z"/>
  <path fill="#A36C35" d="M48.63048,67.80412c-0.04291-0.84946,1.03649-1.66286,2.41105-1.81672
    c1.37459-0.15385,2.52443,0.41016,2.56734,1.25959c0.0073,0.14577,0.03566,0.69478,0.04291,0.84051
    c0.04374,0.84905-1.03649,1.66245-2.41104,1.8163c-1.37455,0.15386-2.52443-0.41053-2.56734-1.25999
    C48.6661,68.49807,48.63778,67.94906,48.63048,67.80412z"/>
  <path fill="#C08041" d="M48.81796,62.81437c-0.03607-0.6988,0.85386-1.36891,1.98592-1.49561
    c1.13205-0.12674,2.07866,0.33806,2.1151,1.03769c0.00564,0.11986,0.68259,4.74476,0.68989,4.89054
    c0.04333,0.84942-1.03608,1.66245-2.41063,1.81667c-1.37497,0.15348-2.52402-0.41012-2.56776-1.25954
    C48.62319,67.65835,48.82402,62.93502,48.81796,62.81437z"/>
  <path fill="#A36C35" d="M48.59566,61.94754c0.04129-0.84947,1.18956-1.41954,2.56453-1.27335
    c1.37497,0.14656,2.45681,0.9539,2.41548,1.80333c-0.00726,0.14577-0.03358,0.69478-0.04088,0.84014
    c-0.04088,0.84984-1.18914,1.4207-2.56411,1.27414c-1.37534-0.14656-2.45677-0.95469-2.41547-1.80416
    C48.56245,62.6419,48.58919,62.09327,48.59566,61.94754z"/>
  <path fill="#C08041" d="M49.27344,57.05336c0.03483-0.70005,0.98019-1.1697,2.11266-1.04905
    c1.13284,0.12065,2.0236,0.78587,1.98956,1.4855c-0.00564,0.12027,0.20729,4.84194,0.2,4.98771
    c-0.04129,0.84943-1.18952,1.41949-2.56448,1.27335c-1.37497-0.14619-2.45681-0.95432-2.41552-1.80333
    C48.60295,61.80135,49.26776,57.1728,49.27344,57.05336z"/>
  <path fill="#A36C35" d="M49.3455,55.90107c0.0988-0.74781,1.16037-1.06808,2.37016-0.71543
    c1.21021,0.35224,2.11104,1.24379,2.01224,1.99201c-0.017,0.12794-0.08138,0.61178-0.09797,0.73931
    c-0.0988,0.74781-1.1612,1.06887-2.37095,0.71584c-1.20979-0.35224-2.11104-1.24461-2.01187-1.99242
    C49.26453,56.51243,49.3285,56.02943,49.3455,55.90107z"/>
  <path fill="#C08041" d="M50.30748,51.66481c0.08221-0.61543,0.95713-0.8794,1.95316-0.58868
    C53.25746,51.36601,54,52.10088,53.9182,52.71631c-0.01455,0.10564-0.1733,4.33257-0.1903,4.46134
    c-0.09917,0.74781-1.16079,1.06725-2.37095,0.71584c-1.21021-0.35265-2.11104-1.24461-2.01145-1.99242
    C49.36212,55.77271,50.29372,51.7709,50.30748,51.66481z"/>
  <path fill="#A36C35" d="M50.77552,50.03963c0.19843-0.60896,1.15917-0.52877,2.14466,0.17894
    c0.98545,0.70776,1.62315,1.77501,1.42435,2.38434c-0.03441,0.10406-0.16273,0.4976-0.19677,0.60207
    c-0.19917,0.60851-1.15995,0.52878-2.14545-0.17815c-0.98545-0.70776-1.62356-1.7758-1.42434-2.38475
    C50.61196,50.53765,50.74073,50.14411,50.77552,50.03963z"/>
  <path fill="#C08041" d="M52.24767,46.72407c0.1636-0.50162,0.95473-0.43566,1.7661,0.14739
    c0.81219,0.58263,1.33769,1.46203,1.17414,1.96323c-0.02873,0.08665-0.80975,3.66337-0.84337,3.76822
    c-0.19917,0.60854-1.15954,0.52836-2.14545-0.17936c-0.98545-0.70771-1.62273-1.77501-1.42356-2.38393
    C50.80956,49.93516,52.21935,46.81031,52.24767,46.72407z"/>
  <path fill="#A36C35" d="M52.98697,45.34546c0.28263-0.44776,1.09967,0.00406,1.82522,1.00979
    c0.72471,1.0049,1.08342,2.1831,0.80005,2.63169c-0.04859,0.07653-0.2308,0.366-0.2794,0.44296
    c-0.28259,0.44818-1.09963-0.00406-1.82518-1.00938c-0.72475-1.00531-1.08346-2.18393-0.80046-2.6321
    C52.75621,45.71146,52.93839,45.42241,52.98697,45.34546z"/>
  <path fill="#C08041" d="M54.86277,43.06116c0.23321-0.36928,0.90656,0.00323,1.50332,0.83118
    c0.59718,0.82882,0.89275,1.79972,0.65954,2.16854c-0.04005,0.06277-1.36485,2.84914-1.4134,2.92605
    c-0.28263,0.4478-1.09967-0.00402-1.82439-1.00975c-0.72517-1.00489-1.08388-2.18393-0.80088-2.63173
    C53.03556,45.26896,54.82272,43.1243,54.86277,43.06116z"/>
  <linearGradient id="SVGID_1_" gradientUnits="userSpaceOnUse" x1="1668.61609" y1="-2615.95532" x2="1695.56067" y2="-2615.95532" gradientTransform="matrix(0.6881 0.7257 0.7257 -0.6881 804.0351 -2968.07764)">
    <stop  offset="0" style="stop-color:#C1D5AE"/>
    <stop  offset="0.5" style="stop-color:#A9C690"/>
    <stop  offset="1" style="stop-color:#9EBF88"/>
  </linearGradient>
  <path fill="url(#SVGID_1_)" d="M67.56342,66.96966c-6.34199-2.70744-5.00712-10.68032-4.20425-15.51862
    c0.81298-4.85529,0.62513-8.10203-0.80411-10.10822c-1.0122-1.41381-4.64799-2.02033-6.06305-1.00896
    c2.42646,0.39884,2.79732,5.02781,3.22974,10.50743C60.11367,55.73871,61.07645,64.23548,67.56342,66.96966z"/>
  <linearGradient id="SVGID_2_" gradientUnits="userSpaceOnUse" x1="-274.64294" y1="72.83908" x2="-247.69821" y2="72.83908" gradientTransform="matrix(0.9413 -0.3378 -0.3378 -0.9413 341.2692 24.1988)">
    <stop  offset="0" style="stop-color:#C1D5AE"/>
    <stop  offset="0.5" style="stop-color:#A9C690"/>
    <stop  offset="1" style="stop-color:#9EBF88"/>
  </linearGradient>
  <path fill="url(#SVGID_2_)" d="M85.73441,45.51793c-5.03186,4.71686-11.79293,0.28628-15.89801-2.39769
    c-4.11839-2.69811-7.16555-3.83298-9.577-3.33215c-1.70171,0.35751-3.72083,3.44148-3.36453,5.14439
    c1.34217-2.06083,5.72864-0.53727,10.91917,1.27256C72.45437,47.81765,80.62038,50.35705,85.73441,45.51793z"/>
  <linearGradient id="SVGID_3_" gradientUnits="userSpaceOnUse" x1="3366.4917" y1="-2746.26392" x2="3379.82642" y2="-2746.26392" gradientTransform="matrix(0.1854 0.9827 0.9827 -0.1854 2118.03687 -3781.87402)">
    <stop  offset="0" style="stop-color:#C1D5AE"/>
    <stop  offset="0.5" style="stop-color:#A9C690"/>
    <stop  offset="1" style="stop-color:#9EBF88"/>
  </linearGradient>
  <path fill="url(#SVGID_3_)" d="M30.98263,37.88314c2.78355,6.30762,9.51709,2.64628,14.34933,1.78106
    c4.83871-0.86642,8.09391-0.71584,10.11345,0.69233c1.43085,0.99076,3.40018,4.60185,2.40416,6.02827
    c-0.43159-2.4212-5.07109-0.31095-10.55598-0.68222C42.39616,45.3722,33.78724,44.33977,30.98263,37.88314z"/>
  <linearGradient id="SVGID_4_" gradientUnits="userSpaceOnUse" x1="5392.93799" y1="-1153.92004" x2="5401.76172" y2="-1153.92004" gradientTransform="matrix(-0.6469 0.7627 0.7627 0.6469 4418.60449 -3336.63794)">
    <stop  offset="0" style="stop-color:#C1D5AE"/>
    <stop  offset="0.5" style="stop-color:#A9C690"/>
    <stop  offset="1" style="stop-color:#9EBF88"/>
  </linearGradient>
  <path fill="url(#SVGID_4_)" d="M35.73995,18.14411c-1.28263,8.90813,8.50693,12.82656,14.45825,15.20763
    c5.96305,2.38434,9.46199,4.79538,10.72157,7.74614c0.89843,2.08795-0.88748,6.55866-2.97871,7.44776
    c1.19279-2.97626-3.7115-6.52383-9.53003-10.72527C43.20835,34.06961,34.3824,27.2328,35.73995,18.14411z"/>
  <linearGradient id="SVGID_5_" gradientUnits="userSpaceOnUse" x1="237.62662" y1="-1471.45984" x2="264.57034" y2="-1471.45984" gradientTransform="matrix(0.9809 0.1948 0.1948 -0.9809 108.7436 -1444.37659)">
    <stop  offset="0" style="stop-color:#C1D5AE"/>
    <stop  offset="0.5" style="stop-color:#A9C690"/>
    <stop  offset="1" style="stop-color:#9EBF88"/>
  </linearGradient>
  <path fill="url(#SVGID_5_)" d="M80.33492,56.98897c-6.74083,1.45432-10.25639-5.82458-12.39575-10.23774
    c-2.14263-4.43303-4.17026-6.97528-6.49668-7.78665c-1.64263-0.56924-4.96101,1.03487-5.53146,2.67866
    c2.21141-1.07617,5.1873,2.48799,8.70652,6.71127C67.76587,52.12555,73.46088,58.50523,80.33492,56.98897z"/>
  <linearGradient id="SVGID_6_" gradientUnits="userSpaceOnUse" x1="1667.75757" y1="-2620.79419" x2="1690.86499" y2="-2620.79419" gradientTransform="matrix(0.6881 0.7257 0.7257 -0.6881 804.0351 -2968.07764)">
    <stop  offset="0" style="stop-color:#C1D5AE"/>
    <stop  offset="0.5" style="stop-color:#A9C690"/>
    <stop  offset="1" style="stop-color:#9EBF88"/>
  </linearGradient>
  <path fill="url(#SVGID_6_)" d="M58.50305,69.0892c-5.36222-4.33422-1.90536-11.63543,0.19921-16.07653
    c2.09968-4.44194,2.81067-7.61779,1.98189-9.94019c-0.58305-1.63894-3.91843-3.21312-5.55616-2.62846
    c2.22277,1.04943,1.31506,5.60268,0.23764,10.99405C54.39838,56.25211,53.0048,64.68777,58.50305,69.0892z"/>
  <linearGradient id="SVGID_7_" gradientUnits="userSpaceOnUse" x1="4959.58105" y1="-1836.89758" x2="4982.97803" y2="-1836.89758" gradientTransform="matrix(-0.9406 -0.3397 0.3397 -0.9406 5349.6377 5.5497)">
    <stop  offset="0" style="stop-color:#C1D5AE"/>
    <stop  offset="0.5" style="stop-color:#A9C690"/>
    <stop  offset="1" style="stop-color:#9EBF88"/>
  </linearGradient>
  <path fill="url(#SVGID_7_)" d="M35.21076,50.1534c6.11894,3.17626,11.42369-2.91635,14.64975-6.62342
    c3.2285-3.70383,5.88693-5.35815,8.31377-5.79866c2.84753-0.51742,5.34522,0.85307,5.46549,2.58799
    c-1.85191-1.61547-6.49183,2.48919-10.99935,5.63672C48.61713,48.77076,41.44632,53.42726,35.21076,50.1534z"/>
  <radialGradient id="SVGID_8_" cx="6102.84473" cy="113.75785" r="42.32991" gradientTransform="matrix(-1 0 0 0.2 6187.25781 91.00628)" gradientUnits="userSpaceOnUse">
    <stop  offset="0.91011" style="stop-color:#A4DBDF"/>
    <stop  offset="0.92764" style="stop-color:#A9DBDA;stop-opacity:0.80501"/>
    <stop  offset="0.9489" style="stop-color:#B8DBCD;stop-opacity:0.5685"/>
    <stop  offset="0.97208" style="stop-color:#D0DBB7;stop-opacity:0.31058"/>
    <stop  offset="0.9965" style="stop-color:#F2DB98;stop-opacity:0.03899"/>
    <stop  offset="1" style="stop-color:#F8DB93;stop-opacity:0"/>
  </radialGradient>
  <ellipse fill="url(#SVGID_8_)" cx="84.41308" cy="113.75781" rx="59.12264" ry="9.38915"/>
  <radialGradient id="SVGID_9_" cx="6090.01416" cy="110.47062" r="27.09106" gradientTransform="matrix(-1 0 0 0.2 6187.25781 88.3765)" gradientUnits="userSpaceOnUse">
    <stop  offset="0.91011" style="stop-color:#F8DB93"/>
    <stop  offset="1" style="stop-color:#F8DB93;stop-opacity:0"/>
  </radialGradient>
  <ellipse fill="url(#SVGID_9_)" cx="97.24347" cy="110.47107" rx="37.83834" ry="6.00878"/>
  <radialGradient id="SVGID_10_" cx="6126.62402" cy="-11.25497" r="27.09104" gradientTransform="matrix(-1 0 0 0.26626 6187.25781 115.5106)" gradientUnits="userSpaceOnUse">
    <stop  offset="0.91011" style="stop-color:#F8DB93"/>
    <stop  offset="1" style="stop-color:#F8DB93;stop-opacity:0"/>
  </radialGradient>
  <ellipse fill="url(#SVGID_10_)" cx="60.63353" cy="112.51404" rx="37.83834" ry="7.99959"/>
  <linearGradient id="SVGID_11_" gradientUnits="userSpaceOnUse" x1="6072.33154" y1="98.09592" x2="6141.95117" y2="98.09592" gradientTransform="matrix(-1 0 0 1 6187.25781 0)">
    <stop  offset="0" style="stop-color:#F1E2C5"/>
    <stop  offset="0.5" style="stop-color:#F8DB93"/>
    <stop  offset="0.52694" style="stop-color:#F7D992"/>
    <stop  offset="1" style="stop-color:#E1C281"/>
  </linearGradient>
  <path fill="url(#SVGID_11_)" d="M89.20827,106.6826c2.99039,0,5.68166-0.3891,8.53321,0.21783
    c0.95714,0.03765,1.91506,0.07853,2.87261,0.11215c4.79012,0.1684,9.577,0.15423,14.31206-0.32998
    c-3.52448-16.80208-12.10869-11.92854-17.68269-12.4642c-0.92877-0.08947-9.11866-2.98194-15.24245-6.02702
    c-5.70111-2.83497-12.36703-4.77921-18.11349-0.49316c-6.58776,4.91322-13.83714,11.37145-18.5807,19.6674
    C60.48171,115.53688,78.44333,107.45753,89.20827,106.6826z"/>
  <linearGradient id="SVGID_12_" gradientUnits="userSpaceOnUse" x1="33.92657" y1="-507.62286" x2="35.54938" y2="-507.62286" gradientTransform="matrix(0.9788 -0.2051 0.2051 0.9788 152.3008 587.72949)">
    <stop  offset="0" style="stop-color:#BBD6C4"/>
    <stop  offset="0.5" style="stop-color:#8BBE9D"/>
    <stop  offset="1" style="stop-color:#81B797"/>
  </linearGradient>
  <path fill="url(#SVGID_12_)" d="M80.56084,77.8455c1.74503,1.13853,1.61307,4.63464,1.53206,6.75945
    c-0.08097,2.12923,0.05672,3.54997,0.48831,4.41441c0.30527,0.61336,1.2806,0.85386,1.626,0.39959
    c-0.65025-0.15949-0.87455-2.17903-1.13935-4.57391C82.83224,82.70444,82.34637,78.99253,80.56084,77.8455z"/>
    <linearGradient id="SVGID_13_" gradientUnits="userSpaceOnUse" x1="-22.07514" y1="119.03694" x2="-20.45278" y2="119.03694" gradientTransform="matrix(0.9993 0.0389 -0.0389 0.9993 89.09679 -34.9268)">
    <stop  offset="0" style="stop-color:#BBD6C4"/>
    <stop  offset="0.5" style="stop-color:#8BBE9D"/>
    <stop  offset="1" style="stop-color:#81B797"/>
  </linearGradient>
  <path fill="url(#SVGID_13_)" d="M63.0709,77.08311c1.41626,1.52803,0.43889,4.88647-0.15589,6.92831
    c-0.5964,2.04582-0.80772,3.45723-0.5988,4.40102c0.14698,0.66887,1.03487,1.13931,1.4794,0.78305
    c-0.5915-0.31257-0.3182-2.32647,0.00688-4.71442C64.09441,82.34736,64.52361,78.62893,63.0709,77.08311z"/>
  <linearGradient id="SVGID_14_" gradientUnits="userSpaceOnUse" x1="5103.69531" y1="387.94376" x2="5104.43604" y2="387.94376" gradientTransform="matrix(-0.9899 -0.142 -0.142 0.9899 5172.15186 427.3028)">
    <stop  offset="0" style="stop-color:#BBD6C4"/>
    <stop  offset="0.5" style="stop-color:#8BBE9D"/>
    <stop  offset="1" style="stop-color:#81B797"/>
  </linearGradient>
  <path fill="url(#SVGID_14_)" d="M65.11876,83.81705c-0.76195,0.56924-0.60001,2.15801-0.50042,3.12365
    c0.0988,0.96767,0.07774,1.61829-0.09395,2.0248c-0.12102,0.28827-0.55792,0.42592-0.72878,0.22998
    c0.29154-0.09192,0.33445-1.01871,0.38544-2.11672C64.22559,86.0965,64.33898,84.39156,65.11876,83.81705z"/>
  <linearGradient id="SVGID_15_" gradientUnits="userSpaceOnUse" x1="5032.67188" y1="1063.44482" x2="5033.4126" y2="1063.44482" gradientTransform="matrix(-0.9334 -0.359 -0.359 0.9334 5138.65137 910.99969)">
    <stop  offset="0" style="stop-color:#BBD6C4"/>
    <stop  offset="0.5" style="stop-color:#8BBE9D"/>
    <stop  offset="1" style="stop-color:#81B797"/>
  </linearGradient>
  <path fill="url(#SVGID_15_)" d="M60.19667,94.2184c-0.86929,0.38544-1.06527,1.97054-1.18346,2.93376
    c-0.11903,0.96523-0.28462,1.5952-0.54254,1.95312c-0.18222,0.25427-0.63889,0.29072-0.7612,0.06153
    c0.30448-0.0243,0.55228-0.91825,0.84623-1.97742C58.81885,96.242,59.30836,94.60464,60.19667,94.2184z"/>
  <linearGradient id="SVGID_16_" gradientUnits="userSpaceOnUse" x1="4263.93311" y1="2484.64087" x2="4264.67334" y2="2484.64087" gradientTransform="matrix(-0.6082 -0.7939 -0.7939 0.6082 4626.20264 1972.07568)">
    <stop  offset="0" style="stop-color:#BBD6C4"/>
    <stop  offset="0.5" style="stop-color:#8BBE9D"/>
    <stop  offset="1" style="stop-color:#81B797"/>
  </linearGradient>
  <path fill="url(#SVGID_16_)" d="M62.4158,96.24847c-0.94254-0.12633-1.93774,1.12273-2.54181,1.88185
    c-0.60572,0.76037-1.07621,1.21141-1.48351,1.38148c-0.28827,0.12185-0.6964-0.08587-0.68102-0.34499
    c0.2721,0.13806,0.95067-0.49395,1.75556-1.24379C60.18411,97.25258,61.45705,96.11281,62.4158,96.24847z"/>
  <linearGradient id="SVGID_17_" gradientUnits="userSpaceOnUse" x1="-180.51147" y1="-1466.59692" x2="-179.96335" y2="-1466.59692" gradientTransform="matrix(0.8595 -0.5112 0.5112 0.8595 961.73077 1266.16882)">
    <stop  offset="0" style="stop-color:#BBD6C4"/>
    <stop  offset="0.5" style="stop-color:#8BBE9D"/>
    <stop  offset="1" style="stop-color:#81B797"/>
  </linearGradient>
  <path fill="url(#SVGID_17_)" d="M55.92642,96.0602c0.68222,0.17206,1.02272,1.30412,1.22919,1.9916
    c0.2073,0.68909,0.40693,1.12799,0.63972,1.35713c0.16439,0.16277,0.50204,0.13201,0.56319-0.0502
    c-0.22554,0.02027-0.51783-0.60084-0.86443-1.33691C57.18397,97.36348,56.6224,96.23064,55.92642,96.0602z"/>

</svg>
