<?xml version="1.0" encoding="utf-8"?>
<!DOCTYPE svg PUBLIC "-//W3C//DTD SVG 1.1//EN" "http://www.w3.org/Graphics/SVG/1.1/DTD/svg11.dtd">
<svg version="1.1" xmlns="http://www.w3.org/2000/svg" xmlns:xlink="http://www.w3.org/1999/xlink" x="0px" y="0px" width="160px"
  height="160px" viewBox="0 0 160 160" enable-background="new 0 0 160 160" xml:space="preserve">
  <path fill="#00ADEE" d="M33.99796,80.57767c0,8.20095-0.59007,18.86298-7.65274,23.6816
    c-2.35418,1.60615-4.948,3.45792,0.88477,3.17791c10.81665-0.51775,26.25344-5.07217,26.25344-26.85951"/>
  <path fill="#EC1C24" d="M129.46179,118.76031c0,4.79331,0.34512,11.02708,4.47415,13.84382
    c1.37656,0.9386,2.95689,2.00987-0.39162,1.8651c-6.33-0.27348-15.47472-2.88716-15.47404-15.70892"/>
  <path fill="#EC1C24" d="M70.38445,101.68668c0,19.70986,15.97779,24.94006,35.68836,24.94006s35.68904-5.23019,35.68904-24.94006
    c0-19.71121-15.97847-24.94405-35.68904-24.94405S70.38445,81.97546,70.38445,101.68668z"/>
  <path fill="#00ADEE" d="M108.76492,62.60275c0,24.84045-20.13603,31.43255-44.9758,31.43255
    c-24.83908,0-44.9758-6.59209-44.9758-31.43255c0-24.83908,20.13671-31.43252,44.9758-31.43252
    C88.62888,31.17023,108.76492,37.76367,108.76492,62.60275z"/>

</svg>
