<?xml version="1.0" encoding="utf-8"?>
<!DOCTYPE svg PUBLIC "-//W3C//DTD SVG 1.1//EN" "http://www.w3.org/Graphics/SVG/1.1/DTD/svg11.dtd">
<svg version="1.1" xmlns="http://www.w3.org/2000/svg" xmlns:xlink="http://www.w3.org/1999/xlink" x="0px" y="0px" width="160px"
  height="160px" viewBox="0 0 160 160" enable-background="new 0 0 160 160" xml:space="preserve">
  <path fill="#4578AD" d="M38.28373,34.97304c-13.30626,3.65266-20.6408,13.60431-18.44983,21.53378
    c2.19097,7.93077,13.51001,27.04427,14.23355,27.60738c5.44175,4.86469,16.14943,9.54977,20.11345,8.45553l0.17583-0.04839
    c3.80866-1.05342,11.53556-12.7215,12.44759-17.90591l0,0c0.44075-1.67509-0.09927-23.82924-1.92854-30.45054
    C63.04664,37.54241,51.58999,31.32807,38.28373,34.97304z"/>
  <path fill="#FFFFFF" d="M35.53735,72.27289c1.82927,6.62117,9.9077,13.76984,17.02075,11.83362
    c7.11293-1.94131,10.91911-10.91846,8.73062-18.84793c0,0-3.53866,9.14528-10.76624,11.14138
    C43.2949,78.39735,35.53735,72.27289,35.53735,72.27289z"/>
  <path fill="#FFFFFF" d="M38.78565,53.88658c-1.19481-1.83422-4.75395-2.64437-7.24297-0.6445
    c-2.48902,2.00314-3.20226,5.69454-1.77057,7.89125c0,0,0.60132-3.69662,3.12856-5.7385
    C35.42791,53.3523,38.78565,53.88658,38.78565,53.88658z"/>
  <path fill="#FFFFFF" d="M47.53415,51.39442c0.10448-2.18458,2.76672-4.67425,5.93089-4.19907
    c3.16156,0.47897,5.6455,3.30804,5.52067,5.9232c0,0-2.38963-2.89025-5.6048-3.3807
    C50.16326,49.24363,47.53415,51.39442,47.53415,51.39442z"/>
  <path fill="#FFFFFF" d="M46.23485,69.3182c-0.23687-0.85085,0.57067-2.27823,1.96427-2.66798
    c1.39347-0.38792,2.80233,0.2421,3.08265,1.25977L46.23485,69.3182z"/>
  <path fill="#F48473" d="M112.88577,39.65942c20.7809,7.63142,31.17017,24.53112,26.59975,36.91375
    c-4.57173,12.38524-25.24319,41.42313-26.47491,42.22429c-9.35751,7.04549-27.10924,13.09483-33.29749,10.81216l-0.27509-0.10071
    c-5.94877-2.19853-16.73157-21.89288-17.49202-30.3064l0,0c-0.47884-2.7375,3.36805-38.08704,7.1831-48.4278
    C72.94547,40.43266,92.09836,32.03948,112.88577,39.65942z"/>
  <path fill="#FFFFFF" d="M112.25133,99.66739c-3.81376,10.34075-17.69447,20.68294-28.80585,16.6284
    C72.33527,112.23485,67.4565,97.36816,72.02444,84.9854c0,0,4.42773,15.09848,15.71377,19.26389
    C99.02411,108.41471,112.25133,99.66739,112.25133,99.66739z"/>
  <path fill="#FFFFFF" d="M109.53312,69.83226c2.16032-2.77181,7.95739-3.58836,11.67057-0.05609
    c3.7081,3.53866,4.35259,9.53699,1.76809,12.85782c0,0-0.46371-5.99325-4.22906-9.59817
    C114.97475,69.42973,109.53312,69.83226,109.53312,69.83226z"/>
  <path fill="#FFFFFF" d="M95.8842,64.66951c0.12613-3.50683-3.79471-7.84546-8.91793-7.51167
    c-5.12074,0.34005-9.47464,4.52829-9.62491,8.72684c0,0,4.20741-4.30042,9.41725-4.65064
    C91.96727,60.87728,95.8842,64.66951,95.8842,64.66951z"/>
  <path fill="#FFFFFF" d="M95.54662,93.5034c0.49175-1.32982-0.6038-3.71944-2.7795-4.5309
    c-2.17819-0.80885-4.51434,0.01017-5.10027,1.59865L95.54662,93.5034z"/>

</svg>
