<svg xmlns="http://www.w3.org/2000/svg" width="160px" height="160px" viewBox="0 0 160 160">
  <path fill="#d9bc7b" d="M79.4,34.9c-7.2,0-13,0.1-13,3.2v12.8h26V38.1C92.4,35.1,86.6,34.9,79.4,34.9z"/>
  <rect x="76" y="36.6" fill="#ffffff" width="7.4" height="2.6"/>
  <path fill="none" stroke="#231f20" stroke-width="0.5" stroke-linecap="round" d="M80.4,36.8L56.9,51.5c-3.7,2.3-3.2,4.2,1.2,4.2
    h43.1c4.4,0,4.9-1.9,1.2-4.2L79.7,37.2"/>
  <path fill="#d9bc7b" d="M108.1,48.1l-8.8-2.5l-5.7-0.7l-28.3,0l-5.7,0.7l-8.8,2.5l-27,36.5l16.2,11.5l9.7-13.6v50.2l59.7-0.2V81.6
    l10.5,14.3l16-11.8L108.1,48.1z"/>
  <line fill="none" stroke="#231f20" stroke-width="0.5" stroke-linecap="round" x1="79" y1="36.5" x2="80.1" y2="35.9"/>
  <line fill="none" stroke="#231f20" stroke-width="0.5" stroke-linecap="round" x1="79" y1="35.4" x2="80.1" y2="34.7"/>
  <line fill="none" stroke="#231f20" stroke-width="0.5" stroke-linecap="round" x1="79" y1="34.3" x2="80.1" y2="33.6"/>
  <path fill="none" stroke="#231f20" stroke-width="0.5" stroke-linecap="round" d="M76,26.8c0-2.3,1.3-3.5,3.5-3.5
    c2.3,0,3.5,1.3,3.5,3.5c0,3.7-3.5,2.9-3.5,4.6c0,0.8,0,1.5,0,1.5"/>
  <path fill="#404041" d="M77.5,60.9c0.4,0,0.8,0.3,0.8,0.8c0,0.4-0.4,0.8-0.8,0.8c-0.4,0-0.8-0.4-0.8-0.8
    C76.7,61.2,77.1,60.9,77.5,60.9z"/>
  <path fill="#404041" d="M77.5,67.9c0.4,0,0.8,0.3,0.8,0.8c0,0.4-0.4,0.8-0.8,0.8c-0.4,0-0.8-0.3-0.8-0.8
    C76.7,68.3,77.1,67.9,77.5,67.9z"/>
  <path fill="#404041" d="M77.5,75c0.4,0,0.8,0.4,0.8,0.8c0,0.4-0.4,0.8-0.8,0.8c-0.4,0-0.8-0.3-0.8-0.8C76.7,75.4,77.1,75,77.5,75z"
    />
  <path fill="#404041" d="M77.5,82.1c0.4,0,0.8,0.4,0.8,0.8c0,0.4-0.4,0.8-0.8,0.8c-0.4,0-0.8-0.4-0.8-0.8
    C76.7,82.5,77.1,82.1,77.5,82.1z"/>
  <path fill="#404041" d="M77.5,89.2c0.4,0,0.8,0.3,0.8,0.8c0,0.4-0.4,0.8-0.8,0.8c-0.4,0-0.8-0.4-0.8-0.8
    C76.7,89.5,77.1,89.2,77.5,89.2z"/>
  <path fill="#404041" d="M77.5,96.3c0.4,0,0.8,0.3,0.8,0.8c0,0.4-0.4,0.8-0.8,0.8c-0.4,0-0.8-0.3-0.8-0.8
    C76.7,96.6,77.1,96.3,77.5,96.3z"/>
  <path fill="#404041" d="M77.5,103.3c0.4,0,0.8,0.4,0.8,0.8c0,0.4-0.4,0.8-0.8,0.8c-0.4,0-0.8-0.3-0.8-0.8
    C76.7,103.7,77.1,103.3,77.5,103.3z"/>
  <path fill="#404041" d="M77.5,110.4c0.4,0,0.8,0.4,0.8,0.8c0,0.4-0.4,0.8-0.8,0.8c-0.4,0-0.8-0.4-0.8-0.8
    C76.7,110.8,77.1,110.4,77.5,110.4z"/>
  <path fill="#404041" d="M77.5,53.8c-0.4,0-0.8,0.4-0.8,0.8c0,0.2,0.1,0.4,0.2,0.6c0,0,0,0,0,0c0.1,0.1,0.3,0.2,0.6,0.2
    c0.1,0,0.2,0,0.3-0.1c0,0,0,0,0,0c0.3-0.1,0.5-0.4,0.5-0.7C78.3,54.1,77.9,53.8,77.5,53.8z"/>
  <path fill="#ffffff" d="M104.3,63H89.3v16.2l7.5,3.7l7.5-3.7L104.3,63z M103.7,74.9v3.9l-6.9,3.5l-6.9-3.5V68.5h13.8V74.9z"/>
  <line fill="none" stroke="#ffffff" stroke-width="0.4743" x1="79.7" y1="44.5" x2="79.7" y2="131.8"/>
  <path fill="#ffffff" d="M92.4,38.1c0,1.2-1.9,2.3-4.3,3.2c-3.6,1.4-8.3,2.3-8.3,2.3l0.9,1.8l2.1,4.3l0.5,1.1c0,0,9.7-2.3,10.5-5.1
    c0-0.1,0.1-0.2,0.1-0.3L92.4,38.1L92.4,38.1z"/>
  <path fill="#ffffff" d="M66.4,38.1l-1.6,7.3c0,0.1,0,0.2,0.1,0.3c0.8,2.9,10.8,5.1,10.8,5.1l0.6-1.1l2.2-4.3l0.9-1.8
    c0,0-4.8-0.9-8.5-2.3C68.4,40.4,66.4,39.2,66.4,38.1L66.4,38.1z"/>
</svg>
