<?xml version="1.0" encoding="utf-8"?>
<!DOCTYPE svg PUBLIC "-//W3C//DTD SVG 1.1//EN" "http://www.w3.org/Graphics/SVG/1.1/DTD/svg11.dtd">
<svg version="1.1" xmlns="http://www.w3.org/2000/svg" xmlns:xlink="http://www.w3.org/1999/xlink" x="0px" y="0px" width="160px"
  height="160px" viewBox="0 0 160 160" enable-background="new 0 0 160 160" xml:space="preserve">
  <path fill="#587582" d="M145.22525,42.57573c0.72922,1.97763-0.20874,4.14483-2.09496,4.84007l-5.80171,2.14015
    c-1.88495,0.69524-4.00475-0.34433-4.73512-2.32185l-2.65819-7.2093c-0.72806-1.97752,0.20886-4.14471,2.09496-4.84007
    l5.80183-2.14015c1.88609-0.69524,4.00475,0.34548,4.73396,2.32185L145.22525,42.57573z"/>
  <path fill="#F0D0B3" d="M137.56229,41.351c3.02957-8.84932-3.18202-18.1953-12.01897-20.32978
    c-8.83244-2.13564-17.77434,3.50808-19.96973,12.60128c-2.19771,9.09551,1.86575,21.77805,10.73102,23.78273
    C127.5932,59.96182,132.73123,55.46376,137.56229,41.351z"/>
  <path fill="#808284" d="M112.75121,41.14445c0.45378,0.42893,1.0295,0.23591,1.2868-0.43344
    c0.2574-0.67039,0.09709-1.56443-0.35669-1.99555c-0.45263-0.42893-1.02939-0.23475-1.28564,0.43459
    C112.13943,39.8216,112.29859,40.71333,112.75121,41.14445z"/>
  <path fill="#AFC5E6" d="M145.93864,139.23488c-6.73402,4.18539-31.71327,8.39784-33.91537,3.69093
    c-7.54796-16.86227-10.98507-42.32801-6.98808-61.9681c1.8646-9.16544,2.06895-16.61977,10.82129-17.71008
    c1.21675-0.1513,16.41763-0.65247,16.56997,0.37472c0.00114,0.00682,1.21004,2.08144,0.84537,5.70695
    c-3.1886,31.6275,3.48901,44.62616,11.54601,65.00345C145.53236,137.37236,145.93864,139.23488,145.93864,139.23488z"/>
  <path fill="#AFC5E6" d="M111.32676,64.87077c3.32754,2.68871,9.90367,14.67589,7.89449,16.63203
    c-7.25785,6.83689-19.62785,13.10361-30.34857,14.5484c-5.00269,0.67501-8.83695,1.89188-10.94554-2.37594
    c-0.29347-0.5926-3.24178-8.25233-2.74731-8.51308c0.00451-0.00104,1.01587-0.53157,2.7598-1.44133
    c12.83383-6.69911,22.12791-9.69146,31.0868-17.40979C110.44868,65.408,111.32676,64.87077,111.32676,64.87077z"/>
  <path fill="none" d="M130.08322,63.12234c4.83209,1.28332,4.44719,5.45752,5.09735,9.60789"/>
  <path fill="#587582" d="M137.56229,41.351c3.60182-8.62474-3.18202-18.1953-12.01897-20.32978
    c-8.83244-2.13564-17.77434,3.50808-19.96973,12.60128C105.57359,33.6225,129.09555,31.32897,137.56229,41.351z"/>
  <path fill="#F0D0B3" d="M60.82329,93.47773c2.95617-1.45612,6.39663-2.39293,9.21283-4.00486
    c-0.83984-0.60265-4.31751-0.66137-3.5364-2.78349c0.34432-0.94582,5.11666,0.81949,9.75688,0.3567
    c3.89644-0.38605,7.79288,2.73158,7.776,5.05679c-1.88274,0.88502-15.94927,9.73665-16.77882,8.109
    c-0.76077-1.48548,4.49008-2.99119,4.26215-3.27113c-0.62646-0.77776-5.36724,4.08831-6.49256,1.8884
    c-0.86121-1.68301,4.32537-3.68539,5.28819-4.13686c-1.00685,0.5689-6.33121,4.05664-7.22849,2.30035
    c-0.89624-1.75179,7.04898-5.21259,6.08282-4.57365C66.44331,93.12324,59.28822,97.42607,60.82329,93.47773"/>
  <path fill="#F0D0B3" d="M133.7886,130.72093c-0.01488-3.2953,0.64919-6.79864,0.43295-10.03631
    c-0.90953,0.4912-2.48491,3.59215-4.05084,1.96078c-0.6996-0.72367,2.97694-4.24141,4.59245-8.61588
    c1.35886-3.67216,5.86775-5.81034,7.95085-4.77715c-0.02861,2.08018,1.77095,18.60229-0.0556,18.63549
    c-1.66862,0.03361-0.72342-5.34647-1.07491-5.26411c-0.97353,0.22271,1.32576,6.61543-1.14478,6.66401
    c-1.8902,0.03743-1.41966-5.50232-1.40402-6.56561c0.07066,1.1543,0.87524,7.46823-1.09662,7.506
    c-1.96736,0.0388-1.60025-8.61965-1.44881-7.47127C135.93045,125.51298,136.66632,133.82973,133.7886,130.72093"/>
  <path fill="#F5E0CD" d="M70.30357,90.18626c-3.28465-0.28214-6.82891,0.09489-10.03902-0.38374
    c0.56324-0.86803,3.78236-2.18523,2.28347-3.88061c-0.66484-0.75626-4.46985,2.62548-8.96004,3.8783
    c-3.77115,1.05435-6.26903,5.3751-5.40897,7.53559c2.07577,0.14217,18.3963,3.27783,18.57915,1.46051
    c0.16933-1.66035-5.27004-1.15583-5.15942-1.49889c0.30133-0.95264,6.48459,1.85905,6.73414-0.60057
    c0.19071-1.88043-5.3684-1.8624-6.42934-1.93233c1.14451,0.1647,7.37296,1.48086,7.56934-0.48314
    c0.19973-1.9573-8.46107-2.29585-7.32673-2.05208C64.93761,91.89747,73.16727,93.30609,70.30357,90.18626"/>
  <path fill="#F05A22" d="M25.26883,118.02123c7.72296-5.06592,15.38939-14.48183,22.90233-12.36214
    c7.5141,2.12212,9.86414,18.98103,10.34381,26.49628c-1.14566,3.95619-8.57399,7.45642-14.97166,5.22612
    c-2.18974-8.18796-9.54467-13.0687-16.8736-18.20224C25.79265,118.45918,25.26883,118.02123,25.26883,118.02123z"/>
  <path fill="#EF7D32" d="M20.30913,111.41354c9.20832,0.70206,22.52413-2.25758,28.30228,2.99119
    c2.91213,2.62768-4.39091,4.41784-5.24762,10.13831c-0.74829,4.98905-2.52157,9.94656-4.61202,12.76391
    c-3.43931,4.54208-13.55288,0.34317-20.85476,1.26875c1.62996-8.31889,5.48572-16.8477,2.814-25.38898
    C20.45812,112.07942,20.30913,111.41354,20.30913,111.41354z"/>
  <path fill="#00ADEE" d="M42.05513,86.03417c-0.67797,5.45251,2.11972,15.21868,4.37649,21.03018
    c0,0,2.61287,1.77242,4.75474,0.81017c1.53039-0.68866,1.72194-1.26615,1.65717-1.53323
    c-0.00131-0.00205-1.02743-2.34793-1.25921-3.28341c-1.7024-6.87318,0.45497-18.51119,0.93025-24.99377
    C48.61249,71.53812,42.27672,84.50394,42.05513,86.03417z"/>
  <path fill="#00ADEE" d="M43.73852,92.36771c-6.09635-7.04343-5.32205-21.59969-2.59717-27.06056
    c1.26865-2.54654,4.46523-4.91462,7.42706-5.09967c6.79852-0.42442,4.68657,6.79956,4.65271,7.87969
    c-0.29462,9.6102-0.29462,9.6102-2.47638,14.99767C47.679,90.04252,44.75103,93.53708,43.73852,92.36771z"/>
  <path fill="#00ADEE" d="M26.40444,84.85866c-2.83319-3.51836-4.29266-7.65291-4.65271-14.9808
    c-0.37368-7.62806,5.50594-12.88238,10.21286-12.9129c4.70345-0.03156,9.34263-0.75175,17.76764,3.21924
    c-1.76878,6.07947-4.58382,25.55936-7.39447,26.38555C39.98887,87.2606,27.07829,85.69386,26.40444,84.85866z"/>
  <path fill="#F5E0CD" d="M39.20891,55.27872c-5.40897-2.77898-8.5243-6.51175-10.18361-13.67817
    c-1.72809-7.45653,4.87624-14.73923,13.02801-15.93563c8.14738-1.19652,15.52936,4.00255,16.482,11.60575
    c0.95495,7.60772-3.6944,16.47969-8.4487,17.99222C46.11342,56.52933,40.49339,55.94009,39.20891,55.27872z"/>
  <path fill="#808284" d="M52.86223,41.88049c-0.55087,0.47632-1.28344,0.40628-1.63447-0.15581
    c-0.35103-0.5644-0.18852-1.40873,0.36235-1.88506c0.55087-0.47852,1.28228-0.40743,1.63331,0.15581
    C53.5733,40.55867,53.41079,41.40405,52.86223,41.88049z"/>
  <linearGradient id="SVGID_1_" gradientUnits="userSpaceOnUse" x1="689.56842" y1="-123.77138" x2="726.72766" y2="-123.77138" gradientTransform="matrix(-0.972 0.2351 0.2351 0.972 761.07843 -12.7304)">
    <stop  offset="0" style="stop-color:#D0D2D3"/>
    <stop  offset="0.5" style="stop-color:#ABADAF"/>
    <stop  offset="1" style="stop-color:#A6A8AB"/>
  </linearGradient>
  <path fill="url(#SVGID_1_)" d="M27.80635,42.1965c-1.2394-2.95732-2.2214-6.19008-1.48548-8.1179
    c0.18852-0.7721,3.147-0.39738,3.14804-0.39957c0.59942-1.76543,3.07591-7.73648,1.92794-9.41152
    c0,0,2.32404-1.16936,4.48222-0.55538c1.60176-2.15136,2.87607-3.71578,2.87607-3.71578s2.90762-0.52602,4.05225,1.51022
    c0.824-0.34883,2.63785-1.5531,4.30156-2.6345c0,0,3.18086,0.89392,4.08496,3.18306
    c2.24174,0.22123,5.29951,0.04739,5.29951,0.04739s1.54189,2.2711,0.05421,5.27246
    c1.78565,0.69639,5.39198,2.61751,5.39198,2.61751s0.53955,2.94149-3.89078,5.04326c0,0-5.75317-4.81522-19.50024,1.14902
    c-3.9043,1.69538-5.21825,3.94279-6.35941,6.24429c-1.14116,2.30035-0.03155,5.33673,0.90641,8.21499
    c-1.14116-1.51253-2.04077-2.8761-2.74627-4.12219c-0.27533-0.59131-2.0741,0.37646-1.81805,1.0094
    C26.81248,47.125,28.11103,43.01147,27.80635,42.1965z"/>
  <path fill="#F5E0CD" d="M58.33778,41.40405h-0.00231c-0.02369-0.05409-0.08692-0.08576-0.15234-0.06993
    c-0.03837,0.00901-1.12879,4.73396-1.12879,4.73396s0.84769,0.21106,1.99567,0.04739
    c1.15017-0.16482,0.83081-1.17387,0.83081-1.17387L58.33778,41.40405z"/>
  <path fill="#F0D0B3" d="M105.77112,41.13093h0.0022c0.03618-0.06773,0.11963-0.10379,0.20204-0.07675
    c0.04739,0.01352,1.09261,6.15055,1.09261,6.15055s-1.10279,0.20886-2.5633-0.08807
    c-1.46063-0.29682-0.9753-1.56778-0.9753-1.56778L105.77112,41.13093z"/>
  <path fill="#00ADEE" d="M55.86463,113.13481c-9.58419-20.66624-10.64849-31.21094-6.1324-52.95061
    c-0.97634,4.69894-3.43815,11.6328-5.19791,11.836c-4.17407,0.59606-5.45405-10.78396-11.77959-14.90163
    c3.54761,6.7702,3.2034,13.69621-1.05875,15.12517c-2.52388,0.84653-7.17994,0.05421-8.53111,1.89175
    c-0.78215-1.95729-1.19421-7.72284-1.42896-7.91933c-0.14564,0.66483-0.44477,1.46398-0.39391,2.14246
    c-0.10726,21.7577-3.50588,33.50562-1.90193,45.18593c5.05112,6.56481,25.32565,6.70247,37.4676,6.64838
    C56.90766,120.19293,58.19445,117.55612,55.86463,113.13481z"/>
  <path fill="#F5E0CD" d="M27.7815,92.33311c4.62334,2.96865,14.69958,5.27813,20.85696,5.14266
    c2.84671-0.06103,3.19207-0.50348,3.19658-3.46751c0.00335-2.1198-0.49216-2.66837-0.79013-2.74512
    c-0.0022,0-2.91664-0.69755-3.96186-0.96628c-7.68343-1.99335-12.33717-6.28706-17.97869-9.51981
    C21.53386,81.47691,26.49806,91.47086,27.7815,92.33311z"/>
  <path fill="#00ADEE" d="M27.7815,92.33311c-7.21161-5.8965-8.94086-20.36931-7.19242-26.21622
    c0.81498-2.72708,3.0217-5.34459,5.90783-6.03428c6.62468-1.58245,5.03656,4.50822,5.06811,4.81522
    c-0.00116,0,0.02369,0.62981,0.17603,1.69769c1.35453,9.51751-0.33635,10.22869,1.35453,15.39159
    C31.26704,89.36677,28.98022,93.31071,27.7815,92.33311z"/>
  <path fill="#AFC5E6" d="M128.08975,111.73637c4.5489,1.2653,19.53075-0.50799,20.0014-3.5646
    c1.49219-10.9015-0.80481-26.03002-6.37514-36.5872c-2.59947-4.92583-3.96301-9.15191-9.1474-8.30989
    c-0.72125,0.11744-9.49162,2.3749-9.40805,2.98668c0.00115,0.00451,0.17384,1.25293,0.47296,3.40209
    c2.20441,15.82271,5.47104,26.08874,4.27683,39.08392C128.00964,110.60307,128.08975,111.73637,128.08975,111.73637z"/>

</svg>
