<?xml version="1.0" encoding="utf-8"?>
<!DOCTYPE svg PUBLIC "-//W3C//DTD SVG 1.1//EN" "http://www.w3.org/Graphics/SVG/1.1/DTD/svg11.dtd">
<svg version="1.1" xmlns="http://www.w3.org/2000/svg" xmlns:xlink="http://www.w3.org/1999/xlink" x="0px" y="0px" width="160px"
  height="160px" viewBox="0 0 160 160" enable-background="new 0 0 160 160" xml:space="preserve">
  <path fill="#A36C35" d="M96.67809,105.72796c0-3.4934-8.18924-6.3253-18.28494-6.3253c-10.09918,0-18.28668,2.8319-18.28668,6.3253
    c0,0.60078,3.11056,21.51276,3.11056,22.11265c0,3.49344,6.79416,6.32535,15.17523,6.32535
    c8.37851,0,15.17265-2.83191,15.17265-6.32535C93.56491,127.24072,96.67809,106.32874,96.67809,105.72796z"/>
  <path fill="#C08041" d="M100.17585,97.93027c0-5.01272-9.75363-9.07911-21.78359-9.07911
    c-12.03254,0-21.78617,4.06639-21.78617,9.07911c0,0.86205,0,4.10373,0,4.96231c0,5.01619,9.75363,9.08258,21.78617,9.08258
    c12.02996,0,21.78359-4.06639,21.78359-9.08258C100.17585,102.034,100.17585,98.79232,100.17585,97.93027z"/>
  <path fill="#C08041" d="M100.17585,97.93027c0,5.01614-9.75363,9.08169-21.78359,9.08169
    c-12.03254,0-21.78617-4.06554-21.78617-9.08169c0-5.01272,9.75363-9.07911,21.78617-9.07911
    C90.42222,88.85117,100.17585,92.91756,100.17585,97.93027z"/>
  <ellipse fill="#7E5D3B" cx="78.39093" cy="96.79736" rx="17.5492" ry="7.3159"/>
  <linearGradient id="SVGID_1_" gradientUnits="userSpaceOnUse" x1="-9.88157" y1="-97.60839" x2="26.86573" y2="-97.60839" gradientTransform="matrix(0.9731 -0.2306 0.2306 0.9731 102.3035 156.1461)">
    <stop  offset="0" style="stop-color:#C1D5AE"/>
    <stop  offset="0.5" style="stop-color:#A9C690"/>
    <stop  offset="1" style="stop-color:#9EBF88"/>
  </linearGradient>
  <path fill="url(#SVGID_1_)" d="M99.15578,26.3479c-7.50948,9.42288-6.62743,27.85282-8.11634,39.46865
    c-1.76232,13.67858,3.41704,16.89071-0.23959,21.49018c-2.58624,3.25035-11.32846,4.24437-14.57277,1.6564
    c5.82619-0.66412,3.52212-11.94573,5.23235-24.9306C82.98653,52.41666,88.69546,39.47345,99.15578,26.3479z"/>
  <linearGradient id="SVGID_2_" gradientUnits="userSpaceOnUse" x1="-11.58435" y1="-98.25548" x2="4.54289" y2="-98.25548" gradientTransform="matrix(0.9731 -0.2306 0.2306 0.9731 102.3035 156.1461)">
    <stop  offset="0" style="stop-color:#C1D5AE"/>
    <stop  offset="0.5" style="stop-color:#A9C690"/>
    <stop  offset="1" style="stop-color:#9EBF88"/>
	</linearGradient>
  <path fill="url(#SVGID_2_)" d="M60.59261,30.37265c15.57114,5.29573,13.84175,24.49135,12.78698,36.15927
    c-1.06087,11.69308-0.03649,19.39014,3.72782,23.888c2.65566,3.19389,11.41879,3.98914,14.60313,1.32307
    c-5.83916-0.52784-7.55201-11.45612-9.57307-24.41756C80.34127,55.74169,76.52228,35.697,60.59261,30.37265z"/>
  <linearGradient id="SVGID_3_" gradientUnits="userSpaceOnUse" x1="-14.11215" y1="-77.71174" x2="50.16875" y2="-77.71174" gradientTransform="matrix(0.9731 -0.2306 0.2306 0.9731 102.3035 156.1461)">
    <stop  offset="0" style="stop-color:#C1D5AE"/>
    <stop  offset="0.5" style="stop-color:#A9C690"/>
    <stop  offset="1" style="stop-color:#9EBF88"/>
  </linearGradient>
  <path fill="url(#SVGID_3_)" d="M129.57227,53.63728c-16.1962-2.87702-23.94703,14.78199-28.6602,25.49235
    c-4.71927,10.75378-9.3335,16.99227-14.8063,19.13139c-3.86758,1.50016-11.91969-2.0384-13.42242-5.90428
    c5.36427,2.37092,12.14975-6.38522,20.17057-16.75963C100.03001,66.33136,113.04964,50.62309,129.57227,53.63728z"/>
  <linearGradient id="SVGID_4_" gradientUnits="userSpaceOnUse" x1="-35.89088" y1="-93.60748" x2="-4.61789" y2="-93.60748" gradientTransform="matrix(0.9731 -0.2306 0.2306 0.9731 102.3035 156.1461)">
    <stop  offset="0" style="stop-color:#C1D5AE"/>
    <stop  offset="0.5" style="stop-color:#A9C690"/>
    <stop  offset="1" style="stop-color:#9EBF88"/>
  </linearGradient>
  <path fill="url(#SVGID_4_)" d="M39.05989,44.92368c16.44795-0.05903,15.00771,18.16951,17.81356,29.53967
    c2.80848,11.39011,6.29668,18.33442,11.32499,21.36688c3.55074,2.15645,12.09073,0.04253,14.23331-3.51256
    c-5.69506,1.41077-4.36158-7.84805-10.49593-19.44134C66.45782,62.5254,55.85512,44.76744,39.05989,44.92368z"/>
  <linearGradient id="SVGID_5_" gradientUnits="userSpaceOnUse" x1="-18.99463" y1="-84.06967" x2="36.12945" y2="-84.06967" gradientTransform="matrix(0.9731 -0.2306 0.2306 0.9731 102.3035 156.1461)">
    <stop  offset="0" style="stop-color:#C1D5AE"/>
    <stop  offset="0.5" style="stop-color:#A9C690"/>
    <stop  offset="1" style="stop-color:#9EBF88"/>
  </linearGradient>
  <path fill="url(#SVGID_5_)" d="M112.68764,43.27421c-16.36634,1.6512-18.99947,20.74095-20.59946,32.35504
    c-1.60693,11.61237-4.33638,18.88137-9.02355,22.43646c-3.30329,2.50632-12.01778,1.29614-14.52325-2.0124
    c5.80445,0.80911,9.94205-9.4663,14.82973-21.63602C87.72833,63.542,95.96446,44.8803,112.68764,43.27421z"/>

</svg>
