<?xml version="1.0" encoding="utf-8"?>
<!DOCTYPE svg PUBLIC "-//W3C//DTD SVG 1.1//EN" "http://www.w3.org/Graphics/SVG/1.1/DTD/svg11.dtd">
<svg version="1.1" xmlns="http://www.w3.org/2000/svg" xmlns:xlink="http://www.w3.org/1999/xlink" x="0px" y="0px" width="160px"
  height="160px" viewBox="0 0 160 160" enable-background="new 0 0 160 160" xml:space="preserve">
  <path fill="#6BADC8" d="M120.45254,24.01648c0.3574-1.7735-13.0371-5.9805-29.9219-9.3965
    c-16.8926-3.4141-30.8711-4.7442-31.2344-2.9707c-0.8906-0.1817-8.4921,15.2832-12.5683,35.4336s-3.0781,37.3535-2.1856,37.5351
    l0,0l-6.2714,31.0313c-0.1817,0.8965,12.6679,7.9687,29.5898,11.3906c16.9219,3.4199,31.3789,1.87299,31.5605,0.9766
    l6.2774-31.0313l0,0c0.8965,0.1816,8.4922-15.2832,12.5684-35.4336C122.34124,41.40118,121.34904,24.19808,120.45254,24.01648z"/>
  <path fill="#A4DBDF" d="M73.12444,100.57698c-9.0625-1.834-11.4141,1.9902-11.7578,3.6875
    c-0.0039,0.01559-6.2012,18.6699-6.2012,18.6699l0.0156,0.709c3.8086,1.26559,8.0899,2.4688,12.6797,3.3965
    c4.5488,0.9219,8.9063,1.4707,12.875,1.7832l0.293-0.6602l1.5371-19.6113
    C82.90764,106.85428,82.22794,102.41488,73.12444,100.57698z"/>
  <path fill="#808080" d="M104.88701,83.30172c-0.20244,1.00108-1.18715,1.65457-2.18825,1.45218L52.06372,74.51726
    c-1.0011-0.20239-1.65456-1.18706-1.45214-2.18815l7.45533-36.87137c0.20242-1.00109,1.1871-1.65452,2.18818-1.45206
    l50.6351,10.2403c1.00108,0.20246,1.65452,1.18717,1.45208,2.18826L104.88701,83.30172z"/>

  <path fill="#E6E7E8" d="M104.61839,85.24741c-0.20244,1.00108-1.18715,1.65456-2.18824,1.45218L51.79509,76.46294
    c-1.00109-0.20238-1.65456-1.18705-1.45214-2.18814l7.45533-36.87137c0.20242-1.00109,1.1871-1.65452,2.18818-1.45206
    l50.6351,10.2403c1.00108,0.20245,1.65452,1.18717,1.45209,2.18826L104.61839,85.24741z"/>
  <path fill="#A4DBDF" d="M85.88024,92.97538c-0.4492,2.2266-5.6328,3.0528-11.5722,1.8536
    c-5.9395-1.2032-10.3926-3.9805-9.9434-6.2012c0.4492-2.2266,5.6328-3.0527,11.5703-1.8496
    C81.87444,87.97738,86.33344,90.75278,85.88024,92.97538z"/>
  <path fill="#FFFFFF" stroke="#808080" stroke-width="1.28962" d="M69.93694,116.79178c-3.76369-0.7597-7.1953,0.4942-7.2754,0.8829
    l-6.0391,29.8671l13.627,2.75l6.0332-29.8613C76.36464,120.03788,73.69474,117.55358,69.93694,116.79178z"/>
  <polygon fill="#929497" points="68.48964,127.59258 66.93304,127.27618 68.18304,121.09068 69.74554,121.40707"/>
  <polygon fill="#929497" points="69.32164,119.49888 71.17524,122.50468 71.01504,123.28598 66.28454,122.32898 66.44474,121.54768"/>

</svg>
