<svg xmlns="http://www.w3.org/2000/svg" width="160px" height="160px" viewBox="0 0 160 160">
  <polygon fill="#00adee" points="85.2,134.1 72.5,125.5 59.4,134 65.6,76.6 79.5,76.6 "/>
  <polygon fill="#00adee" points="124.2,110.8 109,112.2 104.2,127.1 72.3,73.1 79.8,67.6 "/>
  <polygon fill="#00adee" points="87.7,92.3 80.3,88.1 76.3,95.6 70.8,89.1 64.3,94.6 61.7,86.5 53.6,89.3 54.1,80.9 45.5,80.5
    49,72.8 41.1,69.4 47.2,63.5 41,57.5 48.9,54.1 45.3,46.3 53.8,46 53.3,37.4 61.4,40.3 63.9,32 70.5,37.6 75.8,30.8 80,38.4
    87.3,34 88.5,42.6 96.9,41.2 94.9,49.6 103.3,51.3 98.4,58.4 105.6,63 98.5,67.9 103.4,74.8 95.1,76.8 97.2,85 88.8,83.8 "/>
  <path fill="#ffffff" d="M75,51.4L77.2,75l-5.9,0.5l-1.2-12.7c-0.2-1.8-0.3-2.9-0.4-3.3c-0.1-0.4-0.4-0.6-0.8-0.8
    c-0.4-0.2-1.3-0.2-2.7,0l-0.6,0.1L65.3,56c2.8-0.9,4.8-2.3,6.1-4.4L75,51.4z"/>
  <path fill="#ffffff" d="M73.1,43.1c-11.2,0-20.4,9.1-20.4,20.4s9.1,20.4,20.4,20.4c11.2,0,20.4-9.1,20.4-20.4S84.3,43.1,73.1,43.1z
     M73.1,81.1c-9.7,0-17.6-7.8-17.6-17.6s7.8-17.6,17.6-17.6s17.6,7.8,17.6,17.6S82.8,81.1,73.1,81.1z"/>
</svg>
