<?xml version="1.0" encoding="utf-8"?>
<!DOCTYPE svg PUBLIC "-//W3C//DTD SVG 1.1//EN" "http://www.w3.org/Graphics/SVG/1.1/DTD/svg11.dtd">
<svg version="1.1" xmlns="http://www.w3.org/2000/svg" xmlns:xlink="http://www.w3.org/1999/xlink" x="0px" y="0px" width="160px"
  height="160px" viewBox="0 0 160 160" enable-background="new 0 0 160 160" xml:space="preserve">
  <path fill="#EC1C24" d="M29.99983,142.25742c5.99839-14.40074,14.16358-18.43232,20.7949-24.87223
    c7.2477-7.0373,17.40378-20.63345,20.33615-27.39936l1.66608,0.27298c-3.16782,7.30598-12.1347,22.77728-19.3991,29.83006
    c-6.35662,6.17109-13.08289,10.72454-18.67408,24.15003l-1.20747-3.60342L29.99983,142.25742L29.99983,142.25742z"/>
  <path fill="#EC1C24" d="M20.0472,126.17885c9.42977-11.84281,18.21819-13.81725,25.54113-17.74251
    c8.00613-4.29179,20.14926-11.93781,25.40163-18.34132l1.71505,0.80889c-5.67072,6.91837-17.5043,16.21428-25.52999,20.51595
    c-7.02168,3.76562-14.4507,6.83584-23.24183,17.87663l-0.17148-3.68724L20.0472,126.17885L20.0472,126.17885z"/>
  <polygon fill="#00ADEE" points="97.58236,21.65257 111.28148,57.67765 70.18269,94.46663 63.57635,39.59798"/>
  <polygon fill="#FFC30C" points="97.58236,21.65257 70.18269,94.46663 111.28148,57.67765 63.57635,39.59798"/>
  <line fill="none" stroke="#844F31" stroke-width="2.86071" stroke-linecap="round" x1="97.58236" y1="21.65257" x2="70.18269" y2="94.46663"/>
  <line fill="none" stroke="#844F31" stroke-width="2.86071" stroke-linecap="round" x1="63.60563" y1="39.5196" x2="111.31089" y2="57.6007"/>
  <path fill="none" stroke="#58595B" stroke-width="1.43036" d="M121.1463,111.90391
    c0.18404,8.60752,11.92696,24.3866,17.09152,29.72932"/>
  <path fill="none" stroke="#58595B" stroke-width="1.43036" d="M87.40115,49.27863
    c1.64938,7.02484,1.68707,17.41507,12.27962,38.28081c2.94622,5.80584,13.68256,19.10537,19.46335,20.7104"/>
  <polygon fill="#EC1C24" points="73.43289,90.64355 70.29149,89.52686 71.26609,86.77161 74.40607,87.88972"/>
  <path fill="none" stroke="#58595B" stroke-width="1.59101" stroke-linecap="round" d="M85.3263,49.35701
    c0.44617,0.49537,3.67268,0.69411,4.2178-1.7939"/>
  <path fill="#B32C39" d="M47.51812,129.85634c0.13235-0.37372-0.07667-0.6143-0.46431-0.53177l-14.16072,3.03511
    c-0.38907,0.08269-0.5981-0.15805-0.46432-0.53448l2.32857-6.54194c0.13235-0.37371,0.44618-0.42544,0.69433-0.11334
    l9.04356,11.34313c0.24815,0.31339,0.56183,0.25879,0.69433-0.11478L47.51812,129.85634z"/>
  <path fill="#B32C39" d="M41.58112,131.41795c-0.43933,1.23563-0.95104,1.47778-2.18079,1.03688l0,0
    c-1.2326-0.44078-1.47518-0.95563-1.03457-2.18997l0,0c0.4379-1.23418,0.9509-1.47765,2.18079-1.03687l0,0
    C41.77901,129.66876,42.02173,130.18233,41.58112,131.41795L41.58112,131.41795z"/>
  <path fill="#B32C39" d="M46.68843,115.29596c0.26914-0.29246,0.16877-0.5961-0.22173-0.67018l-14.21783-2.74694
    c-0.39036-0.07695-0.4893-0.3793-0.22031-0.67176l4.68354-5.11316c0.26914-0.29247,0.57725-0.2211,0.68605,0.16508
    l3.92083,13.98648c0.10865,0.38345,0.41548,0.45768,0.68591,0.16521L46.68843,115.29596z"/>
  <path fill="#B32C39" d="M40.61623,114.41155c-0.88679,0.96566-1.45291,0.98801-2.41223,0.10217l0,0
    c-0.96204-0.89-0.98717-1.45802-0.10309-2.42224l0,0c0.88394-0.96552,1.45148-0.98787,2.41209-0.0993l0,0
    C41.47504,112.87788,41.50016,113.44604,40.61623,114.41155L40.61623,114.41155z"/>
  <polygon fill="#58595B" points="121.1463,106.99366 120.38786,101.53059 121.90488,101.53059"/>
  <polygon fill="#58595B" points="122.65075,107.93266 126.13239,103.66595 127.16282,104.78264"/>
  <polygon fill="#58595B" points="122.98399,109.67755 128.46924,109.34869 128.35216,110.8656"/>

</svg>
