<?xml version="1.0" encoding="utf-8"?>
<!DOCTYPE svg PUBLIC "-//W3C//DTD SVG 1.1//EN" "http://www.w3.org/Graphics/SVG/1.1/DTD/svg11.dtd">
<svg version="1.1" xmlns="http://www.w3.org/2000/svg" xmlns:xlink="http://www.w3.org/1999/xlink" x="0px" y="0px" width="160px"
  height="160px" viewBox="0 0 160 160" enable-background="new 0 0 160 160" xml:space="preserve">
  <path fill="#F0D0B3" d="M77.11247,43.98698c0.64491-1.00193,1.62572-1.85434,2.41145-2.69447
    c-1.33427,1.3263-4.46719,0.67453-4.46719,0.67453c-0.32616,1.20207-0.4744,2.53267-0.63506,3.81253
    C75.59779,46.20642,76.53181,44.87645,77.11247,43.98698z"/>
  <path fill-rule="evenodd" clip-rule="evenodd" fill="#D0EBEF" d="M88.84393,66.77299
    c-14.86453-0.45947-29.35095-1.97287-44.26748-0.6763c-5.62107,20.75558,0,42.15925,1.2972,63.13103
    c14.70147,1.29657,30.48521,4.9726,43.23961-0.86543c2.59441-1.2972,0.86481-9.29584,0.86481-14.48528
    c-0.4324-12.53947-2.15947-25.07894-1.39854-37.53315C88.89339,70.70786,88.84393,66.77299,88.84393,66.77299z"/>
  <linearGradient id="SVGID_1_" gradientUnits="userSpaceOnUse" x1="86.35081" y1="98.60677" x2="106.84155" y2="98.60677">
    <stop  offset="0" style="stop-color:#8ECDE9"/>
    <stop  offset="0.5" style="stop-color:#69BEE1"/>
    <stop  offset="0.59056" style="stop-color:#54B9DD"/>
    <stop  offset="0.86777" style="stop-color:#18A9D2"/>
    <stop  offset="1" style="stop-color:#00A3CE"/>
  </linearGradient>
  <path fill-rule="evenodd" clip-rule="evenodd" fill="url(#SVGID_1_)" d="M106.84155,79.49287
    c-3.85948-5.31037-13.37216-8.33781-17.99763-12.71987c-5.62107,20.75634-0.16306,42.67198,1.13414,63.64377
    C104.67955,131.71396,106.84155,79.49287,106.84155,79.49287z"/>
  <path fill="#B08775" d="M59.30271,67.62616c1.49733-5.38527-2.27571-22.12388,5.43081-23.14555
    c2.5944-0.31513,5.10973-0.23606,7.7856,0.15623c1.88533,0.315,3.38015,1.88837,3.61481,3.77547
    c0.47199,4.0892-0.86465,15.24381,0,19.17551c0.07666,0.3928,2.12253,0.2353,3.38266,0.2353
    c-0.86732-6.29016,3.93107-24.36545-4.09171-26.40954c-5.03069-1.2576-10.21936-0.70667-15.41056-0.3928
    c-0.472,0.07843-1.02293,0.1575-1.49493,0.31374c-0.3928,0.07907-0.70667,0.31513-1.02293,0.47263
    c-1.25759,0.70781-2.12,1.96617-2.12,3.38064c0.07666,5.19007-0.15813,17.4454-0.27427,22.62915L59.30271,67.62616z"/>
  <path fill="#D0D2D3" d="M72.60313,83.74577l0.06186-0.01354c2.14707-0.46883,6.9356-1.13413,7.17027-0.06553
    c0.25453,1.15704-3.56293,2.6445-6.41667,3.27324l-0.04945,0.01176c-2.68574,0.58497-7.04442,1.0705-7.30629-0.11613
    C65.83805,85.80833,69.71725,84.38147,72.60313,83.74577L72.60313,83.74577z M79.32634,83.80206
    c-0.34095-0.28236-3.01202-0.32739-6.54775,0.4429l-0.06174,0.01353c-3.60493,0.79383-6.05853,2.078-6.1376,2.48383
    c0.07172,0.32121,2.67346,0.56764,6.67626-0.3045l0.05187-0.0105C77.08526,85.59467,79.32139,84.20727,79.32634,83.80206
    L79.32634,83.80206z"/>
  <linearGradient id="SVGID_2_" gradientUnits="userSpaceOnUse" x1="8.62906" y1="-314.43719" x2="23.4244" y2="-314.43719" gradientTransform="matrix(0.9766 -0.2151 0.2151 0.9766 124.7238 394.72281)">
    <stop  offset="0" style="stop-color:#D0D2D3"/>
    <stop  offset="0.5" style="stop-color:#ABADAF"/>
    <stop  offset="1" style="stop-color:#A6A8AB"/>
  </linearGradient>
  <path fill="url(#SVGID_2_)" d="M72.27206,81.94394c-4.00774,0.8753-6.95041,2.96443-6.78987,3.69209
    c0.10386,0.48123,0.60786,0.96727,0.86733,1.13413c0.52867,0.30944,3.1256,0.49161,6.906-0.33233l0.05187-0.01176
    c3.95333-0.86974,6.00906-2.1849,6.27094-2.70307l0,0c0.24467-0.50906,0.30147-1.08037,0.30147-1.47823
    C79.87979,81.49927,76.27232,81.0718,72.27206,81.94394z"/>
  <path fill="#D0D2D3" d="M77.48061,81.38984l0.05932,0.01303c2.1496,0.46023,6.78734,1.8284,6.56001,2.89826
    c-0.24707,1.16007-4.33627,0.94083-7.19508,0.33537l-0.05186-0.00986c-2.68574-0.5751-6.85652-1.93037-6.60454-3.11877
    C70.46592,80.47874,74.58726,80.77894,77.48061,81.38984L77.48061,81.38984z M83.57859,84.2141
    c-0.19265-0.39597-2.60667-1.53996-6.14747-2.29673l-0.0592-0.01353c-3.6124-0.7641-6.37731-0.60596-6.61693-0.26807
    c-0.06427,0.32298,2.20147,1.62017,6.2092,2.47637l0.04947,0.00986C80.80141,84.92254,83.40806,84.5816,83.57859,84.2141
    L83.57859,84.2141z"/>
  <linearGradient id="SVGID_3_" gradientUnits="userSpaceOnUse" x1="204.60153" y1="449.00714" x2="219.39789" y2="449.00714" gradientTransform="matrix(0.9784 0.2069 -0.2069 0.9784 -37.1032 -401.3143)">
    <stop  offset="0" style="stop-color:#D0D2D3"/>
    <stop  offset="0.5" style="stop-color:#ABADAF"/>
    <stop  offset="1" style="stop-color:#A6A8AB"/>
  </linearGradient>
  <path fill="url(#SVGID_3_)" d="M77.92046,79.61217c-4.01027-0.85493-7.55332-0.1656-7.70907,0.5627
    c-0.0988,0.48174,0.15575,1.13287,0.32373,1.39107c0.35333,0.50034,2.64374,1.73694,6.42907,2.5462l0.05187,0.01113
    c3.95827,0.83697,6.3772,0.48794,6.82946,0.12473l0,0c0.42987-0.36446,0.71894-0.86113,0.882-1.2237
    C85.03393,82.3442,81.92566,80.46697,77.92046,79.61217z"/>
  <linearGradient id="SVGID_4_" gradientUnits="userSpaceOnUse" x1="205.5282" y1="428.89218" x2="218.60979" y2="428.89218" gradientTransform="matrix(0.9784 0.2069 -0.2069 0.9784 -37.1032 -401.3143)">
    <stop  offset="0" style="stop-color:#A6BACA"/>
    <stop  offset="0.5" style="stop-color:#ABADAF"/>
    <stop  offset="0.58559" style="stop-color:#A5ABAF"/>
    <stop  offset="1" style="stop-color:#8EA3AE"/>
  </linearGradient>
  <path fill="url(#SVGID_4_)" d="M75.21725,60.98203c0.1928,0.39597,2.6068,1.53997,6.15,2.29723l0.06174,0.0124
    c3.60746,0.76347,6.37227,0.6066,6.6144,0.2687c0.06426-0.32247-2.204-1.62093-6.20667-2.47701l-0.05199-0.0105
    C77.99699,60.27232,75.39032,60.61452,75.21725,60.98203L75.21725,60.98203z"/>
  <path fill="#F48473" d="M88.41647,65.81559l-14.51121-3.0984l-3.70867,17.29702l0,0l0,0v0.00063l0,0
    c-0.1532,0.7283,2.96747,2.01247,6.9752,2.86678c4.0052,0.85493,7.39521,0.87099,7.55574,0.14269l0,0L88.41647,65.81559z"/>
  <linearGradient id="SVGID_5_" gradientUnits="userSpaceOnUse" x1="205.19089" y1="430.10043" x2="218.93687" y2="430.10043" gradientTransform="matrix(0.9784 0.2069 -0.2069 0.9784 -37.1032 -401.3143)">
    <stop  offset="0" style="stop-color:#E6EBF1"/>
    <stop  offset="0.5" style="stop-color:#D9DBDC"/>
    <stop  offset="1" style="stop-color:#D5DBDF"/>
  </linearGradient>
  <path fill="url(#SVGID_5_)" d="M88.0854,64.94283c-0.15813,0.72817-3.29613,0.67693-7.00481-0.11436
    c-3.7112-0.79307-6.59707-2.02664-6.43893-2.75494c0.15321-0.7264,3.34787-0.95133,7.05907-0.15876
    C85.41446,62.70795,88.23859,64.21452,88.0854,64.94283z"/>
  <linearGradient id="SVGID_6_" gradientUnits="userSpaceOnUse" x1="1655.91504" y1="2407.04297" x2="1658.62378" y2="2407.04297" gradientTransform="matrix(0.5719 0.8204 -0.8204 0.5719 1107.76233 -2673.06958)">
    <stop  offset="0" style="stop-color:#A6BACA"/>
    <stop  offset="0.5" style="stop-color:#ABADAF"/>
    <stop  offset="0.58559" style="stop-color:#A5ABAF"/>
    <stop  offset="1" style="stop-color:#8EA3AE"/>
  </linearGradient>
  <path fill="url(#SVGID_6_)" d="M82.42725,62.85862c-0.54359-0.36687-1.55173-0.58433-2.25093-0.49046
    c-0.70174,0.09576-1.80867,0.45087-1.07733,0.94197c0.73133,0.49173,2.33987,0.47756,3.0416,0.38306
    C82.84232,63.59742,82.97073,63.22436,82.42725,62.85862z"/>
  <linearGradient id="SVGID_7_" gradientUnits="userSpaceOnUse" x1="204.60335" y1="430.65027" x2="219.44072" y2="430.65027" gradientTransform="matrix(0.9784 0.2069 -0.2069 0.9784 -37.1032 -401.3143)">
    <stop  offset="0" style="stop-color:#D0D2D3"/>
    <stop  offset="0.5" style="stop-color:#ABADAF"/>
    <stop  offset="1" style="stop-color:#A6A8AB"/>
  </linearGradient>
  <path fill="url(#SVGID_7_)" d="M88.08793,63.71533c-0.48679,0.4639-2.47587,0.6381-6.82201-0.20747
    c-3.57278-0.69553-6.3476-1.8933-6.31292-2.55923c-0.89946,1.0643-0.97855,1.44306-1.04774,1.7673
    c-0.15813,0.72893,2.96507,2.01183,6.97267,2.86867c4.00773,0.85367,7.38293,0.9574,7.53854,0.22797
    C88.57219,65.08426,88.629,63.20386,88.08793,63.71533z"/>
  <path fill="#D0D2D3" d="M81.31779,63.80679l-0.06174-0.01543c-2.1496-0.45833-6.78493-1.826-6.56013-2.89764
    c0.24707-1.1588,4.3364-0.93893,7.19507-0.33423l0.05187,0.01113c2.68826,0.57383,6.85666,1.92847,6.60455,3.11763
    C88.33247,64.71726,84.20872,64.41706,81.31779,63.80679L81.31779,63.80679z M75.21725,60.98203
    c0.1928,0.39597,2.6068,1.53997,6.15,2.29723l0.06174,0.0124c3.60746,0.76347,6.37227,0.6066,6.6144,0.2687
    c0.06426-0.32247-2.204-1.62093-6.20667-2.47701l-0.05199-0.0105C77.99699,60.27232,75.39032,60.61452,75.21725,60.98203
    L75.21725,60.98203z"/>
  <linearGradient id="SVGID_8_" gradientUnits="userSpaceOnUse" x1="1152.19141" y1="2013.87744" x2="1154.91516" y2="2013.87744" gradientTransform="matrix(0.7184 0.6956 -0.6956 0.7184 655.91663 -2187.19629)">
    <stop  offset="0" style="stop-color:#A6BACA"/>
    <stop  offset="0.5" style="stop-color:#ABADAF"/>
    <stop  offset="0.58559" style="stop-color:#A5ABAF"/>
    <stop  offset="1" style="stop-color:#8EA3AE"/>
  </linearGradient>
  <path fill="url(#SVGID_8_)" d="M85.30326,61.26743c-0.60039-0.30893-1.6332-0.33234-2.3028-0.05124
    c-0.67211,0.28034-1.69013,0.96853-0.87959,1.38234c0.80545,0.4157,2.38679,0.0167,3.05879-0.26376
    C85.84926,62.05442,85.90859,61.57686,85.30326,61.26743z M82.38766,62.48859c-0.44479-0.22733-0.0272-0.54423,0.26681-0.66707
    c0.29653-0.12423,1.48506,0.48667,1.19106,0.61153C83.55139,62.55476,82.82752,62.71466,82.38766,62.48859z M83.33646,61.35016
    c0.4892-0.20507,1.24281-0.189,1.68269,0.0377c0.43732,0.2248,0.39532,0.5732-0.09389,0.77827
    C84.43594,62.37069,82.84726,61.5546,83.33646,61.35016z"/>
  <linearGradient id="SVGID_9_" gradientUnits="userSpaceOnUse" x1="1152.12488" y1="2013.77173" x2="1154.84802" y2="2013.77173" gradientTransform="matrix(0.7184 0.6956 -0.6956 0.7184 655.91663 -2187.19629)">
    <stop  offset="0" style="stop-color:#E6EBF1"/>
    <stop  offset="0.5" style="stop-color:#D9DBDC"/>
    <stop  offset="1" style="stop-color:#D5DBDF"/>
  </linearGradient>
  <path fill="url(#SVGID_9_)" d="M85.33046,61.14446c-0.6004-0.30817-1.6332-0.33107-2.30534-0.04934
    c-0.672,0.27971-1.6876,0.96664-0.8796,1.38234c0.808,0.4152,2.38934,0.0167,3.05894-0.2644
    C85.87405,61.93209,85.93327,61.4539,85.33046,61.14446z M82.40993,62.36753c-0.43987-0.2286-0.02227-0.54601,0.27174-0.66897
    c0.29413-0.1236,1.48506,0.48794,1.19093,0.61153C83.57619,62.43369,82.85461,62.59359,82.40993,62.36753z M83.36366,61.22783
    c0.4892-0.20444,1.2404-0.18837,1.68014,0.0377c0.43733,0.22607,0.39788,0.57383-0.09134,0.7784
    C84.46313,62.24836,82.87446,61.4329,83.36366,61.22783z"/>
  <linearGradient id="SVGID_10_" gradientUnits="userSpaceOnUse" x1="9.55716" y1="-334.55246" x2="22.63572" y2="-334.55246" gradientTransform="matrix(0.9766 -0.2151 0.2151 0.9766 124.7238 394.72281)">
    <stop  offset="0" style="stop-color:#A6BACA"/>
    <stop  offset="0.5" style="stop-color:#ABADAF"/>
    <stop  offset="0.58559" style="stop-color:#A5ABAF"/>
    <stop  offset="1" style="stop-color:#8EA3AE"/>
  </linearGradient>
  <path fill="url(#SVGID_10_)" d="M62.12685,66.08733c0.336,0.2811,3.00946,0.32739,6.54773-0.44341l0.0592-0.01366
    c3.60493-0.79434,6.05855-2.07674,6.1376-2.4832c-0.07161-0.32183-2.67587-0.5689-6.67614,0.30336l-0.0544,0.01113
    C64.36539,64.29359,62.12925,65.68099,62.12685,66.08733L62.12685,66.08733z"/>
  <path fill="#D55A55" d="M76.14139,65.0453l-14.4964,3.16393l3.75573,17.28651l0,0l0,0v0.00063l0,0
    c0.16306,0.72767,3.53574,0.6085,7.536-0.2649c4.0028-0.8729,7.09627-2.25777,6.94307-2.9867l0,0L76.14139,65.0453z"/>
  <linearGradient id="SVGID_11_" gradientUnits="userSpaceOnUse" x1="9.2172" y1="-333.34485" x2="22.9623" y2="-333.34485" gradientTransform="matrix(0.9766 -0.2151 0.2151 0.9766 124.7238 394.72281)">
    <stop  offset="0" style="stop-color:#E6EBF1"/>
    <stop  offset="0.5" style="stop-color:#D9DBDC"/>
    <stop  offset="1" style="stop-color:#D5DBDF"/>
  </linearGradient>
  <path fill="url(#SVGID_11_)" d="M75.47927,64.38873c0.15813,0.72829-2.72042,1.9754-6.42921,2.78403
    c-3.70614,0.8085-6.84174,0.87517-6.99987,0.147c-0.16054-0.72589,2.65614-2.24726,6.36495-3.05703
    C72.12632,63.45346,75.32114,63.66106,75.47927,64.38873z"/>
  <linearGradient id="SVGID_12_" gradientUnits="userSpaceOnUse" x1="991.2569" y1="1984.05603" x2="993.96387" y2="1984.05603" gradientTransform="matrix(0.8593 0.5115 -0.5115 0.8593 230.0108 -2146.87427)">
    <stop  offset="0" style="stop-color:#A6BACA"/>
    <stop  offset="0.5" style="stop-color:#ABADAF"/>
    <stop  offset="0.58559" style="stop-color:#A5ABAF"/>
    <stop  offset="1" style="stop-color:#8EA3AE"/>
  </linearGradient>
  <path fill="url(#SVGID_12_)" d="M69.46767,64.82227c-0.64735-0.10931-1.65549,0.1069-2.25589,0.48376
    c-0.59787,0.37547-1.45773,1.15514-0.59052,1.30214c0.86732,0.14573,2.32758-0.53133,2.92798-0.90681
    C70.14712,65.32449,70.11259,64.93169,69.46767,64.82227z"/>
  <linearGradient id="SVGID_13_" gradientUnits="userSpaceOnUse" x1="8.62807" y1="-332.79449" x2="23.46821" y2="-332.79449" gradientTransform="matrix(0.9766 -0.2151 0.2151 0.9766 124.7238 394.72281)">
    <stop  offset="0" style="stop-color:#D0D2D3"/>
    <stop  offset="0.5" style="stop-color:#ABADAF"/>
    <stop  offset="1" style="stop-color:#A6A8AB"/>
  </linearGradient>
  <path fill="url(#SVGID_13_)" d="M74.97765,63.26813c-0.25453,0.62393-1.994,1.60233-6.30065,2.62527
    c-3.54069,0.84013-6.56255,0.892-6.80468,0.27187c-0.38294,1.34034-0.30147,1.7191-0.22974,2.0427
    c0.16053,0.7283,3.53321,0.61027,7.53853-0.26313c4.00268-0.87531,7.12094-2.1725,6.96027-2.90194
    C75.98325,64.31636,75.25925,62.58006,74.97765,63.26813z"/>
  <path fill="#D0D2D3" d="M68.84752,66.14299L68.7858,66.1559c-2.14722,0.46883-6.93575,1.13477-7.1704,0.0668
    c-0.25695-1.15829,3.56039-2.645,6.41426-3.27324l0.0544-0.01177c2.6808-0.58433,7.03934-1.07113,7.30133,0.11487
    C75.61259,64.08043,71.73341,65.50793,68.84752,66.14299L68.84752,66.14299z M62.12685,66.08733
    c0.336,0.2811,3.00946,0.32739,6.54773-0.44341l0.0592-0.01366c3.60493-0.79434,6.05855-2.07674,6.1376-2.4832
    c-0.07161-0.32183-2.67587-0.5689-6.67614,0.30336l-0.0544,0.01113C64.36539,64.29359,62.12925,65.68099,62.12685,66.08733
    L62.12685,66.08733z"/>
  <linearGradient id="SVGID_14_" gradientUnits="userSpaceOnUse" x1="578.96808" y1="1471.51575" x2="581.69202" y2="1471.51575" gradientTransform="matrix(0.9414 0.3373 -0.3373 0.9414 20.3553 -1517.55981)">
    <stop  offset="0" style="stop-color:#A6BACA"/>
    <stop  offset="0.5" style="stop-color:#ABADAF"/>
    <stop  offset="0.58559" style="stop-color:#A5ABAF"/>
    <stop  offset="1" style="stop-color:#8EA3AE"/>
  </linearGradient>
  <path fill="url(#SVGID_14_)" d="M71.43205,62.1865c-0.67466-0.03391-1.62587,0.3713-2.12251,0.90376
    c-0.49416,0.53247-1.13656,1.57766-0.22735,1.6227c0.9044,0.04453,2.17934-0.9698,2.6784-1.50227
    C72.25232,62.67823,72.1066,62.21989,71.43205,62.1865z M69.27739,64.50296c-0.49665-0.02467-0.24947-0.48553-0.03214-0.71906
    c0.21999-0.23404,1.55426-0.16864,1.3368,0.06616C70.3646,64.08359,69.77165,64.52699,69.27739,64.50296z M69.67272,63.07293
    c0.36079-0.38787,1.05507-0.68314,1.5468-0.6591c0.49413,0.02417,0.6004,0.35954,0.2396,0.74753
    C71.09592,63.54986,69.31207,63.46156,69.67272,63.07293z"/>
  <linearGradient id="SVGID_15_" gradientUnits="userSpaceOnUse" x1="578.90186" y1="1471.41052" x2="581.6264" y2="1471.41052" gradientTransform="matrix(0.9414 0.3373 -0.3373 0.9414 20.3553 -1517.55981)">
    <stop  offset="0" style="stop-color:#E6EBF1"/>
    <stop  offset="0.5" style="stop-color:#D9DBDC"/>
    <stop  offset="1" style="stop-color:#D5DBDF"/>
  </linearGradient>
  <path fill="url(#SVGID_15_)" d="M71.40485,62.06492c-0.67454-0.0334-1.62334,0.37117-2.12,0.90364s-1.13907,1.5783-0.22986,1.62334
    c0.9044,0.04453,2.17933-0.9698,2.67841-1.5029C72.22765,62.55716,72.07938,62.09756,71.40485,62.06492z M69.25019,64.38126
    c-0.49654-0.02467-0.24947-0.48617-0.03201-0.71894c0.21986-0.2348,1.55653-0.16813,1.33667,0.06604
    C70.33739,63.96189,69.74686,64.40593,69.25019,64.38126z M69.64806,62.95186c0.36079-0.38914,1.05254-0.68377,1.54427-0.65973
    c0.49413,0.0248,0.6004,0.3589,0.23973,0.74689C71.06873,63.42752,69.28485,63.34049,69.64806,62.95186z"/>
  <path fill="#A0CC42" d="M48.98444,59.68356c-1.95934-0.3465-3.96573-0.0945-5.92747-0.4009
    c-0.56093-0.08767-1.1144-0.23834-1.63078-0.47744c0.68693,0.3169,0.87959,1.33553,1.16133,1.95567
    c0.25439,0.55283,0.48919,1.11377,0.71399,1.67836c0.47933,1.207,0.92654,2.43374,1.55907,3.57217
    c0.56839,1.01736,1.30961,2.08723,2.38199,2.62033c0.9216,0.4577,1.89507,0.30324,2.8488,0.04327
    c1.27987-0.34903,2.54987-0.68453,3.85694-0.93159c-0.27174-0.57067-0.50652-1.14464-0.52867-1.7864
    c-0.02227-0.67137,0.16307-1.32491,0.24454-1.9878c0.17294-1.3984-0.462-2.4121-1.62333-3.1571
    C51.10191,60.20983,50.06178,59.87446,48.98444,59.68356z"/>
  <path fill="#A0CC42" d="M59.94511,59.98376c-0.84013-1.80184-2.19666-3.29917-3.07133-5.0819
    c-0.252-0.51083-0.44467-1.05001-0.546-1.60967c0.13346,0.74373-0.58801,1.48746-0.93398,2.07484
    c-0.30642,0.52386-0.63253,1.03837-0.96362,1.5468c-0.71413,1.0872-1.46025,2.1558-2.03107,3.32751
    c-0.50653,1.04773-0.95612,2.27143-0.77827,3.45553c0.1532,1.01547,0.8376,1.72403,1.59866,2.3553
    c1.02293,0.84937,2.0236,1.69557,2.97734,2.6259c0.31133-0.55106,0.64734-1.07354,1.1588-1.45837
    c0.53867-0.40469,1.17854-0.62949,1.76667-0.94209c1.24533-0.66277,1.71227-1.76224,1.65547-3.1423
    C60.73085,62.02166,60.40965,60.97772,59.94511,59.98376z"/>
  <path fill="#80739B" d="M60.69125,70.54973c-1.26013,0.6925-2.8068,0.30387-3.45172-0.86847
    c-0.64495-1.17183-0.14335-2.6846,1.12172-3.37773c1.26266-0.69363,2.8044-0.30576,3.45174,0.86733
    C62.4554,68.34383,61.95391,69.85596,60.69125,70.54973z"/>
  <path fill="#80739B" d="M61.35845,69.6151c0.1976-0.1069,0.37547-0.23531,0.5312-0.37737
    c0.28413-0.66226,0.2792-1.4165-0.07666-2.06686c-0.64734-1.1731-2.18907-1.56097-3.45174-0.86733
    c-0.1952,0.10816-0.3756,0.23543-0.53373,0.37813c-0.2792,0.66151-0.27667,1.41574,0.0816,2.06561
    C58.55151,69.92086,60.09831,70.30886,61.35845,69.6151z"/>
  <ellipse fill="#80739B" cx="58.23773" cy="66.85266" rx="2.42139" ry="2.60857"/>
  <path fill="#A582A2" d="M60.16005,65.81812c0-0.22366-0.02467-0.4405-0.07412-0.64683
    c-0.44482-0.56637-1.10693-0.92654-1.85069-0.92654c-1.33667,0-2.41892,1.16867-2.41892,2.60794
    c0,0.22366,0.02225,0.44112,0.07412,0.6486c0.44227,0.5646,1.10934,0.92539,1.84814,0.92539
    C59.07538,68.42669,60.16005,67.25853,60.16005,65.81812z"/>
  <path fill="#80739B" d="M62.14658,72.31323c-1.26254,0.69313-2.80933,0.30513-3.45174-0.86784
    c-0.64493-1.17246-0.14333-2.6846,1.12173-3.3776c1.26014-0.69376,2.80693-0.30514,3.45174,0.8672
    C63.90832,70.10746,63.40926,71.6196,62.14658,72.31323z"/>
  <path fill="#A582A2" d="M62.81618,71.37923c0.1952-0.10741,0.37066-0.23467,0.5288-0.37737
    c0.2816-0.66213,0.2792-1.41637-0.07666-2.06686c-0.64481-1.17234-2.1916-1.56097-3.45174-0.8672
    c-0.1976,0.1074-0.3756,0.23466-0.53373,0.378c-0.2816,0.66163-0.27667,1.41637,0.0816,2.06624
    C60.00685,71.68449,61.55112,72.073,62.81618,71.37923z"/>
  <path fill="#80739B" d="M58.79124,73.51353c-1.26013,0.69363-2.80693,0.30577-3.44931-0.8667
    c-0.64495-1.17246-0.14335-2.68523,1.11932-3.37887c1.26506-0.6925,2.80933-0.30513,3.45173,0.86784
    C60.5578,71.30889,60.05378,72.82103,58.79124,73.51353z"/>
  <path fill="#80739B" d="M59.46085,72.5808c0.19761-0.10816,0.37307-0.23606,0.5336-0.37813
    c0.2792-0.66214,0.2768-1.41701-0.08147-2.06687c-0.6424-1.17297-2.18667-1.56033-3.45173-0.86784
    c-0.19773,0.10754-0.3756,0.23531-0.53133,0.37801c-0.2816,0.66163-0.27667,1.4165,0.0816,2.06686
    C56.65392,72.88593,58.19818,73.27316,59.46085,72.5808z"/>
  <ellipse fill="#80739B" cx="60.4689" cy="72.7981" rx="2.4214" ry="2.60857"/>
  <path fill="#A582A2" d="M62.39365,71.76356c0-0.2243-0.0272-0.44049-0.07413-0.64796
    c-0.4472-0.56586-1.10934-0.9254-1.85067-0.9254c-1.33667,0-2.42134,1.16804-2.42134,2.60794
    c0,0.22366,0.02467,0.4405,0.07413,0.6486c0.44467,0.5646,1.10693,0.92477,1.85067,0.92477
    C61.30898,74.3715,62.39365,73.20396,62.39365,71.76356z"/>
  <path fill="#80739B" d="M63.07565,75.4105c1.2304,0.74436,2.792,0.4181,3.48387-0.72704
    c0.68934-1.1459,0.24707-2.67663-0.98346-3.42087c-1.23294-0.7431-2.79441-0.4176-3.48387,0.72766
    C61.40045,73.1354,61.84018,74.6674,63.07565,75.4105z"/>
  <path fill="#A582A2" d="M62.44552,74.45119c-0.19267-0.11487-0.3656-0.25023-0.5188-0.39913
    c-0.252-0.67263-0.21987-1.42623,0.16547-2.06181c0.68946-1.14526,2.25093-1.47076,3.48387-0.72766
    c0.19279,0.1155,0.36334,0.2501,0.51399,0.399c0.25694,0.67263,0.2224,1.42686-0.16066,2.06193
    C65.23765,74.8693,63.67845,75.19556,62.44552,74.45119z"/>
  <ellipse transform="matrix(0.48151 0.87644 -0.87644 0.48151 99.50464 -15.9275)" fill="#80739B" cx="63.21399" cy="76.13599" rx="2.42198" ry="2.60978"/>
  <path fill="#A582A2" d="M65.04739,77.32417c0.1976-0.1069,0.37306-0.23417,0.5312-0.37624
    c0.28173-0.66213,0.27921-1.417-0.07906-2.0675c-0.64494-1.17297-2.1892-1.56097-3.45174-0.8672
    c-0.1952,0.10804-0.37307,0.23467-0.5312,0.378c-0.28173,0.66164-0.27679,1.41637,0.07907,2.06624
    C62.23805,77.62993,63.78231,78.01843,65.04739,77.32417z"/>
  <ellipse fill="#80739B" cx="51.20572" cy="67.94482" rx="2.4214" ry="2.60794"/>
  <path fill="#80739B" d="M53.12806,66.90899c0-0.2224-0.02468-0.44049-0.07415-0.64746
    c-0.4448-0.5646-1.10693-0.92464-1.85067-0.92464c-1.33667,0-2.41894,1.16677-2.41894,2.60794
    c0,0.22366,0.02467,0.44037,0.07162,0.64733c0.44731,0.5665,1.10946,0.92603,1.85065,0.92603
    C52.04338,69.5182,53.12806,68.35003,53.12806,66.90899z"/>
  <ellipse transform="matrix(0.48118 0.87662 -0.87662 0.48118 88.59913 -12.73575)" fill="#80739B" cx="55.05905" cy="68.48291" rx="2.42112" ry="2.60678"/>
  <path fill="#A582A2" d="M56.89365,69.67253c0.1976-0.10804,0.37307-0.23531,0.5336-0.37863
    c0.2792-0.66087,0.27427-1.41637-0.07907-2.06624c-0.6448-1.17234-2.1916-1.56097-3.45414-0.8672
    c-0.1952,0.10741-0.3732,0.23467-0.53133,0.378c-0.2792,0.661-0.27667,1.41574,0.08161,2.06624
    C54.08671,69.97652,55.63098,70.36566,56.89365,69.67253z"/>
  <ellipse transform="matrix(0.48153 0.87643 -0.87643 0.48153 90.44566 -10.3265)" fill="#80739B" cx="53.95085" cy="71.28198" rx="2.42201" ry="2.60984"/>
  <path fill="#A582A2" d="M55.78178,72.47137c0.19522-0.10741,0.37307-0.23594,0.5312-0.37864
    c0.2816-0.6615,0.2792-1.41573-0.07907-2.06686c-0.6424-1.1712-2.18667-1.56033-3.44933-0.86657
    c-0.19761,0.10677-0.3756,0.2353-0.53373,0.378c-0.28159,0.66151-0.27667,1.41574,0.07907,2.06624
    C52.97485,72.77599,54.51912,73.1645,55.78178,72.47137z"/>
  <path fill="#80739B" d="M51.76165,74.60554c-1.26254,0.69312-2.80933,0.30526-3.45414-0.86721
    c-0.64-1.1731-0.14093-2.68523,1.12173-3.37887c1.26254-0.69313,2.80934-0.3045,3.45174,0.86784
    C53.52591,72.39977,53.0218,73.9119,51.76165,74.60554z"/>
  <path fill="#80739B" d="M52.42884,73.67166c0.1976-0.10753,0.37307-0.23479,0.5312-0.37813
    c0.2816-0.66151,0.2792-1.41637-0.07907-2.06624c-0.6424-1.17233-2.1892-1.56097-3.45174-0.86784
    c-0.1952,0.10804-0.37307,0.23531-0.5312,0.37737c-0.28173,0.6629-0.27933,1.4165,0.07907,2.06813
    C49.62191,73.9768,51.16618,74.3653,52.42884,73.67166z"/>
  <ellipse fill="#80739B" cx="53.43565" cy="73.89026" rx="2.42267" ry="2.60794"/>
  <path fill="#80739B" d="M55.36165,72.85557c0-0.22417-0.0272-0.44164-0.07654-0.64861
    c-0.44226-0.5651-1.10946-0.92464-1.85067-0.92464c-1.3368,0-2.42146,1.1674-2.42146,2.60794
    c0,0.22366,0.0272,0.4405,0.07666,0.64733c0.44467,0.56586,1.10693,0.92477,1.85307,0.92477
    C54.27698,75.46236,55.36165,74.29546,55.36165,72.85557z"/>
  <ellipse transform="matrix(-0.51628 0.85642 -0.85642 -0.51628 150.61537 63.78669)" fill="#80739B" cx="57.29391" cy="74.4281" rx="2.42166" ry="2.60829"/>
  <path fill="#A582A2" d="M55.41111,75.54269c-0.19027-0.1155-0.3608-0.2496-0.514-0.39976
    c-0.25441-0.672-0.21987-1.42561,0.16307-2.06181c0.68946-1.14464,2.25093-1.47141,3.48399-0.72704
    c0.19267,0.11487,0.36067,0.2501,0.5164,0.399c0.252,0.67264,0.21987,1.42623-0.16319,2.06193
    C58.20565,75.96017,56.64658,76.28643,55.41111,75.54269z"/>
  <ellipse transform="matrix(-0.37707 0.92618 -0.92618 -0.37707 154.0594 51.05697)" fill="#80739B" cx="59.85986" cy="77.33679" rx="2.42132" ry="2.60556"/>
  <path fill="#80739B" d="M58.17351,78.72813c-0.20507-0.084-0.39786-0.19026-0.5708-0.31374
    c-0.35574-0.6257-0.43733-1.37563-0.15813-2.06257c0.50401-1.23786,1.9964-1.8012,3.32829-1.2576
    c0.20747,0.08463,0.40025,0.18963,0.57318,0.3131c0.35574,0.62634,0.43733,1.375,0.16055,2.06319
    C61.00018,78.70903,59.5078,79.27174,58.17351,78.72813z"/>
  <ellipse transform="matrix(0.48145 0.87647 -0.87647 0.48145 96.82039 -9.19603)" fill="#80739B" cx="56.18198" cy="77.22717" rx="2.42225" ry="2.60783"/>
  <path fill="#80739B" d="M58.01538,78.4168c0.1976-0.10867,0.37307-0.23593,0.5312-0.378
    c0.28173-0.66214,0.2792-1.41637-0.07654-2.06687c-0.64493-1.17171-2.19173-1.56033-3.45427-0.86784
    c-0.19773,0.10741-0.37307,0.23531-0.5312,0.37864c-0.28173,0.66163-0.2768,1.41573,0.07907,2.0656
    C55.20605,78.72143,56.75272,79.10993,58.01538,78.4168z"/>
  <ellipse transform="matrix(-0.37749 0.92601 -0.92601 -0.37749 159.07231 54.08797)" fill="#80739B" cx="61.35599" cy="80.51172" rx="2.42177" ry="2.60692"/>
  <path fill="#80739B" d="M51.91486,80.6709c1.33425,0.5436,2.82412-0.01974,3.32825-1.25836
    c0.50401-1.23787-0.16558-2.68384-1.49986-3.22744c-1.33427-0.54297-2.82652,0.02037-3.33307,1.25823
    C49.90858,78.68183,50.58058,80.1273,51.91486,80.6709z"/>
  <path fill="#80739B" d="M51.14151,79.81963c-0.20507-0.084-0.39533-0.19026-0.5708-0.31374
    c-0.35574-0.6252-0.43734-1.375-0.16054-2.06257c0.50655-1.23786,1.99881-1.8012,3.33307-1.25823
    c0.20507,0.084,0.39787,0.1909,0.5708,0.31437c0.35587,0.6252,0.43734,1.375,0.15813,2.06194
    C53.96565,79.80053,52.47578,80.36387,51.14151,79.81963z"/>
  <ellipse transform="matrix(-0.51628 0.85642 -0.85642 -0.51628 162.28366 66.21185)" fill="#80739B" cx="62.44312" cy="78.93604" rx="2.42166" ry="2.60795"/>
  <path fill="#80739B" d="M60.56286,80.05013c-0.19281-0.11563-0.36334-0.25086-0.51642-0.39977
    c-0.25453-0.67264-0.22238-1.42624,0.16307-2.0613c0.69174-1.14577,2.25095-1.47127,3.48387-0.72703
    c0.19267,0.11499,0.3632,0.2496,0.5164,0.39849c0.25441,0.672,0.21987,1.42687-0.16306,2.06194
    C63.35487,80.46823,61.79818,80.79374,60.56286,80.05013z"/>
  <ellipse transform="matrix(0.48155 0.87642 -0.87642 0.48155 100.36947 -8.86689)" fill="#80739B" cx="57.67932" cy="80.4021" rx="2.42175" ry="2.60991"/>
  <path fill="#80739B" d="M59.51018,81.59187c0.19773-0.10753,0.3756-0.23466,0.53373-0.37737
    c0.28173-0.66164,0.27667-1.41713-0.0816-2.06687c-0.6424-1.1731-2.18667-1.5616-3.44921-0.86796
    c-0.19773,0.10753-0.37307,0.23543-0.5312,0.37813c-0.28173,0.6615-0.2792,1.41637,0.07654,2.06686
    C56.70338,81.897,58.25005,82.28551,59.51018,81.59187z"/>
  <path fill="#80739B" d="M60.15511,85.24007c1.35655,0.4892,2.82414-0.13283,3.2788-1.39107
    c0.45467-1.25773-0.27427-2.6741-1.6308-3.16457c-1.35147-0.49046-2.8192,0.13284-3.27386,1.39043
    C58.07471,83.33323,58.80111,84.74897,60.15511,85.24007z"/>
  <path fill="#80739B" d="M59.35205,84.4203c-0.21-0.07654-0.4052-0.17471-0.58305-0.29147
    c-0.38055-0.60976-0.49175-1.3559-0.23975-2.05396c0.45467-1.2576,1.92239-1.8809,3.27386-1.39043
    c0.21253,0.07603,0.4052,0.17484,0.5856,0.2916c0.378,0.60963,0.49413,1.3559,0.23973,2.05383
    C62.17378,84.2876,60.70605,84.91014,59.35205,84.4203z"/>
  <linearGradient id="SVGID_16_" gradientUnits="userSpaceOnUse" x1="1281.20581" y1="1403.18372" x2="1265.89893" y2="1407.65906" gradientTransform="matrix(0.5421 0.8403 -0.8403 0.5421 565.33588 -1749.3219)">
    <stop  offset="0" style="stop-color:#DDA96E"/>
    <stop  offset="0.15788" style="stop-color:#D2915E"/>
    <stop  offset="0.48912" style="stop-color:#B65533"/>
    <stop  offset="0.5" style="stop-color:#B55332"/>
    <stop  offset="1" style="stop-color:#EA892B"/>
  </linearGradient>
  <path fill="url(#SVGID_16_)" d="M85.57259,84.67914c-0.77827,5.74783-6.45134,9.24284-11.93667,8.71834
    c-0.50401-0.0482-1.23787,0.60103-1.732,0.48427c-0.5016-0.1179-0.99333-0.27237-1.48-0.46264
    c-0.4324-0.1704-0.62267-1.09946-1.03773-1.33173c-1.6456-0.97536-2.57707-2.41337-3.862-3.61974
    c-1.28973-1.20827-1.49733-3.11017-1.70733-5.01397c-0.31374-2.85513,0.91667-5.68546,2.61173-7.79737
    c1.92721-1.75186,3.85201-3.50487,6.3476-3.58583c0.42241,0.0062,0.82761-0.0148,1.21801-0.04263
    c0.91173-0.06603,1.9248-1.25394,2.58453-0.98397c0.08653,0.03644,0.70427,0.30337,0.80547,0.32373
    c0.79066,0.22733,0.99081,1.14464,1.7272,1.46697c3.33307,1.4652,5.95214,3.96574,6.48093,7.88504
    C85.83939,82.03603,85.82713,83.38194,85.57259,84.67914z"/>
  <path fill="#F6921E" d="M85.57259,84.67914c0.25453-1.2972,0.2668-2.6431,0.01973-3.95953
    c-0.52879-3.9193-3.14787-6.41984-6.48093-7.88504c-0.73638-0.32233-0.93653-1.23964-1.7272-1.46697
    c-0.1012-0.02036-0.71894-0.28729-0.80547-0.32373c-0.65973-0.26997-1.6728,0.91794-2.58453,0.98397
    c-0.27667,0.02049-0.56081,0.03214-0.85241,0.03706c-0.9908,0.65797-1.91986,1.49987-2.8488,2.3443
    c-1.69254,2.11127-2.92307,4.94287-2.6092,7.79724c0.20747,1.90317,0.41508,3.8057,1.7048,5.01334
    c1.28733,1.207,2.15213,3.55737,3.79773,4.53159c0.41254,0.23164,3.81494,0.35207,4.31654,0.40027
    c0.9068,0.0864,1.82095,0.05984,2.71789-0.06553C82.99792,90.61723,85.11793,88.03271,85.57259,84.67914z"/>

  <linearGradient id="SVGID_17_" gradientUnits="userSpaceOnUse" x1="-382.41501" y1="-1450.21924" x2="-375.28104" y2="-1450.21924" gradientTransform="matrix(-0.1924 -0.9813 0.9813 -0.1924 1420.23706 -577.72632)">
    <stop  offset="0" style="stop-color:#C1D5AE"/>
    <stop  offset="0.5" style="stop-color:#AAC690"/>
    <stop  offset="1" style="stop-color:#9EBF88"/>
  </linearGradient>
  <path fill="url(#SVGID_17_)" d="M68.45459,70.44409c-0.30132,0.18344-1.11427,0.50831-1.39347,0.71097
    c-0.6128,0.44353-0.65733,0.79434-1.23547,1.26874c-0.43481,0.3565-1.396,0.8376-1.85067,1.1712
    c-0.2396,0.17419,0.04453,0.21556-0.20747,0.37686c-0.48186,0.30691-1.00079,0.5732-1.55666,0.76714
    c0.52627-0.18407,1.11933-0.0124,1.65546,0.16066c0.21494,0.06971-0.10373,0.26933,0.084,0.3169
    c0.35574,0.08894,1.23547,0.05617,1.58627,0.15623c0.2248,0.06364-0.07664,0.2563,0.14574,0.3231
    c0.19773,0.05807,0.91666-0.00936,1.11187,0.04934c0.42747,0.1303,0.33119,0.38737,0.766,0.5097
    c0.60293,0.16914,1.73706,0.19571,2.36707,0.30691c1.14893,0.2076,2.11253-0.59484,3.2912-0.97601
    c1.01054-0.32854,1.47015-0.84367,1.73202-1.59234c0.63-1.80993,2.17439-1.2571,2.96999-2.2226
    c-0.6128-0.14397-1.196-0.31374-1.6728-0.65657c-0.49907-0.3589-0.83027-0.83646-1.24279-1.2571
    c-0.87721-0.8839-2.07308-1.04634-3.46909-0.7245C70.40912,69.39333,69.39352,69.86406,68.45459,70.44409z"/>

  <linearGradient id="SVGID_18_" gradientUnits="userSpaceOnUse" x1="-379.11526" y1="-1449.60229" x2="-377.59952" y2="-1449.60229" gradientTransform="matrix(-0.1924 -0.9813 0.9813 -0.1924 1420.23706 -577.72632)">
    <stop  offset="0" style="stop-color:#E6E7CE"/>
    <stop  offset="0.5" style="stop-color:#D2D5A8"/>
    <stop  offset="0.55834" style="stop-color:#D0D3A4"/>
    <stop  offset="1" style="stop-color:#C5C98D"/>
  </linearGradient>
  <path fill="url(#SVGID_18_)" d="M76.81593,72.00076c-4.06947-0.77094-8.69481-0.55727-12.36401,1.89203
    C68.41752,72.07856,72.67485,72.62583,76.81593,72.00076L76.81593,72.00076z"/>
  <path fill="#885A36" d="M76.93205,71.73813c-0.26933-0.01543-0.49413-0.73627-0.49413-0.73627
    c0.43974-0.441,1.29467,0.1952,1.33427,0.55473C77.61899,71.84997,77.22606,71.8907,76.93205,71.73813z"/>
  <path fill="#00C1F2" d="M104.2422,63.01423c1.06-3.4511-0.6968-7.76511-2.5276-9.58984
    c-0.65974,1.64307-1.67773,1.35527-2.92547,0.97157c-1.24293-0.38104-2.25094-0.7159-1.87547-2.44727
    c-2.54,0.48111-6.41172,3.0669-7.47174,6.51801l-3.89905,12.68774c-0.18029,0.58624-0.14322,1.20763,0.07906,1.8322
    c-0.64481,0.79118-1.14894,1.64864-1.37868,2.39793c-0.17786,0.5856-0.14333,1.207,0.07667,1.83018
    c-0.64253,0.7932-1.14651,1.65053-1.37627,2.3992c-0.17799,0.58496-0.14333,1.207,0.07906,1.82967
    c-0.64493,0.79497-1.14893,1.6499-1.37624,2.39793c-0.18042,0.58686-0.14336,1.20763,0.07652,1.83093
    c-0.6424,0.79433-1.1464,1.64927-1.37867,2.3992c-0.1112,0.36497-0.13094,0.74613-0.07906,1.1316
    c-0.25947,0.29223-0.4572,0.619-0.56825,0.9846c-0.71909,2.33556,2.01118,5.24623,6.10039,6.50207
    c4.0892,1.25571,7.9808,0.38053,8.70227-1.95441c0.11122-0.36573,0.13094-0.74753,0.0816-1.13413
    c0.25694-0.2916,0.45468-0.61773,0.56827-0.98283c0.22974-0.75108,0.2916-1.74074,0.2076-2.7581
    c0.5312-0.39154,0.90921-0.8858,1.09201-1.4714c0.22733-0.74918,0.28919-1.73947,0.2076-2.75861
    c0.5312-0.3904,0.91174-0.8839,1.0896-1.47014c0.23227-0.75056,0.29415-1.7382,0.2076-2.75746
    c0.5312-0.39167,0.91426-0.88454,1.0896-1.47141c0.23227-0.7517,0.294-1.73946,0.21-2.75809
    c0.53133-0.39217,0.91174-0.8839,1.09213-1.47191L104.2422,63.01423z"/>

  <linearGradient id="SVGID_19_" gradientUnits="userSpaceOnUse" x1="1891.59009" y1="-2625.31543" x2="1882.92175" y2="-2613.38452" gradientTransform="matrix(-0.5389 -0.8424 0.8424 -0.5389 3319.02368 244.261)">
    <stop  offset="0" style="stop-color:#E6EBF1"/>
    <stop  offset="0.5" style="stop-color:#D9DBDC"/>
    <stop  offset="1" style="stop-color:#D5DBDF"/>
  </linearGradient>
  <path fill="url(#SVGID_19_)" d="M96.19221,62.85496c-2.61655-0.80307-4.66988-2.28623-5.62602-3.86137l-2.55,8.2934
    c-0.44467,1.4442,1.6184,3.83846,5.2876,4.96577c3.6692,1.12667,6.72321,0.30387,7.16547-1.14096l2.54734-8.29214
    C101.339,63.58566,98.80886,63.65916,96.19221,62.85496z"/>
  <path fill="#00C1F2" d="M101.8702,53.02842c-0.64986,2.11317-1.73694,1.7821-3.08107,1.36754
    c-1.34174-0.41077-2.42893-0.74677-1.77654-2.85931c0.64733-2.11506,1.73694-1.78147,3.07856-1.3707
    C101.43287,50.57976,102.52008,50.91335,101.8702,53.02842z"/>
  <path fill="#A6A8AB" d="M103.67889,49.50559c0.36813-1.14893-0.72643-2.53077-2.44615-3.0898
    c-1.72467-0.5565-3.41961-0.07843-3.79027,1.07113l-0.67706,2.078l0,0v0.00127c-0.37054,1.1483,0.72399,2.53013,2.44866,3.0879
    c1.71973,0.55777,3.4172,0.07907,3.78773-1.06924v-0.00253l0,0L103.67889,49.50559z"/>
  <path fill="#E2E3E4" d="M100.46674,48.82979c1.21573,0.39483,2.15708,0.03896,2.26082-0.28717
    c0.1088-0.32613-0.44722-1.16563-1.66042-1.5597c-1.22054-0.3947-2.162-0.03833-2.26574,0.28843
    C98.69514,47.59812,99.2462,48.43635,100.46674,48.82979z"/>
  <path fill="#00ADEE" d="M111.67447,71.11673c2.1916-2.8698,2.036-7.52424,0.95374-9.87094
    c-1.19093,1.312-2.04585,0.68807-3.0836-0.10197c-1.0328-0.7894-1.86304-1.45343-0.90919-2.94647
    c-2.54748-0.42924-7.07895,0.65417-9.26815,3.5222L91.31232,72.2706c-0.37306,0.48806-0.55347,1.08353-0.56333,1.74567
    c-0.8772,0.5183-1.64813,1.14716-2.12493,1.77097c-0.36813,0.48869-0.55105,1.08353-0.5584,1.74503
    c-0.8796,0.51956-1.648,1.14893-2.12493,1.7716c-0.37067,0.48743-0.55092,1.0829-0.56093,1.74314
    c-0.87961,0.52323-1.64548,1.15083-2.12241,1.77223c-0.37307,0.48857-0.55347,1.08416-0.56333,1.7444
    c-0.8772,0.5226-1.648,1.14957-2.12241,1.77287c-0.22987,0.30387-0.38053,0.65417-0.46706,1.0328
    c-0.34347,0.1847-0.6424,0.42253-0.87707,0.72704c-1.48013,1.94213,0.0716,5.61867,3.46896,8.21497
    c3.40238,2.59491,7.36065,3.1237,8.84065,1.18157c0.23226-0.30323,0.38306-0.65467,0.47199-1.0352
    c0.34347-0.18407,0.63987-0.42126,0.87214-0.724c0.47693-0.62507,0.8772-1.53187,1.15148-2.51596
    c0.63254-0.18217,1.15881-0.51324,1.53185-1.00067c0.47693-0.6238,0.8772-1.52998,1.15147-2.51534
    c0.63496-0.18407,1.16375-0.51324,1.53442-1.00066c0.47678-0.62381,0.87705-1.53061,1.14892-2.51521
    c0.63253-0.18356,1.16373-0.51399,1.5344-1.00193c0.4744-0.6252,0.87707-1.5301,1.15134-2.51407
    c0.63506-0.1842,1.16133-0.51526,1.5344-1.00256L111.67447,71.11673z"/>

  <linearGradient id="SVGID_20_" gradientUnits="userSpaceOnUse" x1="1235.88916" y1="-2723.60718" x2="1227.22144" y2="-2711.67725" gradientTransform="matrix(-0.2134 -0.977 0.977 -0.2134 3020.33081 694.15527)">
    <stop  offset="0" style="stop-color:#E6EBF1"/>
    <stop  offset="0.5" style="stop-color:#D9DBDC"/>
    <stop  offset="1" style="stop-color:#D5DBDF"/>
  </linearGradient>
  <path fill="url(#SVGID_20_)" d="M104.17793,68.17646c-2.17427-1.65977-3.59013-3.7637-3.93853-5.57174l-5.26774,6.89487
    c-0.91667,1.20143,0.19026,4.16334,3.2392,6.49157c3.05147,2.32937,6.19933,2.61476,7.11359,1.41447l5.26534-6.8955
    C108.75394,70.64726,106.35233,69.83876,104.17793,68.17646z"/>
  <path fill="#00ADEE" d="M112.9074,60.92826c-1.3392,1.7568-2.2484,1.06923-3.3628,0.21556
      c-1.1144-0.8505-2.01612-1.543-0.67706-3.29917c1.34415-1.76047,2.24853-1.06797,3.36293-0.21746
      C113.34967,58.47909,114.25407,59.16906,112.9074,60.92826z"/>
  <path fill="#A6A8AB" d="M115.82541,58.25113c0.74626-0.94944,0.20026-2.6259-1.22294-3.74637
    c-1.4232-1.12059-3.17758-1.2595-3.92626-0.30943l-1.354,1.7153l0,0v0.00063c-0.74614,0.95007-0.1976,2.62464,1.22307,3.7446
    c1.4232,1.11921,3.1824,1.25887,3.92613,0.31247l0.00494-0.00304l0,0L115.82541,58.25113z"/>
  <path fill="#E2E3E4" d="M113.04821,56.50419c1.00572,0.79256,2.0088,0.78396,2.22133,0.51336
    c0.21253-0.2687-0.0148-1.24773-1.0204-2.03903c-1.00573-0.79257-2.0088-0.7832-2.22134-0.5145
    C111.8178,54.73512,112.0402,55.71175,113.04821,56.50419z"/>
  <path fill-rule="evenodd" clip-rule="evenodd" fill="#F0DBCB" d="M63.60192,78.6287
    c-7.85974-2.3386-10.9804-10.26994-19.02547-12.53201c-5.62107,20.75558,0,42.15925,1.2972,63.13103
    c6.62441,4.12134,11.272,10.82353,16.43107,12.53087c2.75253,0.91237,27.67335-22.69214,27.67335-27.88158
    C89.54566,101.33754,63.60192,78.6287,63.60192,78.6287z"/>
  <path fill-rule="evenodd" clip-rule="evenodd" fill="#EFC7AF" d="M106.78969,140.86597
    c-14.86707,0.46022-29.56603,2.19034-44.48497,0.89262c-5.6212-20.75444,0-42.15862,1.2972-63.12989
    c14.70147-1.29783,31.16468,5.06583,43.23964,0.86417c0.60785,2.61667,0.86478,9.2966,0.86478,14.48528
    c-0.4324,12.53947-2.162,25.07957-1.39854,37.53442C106.62167,137.14729,106.78969,140.86597,106.78969,140.86597z"/>
  <path fill="#B08775" d="M78.30086,79.16863c1.50227,5.38451-2.55227,17.2693,5.15173,18.29097
    c2.5944,0.315,5.11214,0.23594,7.78309-0.15636c1.89025-0.315,3.38506-1.88824,3.61985-3.7742
    c0.47187-4.09047-2.8168-8.78805-1.952-12.71975c0.07907-0.39293,3.43201,0.13334,4.68961,0.13334
    c-0.86227,6.29017,4.5736,17.5399-3.4468,19.58388c-5.03054,1.25823-10.22174,0.70793-15.41055,0.39343
    c-0.47199-0.07906-1.02293-0.15687-1.49493-0.31437c-0.39026-0.07906-0.70652-0.315-1.02279-0.4725
    c-1.25775-0.70667-2.12002-1.96566-2.12002-3.38013c0.07654-5.19057-0.71413-12.8966-0.83026-18.0797L78.30086,79.16863z"/>
  <path fill="#F0D0B3" d="M74.57981,45.82222c-0.05187-0.01113-0.10374-0.0229-0.15813-0.04263
    c0.16066-1.27987,0.30891-2.61047,0.63506-3.81253c0,0,3.13292,0.65176,4.46719-0.67453
    c-0.63747,0.68263,2.01375-1.1755,1.02293-3.39367c-1.22547-2.74014-2.24107-5.57174-2.82654-8.52314
    c-0.42747-2.16377-0.5856-4.35297-0.69933-6.55267c-0.06918-1.27304-0.126-2.55913-0.42987-3.8032
    c-0.23226-0.96178-0.60533-1.90379-1.21812-2.69321c-0.92655-1.19279-2.31268-1.89513-3.71121-2.38621
    c-2.57214-0.90556-5.33707-1.25951-8.02774-1.61407c-0.7808-0.10069-1.5616-0.19829-2.3448-0.29589
    c-0.556,4.90399-1.50227,9.70487-2.54493,14.52541c-0.64,2.94963-1.28986,5.89724-1.8384,8.86357
    c-0.2544,1.37184-0.65467,2.7166-0.98332,4.06947c-0.25695,1.07594-0.65229,2.3534-0.36813,3.46034
    c0.09132,0.35764,0.64732,1.11377,1.01545,1.37323c1.81107,1.25824,2.4536-1.4609,2.27067-0.68756
    c-0.4596,1.9458,0.84013,2.4498,1.54427,2.8316c1.86547,1.01547,2.8464-0.6715,3.18002-1.4986
    c-0.2644,1.29973-0.30389,2.53633,0.86478,3.40354c0.96854,0.71717,2.48067,1.08226,3.4444,0.18103
    c0.56574-0.52817,0.85483-1.30833,1.14388-2.00564c0.25453,0.5503-0.3212,1.3225,0.00999,1.8389
    c1.6208,2.50471,3.38494,1.1168,3.79761,0.86657c0.9364-0.567,1.18107-0.7703,1.43307-2.3219
    c0.06187-0.3737,0.11121-0.7574,0.16309-1.144C74.47354,45.80185,74.52794,45.81475,74.57981,45.82222z"/>

</svg>
