<svg version="1.1" xmlns="http://www.w3.org/2000/svg" xmlns:xlink="http://www.w3.org/1999/xlink"
 width="160px" height="160px" viewBox="-219 321 160 160">
<path fill="#FFFFFF" d="M-150.3,456c-0.2-0.3-0.7-0.4-1-0.2v-1.2c0-0.2-0.1-0.4-0.4-0.5l-5.9-3c-0.6-0.3-1.8-0.4-2.5-0.1l-16.8,6.3
c-0.4,0.2-0.6,0.4-0.6,0.6v1.1c-0.5,0-0.8,0.4-0.8,0.8c0,0,0,0.1,0,0.1c0.1,0.5,0.5,0.8,0.9,0.7c0,0,0,0,0,0c0,0.3,0.2,0.5,0.5,0.7
l0,0c0.2,0.1,0.5,0.1,0.7,0c0.1,0.2,0.2,0.5,0.5,0.6c0.2,0.1,0.5,0.1,0.7,0c0.1,0.2,0.2,0.5,0.5,0.6c0.2,0.1,0.5,0.1,0.7,0
c0.1,0.2,0.2,0.4,0.4,0.5l0,0c0.2,0.1,0.5,0.1,0.7,0c0.1,0.2,0.2,0.5,0.5,0.6c0.2,0.1,0.5,0.1,0.7,0c0.1,0.3,0.3,0.5,0.6,0.6
c0,0,0.1,0,0.1,0c0.3,0,0.6,0,0.8-0.2c0.2,0.2,0.4,0.3,0.7,0.3c0,0,0.1,0,0.1,0l0.1,0c0.3,0,0.5-0.2,0.7-0.5
c0.2,0.1,0.5,0.2,0.8,0.1c0.2-0.1,0.4-0.3,0.5-0.5c0.2,0.1,0.5,0.1,0.7,0l0,0c0.2-0.1,0.4-0.3,0.5-0.5c0.2,0.1,0.5,0.1,0.7,0l0,0
c0.2-0.1,0.4-0.3,0.5-0.5c0.2,0.1,0.5,0.1,0.7,0l0,0c0.2-0.1,0.4-0.3,0.5-0.5c0.2,0.1,0.5,0.1,0.7,0.1c0.2-0.1,0.4-0.3,0.5-0.5
c0.2,0.1,0.5,0.1,0.7,0l0,0c0.2-0.1,0.4-0.3,0.5-0.5c0.2,0.1,0.5,0.1,0.7,0l0,0c0.2-0.1,0.4-0.3,0.5-0.5c0.2,0.1,0.5,0.1,0.7,0l0,0
c0.2-0.1,0.4-0.3,0.5-0.5c0.2,0.1,0.5,0.1,0.7,0l0,0c0.2-0.1,0.4-0.3,0.5-0.5c0.2,0.1,0.5,0.1,0.7,0l0,0c0.2-0.1,0.4-0.3,0.5-0.5
c0.2,0.1,0.5,0.1,0.7,0l0,0c0.2-0.1,0.4-0.3,0.5-0.5c0.2,0.1,0.5,0.1,0.7,0l0,0c0.2-0.1,0.4-0.3,0.5-0.5c0.2,0.1,0.5,0.1,0.7,0l0,0
c0.2-0.1,0.4-0.3,0.5-0.5c0.2,0.1,0.5,0.1,0.7,0l0,0c0.3-0.1,0.5-0.3,0.5-0.6c0.3,0.1,0.6,0.1,0.8-0.1
C-150.1,456.9-150,456.3-150.3,456z"/>
<path fill="#4D8B99" d="M-151.8,453.3l-5.9-3c-0.6-0.3-1.8-0.4-2.5-0.1l-16.8,6.3c-0.4,0.2-0.6,0.4-0.6,0.6v1.9
c0,0.2,0.1,0.4,0.4,0.5l5.9,3c0.6,0.3,1.8,0.4,2.5,0.1l16.8-6.3c0.4-0.2,0.6-0.4,0.6-0.6v-1.9C-151.4,453.7-151.5,453.5-151.8,453.3
z"/>
<path fill="#37B1D8" d="M-151.8,453.3c0.6,0.3,0.6,0.8-0.2,1.1l-16.8,6.3c-0.7,0.3-1.9,0.2-2.5-0.1l-5.9-3c-0.6-0.3-0.6-0.8,0.2-1.1
l16.8-6.3c0.7-0.3,1.9-0.2,2.5,0.1L-151.8,453.3z"/>
<path fill="#D9DBDC" d="M-162.6,455.5c0,1-3.7,1-3.7,0c0-1,0.8-1.9,1.9-1.9C-163.5,453.6-162.6,454.5-162.6,455.5z"/>
<path fill="#37B1D8" d="M-143.1,358.6l-1.7-0.3l-20.5,96c0,0,0,0.1,0,0.1c-0.1,0.3,0.3,0.6,0.8,0.8c0.5,0.1,1,0,1-0.3c0,0,0,0,0,0
L-143.1,358.6z"/>
<path fill="#E4D3C7" d="M-150.2,451.3c1.4,2.2,2.8,1.8,4.5,2.2c3.2,0.7,6.6-0.9,8.9-1.6c1.7-0.5,4.6,1.3,5.9-2c1.5-3.8-3.4-3-3.6-3
c0,0-1.6,0.1-2.3,0c-0.7-0.1-1.8-0.2-2.8-0.5C-144,447.5-150.7,450.5-150.2,451.3z"/>
<path fill="#E4D3C7" d="M-131.1,464.2c2.8,1.8,5.8,1.4,7.8,1.1c3.8-0.6,4.9-4.4,6.9-6.2c1.5-1.3,5.8-0.5,5.2-4.8
c-0.7-4.9-5.4-1.9-5.6-1.8c0,0-1.7,0.8-2.5,1c-0.8,0.2-5.1,1-6.4,1.2C-125.7,460-132.2,463.5-131.1,464.2z"/>
<path fill="#ABADAF" d="M-130.7,370.4c6.1-2.8,12.5-5,18-8.7c-4.1-2.6-6.5-7.2-7.5-11.8c-0.4-1.5-0.8-3.1-1.2-4.6
c-4.9,2.6-12.2,2.4-13.9,6.6c-1.1,2.2-0.9,4.9-0.2,7.8c1.5,2.7,1.6,5.8,3.4,8.3C-131.3,369.5-130.7,370.4-130.7,370.4z"/>
<path fill="#4AD2FF" d="M-123.4,405.5c0.6-0.4,1-0.6,1-0.6c-4.4-3.7-8.4-10.1-13.3-9.4c-4.9,0.7-7.8,10.7-8.7,15.3
c-1,3.3-3.7,7.1-3.2,11.2c0.1,0.4,0.2,0.8,0.4,1.2c-0.2,2.7,0.6,5.2,1.7,6.7c1,1.4,3.3,8.4,3.7,10.1c0.7,2.9,1.7,4,1,7.1
c-0.2,1-0.9,2.6,0.5,2.8c4.8,0.9,5.3-1.2,12.2-3.6c0,0-0.4-0.3-1.1-0.8c-3.7-4.8-4.5-8.9-5.9-14.1c-0.9-3.6-2.8-5.4-3.2-7.8
c1.6-2.5,2.4-5.5,3.5-7.9C-132.7,410.8-128.5,408-123.4,405.5z"/>
<path fill="#4AD2FF" d="M-111.9,449.9c-4.1-4.3-4.1-8.9-4.1-14.2c0-3.4-0.5-9.7-1.4-16.8c-0.2-1.6-1.9-6-2.2-8
c1.8-2.9,2.1-5.6,2.3-8.2c0.2-2.1-0.9-4.5-3-5.7c-5-2.8-5.5,1.8-5.7,2c0,0-0.4,1-0.8,1.8c-4.3-0.2-8.3-0.2-10.8,1.7
c-2.1,1.6,3.1,2.7,3.7,6.2c0.4,2.1,1.1,4.2,2,5.9c1.4,4.9,2.6,9.6,4.9,12.2c-0.7,2.6-0.3,5.1,0.6,6.7c0.8,1.5,1.8,9.3,1.9,11
c0.2,3,0.5,6.4-0.9,9.3c-0.4,0.9-1.5,2.4,0,2.9c5.2,1.7,14.2-3.3,14.7-4.3C-110.1,451.6-111.3,450.4-111.9,449.9z"/>
<path fill="#E4D3C7" d="M-128.1,384.5c-2.9,2.6-9.8,4.9-14.1,5.9c0,0-2.1-0.8-2.4-2.5c-0.2-1.2,0.1-1.5,0.2-1.6c0,0,1.8-0.1,2.4-0.3
c4.7-1.8,6.1-5.8,9.7-8.7C-126.8,377-127.2,383.7-128.1,384.5z"/>
<path fill="#E6B7CC" d="M-128.1,384.5c2.6-6.1-1.1-15.8-4.2-18.9c-1.4-1.5-4.1-2.4-6.2-1.8c-4.7,1.2-1.9,4.8-1.8,5
c0,0,0.1,0.7,0.3,1.4c2.3,6.5,4.3,5.8,5,9.6C-131.2,383.8-128.5,385.5-128.1,384.5z"/>
<path fill="#E4D3C7" d="M-152.3,384.8c0.3-0.2,0.3-0.3,0.8-0.2c0.5,0.1,1.1,0.2,1.6,0.2c0.1,0.7,0.2,0.9-0.5,0.7
c-0.4-0.1-0.6-0.3-0.7-0.8c-0.1-0.5,0.4-0.7,0.8-0.8c0.8-0.2,1.6-1,2.2-0.4c0.7,0.6-0.1,2.4,0.7,2.5c0.6,0.1,1.2,0.2,1.9,0.2
c0.4,0,0.7,0,1.1,0c0.3,0,0.6,0.1,0.8,0.3c0.4,0.2,0.6,0.6,0.7,0.9c0.3,0.6,0.4,1.3,0.5,2.1c0,0.2,0.1,0.5,0.1,0.7
c-1.6,0.2-3.1,0.6-4.6,0.9c-0.9,0.2-1.9-0.2-2.9-0.3c-0.4-0.1-0.9-0.1-1.3-0.1c-0.4,0-0.8,0-1.1-0.2c-0.1-0.1-0.3-0.3-0.3-0.4
c-0.2-0.7,0.7-0.6,0.4-0.6c-0.6-0.1-0.7-0.5-0.7-0.7c-0.1-0.7,0.5-0.8,0.8-0.8c-0.4,0-0.8-0.2-0.9-0.6c-0.1-0.4-0.1-0.9,0.3-1.1
c0.2-0.1,0.5-0.1,0.7-0.1c-0.1-0.1-0.4,0-0.6-0.2C-153,385.3-152.4,384.9-152.3,384.8z"/>
<path fill="#E4D3C7" d="M-121.7,381.3c2-2.5,3.1-5.5,3.3-10.7c0.3-5.4-3.9-9.2-7.3-9.2c-3.4,0-6.7-0.5-12.7,2.3
c1.3,4.3,3.3,18.2,5.3,18.8C-131.4,383-122.2,381.9-121.7,381.3z"/>
<path fill="#E4D3C7" d="M-131.5,363.2c1.3-0.5,2.3-2.1,5.1-1.9c0,0-1-3.5,0-5.6c0.9-2.1-7.6,0.5-7.6,0.5s0.8,4.5,0.1,6.4
c-0.2,0.5,0.5,0.8,1,0.9C-132.5,363.5-132,363.4-131.5,363.2z"/>
<path fill="#E4D3C7" d="M-129.3,358.2c3.5-2.5,4.7-4.5,5.2-9.7c0.5-5.4-4.1-9.6-10-9.7c-5.9,0-11,4.4-10.4,9.9
c0.7,5.4,5.4,10.8,9,11C-132.5,359.9-130.2,358.8-129.3,358.2z"/>
<path fill="#808284" d="M-134.9,351.2c0.4,0.2,0.7,0,0.7-0.4c0.1-0.4-0.2-0.9-0.5-1.1c-0.4-0.2-0.7,0-0.7,0.4
C-135.5,350.5-135.2,351-134.9,351.2z"/>
<path fill="#808284" d="M-141.2,353.4c0.3,0.2,0.6,0.1,0.6-0.3c0.1-0.4-0.1-0.9-0.4-1.1c-0.3-0.2-0.6-0.1-0.6,0.3
S-141.5,353.2-141.2,353.4z"/>
<path fill="#ABADAF" d="M-123.5,350.6c0.5-1.7,1.9-3.3,2-5.1c0-1.7-0.9-3.4-1.8-4.7c-1.1-1.5-2.4-3.1-3.9-4.2
c-3.1-2.3-8.7-2.7-12.2-1.5c-1.1,0.4-2.1,1-3.1,1.5c-0.8,0.4-2.8,3-3.5,4.8c-0.3,0.8-0.8,7.4-0.2,8.3c0.2,0.4,0,0,1.2-0.5
c0,0,4.2-6.2,14.5-3.4c2.9,0.8,2,5.7,4.1,4.1c1.4-1.1,1.7,2,1.4,4.1c0.7,0,1.1-1.7,1.1-1.7C-123.8,351.8-123.6,351.2-123.5,350.6z"
/>
<polygon fill="#808284" points="-137.2,355.9 -138.1,355.3 -135.9,355.4 "/>
<path fill="#808284" d="M-137.9,354c0-0.7,0.1-1.5,0.1-1.5c0,0-0.1,0-0.1,0.1l0,0l-0.2,2.7l0.4,0
C-137.6,355.4-137.8,354.7-137.9,354z"/>
<path fill="#F399C0" d="M-142.7,401.5c6.8-14.7,7.6-22.3,4.4-37.8c0.7,3.4,2.5,8.3,3.7,8.4c3,0.4,4.1-7.8,8.6-10.7
c2.7,0.2,3.7,0.6,5.6,2.2c1.5,1.2,1.7,2,2,3c0.3,1,0.4,2.5,0.3,3c0.1,15.5,2.5,23.9,1.4,32.2c-3.6,4.7-18.1,4.8-26.7,4.7
C-143.5,406.5-144.4,404.6-142.7,401.5z"/>
<path fill="#62696A" d="M-120.1,376.2c-0.7,0.2-7.2-0.3-8.2-4.8l7.4-3L-120.1,376.2z"/>
<path fill="#E4D3C7" d="M-129.2,385.2c-3.9-0.3-10.6-3.4-14-6.2c-1.6-1.3-1.6-1.7-0.3-3.4c0.9-1.2,1.4-1.3,1.6-1.2
c0,0,1.9,0.9,2.7,1.2c5.2,2.2,7.7,1,12.3,1.6C-122.9,380.9-128.1,385.3-129.2,385.2z"/>
<path fill="#E4D3C7" d="M-129.2,385.2c6.2-2.3,10.7-11.7,10.9-16.1c0.1-2-0.8-4.3-2.6-5.4c-4.1-2.6-4.4,1.9-4.5,2.1
c0,0-0.2,0.4-0.5,1.1c-3.1,6.1-2.1,7-4.4,10.1C-130.9,382.4-130.2,385.6-129.2,385.2z"/>
<path fill="#E4D3C7" d="M-149,368c0.3-0.1,0.4-0.1,0.8,0.2c0.4,0.3,0.8,0.7,1.3,0.9c-0.3,0.7-0.3,0.9-0.8,0.4
c-0.3-0.3-0.4-0.6-0.3-1c0.1-0.5,0.7-0.4,1.1-0.3c0.8,0.2,1.8-0.2,2.1,0.6c0.3,0.9,0.6,1.3,1.1,2.1c0.4,0.6,0.3,1.8,0.6,2.4
c0.4,0.8,0.7,0.9,1.1,1.1c0.3,0.1,0.3,0.6,0.3,0.9c0.1,0.5-0.1,0.9-0.3,1.4c-0.4,0.8-0.4,1-0.9,1.7c-0.2,0.2-0.3,0.4-0.5,0.6
c-1.2-1-2.5-1.8-3.8-2.7c-0.8-0.5-1.6-1-2.4-1.6c-0.4-0.3-0.8-0.5-1.1-0.7c-0.3-0.2-0.7-0.4-0.9-0.7c-0.1-0.1-0.1-0.4-0.1-0.5
c0.1-0.7,0.9-0.2,0.7-0.4c-0.5-0.3-0.4-0.7-0.3-1c0.2-0.6,0.8-0.5,1.1-0.4c-0.4-0.2-0.6-0.5-0.6-1c0.1-0.4,0.3-0.8,0.7-0.8
c0.2,0,0.5,0.1,0.7,0.2c-0.1-0.2-0.4-0.2-0.4-0.4C-149.8,368.2-149.1,368.1-149,368z"/>
<path fill="#FFF5F1" d="M-149.7,384.6l-0.2,0.1c-0.2,0-0.7,0-0.8-0.3c-0.1-0.2,0.8-0.3,0.8-0.3
C-149.9,384.2-149.6,384.4-149.7,384.6z"/>
<path fill="#FFF5F1" d="M-150.5,386.1l0.3,0.1c0.1,0,0.3-0.1,0.4-0.2c0.1-0.2,0-0.4-0.2-0.4l-0.3,0
C-150.5,385.6-150.6,385.9-150.5,386.1z"/>
<path fill="#FFF5F1" d="M-150.2,387.6l0.3,0.1c0.1,0,0.3-0.1,0.3-0.3c0-0.2,0-0.4-0.2-0.4l-0.3,0
C-150.1,387.1-150.3,387.5-150.2,387.6z"/>
<path fill="#FFF5F1" d="M-150.6,389l0.3,0.1c0.2,0,0.3-0.1,0.3-0.3c0-0.2-0.1-0.3-0.2-0.4l-0.3,0
C-150.6,388.4-150.7,388.8-150.6,389z"/>
<path fill="#FFF5F1" d="M-150.8,390.1l0.2,0c0.1,0,0.2-0.1,0.2-0.2c0-0.1-0.1-0.2-0.2-0.2l-0.2,0
C-150.8,389.8-150.9,390.1-150.8,390.1z"/>
<path fill="#E6B7CC" d="M-120.8,363.3c-4.4-2.8-4.8,2-4.9,2.3c0,0-0.2,0.5-0.5,1.2c-1,2-1.6,3.5-2,4.7c0.2,0,0.4,0,0.6,0
c3.4,0,6.9,0.2,7.6,4.8c1.3-2.7,2-5.3,2.1-7C-117.9,366.9-118.8,364.5-120.8,363.3z"/>
<path fill="#ABADAF" d="M-142.8,358.2c0-0.6-0.5-1.1-1.1-1.1c-0.6,0-1.1,0.5-1.1,1.1l-1.1,5l2.2,0.5l1.1-5.2
C-142.8,358.5-142.8,358.3-142.8,358.2z"/>
</svg>
