<?xml version="1.0" encoding="utf-8"?>
<!DOCTYPE svg PUBLIC "-//W3C//DTD SVG 1.1//EN" "http://www.w3.org/Graphics/SVG/1.1/DTD/svg11.dtd">
<svg version="1.1" xmlns="http://www.w3.org/2000/svg" xmlns:xlink="http://www.w3.org/1999/xlink" x="0px" y="0px" width="160px"
  height="160px" viewBox="0 0 160 160" enable-background="new 0 0 160 160" xml:space="preserve">
  <linearGradient id="SVGID_1_" gradientUnits="userSpaceOnUse" x1="81.44918" y1="140.55496" x2="81.44918" y2="27.96179">
    <stop  offset="0" style="stop-color:#EABAA6"/>
    <stop  offset="0.5" style="stop-color:#E19D83"/>
    <stop  offset="1" style="stop-color:#DA886D"/>
  </linearGradient>
  <path fill="url(#SVGID_1_)" d="M129.63365,126.65783c-3.99622,0.10323-8.00032,0.16374-12.00823,0.20912
    c-2.00427,0.02205-4.00854,0.05093-6.00943,0.12182c-6.15049,0.04749-12.02951,1.43047-17.9079,3.50491
    c-15.21582,4.84184-30.43137,11.75812-47.03025,9.68297C33.19136,113.2037,29.73322,82.42582,32.01101,52.60982
    c0.04263-1.58111,0.08497-3.16363,0.12724-4.74615c0.12767-4.7496,0.25224-9.50611,0.35989-14.27291
    c0.00169-2.59258,0.00169-4.07259,0.00169-4.07259l1.90176-1.55638c27.05862,1.70913,56.88527,3.97627,83.85857,1.90176
    c-0.34573,12.10349-0.43211,24.12102-0.34573,36.15707c0.01409,2.00568,0.03339,4.0134,0.05707,6.02042
    c0.28866,16.9556,9.46729,36.89532,13.56391,53.0597L129.63365,126.65783z"/>
  <linearGradient id="SVGID_2_" gradientUnits="userSpaceOnUse" x1="82.40023" y1="138.9986" x2="82.40023" y2="27.96179">
    <stop  offset="0" style="stop-color:#DEC2B3"/>
    <stop  offset="0.07684" style="stop-color:#E0C7B9"/>
    <stop  offset="0.26858" style="stop-color:#E3D0C4"/>
    <stop  offset="0.5" style="stop-color:#E4D3C7"/>
    <stop  offset="0.68532" style="stop-color:#E1D1C6"/>
    <stop  offset="0.80373" style="stop-color:#D9CCC4"/>
    <stop  offset="0.90308" style="stop-color:#CAC3C0"/>
    <stop  offset="0.99186" style="stop-color:#B5B6BA"/>
    <stop  offset="1" style="stop-color:#B3B5B9"/>
  </linearGradient>
  <path fill="url(#SVGID_2_)" d="M131.53542,125.10075c-3.99586,0.10393-7.99998,0.16444-12.00816,0.20989
    c-2.00434,0.02128-4.00861,0.05157-6.00944,0.12104c-6.15049,0.04819-12.02923,1.43118-17.90789,3.50634
    c-15.2159,4.84113-30.43144,11.7574-47.02998,9.68225c-13.48647-26.97225-16.94461-57.75012-14.66683-87.56683
    c0.04227-1.58111,0.08497-3.16222,0.12724-4.74615c0.12732-4.7489,0.25224-9.50541,0.35989-14.27291
    c0.00134-2.59188,0.00134-4.07259,0.00134-4.07259s1.75732,0,4.75581,0.01994c27.05862,1.70913,54.03157,2.40066,81.00488,0.32614
    c-0.34538,12.10285-0.4324,24.12031-0.34573,36.15567c0.01409,2.00709,0.03339,4.01411,0.05679,6.02049
    c0.28895,16.95631,6.16804,33.2094,10.26429,49.37448C131.02904,123.18863,131.53542,125.10075,131.53542,125.10075z"/>
  <linearGradient id="SVGID_3_" gradientUnits="userSpaceOnUse" x1="83.5223" y1="131.25526" x2="83.5223" y2="30.5853">
    <stop  offset="0" style="stop-color:#E6EBF1"/>
    <stop  offset="0.5" style="stop-color:#D9DBDC"/>
    <stop  offset="1" style="stop-color:#D5DBDF"/>
  </linearGradient>
  <path fill="url(#SVGID_3_)" d="M125.44446,118.8512c-3.56686,0.09223-7.14061,0.14725-10.71846,0.18579
    c-1.7886,0.02065-3.57749,0.04678-5.36299,0.11005c-5.48961,0.04129-10.73635,1.27632-15.98373,3.12791
    c-13.58046,4.32228-27.16086,10.49482-41.97593,8.6426c-12.03712-24.07423-14.31286-49.76672-12.27963-76.37843
    c0.03784-1.41187,0.07602-2.82375,0.11386-4.23703c0.11351-4.23978,0.22469-8.48435,0.321-12.73992
    c0.00099-2.31322,0.00099-3.63428,0.00099-3.63428s0.66638-3.36041,3.3433-3.34252
    c24.15089,1.52538,49.12711,5.50299,73.20134,3.65077c-0.30859,10.80378-0.38567,21.52907-0.30859,32.27162
    c0.01268,1.791,0.02959,3.5813,0.05087,5.373c0.25773,15.13501,8.68185,31.1439,12.59479,43.62791
    C129.36154,118.44523,125.44446,118.8512,125.44446,118.8512z"/>
  <path fill="#FFFFFF" d="M128.44125,115.50867c-3.56686,0.09216-6.79446,0.14585-10.37238,0.18572
    c-1.78853,0.01994-3.57784,0.04678-5.36299,0.10872c-5.48961,0.04269-10.73671,1.27702-15.98373,3.12925
    c-13.58039,4.32165-27.16078,10.49419-41.97628,8.64196c-12.03669-24.07494-14.31244-49.76671-12.27928-76.37914
    c0.03784-1.41187,0.07567-2.82375,0.11358-4.23633c0.11386-4.23908,0.22496-8.48365,0.32128-12.73922
    c0.00141-2.31322,0.00141-3.63428,0.00141-3.63428s1.568,0,4.24457,0.01783c24.15089,1.52475,48.22513,2.14194,72.29964,0.29042
    c-0.30859,10.80308-0.98631,34.8456-1.07129,37.61433c-0.51982,16.9845,4.09528,28.54441,8.61611,42.37288
    C127.94827,113.80575,128.44125,115.50867,128.44125,115.50867z"/>
  <path fill="#A36C35" d="M47.19626,57.00925c0,0,44.26364-6.22411,69.85396-4.84049"/>
  <path fill="#A4876D" d="M91.43447,107.72889c9.08605-0.54844,19.16081-3.05288,25.61575-1.73739"/>
  <linearGradient id="SVGID_4_" gradientUnits="userSpaceOnUse" x1="48.83949" y1="43.73845" x2="78.22939" y2="43.73845">
    <stop  offset="0" style="stop-color:#919397"/>
    <stop  offset="0.5" style="stop-color:#62696A"/>
    <stop  offset="1" style="stop-color:#505458"/>
  </linearGradient>
  <path fill="url(#SVGID_4_)" d="M59.81647,51.36239c-0.1314,0-0.26696-0.00754-0.40625-0.02269
    c-1.61592-0.17544-2.5575-0.76234-2.79832-1.74218c-0.38427-1.56321,1.18656-3.35767,5.42183-6.19516
    c0.1159-0.07849,0.20982-0.14042,0.27591-0.18579c0.69491-0.4803,0.8886-0.84766,0.84942-0.97843
    c-0.14042-0.46374-1.52749-1.18754-3.29989-1.21988c-1.24743-0.01515-2.18048,0.32403-2.37206,0.88549
    c-0.1779,0.52018-0.24878,1.26878-0.3241,2.06346c-0.16029,1.69194-0.34228,3.61089-1.73661,4.58586
    c-0.84428,0.59035-1.9806,0.70456-3.37698,0.33918c-2.23241-0.58415-2.93901-1.96848-3.13925-3.02666
    c-0.63474-3.35499,3.15715-8.20161,5.28324-9.75109l1.22192,1.67609c-1.78135,1.29907-4.892,5.43839-4.46644,7.68968
    c0.08356,0.44169,0.34333,1.06854,1.62585,1.40497c0.53666,0.13901,1.26089,0.24843,1.6627-0.03234
    c0.60818-0.42591,0.7417-1.83638,0.85971-3.08106c0.08356-0.87866,0.16959-1.78691,0.42626-2.5396
    c0.50362-1.4731,2.12877-2.32217,4.37428-2.28849c2.21585,0.04058,4.73065,0.97913,5.24808,2.6965
    c0.19918,0.66187,0.24906,1.96848-1.65784,3.28404c-0.07194,0.04953-0.1741,0.11766-0.29965,0.20228
    c-0.13591,0.09082-0.26802,0.1803-0.39632,0.26837l0.59789,0.11005c2.93627,0.54498,4.912-0.8986,7.20113-2.56919
    c0.9165-0.66736,1.86462-1.35952,2.91802-1.95129l1.65749-0.93094l-0.11386,1.89697
    c-0.03474,0.57661,0.16346,2.53615,0.40083,3.25727l1.04825,0.37842c0.16614-0.45966-0.06369-0.84498-0.19368-0.95024
    c0.15958,0.12872,0.69836,0.38117,1.6014,0.7486c0.14894,0.05989,0.26252,0.10667,0.31994,0.13351l-0.85767,1.88872
    c-0.04403-0.0193-0.13069-0.0551-0.24392-0.09983c-0.45338-0.18502-0.88895-0.36257-1.27216-0.54836
    c-0.28387,0.3-0.67089,0.50433-1.19241,0.39773c-1.07129-0.22018-1.46556-1.99258-1.60796-3.43341
    c-0.42182,0.29176-0.83463,0.5931-1.24129,0.88902c-2.27539,1.66094-4.62399,3.37211-7.99342,3.04801
    C63.12115,49.19571,62.07671,51.36239,59.81647,51.36239L59.81647,51.36239z M58.65887,49.04916
    c0.12379,0.06264,0.40421,0.16586,0.97525,0.22771c1.0331,0.10808,1.62895-1.00591,2.35353-2.59871
    c0.09526-0.21059,0.18748-0.41351,0.2783-0.60276l0.22948-0.47685C59.37887,47.75911,58.77343,48.72577,58.65887,49.04916
    L58.65887,49.04916z"/>
  <path fill="none" stroke="#D5562B" stroke-width="2.81825" d="M104.24216,80.35201c0,0,9.17687,4.84113,11.59747,7.95389"/>
  <path fill="none" stroke="#D5562B" stroke-width="2.81825" d="M114.11057,80.35201c0,0-5.75594,4.98084-6.67821,7.95389"/>
  <path fill="none" stroke="#D5562B" stroke-width="2.81825" d="M102.5131,54.48889c0,0,9.17686,4.84113,11.59747,7.95319"/>
  <path fill="none" stroke="#D5562B" stroke-width="2.81825" d="M112.38185,54.48889c0,0-5.75629,4.98077-6.67863,7.95319"/>
  <linearGradient id="SVGID_5_" gradientUnits="userSpaceOnUse" x1="84.72632" y1="31.9658" x2="102.07584" y2="31.9658">
    <stop  offset="0" style="stop-color:#919397"/>
    <stop  offset="0.5" style="stop-color:#62696A"/>
    <stop  offset="1" style="stop-color:#505458"/>
  </linearGradient>
  <path fill="url(#SVGID_5_)" d="M85.12369,36.11451c0,0-1.35374,3.15405,0.93609,3.68247s16.01607-13.878,16.01607-13.878
    l-5.65201-1.79854L85.12369,36.11451z"/>
  <linearGradient id="SVGID_6_" gradientUnits="userSpaceOnUse" x1="96.42384" y1="24.59003" x2="102.5131" y2="24.59003">
    <stop  offset="0" style="stop-color:#919397"/>
    <stop  offset="0.5" style="stop-color:#62696A"/>
    <stop  offset="1" style="stop-color:#505458"/>
  </linearGradient>
  <ellipse fill="url(#SVGID_6_)" cx="99.46848" cy="24.58972" rx="3.04463" ry="2.58293"/>
  <line fill="none" stroke="#C5C7C9" stroke-width="0.70456" x1="100.62099" y1="53.53181" x2="103.55656" y2="104.18542"/>
  <line fill="none" stroke="#C5C7C9" stroke-width="0.70456" x1="88.00211" y1="54.96158" x2="90.93768" y2="105.61449"/>
  <line fill="none" stroke="#C5C7C9" stroke-width="0.70456" x1="75.38331" y1="56.39001" x2="77.27541" y2="91.39111"/>
  <line fill="none" stroke="#C5C7C9" stroke-width="0.70456" x1="62.76443" y1="57.81971" x2="64.65654" y2="92.82018"/>
  <line fill="none" stroke="#C5C7C9" stroke-width="0.70456" x1="50.14556" y1="59.24885" x2="52.03773" y2="94.24924"/>
  <path fill="none" stroke="#D5562B" stroke-width="2.81825" d="M89.89429,66.97425c0,0,9.17722,4.84183,11.59775,7.95319"/>
  <path fill="none" stroke="#D5562B" stroke-width="2.81825" d="M99.76297,66.97425c0,0-5.75621,4.98077-6.6782,7.95319"/>
  <path fill="#A4876D" d="M47.19626,68.50794c0,0,44.23821-5.04136,69.85396-4.84113"/>
  <path fill="#A4876D" d="M47.19626,80.92038c0,0,44.23821-5.04207,69.85396-4.84113"/>
  <path fill="#A4876D" d="M47.19626,95.96253c0,0,44.23821-5.04207,69.85396-4.84113"/>

</svg>
