<?xml version="1.0" encoding="utf-8"?>
<!DOCTYPE svg PUBLIC "-//W3C//DTD SVG 1.1//EN" "http://www.w3.org/Graphics/SVG/1.1/DTD/svg11.dtd">
<svg version="1.1" xmlns="http://www.w3.org/2000/svg" xmlns:xlink="http://www.w3.org/1999/xlink" x="0px" y="0px" width="160px"
  height="160px" viewBox="0 0 160 160" enable-background="new 0 0 160 160" xml:space="preserve">
  <linearGradient id="SVGID_1_" gradientUnits="userSpaceOnUse" x1="860.77002" y1="-300.87485" x2="872.1499" y2="-300.87485" gradientTransform="matrix(-0.9216 0.388 0.388 0.9216 1001.177 16.8659)">
    <stop  offset="0" style="stop-color:#B3B5B9"/>
    <stop  offset="0.00814" style="stop-color:#B5B6BA"/>
    <stop  offset="0.09692" style="stop-color:#CAC3C0"/>
    <stop  offset="0.19627" style="stop-color:#D9CCC4"/>
    <stop  offset="0.31468" style="stop-color:#E1D1C6"/>
    <stop  offset="0.5" style="stop-color:#E4D3C7"/>
    <stop  offset="0.73142" style="stop-color:#E3D0C4"/>
    <stop  offset="0.92316" style="stop-color:#E0C7B9"/>
    <stop  offset="1" style="stop-color:#DEC2B3"/>
  </linearGradient>
  <path fill="url(#SVGID_1_)" d="M87.76435,87.97289c-6.15674-3.7019-9.07705-14.5582-8.38939-19.21281
    c0.3203-2.17125,1.71562-4.414,3.84177-5.25876c4.88195-1.94048,4.34275,2.88431,4.40092,3.11361
    c-0.00025,0.00152,0.08751,0.47785,0.32176,1.27671c2.08642,7.11491,0.61369,9.98296,2.476,13.73763
    C89.83527,87.46398,88.78661,88.58834,87.76435,87.97289z"/>
  <path fill="#F0D0B3" d="M85.0492,85.75826c2.84139,3.7384,10.11607,8.38565,15.21526,9.4735
    c2.37935,0.50794,2.06152,1.28609,2.93239-1.09471c0.62333-1.70082,0.38665-2.28517,0.17017-2.43414
    c-0.00177-0.00197-2.04749-0.95367-2.80595-1.47642c-5.58617-3.84839-6.56378-4.35037-10.14565-8.59723
    C84.13174,79.97485,84.26954,84.69162,85.0492,85.75826z"/>
  <path fill="#F0D0B3" d="M117.32945,92.02346c0.15265,0.83042,0.06115,1.43355-0.32,1.63523
    c-1.00599,0.0409-3.41199-0.7022-4.98951-0.7476c-0.65438-0.24754,3.18436,0.44972,4.76955,1.46657
    c0.46108,0.29591,0.20441,1.49222-0.28354,1.53857c-1.50061,0.14796-4.31049-0.88419-4.96164-1.0785
    c0.80895,0.17558,5.09798,0.79642,4.73481,2.22598c-0.47315,1.86752-4.91947-1.00942-5.26048-0.30869
    c-0.12528,0.25249,4.12698,0.48477,3.80718,1.74617c-0.34939,1.38078-12.57429-2.90501-14.15973-3.25167
    c-0.41498-1.7649,2.00507-4.81,5.03339-5.1917c3.60625-0.45271,6.92701-2.62244,7.35355-1.96462
    c0.96085,1.47794-1.67174,2.12591-2.20579,2.73C113.26756,91.55945,117.32945,92.02346,117.32945,92.02346z"/>
  <path fill="#F0D0B3" d="M105.6995,90.05784c-1.17364,0.14891-2.25411,0.69827-3.11559,1.41774
    c0.23051,0.23526,0.48204,0.45518,0.76088,0.65241c2.43161,1.70971,5.79059,1.12683,7.50247-1.30478
    c0.53405-0.60409,3.16663-1.25206,2.20579-2.73C112.62651,87.4354,109.30576,89.60513,105.6995,90.05784z"/>
  <path fill="#FFF4F0" d="M111.89668,89.21459l0.33358,0.02419c0.30132-0.12084,0.71008-0.5686,0.56486-0.92908
    c-0.14447-0.35847-0.5439-0.19578-0.84592-0.07297l-0.37605,0.27172C111.50266,88.6396,111.54063,89.10461,111.89668,89.21459z"/>
  <linearGradient id="SVGID_2_" gradientUnits="userSpaceOnUse" x1="331.28452" y1="118.58147" x2="323.67801" y2="120.80542" gradientTransform="matrix(0.9364 0.3509 -0.3509 0.9364 -152.9791 -133.5536)">
    <stop  offset="0" style="stop-color:#DDA96E"/>
    <stop  offset="0.15788" style="stop-color:#D2915E"/>
    <stop  offset="0.48912" style="stop-color:#B55533"/>
    <stop  offset="0.5" style="stop-color:#B45332"/>
    <stop  offset="1" style="stop-color:#EA892B"/>
  </linearGradient>
  <path fill="url(#SVGID_2_)" d="M116.56857,91.01106c1.39406,2.52386,0.16765,5.5995-2.17443,7.01674
    c-0.21501,0.12972-0.31586,0.60803-0.54865,0.70715c-0.2342,0.1011-0.47633,0.18643-0.72684,0.25546
    c-0.22244,0.05918-0.57576-0.25546-0.80825-0.2239c-0.9463,0.09912-1.74324-0.19971-2.61436-0.29783
    c-0.87258-0.1016-1.51908-0.79643-2.16655-1.4947c-0.97145-1.04492-1.32134-2.53861-1.27055-3.88338
    c0.24804-1.2708,0.49633-2.53962,1.46758-3.31187c0.16987-0.12326,0.32596-0.25001,0.4729-0.37726
    c0.34444-0.29733,0.3972-1.07255,0.73967-1.16031c0.04514-0.01186,0.37035-0.08731,0.41771-0.10947
    c0.3819-0.14301,0.73301,0.16371,1.12259,0.07297c1.76445-0.40438,3.54955-0.18396,4.92094,1.22298
    C115.89075,89.87933,116.28453,90.41929,116.56857,91.01106z"/>
  <linearGradient id="SVGID_3_" gradientUnits="userSpaceOnUse" x1="331.211" y1="117.81715" x2="324.33554" y2="119.82736" gradientTransform="matrix(0.9364 0.3509 -0.3509 0.9364 -152.9791 -133.5536)">
    <stop  offset="0" style="stop-color:#EA892B"/>
    <stop  offset="0.058" style="stop-color:#E98F37"/>
    <stop  offset="0.34832" style="stop-color:#E6AA6E"/>
    <stop  offset="0.70786" style="stop-color:#EAAC69"/>
    <stop  offset="1" style="stop-color:#F09A36"/>
  </linearGradient>
  <path fill="url(#SVGID_3_)" d="M116.56857,91.01106c-0.28404-0.59177-0.67782-1.13173-1.16824-1.58342
    c-1.37138-1.40694-3.15649-1.62736-4.92094-1.22298c-0.38958,0.09074-0.74068-0.21597-1.12259-0.07297
    c-0.04736,0.02216-0.37257,0.09761-0.41771,0.10947c-0.34247,0.08776-0.39523,0.86298-0.73967,1.16031
    c-0.10432,0.08827-0.21329,0.17805-0.32868,0.26678c-0.20097,0.55627-0.32101,1.16727-0.44064,1.77773
    c-0.04954,1.34629,0.2991,2.83947,1.27034,3.88591c0.64772,0.69579,1.29544,1.3931,2.16706,1.49318
    c0.87137,0.09913,1.91235,0.78012,2.85866,0.6805c0.23425-0.03106,1.62513-0.99165,1.8401-1.12087
    c0.38736-0.23471,0.74416-0.51582,1.06345-0.83238C117.30209,94.14391,117.38126,92.48404,116.56857,91.01106z"/>

  <linearGradient id="SVGID_4_" gradientUnits="userSpaceOnUse" x1="50.22734" y1="-1229.61816" x2="53.77207" y2="-1229.61816" gradientTransform="matrix(-0.7399 -0.6727 0.6727 -0.7399 972.56262 -783.82648)">
    <stop  offset="0" style="stop-color:#C1D5AE"/>
    <stop  offset="0.5" style="stop-color:#A9C690"/>
    <stop  offset="1" style="stop-color:#9EBF88"/>
  </linearGradient>
  <path fill="url(#SVGID_4_)" d="M105.521,90.41045c-0.06464,0.16422-0.29343,0.53501-0.34469,0.69827
    c-0.11321,0.35751-0.02666,0.51087-0.1169,0.87137c-0.06757,0.27172-0.30722,0.74856-0.39054,1.01634
    c-0.04267,0.14053,0.08134,0.07196,0.02908,0.21103c-0.10135,0.2653-0.22905,0.52521-0.39205,0.76881
    c0.15386-0.23032,0.44184-0.33732,0.70766-0.42755c0.10604-0.0355,0.03747,0.13805,0.12675,0.10013
    c0.16765-0.06953,0.50916-0.34226,0.67852-0.40735c0.10826-0.04192,0.04539,0.12573,0.15437,0.08483
    c0.09518-0.03403,0.36196-0.27515,0.45715-0.30919c0.21052-0.07545,0.24875,0.05721,0.4576-0.02318
    c0.29045-0.11145,0.75153-0.4374,1.03482-0.58041c0.51951-0.25793,0.6655-0.86203,1.02129-1.36401
    c0.30747-0.4315,0.33681-0.77325,0.21946-1.14849c-0.28429-0.90833,0.49582-1.14703,0.52612-1.76738
    c-0.28672,0.12428-0.57076,0.23026-0.86223,0.2342c-0.30475,0.00399-0.57894-0.08776-0.86839-0.1326
    c-0.61146-0.09322-1.13617,0.19724-1.5975,0.73917C105.98849,89.41335,105.72465,89.90251,105.521,90.41045z"/>

  <linearGradient id="SVGID_5_" gradientUnits="userSpaceOnUse" x1="51.86659" y1="-1229.31201" x2="52.61981" y2="-1229.31201" gradientTransform="matrix(-0.7399 -0.6727 0.6727 -0.7399 972.56262 -783.82648)">
    <stop  offset="0" style="stop-color:#E5E7CE"/>
    <stop  offset="0.5" style="stop-color:#D2D5A7"/>
    <stop  offset="0.54321" style="stop-color:#D1D4A4"/>
    <stop  offset="1" style="stop-color:#C5C88D"/>
  </linearGradient>
  <path fill="url(#SVGID_5_)" d="M109.31757,88.55284c-1.85241,0.89944-3.63287,2.35662-4.37057,4.42137
    C105.98996,91.07368,107.85004,90.03021,109.31757,88.55284L109.31757,88.55284z"/>
  <path fill="#865936" d="M109.28506,88.41276c-0.1117,0.07449-0.41473-0.14594-0.41473-0.14594
    c0.04362-0.30626,0.57349-0.30576,0.69579-0.17361C109.59177,88.25496,109.44756,88.38958,109.28506,88.41276z"/>
  <path fill="#F0D0B3" d="M117.30556,92.01609c-0.32969-0.036-0.62479-0.09225-0.89874-0.15437
    c-0.23895-0.03702-0.48007-0.07398-0.72073-0.10947c-0.64328,0.10452-0.75472,0.82845-0.14765,1.14309
    c0.6058,0.31459,0.90489,0.63413,1.47101,0.76335C117.7972,93.71045,117.72348,92.09153,117.30556,92.01609z"/>
  <path fill="#F0D0B3" d="M116.74683,94.25339c-0.33015-0.03645-0.62454-0.09322-0.89919-0.15386
    c-0.2392-0.03747-0.47932-0.07397-0.72048-0.10993c-0.64353,0.10503-0.75447,0.82794-0.14841,1.14259
    c0.60651,0.3146,0.90636,0.63464,1.47248,0.76533C117.23826,95.9478,117.16428,94.32934,116.74683,94.25339z"/>
  <path fill="#F0D0B3" d="M115.93933,96.2476c-0.32913-0.0355-0.62333-0.09271-0.89747-0.15381
    c-1.05184-0.17462-0.94782,0.931-0.62656,1.02568c0.65514,0.19578,0.71604,0.42851,1.28191,0.5592
    C116.48475,97.72897,116.358,96.32355,115.93933,96.2476z"/>
  <path fill="#F0D0B3" d="M114.77084,97.85622c-0.21941-0.02909-0.41492-0.07449-0.59692-0.12528
    c-0.15926-0.03156-0.15926-0.03055-0.31954-0.06014c-0.43124,0.10453-0.37772,0.62676,0.02171,0.90045
    c0.40038,0.2742,0.30672,0.21304,0.68347,0.32202C115.08377,98.9273,115.3308,98.10178,114.77084,97.85622z"/>
  <path fill="#FFF4F0" d="M114.14954,97.8503l-0.24016-0.05918c-0.11862-0.02222-0.21845,0.0508-0.22314,0.16174
    c-0.0052,0.11044,0.08877,0.21698,0.20713,0.23668l0.26304,0.00793C114.19983,98.17722,114.25235,97.9361,114.14954,97.8503z"/>
  <path fill="#FFF4F0" d="M115.1878,96.34869l-0.3812-0.09711c-0.18759-0.03257-0.34641,0.08282-0.35453,0.25789
    c-0.00692,0.17552,0.14154,0.34519,0.32989,0.37923l0.41721,0.01086C115.26768,96.86699,115.35201,96.48483,115.1878,96.34869z"/>
  <path fill="#FFF4F0" d="M115.78128,94.29581l-0.48249-0.12281c-0.2382-0.04237-0.43988,0.10407-0.44978,0.32697
    c-0.00883,0.22193,0.17951,0.43645,0.41821,0.47932l0.5291,0.01333C115.88167,94.95317,115.98912,94.46739,115.78128,94.29581z"/>
  <path fill="#FFF4F0" d="M116.24383,91.97216l-0.39372-0.09862c-0.19431-0.035-0.35903,0.08286-0.36716,0.2653
    c-0.00717,0.18199,0.14644,0.35706,0.341,0.39059l0.432,0.01131C116.32644,92.50773,116.414,92.11274,116.24383,91.97216z"/>
  <path fill="#577482" d="M55.28116,43.30322c-0.74392,1.43794-0.23425,3.17775,1.13713,3.88682l4.21803,2.18114
    c1.37189,0.70862,3.08599,0.11786,3.82961-1.32013l2.70979-5.24245c0.74311-1.43844,0.2342-3.17825-1.13718-3.88737
    l-4.21898-2.18059c-1.37113-0.70862-3.08574-0.11837-3.82865,1.31963L55.28116,43.30322z"/>
  <path fill="#F0D0B3" d="M61.23667,43.09608c-1.46904-7.03204,4.15117-13.56599,11.08853-14.35404
    c6.93464-0.78997,13.21489,4.35931,14.02535,11.49785c0.81294,7.14-3.48865,16.42071-10.43465,17.10913
    C67.07018,58.2258,63.58051,54.31136,61.23667,43.09608z"/>
  <path fill="#808184" d="M73.54544,44.09713c-0.45441-0.4221-0.29757-1.00498,0.35014-1.30084
    c0.64747-0.2954,1.54202-0.19133,1.99643,0.23077c0.45467,0.42114,0.29713,1.00402-0.3504,1.29938
    C74.89365,44.62183,73.99865,44.51877,73.54544,44.09713z"/>
  <path fill="#808184" d="M84.09573,44.39202c-0.29834-0.35504-0.18937-0.83339,0.24309-1.0681
    c0.43225-0.23425,1.02573-0.13609,1.32381,0.21991c0.29808,0.35555,0.18886,0.8344-0.24359,1.06866
    C84.98679,44.84669,84.39381,44.74807,84.09573,44.39202z"/>
  <linearGradient id="SVGID_6_" gradientUnits="userSpaceOnUse" x1="273.06451" y1="101.36897" x2="320.78888" y2="101.36897" gradientTransform="matrix(-1 0 0 1 371.3779 0)">
    <stop  offset="0" style="stop-color:#BDB7C1"/>
    <stop  offset="0.5" style="stop-color:#A299A7"/>
    <stop  offset="1" style="stop-color:#8C8293"/>
  </linearGradient>
  <path fill="url(#SVGID_6_)" d="M50.58902,135.45047c3.6763,2.97702,8.34005,3.75371,12.71068,5.65913
    c0.63166,0.16916,1.28165,0.35014,1.94638,0.53653c8.64233,2.42868,33.06729-2.18256,33.06729-2.18256
    s-1.39285-2.68808-2.85447-6.07736c-0.73058-1.69487-1.47864-3.56531-2.04748-5.37218
    c-3.86566-15.46157-7.40042-31.62045-2.85574-47.77934c0.50497-2.01987-1.00993-4.54469-1.30306-6.55172
    c-0.15633-0.76043-0.87434-2.94153-1.05335-3.64722c-1.2508-4.94063-2.51619-8.67908-8.28481-9.39705
    c-1.20596-0.15043-16.27058-0.646-16.42222,0.3708c-0.00071,0.00692-1.19904,2.06227-0.83683,5.65622
    c1.26292,6.43735,1.45496,12.8855,0.88465,19.27598c-0.1425,1.59771-0.33257,3.19154-0.56511,4.78187
    c-0.69731,8.19483-3.7271,15.7693-6.10518,23.35909c-0.44826,1.67664-0.88591,3.37791-1.33321,5.07677
    c-1.34079,5.09601-2.77065,10.16242-4.65861,15.04882C50.69037,135.00862,50.58902,135.45047,50.58902,135.45047z"/>
  <path fill="none" d="M65.81538,60.51344c-4.78954,1.27226-3.15997,6.15229-5.05263,9.52233"/>
  <path fill="#577482" d="M61.23667,43.09608c-1.92715-6.91464,4.15117-13.56599,11.08853-14.35404
    c6.93464-0.78997,13.21489,4.35931,14.02535,11.49785C86.35055,40.2399,68.64052,36.26032,61.23667,43.09608z"/>
  <path fill="#808184" d="M80.46159,44.77767c1.53954,1.12632,1.00872,3.25122,2.07092,4.31341
    c-1.59357-0.53112-1.59357-2.12489-1.84777-3.62302C80.53507,45.05676,80.43963,44.78307,80.46159,44.77767z"/>
  <polygon fill="#577482" points="53.95855,33.48008 54.93914,32.7951 61.22828,54.30989"/>
  <polygon fill="#577482" points="59.16601,32.7951 60.19371,32.7951 58.00126,52.66578"/>
  <polygon fill="#808184" points="81.63155,50.02259 82.51155,49.09108 79.87503,49.7287"/>
  <path fill="#F0D0B3" d="M79.91447,60.63872c0.46204,0.05716,0.89156,0.13907,1.30705,0.23173
    c0.3008,1.41138,1.05921,3.25172,0.97246,8.21755c-0.10654,6.06847-3.64524-5.65621-11.44998-8.70277
    C74.84659,60.38669,79.28275,60.5598,79.91447,60.63872z"/>
  <path fill="#F0D0B3" d="M69.56935,89.74966c-5.23679-3.14866-7.37724-11.44604-7.98698-17.80447
    c-0.22193-2.31279-0.08433-3.83804-0.28086-5.85446c-0.24703-2.53366,0.52642-3.74826,2.99258-4.72809
    c5.66313-2.25068,5.03783,3.34539,5.10514,3.61166c-0.13094,1.23186,0.12746,2.78124,0.3045,3.73003
    c1.50308,8.05873,1.08315,6.84959,3.24334,11.20492C72.27415,86.67745,70.75531,90.46368,69.56935,89.74966z"/>
  <path fill="#F0D0B3" d="M92.06494,53.07505c-1.77081,2.07657-2.80983,4.03088-4.67881,5.96293
    c-0.31268-0.79689,0.34863-3.59985-1.51489-3.40604c-0.82895,0.08483-0.38367,4.27544-1.69835,7.90487
    c-1.10512,3.04903,0.60409,6.81112,2.47352,7.2712c1.09578-1.33044,11.06339-10.81923,9.92721-11.81735
    c-1.038-0.91277-3.31479,2.99626-3.49329,2.7561c-0.4976-0.66226,3.81582-3.768,2.83694-4.82726
    c-1.0627-1.15097-4.09148,2.57709-4.39673,3.40261c0.72932-1.96856,5.202-5.17392,3.97316-6.25238
    c-1.22348-1.07654-6.27611,5.51513-5.56547,4.86963C91.04809,56.89784,95.54597,52.64654,92.06494,53.07505"/>
  <path fill="#FFF4F0" d="M86.38757,57.28984l0.19279-0.31656c0.03207-0.35706-0.20219-0.98478-0.62923-1.02326
    c-0.42706-0.03747-0.46603,0.43689-0.49805,0.79491l0.07837,0.50795C85.62567,57.38846,86.10054,57.58474,86.38757,57.28984z"/>
  <path fill="#F0D0B3" d="M76.14869,90.29552c4.43915-3.42033,9.93064-12.1379,11.18912-18.23197
    c0.58879-2.84441,1.51984-2.47059-1.328-3.49239c-2.03416-0.73078-2.73096-0.4428-2.90603-0.18391
    c-0.00247,0.00197-1.12284,2.45135-1.74072,3.36069c-4.55064,6.69669-8.00304,7.87084-13.0438,12.17879
    C66.39211,91.43912,74.88133,91.2335,76.14869,90.29552z"/>
  <path fill="#F09A36" d="M86.54092,50.02259c1.11961,1.48879,3.54238,4.35139,6.10912,7.1445
    c0.68696,0.7525,1.35316,1.46753,1.9575,2.1002c0.39968,0.42164,0.74735,0.78113,1.04836,1.08542
    c0,0,0.00025,0.00096,0.00101,0.00096c-0.00101,0-0.00172,0-0.00247,0c-0.59621-0.04338-1.22076-0.15876-1.87292-0.35751
    c-1.02473-0.26087-2.01122-0.69382-2.91219-1.25797C87.37604,56.7617,85.89118,53.07308,86.54092,50.02259z"/>
  <linearGradient id="SVGID_7_" gradientUnits="userSpaceOnUse" x1="214.17786" y1="-54.09133" x2="207.31313" y2="-52.08425" gradientTransform="matrix(-0.9307 0.3657 0.3657 0.9307 305.8645 27.9416)">
    <stop  offset="0" style="stop-color:#DDA96E"/>
    <stop  offset="0.15788" style="stop-color:#D2915E"/>
    <stop  offset="0.48912" style="stop-color:#B55533"/>
    <stop  offset="0.5" style="stop-color:#B45332"/>
    <stop  offset="1" style="stop-color:#EA892B"/>
  </linearGradient>
  <path fill="url(#SVGID_7_)" d="M85.65546,56.27744c-0.20855-1.51883-0.83511-2.34036-0.09837-3.61217
    c0.13342-0.21057,0.25102-0.41766,0.35777-0.62085c0.25127-0.47734-0.02661-1.35462,0.31339-1.60019
    c0.02737-0.01974,0.16078-0.11195,0.26925-0.19037c-0.52961,3.00267,0.96605,6.55814,4.37183,8.48433
    c0.90096,0.56414,1.88746,0.9971,2.91219,1.25797c0.65216,0.19875,1.2767,0.31414,1.87317,0.35751
    c-0.05449,0.04338-0.10675,0.08928-0.16346,0.13119c-0.22092,0.1627-0.99195,0.40139-1.27352,0.45169
    c-0.4781,0.08579-1.08956-0.06559-1.57382-0.09766c-0.86172-0.0562-1.08734-0.23668-1.88403-0.41029
    c-0.75745-0.16517-1.24565-0.41715-1.93109-0.78552C87.33952,58.84372,86.11362,57.8042,85.65546,56.27744z"/>
  <linearGradient id="SVGID_8_" gradientUnits="userSpaceOnUse" x1="213.93797" y1="-55.0775" x2="210.23759" y2="-53.9956" gradientTransform="matrix(-0.9307 0.3657 0.3657 0.9307 305.8645 27.9416)">
    <stop  offset="0" style="stop-color:#EA892B"/>
    <stop  offset="0.058" style="stop-color:#E98F37"/>
    <stop  offset="0.34832" style="stop-color:#E6AA6E"/>
    <stop  offset="0.70786" style="stop-color:#EAAC69"/>
    <stop  offset="1" style="stop-color:#F09A36"/>
  </linearGradient>
  <path fill="url(#SVGID_8_)" d="M85.95233,54.6314c-0.13215-0.72538-0.2648-1.44981-0.28429-2.15105
    c0.08903-0.14745,0.17063-0.2944,0.24683-0.43594c0.25127-0.47734-0.02661-1.35462,0.31339-1.60019
    c0.02737-0.01974,0.16078-0.11195,0.26925-0.19037c-0.52961,3.00267,0.96605,6.55814,4.37183,8.48433
    c0.23082,0.14396,0.46725,0.2801,0.70816,0.40635c-0.84278,0.03353-1.69244-0.37282-2.54184-0.77967
    C87.51263,57.63211,86.48073,56.13741,85.95233,54.6314z"/>
  <path fill="#865936" d="M86.4519,50.54629c-0.14104-0.00591-0.28848-0.04338-0.28848-0.04338
    c-0.05424-0.22784,0.16422-0.40337,0.37923-0.47638C86.50639,50.19816,86.47482,50.37076,86.4519,50.54629z"/>
  <linearGradient id="SVGID_9_" gradientUnits="userSpaceOnUse" x1="-1463.94141" y1="-1408.35217" x2="-1463.5896" y2="-1407.95496" gradientTransform="matrix(-0.8568 0.1749 0.0984 1.147 -1023.27722 1929.14746)">
    <stop  offset="0" style="stop-color:#F1E2C5"/>
    <stop  offset="0.5" style="stop-color:#E7CF9B"/>
    <stop  offset="0.54321" style="stop-color:#E6CE98"/>
    <stop  offset="1" style="stop-color:#E1C281"/>
  </linearGradient>
  <path fill="url(#SVGID_9_)" d="M92.15765,58.12571c0.02515,0.22587,0.25571,0.27319,0.31586,0.05721
    c0.02833-0.25102-0.07494-0.42114-0.178-0.5898c-0.04266-0.07004-0.10159,0.09766-0.10973,0.20911
    C92.16406,57.92499,92.15396,58.06113,92.15765,58.12571z"/>
  <linearGradient id="SVGID_10_" gradientUnits="userSpaceOnUse" x1="-6.03764" y1="-3448.53711" x2="-5.74471" y2="-3448.20654" gradientTransform="matrix(-0.7581 -0.4358 -0.6852 0.9251 -2276.85254 3244.33252)">
    <stop  offset="0" style="stop-color:#F1E2C5"/>
    <stop  offset="0.5" style="stop-color:#E7CF9B"/>
    <stop  offset="0.54321" style="stop-color:#E6CE98"/>
    <stop  offset="1" style="stop-color:#E1C281"/>
  </linearGradient>
  <path fill="url(#SVGID_10_)" d="M90.26131,56.81396c-0.10898,0.15487,0.00888,0.3107,0.16522,0.20961
    c0.15608-0.14154,0.18517-0.30328,0.214-0.46649c0.01186-0.06711-0.11736,0.00541-0.18391,0.06999
    C90.37522,56.69171,90.29438,56.7716,90.26131,56.81396z"/>
  <linearGradient id="SVGID_11_" gradientUnits="userSpaceOnUse" x1="4986.8457" y1="-4058.28149" x2="4987.11426" y2="-4057.97827" gradientTransform="matrix(0.2137 -0.848 -1.0763 -0.4084 -5345.36133 2624.73877)">
    <stop  offset="0" style="stop-color:#F1E2C5"/>
    <stop  offset="0.5" style="stop-color:#E7CF9B"/>
    <stop  offset="0.54321" style="stop-color:#E6CE98"/>
    <stop  offset="1" style="stop-color:#E1C281"/>
  </linearGradient>
  <path fill="url(#SVGID_11_)" d="M88.075,52.96461c-0.16345-0.05721-0.27192,0.08529-0.14346,0.19825
    c0.1632,0.10256,0.31363,0.08776,0.46401,0.07297c0.06236-0.00641-0.03353-0.10256-0.10725-0.14498
    C88.21114,53.03511,88.12066,52.98335,88.075,52.96461z"/>
  <linearGradient id="SVGID_12_" gradientUnits="userSpaceOnUse" x1="2503.88818" y1="-4393.73535" x2="2504.15649" y2="-4393.43262" gradientTransform="matrix(-0.3323 -0.8089 -1.1082 0.3116 -3947.91187 3449.59521)">
    <stop  offset="0" style="stop-color:#F1E2C5"/>
    <stop  offset="0.5" style="stop-color:#E7CF9B"/>
    <stop  offset="0.54321" style="stop-color:#E6CE98"/>
    <stop  offset="1" style="stop-color:#E1C281"/>
  </linearGradient>
  <path fill="url(#SVGID_12_)" d="M88.84159,54.95387c-0.16542,0.05131-0.16765,0.22981,0.00223,0.24461
    c0.19234-0.01479,0.30449-0.11589,0.41644-0.21794c0.04661-0.04191-0.08776-0.06216-0.17235-0.05227
    C88.99298,54.92923,88.88966,54.94156,88.84159,54.95387z"/>
  <path fill="none" d="M88.85836,56.3756c0.36938-0.07347,0.74043-0.16129,1.10587-0.25198
    c0.24632-0.06115,0.50027-0.10357,0.74487-0.17113c0.09468-0.02615,0.21991-0.10306,0.3205-0.08877
    c0.24758,0.03696,0.1884,0.30131,0.14426,0.45715c-0.06216,0.22042-0.08902,0.44331-0.13684,0.6662
    c-0.07125,0.33091-0.14205,0.6613-0.21032,0.99266c-0.04343,0.20911-0.22047,0.14796-0.30257,0.09226
    c-0.66277-0.45422-1.24191-0.97201-1.73728-1.53514C88.75161,56.4974,88.66925,56.41257,88.85836,56.3756z"/>
  <path fill="none" d="M88.13667,54.06281c0.6507,0.36246,1.30089,0.72538,1.95133,1.08835
    c0.20956,0.11634,0.43417,0.2081,0.64252,0.33136c0.39948,0.23572,0.13513,0.29884-0.20042,0.37675
    c-0.56122,0.13069-1.12239,0.26137-1.6833,0.39206c-0.21304,0.04979-0.31293-0.01232-0.36469-0.07842
    c-0.14225-0.17952-0.27789-0.36539-0.40609-0.55627c-0.09888-0.14644-0.19381-0.29682-0.28379-0.44871
    c-0.17902-0.30278-0.32126-0.62035-0.48129-0.93303c-0.11074-0.21648-0.26086-0.42508-0.18911-0.68645
    C87.52444,53.583,87.79839,53.87446,88.13667,54.06281z"/>
  <path fill="none" d="M91.29269,55.67042c-0.13932-0.07842-0.27909-0.15634-0.41866-0.23426
    c-0.30157-0.16962-0.60283-0.33878-0.90414-0.50789c-0.3718-0.2086-0.7429-0.4167-1.11446-0.6253
    c-0.35115-0.19724-0.702-0.39352-1.0526-0.59076c-0.14104-0.07943-0.28036-0.16618-0.42559-0.23723
    c-0.21279-0.10402-0.3913-0.21153-0.4835-0.44083c-0.07867-0.19381-0.09296-0.40781-0.13044-0.61197
    c-0.06756-0.36983-0.10872-0.74462-0.12109-1.11991c-0.00591-0.18492-0.00465-0.37034,0.00349-0.55576
    c0.00394-0.09074,0.00959-0.18245,0.01727-0.2742c0.00368-0.04237,0.04979-0.22385,0.02611-0.25445
    c0.95595,1.24762,2.67374,3.29217,4.60558,5.45352C91.29416,55.67138,91.29295,55.67093,91.29269,55.67042z"/>
  <linearGradient id="SVGID_13_" gradientUnits="userSpaceOnUse" x1="1128.82678" y1="-2885.34375" x2="1141.73474" y2="-2885.34375" gradientTransform="matrix(-0.8819 -0.4714 -0.4714 0.8819 -268.05099 3135.32178)">
    <stop  offset="0" style="stop-color:#F1E2C5"/>
    <stop  offset="0.5" style="stop-color:#E7CF9B"/>
    <stop  offset="0.54321" style="stop-color:#E6CE98"/>
    <stop  offset="1" style="stop-color:#E1C281"/>
  </linearGradient>
  <path fill="url(#SVGID_13_)" d="M86.54092,50.02259c-0.64974,3.0505,0.83511,6.73911,4.32841,8.7156
    c0.90096,0.56414,1.88746,0.9971,2.91219,1.25797c0.65216,0.19875,1.2767,0.31414,1.87317,0.35751
    c-0.08307-0.08579-0.1721-0.17704-0.26385-0.27122c-0.40483-0.06559-0.82056-0.16078-1.24959-0.29389
    c-1.03336-0.27122-2.02996-0.71554-2.94102-1.29155c-0.16714-0.10503-0.30277-0.21941-0.28011-0.43543
    c0.01828-0.17209,0.08509-0.3304,0.11938-0.499c0.07989-0.39549,0.18022-0.78951,0.24208-1.18849
    c0.02444-0.1578,0.01434-0.38463,0.21406-0.40928c0.01994-0.00247,0.04191-0.00101,0.06357,0.00197
    c-0.08872-0.09862-0.17699-0.19724-0.26455-0.29541c-0.0005,0-0.00172-0.00045-0.00197-0.00096
    c-0.13932-0.07842-0.27909-0.15634-0.41866-0.23426c-0.30157-0.16962-0.60283-0.33878-0.90414-0.50789
    c-0.3718-0.2086-0.7429-0.4167-1.11446-0.6253c-0.35115-0.19724-0.702-0.39352-1.0526-0.59076
    c-0.14104-0.07943-0.28036-0.16618-0.42559-0.23723c-0.21279-0.10402-0.3913-0.21153-0.4835-0.44083
    c-0.07867-0.19381-0.09296-0.40781-0.13044-0.61197c-0.06756-0.36983-0.10872-0.74462-0.12109-1.11991
    c-0.00591-0.18492-0.00465-0.37034,0.00349-0.55576c0.00394-0.09074,0.00959-0.18245,0.01727-0.2742
    c0.00368-0.04237,0.04979-0.22385,0.02611-0.25445C86.63783,50.1508,86.58798,50.08571,86.54092,50.02259z M88.85836,56.3756
    c0.36938-0.07347,0.74043-0.16129,1.10587-0.25198c0.24632-0.06115,0.50027-0.10357,0.74487-0.17113
    c0.09468-0.02615,0.21991-0.10306,0.3205-0.08877c0.24758,0.03696,0.1884,0.30131,0.14426,0.45715
    c-0.06216,0.22042-0.08902,0.44331-0.13684,0.6662c-0.07125,0.33091-0.14205,0.6613-0.21032,0.99266
    c-0.04343,0.20911-0.22047,0.14796-0.30257,0.09226c-0.66277-0.45422-1.24191-0.97201-1.73728-1.53514
    C88.75161,56.4974,88.66925,56.41257,88.85836,56.3756z M87.12183,53.54845c0.40261,0.03454,0.67655,0.32601,1.01483,0.51436
    c0.6507,0.36246,1.30089,0.72538,1.95133,1.08835c0.20956,0.11634,0.43417,0.2081,0.64252,0.33136
    c0.39948,0.23572,0.13513,0.29884-0.20042,0.37675c-0.56122,0.13069-1.12239,0.26137-1.6833,0.39206
    c-0.21304,0.04979-0.31293-0.01232-0.36469-0.07842c-0.14225-0.17952-0.27789-0.36539-0.40609-0.55627
    c-0.09888-0.14644-0.19381-0.29682-0.28379-0.44871c-0.17902-0.30278-0.32126-0.62035-0.48129-0.93303
    C87.2002,54.01842,87.05008,53.80983,87.12183,53.54845z"/>
  <path fill="#F09A36" d="M86.68908,50.21786c-0.05125-0.06706-0.1011-0.13215-0.14816-0.19527
    C86.58798,50.08571,86.63783,50.1508,86.68908,50.21786L86.68908,50.21786z"/>
  <path fill="#F0D0B3" d="M92.06494,53.07505c-1.77081,2.07657-2.80983,4.03088-4.67881,5.96293
    c-0.31268-0.79689-1.89857,0.8694-3.21324,4.49883c-1.10512,3.04903,0.60409,6.81112,2.47352,7.2712
    c1.09578-1.33044,11.06339-10.81923,9.92721-11.81735c-1.038-0.91277-3.31479,2.99626-3.49329,2.7561
    c-0.4976-0.66226,3.81582-3.768,2.83694-4.82726c-1.0627-1.15097-4.09148,2.57709-4.39673,3.40261
    c0.72932-1.96856,5.202-5.17392,3.97316-6.25238c-1.22348-1.07654-6.27611,5.51513-5.56547,4.86963
    C91.04809,56.89784,95.54597,52.64654,92.06494,53.07505"/>

</svg>
