<?xml version="1.0" encoding="utf-8"?>
<!DOCTYPE svg PUBLIC "-//W3C//DTD SVG 1.1//EN" "http://www.w3.org/Graphics/SVG/1.1/DTD/svg11.dtd">
<svg version="1.1" xmlns="http://www.w3.org/2000/svg" xmlns:xlink="http://www.w3.org/1999/xlink" x="0px" y="0px" width="160px"
  height="160px" viewBox="0 0 160 160" enable-background="new 0 0 160 160" xml:space="preserve">
  <polygon fill="#00ADEE" points="87.70399,134.08662 75.02888,125.48808 61.86576,133.97957 68.12306,76.55179 82.01163,76.61063"/>
  <polygon fill="#00ADEE" points="126.72574,110.76067 111.47184,112.16882 106.69864,127.08448 74.78488,73.14391
    82.26736,67.58741"/>
  <polygon fill="#00ADEE" stroke="#5C80AC" stroke-width="2.19135" points="90.23249,92.25941 82.79274,88.12597 78.75671,95.60844
    73.33826,89.0654 66.8466,94.58443 64.18443,86.52956 56.10919,89.32869 56.56609,80.85538 47.99648,80.54936 51.51141,72.81214
    43.60303,69.43209 49.7031,63.48717 43.52174,57.47804 51.38409,54.13754 47.76748,46.30193 56.33063,46.02801 55.75934,37.41457
    63.87414,40.25116 66.424,32.01321 72.99159,37.5901 78.32019,30.83196 82.4568,38.4032 89.83762,34.02586 90.98895,42.58156
    99.42697,41.16496 97.43667,49.55795 105.78912,51.28495 100.92487,58.39183 108.06396,63.01954 100.99017,67.89124
    105.94536,74.78523 97.61866,76.77334 99.72225,84.98981 91.26823,83.8353"/>
  <circle fill="#E7E7E8" cx="75.58423" cy="63.48877" r="22.93816"/>
  <circle fill="#00ADEE" cx="75.58423" cy="63.48932" r="18.7887"/>
  <circle fill="none" stroke="#00ADEE" stroke-width="1.69604" cx="75.58423" cy="63.48932" r="21.21474"/>
  <path fill="#FFFFFF" d="M77.50698,51.4058l2.15498,23.61916l-5.89146,0.5371l-1.15549-12.66338
    c-0.16698-1.8254-0.3104-2.92107-0.43016-3.28385c-0.12206-0.36168-0.3916-0.62169-0.80357-0.77256
    c-0.4066-0.15405-1.29366-0.17005-2.65581-0.047l-0.5852,0.05456l-0.25037-2.7542c2.79266-0.86986,4.84278-2.32831,6.14597-4.37416
    L77.50698,51.4058z"/>

</svg>
