<?xml version="1.0" encoding="utf-8"?>
<!DOCTYPE svg PUBLIC "-//W3C//DTD SVG 1.1//EN" "http://www.w3.org/Graphics/SVG/1.1/DTD/svg11.dtd">
<svg version="1.1" xmlns="http://www.w3.org/2000/svg" xmlns:xlink="http://www.w3.org/1999/xlink" x="0px" y="0px" width="160px"
  height="160px" viewBox="0 0 160 160" enable-background="new 0 0 160 160" xml:space="preserve">
  <linearGradient id="SVGID_1_" gradientUnits="userSpaceOnUse" x1="81.51715" y1="81.63327" x2="123.23132" y2="81.63327">
    <stop  offset="0" style="stop-color:#BDB7C1"/>
    <stop  offset="0.5" style="stop-color:#A299A7"/>
    <stop  offset="1" style="stop-color:#8C8293"/>
  </linearGradient>
  <path fill="url(#SVGID_1_)" d="M113.59583,64.84723c3.46885,2.17865,11.08073,12.82156,9.39514,14.90858
    c-6.11906,7.32401-17.16233,14.68626-27.1862,17.279c-4.67644,1.20983-8.18314,2.80334-10.67091-1.01279
    c-0.34621-0.53069-4.02032-7.47366-3.58017-7.77704c0.00372-0.00195,0.90559-0.62121,2.459-1.68481
    c11.43369-7.8263,19.92588-11.72614,27.56126-20.08195C112.82313,65.4585,113.59583,64.84723,113.59583,64.84723z"/>
  <linearGradient id="SVGID_2_" gradientUnits="userSpaceOnUse" x1="69.27689" y1="98.05133" x2="89.22159" y2="98.05133">
    <stop  offset="0" style="stop-color:#DEC2B3"/>
    <stop  offset="0.07684" style="stop-color:#E0C7B9"/>
    <stop  offset="0.26858" style="stop-color:#E3D0C4"/>
    <stop  offset="0.5" style="stop-color:#E4D3C7"/>
    <stop  offset="0.68532" style="stop-color:#E1D1C6"/>
    <stop  offset="0.80373" style="stop-color:#D9CCC4"/>
    <stop  offset="0.90308" style="stop-color:#CAC3C0"/>
    <stop  offset="0.99186" style="stop-color:#B5B6BA"/>
    <stop  offset="1" style="stop-color:#B3B5B9"/>
  </linearGradient>
  <path fill="url(#SVGID_2_)" d="M69.37523,99.05296c2.39539-1.55907,5.26125-2.71966,7.52104-4.39912
    c-0.78558-0.43254-3.78628-0.12427-3.33363-2.03249c0.20037-0.85075,4.49266,0.17803,8.44029-0.69777
    c3.31541-0.73555,6.99292,1.54774,7.21866,3.55224c-1.53098,0.95671-12.73219,10.02883-13.61435,8.71443
    c-0.8087-1.20262,3.55859-3.03964,3.33324-3.25707c-0.62004-0.606-4.2002,4.07377-5.39639,2.29539
    c-0.91514-1.36134,3.34496-3.61957,4.12714-4.10821c-0.80754,0.5939-5.03436,4.14761-5.98812,2.7253
    c-0.9526-1.41547,5.53354-5.2154,4.76657-4.56464C74.17888,98.16777,68.45979,102.61118,69.37523,99.05296"/>
  <path fill="#FFF4F0" d="M70.70856,99.83622l-0.43558,0.36482c-0.2307,0.15599-0.57047,0.05834-0.75797-0.21821
    c-0.18672-0.27647-0.15034-0.62835,0.08067-0.78481l0.57575-0.24435C70.29944,98.96662,70.80172,99.53019,70.70856,99.83622z"/>
  <path fill="#FFF4F0" d="M75.21449,93.38119l-0.35381,0.15678c-0.37569-0.01514-0.9962-0.34319-0.97836-0.79165
    c0.01854-0.44844,0.51625-0.42571,0.89279-0.41097l0.51741,0.15188C75.42052,92.60235,75.55991,93.12279,75.21449,93.38119z"/>
  <path fill="#FFF4F0" d="M73.15693,101.50854l-0.4348,0.36398c-0.2314,0.15685-0.57156,0.05911-0.75828-0.21736
    c-0.1875-0.27733-0.15158-0.62881,0.0799-0.7852l0.57614-0.24474C72.74711,100.63848,73.25087,101.20213,73.15693,101.50854z"/>
  <path fill="#FFF4F0" d="M75.05235,102.89983l-0.4348,0.36436c-0.23186,0.15678-0.57086,0.05872-0.75835-0.21822
    c-0.18672-0.27647-0.15073-0.62873,0.08029-0.78558l0.57652-0.24389C74.64331,102.02937,75.14552,102.59372,75.05235,102.89983z"/>
  <path fill="#FFF4F0" d="M76.52959,104.00206l-0.31402,0.17725c-0.16174,0.07268-0.36211-0.01287-0.44582-0.18943
    c-0.0837-0.17725-0.02009-0.38026,0.1432-0.45226l0.38708-0.09502C76.3773,103.46037,76.62353,103.83154,76.52959,104.00206z"/>
  <path fill="#577482" d="M139.60718,40.28053c1.16663,1.40757,1.02344,3.45061-0.31967,4.56269l-4.12947,3.42115
    c-1.34232,1.11209-3.37637,0.8727-4.543-0.53518l-4.2514-5.1328c-1.16586-1.40834-1.02343-3.4507,0.31968-4.56356l4.13017-3.42029
    c1.34317-1.1121,3.37715-0.8727,4.54308,0.53478L139.60718,40.28053z"/>
  <linearGradient id="SVGID_3_" gradientUnits="userSpaceOnUse" x1="114.38747" y1="58.9947" x2="132.07559" y2="58.9947">
    <stop  offset="0" style="stop-color:#B3B5B9"/>
    <stop  offset="0.00814" style="stop-color:#B5B6BA"/>
    <stop  offset="0.09692" style="stop-color:#CAC3C0"/>
    <stop  offset="0.19627" style="stop-color:#D9CCC4"/>
    <stop  offset="0.31468" style="stop-color:#E1D1C6"/>
    <stop  offset="0.5" style="stop-color:#E4D3C7"/>
    <stop  offset="0.73142" style="stop-color:#E3D0C4"/>
    <stop  offset="0.92316" style="stop-color:#E0C7B9"/>
    <stop  offset="1" style="stop-color:#DEC2B3"/>
  </linearGradient>
  <polygon fill="url(#SVGID_3_)" points="132.07559,66.73273 114.38747,68.26371 122.28195,51.34194 132.07559,49.72569"/>
    <linearGradient id="SVGID_4_" gradientUnits="userSpaceOnUse" x1="-2405.60352" y1="1353.04907" x2="-2377.10693" y2="1349.9707" gradientTransform="matrix(-0.5752 0.818 0.818 0.5752 -2363.72803 1225.34924)">
    <stop  offset="0" style="stop-color:#B3B5B9"/>
    <stop  offset="0.00814" style="stop-color:#B5B6BA"/>
    <stop  offset="0.09692" style="stop-color:#CAC3C0"/>
    <stop  offset="0.19627" style="stop-color:#D9CCC4"/>
    <stop  offset="0.31468" style="stop-color:#E1D1C6"/>
    <stop  offset="0.5" style="stop-color:#E4D3C7"/>
    <stop  offset="0.73142" style="stop-color:#E3D0C4"/>
    <stop  offset="0.92316" style="stop-color:#E0C7B9"/>
    <stop  offset="1" style="stop-color:#DEC2B3"/>
  </linearGradient>
  <path fill="url(#SVGID_4_)" d="M132.98653,41.4843c-0.07082-8.11191-7.84406-13.96924-15.68928-13.17047
    c-7.84065,0.79621-13.53213,7.9892-12.70947,16.06055c0.82119,8.07469,7.79977,17.27969,15.62909,16.36836
    C130.18924,59.58256,133.09824,54.42401,132.98653,41.4843z"/>
  <path fill="#808184" d="M115.55409,46.89621c0.49399,0.22202,0.90986-0.10302,0.92763-0.72493
    c0.01707-0.62197-0.37041-1.30679-0.86588-1.52872c-0.4943-0.22202-0.90939,0.10302-0.92607,0.7257
    C114.67154,45.99023,115.0591,46.67505,115.55409,46.89621z"/>
  <path fill="#808184" d="M105.68893,49.36885c0.40641,0.29168,0.76961,0.03864,0.81057-0.56474
    c0.03972-0.60413-0.25793-1.3306-0.6648-1.62305c-0.40719-0.29168-0.77-0.03825-0.81057,0.56512
    C104.98434,48.35002,105.28168,49.07688,105.68893,49.36885z"/>
  <linearGradient id="SVGID_5_" gradientUnits="userSpaceOnUse" x1="106.67933" y1="99.13432" x2="134.01709" y2="99.13432">
    <stop  offset="0" style="stop-color:#BDB7C1"/>
    <stop  offset="0.5" style="stop-color:#A299A7"/>
    <stop  offset="1" style="stop-color:#8C8293"/>
  </linearGradient>
  <path fill="url(#SVGID_5_)" d="M131.64645,131.64128c-5.84112,3.62982-15.53701,4.99193-17.44687,0.90987
    c-6.54672-14.62608-9.52693-36.71399-6.06072-53.75057c1.61771-7.94901,1.7935-14.41398,9.38645-15.35936
    c1.05484-0.13187,14.23889-0.5659,14.37186,0.32379c0.00116,0.00644,1.04996,1.80568,0.73291,4.95027
    c-2.76579,27.43319,4.14537,41.32369,0.05989,57.74326C132.07481,129.94135,131.64645,131.64128,131.64645,131.64128z"/>
  <path fill="none" d="M129.86429,63.33168c4.19113,1.11325,3.85779,4.73438,4.42183,8.33347"/>
  <path fill="#577482" d="M132.98653,41.4843c0.46249-8.09298-7.84406-13.96924-15.68928-13.17047
    c-7.84065,0.79621-13.53213,7.9892-12.70947,16.06055C104.58778,44.37438,123.17203,35.72309,132.98653,41.4843z"/>
  <polygon fill="#808184" points="111.31866,53.3559 110.28345,52.35365 113.1629,52.81048"/>
  <path fill="#808184" d="M111.18152,48.34621c0-0.07199-0.05833-0.13032-0.13033-0.13032
    c-0.06508,0-0.11589,0.04771-0.12644,0.10984h-0.00155l-0.63975,4.02792l0.25871,0.04088l0.63936-4.02793l-0.0038-0.00069
    C111.17811,48.35909,111.18152,48.35304,111.18152,48.34621z"/>
  <linearGradient id="SVGID_6_" gradientUnits="userSpaceOnUse" x1="-453.18439" y1="862.51984" x2="-433.24088" y2="862.51984" gradientTransform="matrix(0.5177 -0.8556 0.8556 0.5177 -371.2767 -714.43457)">
    <stop  offset="0" style="stop-color:#DEC2B3"/>
    <stop  offset="0.07684" style="stop-color:#E0C7B9"/>
    <stop  offset="0.26858" style="stop-color:#E3D0C4"/>
    <stop  offset="0.5" style="stop-color:#E4D3C7"/>
    <stop  offset="0.68532" style="stop-color:#E1D1C6"/>
    <stop  offset="0.80373" style="stop-color:#D9CCC4"/>
    <stop  offset="0.90308" style="stop-color:#CAC3C0"/>
    <stop  offset="0.99186" style="stop-color:#B5B6BA"/>
    <stop  offset="1" style="stop-color:#B3B5B9"/>
  </linearGradient>
  <path fill="url(#SVGID_6_)" d="M132.99072,120.2716c-0.09473-2.85711,0.39616-5.91,0.12877-8.71297
    c-0.7765,0.44924-2.06586,3.17563-3.46504,1.79995c-0.62424-0.61136,2.4787-3.75067,3.77223-7.58195
    c1.08742-3.21774,4.94452-5.18127,6.77588-4.33736c0.0273,1.80482,1.98976,16.08468,0.40834,16.15969
    c-1.4469,0.06927-0.75749-4.61842-1.06058-4.53851c-0.83934,0.21706,1.31061,5.70328-0.8295,5.80552
    c-1.63936,0.07881-1.36513-4.73586-1.37878-5.65742c0.09023,0.99844,0.94244,6.45364-0.76735,6.53393
    c-1.70491,0.08176-1.59879-7.43463-1.4386-6.44185C134.71944,115.70315,135.56033,122.89613,132.99072,120.2716"/>
  <path fill="#FFF4F0" d="M134.34973,119.53566l0.08711,0.56132c0.01404,0.2788-0.24544,0.51897-0.57878,0.53596
    c-0.33403,0.01629-0.61662-0.19657-0.63028-0.47537l0.08905-0.61965C133.39449,119.43636,134.13609,119.29734,134.34973,119.53566z"/>
  <path fill="#FFF4F0" d="M131.16046,112.33848l-0.04927,0.38484c-0.20758,0.31324-0.80978,0.67388-1.18399,0.42689
    c-0.37352-0.24847-0.09627-0.66209,0.11093-0.97649l0.39732-0.36436C130.6006,111.76009,131.11803,111.90974,131.16046,112.33848z"/>
  <path fill="#FFF4F0" d="M137.04889,118.30689l0.08635,0.56055c0.01364,0.2788-0.24615,0.51897-0.57948,0.53642
    c-0.33333,0.0166-0.61594-0.19665-0.63028-0.47577l0.08937-0.61895C136.0921,118.2069,136.83487,118.06828,137.04889,118.30689z"/>
  <path fill="#FFF4F0" d="M139.22002,117.40542l0.08603,0.56054c0.01474,0.27919-0.24506,0.51897-0.578,0.53603
    c-0.33449,0.0166-0.61632-0.19587-0.63068-0.47536l0.08937-0.61974C138.26323,117.30543,139.00645,117.1668,139.22002,117.40542z"/>
  <path fill="#FFF4F0" d="M140.92795,116.71222l-0.01102,0.36064c-0.02118,0.1757-0.19843,0.30222-0.39314,0.28329
    c-0.1954-0.02048-0.33481-0.1795-0.31207-0.35683l0.11891-0.38026C140.38478,116.56227,140.8306,116.54295,140.92795,116.71222z"/>
  <linearGradient id="SVGID_7_" gradientUnits="userSpaceOnUse" x1="127.68147" y1="84.61318" x2="145.86978" y2="84.61318">
    <stop  offset="0" style="stop-color:#BDB7C1"/>
    <stop  offset="0.5" style="stop-color:#A299A7"/>
    <stop  offset="1" style="stop-color:#8C8293"/>
  </linearGradient>
  <path fill="url(#SVGID_7_)" d="M128.13556,105.49822c3.94608,1.09689,16.94038-0.44016,17.34834-3.09238
    c1.29424-9.45495-0.69661-22.57726-5.52904-31.73386c-2.25444-4.27258-3.43735-7.93801-7.9342-7.20842
    c-0.625,0.10185-4.41198,4.71948-4.33813,5.24976c0.00078,0.00381,0.14964,1.08751,0.40905,2.95183
    c1.91287,13.72343,0.92429,19.96832-0.11171,31.23995C128.06621,104.51529,128.13556,105.49822,128.13556,105.49822z"/>
  <linearGradient id="SVGID_8_" gradientUnits="userSpaceOnUse" x1="978.75555" y1="81.09216" x2="1020.53259" y2="81.09216" gradientTransform="matrix(-1 0 0 1 1053.93555 0)">
    <stop  offset="0" style="stop-color:#D5562B"/>
    <stop  offset="0.5" style="stop-color:#EC7B31"/>
    <stop  offset="0.6095" style="stop-color:#ED8332"/>
    <stop  offset="1" style="stop-color:#F09A36"/>
  </linearGradient>
  <path opacity="0.75" fill="url(#SVGID_8_)" d="M41.22844,63.765c-3.46846,2.17833-9.20811,13.90378-7.52252,15.99081
    c6.11953,7.32401,17.16233,14.68626,27.18628,17.279c4.67713,1.20983,8.18383,2.80334,10.67161-1.01279
    c0.34582-0.53069,4.02032-7.47366,3.57947-7.77704c-0.00342-0.00195-0.90528-0.62121-2.45861-1.68481
    c-11.43377-7.8263-20.65887-9.94064-28.29426-18.29646C43.14163,67.24408,41.22844,63.765,41.22844,63.765z"/>
  <linearGradient id="SVGID_9_" gradientUnits="userSpaceOnUse" x1="966.51508" y1="98.05133" x2="986.45941" y2="98.05133" gradientTransform="matrix(-1 0 0 1 1053.93555 0)">
    <stop  offset="0" style="stop-color:#DEC2B3"/>
    <stop  offset="0.02243" style="stop-color:#D4BAAC"/>
    <stop  offset="0.10535" style="stop-color:#B5A095"/>
    <stop  offset="0.19208" style="stop-color:#9D8B83"/>
    <stop  offset="0.28318" style="stop-color:#8C7C77"/>
    <stop  offset="0.3815" style="stop-color:#81746F"/>
    <stop  offset="0.5" style="stop-color:#7E716D"/>
    <stop  offset="0.65963" style="stop-color:#807370"/>
    <stop  offset="0.76164" style="stop-color:#867B78"/>
    <stop  offset="0.84751" style="stop-color:#908887"/>
    <stop  offset="0.92393" style="stop-color:#9F9B9C"/>
    <stop  offset="0.99425" style="stop-color:#B1B3B6"/>
    <stop  offset="1" style="stop-color:#B3B5B9"/>
  </linearGradient>
  <path fill="url(#SVGID_9_)" d="M87.32205,99.05296c-2.39539-1.55907-5.26157-2.71966-7.52135-4.39912
    c0.78597-0.43254,3.78697-0.12427,3.33395-2.03249c-0.19998-0.85075-4.49266,0.17803-8.44022-0.69777
    c-3.31548-0.73555-6.99261,1.54774-7.21835,3.55224c1.5306,0.95671,12.73141,10.02883,13.61397,8.71443
    c0.80831-1.20262-3.5586-3.03964-3.33363-3.25707c0.62043-0.606,4.20029,4.07377,5.39685,2.29539
    c0.91544-1.36134-3.34496-3.61957-4.12752-4.10821c0.80792,0.5939,5.03466,4.14761,5.98843,2.7253
    c0.95221-1.41547-5.53315-5.2154-4.76649-4.56464C82.51879,98.16777,88.23757,102.61118,87.32205,99.05296"/>
  <path fill="#FFF4F0" d="M85.98911,99.83622l0.43488,0.36482c0.23101,0.15599,0.5704,0.05834,0.75828-0.21821
    c0.18641-0.27647,0.1508-0.62835-0.08067-0.78481l-0.57614-0.24435C86.39784,98.96662,85.89555,99.53019,85.98911,99.83622z"/>
  <path fill="#FFF4F0" d="M81.48248,93.38119l0.35452,0.15678c0.37576-0.01514,0.99619-0.34319,0.97797-0.79165
    c-0.01815-0.44844-0.51664-0.42571-0.8931-0.41097l-0.51664,0.15188C81.27637,92.60235,81.13775,93.12279,81.48248,93.38119z"/>
  <path fill="#FFF4F0" d="M83.53996,101.50854l0.43558,0.36398c0.23109,0.15685,0.57125,0.05911,0.75835-0.21736
    c0.18711-0.27733,0.15073-0.62881-0.08067-0.7852l-0.57614-0.24474C83.94978,100.63848,83.4468,101.20213,83.53996,101.50854z"/>
  <path fill="#FFF4F0" d="M81.64493,102.89983l0.43449,0.36436c0.23218,0.15678,0.57117,0.05872,0.75906-0.21822
    c0.18633-0.27647,0.15041-0.62873-0.08068-0.78558l-0.57652-0.24389C82.05444,102.02937,81.55137,102.59372,81.64493,102.89983z"/>
  <path fill="#FFF4F0" d="M80.16769,104.00206l0.31402,0.17725c0.16135,0.07268,0.36211-0.01287,0.44621-0.18943
    c0.08331-0.17725,0.01931-0.38026-0.14352-0.45226l-0.38755-0.09502C80.31997,103.46037,80.07345,103.83154,80.16769,104.00206z"/>
  <linearGradient id="SVGID_10_" gradientUnits="userSpaceOnUse" x1="1011.62567" y1="58.9947" x2="1029.31348" y2="58.9947" gradientTransform="matrix(-1 0 0 1 1053.93555 0)">
    <stop  offset="0" style="stop-color:#B3B5B9"/>
    <stop  offset="0.00575" style="stop-color:#B1B3B6"/>
    <stop  offset="0.07607" style="stop-color:#9F9B9C"/>
    <stop  offset="0.15249" style="stop-color:#908887"/>
    <stop  offset="0.23836" style="stop-color:#867B78"/>
    <stop  offset="0.34037" style="stop-color:#807370"/>
    <stop  offset="0.5" style="stop-color:#7E716D"/>
    <stop  offset="0.6185" style="stop-color:#81746F"/>
    <stop  offset="0.71682" style="stop-color:#8C7C77"/>
    <stop  offset="0.80792" style="stop-color:#9D8B83"/>
    <stop  offset="0.89465" style="stop-color:#B5A095"/>
    <stop  offset="0.97757" style="stop-color:#D4BAAC"/>
    <stop  offset="1" style="stop-color:#DEC2B3"/>
  </linearGradient>
  <polygon fill="url(#SVGID_10_)" points="24.62208,66.73273 42.30981,68.26371 34.41571,51.34194 24.62208,49.72569"/>
  <linearGradient id="SVGID_11_" gradientUnits="userSpaceOnUse" x1="-2921.70605" y1="2087.00586" x2="-2893.20972" y2="2083.92749" gradientTransform="matrix(0.5752 0.818 -0.818 0.5752 3417.66406 1225.34924)">
    <stop  offset="0" style="stop-color:#B3B5B9"/>
    <stop  offset="0.00575" style="stop-color:#B1B3B6"/>
    <stop  offset="0.07607" style="stop-color:#9F9B9C"/>
    <stop  offset="0.15249" style="stop-color:#908887"/>
    <stop  offset="0.23836" style="stop-color:#867B78"/>
    <stop  offset="0.34037" style="stop-color:#807370"/>
    <stop  offset="0.5" style="stop-color:#7E716D"/>
    <stop  offset="0.6185" style="stop-color:#81746F"/>
    <stop  offset="0.71682" style="stop-color:#8C7C77"/>
    <stop  offset="0.80792" style="stop-color:#9D8B83"/>
    <stop  offset="0.89465" style="stop-color:#B5A095"/>
    <stop  offset="0.97757" style="stop-color:#D4BAAC"/>
    <stop  offset="1" style="stop-color:#DEC2B3"/>
  </linearGradient>
  <path fill="url(#SVGID_11_)" d="M23.71075,41.4843c0.07121-8.11191,7.84375-13.96924,15.6889-13.17047
    c7.84103,0.79621,13.5322,7.9892,12.70946,16.06055c-0.82119,8.07469-7.79938,17.27969-15.62901,16.36836
    C26.50804,59.58256,23.59904,54.42401,23.71075,41.4843z"/>
  <linearGradient id="SVGID_12_" gradientUnits="userSpaceOnUse" x1="40.215" y1="45.76939" x2="42.00817" y2="45.76939">
    <stop  offset="0" style="stop-color:#E6EBF1"/>
    <stop  offset="0.5" style="stop-color:#D9DBDC"/>
    <stop  offset="1" style="stop-color:#D5DBDF"/>
  </linearGradient>
  <path fill="url(#SVGID_12_)" d="M41.14318,46.89621c-0.4943,0.22202-0.91056-0.10302-0.92762-0.72493
    c-0.01746-0.62197,0.37041-1.30679,0.86587-1.52872c0.4943-0.22202,0.90986,0.10302,0.92615,0.7257
    C42.02535,45.99023,41.63826,46.67505,41.14318,46.89621z"/>
  <linearGradient id="SVGID_13_" gradientUnits="userSpaceOnUse" x1="50.19429" y1="48.275" x2="51.67639" y2="48.275">
    <stop  offset="0" style="stop-color:#E6EBF1"/>
    <stop  offset="0.5" style="stop-color:#D9DBDC"/>
    <stop  offset="1" style="stop-color:#D5DBDF"/>
  </linearGradient>
  <path fill="url(#SVGID_13_)" d="M51.00842,49.36885c-0.4061,0.29168-0.76968,0.03864-0.81056-0.56474
    c-0.03979-0.60413,0.25832-1.3306,0.66473-1.62305c0.40718-0.29168,0.76968-0.03825,0.81017,0.56512
    C51.71294,48.35002,51.41521,49.07688,51.00842,49.36885z"/>
  <linearGradient id="SVGID_14_" gradientUnits="userSpaceOnUse" x1="228.19199" y1="98.78378" x2="265.13083" y2="98.78378" gradientTransform="matrix(1 0 0 1 -212.18159 0)">
    <stop  offset="0" style="stop-color:#D5562B"/>
    <stop  offset="0.5" style="stop-color:#EC7B31"/>
    <stop  offset="0.6095" style="stop-color:#ED8332"/>
    <stop  offset="1" style="stop-color:#F09A36"/>
  </linearGradient>
  <path fill="url(#SVGID_14_)" d="M52.94923,129.3497c-5.84143,3.63019-27.50821,7.28351-29.41798,3.20145
    c-6.54719-14.62608-9.52771-36.71399-6.06119-53.75057c1.6174-7.94901,1.79388-14.41398,9.38645-15.35936
    c1.05492-0.13187,14.23936-0.5659,14.37194,0.32379c0.0007,0.00644,7.60731,14.3371,6.58086,17.32717
    c-7.15738,20.85458-1.39547,32.13988,4.16724,44.00542C52.59549,127.73384,52.94923,129.3497,52.94923,129.3497z"/>
  <path fill="none" d="M26.83339,63.33168c-4.19152,1.11325-3.85819,4.73438-4.42261,8.33347"/>
  <path fill="#563C37" d="M23.71075,41.4843c-0.46249-8.09298,7.84375-13.96924,15.6889-13.17047
    c7.84103,0.79621,13.5322,7.9892,12.70946,16.06055C52.10911,44.37438,33.52486,35.72309,23.71075,41.4843z"/>
  <linearGradient id="SVGID_15_" gradientUnits="userSpaceOnUse" x1="43.53438" y1="50.7859" x2="46.41383" y2="50.7859">
    <stop  offset="0" style="stop-color:#E6EBF1"/>
    <stop  offset="0.5" style="stop-color:#D9DBDC"/>
    <stop  offset="1" style="stop-color:#D5DBDF"/>
  </linearGradient>
  <path fill="url(#SVGID_15_)" d="M45.77447,48.32574h-0.00264c-0.01024-0.06214-0.06059-0.10984-0.12575-0.10984
    c-0.07199,0-0.13071,0.05833-0.13071,0.13032c0,0.00683,0.0038,0.01288,0.00419,0.0197l-0.00419,0.00069l0.63711,4.02793
    l-2.6181,0.41595L45.379,53.3559l1.03483-1.00225L45.77447,48.32574z"/>
  <linearGradient id="SVGID_16_" gradientUnits="userSpaceOnUse" x1="11.28567" y1="1630.14746" x2="31.22959" y2="1630.14746" gradientTransform="matrix(-0.5177 -0.8556 -0.8556 0.5177 1425.21228 -714.43457)">
    <stop  offset="0" style="stop-color:#B3B5B9"/>
    <stop  offset="0.00575" style="stop-color:#B1B3B6"/>
    <stop  offset="0.07607" style="stop-color:#9F9B9C"/>
    <stop  offset="0.15249" style="stop-color:#908887"/>
    <stop  offset="0.23836" style="stop-color:#867B78"/>
    <stop  offset="0.34037" style="stop-color:#807370"/>
    <stop  offset="0.5" style="stop-color:#7E716D"/>
    <stop  offset="0.6185" style="stop-color:#81746F"/>
    <stop  offset="0.71682" style="stop-color:#8C7C77"/>
    <stop  offset="0.80792" style="stop-color:#9D8B83"/>
    <stop  offset="0.89465" style="stop-color:#B5A095"/>
    <stop  offset="0.97757" style="stop-color:#D4BAAC"/>
    <stop  offset="1" style="stop-color:#DEC2B3"/>
  </linearGradient>
  <path fill="url(#SVGID_16_)" d="M23.70695,120.2716c0.09394-2.85711-0.39655-5.91-0.12947-8.71297
    c0.77643,0.44924,2.06617,3.17563,3.46497,1.79995c0.62423-0.61136-2.47831-3.75067-3.77185-7.58195
    c-1.08781-3.21774-4.94452-5.18127-6.77626-4.33736c-0.02731,1.80482-1.98937,16.08468-0.40835,16.15969
    c1.44698,0.06927,0.75836-4.61842,1.06058-4.53851c0.83973,0.21706-1.31021,5.70328,0.82949,5.80552
    c1.63936,0.07881,1.36552-4.73586,1.37918-5.65742c-0.09053,0.99844-0.94283,6.45364,0.76774,6.53393
    c1.70452,0.08176,1.59847-7.43463,1.43821-6.44185C21.97823,115.70315,21.13733,122.89613,23.70695,120.2716"/>
  <path fill="#FFF4F0" d="M22.34716,119.53566l-0.08673,0.56132c-0.01404,0.2788,0.24544,0.51897,0.57839,0.53596
    c0.33411,0.01629,0.61624-0.19657,0.63106-0.47537l-0.08944-0.61965C23.30248,119.43636,22.56119,119.29734,22.34716,119.53566z"/>
  <path fill="#FFF4F0" d="M25.53683,112.33848l0.04965,0.38484c0.20681,0.31324,0.80909,0.67388,1.1833,0.42689
    c0.37383-0.24847,0.09619-0.66209-0.11062-0.97649l-0.39733-0.36436C26.09706,111.76009,25.57887,111.90974,25.53683,112.33848z"/>
  <path fill="#FFF4F0" d="M19.64878,118.30689l-0.08634,0.56055c-0.01365,0.2788,0.24544,0.51897,0.57877,0.53642
    c0.33403,0.0166,0.61663-0.19665,0.6299-0.47577l-0.08905-0.61895C20.60556,118.2069,19.86241,118.06828,19.64878,118.30689z"/>
  <path fill="#FFF4F0" d="M17.47726,117.40542l-0.08673,0.56054c-0.01443,0.27919,0.24544,0.51897,0.57878,0.53603
    c0.33442,0.0166,0.61624-0.19587,0.63098-0.47536l-0.08937-0.61974C18.43367,117.30543,17.69051,117.1668,17.47726,117.40542z"/>
  <path fill="#FFF4F0" d="M15.76933,116.71222l0.0114,0.36064c0.02118,0.1757,0.19804,0.30222,0.39275,0.28329
    c0.19549-0.02048,0.33488-0.1795,0.31216-0.35683l-0.11861-0.38026C16.31173,116.56227,15.8663,116.54295,15.76933,116.71222z"/>
  <linearGradient id="SVGID_17_" gradientUnits="userSpaceOnUse" x1="1023.31708" y1="85.00793" x2="1041.50537" y2="85.00793" gradientTransform="matrix(-1 0 0 1 1053.93555 0)">
    <stop  offset="0" style="stop-color:#D5562B"/>
    <stop  offset="0.5" style="stop-color:#EC7B31"/>
    <stop  offset="0.6095" style="stop-color:#ED8332"/>
    <stop  offset="1" style="stop-color:#F09A36"/>
  </linearGradient>
  <path fill="url(#SVGID_17_)" d="M30.16361,105.89252c-3.94499,1.09766-16.93961-0.43977-17.34757-3.092
    c-1.29431-9.45535,0.69692-22.57733,5.52857-31.73386c2.2549-4.27258,3.43743-7.93839,7.93467-7.20812
    c0.62454,0.10077,4.4116,4.71878,4.33806,5.24947c-0.00109,0.00341-0.14995,1.08711-0.40904,2.95181
    c-1.9128,13.72305-0.92499,19.96832,0.11171,31.23956C30.23327,104.90959,30.16361,105.89252,30.16361,105.89252z"/>

</svg>
