<svg version="1.1" xmlns="http://www.w3.org/2000/svg" xmlns:xlink="http://www.w3.org/1999/xlink"
 width="160px" height="160px" viewBox="-219 321 160 160">
<path fill="#85B1D4" d="M-118,374.2c0-8.7-7.1-17.4-12.6-20.3c-0.4,4.3-2.9,4.3-6.1,4.3c-3.1,0-5.7-0.1-6.1-4.3
c-5.5,2.9-12.6,11.6-12.6,20.4l0,32.1c0,1.5,0.5,2.9,1.5,4.2c-0.9,2.3-1.5,4.6-1.5,6.5c0,1.5,0.5,2.9,1.5,4.2
c-0.9,2.3-1.5,4.6-1.5,6.5c0,1.5,0.5,2.9,1.5,4.2c-0.9,2.3-1.5,4.6-1.5,6.5c0,1.5,0.5,2.9,1.5,4.2c-0.9,2.3-1.5,4.6-1.5,6.5
c0,0.9,0.2,1.8,0.6,2.7c-0.4,0.9-0.6,1.9-0.6,2.7c0,4.9,8.4,8.8,18.7,8.8c10.3,0,18.7-3.9,18.7-8.8c0-0.8-0.2-1.8-0.6-2.7
c0.4-0.9,0.6-1.7,0.6-2.7c0-1.9-0.6-4.2-1.5-6.5c0.9-1.3,1.5-2.7,1.5-4.2c0-1.9-0.6-4.2-1.5-6.5c0.9-1.3,1.5-2.7,1.5-4.2
c0-1.9-0.6-4.2-1.5-6.5c0.9-1.3,1.5-2.7,1.5-4.2c0-1.9-0.6-4.2-1.5-6.5c0.9-1.3,1.5-2.7,1.5-4.2L-118,374.2z"/>
<path fill="#EEEEEE" d="M-136.7,378.7c-6.6,0-12.4-1.3-15.7-3.3l0,20.1c0,2.6,6.5,5.5,15.7,5.5c9.3,0,15.7-2.9,15.7-5.5l0-20.1
C-124.3,377.4-130.1,378.7-136.7,378.7z"/>
<path fill="#85B1D4" d="M-130.6,352.8c0,5.3-2.7,5.3-6.1,5.3c-3.4,0-6.1,0-6.1-5.3c0-5.3,2.7-5.3,6.1-5.4
C-133.3,347.5-130.6,347.5-130.6,352.8z"/>
<path fill="#C5C7C9" d="M-136.8,347.6c2.6,0,3.9,1.1,4.2,1.5c-0.2,0.4-1.6,1.5-4.2,1.5c-2.6,0-4-1.1-4.2-1.5
C-140.7,348.7-139.4,347.6-136.8,347.6L-136.8,347.6 M-136.8,346.7C-136.8,346.7-136.8,346.7-136.8,346.7c-3.1,0-5.1,1.5-5.1,2.4
c0,0.8,1.9,2.4,5,2.4c0,0,0,0,0,0c3.1,0,5-1.5,5-2.4C-131.7,348.3-133.7,346.7-136.8,346.7L-136.8,346.7z"/>
<path fill="#BBBBBB" d="M-128.9,342.9c-0.1-3-3.7-4.2-8.2-4.1c-4.4,0.1-7.9,1.6-7.9,4.5l0.2,5.3l0,0l0,0c0.1,1.7,3.7,3.1,8.2,3
c4.4-0.1,7.9-1.6,7.9-3.3v0l0,0L-128.9,342.9z"/>
<path fill="#EEEEEE" d="M-136.8,343.2c3.1-0.1,5-1.1,5-1.7c0-0.6-2-1.5-5.1-1.5c-3.1,0.1-5,1.1-5,1.7
C-141.9,342.3-140,343.3-136.8,343.2z"/>
</svg>
