<?xml version="1.0" encoding="utf-8"?>
<!DOCTYPE svg PUBLIC "-//W3C//DTD SVG 1.1//EN" "http://www.w3.org/Graphics/SVG/1.1/DTD/svg11.dtd">
<svg version="1.1" xmlns="http://www.w3.org/2000/svg" xmlns:xlink="http://www.w3.org/1999/xlink" x="0px" y="0px" width="160px"
  height="160px" viewBox="0 0 160 160" enable-background="new 0 0 160 160" xml:space="preserve">
  <path fill="#E28257" d="M152.83075,84.72871v1.54503c-2.60788,0-43.41514,19.14243-48.43885,32.16724
    c-20.83916-2.60257-52.09791,15.63256-52.09791,15.63256L21.03406,71.55498v-1.54768c0,0,32.67661-16.50867,52.09909-14.085
    c5.02251-13.02216,39.06911-26.04696,41.67567-26.04696L152.83075,84.72871z"/>
  <path fill="#E28257" d="M152.83075,84.72871c-2.60788,0-43.41514,19.14123-48.43885,32.16604
    c-20.83916-2.6039-52.09791,15.63123-52.09791,15.63123L21.03406,70.00729c0,0,31.25741-18.23261,52.09909-15.63123
    c5.02251-13.02348,39.06911-26.04829,41.67567-26.04829L152.83075,84.72871z"/>
  <path fill="#C0B9AB" d="M148.10115,77.72701v4.91621c-2.45869,0-40.14881,16.91586-44.88611,29.20312
    c-19.66364-2.45618-49.1557,14.7473-49.1557,14.7473L24.56861,67.60951v-4.91488
    c9.21419-4.72442,34.40562-11.67422,49.15171-9.83241c4.73995-12.28859,36.86312-24.57586,39.32195-24.57586L148.10115,77.72701z"/>
  <path fill="#F6EAD6" d="M148.10115,77.72701c-2.45869,0-40.14881,16.91454-44.88611,29.20312
    c-19.66364-2.45618-49.1557,14.7473-49.1557,14.7473l-29.49074-58.9828c0,0,29.49074-17.20347,49.15171-14.74743
    c4.73995-12.28846,36.86312-24.57705,39.32195-24.57705L148.10115,77.72701z"/>
  <polygon fill="#C0B9AB" points="102.54744,107.26447 72.72874,47.84103 73.72032,47.94721 74.08199,47.11517 103.88251,106.59568
    102.54744,107.26447"/>
  <path fill="#8C9EB9" d="M43.5219,73.10771c1.57861-3.06273,1.13664-5.50855,0.21647-8.82531
    c0.36605,1.3194,0.95839,2.18264,2.51311,2.55585c1.19371,0.28774,2.07898-0.12821,2.68102-0.85673
    c0.07592,0.09861,0.15688,0.20479,0.24633,0.32278c0.43228,0.57164,2.17879-0.22298,2.47237-0.66229
    c0.62274-0.93198,0.93384-1.67457,1.08023-2.47171c1.45624,0.58969,2.91952,0.63893,3.81646-0.05322
    c0.86071,0.98122,1.95647,1.55539,3.43275,1.00325c3.9176-1.46327,2.04925-5.74055,1.00976-8.7839
    c5.61539,0.04406,0.26186,12.31846,7.30629,7.60571c1.09589-0.73356-1.48929-0.47834-1.98315-0.14772
    c0.97923-0.65459,0.4141-6.15279-0.41476-6.97448c-1.99921-1.9805-3.95967-1.83928-6.51101-1.19637
    c-0.232,0.0584-1.29233,0.37455-1.16199,0.79063c0.42578,1.35962,0.89363,2.70118,1.30653,4.06465
    c1.11395,3.67976-1.88786,0.595-2.55864-0.76993c-0.31296-0.6376-2.76781,0.09211-2.56368,0.68698
    c0.5593,1.63316-0.14772,2.75693-1.6617,1.3636c-0.44714-0.41224-2.51577,0.09463-2.48591,0.79316
    c0.12701,0.57031,0.14387,1.10307,0.1095,1.61883c-0.17759-0.3265-0.3545-0.65194-0.53209-0.97857
    c-0.23717-0.6376-2.6765,0.01685-2.56368,0.68697c0.87027,5.17422-0.75507,0.11282-1.54504-0.79448
    c-0.35318-0.40574-1.58963-0.26956-2.06279-0.14255c-1.56308,0.41861-2.23387,1.28954-2.47489,2.40296
    c-0.28005-0.39273-0.61955-0.76343-1.05383-1.09776c-0.41277-0.31894-2.78268,0.2332-2.48591,0.79316
    c0.43746,0.78028,0.8347,1.57994,1.19172,2.39911c-2.26174,1.50747-3.46315,1.25211-3.60516-0.76343
    c-0.20731-0.66096-2.7568,0.0726-2.56369,0.68698c1.32458,4.21887,5.30562,5.03937,7.3335,3.32591
    c0.15622,1.36745,0.32212,2.7491,0.96171,3.97387C41.32493,74.34032,43.25221,73.6313,43.5219,73.10771z"/>
  <path fill="#8C9EB9" d="M69.16512,69.12986c-0.06543,0.81651-0.26385,1.59294-0.5658,2.33686
    c-3.11263-2.15277-4.66283-2.12039-7.30111,0.86323c-2.67066-1.32458-4.07952-1.30254-6.03148,0.814
    c-0.55279,0.0791-1.11992,0.3642-1.28582,0.74139c-0.93769,0.86191-1.87605,1.72381-2.81387,2.58585
    c-0.01937,0.0077-0.0434,0.02203-0.06543,0.03239c0.05707-0.27089,0.07459-0.56646,0.07578-0.98374
    c0.00584-2.17361-3.60184-2.32784-4.97381-2.38624c-0.43294-0.01818-2.15874,0.39539-1.74783,1.19372
    c1.26632,2.46268,1.76403,4.7361,0.8923,7.20781c-0.53196-0.31496-1.06404-0.62991-1.59547-0.94366
    c-0.80749-0.61172-3.11528,0.54178-2.00253,1.3843c1.74266,1.31954,1.37395,1.0667,3.3952,1.92993
    c0.62221,0.26572,1.64736-0.12184,1.97147-0.69865c0.18276-0.3253,0.32981-0.64543,0.47236-0.96556
    c0.39339,1.47628,1.276,2.53262,3.45227,2.32531c4.3005-0.41224,4.79888-4.53914,2.4587-7.327
    c0.814-0.43559,1.48279-0.97472,2.03306-1.68372c0.30526-0.09981,0.57615-0.24886,0.71604-0.43162
    c1.68692-2.2125,1.99152-2.02324,4.24808-0.78028c0.59553,0.32796,1.62016,0.16206,2.05629-0.38105
    c1.53786-1.9144,3.65639-1.45159,5.4094-0.11666c0.63322,0.48219,1.84313,0.01434,2.21449-0.59367
    c0.89628-1.4658,1.27852-2.64398,1.57211-4.36912C71.95045,67.70282,69.34204,68.0917,69.16512,69.12986z M50.42179,77.67525
    c0.02468-0.02721,0.03437-0.04539,0.05707-0.07127c0.01805,0.02322,0.02654,0.04924,0.0511,0.07127
    c0.78227,0.58969,1.34608,1.35696,1.69156,2.30315C50.06278,83.26025,49.4626,82.49165,50.42179,77.67525z"/>

</svg>
