<?xml version="1.0" encoding="utf-8"?>
<!DOCTYPE svg PUBLIC "-//W3C//DTD SVG 1.1//EN" "http://www.w3.org/Graphics/SVG/1.1/DTD/svg11.dtd">
<svg version="1.1" xmlns="http://www.w3.org/2000/svg" xmlns:xlink="http://www.w3.org/1999/xlink" x="0px" y="0px" width="160px"
  height="160px" viewBox="0 0 160 160" enable-background="new 0 0 160 160" xml:space="preserve">
  <circle fill="#A26D3A" cx="80.74365" cy="82.69974" r="58.45151"/>
  <circle fill="#F1F1F2" cx="80.57532" cy="82.7547" r="48.75612"/>
  <path fill="#A6A8AB" d="M44.61234,108.00656c-0.81828,0.66637-0.69439,1.00884,0.25712,0.42087
    s37.49088-23.13256,37.49088-23.13256l-3.56998-5.08144C78.79035,80.21342,45.43289,107.3403,44.61234,108.00656z"/>
  <path fill="#A6A8AB" d="M101.79782,103.74805c0.339,0.02694,0.39741-0.01053,0.5237-0.29458
    c0.12389-0.28406-19.55899-22.89867-19.55899-22.89867l-4.37665,4.3988C78.38588,84.95361,101.45882,103.72005,101.79782,103.74805z"/>
  <ellipse fill="#6D6E70" cx="80.57532" cy="82.7547" rx="3.09428" ry="3.11068"/>
  <line fill="#6D6E70" stroke="#6D6E70" stroke-width="0.98921" x1="80.90382" y1="83.08554" x2="65.57171" y2="50.59077"/>
  <rect x="80.4643" y="36.42063" fill="#6D6E70" stroke="#6D6E70" stroke-width="0.98921" width="1.03111" height="5.55966"/>
  <rect x="121.59759" y="82.92899" fill="#6D6E70" stroke="#6D6E70" stroke-width="0.98921" width="5.55726" height="1.02979"/>
  <rect x="79.71149" y="123.96754" fill="#6D6E70" stroke="#6D6E70" stroke-width="0.98921" width="1.03111" height="5.55966"/>
  <rect x="34.04951" y="81.98667" fill="#6D6E70" stroke="#6D6E70" stroke-width="0.98921" width="5.55968" height="1.03111"/>
  <polygon fill="#6D6E70" stroke="#6D6E70" stroke-width="0.98921" points="60.08232,47.48607 60.65511,47.15641 59.55156,45.33635
    59.02093,45.64027"/>
  <polygon fill="#6D6E70" stroke="#6D6E70" stroke-width="0.98921" points="116.09186,62.45223 116.42152,63.0238 118.24277,61.9192
    117.93646,61.39083"/>
  <polygon fill="#6D6E70" stroke="#6D6E70" stroke-width="0.98921" points="101.1245,118.46177 100.55402,118.79143
    101.65993,120.61149 102.18829,120.30529"/>
  <polygon fill="#6D6E70" stroke="#6D6E70" stroke-width="0.98921" points="45.11496,103.49441 44.7853,102.92403
    42.96644,104.02864 43.27264,104.5558"/>
  <polygon fill="#6D6E70" stroke="#6D6E70" stroke-width="0.98921" points="45.08683,62.50131 45.41649,61.92973 43.55082,60.90569
    43.24463,61.43525"/>
  <polygon fill="#6D6E70" stroke="#6D6E70" stroke-width="0.98921" points="101.07542,47.45794 101.64819,47.78652
    102.67224,45.92085 102.14149,45.61334"/>
  <polygon fill="#6D6E70" stroke="#6D6E70" stroke-width="0.98921" points="116.11761,103.44653 115.79021,104.0181
    117.65588,105.04215 117.96222,104.51259"/>
  <polygon fill="#6D6E70" stroke="#6D6E70" stroke-width="0.98921" points="60.1314,118.4899 59.5609,118.15904 58.53697,120.02591
    59.06533,120.33211"/>

</svg>
