<?xml version="1.0" encoding="utf-8"?>
<!DOCTYPE svg PUBLIC "-//W3C//DTD SVG 1.1//EN" "http://www.w3.org/Graphics/SVG/1.1/DTD/svg11.dtd">
<svg version="1.1" xmlns="http://www.w3.org/2000/svg" xmlns:xlink="http://www.w3.org/1999/xlink" x="0px" y="0px" width="160px"
  height="160px" viewBox="0 0 160 160" enable-background="new 0 0 160 160" xml:space="preserve">
  <path opacity="0.5" fill="none" stroke="#A4DBDF" stroke-width="3.09758" d="M130.21733,63.14824
    c11.15085,0,11.15085,11.14966,0,11.14966c-11.15092,0-11.15092,11.15204,0,11.15204c11.15085,0,11.15085,11.14972,0,11.14972
    c-11.15092,0-11.15092,11.15199,0,11.15199"/>
  <path opacity="0.5" fill="none" stroke="#A4DBDF" stroke-width="3.09758" d="M26.11511,63.14824
    c11.15085,0,11.15085,11.14966,0,11.14966c-11.15091,0-11.15091,11.15204,0,11.15204c11.15085,0,11.15085,11.14972,0,11.14972
    c-11.15091,0-11.15091,11.15199,0,11.15199"/>
  <path fill="#808184" d="M117.62681,13.21182h-6.59703c1.2152,0.00697,2.19784,4.93058,2.19784,10.99617
    c0,6.07029-0.98264,10.9939-2.19784,10.99623h6.59703c1.2152-0.00232,2.19785-4.92594,2.19785-10.99623
    C119.82465,18.14241,118.84201,13.21879,117.62681,13.21182z"/>
  <ellipse fill="#BBBDBF" cx="111.02979" cy="24.20801" rx="2.19903" ry="10.99623"/>
  <path fill="#808184" d="M104.11993,16.3539h1.57107h4.71201l0,0c0.86629,0.00464,1.56869,3.52122,1.56869,7.85409
    c0,4.33525-0.70239,7.84945-1.56869,7.85409l0,0h-4.71201h-1.57107H86.83955V16.3539H104.11993z"/>
  <path fill="#808184" d="M78.98313,16.3539c4.3387,0,7.85522,0,7.85522,0l0,0h0.00119c0.86749,0,1.5722,3.51658,1.5722,7.85409
    c0,4.33757-0.70471,7.85409-1.5722,7.85409h-0.00119V47.768l0.00119,0.00232c0,0.86749-3.51658,1.56988-7.8541,1.56988
    c-4.33756,0-7.85409-0.70239-7.85409-1.56988h-0.00232V32.06208v-3.13976c0-1.31404,0-2.93744,0-4.71433
    C71.12904,19.87048,74.64556,16.3539,78.98313,16.3539z"/>
  <path fill="#A6A8AB" d="M103.48154,62.29468c0,8.48669-10.96717,14.46393-24.49841,14.46393
    c-13.53011,0-24.49728-5.97723-24.49728-14.46393c0-1.86757,10.96717-16.28035,24.49728-16.28035
    C92.51437,46.01432,103.48154,60.4271,103.48154,62.29468z"/>
  <path fill="#BBBDBF" d="M78.98313,55.10576c-14.74882,0-26.70441,3.46073-26.70441,8.37506v9.42629h53.40994v-9.42629
    C105.68867,58.56649,93.73309,55.10576,78.98313,55.10576z"/>
  <path fill="#A6A8AB" d="M105.68867,72.90711c0,4.91665-11.95558,8.37506-26.70554,8.37506
    c-14.74882,0-26.70441-3.45841-26.70441-8.37506s11.95559-9.42629,26.70441-9.42629
    C93.73309,63.48082,105.68867,67.99046,105.68867,72.90711z"/>
  <path fill="#D0D2D3" d="M98.9672,72.3815c0,2.52114-8.94604,4.56781-19.98407,4.56781
    c-11.03689,0-19.98413-2.04667-19.98413-4.56781c0-2.51882,8.94724-4.56549,19.98413-4.56549
    C90.02116,67.81601,98.9672,69.86268,98.9672,72.3815z"/>
  <ellipse fill="#929497" cx="66.68567" cy="70.979" rx="1.53734" ry="0.35123"/>
  <ellipse fill="#929497" cx="69.76038" cy="70.27661" rx="1.53734" ry="0.35122"/>
  <path fill="#929497" d="M74.37115,69.57433c0,0.1907-0.68726,0.35116-1.53618,0.35116c-0.85004,0-1.5385-0.16045-1.5385-0.35116
    c0-0.19308,0.68845-0.35123,1.5385-0.35123C73.68388,69.22311,74.37115,69.38125,74.37115,69.57433z"/>
  <ellipse fill="#929497" cx="75.90906" cy="68.87195" rx="1.5379" ry="0.35116"/>
  <ellipse fill="#929497" cx="75.90906" cy="70.27661" rx="1.5379" ry="0.35122"/>
  <ellipse fill="#929497" cx="82.05774" cy="70.27661" rx="1.53734" ry="0.35123"/>
  <ellipse fill="#929497" cx="88.20703" cy="70.27661" rx="1.53734" ry="0.35122"/>
  <path fill="#929497" d="M86.67093,69.57433c0,0.1907-0.68845,0.35116-1.53731,0.35116c-0.85123,0-1.5385-0.16045-1.5385-0.35116
    c0-0.19308,0.68726-0.35123,1.5385-0.35123C85.98248,69.22311,86.67093,69.38125,86.67093,69.57433z"/>
  <ellipse fill="#929497" cx="82.05835" cy="68.87195" rx="1.53674" ry="0.35116"/>
  <path fill="#929497" d="M80.52163,69.57433c0,0.1907-0.68726,0.35116-1.53618,0.35116c-0.8501,0-1.5385-0.16045-1.5385-0.35116
    c0-0.19308,0.6884-0.35123,1.5385-0.35123C79.83437,69.22311,80.52163,69.38125,80.52163,69.57433z"/>
  <path fill="#929497" d="M68.22298,72.3815c0,0.19535-0.68726,0.35349-1.53618,0.35349c-0.85004,0-1.5385-0.15813-1.5385-0.35349
    c0-0.1907,0.68845-0.34885,1.5385-0.34885C67.53571,72.03265,68.22298,72.1908,68.22298,72.3815z"/>
  <path fill="#929497" d="M65.1483,71.67911c0,0.19535-0.68726,0.35355-1.53612,0.35355c-0.85011,0-1.5385-0.1582-1.5385-0.35355
    c0-0.1907,0.68839-0.34884,1.5385-0.34884C64.46104,71.33027,65.1483,71.4884,65.1483,71.67911z"/>
  <ellipse fill="#929497" cx="72.83496" cy="70.979" rx="1.53731" ry="0.35122"/>
  <path fill="#929497" d="M80.52163,72.3815c0,0.19535-0.68726,0.35349-1.53618,0.35349c-0.8501,0-1.5385-0.15813-1.5385-0.35349
    c0-0.1907,0.6884-0.34885,1.5385-0.34885C79.83437,72.03265,80.52163,72.1908,80.52163,72.3815z"/>
  <ellipse fill="#929497" cx="78.98425" cy="70.979" rx="1.53734" ry="0.35123"/>
  <path fill="#929497" d="M77.44695,71.67911c0,0.19535-0.68726,0.35355-1.53618,0.35355c-0.85123,0-1.53963-0.1582-1.53963-0.35355
    c0-0.1907,0.68839-0.34884,1.53963-0.34884C76.75969,71.33027,77.44695,71.4884,77.44695,71.67911z"/>
  <path fill="#929497" d="M74.37228,72.3815c0,0.19535-0.68726,0.35349-1.53731,0.35349c-0.84892,0-1.53731-0.15813-1.53731-0.35349
    c0-0.1907,0.68839-0.34885,1.53731-0.34885C73.68501,72.03265,74.37228,72.1908,74.37228,72.3815z"/>
  <path fill="#929497" d="M71.29766,71.67911c0,0.19535-0.68726,0.35355-1.53737,0.35355c-0.85005,0-1.53732-0.1582-1.53732-0.35355
    c0-0.1907,0.68726-0.34884,1.53732-0.34884C70.6104,71.33027,71.29766,71.4884,71.29766,71.67911z"/>
  <path fill="#929497" d="M65.14949,73.08389c0,0.19535-0.68726,0.35349-1.53731,0.35349c-0.84892,0-1.53737-0.15813-1.53737-0.35349
    c0-0.1907,0.68845-0.3489,1.53737-0.3489C64.46223,72.73499,65.14949,72.89318,65.14949,73.08389z"/>
  <path fill="#929497" d="M71.29879,73.08389c0,0.19535-0.68726,0.35349-1.53731,0.35349s-1.53851-0.15813-1.53851-0.35349
    c0-0.1907,0.68846-0.3489,1.53851-0.3489S71.29879,72.89318,71.29879,73.08389z"/>
  <ellipse fill="#929497" cx="75.90967" cy="74.49097" rx="1.53734" ry="0.35117"/>
  <ellipse fill="#929497" cx="78.98425" cy="75.19104" rx="1.53734" ry="0.35355"/>
  <path fill="#929497" d="M77.44695,73.08389c0,0.19535-0.68726,0.35349-1.53618,0.35349c-0.85004,0-1.5385-0.15813-1.5385-0.35349
    c0-0.1907,0.68845-0.3489,1.5385-0.3489C76.75969,72.73499,77.44695,72.89318,77.44695,73.08389z"/>
  <path fill="#929497" d="M74.37228,73.78627c0,0.19535-0.68726,0.35349-1.53731,0.35349c-0.84892,0-1.53731-0.15813-1.53731-0.35349
    c0-0.1907,0.68839-0.3489,1.53731-0.3489C73.68501,73.43737,74.37228,73.59557,74.37228,73.78627z"/>
  <ellipse fill="#929497" cx="69.76086" cy="74.49097" rx="1.5379" ry="0.35116"/>
  <ellipse fill="#929497" cx="72.83386" cy="75.19104" rx="1.53734" ry="0.35355"/>
  <path fill="#929497" d="M68.22298,73.78627c0,0.19535-0.68726,0.35349-1.53618,0.35349c-0.85004,0-1.5385-0.15813-1.5385-0.35349
    c0-0.1907,0.68845-0.3489,1.5385-0.3489C67.53571,73.43737,68.22298,73.59557,68.22298,73.78627z"/>
  <ellipse fill="#929497" cx="82.05835" cy="73.08386" rx="1.53674" ry="0.35349"/>
  <path fill="#929497" d="M83.59512,71.67911c0,0.19535-0.68846,0.35355-1.53618,0.35355c-0.85124,0-1.53851-0.1582-1.53851-0.35355
    c0-0.1907,0.68726-0.34884,1.53851-0.34884C82.90666,71.33027,83.59512,71.4884,83.59512,71.67911z"/>
  <path fill="#929497" d="M86.67093,72.3815c0,0.19535-0.68845,0.35349-1.53731,0.35349c-0.85123,0-1.5385-0.15813-1.5385-0.35349
    c0-0.1907,0.68726-0.34885,1.5385-0.34885C85.98248,72.03265,86.67093,72.1908,86.67093,72.3815z"/>
  <ellipse fill="#929497" cx="85.13306" cy="70.979" rx="1.5379" ry="0.35122"/>
  <path fill="#929497" d="M89.74442,71.67911c0,0.19535-0.68845,0.35355-1.53731,0.35355c-0.85011,0-1.53737-0.1582-1.53737-0.35355
    c0-0.1907,0.68726-0.34884,1.53737-0.34884C89.05596,71.33027,89.74442,71.4884,89.74442,71.67911z"/>
  <ellipse fill="#929497" cx="91.28174" cy="70.979" rx="1.53734" ry="0.35122"/>
  <path fill="#929497" d="M92.81909,72.3815c0,0.19535-0.68726,0.35349-1.53737,0.35349c-0.85004,0-1.53731-0.15813-1.53731-0.35349
    c0-0.1907,0.68726-0.34885,1.53731-0.34885C92.13183,72.03265,92.81909,72.1908,92.81909,72.3815z"/>
  <path fill="#929497" d="M95.89371,71.67911c0,0.19535-0.6884,0.35355-1.53731,0.35355c-0.85005,0-1.53732-0.1582-1.53732-0.35355
    c0-0.1907,0.68726-0.34884,1.53732-0.34884C95.20531,71.33027,95.89371,71.4884,95.89371,71.67911z"/>
  <ellipse fill="#929497" cx="78.98425" cy="73.78625" rx="1.53734" ry="0.35349"/>
  <ellipse fill="#929497" cx="82.05835" cy="74.49097" rx="1.53674" ry="0.35116"/>
  <ellipse fill="#929497" cx="85.13184" cy="75.19104" rx="1.5379" ry="0.35355"/>
  <ellipse fill="#929497" cx="82.05774" cy="75.89575" rx="1.53734" ry="0.35123"/>
  <ellipse fill="#929497" cx="75.90906" cy="75.89575" rx="1.5379" ry="0.35123"/>
  <ellipse fill="#929497" cx="88.20825" cy="73.08386" rx="1.53731" ry="0.35349"/>
  <ellipse fill="#929497" cx="94.35706" cy="73.08386" rx="1.5379" ry="0.35349"/>
  <ellipse fill="#929497" cx="91.28174" cy="73.78625" rx="1.53734" ry="0.35349"/>
  <ellipse fill="#929497" cx="88.20825" cy="74.49097" rx="1.53731" ry="0.35116"/>
  <path fill="#929497" d="M86.67093,73.78627c0,0.19535-0.68845,0.35349-1.53731,0.35349c-0.85123,0-1.5385-0.15813-1.5385-0.35349
    c0-0.1907,0.68726-0.3489,1.5385-0.3489C85.98248,73.43737,86.67093,73.59557,86.67093,73.78627z"/>
  <path fill="#A4DBDF" stroke="#FFFFFF" stroke-width="1.73489" d="M70.1336,87.79895c0,1.72807-1.3978,3.1235-3.12231,3.1235
    c-1.72456,0-3.12237-1.39542-3.12237-3.1235c0-1.72569,3.12237-6.24468,3.12237-6.24468S70.1336,86.07326,70.1336,87.79895z"/>
  <path fill="#A4DBDF" stroke="#FFFFFF" stroke-width="1.73489" d="M82.62641,87.79895c0,1.72807-1.39775,3.1235-3.1235,3.1235
    c-1.72456,0-3.1235-1.39542-3.1235-3.1235c0-1.72569,3.1235-6.24468,3.1235-6.24468S82.62641,86.07326,82.62641,87.79895z"/>
  <path fill="#A4DBDF" stroke="#FFFFFF" stroke-width="1.73489" d="M95.1169,87.79895c0,1.72807-1.39774,3.1235-3.12231,3.1235
    c-1.72569,0-3.12469-1.39542-3.12469-3.1235c0-1.72569,3.12469-6.24468,3.12469-6.24468S95.1169,86.07326,95.1169,87.79895z"/>
  <path fill="#A4DBDF" stroke="#FFFFFF" stroke-width="1.73489" d="M82.62641,106.53763c0,1.72569-1.39775,3.12118-3.1235,3.12118
    c-1.72456,0-3.1235-1.39548-3.1235-3.12118c0-1.72807,3.1235-6.247,3.1235-6.247S82.62641,104.80956,82.62641,106.53763z"/>
  <path fill="#A4DBDF" stroke="#FFFFFF" stroke-width="1.73489" d="M95.1169,106.53763c0,1.72569-1.39774,3.12118-3.12231,3.12118
    c-1.72569,0-3.12469-1.39548-3.12469-3.12118c0-1.72807,3.12469-6.247,3.12469-6.247S95.1169,104.80956,95.1169,106.53763z"/>
  <path fill="#A4DBDF" stroke="#FFFFFF" stroke-width="1.73489" d="M63.88892,97.16945c0,1.72569-1.39775,3.12118-3.1235,3.12118
    c-1.72456,0-3.1235-1.39548-3.1235-3.12118c0-1.72801,3.1235-6.247,3.1235-6.247S63.88892,95.44144,63.88892,97.16945z"/>
  <path fill="#A4DBDF" stroke="#FFFFFF" stroke-width="1.73489" d="M76.37941,97.16945c0,1.72569-1.39774,3.12118-3.12118,3.12118
    c-1.72569,0-3.12463-1.39548-3.12463-3.12118c0-1.72801,3.12463-6.247,3.12463-6.247S76.37941,95.44144,76.37941,97.16945z"/>
  <path fill="#A4DBDF" stroke="#FFFFFF" stroke-width="1.73489" d="M88.8699,97.16945c0,1.72569-1.39543,3.12118-3.11999,3.12118
    c-1.72569,0-3.1235-1.39548-3.1235-3.12118c0-1.72801,3.1235-6.247,3.1235-6.247S88.8699,95.44144,88.8699,97.16945z"/>
  <path fill="#A4DBDF" stroke="#FFFFFF" stroke-width="1.73489" d="M101.3639,97.16945c0,1.72569-1.39893,3.12118-3.12463,3.12118
    c-1.72456,0-3.12238-1.39548-3.12238-3.12118c0-1.72801,3.12238-6.247,3.12238-6.247S101.3639,95.44144,101.3639,97.16945z"/>
  <path fill="#A4DBDF" stroke="#FFFFFF" stroke-width="1.73489" d="M70.1336,106.53763c0,1.72569-1.3978,3.1235-3.12231,3.1235
    c-1.72456,0-3.12237-1.3978-3.12237-3.1235c0-1.72575,3.12237-6.247,3.12237-6.247S70.1336,104.81187,70.1336,106.53763z"/>
  <path fill="#A4DBDF" stroke="#FFFFFF" stroke-width="1.73489" d="M95.1169,125.27393c0,1.72575-1.39774,3.12119-3.12231,3.12119
    c-1.72569,0-3.12469-1.39543-3.12469-3.12119c0-1.72569,3.12469-6.247,3.12469-6.247S95.1169,123.54823,95.1169,125.27393z"/>
  <path fill="#A4DBDF" stroke="#FFFFFF" stroke-width="1.73489" d="M70.1336,125.27393c0,1.72575-1.3978,3.1235-3.12231,3.1235
    c-1.72456,0-3.12237-1.39775-3.12237-3.1235c0-1.72569,3.12237-6.247,3.12237-6.247S70.1336,123.54823,70.1336,125.27393z"/>
  <path fill="#A4DBDF" stroke="#FFFFFF" stroke-width="1.73489" d="M76.37941,115.90581c0,1.72569-1.39774,3.12582-3.12118,3.12582
    c-1.72569,0-3.12463-1.40013-3.12463-3.12582c0-1.72343,3.12463-6.24468,3.12463-6.24468S76.37941,114.18238,76.37941,115.90581z"/>
  <path fill="#A4DBDF" stroke="#FFFFFF" stroke-width="1.73489" d="M88.8699,115.90581c0,1.72569-1.39775,3.12582-3.12231,3.12582
    c-1.72456,0-3.12231-1.40013-3.12231-3.12582c0-1.72343,3.12231-6.24468,3.12231-6.24468S88.8699,114.18238,88.8699,115.90581z"/>
  <path fill="#A4DBDF" stroke="#FFFFFF" stroke-width="1.73489" d="M101.36045,115.90581c0,1.72569-1.39548,3.12582-3.12118,3.12582
    c-1.72456,0-3.12469-1.40013-3.12469-3.12582c0-1.72343,3.12469-6.24468,3.12469-6.24468S101.36045,114.18238,101.36045,115.90581z"/>
  <path fill="#A4DBDF" stroke="#FFFFFF" stroke-width="1.73489" d="M63.88892,115.90581c0,1.72569-1.39775,3.12582-3.1235,3.12582
    c-1.72456,0-3.1235-1.40013-3.1235-3.12582c0-1.72343,3.1235-6.24468,3.1235-6.24468S63.88892,114.18238,63.88892,115.90581z"/>
  <path fill="#A4DBDF" stroke="#FFFFFF" stroke-width="1.73489" d="M111.46001,128.69281
    c1.22103-1.22337,3.19792-1.22569,4.41663-0.00465c1.21985,1.21872,1.21985,3.20026,0,4.41896
    c-1.21871,1.21872-6.62609,2.20714-6.62609,2.20714S110.24136,129.91151,111.46001,128.69281z"/>
  <path fill="#A4DBDF" stroke="#FFFFFF" stroke-width="1.73489" d="M43.1315,133.10712
    c-1.22217-1.2187-1.22217-3.19792-0.00345-4.41896c1.22217-1.21871,3.20024-1.21871,4.42009,0.00232
    c1.21984,1.22104,2.20713,6.62378,2.20713,6.62378S44.35021,134.32584,43.1315,133.10712z"/>
  <path fill="#A4DBDF" stroke="#FFFFFF" stroke-width="1.73489" d="M82.62641,125.27625c0,1.72575-1.39775,3.1235-3.1235,3.1235
    c-1.72456,0-3.1235-1.39775-3.1235-3.1235c0-1.72569,3.1235-6.24462,3.1235-6.24462S82.62641,123.55056,82.62641,125.27625z"/>
  <path fill="#A4DBDF" stroke="#FFFFFF" stroke-width="1.73489" d="M88.8699,134.64442c0,1.72575-1.39543,3.1235-3.11999,3.1235
    c-1.72569,0-3.1235-1.39775-3.1235-3.1235c0-1.72569,3.1235-6.24467,3.1235-6.24467S88.8699,132.91873,88.8699,134.64442z"/>
  <path fill="#A4DBDF" stroke="#FFFFFF" stroke-width="1.73489" d="M101.36277,134.64442c0,1.72575-1.3978,3.1235-3.1235,3.1235
    c-1.72456,0-3.12469-1.39775-3.12469-3.1235c0-1.72569,3.12469-6.24467,3.12469-6.24467S101.36277,132.91873,101.36277,134.64442z"/>
  <path fill="#A4DBDF" stroke="#FFFFFF" stroke-width="1.73489" d="M76.37941,134.64442c0,1.72575-1.39774,3.1235-3.12118,3.1235
    c-1.72569,0-3.12463-1.39775-3.12463-3.1235c0-1.72569,3.12463-6.24467,3.12463-6.24467S76.37941,132.91873,76.37941,134.64442z"/>
  <path fill="#A4DBDF" stroke="#FFFFFF" stroke-width="1.73489" d="M63.88892,134.64442c0,1.72575-1.39775,3.1235-3.1235,3.1235
    c-1.72456,0-3.1235-1.39775-3.1235-3.1235c0-1.72569,3.1235-6.24467,3.1235-6.24467S63.88892,132.91873,63.88892,134.64442z"/>

</svg>
