<svg version="1.1" xmlns="http://www.w3.org/2000/svg" xmlns:xlink="http://www.w3.org/1999/xlink"
 width="160px" height="160px" viewBox="-219 321 160 160">
<path fill="#D6703E" d="M-105.7,442.8c0,0-18.9-88.8-18.9-88.8l-0.4-1.6l-1.6,0.4l-52.1,11.1l-1.6,0.4l0.4,1.6
c0,0,18.9,88.8,18.9,88.8c0.9,4.4,7,6.9,16.5,6.9c4.2,0,8.9-0.5,13.6-1.5C-117.6,457.1-104.1,450.1-105.7,442.8z"/>
<path fill="#C46738" d="M-122.2,437.6c8.2,0,14.1,2,14.9,5.6c1.1,5.3-9.6,12.1-24,15.2c-4.7,1-9.3,1.5-13.2,1.5
c-8.2,0-14.1-2-14.9-5.6c-1.1-5.3,9.6-12.1,24-15.2C-130.8,438-126.2,437.6-122.2,437.6 M-122.2,435.9L-122.2,435.9L-122.2,435.9
c-4.2,0-8.9,0.5-13.6,1.5c-7.2,1.5-13.7,4-18.4,7c-5.2,3.3-7.6,6.9-6.9,10.2c0.9,4.4,7,6.9,16.5,6.9c4.2,0,8.9-0.5,13.6-1.5
c13.4-2.9,26.9-9.9,25.3-17.2C-106.6,438.4-112.7,435.9-122.2,435.9L-122.2,435.9z"/>
<path fill="#FFFFFF" d="M-162.6,374.8l0.3,0c4,0,8.4-0.5,12.7-1.5c6.9-1.5,13.2-3.9,17.7-6.7c4.4-2.8,6.6-5.7,6.1-8.2l0.5-0.1
l15.6,73.4c0.6,2.7-1.7,5.8-6.3,8.7c-4.6,2.9-10.9,5.3-17.9,6.8c-4.4,0.9-8.9,1.5-12.9,1.5l-0.2,0L-162.6,374.8z"/>
<path fill="#D6703E" d="M-125.4,358.4l15.6,73.4c1.1,5.3-9.6,12.1-24,15.2c-4.5,1-8.9,1.4-12.8,1.5l-15.6-73.4
c3.9,0,8.3-0.5,12.8-1.5C-135,370.6-124.3,363.8-125.4,358.4 M-124.9,358.3l-0.5,0.1l-0.5,0.1c0.5,2.3-1.7,5.2-5.9,7.9
c-4.5,2.8-10.7,5.2-17.6,6.7c-4.3,0.9-8.7,1.4-12.7,1.5l-0.7,0l0.1,0.7l15.6,73.4l0.1,0.4l0.5,0c4,0,8.5-0.6,12.9-1.5
c7-1.5,13.4-3.9,18-6.8c4.7-3,7-6.2,6.4-9L-124.9,358.3L-124.9,358.3z"/>
<path fill="#BBBDBF" d="M-115.9,408.6c-6.1,10.3-23.9,13-34.6,13.6l0.5,2.1c10.7-0.6,28.5-3.3,34.6-13.6L-115.9,408.6L-115.9,408.6z
"/>
<path fill="#BBBDBF" d="M-114.5,414.9c-6.1,10.3-23.9,13-34.6,13.6l0.5,2.1c10.7-0.6,28.5-3.3,34.6-13.6L-114.5,414.9L-114.5,414.9z
"/>
<path fill="#BBBDBF" d="M-113.2,421.2c-6.1,10.3-23.9,13-34.6,13.6l0.5,2.1c10.7-0.6,28.5-3.3,34.6-13.6L-113.2,421.2L-113.2,421.2z
"/>
<path fill="#BBBDBF" d="M-111.8,427.6c-6.1,10.3-23.9,13-34.6,13.6l0.5,2.1c10.7-0.6,28.5-3.3,34.6-13.6L-111.8,427.6L-111.8,427.6z
"/>
<path fill="#DCCD9A" d="M-122.3,378.5c-6.1,10.3-23.9,13-34.6,13.6l2.7,12.9c10.7-0.6,28.5-3.3,34.6-13.6L-122.3,378.5z"/>
<path fill="#BBBDBF" d="M-116.9,360.4l-4.1-19.3c-0.7-3.2-6.6-4.8-15.3-4.8c-5.9,0-13,0.8-20.6,2.4c-18.7,4-32.9,11.5-31.7,16.8
c0,0,4.1,19.3,4.1,19.3c1.1,5.3,17.2,6.4,35.8,2.5C-130,373.3-115.8,365.8-116.9,360.4z"/>
<path fill="#FFFFFF" d="M-172,359.6c-7.9,0-13.1-1.6-13.7-4.1c-0.9-4.1,10.6-11.1,29.1-15c6.8-1.4,13.4-2.2,19-2.2
c7.9,0,13.1,1.6,13.7,4.1c0.5,2.1-2.3,4.9-7.6,7.7c-5.5,2.9-13.2,5.5-21.5,7.3C-159.8,358.8-166.4,359.6-172,359.6z"/>
</svg>
