<?xml version="1.0" encoding="utf-8"?>
<!DOCTYPE svg PUBLIC "-//W3C//DTD SVG 1.1//EN" "http://www.w3.org/Graphics/SVG/1.1/DTD/svg11.dtd">
<svg version="1.1" xmlns="http://www.w3.org/2000/svg" xmlns:xlink="http://www.w3.org/1999/xlink" x="0px" y="0px" width="160px"
  height="160px" viewBox="0 0 160 160" enable-background="new 0 0 160 160" xml:space="preserve">
  <path fill="#FFFFFF" d="M68.68109,134.95757c-0.24963-0.32039-0.68247-0.41164-1.03391-0.24544v-1.17252
    c0-0.1825-0.14426-0.36137-0.43285-0.5099l-5.94691-2.99855c-0.64141-0.32248-1.76237-0.36136-2.50632-0.07994l-16.809,6.32037
    c-0.40735,0.15273-0.61599,0.36491-0.61599,0.58202v1.06151c-0.46811,0-0.84932,0.38121-0.84932,0.84932
    c0,0.03397,0.00492,0.10965,0.00847,0.14217c0.05518,0.46608,0.48021,0.80058,0.94339,0.74402
    c0.01202-0.00072,0.02339-0.00217,0.03469-0.00427c0.03114,0.27657,0.19799,0.53111,0.46536,0.66481l0.03817,0.01839
    c0.2334,0.11739,0.49505,0.11594,0.71708,0.02049c0.06018,0.23906,0.22138,0.45334,0.45479,0.57072
    c0.23405,0.11812,0.49715,0.11812,0.72063,0.02194c0.06011,0.23972,0.22066,0.45328,0.45471,0.57138
    c0.22703,0.11385,0.48093,0.11885,0.69942,0.03043c0.06011,0.22913,0.21429,0.4314,0.44204,0.54523l0.03744,0.0184
    c0.23485,0.11812,0.4965,0.11528,0.71716,0.02057c0.06083,0.2397,0.22203,0.45326,0.45616,0.5721
    c0.24115,0.12166,0.51272,0.11739,0.73975,0.01202c0.08835,0.27084,0.31046,0.4915,0.60744,0.56363
    c0.01702,0.00356,0.07713,0.0163,0.09407,0.01912c0.28642,0.04947,0.56791-0.04736,0.76025-0.23978
    c0.157,0.19096,0.39461,0.30836,0.65343,0.30836c0.03259,0,0.0672-0.00139,0.10044-0.00638l0.06575-0.00775
    c0.30416-0.04454,0.54596-0.24542,0.65705-0.50706c0.22348,0.13933,0.51345,0.17677,0.77719,0.07704
    c0.23623-0.0898,0.41018-0.27367,0.49368-0.49287c0.20719,0.11029,0.45892,0.13361,0.69659,0.04526l0.04026-0.01419
    c0.23623-0.0898,0.41162-0.2744,0.49433-0.49361c0.20864,0.10965,0.46043,0.13223,0.69804,0.04382l0.03889-0.01413
    c0.23833-0.08907,0.413-0.27367,0.4965-0.49361c0.20719,0.10957,0.45899,0.13297,0.69659,0.04527l0.04027-0.01558
    c0.2447-0.09196,0.42292-0.28575,0.50287-0.51489c0.21921,0.11746,0.48658,0.1436,0.73193,0.05098
    c0.23695-0.08986,0.41018-0.27374,0.49295-0.49367c0.20791,0.11101,0.46037,0.1344,0.69804,0.04599l0.03889-0.01485
    c0.23833-0.0898,0.41228-0.2744,0.49643-0.49434c0.20791,0.11031,0.45899,0.13362,0.69594,0.04527l0.04026-0.01485
    c0.23761-0.08987,0.41235-0.2744,0.49578-0.49295c0.20719,0.10892,0.45899,0.13295,0.69732,0.04453l0.03889-0.01556
    c0.23906-0.08769,0.413-0.27222,0.49643-0.49287c0.20791,0.11029,0.45898,0.13295,0.69732,0.04526l0.03961-0.01556
    c0.23833-0.08842,0.41162-0.27303,0.4965-0.49368c0.20647,0.10965,0.45899,0.13368,0.69587,0.04526l0.04034-0.01411
    c0.2376-0.0898,0.41155-0.2744,0.4957-0.49432c0.20726,0.11029,0.45899,0.13295,0.69659,0.04526l0.03961-0.01485
    c0.23767-0.08914,0.41162-0.27367,0.49577-0.49367c0.20792,0.10963,0.46037,0.13229,0.69659,0.04526l0.04034-0.0155
    c0.2376-0.08914,0.41228-0.27301,0.49577-0.49367c0.20719,0.10963,0.45892,0.13368,0.69724,0.04526l0.03961-0.01485
    c0.23833-0.08908,0.41235-0.27367,0.4965-0.49432c0.20719,0.10963,0.45899,0.13434,0.69587,0.04597l0.04034-0.01483
    c0.28149-0.10609,0.47311-0.34442,0.53184-0.61745c0.27505,0.10327,0.6018,0.06293,0.84795-0.12869
    C68.90175,135.8614,68.96896,135.32812,68.68109,134.95757z"/>
  <linearGradient id="SVGID_1_" gradientUnits="userSpaceOnUse" x1="41.3361" y1="135.4633" x2="67.64718" y2="135.4633">
    <stop  offset="0" style="stop-color:#ACC8E1"/>
    <stop  offset="0.5" style="stop-color:#86B2D5"/>
    <stop  offset="0.52694" style="stop-color:#84B1D4"/>
    <stop  offset="1" style="stop-color:#6DA5CC"/>
  </linearGradient>
  <path fill="url(#SVGID_1_)" d="M67.21433,132.3416l-5.94691-3c-0.64141-0.32176-1.76237-0.35992-2.50632-0.07988l-16.809,6.32103
    c-0.40735,0.15207-0.61599,0.36418-0.61599,0.58202v1.9109c0,0.18242,0.14498,0.36064,0.43285,0.50917l5.94764,2.99928
    c0.64214,0.3232,1.7631,0.36064,2.50632,0.0806l16.809-6.3203c0.408-0.15274,0.61527-0.36491,0.61527-0.58203v-1.91228
    C67.64718,132.66835,67.50291,132.49013,67.21433,132.3416z"/>
  <linearGradient id="SVGID_2_" gradientUnits="userSpaceOnUse" x1="76.15736" y1="-701.58484" x2="98.04124" y2="-702.15692" gradientTransform="matrix(0.7569 -0.6535 0.6535 0.7569 447.23889 722.67261)">
    <stop  offset="0" style="stop-color:#00A3CE"/>
    <stop  offset="0.13223" style="stop-color:#18A9D2"/>
    <stop  offset="0.40944" style="stop-color:#54B9DD"/>
    <stop  offset="0.5" style="stop-color:#69BEE1"/>
    <stop  offset="1" style="stop-color:#8ECDE9"/>
  </linearGradient>
  <path fill="url(#SVGID_2_)" d="M67.21433,132.34232c0.64148,0.32321,0.55871,0.81189-0.18387,1.0912l-16.80683,6.31966
    c-0.74258,0.27931-1.86419,0.24324-2.50567-0.07996l-5.94901-3.00137c-0.64141-0.3232-0.55798-0.81189,0.18314-1.09055
    l16.80755-6.31958c0.7433-0.27939,1.86492-0.24333,2.50567,0.07988L67.21433,132.34232z"/>
  <linearGradient id="SVGID_3_" gradientUnits="userSpaceOnUse" x1="52.63313" y1="133.96286" x2="56.35087" y2="133.96286">
    <stop  offset="0" style="stop-color:#E6EBF1"/>
    <stop  offset="0.5" style="stop-color:#D9DBDC"/>
    <stop  offset="1" style="stop-color:#D5DBDF"/>
  </linearGradient>
  <path fill="url(#SVGID_3_)" d="M56.35087,134.50705c0,1.02689-3.71774,1.02689-3.71774,0
    c0-1.02617,0.83237-1.85855,1.85854-1.85855C55.51849,132.6485,56.35087,133.48088,56.35087,134.50705z"/>
  <linearGradient id="SVGID_4_" gradientUnits="userSpaceOnUse" x1="54.54333" y1="134.11636" x2="74.94492" y2="37.35578">
    <stop  offset="0" style="stop-color:#00A3CE"/>
    <stop  offset="0.13223" style="stop-color:#18A9D2"/>
    <stop  offset="0.40944" style="stop-color:#54B9DD"/>
    <stop  offset="0.5" style="stop-color:#69BEE1"/>
    <stop  offset="1" style="stop-color:#8ECDE9"/>
  </linearGradient>
  <path fill="url(#SVGID_4_)" d="M75.90662,37.55855l-1.69582-0.31118l-20.47372,96.01291
    c-0.01347,0.02542-0.02759,0.05092-0.03396,0.07851c-0.07495,0.29416,0.26592,0.63367,0.76097,0.75952
    c0.49643,0.12587,0.95824-0.01064,1.03254-0.30481c0-0.00072,0-0.00072,0-0.00072L75.90662,37.55855z"/>
  <linearGradient id="SVGID_5_" gradientUnits="userSpaceOnUse" x1="3051.78418" y1="819.00134" x2="3060.68579" y2="819.00134" gradientTransform="matrix(-0.1751 0.9845 -0.9845 -0.1751 1420.04846 -2736.47656)">
    <stop  offset="0" style="stop-color:#B3B5B9"/>
    <stop  offset="0.00814" style="stop-color:#B5B6BA"/>
    <stop  offset="0.09692" style="stop-color:#CAC3C0"/>
    <stop  offset="0.19627" style="stop-color:#D9CCC4"/>
    <stop  offset="0.31468" style="stop-color:#E1D1C6"/>
    <stop  offset="0.5" style="stop-color:#E4D3C7"/>
    <stop  offset="0.73142" style="stop-color:#E3D0C4"/>
    <stop  offset="0.92316" style="stop-color:#E0C7B9"/>
    <stop  offset="1" style="stop-color:#DEC2B3"/>
  </linearGradient>
  <path fill="url(#SVGID_5_)" d="M68.79493,130.34444c1.36494,2.15416,2.77724,1.80336,4.49225,2.16408
    c3.18315,0.6711,6.6039-0.90877,8.91505-1.62376c1.65983-0.51199,4.64635,1.29701,5.9257-1.99222
    c1.48443-3.81825-3.36347-2.99363-3.55936-3.01057c-0.00145,0.00072-1.604,0.06503-2.30124-0.01557
    c-0.73055-0.08343-1.77439-0.24897-2.78926-0.51765C74.95121,126.51279,68.25817,129.4986,68.79493,130.34444z"/>
  <linearGradient id="SVGID_6_" gradientUnits="userSpaceOnUse" x1="2516.37817" y1="934.30133" x2="2527.40381" y2="934.30133" gradientTransform="matrix(0.2551 0.9669 -0.9669 0.2551 357.81339 -2538.7478)">
    <stop  offset="0" style="stop-color:#B3B5B9"/>
    <stop  offset="0.00814" style="stop-color:#B5B6BA"/>
    <stop  offset="0.09692" style="stop-color:#CAC3C0"/>
    <stop  offset="0.19627" style="stop-color:#D9CCC4"/>
    <stop  offset="0.31468" style="stop-color:#E1D1C6"/>
    <stop  offset="0.5" style="stop-color:#E4D3C7"/>
    <stop  offset="0.73142" style="stop-color:#E3D0C4"/>
    <stop  offset="0.92316" style="stop-color:#E0C7B9"/>
    <stop  offset="1" style="stop-color:#DEC2B3"/>
  </linearGradient>
  <path fill="url(#SVGID_6_)" d="M87.89597,143.17036c2.75457,1.80836,5.75812,1.38754,7.81538,1.05376
    c3.8189-0.61954,4.85144-4.41577,6.90523-6.20218c1.4745-1.28152,5.76514-0.54886,5.17182-4.75391
    c-0.69029-4.88113-5.4024-1.88686-5.62306-1.82037c-0.0021,0.00145-1.68459,0.75887-2.48018,0.96889
    c-0.83592,0.21928-5.13366,1.04666-6.38468,1.18527C93.30048,138.99785,86.81252,142.46037,87.89597,143.17036z"/>
  <linearGradient id="SVGID_7_" gradientUnits="userSpaceOnUse" x1="-24.50774" y1="-402.23416" x2="-2.9005" y2="-400.16867" gradientTransform="matrix(0.945 -0.3271 0.3271 0.945 238.2592 411.17239)">
    <stop  offset="0" style="stop-color:#D0D2D3"/>
    <stop  offset="0.5" style="stop-color:#ABADAF"/>
    <stop  offset="1" style="stop-color:#A6A8AB"/>
  </linearGradient>
  <path fill="url(#SVGID_7_)" d="M88.28283,49.36896c6.08414-2.76377,12.507-4.98723,17.97233-8.67745
    c-4.06078-2.63935-6.53111-7.17817-7.54526-11.8104c-0.40945-1.54316-0.80479-3.09197-1.22626-4.63223
    c-4.93914,2.60959-12.19654,2.42427-13.89388,6.60817c-1.05021,2.16263-0.88329,4.91365-0.16621,7.78496
    c1.47951,2.69867,1.64998,5.78636,3.39178,8.34084C87.65409,48.46228,88.28283,49.36896,88.28283,49.36896z"/>
  <path fill="#4AD2FF" d="M95.56847,84.52005c0.60825-0.36774,0.97388-0.58977,0.97388-0.58977
    c-4.39673-3.72418-8.38893-10.09192-13.26724-9.4243c-4.87839,0.66763-7.78431,10.73543-8.72416,15.27149
    c-0.99437,3.25954-3.71426,7.12516-3.215,11.15697c0.05591,0.44979,0.21429,0.8394,0.44769,1.17817
    c-0.17822,2.70012,0.61099,5.15698,1.71711,6.69376c0.99786,1.38609,3.29344,8.42992,3.71072,10.0728
    c0.74395,2.92078,1.72276,4.02117,1.04594,7.07773c-0.21566,0.96961-0.9045,2.55724,0.54741,2.82953
    c4.83804,0.9045,5.28566-1.15203,12.2397-3.62229c0,0-0.40099-0.28924-1.07005-0.76807
    c-3.71636-4.81821-4.54736-8.92989-5.9257-14.14205c-0.94057-3.55726-2.80128-5.37264-3.24608-7.79344
    c1.60392-2.45403,2.37691-5.51552,3.47101-7.85289C86.34014,89.80434,90.548,87.03492,95.56847,84.52005z"/>
  <path fill="#4AD2FF" d="M107.09319,128.89462c-4.13009-4.26586-4.07071-8.94191-4.08411-14.24532
    c-0.00919-3.42358-0.46253-9.69652-1.40947-16.79691c-0.21291-1.5969-1.89323-5.98725-2.1811-7.95399
    c1.7652-2.85784,2.11599-5.59612,2.32391-8.20716c0.16483-2.08913-0.85149-4.45829-3.01694-5.67462
    c-4.97803-2.79071-5.54029,1.81328-5.65977,2.01554c0,0.00137-0.42148,1.0332-0.82108,1.83095
    c-4.26942-0.21428-8.32738-0.21711-10.80756,1.72276c-2.07638,1.61384,3.13152,2.71358,3.74251,6.2284
    c0.36919,2.12302,1.09127,4.23691,1.99432,5.91085c1.37132,4.92503,2.64218,9.58623,4.86846,12.16685
    c-0.70789,2.57425-0.3366,5.06783,0.55516,6.7425c0.81963,1.53889,1.8253,9.28989,1.94769,10.97731
    c0.21711,3.00426,0.52967,6.37194-0.86069,9.26019c-0.44132,0.91661-1.53889,2.35788,0.01977,2.87979
    c5.18812,1.73616,14.15408-3.29771,14.73545-4.338C108.89234,130.60327,107.72119,129.44978,107.09319,128.89462z"/>
  <linearGradient id="SVGID_8_" gradientUnits="userSpaceOnUse" x1="-1390.04675" y1="-2133.85815" x2="-1380.43115" y2="-2136.78979" gradientTransform="matrix(0.5292 0.8485 0.8485 -0.5292 2627.53589 107.9783)">
    <stop  offset="0" style="stop-color:#DEC2B3"/>
    <stop  offset="0.07684" style="stop-color:#E0C7B9"/>
    <stop  offset="0.26858" style="stop-color:#E3D0C4"/>
    <stop  offset="0.5" style="stop-color:#E4D3C7"/>
    <stop  offset="0.68532" style="stop-color:#E1D1C6"/>
    <stop  offset="0.80373" style="stop-color:#D9CCC4"/>
    <stop  offset="0.90308" style="stop-color:#CAC3C0"/>
    <stop  offset="0.99186" style="stop-color:#B5B6BA"/>
    <stop  offset="1" style="stop-color:#B3B5B9"/>
  </linearGradient>
  <path fill="url(#SVGID_8_)" d="M90.94196,63.47922c-2.93707,2.59258-9.81535,4.87122-14.14495,5.87971
    c0,0-2.09405-0.826-2.38821-2.47526c-0.21074-1.1768,0.05235-1.52332,0.23623-1.59118
    c0.00137-0.00144,1.78141-0.09617,2.42427-0.33522c4.73405-1.76099,6.0827-5.76522,9.71071-8.65203
    C92.1916,55.97995,91.75521,62.73382,90.94196,63.47922z"/>
  <linearGradient id="SVGID_9_" gradientUnits="userSpaceOnUse" x1="-1614.51965" y1="-1957.49939" x2="-1603.45154" y2="-1957.49939" gradientTransform="matrix(0.9739 -0.227 0.227 0.9739 2096.7583 1594.44934)">
    <stop  offset="0" style="stop-color:#E8BED1"/>
    <stop  offset="0.5" style="stop-color:#DF9DBB"/>
    <stop  offset="1" style="stop-color:#D98CAF"/>
  </linearGradient>
  <path fill="url(#SVGID_9_)" d="M90.94543,63.48487c2.59974-6.11456-1.10815-15.82737-4.15058-18.93766
    c-1.41868-1.45119-4.10677-2.36069-6.15628-1.83877c-4.70783,1.19802-1.86209,4.77367-1.78076,4.97593
    c0,0.00145,0.08488,0.6648,0.34442,1.39036c2.30058,6.45826,4.31403,5.81895,4.95753,9.63931
    C87.76373,62.76771,90.51404,64.49902,90.94543,63.48487z"/>
  <linearGradient id="SVGID_10_" gradientUnits="userSpaceOnUse" x1="-2059.79785" y1="-1381.33936" x2="-2052.3479" y2="-1374.93616" gradientTransform="matrix(0.9405 0.3399 -0.3399 0.9405 1536.24084 2062.02661)">
    <stop  offset="0" style="stop-color:#DEC2B3"/>
    <stop  offset="0.07684" style="stop-color:#E0C7B9"/>
    <stop  offset="0.26858" style="stop-color:#E3D0C4"/>
    <stop  offset="0.5" style="stop-color:#E4D3C7"/>
    <stop  offset="0.68532" style="stop-color:#E1D1C6"/>
    <stop  offset="0.80373" style="stop-color:#D9CCC4"/>
    <stop  offset="0.90308" style="stop-color:#CAC3C0"/>
    <stop  offset="0.99186" style="stop-color:#B5B6BA"/>
    <stop  offset="1" style="stop-color:#B3B5B9"/>
  </linearGradient>
  <path fill="url(#SVGID_10_)" d="M66.74477,63.79605c0.26375-0.22631,0.34789-0.28011,0.84295-0.20371
    c0.51134,0.0806,1.06013,0.22493,1.5764,0.24897c0.08559,0.73403,0.15345,0.91088-0.48021,0.71991
    c-0.40235-0.12022-0.61526-0.31255-0.72346-0.76799c-0.11174-0.47101,0.43914-0.67754,0.79631-0.77234
    c0.81615-0.21776,1.55236-0.99995,2.17609-0.43704c0.70579,0.64075-0.14078,2.36916,0.71571,2.49648
    c0.62656,0.09335,1.2411,0.18669,1.87831,0.20226c0.36709,0.00848,0.68247,0,1.12096,0.01412
    c0.28358,0.00992,0.55444,0.14006,0.78638,0.28859c0.35152,0.22348,0.56364,0.56573,0.71709,0.91225
    c0.27939,0.63931,0.39888,1.26877,0.53256,2.12026c0.03962,0.24608,0.07496,0.49361,0.11312,0.74113
    c-1.55228,0.21638-3.06786,0.55443-4.59045,0.925c-0.93073,0.22775-1.90598-0.19234-2.85647-0.31821
    c-0.43842-0.05938-0.88401-0.07076-1.3246-0.10609c-0.35145-0.02686-0.77437-0.03396-1.0799-0.22913
    c-0.09972-0.06221-0.27439-0.30553-0.31466-0.4427c-0.20161-0.67045,0.6824-0.5955,0.43067-0.61671
    c-0.63229-0.05373-0.65633-0.49505-0.70224-0.7454c-0.12238-0.66335,0.48368-0.79349,0.7659-0.81188
    c-0.418-0.04946-0.79566-0.15838-0.94129-0.59832c-0.12167-0.36209-0.0835-0.85425,0.28497-1.05651
    c0.21356-0.11739,0.4781-0.12876,0.71716-0.14716c-0.14079-0.13151-0.4314-0.03252-0.55378-0.18387
    C66.03616,64.29247,66.62875,63.89642,66.74477,63.79605z"/>
  <linearGradient id="SVGID_11_" gradientUnits="userSpaceOnUse" x1="1601.12537" y1="-2882.56104" x2="1601.06519" y2="-2881.25537" gradientTransform="matrix(0.0216 -0.9998 0.9998 0.0216 2915.48145 1726.45642)">
    <stop  offset="0" style="stop-color:#231F20;stop-opacity:0.3"/>
    <stop  offset="1" style="stop-color:#231F20;stop-opacity:0"/>
  </linearGradient>
  <path fill="url(#SVGID_11_)" d="M68.75677,63.02233c0.36636-0.09617,0.72063-0.30973,1.05093-0.46391
    c-0.53111,0.27294-0.58984,1.85289-0.58984,1.85289c-0.39533-0.01839-1.14921-0.31263-1.26804-0.75533
    C67.93714,63.25994,68.43074,63.10858,68.75677,63.02233z"/>
  <linearGradient id="SVGID_12_" gradientUnits="userSpaceOnUse" x1="-227.49512" y1="-254.80194" x2="-207.12073" y2="-257.00293" gradientTransform="matrix(-0.6504 0.7596 0.7596 0.6504 141.63319 383.36111)">
    <stop  offset="0" style="stop-color:#B3B5B9"/>
    <stop  offset="0.00814" style="stop-color:#B5B6BA"/>
    <stop  offset="0.09692" style="stop-color:#CAC3C0"/>
    <stop  offset="0.19627" style="stop-color:#D9CCC4"/>
    <stop  offset="0.31468" style="stop-color:#E1D1C6"/>
    <stop  offset="0.5" style="stop-color:#E4D3C7"/>
    <stop  offset="0.73142" style="stop-color:#E3D0C4"/>
    <stop  offset="0.92316" style="stop-color:#E0C7B9"/>
    <stop  offset="1" style="stop-color:#DEC2B3"/>
  </linearGradient>
  <path fill="url(#SVGID_12_)" d="M97.2729,60.3052c2.02047-2.50915,3.06221-5.45824,3.31821-10.68307
    c0.2673-5.43984-3.92572-9.18807-7.28217-9.20929c-3.35499-0.02404-6.66262-0.53604-12.67037,2.29559
    c1.26095,4.33517,3.26802,18.22623,5.27227,18.816C87.58624,62.01666,96.7927,60.9007,97.2729,60.3052z"/>
  <linearGradient id="SVGID_13_" gradientUnits="userSpaceOnUse" x1="91.47824" y1="35.14497" x2="84.09708" y2="42.09138">
    <stop  offset="0" style="stop-color:#B3B5B9"/>
    <stop  offset="0.00814" style="stop-color:#B5B6BA"/>
    <stop  offset="0.09692" style="stop-color:#CAC3C0"/>
    <stop  offset="0.19627" style="stop-color:#D9CCC4"/>
    <stop  offset="0.31468" style="stop-color:#E1D1C6"/>
    <stop  offset="0.5" style="stop-color:#E4D3C7"/>
    <stop  offset="0.73142" style="stop-color:#E3D0C4"/>
    <stop  offset="0.92316" style="stop-color:#E0C7B9"/>
    <stop  offset="1" style="stop-color:#DEC2B3"/>
  </linearGradient>
  <path fill="url(#SVGID_13_)" d="M87.49007,42.2304c1.27152-0.48376,2.3168-2.10187,5.06645-1.90098
    c0,0-0.9696-3.49223-0.03041-5.64073c0.93774-2.14706-7.64918,0.46956-7.64918,0.46956s0.84012,4.52614,0.05583,6.35079
    c-0.19799,0.45964,0.54241,0.76235,1.0014,0.85287C86.54378,42.48212,87.03318,42.40435,87.49007,42.2304z"/>
    <linearGradient id="SVGID_14_" gradientUnits="userSpaceOnUse" x1="-240.67935" y1="-273.55988" x2="-221.64441" y2="-275.61618" gradientTransform="matrix(-0.6504 0.7596 0.7596 0.6504 141.63319 383.36111)">
    <stop  offset="0" style="stop-color:#B3B5B9"/>
    <stop  offset="0.00814" style="stop-color:#B5B6BA"/>
    <stop  offset="0.09692" style="stop-color:#CAC3C0"/>
    <stop  offset="0.19627" style="stop-color:#D9CCC4"/>
    <stop  offset="0.31468" style="stop-color:#E1D1C6"/>
    <stop  offset="0.5" style="stop-color:#E4D3C7"/>
    <stop  offset="0.73142" style="stop-color:#E3D0C4"/>
    <stop  offset="0.92316" style="stop-color:#E0C7B9"/>
    <stop  offset="1" style="stop-color:#DEC2B3"/>
  </linearGradient>
  <path fill="url(#SVGID_14_)" d="M89.66327,37.24737c3.53958-2.5106,4.72703-4.51484,5.17609-9.74113
    c0.46674-5.43984-4.07708-9.63923-9.95259-9.66045c-5.87196-0.02404-11.01054,4.42852-10.35422,9.85424
    c0.65698,5.42717,5.40871,10.76092,8.95966,10.98578C86.45963,38.87396,88.82314,37.84142,89.66327,37.24737z"/>
  <path fill="#808284" d="M84.12515,30.1611c0.35361,0.18394,0.68247-0.0042,0.73476-0.41865
    c0.05309-0.41582-0.19162-0.9024-0.54451-1.08627c-0.3529-0.18387-0.6832,0.00427-0.73411,0.4201
    C83.52828,29.4921,83.77225,29.97868,84.12515,30.1611z"/>
  <path fill="#808284" d="M77.80695,32.37608c0.28358,0.22348,0.56927,0.07923,0.63786-0.32103
    c0.06866-0.4017-0.10609-0.9095-0.38895-1.13436c-0.28432-0.22493-0.57001-0.08067-0.63859,0.32103
    C77.34869,31.64343,77.52336,32.15123,77.80695,32.37608z"/>
  <linearGradient id="SVGID_15_" gradientUnits="userSpaceOnUse" x1="-1181.58606" y1="204.27461" x2="-1156.60876" y2="204.27461" gradientTransform="matrix(0.9955 0.0952 -0.0952 0.9955 1268.4104 -69.1768)">
    <stop  offset="0" style="stop-color:#D0D2D3"/>
    <stop  offset="0.5" style="stop-color:#ABADAF"/>
    <stop  offset="1" style="stop-color:#A6A8AB"/>
  </linearGradient>
  <path fill="url(#SVGID_15_)" d="M95.5374,29.64345c0.45327-1.74253,1.92003-3.27859,1.96956-5.11309
    c0.04527-1.662-0.86351-3.42155-1.84934-4.70436c-1.12799-1.46676-2.35222-3.14005-3.85996-4.23335
    c-3.11174-2.25322-8.65058-2.70721-12.22414-1.46676c-1.11879,0.38751-2.12373,0.95896-3.14425,1.54591
    c-0.77082,0.44277-2.79629,2.98443-3.50773,4.78924c-0.32465,0.82463-0.79776,7.38326-0.18532,8.30406
    c0.23413,0.35362,0.04388-0.03534,1.15276-0.49505c0,0,4.22698-6.17677,14.53319-3.35217
    c2.92852,0.80341,1.99715,5.68317,4.0657,4.06643c1.44344-1.12726,1.73412,2.0057,1.36139,4.13298
    c0.70724,0.03534,1.06651-1.73413,1.07497-1.71711C95.17104,30.77926,95.40444,30.2488,95.5374,29.64345z"/>
  <polygon fill="#808284" points="81.78358,34.92347 80.94056,34.34072 83.10891,34.40155"/>
  <path fill="#808284" d="M81.13508,33.00554c-0.03606-0.72701,0.08342-1.49927,0.05728-1.49645
    c-0.04881,0.00565-0.0835,0.04244-0.0856,0.08343l-0.00282,0.00145l-0.16338,2.74675l0.4201,0.01137
    C81.35993,34.35209,81.16897,33.70141,81.13508,33.00554z"/>
  <path fill="#F399C0" d="M76.26451,80.46919c6.8352-14.73682,7.59472-22.25732,4.37406-37.76076
    c0.69595,3.35079,2.45194,8.29703,3.70579,8.43984c2.97733,0.42719,4.05231-7.80336,8.56288-10.74108
    c2.6584,0.15273,3.6669,0.55444,5.61031,2.15271c1.46531,1.20511,1.73623,1.97883,2.04386,2.98725
    c0.30763,1.0085,0.35927,2.5064,0.32248,2.99153c0.0764,15.51619,2.49995,23.89237,1.35639,32.2233
    c-3.60252,4.68169-18.06068,4.77794-26.71908,4.74115C75.52121,85.50313,74.60324,83.62193,76.26451,80.46919z"/>
  <linearGradient id="SVGID_16_" gradientUnits="userSpaceOnUse" x1="90.74461" y1="51.29941" x2="98.9341" y2="51.29941">
    <stop  offset="0" style="stop-color:#919498"/>
    <stop  offset="0.5" style="stop-color:#62696A"/>
    <stop  offset="1" style="stop-color:#505558"/>
  </linearGradient>
  <path fill="url(#SVGID_16_)" d="M98.9341,55.17516c-0.66479,0.15273-7.21923-0.32393-8.18949-4.78504l7.36559-2.99008
    L98.9341,55.17516z"/>
  <linearGradient id="SVGID_17_" gradientUnits="userSpaceOnUse" x1="1550.1377" y1="-1766.13025" x2="1561.38611" y2="-1773.86255" gradientTransform="matrix(-0.2503 0.9682 0.9682 0.2503 2187.70068 -1005.35107)">
    <stop  offset="0" style="stop-color:#DEC2B3"/>
    <stop  offset="0.07684" style="stop-color:#E0C7B9"/>
    <stop  offset="0.26858" style="stop-color:#E3D0C4"/>
    <stop  offset="0.5" style="stop-color:#E4D3C7"/>
    <stop  offset="0.68532" style="stop-color:#E1D1C6"/>
    <stop  offset="0.80373" style="stop-color:#D9CCC4"/>
    <stop  offset="0.90308" style="stop-color:#CAC3C0"/>
    <stop  offset="0.99186" style="stop-color:#B5B6BA"/>
    <stop  offset="1" style="stop-color:#B3B5B9"/>
  </linearGradient>
  <path fill="url(#SVGID_17_)" d="M89.79485,64.19348c-3.90313-0.3437-10.59399-3.43849-14.00772-6.20226
    c-1.57777-1.27717-1.58132-1.67605-0.28924-3.35072c0.9229-1.19664,1.44061-1.28999,1.64353-1.20367
    c0.00145,0.00138,1.94907,0.88119,2.65558,1.18382c5.20296,2.23056,7.7376,0.97316,12.3295,1.61246
    C96.09039,59.93181,90.89452,64.26706,89.79485,64.19348z"/>
  <linearGradient id="SVGID_18_" gradientUnits="userSpaceOnUse" x1="-318.20898" y1="708.15082" x2="-307.68616" y2="708.15082" gradientTransform="matrix(0.8355 0.5494 -0.5494 0.8355 744.10919 -366.38751)">
    <stop  offset="0" style="stop-color:#B3B5B9"/>
    <stop  offset="0.00814" style="stop-color:#B5B6BA"/>
    <stop  offset="0.09692" style="stop-color:#CAC3C0"/>
    <stop  offset="0.19627" style="stop-color:#D9CCC4"/>
    <stop  offset="0.31468" style="stop-color:#E1D1C6"/>
    <stop  offset="0.5" style="stop-color:#E4D3C7"/>
    <stop  offset="0.73142" style="stop-color:#E3D0C4"/>
    <stop  offset="0.92316" style="stop-color:#E0C7B9"/>
    <stop  offset="1" style="stop-color:#DEC2B3"/>
  </linearGradient>
  <path fill="url(#SVGID_18_)" d="M89.79485,64.19348c6.22131-2.32955,10.70573-11.70858,10.86411-16.0565
    c0.0743-2.02829-0.8168-4.30266-2.60677-5.42855c-4.11097-2.58555-4.4349,1.88968-4.52615,2.08912
    c0,0.00138-0.15983,0.4201-0.50707,1.10749c-3.09617,6.11732-2.11664,6.98438-4.44199,10.08337
    C88.1209,61.39147,88.76159,64.57961,89.79485,64.19348z"/>
  <linearGradient id="SVGID_19_" gradientUnits="userSpaceOnUse" x1="478.35318" y1="149.19098" x2="485.59695" y2="155.41705" gradientTransform="matrix(0.4016 0.9158 -0.9158 0.4016 18.7569 -450.4682)">
    <stop  offset="0" style="stop-color:#DEC2B3"/>
    <stop  offset="0.07684" style="stop-color:#E0C7B9"/>
    <stop  offset="0.26858" style="stop-color:#E3D0C4"/>
    <stop  offset="0.5" style="stop-color:#E4D3C7"/>
    <stop  offset="0.68532" style="stop-color:#E1D1C6"/>
    <stop  offset="0.80373" style="stop-color:#D9CCC4"/>
    <stop  offset="0.90308" style="stop-color:#CAC3C0"/>
    <stop  offset="0.99186" style="stop-color:#B5B6BA"/>
    <stop  offset="1" style="stop-color:#B3B5B9"/>
  </linearGradient>
  <path fill="url(#SVGID_19_)" d="M70.02054,47.03941c0.33805-0.08343,0.43849-0.09197,0.84374,0.19944
    c0.41938,0.30264,0.8444,0.67892,1.29346,0.93492c-0.25527,0.69304-0.27584,0.88256-0.7546,0.42575
    c-0.30408-0.28996-0.40662-0.55726-0.29561-1.01277c0.11246-0.46956,0.69732-0.4059,1.05869-0.3295
    c0.826,0.17677,1.83659-0.18814,2.13793,0.59687c0.33942,0.89111,0.61591,1.27862,1.14775,2.0721
    c0.38896,0.58138,0.27302,1.78222,0.6047,2.39886c0.41373,0.76944,0.7404,0.93209,1.08482,1.11176
    c0.27794,0.14708,0.29069,0.56436,0.33102,0.87836c0.05938,0.47666-0.09407,0.94484-0.29851,1.36914
    c-0.37411,0.78074-0.40163,1.02544-0.92572,1.70864c-0.15273,0.19799-0.30692,0.39598-0.46109,0.5926
    c-1.22488-0.97591-2.51552-1.84152-3.83165-2.68737c-0.80624-0.52054-1.61384-1.03681-2.40313-1.5785
    c-0.36491-0.2518-0.75597-0.46391-1.13364-0.69449c-0.30053-0.18242-0.67537-0.38049-0.86069-0.69304
    c-0.05866-0.10182-0.10464-0.39605-0.07915-0.53611c0.12376-0.69022,0.87829-0.22203,0.66335-0.35637
    c-0.53959-0.33385-0.36144-0.73838-0.28859-0.98163c0.19025-0.64778,0.78929-0.4894,1.05021-0.37766
    c-0.35072-0.23195-0.63786-0.50215-0.57-0.95896c0.05656-0.37766,0.314-0.79913,0.73338-0.81333
    c0.24543-0.00847,0.48513,0.10189,0.70579,0.19379c-0.06503-0.18105-0.36911-0.22486-0.41017-0.41582
    C69.16485,47.15962,69.87273,47.07619,70.02054,47.03941z"/>
  <linearGradient id="SVGID_20_" gradientUnits="userSpaceOnUse" x1="-740.11249" y1="-1928.02783" x2="-740.17261" y2="-1926.72266" gradientTransform="matrix(0.4718 -0.8817 0.8817 0.4718 2120.67041 304.12451)">
    <stop  offset="0" style="stop-color:#231F20;stop-opacity:0.3"/>
    <stop  offset="1" style="stop-color:#231F20;stop-opacity:0"/>
  </linearGradient>
  <path fill="url(#SVGID_20_)" d="M72.16622,47.26006c0.36919,0.07923,0.78074,0.04946,1.14638,0.06221
    c-0.5976,0.00283-1.15485,0.85149-1.15485,0.85149c-0.3437-0.19517-0.67472-0.46253-0.99785-0.71288
    C71.32674,47.10161,71.83599,47.18931,72.16622,47.26006z"/>
  <path fill="#FFF5F1" d="M69.25037,63.59943l-0.16758,0.13151c-0.23268,0.04671-0.70651-0.03397-0.83028-0.26875
    c-0.12449-0.23616,0.77654-0.3366,0.77654-0.3366C69.14153,63.16659,69.38268,63.41694,69.25037,63.59943z"/>
  <path fill="#FFF5F1" d="M68.47601,65.08596l0.28851,0.11884c0.1478,0.04381,0.30981-0.06511,0.36071-0.2405
    c0.05164-0.17677-0.02614-0.355-0.17394-0.39743l-0.34087-0.03252C68.54458,64.56267,68.37628,64.9417,68.47601,65.08596z"/>
  <path fill="#FFF5F1" d="M68.8381,66.64042l0.29488,0.09762c0.14998,0.0339,0.30553-0.08487,0.34442-0.26309
    c0.04034-0.17967-0.04946-0.35217-0.19944-0.38613l-0.3437-0.00848C68.87133,66.11285,68.72845,66.50319,68.8381,66.64042z"/>
  <path fill="#FFF5F1" d="M68.41872,67.96712l0.30763,0.05946c0.15273,0.01267,0.28852-0.12449,0.30481-0.30698
    c0.01694-0.18242-0.09407-0.3437-0.2468-0.35645l-0.34232,0.03679C68.38476,67.43955,68.29358,67.84554,68.41872,67.96712z"/>
  <path fill="#FFF5F1" d="M68.22638,69.11423l0.19727,0.01694c0.09834-0.00137,0.17822-0.09052,0.17895-0.19799
    c0-0.10747-0.07851-0.19379-0.1754-0.19234l-0.21566,0.04244C68.17757,68.80869,68.1394,69.05058,68.22638,69.11423z"/>
  <linearGradient id="SVGID_21_" gradientUnits="userSpaceOnUse" x1="90.74461" y1="48.29062" x2="101.03769" y2="48.29062">
    <stop  offset="0" style="stop-color:#E8BED1"/>
    <stop  offset="0.5" style="stop-color:#DF9DBB"/>
    <stop  offset="1" style="stop-color:#D98CAF"/>
  </linearGradient>
  <path fill="url(#SVGID_21_)" d="M98.22122,42.27139c-4.43345-2.78926-4.78142,2.03821-4.87976,2.25315
    c0,0-0.17323,0.45261-0.54806,1.19237c-1.01487,2.00707-1.62304,3.48795-2.04879,4.67322
    c0.20226-0.01412,0.40453-0.03107,0.61034-0.03107c3.35355,0,6.91652,0.19234,7.57915,4.8161
    c1.28007-2.65775,2.03394-5.25177,2.09898-7.04948C101.11303,45.93756,100.15262,43.48497,98.22122,42.27139z"/>
  <linearGradient id="SVGID_22_" gradientUnits="userSpaceOnUse" x1="72.92154" y1="39.41354" x2="76.24822" y2="39.41354">
    <stop  offset="0" style="stop-color:#E6EBF1"/>
    <stop  offset="0.5" style="stop-color:#D9DBDC"/>
    <stop  offset="1" style="stop-color:#D5DBDF"/>
  </linearGradient>
  <path fill="url(#SVGID_22_)" d="M76.24822,37.24737c0-0.61526-0.49925-1.11459-1.11452-1.11459
    c-0.59405,0-1.11887,0.46963-1.14783,1.05658l-1.06433,5.04386l2.18812,0.46109l1.09547-5.19941
    C76.20513,37.4949,76.24822,37.32942,76.24822,37.24737z"/>

</svg>
