<?xml version="1.0" encoding="utf-8"?>
<!DOCTYPE svg PUBLIC "-//W3C//DTD SVG 1.1//EN" "http://www.w3.org/Graphics/SVG/1.1/DTD/svg11.dtd">
<svg version="1.1" xmlns="http://www.w3.org/2000/svg" xmlns:xlink="http://www.w3.org/1999/xlink" x="0px" y="0px" width="160px"
  height="160px" viewBox="0 0 160 160" enable-background="new 0 0 160 160" xml:space="preserve">
  <linearGradient id="SVGID_1_" gradientUnits="userSpaceOnUse" x1="24.09103" y1="54.79726" x2="79.74768" y2="54.79726">
    <stop  offset="0" style="stop-color:#ACC8E1"/>
    <stop  offset="0.5" style="stop-color:#85B1D4"/>
    <stop  offset="1" style="stop-color:#6EA4CC"/>
  </linearGradient>
  <path fill="url(#SVGID_1_)" d="M58.32648,80.43993c3.6137,4.25845,10.70017,5.56587,14.60345,4.69984
    c-1.58996-2.22926-0.36227-3.32034,1.17238-4.62288c1.53465-1.30254,2.8122-2.33665,4.75465-0.40342
    c1.48906-3.71188,1.34918-10.91541-2.26452-15.1739L63.30674,49.28251c-0.61387-0.72337-1.45546-1.19298-2.4511-1.42509
    c-0.49781-1.49994-1.19298-2.86917-1.97821-3.79372c-0.61387-0.72337-1.45436-1.19304-2.44999-1.42509
    c-0.49887-1.49995-1.19409-2.86917-1.97821-3.79378c-0.61276-0.72226-1.45435-1.19242-2.44999-1.42398
    c-0.49887-1.501-1.19298-2.86973-1.97821-3.79373c-0.61387-0.72343-1.45436-1.19359-2.44999-1.42509
    c-0.49893-1.5005-1.19409-2.86973-1.97821-3.79378c-0.38287-0.45173-0.86219-0.7939-1.40776-1.04983
    c-0.16481-0.58133-0.42513-1.11057-0.80906-1.56286c-2.44567-2.88161-8.51585-1.74827-13.56008,2.53244
    c-5.04423,4.28016-7.15148,10.0863-4.70584,12.96791c0.38392,0.45228,0.86436,0.79389,1.40987,1.0531
    c0.16487,0.57806,0.42409,1.10786,0.80695,1.55958c0.78518,0.92622,2.02265,1.83178,3.42174,2.56821
    c0.06725,1.01945,0.39259,1.92723,1.00646,2.65061c0.78518,0.92511,2.02263,1.83128,3.42174,2.56821
    c0.06725,1.01951,0.39259,1.92724,1.00646,2.64956c0.78518,0.92622,2.02269,1.83234,3.42174,2.56876
    c0.06725,1.01945,0.39259,1.92668,1.00646,2.65005c0.7863,0.92622,2.02271,1.83239,3.42175,2.56876
    c0.06725,1.01951,0.39259,1.92674,1.00751,2.65011L58.32648,80.43993z"/>
  <linearGradient id="SVGID_2_" gradientUnits="userSpaceOnUse" x1="68.47098" y1="57.24709" x2="55.06079" y2="75.70463">
    <stop  offset="0" style="stop-color:#E6EBF1"/>
    <stop  offset="0.5" style="stop-color:#D9DBDC"/>
    <stop  offset="1" style="stop-color:#D5DBDF"/>
  </linearGradient>
  <path fill="url(#SVGID_2_)" d="M65.24592,70.08031c3.22761-2.73957,6.87385-4.18198,9.72292-4.11585l-8.68392-10.23323
    c-1.51188-1.78247-6.35327-1.09103-10.88125,2.75095c-4.52693,3.84204-5.99755,8.50662-4.48573,10.2891l8.68398,10.23267
    C60.00106,76.18198,62.0172,72.81988,65.24592,70.08031z"/>
  <linearGradient id="SVGID_3_" gradientUnits="userSpaceOnUse" x1="74.05557" y1="86.47997" x2="78.579" y2="79.7737">
    <stop  offset="0" style="stop-color:#ACC8E1"/>
    <stop  offset="0.5" style="stop-color:#85B1D4"/>
    <stop  offset="1" style="stop-color:#6EA4CC"/>
  </linearGradient>
  <path fill="url(#SVGID_3_)" d="M73.31924,85.67068c-2.21355-2.60835-0.87302-3.7493,0.78307-5.15379
    c1.65392-1.4045,2.99983-2.54322,5.21232,0.06508c2.21571,2.61052,0.87197,3.75146-0.78307,5.1554
    C76.87659,87.14242,75.5339,88.2812,73.31924,85.67068z"/>
  <linearGradient id="SVGID_4_" gradientUnits="userSpaceOnUse" x1="96.07477" y1="71.29866" x2="91.70837" y2="80.66245">
    <stop  offset="0" style="stop-color:#D0D2D3"/>
    <stop  offset="0.5" style="stop-color:#AAACAF"/>
    <stop  offset="1" style="stop-color:#A6A8AB"/>
  </linearGradient>
  <path fill="url(#SVGID_4_)" d="M93.17189,81.34444c1.69946,0.83237,4.08547-0.56018,5.3316-3.10722
    c1.24618-2.54655,0.88068-5.28445-0.81989-6.11633l-3.07252-1.50372l0,0l-0.00217-0.00161
    c-1.6984-0.83022-4.08441,0.56234-5.32948,3.10883c-1.24723,2.54816-0.88063,5.285,0.81667,6.11577l0.00217,0.00056l0,0
    L93.17189,81.34444z"/>
  <path fill="#E2E3E4" d="M94.92993,76.51549c-0.88063,1.80141-0.53685,3.33661-0.05531,3.57249
    c0.4826,0.23589,1.90769-0.43385,2.78838-2.2347c0.88174-1.80196,0.53469-3.33662,0.05314-3.5725
    C97.23349,74.0449,95.81168,74.71407,94.92993,76.51549z"/>
  <linearGradient id="SVGID_5_" gradientUnits="userSpaceOnUse" x1="76.87165" y1="83.85488" x2="73.94273" y2="80.77962">
    <stop  offset="0" style="stop-color:#ACC8E1"/>
    <stop  offset="0.5" style="stop-color:#85B1D4"/>
    <stop  offset="1" style="stop-color:#6EA4CC"/>
  </linearGradient>
  <path fill="url(#SVGID_5_)" d="M76.16602,86.95801c-0.33691,0-0.49902-0.08545-0.53711-0.13086
    c-0.2002-0.23584-0.00488-1.62646,1.44922-2.85986c1.19727-1.01611,2.23193-1.09521,2.52051-1.09521
    c0.33594,0,0.49756,0.08594,0.53564,0.13135c0.20068,0.23633,0.00635,1.62744-1.44727,2.86084
    C77.4917,86.87939,76.45557,86.95801,76.16602,86.95801L76.16602,86.95801z"/>
  <path fill="#C5C7C9" d="M79.5986,83.15002c0.16245,0,0.26505,0.02344,0.31577,0.04169
    c0.05664,0.27612-0.13458,1.3811-1.40698,2.46124c-0.89267,0.75769-1.79471,1.02765-2.34125,1.02765
    c-0.16324,0-0.26642-0.02356-0.31757-0.04187c-0.05603-0.27661,0.13669-1.38037,1.40887-2.4599
    C78.15176,83.42029,79.05319,83.15002,79.5986,83.15002 M79.5986,82.59473c-0.68195,0-1.70016,0.31226-2.70035,1.16064
    c-1.52924,1.29767-1.82852,2.84204-1.48148,3.25146c0.12018,0.1416,0.38773,0.22906,0.74936,0.22906
    c0.68283,0,1.70157-0.31165,2.70059-1.15961c1.52921-1.29816,1.82635-2.84369,1.47928-3.25256
    C80.22595,82.68207,79.95929,82.59473,79.5986,82.59473L79.5986,82.59473z"/>
  <linearGradient id="SVGID_6_" gradientUnits="userSpaceOnUse" x1="75.84686" y1="107.1747" x2="133.90898" y2="107.1747">
    <stop  offset="0" style="stop-color:#ACC8E1"/>
    <stop  offset="0.5" style="stop-color:#85B1D4"/>
    <stop  offset="1" style="stop-color:#6EA4CC"/>
  </linearGradient>
  <path fill="url(#SVGID_6_)" d="M129.43802,95.74665c-1.02924-0.43378-2.03136-0.54712-3.00633-0.43978
    c-0.04559-2.63923-0.53469-5.27363-2.00859-7.32936c-2.90443-4.05404-8.41394-3.82304-11.19471,0.07319
    c-0.92728,1.29821-1.34485,3.17069-2.11376,4.59306c-0.61492,1.13934-1.33186,2.25208-2.34481,3.08068
    c-1.9229,1.57258-4.65487,2.00636-7.07014,1.80196c-1.35679-0.11494-2.81548-0.42352-4.08331-0.93272
    c-1.57368-0.6323-3.04108-1.48962-4.39999-2.50152c-1.63771-1.21902-3.11378-2.64139-4.53559-4.10335
    c-1.22013-1.25373-2.40118-2.59481-3.85447-3.58716c-0.80367-0.54824-1.6843-0.96798-2.5606-1.38278
    c-0.91756-0.4344-1.85894-0.8557-2.86324-1.039c-0.37415-0.06835-0.76896-0.10194-1.14095-0.00272
    c-0.67023,0.17897-1.1279,0.802-1.38605,1.41531c-0.28741,0.68273-1.23202,1.05255-0.98907,1.30421
    c0.96742,1.00262,2.11919,3.16631,2.54216,4.38155c0.45766,1.31825,0.70061,3.13704,0.92838,4.51549
    c0.47716,2.89466,0.55851,5.8338,0.70821,8.75772c0.10517,2.06983,0.11384,4.31758-0.08246,6.38148
    c-0.26138,2.73573-2.08338,7.15311-1.59318,8.85967c0.38393,1.33558,1.42615,2.17506,2.83502,1.92124
    c1.13551-0.20441,3.2536-1.10025,4.75787-3.95914c1.50427-2.85885,1.50427-2.85885,1.93051-4.35879
    c0.42185,1.18109,0.59866,2.34537,0.72554,3.89623c0.18874,2.30738,0.75703,4.07575,1.87954,5.58925
    c0.88496,1.19408,3.05514,1.50477,4.39566-0.02116c0.39909-0.45501,1.04444-1.30471,1.24506-1.89637
    c0.58455,0.90401,1.27866,1.73856,1.92396,2.45543c6.43356,7.15261,29.38039,12.46743,30.75667-1.61217
    c0.05641-0.58405-0.0412-1.27055-0.42407-1.73255c-0.32646-0.39481-0.82099-0.73426-1.32314-0.84759
    c-0.38393-0.08674-0.77001-0.02277-1.15177-0.09002c-0.19741-0.0347-0.36661-0.13721-0.52925-0.24888
    c-0.10956-0.07541-0.19629-0.14859-0.27331-0.25599c-0.05098-0.07101-0.09435-0.14803-0.16054-0.20551
    c0.18764,0.03742,0.45661,0.05209,0.57267,0.04337c2.71785-0.20824,4.94766-1.71034,6.29901-3.79645
    c0.41975-0.64802,0.71799-1.2971,0.90668-1.93918c0.6844-1.8074,0.92294-3.87885,1.0802-5.83157
    C134.15363,102.77671,133.56691,97.48737,129.43802,95.74665z"/>
  <linearGradient id="SVGID_7_" gradientUnits="userSpaceOnUse" x1="672.63824" y1="973.43762" x2="678.00983" y2="973.43762" gradientTransform="matrix(0.4372 0.8994 -0.8994 0.4372 656.0675 -905.95221)">
    <stop  offset="0" style="stop-color:#ACC8E1"/>
    <stop  offset="0.5" style="stop-color:#85B1D4"/>
    <stop  offset="1" style="stop-color:#6EA4CC"/>
  </linearGradient>
  <path fill="url(#SVGID_7_)" d="M78.30601,125.80754c-1.56503-3.22105-6.55934-0.79333-4.99326,2.42722
    C74.87777,131.45587,79.87209,129.02815,78.30601,125.80754z"/>
  <linearGradient id="SVGID_8_" gradientUnits="userSpaceOnUse" x1="1217.56665" y1="1062.1521" x2="1220.56812" y2="1062.1521" gradientTransform="matrix(-0.0852 0.9964 -0.9964 -0.0852 1255.2157 -991.88702)">
    <stop  offset="0" style="stop-color:#ACC8E1"/>
    <stop  offset="0.5" style="stop-color:#85B1D4"/>
    <stop  offset="1" style="stop-color:#6EA4CC"/>
  </linearGradient>
  <path fill="url(#SVGID_8_)" d="M94.56772,132.42874c0.17025-1.99393-2.9207-2.25858-3.0899-0.26465
    C91.30646,134.15802,94.39742,134.42212,94.56772,132.42874z"/>

  <linearGradient id="SVGID_9_" gradientUnits="userSpaceOnUse" x1="121.92942" y1="-131.63281" x2="133.45464" y2="-131.63281" gradientTransform="matrix(0.9729 -0.2311 0.2311 0.9729 23.5059 261.13599)">
    <stop  offset="0" style="stop-color:#8ECDE9"/>
    <stop  offset="0.5" style="stop-color:#67BDE0"/>
    <stop  offset="0.58351" style="stop-color:#54B8DD"/>
    <stop  offset="0.8655" style="stop-color:#18A9D2"/>
    <stop  offset="1" style="stop-color:#00A3CE"/>
  </linearGradient>
  <path fill="url(#SVGID_9_)" d="M115.94086,97.76823c-7.47473,1.77598-4.72322,13.36056,2.75256,11.58514
    C126.16814,107.57745,123.41664,95.99287,115.94086,97.76823z"/>
  <linearGradient id="SVGID_10_" gradientUnits="userSpaceOnUse" x1="121.92942" y1="-131.63281" x2="133.45464" y2="-131.63281" gradientTransform="matrix(0.9729 -0.2311 0.2311 0.9729 23.5059 261.13599)">
    <stop  offset="0" style="stop-color:#8ECDE9"/>
    <stop  offset="0.5" style="stop-color:#67BDE0"/>
    <stop  offset="0.58351" style="stop-color:#54B8DD"/>
    <stop  offset="0.8655" style="stop-color:#18A9D2"/>
    <stop  offset="1" style="stop-color:#00A3CE"/>
  </linearGradient>
  <path fill="url(#SVGID_10_)" d="M115.94086,97.76823c-7.47473,1.77598-4.72322,13.36056,2.75256,11.58514
    C126.16814,107.57745,123.41664,95.99287,115.94086,97.76823z"/>
  <linearGradient id="SVGID_11_" gradientUnits="userSpaceOnUse" x1="185.01352" y1="-345.05161" x2="190.42075" y2="-345.05161" gradientTransform="matrix(0.902 -0.4318 0.4318 0.902 101.4433 492.69351)">
    <stop  offset="0" style="stop-color:#8ECDE9"/>
    <stop  offset="0.5" style="stop-color:#67BDE0"/>
    <stop  offset="0.58351" style="stop-color:#54B8DD"/>
    <stop  offset="0.8655" style="stop-color:#18A9D2"/>
    <stop  offset="1" style="stop-color:#00A3CE"/>
  </linearGradient>
  <path fill="url(#SVGID_11_)" d="M120.56429,97.88107c-3.25149,1.55686-0.83837,6.59566,2.41311,5.0393
    C126.22884,101.3635,123.81572,96.32415,120.56429,97.88107z"/>
    <linearGradient id="SVGID_12_" gradientUnits="userSpaceOnUse" x1="148.46407" y1="-347.18188" x2="153.18347" y2="-347.18188" gradientTransform="matrix(0.897 -0.442 0.442 0.897 102.8754 474.19669)">
    <stop  offset="0" style="stop-color:#FFFFFF;stop-opacity:0"/>
    <stop  offset="0.08963" style="stop-color:#FFFFFF;stop-opacity:0.08963"/>
    <stop  offset="1" style="stop-color:#FFFFFF"/>
  </linearGradient>
  <circle fill="url(#SVGID_12_)" cx="84.70969" cy="96.10999" r="2.35967"/>
  <linearGradient id="SVGID_13_" gradientUnits="userSpaceOnUse" x1="123.25743" y1="105.96169" x2="126.05267" y2="103.16166" gradientTransform="matrix(0.9999 -0.0166 0.0166 0.9999 -0.5425 19.2411)">
    <stop  offset="0" style="stop-color:#FFFFFF;stop-opacity:0"/>
    <stop  offset="0.08963" style="stop-color:#FFFFFF;stop-opacity:0.08963"/>
    <stop  offset="1" style="stop-color:#FFFFFF"/>
  </linearGradient>
  <circle fill="url(#SVGID_13_)" cx="125.83569" cy="121.72314" r="1.97792"/>

</svg>
