<?xml version="1.0" encoding="utf-8"?>
<!DOCTYPE svg PUBLIC "-//W3C//DTD SVG 1.1//EN" "http://www.w3.org/Graphics/SVG/1.1/DTD/svg11.dtd">
<svg version="1.1" xmlns="http://www.w3.org/2000/svg" xmlns:xlink="http://www.w3.org/1999/xlink" x="0px" y="0px" width="160px"
  height="160px" viewBox="0 0 160 160" enable-background="new 0 0 160 160" xml:space="preserve">
  <linearGradient id="SVGID_1_" gradientUnits="userSpaceOnUse" x1="108.00078" y1="71.26662" x2="124.98643" y2="70.82259">
    <stop  offset="0" style="stop-color:#F1E2C5"/>
    <stop  offset="0.5" style="stop-color:#E7CF9B"/>
    <stop  offset="0.54321" style="stop-color:#E6CE98"/>
    <stop  offset="1" style="stop-color:#E1C281"/>
  </linearGradient>
  <rect x="109.31348" y="20.60866" fill="url(#SVGID_1_)" width="14.36034" height="100.87179"/>
  <rect x="113.94929" y="26.24314" fill="#AC8457" width="9.72447" height="1.27862"/>
  <rect x="113.94929" y="56.44902" fill="#AC8457" width="9.72447" height="1.27823"/>
  <rect x="117.32935" y="31.24632" fill="#AC8457" width="6.34448" height="0.8345"/>
  <rect x="117.32935" y="36.24706" fill="#AC8457" width="6.34448" height="0.83255"/>
  <rect x="117.32935" y="41.24827" fill="#AC8457" width="6.34448" height="0.83451"/>
  <rect x="117.32935" y="46.25145" fill="#AC8457" width="6.34448" height="0.83255"/>
  <rect x="117.32935" y="51.25071" fill="#AC8457" width="6.34448" height="0.83451"/>
  <rect x="113.94929" y="86.65453" fill="#AC8457" width="9.72447" height="1.27469"/>
  <rect x="117.32935" y="61.44786" fill="#AC8457" width="6.34448" height="0.8345"/>
  <rect x="117.32935" y="66.45103" fill="#AC8457" width="6.34448" height="0.83451"/>
  <rect x="117.32935" y="71.45213" fill="#AC8457" width="6.34448" height="0.83451"/>
  <rect x="117.32935" y="76.45335" fill="#AC8457" width="6.34448" height="0.83451"/>
  <rect x="117.32935" y="81.45617" fill="#AC8457" width="6.34448" height="0.83254"/>
  <polyline fill="#AC8457" points="123.67377,118.13306 123.67377,116.85641 113.9493,116.85641 113.9493,118.13306"/>
  <rect x="117.32935" y="91.65366" fill="#AC8457" width="6.34448" height="0.83451"/>
  <rect x="117.32935" y="96.65684" fill="#AC8457" width="6.34448" height="0.83451"/>
  <rect x="117.32935" y="101.65605" fill="#AC8457" width="6.34448" height="0.83413"/>
  <rect x="117.32935" y="106.65879" fill="#AC8457" width="6.34448" height="0.83451"/>
  <rect x="117.32935" y="111.66197" fill="#AC8457" width="6.34448" height="0.83059"/>
  <linearGradient id="SVGID_2_" gradientUnits="userSpaceOnUse" x1="34.81969" y1="116.85248" x2="125.16875" y2="116.85248">
    <stop  offset="0" style="stop-color:#F1E2C5"/>
    <stop  offset="0.5" style="stop-color:#E7CF9B"/>
    <stop  offset="0.54321" style="stop-color:#E6CE98"/>
    <stop  offset="1" style="stop-color:#E1C281"/>
  </linearGradient>
  <path fill="url(#SVGID_2_)" d="M79.99619,114.89654c-24.95028,0-45.1765-6.28176-45.1765-14.03304v17.94139
    c0,7.75127,20.22622,14.03657,45.1765,14.03657c24.94792,0,45.17257-6.28529,45.17257-14.03657V100.8635
    C125.16875,108.61478,104.94411,114.89654,79.99619,114.89654z"/>
  <ellipse fill="#AC8457" cx="79.99622" cy="100.86353" rx="45.17649" ry="14.03304"/>
  <linearGradient id="SVGID_3_" gradientUnits="userSpaceOnUse" x1="61.75414" y1="100.8635" x2="98.23588" y2="100.8635">
    <stop  offset="0" style="stop-color:#745937"/>
    <stop  offset="0.27041" style="stop-color:#836238"/>
    <stop  offset="0.5" style="stop-color:#8B6738"/>
    <stop  offset="0.71008" style="stop-color:#896538"/>
    <stop  offset="0.82082" style="stop-color:#815F37"/>
    <stop  offset="0.90838" style="stop-color:#735436"/>
    <stop  offset="0.98339" style="stop-color:#604534"/>
    <stop  offset="1" style="stop-color:#5B4134"/>
  </linearGradient>
  <ellipse fill="url(#SVGID_3_)" cx="79.99622" cy="100.86353" rx="18.24205" ry="5.66519"/>
  <path fill="#AC8457" d="M114.77547,114.04025c0.11377,5.41943,0.17065,8.13098,0.28442,13.55127
    c0.4292-0.15735,0.63977-0.23743,1.052-0.40088c-0.10437-5.42346-0.15649-8.13647-0.26086-13.55908
    C115.42928,113.7972,115.21407,113.87887,114.77547,114.04025z"/>
  <path fill="#AC8457" d="M125.13827,110.78951c0.00012,3.3761,0.00024,5.06433,0.00037,8.43982
    c0.01477-0.16846,0.01843-0.2533,0.01843-0.42444c0-3.35767,0-5.03699,0-8.39526
    C125.15707,110.56246,125.15328,110.63839,125.13827,110.78951z"/>
  <path fill="#AC8457" d="M124.27572,112.97518c0.00806,3.46118,0.01196,5.19189,0.02002,8.65247
    c0.09595-0.15186,0.14075-0.22839,0.22388-0.38293c-0.00598-3.44897-0.00891-5.17383-0.01489-8.62317
    C124.41964,112.76388,124.37386,112.83456,124.27572,112.97518z"/>
  <path fill="#AC8457" d="M122.25314,115.00338c0.02466,3.51306,0.03711,5.26978,0.06177,8.78247
    c0.16675-0.13623,0.24744-0.20508,0.4032-0.34399c-0.02148-3.5061-0.03223-5.25952-0.05371-8.76599
    C122.50558,114.80782,122.42318,114.87337,122.25314,115.00338z"/>
  <path fill="#AC8457" d="M119.24129,116.86398c0.047,3.53723,0.07043,5.30603,0.11743,8.84302
    c0.22534-0.11987,0.33557-0.18042,0.55188-0.30286c-0.04297-3.53467-0.06458-5.30237-0.10754-8.83728
    C119.58285,116.68673,119.47066,116.74606,119.24129,116.86398z"/>
  <path fill="#AC8457" d="M84.00716,119.86837c0.08313,5.15491,0.12476,7.73438,0.20776,12.89147
    c0.51331-0.01904,0.77209-0.03003,1.29407-0.05481c-0.10217-5.16381-0.15332-7.74657-0.25549-12.9082
    C84.74947,119.82894,84.50021,119.84322,84.00716,119.86837z"/>
  <path fill="#AC8457" d="M110.75484,120.0931c0.09473,3.52222,0.14209,5.28357,0.23682,8.80578
    c0.31287-0.0885,0.46777-0.13318,0.77527-0.22424c-0.09119-3.52575-0.13684-5.28893-0.22803-8.81481
    C111.22787,119.95431,111.07125,120.00094,110.75484,120.0931z"/>
  <path fill="#AC8457" d="M105.79244,121.37911c0.11218,3.49402,0.16821,5.24133,0.2804,8.73534
    c0.34033-0.07349,0.50952-0.11084,0.84619-0.18677c-0.10974-3.49938-0.16455-5.24926-0.27441-8.74865
    C106.3055,121.26022,106.13509,121.30025,105.79244,121.37911z"/>
  <path fill="#AC8457" d="M100.53524,122.45467c0.12097,3.45923,0.1814,5.18909,0.30237,8.64843
    c0.35608-0.05847,0.53357-0.08826,0.8877-0.14917c-0.12024-3.46532-0.1803-5.19823-0.30054-8.66357
    C101.06966,122.35738,100.89181,122.39022,100.53524,122.45467z"/>
  <path fill="#AC8457" d="M95.15231,123.30978c0.11768,3.42297,0.17639,5.13476,0.29407,8.55798
    c0.3606-0.04346,0.54126-0.06592,0.90173-0.11182c-0.11914-3.42908-0.17883-5.14391-0.29797-8.57275
    C95.69088,123.23507,95.51107,123.26046,95.15231,123.30978z"/>
  <path fill="#AC8457" d="M89.82247,123.93307c0.09875,3.39062,0.14819,5.0863,0.24683,8.47729
    c0.35486-0.02893,0.53259-0.04395,0.88928-0.0752c-0.10315-3.39587-0.15479-5.09399-0.25781-8.48962
    C90.34823,123.88192,90.17269,123.89938,89.82247,123.93307z"/>
  <path fill="#AC8457" d="M52.98238,116.39413c-0.05994,5.3916-0.08997,8.08936-0.1499,13.48217
    c0.51184,0.11743,0.77014,0.17468,1.29089,0.28625c0.06189-5.37865,0.0929-8.06908,0.15479-13.4464
    C53.7557,116.58993,53.4963,116.52547,52.98238,116.39413z"/>
  <path fill="#AC8457" d="M79.80025,124.4443c-0.0011,3.35852-0.00159,5.03808-0.00256,8.39697
    c0.32214,0.00061,0.47253,0.00024,0.78772-0.00146c-0.00916-3.35913-0.01367-5.03881-0.02283-8.39745
    C80.25912,124.44466,80.11813,124.44503,79.80025,124.4443z"/>
  <path fill="#AC8457" d="M74.84481,124.29769c-0.02234,3.36951-0.03345,5.05456-0.05579,8.42431
    c0.34534,0.01538,0.51709,0.02246,0.85913,0.03528c0.01929-3.3667,0.02893-5.05016,0.04834-8.4165
    C75.35751,124.32504,75.18722,124.31637,74.84481,124.29769z"/>
  <path fill="#AC8457" d="M69.58456,123.88912c-0.03552,3.39661-0.05334,5.09521-0.08887,8.49206
    c0.35889,0.03015,0.53796,0.04456,0.89539,0.07227c0.03381-3.39148,0.05078-5.08739,0.08472-8.47863
    C70.12008,123.94198,69.94198,123.92477,69.58456,123.88912z"/>
  <path fill="#AC8457" d="M64.18258,123.23312c-0.04211,3.43384-0.06311,5.15099-0.10522,8.58508
    c0.35999,0.04468,0.54004,0.06641,0.90015,0.10864c0.04138-3.42737,0.06213-5.14135,0.10364-8.56847
    C64.72164,123.30953,64.54195,123.28451,64.18258,123.23312z"/>
  <path fill="#AC8457" d="M58.79073,122.34286c-0.04309,3.47534-0.06458,5.21326-0.10767,8.68871
    c0.35413,0.05969,0.53137,0.08887,0.88745,0.14612c0.04333-3.4685,0.06494-5.203,0.10815-8.67138
    C59.32247,122.4421,59.1451,122.40951,58.79073,122.34286z"/>
  <path fill="#AC8457" d="M34.81979,118.80489c0,0.25745,0.00854,0.38477,0.04199,0.63623
    c0.00024-5.19177,0.00037-7.78931,0.00061-12.98108c-0.03394-0.20667-0.0426-0.31055-0.0426-0.51892"/>
  <path fill="#AC8457" d="M48.51205,119.86471c-0.0332,3.54773-0.04968,5.3219-0.08289,8.86962
    c0.3075,0.09009,0.4624,0.13452,0.77539,0.22217c0.03442-3.54333,0.05164-5.3153,0.08606-8.85863
    C48.9764,120.00558,48.82088,119.95907,48.51205,119.86471z"/>
  <path fill="#AC8457" d="M44.14059,118.35152c-0.02502,3.56519-0.0376,5.34802-0.06262,8.91296
    c0.26953,0.10535,0.40601,0.15735,0.68262,0.26025c0.02649-3.56335,0.03967-5.34534,0.06616-8.90869
    C44.54879,118.51119,44.41146,118.45834,44.14059,118.35152z"/>
  <path fill="#AC8457" d="M40.4316,116.66476c-0.01648,3.56238-0.02466,5.34375-0.04114,8.90588
    c0.2207,0.12061,0.33313,0.18018,0.56262,0.29822c0.01782-3.56433,0.02686-5.3468,0.04468-8.91125
    C40.76681,116.84139,40.65353,116.7828,40.4316,116.66476z"/>
  <path fill="#AC8457" d="M37.53671,114.81564c-0.00854,3.53369-0.01282,5.30066-0.02136,8.83398
    c0.16077,0.13525,0.24365,0.20215,0.41492,0.33496c0.00964-3.54016,0.01453-5.31055,0.02429-8.85095
    C37.78207,115.00716,37.69857,114.94369,37.53671,114.81564z"/>
  <path fill="#AC8457" d="M35.61678,112.81966c-0.00269,3.47278-0.00403,5.20935-0.00671,8.68164
    c0.09094,0.15039,0.13965,0.22498,0.2428,0.3728c0.00354-3.48499,0.00525-5.22791,0.00867-8.71326
    C35.75753,113.02511,35.70846,112.95687,35.61678,112.81966z"/>

</svg>
