<svg version="1.1" xmlns="http://www.w3.org/2000/svg" xmlns:xlink="http://www.w3.org/1999/xlink" width="160px"
  height="160px" viewBox="0 0 160 160" >
  <path fill="#808284" d="M77.45308,91.60592v52.4473h8.60725v-52.4473H77.45308z M81.72403,140.18306
    c-0.72688,0-1.31491-0.58815-1.31491-1.31491c0-0.72688,0.58803-1.3149,1.31491-1.3149c0.72675,0,1.3149,0.58801,1.3149,1.3149
    C83.03893,139.59491,82.45078,140.18306,81.72403,140.18306z M81.72403,132.29362c-0.72688,0-1.31491-0.58817-1.31491-1.31491
    c0-0.72688,0.58803-1.31491,1.31491-1.31491c0.72675,0,1.3149,0.58803,1.3149,1.31491
    C83.03893,131.70546,82.45078,132.29362,81.72403,132.29362z"/>
  <rect x="75.27399" y="91.60591" fill="#58595B" width="2.17906" height="55.07713"/>
  <rect x="86.06035" y="91.60591" fill="#58595B" width="2.17788" height="55.07713"/>
  <path fill="#FFC50A" d="M90.73706,121.89507c-4.94129,4.94116-13.02455,4.94116-17.96453,0L33.38054,82.50426
    c-4.93984-4.94115-4.93984-13.02573,0-17.96689l39.39199-39.39075c4.93998-4.94118,13.02324-4.94118,17.96453,0l39.39317,39.39075
    c4.93866,4.94115,4.93866,13.02573,0,17.96689L90.73706,121.89507z"/>
  <path fill="none" stroke="#58595B" stroke-width="2.07737" d="M89.36298,114.48582c-4.18482,4.18351-11.03023,4.18351-15.21518,0
    L40.7911,81.12782c-4.18483-4.18496-4.18483-11.03036,0-15.214L74.1478,32.5558c4.18495-4.18351,11.03036-4.18351,15.21518,0
    l33.35815,33.35801c4.18351,4.18364,4.18351,11.02905,0,15.214L89.36298,114.48582z"/>
  <rect x="77.96152" y="47.9443" fill="#58595B" width="7.52482" height="56.38953"/>
  <path fill="#58595B" d="M83.60513,104.33382h-7.52351c0-23.31002-14.62059-34.20048-14.76825-34.33394l5.07607-5.55495
    C67.09437,65.08818,83.60513,77.58755,83.60513,104.33382L83.60513,104.33382z"/>
  <path fill="#58595B" d="M87.36761,104.33382H79.8441c0-29.04867,12.37223-30.52412,19.75056-30.52412v7.52219
    C88.95602,81.33189,87.36761,94.67622,87.36761,104.33382L87.36761,104.33382z"/>
  <path fill="#58595B" d="M82.67681,40.62249c-0.52399-0.72688-1.37921-0.72688-1.90307,0l-7.62752,10.57449
    c-0.52386,0.72675-0.21827,1.31872,0.67547,1.31872h15.80848c0.89624,0,1.20051-0.59197,0.67533-1.31872L82.67681,40.62249z"/>
  <path fill="#58595B" d="M107.62402,78.97689c0.88217-0.77435,0.88217-2.03916,0-2.81087l-8.06788-7.09327
    c-0.87967-0.77303-1.59866-0.44812-1.59866,0.72425v15.54772c0,1.17237,0.71899,1.49729,1.59866,0.72425L107.62402,78.97689z"/>
  <path fill="#58595B" d="M58.12236,60.99842c-0.89361-0.06167-1.50228,0.60867-1.35343,1.49084l1.993,11.81997
    c0.14898,0.88085,0.76909,1.06836,1.37776,0.41222l10.75937-11.58381c0.60867-0.65482,0.37882-1.24035-0.51611-1.30202
    L58.12236,60.99842z"/>
  <path fill="#58595B" d="M81.72403,129.99252c0.54305,0,0.98618,0.44299,0.98618,0.98619c0,0.54318-0.44312,0.98618-0.98618,0.98618
    c-0.54319,0-0.98618-0.44299-0.98618-0.98618C80.73785,130.43552,81.18084,129.99252,81.72403,129.99252 M81.72403,129.6638
    c-0.72688,0-1.31491,0.58803-1.31491,1.31491c0,0.72675,0.58803,1.31491,1.31491,1.31491c0.72675,0,1.3149-0.58817,1.3149-1.31491
    C83.03893,130.25183,82.45078,129.6638,81.72403,129.6638L81.72403,129.6638z"/>
  <path fill="#58595B" d="M81.72403,137.88197c0.54305,0,0.98618,0.44299,0.98618,0.98618c0,0.5432-0.44312,0.98619-0.98618,0.98619
    c-0.54319,0-0.98618-0.44299-0.98618-0.98619C80.73785,138.32497,81.18084,137.88197,81.72403,137.88197 M81.72403,137.55325
    c-0.72688,0-1.31491,0.58801-1.31491,1.3149c0,0.72676,0.58803,1.31491,1.31491,1.31491c0.72675,0,1.3149-0.58815,1.3149-1.31491
    C83.03893,138.14127,82.45078,137.55325,81.72403,137.55325L81.72403,137.55325z"/>

</svg>
