<?xml version="1.0" encoding="utf-8"?>
<!DOCTYPE svg PUBLIC "-//W3C//DTD SVG 1.1//EN" "http://www.w3.org/Graphics/SVG/1.1/DTD/svg11.dtd">
<svg version="1.1" xmlns="http://www.w3.org/2000/svg" xmlns:xlink="http://www.w3.org/1999/xlink" x="0px" y="0px" width="160px"
  height="160px" viewBox="0 0 160 160" enable-background="new 0 0 160 160" xml:space="preserve">
  <polygon fill="#58595B" points="134.54294,65.91689 116.41142,82.30703 130.96237,82.29574 139.1153,65.91689"/>
  <polygon fill="#D0D2D3" points="116.41142,91.30495 37.90634,91.30495 36.86671,70.31695 116.41142,70.31695"/>
  <path fill="#D0D2D3" d="M47.36071,80.8117c0,5.79484-3.65879,10.49325-9.45437,10.49325s-20.43256-5.08686-20.43256-7.77345
    c0-3.59393,3.61752-7.09055,9.73578-10.1185c3.7493-1.85538,7.45517-3.09605,9.65715-3.09605
    C42.6623,70.31695,47.36071,75.01537,47.36071,80.8117z"/>
  <path fill="#D0D2D3" d="M134.00128,80.8117c0,0.37956-0.02026,0.75423-0.05962,1.12316
    c-0.56033,5.26688-5.01794,9.37009-10.43438,9.37009c-5.79559,0-22.00935-0.8077-22.00935-6.60329
    s16.21377-14.38471,22.00935-14.38471S134.00128,75.01537,134.00128,80.8117z"/>
  <polygon fill="#D0D2D3" points="129.92889,81.62505 131.83493,42.7622 116.41142,70.31695 116.41142,91.30495 123.50729,91.30495
 "/>
  <polygon fill="#D0D2D3" points="137.72701,42.7622 131.83493,42.7622 126.51614,86.58054 133.94167,81.93486"/>
  <path fill="#BBBDBF" d="M107.31137,118.80456L90.51052,85.05283h-0.0049c0.00083-0.00814,0.0049-0.01628,0.0049-0.02433
    c0-1.04204-6.71231-1.88619-14.99295-1.88619c-8.28023,0-13.6857-0.21407-14.58907,0.81742
    c-0.31347,0.35755-0.25468,1.17497,0.16624,1.58451l36.7938,33.26032H107.31137z"/>
  <path fill="#A6A8AB" d="M139.1153,98.67368l-8.12776-16.3277c-0.04784-0.2952-0.48212-0.72093-1.05864-0.72093
    c-0.54291,0-11.96094-0.19622-12.56911-0.19622c-0.60857,0-1.10207,0.25792-1.10207,0.57653
    c0,0.13303,0.08959,0.25301,0.23358,0.35033l18.05164,16.31799H139.1153z"/>
  <path fill="#58595B" d="M36.12519,74.112h-7.27797c-2.10151,0.99902-5.30251,2.80575-7.00502,4.16805h12.72313L36.12519,74.112z"/>
  <polygon fill="#58595B" points="37.16474,74.112 35.60538,78.28005 38.57288,78.28005 39.95952,74.112"/>
  <path fill="#BBBDBF" d="M45.92259,83.12445c-0.23798,0-0.57212,0-0.95443,0.00166c-1.1264-0.00249-3.77396,0.21084-3.77396-0.30981
    c-0.84499-3.31335,0.38919-5.5904,0.866-7.80907c0.15528-0.72334,0.27817-0.89523,0.51657-0.89523
    c1.26499,0.17355,4.14738,0,4.38578,0s0.57254-0.06651,0.42133,0.64628c-0.10869,0.51408-1.40532,3.57043-0.95816,7.73367
    C46.43061,83.19578,46.16099,83.12445,45.92259,83.12445z"/>
  <path fill="#58595B" d="M51.65615,78.0806c-0.92645-0.25949-1.96608,0.26107-2.48589-0.25949
    c-0.52015-0.51898-0.52015-2.59898,0-3.11879c0.51981-0.52056,2.07959-0.52056,2.5994,0c0.51981,0.51981,0,1.55943-0.11924,2.82201
    C51.65366,77.85839,51.65615,78.0806,51.65615,78.0806z"/>
  <path fill="#58595B" d="M56.85528,78.0806c-0.92645-0.25949-1.96649,0.26107-2.48622-0.25949
    c-0.51981-0.51898-0.51981-2.59898,0-3.11879c0.51973-0.52056,2.07958-0.52056,2.59973,0
    c0.51981,0.51981,0,1.55943-0.11916,2.82201C56.85246,77.85839,56.85528,78.0806,56.85528,78.0806z"/>
  <path fill="#58595B" d="M62.05399,78.0806c-0.92603-0.25949-1.96599,0.26107-2.4858-0.25949
    c-0.51981-0.51898-0.51981-2.59898,0-3.11879c0.51981-0.52056,2.07959-0.52056,2.5994,0c0.51973,0.51981,0,1.55943-0.11883,2.82201
    C62.05158,77.85839,62.05399,78.0806,62.05399,78.0806z"/>
  <path fill="#58595B" d="M67.2532,78.0806c-0.92645-0.25949-1.96607,0.26107-2.48631-0.25949
    c-0.51973-0.51898-0.51973-2.59898,0-3.11879c0.52023-0.52056,2.08-0.52056,2.59982,0c0.51981,0.51981,0,1.55943-0.11924,2.82201
    C67.25071,77.85839,67.2532,78.0806,67.2532,78.0806z"/>
  <path fill="#58595B" d="M72.45233,78.0806c-0.92645-0.25949-1.96649,0.26107-2.48622-0.25949
    c-0.51981-0.51898-0.51981-2.59898,0-3.11879c0.51973-0.52056,2.07959-0.52056,2.59932,0
    c0.52023,0.51981,0,1.55943-0.11874,2.82201C72.44951,77.85839,72.45233,78.0806,72.45233,78.0806z"/>
  <path fill="#58595B" d="M77.65105,78.0806c-0.92603-0.25949-1.966,0.26107-2.48581-0.25949
    c-0.52023-0.51898-0.52023-2.59898,0-3.11879c0.51981-0.52056,2.07959-0.52056,2.5994,0c0.51973,0.51981,0,1.55943-0.11925,2.82201
    C77.64864,77.85839,77.65105,78.0806,77.65105,78.0806z"/>
  <path fill="#58595B" d="M82.85026,78.0806c-0.92645-0.25949-1.96607,0.26107-2.48631-0.25949
    c-0.51973-0.51898-0.51973-2.59898,0-3.11879c0.52023-0.52056,2.07958-0.52056,2.59982,0
    c0.51981,0.51981,0,1.55943-0.11924,2.82201C82.84776,77.85839,82.85026,78.0806,82.85026,78.0806z"/>
  <path fill="#58595B" d="M88.04897,78.0806c-0.92603-0.25949-1.96607,0.26107-2.4858-0.25949
    c-0.51981-0.51898-0.51981-2.59898,0-3.11879c0.51973-0.52056,2.07959-0.52056,2.59932,0
    c0.52023,0.51981,0,1.55943-0.11874,2.82201C88.04656,77.85839,88.04897,78.0806,88.04897,78.0806z"/>
  <path fill="#58595B" d="M93.76791,78.0806c-0.92603-0.25949-1.96599,0.26107-2.4858-0.25949
    c-0.51981-0.51898-0.51981-2.59898,0-3.11879c0.51981-0.52056,2.07959-0.52056,2.59932,0
    c0.51981,0.51981,0,1.55943-0.11874,2.82201C93.7655,77.85839,93.76791,78.0806,93.76791,78.0806z"/>

</svg>
