<?xml version="1.0" encoding="utf-8"?>
<!DOCTYPE svg PUBLIC "-//W3C//DTD SVG 1.1//EN" "http://www.w3.org/Graphics/SVG/1.1/DTD/svg11.dtd">
<svg version="1.1" xmlns="http://www.w3.org/2000/svg" xmlns:xlink="http://www.w3.org/1999/xlink" x="0px" y="0px" width="160px"
  height="160px" viewBox="0 0 160 160" enable-background="new 0 0 160 160" xml:space="preserve">
  <rect x="22.93531" y="52.0065" fill="#B47A66" width="97.0283" height="82.5664"/>
  <polygon fill="#C4644B" points="145.56711,113.9968 119.96361,134.4792 119.96361,52.0065 145.11891,34.0378"/>
  <polygon fill="#F7A78B" points="145.11891,34.0378 56.22041,34.0378 22.93531,52.0065 120.22921,52.0065"/>
  <rect x="22.93531" y="52.0065" fill="#F4F5F5" width="97.0283" height="38.9961"/>
  <rect x="32.95681" y="77.9929" fill="#AFC5E6" width="76.8691" height="2.5585"/>
  <rect x="32.95681" y="95.3366" fill="#D0D2D3" width="56.1396" height="2.4473"/>
  <rect x="32.95681" y="100.5632" fill="#D0D2D3" width="56.1396" height="2.4453"/>
  <rect x="32.95681" y="105.7878" fill="#D0D2D3" width="56.1396" height="2.4453"/>
  <path fill="#AFC5E6" d="M36.1995,59.28704c-3.14368,2.19757-6.46789,8.57564-2.24292,11.31977
    c3.7628,2.44395,10.10028,1.45879,9.6117-4.09287c-0.10587-1.20296-4.73266-2.55108-4.6362-1.45498
    c0.12965,1.47321-0.51664,2.87296-1.68985,3.77112c-0.21952,0.1786-0.45747,0.32935-0.71383,0.45223
    c-0.85921,0.18552-0.71883,0.50932,0.42115,0.97137c-0.02788,0.01867-0.19644-2.13229-0.2007-2.05225
    c0.14409-2.70698,1.57135-5.15826,3.77537-6.69897C41.31604,60.94895,37.26633,58.54128,36.1995,59.28704L36.1995,59.28704z"/>
  <path fill="#AFC5E6" d="M47.31956,59.39861c-2.96855,2.51711-4.20026,7.6518-0.8604,10.47977
    c1.61042,1.3636,3.89495,1.30666,5.66478,0.26767c0.96309-0.56538,1.7426-1.40607,2.34845-2.33385
    c0.62016-0.9497,1.03101-2.85957,2.49551-2.7594c-0.47365-0.28108-0.9473-0.56216-1.42094-0.84325
    c0.99609,1.27772,0.42136,3.11552,0.28111,4.5873c-0.13469,1.4134-0.1078,2.73885,0.3372,4.09348
    c0.65737,2.00106,3.40279,1.51694,4.50206,0.24052c0.62612-0.72702,1.19151-1.4736,1.72146-2.27344
    c1.74318-2.63095-2.73681-3.92274-4.15469-1.78277c-0.52995,0.79984-1.09534,1.54642-1.72146,2.27345
    c1.50069,0.08017,3.00138,0.16035,4.50206,0.24052c-1.23074-3.74643,2.20457-11.73245-4.94971-10.41119
    c-2.49388,0.46057-3.96205,1.75282-5.22211,3.87656c-0.56205,0.94729-0.91283,2.40974-1.34664,0.44071
    c-0.28822-1.30823,0.14234-2.59171,1.15701-3.45207C53.15239,59.92352,49.38417,57.64798,47.31956,59.39861L47.31956,59.39861z"/>
  <path fill="#AFC5E6" d="M66.84274,65.55177c-0.60065,1.73217-1.55427,4.45114-0.53269,6.17841
    c0.73093,1.23585,2.48982,1.71241,3.76868,2.08239c3.46109,1.00132,6.72105,0.77922,9.28725-2.02052
    c1.38099-1.50667,2.22085-3.42146,2.89203-5.327c0.61944-1.75866,1.05151-2.85956-0.73989-3.73805
    c-1.6521-0.81018-3.5866-1.32178-5.39942-1.61399c-0.58018-0.09352-2.65731-0.43257-1.86124,0.71437
    c0.45294,0.65259,2.18542,0.89347,2.90682,1.06839c0.24042,0.05829,2.01218,0.39632,1.79812,0.08792
    c-0.82962-1.19529-1.44377,1.85162-1.53357,2.1064c-0.25716,0.72962-0.53143,1.45574-0.85796,2.15766
    c-0.72633,1.56132-1.6972,3.05139-3.05976,4.13207c-0.69483,0.55109-1.47559,1.00977-2.32262,1.28207
    c-0.43922,0.14429-0.88889,0.23878-1.34903,0.2835c1.72099,0.93168,2.0561,0.73722,1.00533-0.58337
    c-0.49669-1.65722,0.28974-3.88559,0.82713-5.43528C71.80211,66.55128,67.03464,64.99838,66.84274,65.55177L66.84274,65.55177z"/>
  <path fill="#AFC5E6" d="M84.90407,62.38363c-2.81702,3.61348-0.44963,7.95776,3.28439,9.69925
    c1.63253,0.7614,3.82983,1.5307,5.66227,1.30137c0.79948-0.10005,1.6005-0.41246,2.13273-1.04393
    c0.31725-0.3764,0.46677-0.83316,0.6081-1.28851c0.03594-0.16438,0.07188-0.32877,0.10782-0.49315
    c0.28173-0.56246,0.05234-0.69949-0.68818-0.41111c1.03593,0.40017,2.22642-0.06617,2.35243-1.23909
    c0.13419-1.24905-1.03186-2.39142-2.09313-2.80138c-0.99746-0.38531-1.93996-0.38785-2.80967,0.29585
    c-0.38017,0.29886-0.70158,0.70505-0.88763,1.16c-0.18073,0.44196-0.09104,1.20541-0.49371,1.4603
    c-0.56245,0.35603-2.54445-0.47598-3.05273-0.72828c-1.14637-0.56905-1.23435-1.47459-0.41615-2.52414
    C90.12093,63.83348,86.39128,60.47592,84.90407,62.38363L84.90407,62.38363z"/>

</svg>
