<?xml version="1.0" encoding="utf-8"?>
<!DOCTYPE svg PUBLIC "-//W3C//DTD SVG 1.1//EN" "http://www.w3.org/Graphics/SVG/1.1/DTD/svg11.dtd">
<svg version="1.1" xmlns="http://www.w3.org/2000/svg" xmlns:xlink="http://www.w3.org/1999/xlink" x="0px" y="0px" width="160px"
  height="160px" viewBox="0 0 160 160" enable-background="new 0 0 160 160" xml:space="preserve">
  <polygon fill="#A4DBDF" points="36.1379,95.15907 117.9045,68.17656 103.63499,31.57796 25.1838,67.06426"/>
  <ellipse transform="matrix(-0.36326 -0.93169 0.93169 -0.36326 -33.77192 139.14284)" fill="#92C3C5" cx="30.66084" cy="81.11169" rx="15.07738" ry="3.69091"/>
  <path fill="#808184" d="M20.6848,75.28307l6.5791,16.874l5.1738-0.7285c1.4444-0.5635,0.9453-5.29691-1.1113-10.5723
    c-2.0576-5.2783-4.8965-9.1015-6.3408-8.5381L20.6848,75.28307z"/>
  <ellipse transform="matrix(-0.36326 -0.93169 0.93169 -0.36326 -45.31767 136.46893)" fill="#808184" cx="23.97435" cy="83.72009" rx="9.05561" ry="2.80572"/>
  <path fill="#8CC89C" d="M9.6135,81.64726c1.1406-0.4443,3.2266,2.1778,4.6602,5.8536c1.4336,3.6796,1.6728,7.0205,0.5342,7.4648
    c-1.1377,0.44431-4.6153-1.6357-6.0489-5.3144C7.3254,85.97346,8.4758,82.09066,9.6135,81.64726z"/>
  <ellipse transform="matrix(-0.36327 -0.93168 0.93168 -0.36327 -46.39261 136.21916)" fill="#8CC89C" cx="23.3508" cy="83.96228" rx="7.14804" ry="2.21467"/>
  <rect x="94.74448" y="44.58712" transform="matrix(-0.36327 -0.93169 0.93169 -0.36327 110.78065 172.64516)" fill="#92C3C5" width="39.28107" height="7.76107"/>
  <path fill="#FFFFFF" d="M119.1926,66.36897l0.166,0.43069l-3.4004,1.3252l-0.167-0.4297L119.1926,66.36897z M115.40359,66.70007
    l0.1669,0.4306l3.40141-1.3271l-0.168-0.4287L115.40359,66.70007z M115.0159,65.70586l0.167,0.4288l3.4003-1.3252l-0.1679-0.4297
    L115.0159,65.70586z M114.6272,64.70886l0.168,0.4297l3.3994-1.3252l-0.167-0.4297L114.6272,64.70886z M114.2395,63.71466
    l0.167,0.4297l3.4004-1.3271l-0.168-0.4278L114.2395,63.71466z M113.8508,62.72056l0.168,0.4267l3.3994-1.3251l-0.166-0.4288
    L113.8508,62.72056z M113.4641,61.72346l0.166,0.4297l3.4004-1.3252l-0.168-0.4307L113.4641,61.72346z M113.0745,60.72836
    l0.1679,0.4287l3.3994-1.3252l-0.166-0.4297L113.0745,60.72836z M112.6877,59.73426l0.166,0.4267l3.3995-1.3252l-0.1661-0.4277
    L112.6877,59.73426z M112.2991,58.73716l0.166,0.4297l3.40041-1.3262l-0.166-0.4287L112.2991,58.73716z M111.9114,57.74296
    l0.167,0.4297l3.4003-1.3271l-0.1679-0.4277L111.9114,57.74296z M111.5227,56.74886l0.168,0.4268l3.3994-1.3252l-0.168-0.4287
    L111.5227,56.74886z M111.134,55.75276l0.16801,0.4287l3.4004-1.3252l-0.168-0.4287L111.134,55.75276z M110.7463,54.75666
    l0.167,0.4297l3.4004-1.3262l-0.168-0.4297L110.7463,54.75666z M110.3596,53.76256l0.166,0.4267l3.3994-1.3252l-0.166-0.4277
    L110.3596,53.76256z M109.9709,52.76546l0.1661,0.4297l3.4003-1.3262l-0.166-0.4287L109.9709,52.76546z M109.5823,51.77136
    l0.1679,0.4297l3.4004-1.3272l-0.1679-0.4277L109.5823,51.77136z M109.1946,50.77526l0.1679,0.4287l3.39951-1.3252l-0.168-0.4287
    L109.1946,50.77526z M108.8059,49.78106l0.168,0.4287l3.3994-1.3251l-0.167-0.4288L108.8059,49.78106z M108.4182,48.78496
    l0.167,0.4288l3.4004-1.3252l-0.168-0.4288L108.4182,48.78496z M108.0315,47.79086l0.16599,0.4287l3.39941-1.3252l-0.167-0.4297
    L108.0315,47.79086z M107.6409,46.79376l0.1679,0.4297l3.4004-1.3252l-0.167-0.4297L107.6409,46.79376z M107.2541,45.79966
    l0.167,0.4297l3.4014-1.3272l-0.168-0.4277L107.2541,45.79966z M106.8664,44.80356l0.167,0.4287l3.3985-1.3252l-0.166-0.4287
    L106.8664,44.80356z M106.4778,43.80946l0.1679,0.4287l3.3995-1.3262l-0.167-0.4277L106.4778,43.80946z M106.0901,42.81336
    l0.167,0.4287l3.40041-1.3252l-0.168-0.4287L106.0901,42.81336z M105.7014,41.81916l0.168,0.4287l3.3994-1.3252l-0.168-0.4306
    L105.7014,41.81916z M105.3127,40.82216l0.168,0.4296l3.4004-1.3252l-0.168-0.4296L105.3127,40.82216z M104.92599,39.82796
    l0.166,0.4297l3.40041-1.3272l-0.166-0.4277L104.92599,39.82796z M104.5383,38.83186l0.166,0.4287l3.3994-1.3252l-0.166-0.4287
    L104.5383,38.83186z M104.1496,37.83576l0.1661,0.4287l3.4004-1.3252l-0.1661-0.4287L104.1496,37.83576z M103.761,36.84166
    l0.1679,0.4287l3.4004-1.3252l-0.1679-0.4287L103.761,36.84166z M103.3733,35.84746l0.1679,0.4268l3.3995-1.3252l-0.168-0.4287
    L103.3733,35.84746z M102.9846,34.85046l0.168,0.4297l3.39941-1.3252l-0.16701-0.4297L102.9846,34.85046z M102.5969,33.85626
    l0.167,0.4278l3.4004-1.3252l-0.168-0.4297L102.5969,33.85626z M102.2102,32.86216l0.166,0.4267l3.3994-1.3251l-0.166-0.4278
    L102.2102,32.86216z"/>
    <rect x="10.63297" y="80.15589" transform="matrix(-0.36327 -0.93168 0.93168 -0.36327 -56.00927 133.99074)" fill="#8CC89C" width="14.29608" height="11.95652"/>
    <line fill="none" stroke="#FFFFFF" stroke-width="0.57906" stroke-linecap="round" x1="16.5598" y1="93.33086" x2="25.5412" y2="89.82896"/>
    <line fill="none" stroke="#FFFFFF" stroke-width="0.57906" stroke-linecap="round" x1="16.5813" y1="91.97736" x2="25.5637" y2="88.47546"/>
    <line fill="none" stroke="#FFFFFF" stroke-width="0.57906" stroke-linecap="round" x1="16.4094" y1="90.70197" x2="25.3928" y2="87.20007"/>
    <line fill="none" stroke="#FFFFFF" stroke-width="0.57906" stroke-linecap="round" x1="16.133" y1="89.46666" x2="25.1145" y2="85.96376"/>
    <line fill="none" stroke="#FFFFFF" stroke-width="0.57906" stroke-linecap="round" x1="15.7766" y1="88.26157" x2="24.758" y2="84.75866"/>
    <line fill="none" stroke="#FFFFFF" stroke-width="0.57906" stroke-linecap="round" x1="15.3518" y1="87.08086" x2="24.3342" y2="83.57796"/>
    <line fill="none" stroke="#FFFFFF" stroke-width="0.57906" stroke-linecap="round" x1="14.8664" y1="85.92656" x2="23.8469" y2="82.42466"/>
    <line fill="none" stroke="#FFFFFF" stroke-width="0.57906" stroke-linecap="round" x1="14.3137" y1="84.79766" x2="23.2942" y2="81.29576"/>
    <line fill="none" stroke="#FFFFFF" stroke-width="0.57906" stroke-linecap="round" x1="13.6789" y1="83.69717" x2="22.6623" y2="80.19717"/>
    <line fill="none" stroke="#FFFFFF" stroke-width="0.57906" stroke-linecap="round" x1="12.9436" y1="82.64726" x2="21.926" y2="79.14336"/>
    <line fill="none" stroke="#FFFFFF" stroke-width="0.57906" stroke-linecap="round" x1="12.011" y1="81.66386" x2="20.9914" y2="78.15997"/>
    <path fill="#A1D4AB" d="M61.81982,79.1875c-1.51318,0-3.17188-0.39258-5.0708-1.2002L55.625,77.46094l0.17822-0.38184
      l-1.77393-0.24707l0.30811-0.51465l-1.7002-0.24805l0.34619-0.52148l-1.65137-0.24316l0.36279-0.5293l-1.62939-0.24219
      l0.36426-0.52832l-1.6172-0.23535l0.35303-0.53125l-1.62695-0.22754l0.3291-0.5293l-1.63428-0.2168l0.26465-0.52246
      l-1.6875-0.19434l0.15918-0.5791c-0.62402-0.15332-1.9209-0.41797-2.55859-0.41797c-0.06055,0-0.11426,0.00195-0.16016,0.00879
      l-0.09424-0.72754c0.46631-0.06055,1.81201-0.69824,2.47803-1.05664l-0.38086-0.4668l1.65674-0.66504l-0.43652-0.3916
      l1.58691-0.67188l-0.49219-0.3877l1.55029-0.66895l-0.51904-0.37988l1.54932-0.67871
      c-0.00195-0.00195-0.5293-0.37891-0.5293-0.37891l1.55371-0.68555l-0.53223-0.37012l1.58887-0.70312l-0.51123-0.37598
      l1.61914-0.70898l-0.47949-0.37402l1.69824-0.73242l-0.30225-0.27832l1.04541-0.86523
      c2.01416-1.55859,3.85498-2.42285,5.63623-2.64941c0.50928-0.06543,1.01465-0.09766,1.50049-0.09766
      c4.99414,0,8.40234,3.4668,9.39795,9.53125l3.61719-1.08887l0.34668,2.69629l-3.77588-0.14258
      c0.6377,6.80859-2.32129,11.12988-8.16406,11.88184C62.51514,79.16602,62.16846,79.1875,61.81982,79.1875z"/>
    <path fill="#FFFFFF" d="M61.43689,56.61133c4.70367,0,8.17303,3.16089,9.09949,9.63757l3.60742-1.08594l0.23633,1.83789
      l-3.76562-0.14258c0.81439,7.15527-2.36621,11.20117-7.80267,11.90039c-0.32819,0.04187-0.65887,0.06177-0.99219,0.06177
      c-1.60175,0-3.25842-0.46143-4.92682-1.17114l-0.78033-0.36523l0.2334-0.5l-1.71771-0.23926l0.30664-0.51172l-1.67194-0.24316
      l0.3457-0.52161l-1.6416-0.24109l0.3623-0.52832l-1.62787-0.24219l0.36517-0.5304l-1.62787-0.23621l0.35449-0.5343
      l-1.64551-0.23035l0.33099-0.5332l-1.68451-0.22375l0.26953-0.53015l-1.78613-0.20605l0.14264-0.51758
      c-0.29529-0.10999-2.15668-0.53064-3.00903-0.53064c-0.07806,0-0.14777,0.00354-0.20691,0.01111
      c0.6778-0.08789,2.67291-1.09961,2.98541-1.32031l-0.336-0.41211l1.7403-0.69922l-0.44531-0.39954l1.62689-0.68835
      l-0.49609-0.39075l1.5733-0.67957l-0.52148-0.38184l1.55762-0.68262c-0.00189,0-0.53223-0.37891-0.53223-0.37891l1.5625-0.68958
      l-0.5332-0.37109l1.57129-0.69531l-0.50879-0.3739l1.59961-0.7002l-0.47559-0.37219l1.64838-0.71082l-0.40906-0.37695
      l0.7226-0.59766c1.73236-1.33984,3.54486-2.3252,5.4483-2.56738C60.47937,56.64319,60.96393,56.61133,61.43689,56.61133
       M61.43689,55.87781c-0.50159,0-1.02228,0.03406-1.54749,0.10144c-1.84717,0.23511-3.74579,1.12305-5.80377,2.71472
      l-0.74133,0.61267l-0.64734,0.5354l0.19592,0.18066l-0.61084,0.26343l-1.13513,0.4895l0.48163,0.37683l-0.47424,0.20764
      l-1.16504,0.51001l0.51349,0.37732l-0.41364,0.18311l-1.19275,0.52771l0.53198,0.37024l-0.36786,0.16235l-1.17761,0.51978
      l0.52795,0.37708l-0.37396,0.16394l-1.16663,0.51123l0.51514,0.3772l-0.39679,0.17139l-1.13,0.48816l0.48785,0.38416
      l-0.48358,0.20471l-1.0639,0.45007l0.42773,0.38379L44.5802,67.7821l-0.92499,0.37158l0.41071,0.50366
      c-0.68042,0.34045-1.63019,0.76807-1.95599,0.81042l0.18811,1.45496c0.03235-0.00415,0.0705-0.00513,0.11316-0.00513
      c0.49524,0,1.4516,0.17761,2.10358,0.32166l-0.17188,0.62366l0.85065,0.09814l0.73822,0.08508l-0.26086,0.51318l1.02667,0.13635
      l0.55908,0.07422l-0.32635,0.52588l1.11572,0.15613l0.492,0.06897l-0.35095,0.52893l1.1463,0.16626l0.45947,0.06665
      l-0.36249,0.52649l1.16309,0.1731l0.46716,0.06946l-0.36365,0.5304l1.16345,0.1709l0.49835,0.07312l-0.34668,0.52307
      l1.1452,0.16663l0.58228,0.08472l-0.31036,0.51782l1.09778,0.15295l0.73413,0.10229l-0.12329,0.26416l0.6637,0.31067
      l0.78033,0.36523c1.96899,0.83813,3.6745,1.24036,5.23779,1.24036c0.36768,0,0.73273-0.02283,1.08502-0.06775
      c5.85736-0.7533,8.99878-5.16321,8.51758-11.8634l2.93011,0.11096l0.86584,0.03284l-0.11047-0.85938l-0.23633-1.83789
      l-0.11041-0.8584l-0.82861,0.24951l-2.80725,0.84497C70.01288,59.30005,66.51581,55.87781,61.43689,55.87781L61.43689,55.87781z"
      />
  <path fill="none" stroke="#FFFFFF" stroke-width="0.51465" d="M68.7483,66.78796c-4.8028-0.628-15.3809,1.8379-22.086,2.8369"/>
  <path fill="#FFFFFF" stroke="#808080" stroke-miterlimit="10" d="M83.25999,108.29476c0.9355-0.8281,1.5352-2.0918,1.5352-3.5049
    c0-2.4961-1.8575-4.5156-4.1465-4.5156h-1.1836c0.5439-0.4668,0.8291-1.2305,0.8291-2.0977c0-1.4209-1.1992-2.2011-2.5762-2.79099
    c-2.3184-0.997-3.1113-1.0517-3.8037-1.7422c-0.4268-0.4267-0.3428-1.083-0.5098-1.3095
    c-0.85149-1.1407-1.707,2.6357-5.3672,3.2695c-1.4091,0.2432-2.71481,1.2754-2.71481,2.6963
    c0,0.84081,0.27151,1.5391,0.7852,1.9746h-1.254c-2.29,0-4.1455,2.0195-4.1455,4.5156c0,1.4053,0.5909,2.6621,1.5166,3.4903
    h-0.1474c-3.0322,0-5.4893,2.45889-5.4893,5.4902c0,1.7226,0.8594,2.5332,2.0528,3.6133
    c0.6269,0.56441,1.3125,1.0547,2.0595,1.44431c1.7637,0.9258,3.7647,1.2959,5.7227,1.5391
    c4.3096,0.5332,9.082,0.9482,13.3437-0.06841c3.0996-0.7373,8.7168-2.5508,8.7168-6.5283
    C88.4836,110.82796,86.1682,108.43536,83.25999,108.29476z"/>
  <rect x="78.83884" y="111.52438" transform="matrix(0.87191 -0.48966 0.48966 0.87191 -44.8737 53.33627)" fill="#B9E3EC" width="1.34624" height="1.8338"/>
  <polygon fill="#B9E3EC" points="68.1575,108.32796 66.9006,107.75476 68.6047,106.97057 69.8625,107.54286"/>
  <polygon fill="#B9E3EC" points="77.0881,101.93147 76.7258,101.42076 77.6594,101.55357 78.0237,102.06526"/>
  <polygon fill="#B9E3EC" points="63.05,110.99207 62.51,111.31236 62.72,110.39246 63.258,110.07116"/>

</svg>
