<svg version="1.1" xmlns="http://www.w3.org/2000/svg" xmlns:xlink="http://www.w3.org/1999/xlink"
 width="160px" height="160px" viewBox="-219 321 160 160">
<path fill="#F09A36" d="M-128,395.7c-10.7,5-32.7,13.7-55.3,21.6c-6.1,2.1-11.9,4.1-17.1,5.9c-3.5,1.2-6.5,2.1-9.1,2.9c0,0,0,0,0,0
c0,0,0,0,0,0c3.5,1.5,7.3,2.7,11.5,3.6c6.5,1.6,13.3,2.1,20,1.7C-152.7,430.7-133.5,414.6-128,395.7z"/>
<path fill="#F09A36" d="M-141.7,436c6-7.6,11.7-13.3,11.3-22.6c-0.1-1.6-0.2-3.1-0.1-4.5c0-3.4,4.2-7.5,3-9.8
c-0.1-0.2-0.6-1.1-0.9-1.9c-6,18.3-24.9,33.6-49.6,34.2c-6.7,0.5-13.5-0.1-20-1.7c-4.2-0.8-8-2.1-11.5-3.6c0.2,0.4,0.3,0.8,0.5,1.2
c0.7,1.6,4.3,5.2,5.7,6.3c2.4,1.9,6.3,2.9,9.1,4.1c5,2.3,6.5,2.6,11.4,4.3c4.6,1.5,8.1,1.8,13,2C-159.1,444.4-149.1,442.8-141.7,436
z"/>
<path fill="#865936" d="M-129.1,398.9c0.8,0.4,1.7,0.6,1.7,0.6c1-1.1,0.3-2.7-0.7-3.8C-128.3,396.8-128.7,397.8-129.1,398.9z"/>
<path fill="#E8C5A3" d="M-183.4,424.1c-0.8,1.2-2.2,0.8-1.9-0.6c0.6-1.5,1.7-2.1,2.7-2.8c0.4-0.3,0.3,0.8,0,1.5
C-182.8,423-183.2,423.8-183.4,424.1z"/>
<path fill="#E8C5A3" d="M-168.9,422.4c0.1,1.2-1,1.7-1.5,0.7c-0.4-1.3-0.1-2.2,0.2-3.2c0.1-0.4,0.6,0.4,0.8,0.9
C-169.2,421.4-169,422.1-168.9,422.4z"/>
<path fill="#E8C5A3" d="M-145.3,407.5c1.1,0.2,1.3,1.3,0.2,1.5c-1.2,0.1-2-0.4-2.8-1c-0.3-0.2,0.5-0.5,1-0.5
C-146.3,407.5-145.6,407.5-145.3,407.5z"/>
<path fill="#E8C5A3" d="M-155.5,416.3c0.8,0.8,0.3,1.8-0.7,1.4c-1-0.7-1.4-1.6-1.7-2.5c-0.1-0.4,0.7-0.1,1.1,0.2
C-156.3,415.7-155.7,416.1-155.5,416.3z"/>
<path fill="none" d="M-159.8,424.2c-1.8-1.5-3.6-3.1-5.4-4.7c-1.2-1.1-2.5-2.1-3.6-3.2c-0.5-0.4-0.9-1.2-1.5-1.4
c-1.5-0.5-1.9,1.1-2.2,2.1c-0.3,1.4-0.8,2.7-1.2,4.1c-0.6,2.1-1.2,4.1-1.8,6.2c-0.4,1.3,0.8,1.5,1.4,1.4c5-0.6,9.8-1.7,14.2-3.4
C-159.6,425.2-158.9,425-159.8,424.2z"/>
<path fill="none" d="M-148.9,413.5c-4.7,0.1-9.4,0.2-14.1,0.3c-1.5,0-3-0.1-4.6-0.1c-2.9,0.1-1.6,1.3,0,2.7c2.7,2.4,5.5,4.8,8.2,7.2
c1,0.9,1.8,0.9,2.3,0.6c1.3-0.6,2.6-1.2,3.9-1.9c1-0.5,2-1.1,2.9-1.7c1.9-1.2,3.6-2.5,5.5-3.8c1.3-0.9,2.7-1.6,3.1-3.3
C-144.1,412.6-146.5,413.4-148.9,413.5z"/>
<path fill="none" d="M-171.3,413c1,0,2,0,3-0.1c2.2,0,4.4-0.1,6.5-0.1c2.7-0.1,5.4-0.1,8.1-0.2c2.5-0.1,5.1-0.1,7.6-0.2
c1,0,2.1-0.1,3.1-0.1c1.5,0.1,2.8,0,4-1c1-0.8,1.7-2,2.5-3c1.5-1.9,2.8-3.8,4-5.9c0.6-1,1.1-2,1.6-3.1c0.3-0.5,0.5-1,0.7-1.6
c0.1-0.2,0.4-1.4,0.6-1.5C-138.4,400.5-154.1,406.7-171.3,413L-171.3,413z"/>
<path fill="#E8C5A3" d="M-129.4,396.4c-0.2,0.1-0.5,1.2-0.6,1.5c-0.2,0.5-0.5,1.1-0.7,1.6c-0.5,1.1-1.1,2.1-1.6,3.1
c-1.2,2.1-2.5,4-4,5.9c-0.8,1-1.5,2.2-2.5,3c-1.2,1-2.5,1.1-4,1c-1,0-2.1,0-3.1,0.1c-2.5,0.1-5.1,0.1-7.6,0.2
c-2.7,0.1-5.4,0.1-8.1,0.2c-2.2,0-4.4,0.1-6.5,0.1c-1,0-2,0-3,0.1h0c-0.8,0.3-1.6,0.6-2.4,0.9c0.1,0,0.3,0.1,0.4,0.2
c1,0.7,0.3,2,0,2.9c-0.8,2.4-1.5,4.9-2.2,7.3c-0.3,1-0.4,2.1-0.8,3.1c-0.5,1.3-1.6,1.5-2.9,1.6c-6.8,0.5-13.7,0-20.2-1.6
c-2.8-0.5-5.4-1.2-7.8-2.1c-0.8,0.3-1.6,0.5-2.3,0.7c3.5,1.5,7.3,2.7,11.5,3.6c6.5,1.6,13.3,2.1,20,1.7c25.3-0.6,44.6-16.7,50-35.6
C-128.4,395.9-128.9,396.1-129.4,396.4z M-159.9,425.3c-4.4,1.7-9.2,2.8-14.2,3.4c-0.6,0.1-1.8-0.1-1.4-1.4c0.6-2,1.2-4.1,1.8-6.2
c0.4-1.4,0.9-2.7,1.2-4.1c0.2-1,0.7-2.6,2.2-2.1c0.6,0.2,1.1,1,1.5,1.4c1.2,1.1,2.4,2.1,3.6,3.2c1.8,1.6,3.6,3.2,5.4,4.7
C-158.9,425-159.6,425.2-159.9,425.3z M-144.8,416.9c-1.8,1.3-3.6,2.6-5.5,3.8c-1,0.6-1.9,1.1-2.9,1.7c-1.3,0.7-2.6,1.3-3.9,1.9
c-0.5,0.2-1.2,0.3-2.3-0.6c-2.7-2.4-5.5-4.8-8.2-7.2c-1.6-1.4-2.9-2.6,0-2.7c1.5-0.1,3,0.1,4.6,0.1c4.7-0.1,9.4-0.2,14.1-0.3
c2.4,0,4.8-0.8,7.2,0.2C-142.1,415.3-143.6,416-144.8,416.9z"/>
<path fill="#F09A36" d="M-129.4,396.4c0.5-0.2,1-0.4,1.4-0.6C-128.4,395.9-128.9,396.1-129.4,396.4L-129.4,396.4z"/>
<path fill="#F09A36" d="M-119.3,359.2c0.4,12.2,0.1,34.9-1.1,57.8c-0.3,6.4-0.7,12.6-1.1,18.1c-0.3,3.7-0.5,6.8-0.7,9.5c0,0,0,0,0,0
c0,0,0,0,0,0c2.7-2.6,5.3-5.7,7.7-9.3c3.9-5.4,7-11.5,9.1-17.8c8.8-23.1,1.8-46.4-12.8-58.9C-118.6,358.2-119.4,358.6-119.3,359.2z"
/>
<path fill="#F09A36" d="M-90,384.5c-5.1-8.2-5.3-14.7-14-18c-1.5-0.5-2.9-1-4.2-1.6c-3.1-1.3-5.3-6.7-8-6.5c-0.2,0-1.2,0.1-2.1,0.2
c14.7,12.5,21.7,35.8,12.8,58.9c-2.1,6.4-5.2,12.4-9.1,17.8c-2.4,3.6-5,6.7-7.7,9.3c0.4,0,0.9,0,1.3,0c1.7-0.1,6.4-2,8-2.9
c2.7-1.5,5-4.7,7.3-6.8c4-3.7,4.3-5.5,7.5-9.6c3-3.8,4.4-7,6.2-11.6C-87.8,403.8-86,393.8-90,384.5z"/>
<path fill="#E8C5A3" d="M-114.2,419.6c0.8,1.2-0.1,2.4-1.3,1.5c-1.1-1.1-1.3-2.3-1.5-3.6c-0.1-0.5,0.9,0.1,1.4,0.6
C-115,418.7-114.4,419.3-114.2,419.6z"/>
<path fill="#E8C5A3" d="M-110.2,405.6c1.2,0.3,1.2,1.5,0,1.7c-1.3-0.1-2.1-0.7-2.9-1.4c-0.3-0.3,0.6-0.4,1.2-0.4
C-111.3,405.5-110.5,405.6-110.2,405.6z"/>
<path fill="#E8C5A3" d="M-115,378.1c0.6-0.9,1.7-0.7,1.5,0.4c-0.4,1.2-1.2,1.7-2,2.2c-0.3,0.2-0.2-0.6-0.1-1.1
C-115.4,379-115.2,378.4-115,378.1z"/>
<path fill="#E8C5A3" d="M-110.8,390.9c1-0.4,1.7,0.4,1,1.2c-1,0.7-1.9,0.7-2.9,0.6c-0.4,0,0.2-0.7,0.6-0.9
C-111.6,391.4-111.1,391-110.8,390.9z"/>
<path fill="none" d="M-105.1,397.9c-2.1,1.1-4.3,2.2-6.4,3.2c-1.4,0.7-2.9,1.5-4.3,2.2c-0.6,0.3-1.5,0.4-1.9,0.9
c-1.1,1.2,0.3,2.2,1.1,2.8c1.2,0.8,2.2,1.8,3.3,2.7c1.7,1.3,3.3,2.6,5,4c1,0.8,1.7-0.2,1.8-0.8c1.4-4.9,2.1-9.7,2.3-14.5
C-104.1,398-104.1,397.3-105.1,397.9z"/>
<path fill="none" d="M-110.9,383.7c-1.7,4.4-3.4,8.8-5.1,13.1c-0.6,1.4-1.3,2.8-1.8,4.2c-1,2.8,0.5,2,2.5,1c3.3-1.6,6.5-3.2,9.8-4.9
c1.2-0.6,1.5-1.3,1.5-1.8c0-1.4-0.1-2.9-0.3-4.3c-0.1-1.1-0.3-2.2-0.4-3.3c-0.3-2.2-0.9-4.3-1.4-6.5c-0.3-1.5-0.4-3.1-1.8-4.1
C-109.9,378.9-110,381.4-110.9,383.7z"/>
<path fill="none" d="M-119.8,404.2c0.4-0.9,0.7-1.9,1.1-2.8c0.8-2,1.6-4.1,2.4-6.1c1-2.5,1.9-5,2.9-7.5c0.9-2.4,1.8-4.7,2.8-7.1
c0.4-1,0.7-1.9,1.1-2.9c0.6-1.4,1.1-2.6,0.6-4.1c-0.4-1.3-1.2-2.4-1.8-3.5c-1.2-2.1-2.5-4.1-3.9-5.9c-0.7-0.9-1.5-1.8-2.2-2.7
c-0.4-0.4-0.8-0.9-1.2-1.3c-0.2-0.2-1.1-0.9-1.2-1.1C-119,369.1-119.1,385.9-119.8,404.2C-119.8,404.2-119.8,404.2-119.8,404.2z"/>
<path fill="#E8C5A3" d="M-119.3,359.2c0,0.2,1,0.9,1.2,1.1c0.4,0.4,0.8,0.8,1.2,1.3c0.8,0.9,1.5,1.8,2.2,2.7
c1.5,1.9,2.8,3.9,3.9,5.9c0.6,1.1,1.4,2.2,1.8,3.5c0.5,1.5,0,2.7-0.6,4.1c-0.4,0.9-0.8,1.9-1.1,2.9c-0.9,2.4-1.8,4.7-2.8,7.1
c-1,2.5-1.9,5-2.9,7.5c-0.8,2-1.6,4.1-2.4,6.1c-0.4,0.9-0.7,1.9-1.1,2.8c0,0,0,0,0,0c0,0.8-0.1,1.7-0.1,2.5c0.1-0.1,0.2-0.2,0.3-0.3
c1.1-0.7,1.9,0.5,2.7,1.1c1.9,1.7,4,3.2,6,4.8c0.8,0.7,1.8,1.2,2.6,1.9c1,1,0.8,2.1,0.4,3.2c-2.1,6.5-5.2,12.6-9.1,18.1
c-1.6,2.4-3.2,4.5-4.9,6.5c-0.1,0.8-0.1,1.6-0.2,2.4c2.7-2.6,5.3-5.7,7.7-9.3c3.9-5.4,7-11.5,9.1-17.8c8.8-23.1,1.8-46.4-12.8-58.9
C-118.6,358.2-119.4,358.6-119.3,359.2z M-104.1,398.4c-0.1,4.7-0.9,9.6-2.3,14.5c-0.2,0.6-0.8,1.6-1.8,0.8c-1.7-1.3-3.3-2.7-5-4
c-1.1-0.9-2.2-1.9-3.3-2.7c-0.8-0.6-2.2-1.6-1.1-2.8c0.4-0.5,1.4-0.6,1.9-0.9c1.5-0.7,2.9-1.5,4.3-2.2c2.1-1,4.3-2.1,6.4-3.2
C-104.1,397.3-104.1,398-104.1,398.4z M-106.2,381.2c0.5,2.2,1.1,4.3,1.4,6.5c0.2,1.1,0.3,2.2,0.4,3.3c0.1,1.4,0.2,2.9,0.3,4.3
c0,0.5-0.2,1.2-1.5,1.8c-3.3,1.6-6.5,3.2-9.8,4.9c-1.9,1-3.5,1.7-2.5-1c0.5-1.4,1.2-2.8,1.8-4.2c1.7-4.4,3.4-8.8,5.1-13.1
c0.9-2.3,1.1-4.8,2.9-6.6C-106.7,378.1-106.6,379.7-106.2,381.2z"/>
</svg>
