<?xml version="1.0" encoding="utf-8"?>
<!DOCTYPE svg PUBLIC "-//W3C//DTD SVG 1.1//EN" "http://www.w3.org/Graphics/SVG/1.1/DTD/svg11.dtd">
<svg version="1.1" xmlns="http://www.w3.org/2000/svg" xmlns:xlink="http://www.w3.org/1999/xlink" x="0px" y="0px" width="160px"
  height="160px" viewBox="0 0 160 160" enable-background="new 0 0 160 160" xml:space="preserve">

  <rect x="48.44927" y="37.07983" transform="matrix(-0.97806 0.20834 -0.20834 -0.97806 167.38509 147.25108)" fill="#D6703E" width="54.97694" height="90.72169"/>
  <path fill="#D6703E" d="M92.72375,33.34811l18.54956,87.08218L59.1532,131.53229L40.60193,44.45126L92.72375,33.34811
     M94.02118,31.34827l-1.64862,0.3512L40.25073,42.80261l-1.64868,0.3512l0.35126,1.64865l18.55127,87.08102l0.3512,1.64862
    l1.64862-0.3512l52.12012-11.10199l1.64862-0.35114l-0.3512-1.64868L94.37238,32.99692L94.02118,31.34827L94.02118,31.34827z"/>
  <path fill="#D6703E" d="M74.38867,139.67627c-8.99365,0-14.86084-2.3374-15.69434-6.25342
    c-0.62842-2.94678,1.69873-6.2627,6.55225-9.33691c4.6167-2.92383,11.04492-5.36182,18.10059-6.86475
    c4.61523-0.9834,9.25635-1.50293,13.42139-1.50293c8.99365,0,14.86084,2.33691,15.69482,6.25098
    c1.25098,5.87402-9.57812,12.9917-24.65283,16.2041C83.19482,139.15674,78.55371,139.67627,74.38867,139.67627z"/>
  <path fill="#C46738" d="M96.76892,116.56122c8.17651-0.00031,14.10767,2.00372,14.87042,5.5838
    c1.13525,5.33124-9.61176,12.13739-24.00433,15.2041c-4.72327,1.0061-9.2525,1.48438-13.24622,1.48438
    c-8.17542,0-14.10742-2.00391-14.87012-5.58594c-1.13586-5.32794,9.61169-12.13629,24.00433-15.2019
    C88.24554,117.03955,92.7757,116.56134,96.76892,116.56122 M96.77069,114.87561v1.68561l-0.00073-1.68561h-0.0011
    c-4.224,0.00012-8.92578,0.52625-13.59711,1.52142c-7.15088,1.52313-13.677,4.00098-18.37604,6.97717
    c-5.17322,3.27649-7.63281,6.90771-6.9256,10.22479c0.93634,4.39771,6.95721,6.9201,16.51868,6.9201
    c4.22308,0,8.92499-0.52606,13.59741-1.52136c13.43225-2.86206,26.86475-9.86426,25.30182-17.2038
    C112.35126,117.39716,106.33093,114.87561,96.77069,114.87561L96.77069,114.87561z"/>

  <path fill="#FFFFFF" d="M56.43994,53.82959l0.34424-0.00293c3.9751-0.03516,8.38184-0.54492,12.74414-1.4751
    c6.9292-1.47559,13.22705-3.86035,17.7334-6.71484c4.42773-2.8042,6.57764-5.70068,6.05469-8.15576l0.5498-0.11719
    l15.62598,73.35547c0.57568,2.70166-1.66309,5.80811-6.30371,8.74707c-4.56104,2.88916-10.92432,5.30029-17.91699,6.79004
    c-4.40527,0.93848-8.85107,1.45264-12.85693,1.48682l-0.22949,0.00195L56.43994,53.82959z"/>
  <path fill="#D6703E" d="M93.59125,37.42227l15.62604,73.35571c1.13641,5.33072-9.61169,12.13736-24.00427,15.20358
    c-4.54877,0.96906-8.91711,1.44745-12.80084,1.48096L56.78662,54.10739c3.88263-0.034,8.25092-0.51135,12.80023-1.48093
    C83.97955,49.56079,94.72705,42.75409,93.59125,37.42227 M94.14081,37.30521l-0.54956,0.11707l-0.54956,0.11707
    c0.48956,2.29819-1.67188,5.16312-5.93011,7.86017c-4.47888,2.83679-10.74414,5.20822-17.64178,6.6774
    c-4.34558,0.92615-8.73303,1.43399-12.68805,1.46863l-0.68799,0.00601l0.14331,0.67291l15.62555,73.35513l0.09558,0.44873
    l0.4588-0.00397c4.02521-0.03473,8.49048-0.55109,12.91309-1.49323c7.02466-1.49658,13.42041-3.92126,18.00909-6.82751
    c4.74713-3.00653,7.02985-6.21802,6.42761-9.04279L94.14081,37.30521L94.14081,37.30521z"/>
  <linearGradient id="SVGID_1_" gradientUnits="userSpaceOnUse" x1="68.48616" y1="95.43418" x2="103.56892" y2="95.43418">
    <stop  offset="0" style="stop-color:#D0D2D3"/>
    <stop  offset="0.5" style="stop-color:#AAACAF"/>
    <stop  offset="1" style="stop-color:#A6A8AB"/>
  </linearGradient>
  <path fill="url(#SVGID_1_)" d="M103.11184,87.55554c-6.123,10.32174-23.91158,13.02302-34.62568,13.61237l0.45653,2.14491
    c10.71516-0.59042,28.50318-3.28901,34.62624-13.61237L103.11184,87.55554L103.11184,87.55554z"/>
  <linearGradient id="SVGID_2_" gradientUnits="userSpaceOnUse" x1="69.83708" y1="101.77887" x2="104.92097" y2="101.77887">
    <stop  offset="0" style="stop-color:#D0D2D3"/>
    <stop  offset="0.5" style="stop-color:#AAACAF"/>
    <stop  offset="1" style="stop-color:#A6A8AB"/>
  </linearGradient>
  <path fill="url(#SVGID_2_)" d="M104.46332,93.8997c-6.12305,10.32286-23.91107,13.02358-34.62624,13.61294l0.45708,2.14542
    c10.71461-0.59093,28.50262-3.29115,34.6268-13.61344L104.46332,93.8997L104.46332,93.8997z"/>
  <linearGradient id="SVGID_3_" gradientUnits="userSpaceOnUse" x1="71.18913" y1="108.12331" x2="106.2724" y2="108.12331">
    <stop  offset="0" style="stop-color:#D0D2D3"/>
    <stop  offset="0.5" style="stop-color:#AAACAF"/>
    <stop  offset="1" style="stop-color:#A6A8AB"/>
  </linearGradient>
  <path fill="url(#SVGID_3_)" d="M105.81537,100.24442c-6.12305,10.3223-23.91164,13.02251-34.62624,13.61293l0.45653,2.14486
    c10.71516-0.59037,28.50262-3.29058,34.62675-13.61288L105.81537,100.24442L105.81537,100.24442z"/>
  <linearGradient id="SVGID_4_" gradientUnits="userSpaceOnUse" x1="72.54005" y1="114.46803" x2="107.62332" y2="114.46803">
    <stop  offset="0" style="stop-color:#D0D2D3"/>
    <stop  offset="0.5" style="stop-color:#AAACAF"/>
    <stop  offset="1" style="stop-color:#A6A8AB"/>
  </linearGradient>
  <path fill="url(#SVGID_4_)" d="M107.16679,106.58913c-6.12357,10.32286-23.91158,13.02195-34.62675,13.61343l0.45708,2.14435
    c10.71461-0.58986,28.50369-3.29002,34.62619-13.61231L107.16679,106.58913L107.16679,106.58913z"/>
  <path fill="#DCCD9A" d="M96.71009,57.50282c-6.12305,10.32281-23.91107,13.02302-34.62624,13.61344l2.74134,12.86884
    c10.71516-0.58986,28.50318-3.29007,34.6268-13.61231L96.71009,57.50282z"/>
  <linearGradient id="SVGID_5_" gradientUnits="userSpaceOnUse" x1="62.08385" y1="70.74396" x2="99.452" y2="70.74396">
    <stop  offset="0" style="stop-color:#231F20;stop-opacity:0.3"/>
    <stop  offset="1" style="stop-color:#231F20;stop-opacity:0"/>
  </linearGradient>
  <path fill="url(#SVGID_5_)" d="M96.71009,57.50282c-6.12305,10.32281-23.91107,13.02302-34.62624,13.61344l2.74134,12.86884
    c10.71516-0.58986,28.50318-3.29007,34.6268-13.61231L96.71009,57.50282z"/>
  <linearGradient id="SVGID_6_" gradientUnits="userSpaceOnUse" x1="34.4625" y1="46.62106" x2="102.15382" y2="46.62106">
    <stop  offset="0" style="stop-color:#D0D2D3"/>
    <stop  offset="0.5" style="stop-color:#AAACAF"/>
    <stop  offset="1" style="stop-color:#A6A8AB"/>
  </linearGradient>
  <path fill="url(#SVGID_6_)" d="M102.09018,39.42453c1.13583,5.33014-13.06915,12.87379-31.72634,16.84862
    c-18.65713,3.97427-34.70248,2.87468-35.83776-2.45602c-1.13527-5.32907,13.06803-12.87379,31.72577-16.84862
    C84.90899,32.99418,100.95541,34.09546,102.09018,39.42453z"/>
  <linearGradient id="SVGID_7_" gradientUnits="userSpaceOnUse" x1="30.41297" y1="36.96904" x2="102.09018" y2="36.96904">
    <stop  offset="0" style="stop-color:#D0D2D3"/>
    <stop  offset="0.5" style="stop-color:#AAACAF"/>
    <stop  offset="1" style="stop-color:#A6A8AB"/>
  </linearGradient>
  <polygon fill="url(#SVGID_7_)" points="97.97813,20.12096 30.41297,34.51356 34.52552,53.81713 102.09018,39.42453"/>
  <path fill="#FFFFFF" d="M45.67139,38.79541c-8.49414,0-14.13037-1.68555-14.7085-4.39893
    c-0.93555-4.396,11.41553-11.94775,31.29395-16.18213c7.2959-1.5542,14.37158-2.37549,20.46191-2.37549
    c8.49512,0,14.13184,1.68555,14.70996,4.39941c0.48486,2.27734-2.4873,5.30908-8.15479,8.31885
    c-5.94727,3.1582-14.16504,5.9502-23.13916,7.8623C58.83789,37.97363,51.76172,38.79541,45.67139,38.79541z"/>
  <path fill="#BBBDBF" d="M82.71881,15.27695v1.12375c9.82977,0,13.77155,2.13025,14.16028,3.95447
    c0.41644,1.95456-2.59869,4.90723-7.86877,7.70569c-5.90259,3.13437-14.06818,5.90747-22.99261,7.80856
    c-7.25928,1.54651-14.2951,2.36395-20.34674,2.36395c-9.82849,0-13.76971-2.13-14.15833-3.9538
    c-0.86121-4.04578,11.60126-11.41281,30.86133-15.51553c7.258-1.54608,14.29315-2.36331,20.34485-2.36334V15.27695
     M82.71844,15.27695c-5.8847,0.00003-13.01733,0.77734-20.57861,2.388c-18.65723,3.9743-32.86108,11.51791-31.72632,16.8486
    c0.67554,3.17029,6.62189,4.84357,15.25745,4.84357c5.8847,0,13.01941-0.77771,20.58087-2.38861
    C84.909,32.99417,99.11395,25.45166,97.97815,20.12097C97.30261,16.95065,91.35406,15.27689,82.71844,15.27695L82.71844,15.27695z"/>

</svg>
