<?xml version="1.0" encoding="utf-8"?>
<!DOCTYPE svg PUBLIC "-//W3C//DTD SVG 1.1//EN" "http://www.w3.org/Graphics/SVG/1.1/DTD/svg11.dtd">
<svg version="1.1" xmlns="http://www.w3.org/2000/svg" xmlns:xlink="http://www.w3.org/1999/xlink" x="0px" y="0px" width="160px"
  height="160px" viewBox="0 0 160 160" enable-background="new 0 0 160 160" xml:space="preserve">
  <linearGradient id="SVGID_1_" gradientUnits="userSpaceOnUse" x1="67.36694" y1="103.54018" x2="78.1124" y2="103.54018">
    <stop  offset="0" style="stop-color:#919397"/>
    <stop  offset="0.5" style="stop-color:#62696A"/>
    <stop  offset="1" style="stop-color:#505458"/>
  </linearGradient>
  <path fill="url(#SVGID_1_)" d="M78.1124,118.63465h-7.28963c0,0,0-0.29905,0-0.83869c0-0.26868,0-0.59809-0.00243-0.97854
    c-4.19426-9.11662-5.07795-18.83605,0.22362-27.67187c0.88374-1.32494,4.41731-0.44187,6.62656,0
    c-3.97606,7.51025-2.20924,15.46231,0.1714,23.40168c0.08202,0.47038,0.17202,0.94082,0.27048,1.41064
    c0,0.56094,0,1.08483,0,1.5638C78.1124,117.43736,78.1124,118.63465,78.1124,118.63465z"/>
  <linearGradient id="SVGID_2_" gradientUnits="userSpaceOnUse" x1="-768.68188" y1="-143.72475" x2="-760.49591" y2="-143.72475" gradientTransform="matrix(0.663 0.7486 -0.7486 0.663 487.9064 773.78137)">
    <stop  offset="0" style="stop-color:#919397"/>
    <stop  offset="0.5" style="stop-color:#62696A"/>
    <stop  offset="1" style="stop-color:#505458"/>
  </linearGradient>
  <path fill="url(#SVGID_2_)" d="M68.70713,124.61028c-1.10437-1.19125-2.89969-2.55142-2.86204-3.17502
    c2.797-4.83784,9.10928-5.70759,13.86211-8.47354c0.37677-0.25043,0.74876-0.50567,1.11526-0.76581
    c4.39964-3.12878,8.09122-7.04044,10.00697-12.23626c0.27409-0.3975,0.56883-0.77919,0.87273-1.15354
    c4.2471-5.24268,9.51163-9.54872,15.99294-12.07643c0.62416,0.03828,1.75766,1.98433,2.92944,3.30684
    c-5.59637,2.82619-10.25554,6.36094-14.16962,10.77458c-0.30147,0.33919-0.59802,0.68435-0.89034,1.03442
    c-2.25307,5.09438-5.81824,9.0163-9.94741,12.26003c-0.37503,0.29537-0.75485,0.58346-1.13898,0.86787
    c-4.97887,3.22121-10.99826,4.42093-15.22955,8.98163C68.89005,124.37808,68.70713,124.61028,68.70713,124.61028z"/>
  <linearGradient id="SVGID_3_" gradientUnits="userSpaceOnUse" x1="31.01092" y1="62.29092" x2="118.31465" y2="62.29092">
    <stop  offset="0" style="stop-color:#95CAC6"/>
    <stop  offset="0.5" style="stop-color:#68B8B2"/>
    <stop  offset="0.64037" style="stop-color:#5DB3AC"/>
    <stop  offset="1" style="stop-color:#46A8A0"/>
  </linearGradient>
  <path fill="url(#SVGID_3_)" d="M118.31465,64.55325c0,6.10994-0.66792,24.57893-6.33237,28.56893
    c-4.66644,3.28624-4.71262-11.781-19.43893-5.00743c-5.93979,2.73259-9.78149,8.50702-15.46175,8.83581
    c-4.22519,0.24434-10.4537-3.3865-13.40013-3.97606c-13.25431-2.65106-17.20971-2.60856-25.18243-6.92132
    c-9.64475-5.2171-7.2155-9.16454-7.2155-21.49993c0-23.12025,29.95648-35.09088,50.21537-36.81519
    C102.26284,25.97131,118.31465,44.22085,118.31465,64.55325z"/>
  <linearGradient id="SVGID_4_" gradientUnits="userSpaceOnUse" x1="87.68001" y1="100.64227" x2="94.74955" y2="108.62442">
    <stop  offset="0" style="stop-color:#919397"/>
    <stop  offset="0.5" style="stop-color:#62696A"/>
    <stop  offset="1" style="stop-color:#505458"/>
  </linearGradient>
  <path fill="url(#SVGID_4_)" d="M85.14126,107.32036l5.69788,4.76739c2.66569-2.84804,5.03843-5.99506,7.00639-9.51225
    l-6.34999-5.31252C89.91108,101.0214,87.73344,104.34473,85.14126,107.32036z"/>
  <linearGradient id="SVGID_5_" gradientUnits="userSpaceOnUse" x1="62.59512" y1="122.04501" x2="67.47864" y2="127.55894">
    <stop  offset="0" style="stop-color:#919397"/>
    <stop  offset="0.5" style="stop-color:#62696A"/>
    <stop  offset="1" style="stop-color:#505458"/>
  </linearGradient>
  <path fill="url(#SVGID_5_)" d="M65.50354,119.46911c-1.2289,2.9155-2.85407,6.81252-4.22768,8.38728l3.01701,2.52409
    c1.41125-1.5079,4.60931-4.063,6.13608-6.7913L65.50354,119.46911z M64.21202,128.66956c-0.72386,0-1.30975-0.5865-1.30975-1.30975
    c0-0.72324,0.58589-1.30913,1.30975-1.30913c0.72387,0,1.30975,0.58588,1.30975,1.30913
    C65.52177,128.08305,64.93589,128.66956,64.21202,128.66956z"/>
  <linearGradient id="SVGID_6_" gradientUnits="userSpaceOnUse" x1="78.33178" y1="36.8983" x2="84.45388" y2="43.81071">
    <stop  offset="0" style="stop-color:#919397"/>
    <stop  offset="0.5" style="stop-color:#62696A"/>
    <stop  offset="1" style="stop-color:#505458"/>
  </linearGradient>
  <path fill="url(#SVGID_6_)" d="M84.84894,41.98491c0,1.8306-1.50729,3.31356-3.36827,3.31356
    c-1.85979,0-3.36826-1.48296-3.36826-3.31356c0-1.82943,1.50847-7.50969,3.36826-7.50969
    C83.34164,34.47521,84.84894,40.15548,84.84894,41.98491z"/>
  <linearGradient id="SVGID_7_" gradientUnits="userSpaceOnUse" x1="-871.1687" y1="-254.6633" x2="-866.41174" y2="-249.29225" gradientTransform="matrix(0.5721 0.8202 -0.8202 0.5721 360.89761 890.68799)">
    <stop  offset="0" style="stop-color:#919397"/>
    <stop  offset="0.5" style="stop-color:#62696A"/>
    <stop  offset="1" style="stop-color:#505458"/>
  </linearGradient>
  <path fill="url(#SVGID_7_)" d="M70.72189,36.09316c-2.11752,0.70986-4.87251,0.70376-6.15251-0.01463
    c-1.28056-0.71777-0.60226-1.8756,1.51638-2.58665c2.11751-0.70992,9.72865-2.33328,11.00921-1.61546
    C78.37492,32.59482,72.83997,35.38205,70.72189,36.09316z"/>
  <linearGradient id="SVGID_8_" gradientUnits="userSpaceOnUse" x1="264.35101" y1="1313.354" x2="270.99463" y2="1320.85522" gradientTransform="matrix(0.2764 -0.9611 0.9611 0.2764 -1247.38745 -73.6236)">
    <stop  offset="0" style="stop-color:#919397"/>
    <stop  offset="0.5" style="stop-color:#62696A"/>
    <stop  offset="1" style="stop-color:#505458"/>
  </linearGradient>
  <path fill="url(#SVGID_8_)" d="M95.43631,31.78401c1.9333,0.31971,3.08504,1.34442,2.57271,2.29009
    c-0.51176,0.94449-2.49249,1.45134-4.4264,1.13288c-1.93391-0.32089-7.51816-2.0798-7.00701-3.02423
    C87.08794,31.23702,93.50302,31.46312,95.43631,31.78401z"/>

</svg>
