<?xml version="1.0" encoding="utf-8"?>
<!DOCTYPE svg PUBLIC "-//W3C//DTD SVG 1.1//EN" "http://www.w3.org/Graphics/SVG/1.1/DTD/svg11.dtd">
<svg version="1.1" xmlns="http://www.w3.org/2000/svg" xmlns:xlink="http://www.w3.org/1999/xlink" x="0px" y="0px" width="160px"
  height="160px" viewBox="0 0 160 160" enable-background="new 0 0 160 160" xml:space="preserve">
  <polygon fill="#AA9559" points="83.34527,27.20668 69.68974,27.15026 69.70187,18.43273 83.35741,18.48583"/>
  <path fill="#AA9559" d="M68.31745,22.79232c-0.0033,2.40635,0.61175,4.35794,1.37228,4.35794
    c0.76273,0.00166,1.38109-1.94331,1.38329-4.35297c0.00443-2.4063-0.61062-4.36125-1.37005-4.36457
    C68.9402,18.43273,68.31965,20.38266,68.31745,22.79232z"/>
  <path fill="#AA9559" d="M81.97299,22.84211c-0.0022,2.40966,0.61174,4.3596,1.37228,4.36457
    c0.76164,0.00166,1.38112-1.94331,1.38332-4.35463c0.0044-2.40796-0.61065-4.36457-1.37119-4.36622
    C82.59687,18.48583,81.97632,20.43577,81.97299,22.84211z"/>
  <path fill="#AA9559" d="M83.3508,18.48417c0-0.22572-3.0554-1.0754-6.82391-1.0754c-3.76964,0-6.82502,0.84968-6.82502,1.0754
    c0,0.22733,3.05538,0.4132,6.82502,0.4132C80.29539,18.89738,83.3508,18.71151,83.3508,18.48417z"/>
  <polygon fill="#9B7761" points="86.78973,34.66279 66.22973,34.60637 66.248,25.88884 86.80799,25.94194"/>
  <polygon fill="#9B7761" points="108.22765,146.98193 44.30226,146.86246 44.51136,70.65485 108.43842,70.77934"/>
  <path fill="#9B7761" d="M64.1636,30.24843c-0.00497,2.40635,0.92106,4.35794,2.06613,4.35794
    c1.14839,0.00166,2.07939-1.94331,2.0827-4.35297c0.00667-2.4063-0.91936-4.36125-2.06277-4.36457
    C65.10123,25.88884,64.16692,27.83877,64.1636,30.24843z"/>
  <path fill="#9B7761" d="M78.28461,28.81791c3.20955,0.00833-8.92332,11.80099-8.91836,8.5931
    c0.00497-3.21949,0.07138-2.79966-3.13652-2.80463c-3.21286-0.00663,6.41243-8.62628,6.40581-5.41176
    C72.63222,32.40085,75.07175,28.81128,78.28461,28.81791z"/>
  <path fill="#9B7761" d="M75.07671,70.71293c-0.00497,3.20624-14.54751-22.94476-11.45245-23.77617
    c3.04858-0.81982,5.7337-4.07916,5.73867-7.2854c0.00497-3.21452,8.96649-5.80006,5.75197-5.80669
    C71.90868,33.83966,75.08169,67.50007,75.07671,70.71293z"/>
  <path fill="#9B7761" d="M77.59756,70.72287c-0.00497,3.20956,15.56313-22.30749,12.37351-23.59361
    c-2.98218-1.20315-6.30958-4.18371-6.30457-7.39492c0.00497-3.21121-9.24863-5.88304-6.03246-5.87807
    C80.84194,33.86124,77.60252,67.51001,77.59756,70.72287z"/>
  <path fill="#9B7761" d="M76.49895,46.26296c3.20786,0.00833,5.83656-14.21392,5.84158-17.42513
    c0.00662-3.21452,7.65709,5.83163,4.4492,5.82496c-3.21452-0.00497-3.105-0.67873-3.11163,2.54077
    C83.67313,40.40813,73.28444,46.25633,76.49895,46.26296z"/>
  <ellipse fill="#9B7761" cx="86.79803" cy="30.30322" rx="2.07444" ry="4.3596"/>
  <polygon fill="#9B7761" points="83.63328,76.53458 69.31315,76.50471 69.37122,34.61636 83.67147,34.64954"/>
  <path fill="#9B7761" d="M108.22765,146.98193c-0.00501,3.21286-14.21811,5.84404-31.87227,5.8092
    c-17.65081-0.03319-32.05975-2.71747-32.05313-5.92868c0.00497-3.20457,14.4222-5.72295,32.07305-5.68976
    C94.03113,141.20592,108.23594,143.77734,108.22765,146.98193z"/>
  <path fill="#9B7761" d="M108.43842,70.771c-0.00501,3.20956-14.32183,5.7835-31.976,5.75363
    c-17.6508-0.03484-31.95602-2.66354-31.95105-5.87475c0.00829-3.20293,0.01661-25.23661,31.97927-25.17352
    C108.45499,45.5361,108.44339,67.56311,108.43842,70.771z"/>
  <path fill="#FFFFFF" d="M76.45745,79.41721c-11.71632-0.02158-19.84473-0.87127-25.50375-2.12421l-0.18587,62.84834
    c3.64599,1.09032,12.16771,2.54073,25.50043,2.56561c13.33934,0.02657,21.86774-1.39565,25.51041-2.47104l0.19084-62.84834
    C96.30388,78.62229,88.17543,79.44211,76.45745,79.41721z"/>
  <path fill="#9B7761" d="M86.79805,25.94028c0-0.22572-4.60027-1.0754-10.27419-1.0754c-5.67563,0-10.27586,0.84968-10.27586,1.0754
    c0,0.22733,4.60023,0.4132,10.27586,0.4132C82.19778,26.35349,86.79805,26.16762,86.79805,25.94028z"/>

</svg>
