<?xml version="1.0" encoding="utf-8"?>
<!DOCTYPE svg PUBLIC "-//W3C//DTD SVG 1.1//EN" "http://www.w3.org/Graphics/SVG/1.1/DTD/svg11.dtd">
<svg version="1.1" xmlns="http://www.w3.org/2000/svg" xmlns:xlink="http://www.w3.org/1999/xlink" x="0px" y="0px" width="160px"
  height="160px" viewBox="0 0 160 160" enable-background="new 0 0 160 160" xml:space="preserve">
  <linearGradient id="SVGID_1_" gradientUnits="userSpaceOnUse" x1="32.68443" y1="52.10194" x2="128.53986" y2="114.09605">
    <stop  offset="0" style="stop-color:#B1D1E1"/>
    <stop  offset="0.2312" style="stop-color:#C9E1ED"/>
    <stop  offset="0.5" style="stop-color:#E9F6FD"/>
    <stop  offset="1" style="stop-color:#D2D8DE"/>
  </linearGradient>
  <path fill="url(#SVGID_1_)" d="M114.29137,82.31475c-0.09641-0.15331-0.20338-0.30599-0.32511-0.46051
    c-0.02721-0.03342-0.05259-0.07235-0.0779-0.10571c-0.02103-0.02721-0.04078-0.0538-0.06123-0.08159
    c-5.15235-6.70402-14.90077-14.09351-3.31147-37.89956c0.47842-2.88432,0.71459-5.9424,0.71459-9.11416
    c0-1.62946-0.11248-3.23177-0.33074-4.79325c-8.15788,3.03516-17.81047,4.79325-28.15845,4.79325
    c-10.34808,0-23.66515-1.75809-35.67173-4.79325c-0.32017,1.56148-0.48891,3.16379-0.48891,4.79325
    c0,4.7209,1.95216,9.19455,5.106,13.2101c5.54988,9.46965,8.91882,20.7517,1.46444,33.99092
    c-0.00867,0.01234-0.01551,0.02406-0.02228,0.03709c-0.8215,1.10648-1.59116,2.26057-2.3107,3.453
    c-0.84005,1.1801-1.64428,2.36324-2.23276,3.70963c-0.24422,0.55944-0.42158,1.12502-0.53724,1.69561
    c-2.3978,5.58507-3.74545,11.82294-3.74545,18.40765c0,11.90087,4.37971,22.67419,11.46074,30.48278
    c0,1.5318,12.44361,2.7731,27.79628,2.7731c15.35083,0,27.7957-1.2413,27.7957-2.7731
    c7.0804-7.80859,11.46005-18.58191,11.46005-30.48278C122.8152,99.0088,119.62242,89.68449,114.29137,82.31475z"/>
  <linearGradient id="SVGID_2_" gradientUnits="userSpaceOnUse" x1="56.48166" y1="44.41335" x2="101.48661" y2="15.30659">
    <stop  offset="0" style="stop-color:#ACC8E1"/>
    <stop  offset="0.5" style="stop-color:#85B1D4"/>
    <stop  offset="1" style="stop-color:#6EA4CC"/>
  </linearGradient>
  <path fill="url(#SVGID_2_)" d="M82.74408,25.06425c-10.35294,0-23.67128,1.75992-35.67476,4.79572
    c12.00348,3.03516,25.32182,4.79445,35.67476,4.79445c10.3456,0,20.00002-1.75929,28.15487-4.79445
    C102.74409,26.82418,93.08968,25.06425,82.74408,25.06425z"/>
  <linearGradient id="SVGID_3_" gradientUnits="userSpaceOnUse" x1="100.16547" y1="67.41762" x2="124.21854" y2="67.41762">
    <stop  offset="0" style="stop-color:#B1D1E1"/>
    <stop  offset="0.2312" style="stop-color:#C9E1ED"/>
    <stop  offset="0.5" style="stop-color:#E9F6FD"/>
    <stop  offset="1" style="stop-color:#D2D8DE"/>
  </linearGradient>
  <path fill="url(#SVGID_3_)" d="M111.19379,95.20715c-5.28471,0.38448-3.43636-7.15338-0.72883-7.58611
    c2.70752-0.43391,4.58305-0.85612,5.28712-1.74321c1.49906-1.88475,0.72516-7.69985-0.25401-15.05902
    c-0.36291-2.73228-0.77582-5.82681-1.15353-9.26133c-1.00634-9.15682-2.63834-12.47266-3.82825-13.64035
    c-0.78201-0.7684-1.63383-0.80176-4.36427-0.52362c-0.79618,0.08102,1.39088-0.28004-2.49553,0.19534
    c-3.88573,0.47475-5.2618-6.72371-0.26206-7.61819c1.98553-0.16015,1.28391-0.08843,1.98553-0.16015
    c2.96718-0.30226,7.02975-0.71516,10.47536,2.66739c3.14587,3.08833,5.01701,8.7155,6.06602,18.24566
    c0.3672,3.34799,0.77333,6.3986,1.13187,9.09068c1.35811,10.21703,2.1803,16.38383-1.33335,20.80487
    C118.96284,94.09136,114.39095,94.90052,111.19379,95.20715C111.19379,95.20715,116.47598,94.82203,111.19379,95.20715z"/>
  <linearGradient id="SVGID_4_" gradientUnits="userSpaceOnUse" x1="50.48869" y1="32.85836" x2="95.06196" y2="32.85836">
    <stop  offset="0" style="stop-color:#F1E2C5"/>
    <stop  offset="0.30386" style="stop-color:#EFD468"/>
    <stop  offset="0.5" style="stop-color:#EECB30"/>
    <stop  offset="0.72536" style="stop-color:#E8C519"/>
    <stop  offset="1" style="stop-color:#E2BE02"/>
  </linearGradient>
  <path fill="url(#SVGID_4_)" d="M72.68783,34.18462c0.05254-0.43519,0.08843-0.87588,0.08843-1.32594
    c0-2.70569-0.98722-5.17647-2.61359-7.0866c-2.00716-2.35703-4.99106-3.8561-8.32854-3.8561
    c-4.59601,0-8.52319,2.83551-10.14405,6.8517c-0.2639,0.65338-0.46671,1.33772-0.60083,2.04674
    c-0.12547,0.66389-0.19782,1.34512-0.19782,2.04427c0,6.04254,4.89896,10.94207,10.9427,10.94207
    c1.22396,0,2.39603-0.20952,3.4951-0.57983c-1.70182-2.40216-3.4951-4.59538-3.4951-10.36161c0-0.00127,0-0.00183,0-0.0043
    C65.52641,33.43356,69.18102,33.88236,72.68783,34.18462z"/>
  <linearGradient id="SVGID_5_" gradientUnits="userSpaceOnUse" x1="51.14369" y1="115.19913" x2="115.97345" y2="115.19913">
    <stop  offset="0" style="stop-color:#A36C35"/>
    <stop  offset="0.08194" style="stop-color:#B5773C"/>
    <stop  offset="0.18498" style="stop-color:#C48142"/>
    <stop  offset="0.30778" style="stop-color:#CC8645"/>
    <stop  offset="0.5" style="stop-color:#CF8846"/>
    <stop  offset="0.66531" style="stop-color:#CC8645"/>
    <stop  offset="0.80242" style="stop-color:#C17F41"/>
    <stop  offset="0.92908" style="stop-color:#B0743A"/>
    <stop  offset="1" style="stop-color:#A36C35"/>
  </linearGradient>
  <path fill="url(#SVGID_5_)" d="M115.97345,109.15722c0-4.80439-0.82031-9.4437-2.40471-13.7572
    c-5.42619,0.97665-10.79312,3.66259-15.86761,5.72661c-0.73434,0.23061-1.48045,0.44266-2.22847,0.64104
    c-0.87467,0.25098-1.83095,0.41727-2.74151,0.49393c-0.22813,0.01981-0.45254,0.034-0.67193,0.04083
    c-8.05528,0.38512-12.88004-5.12893-20.79563-2.02699c-0.26643-0.07666-0.53407-0.16135-0.80049-0.25219
    c-2.40279-0.8172-4.81737-2.17036-7.42969-3.87154c-0.3184-0.08596-0.63737-0.16628-0.95817-0.24174
    c-2.80955-0.66079-5.69698-0.87038-8.54548-0.42468c-1.58186,4.33889-2.38607,8.92755-2.38607,13.67194
    c0,8.77601,2.75511,17.06063,7.81169,23.64222h0.0012c0.01051,0.60889,11.02182,2.34962,24.60286,2.34962
    c13.58041,0,24.59172-1.74074,24.60286-2.34962h0.00063C113.21889,126.21785,115.97345,117.93266,115.97345,109.15722z"/>
  <linearGradient id="SVGID_6_" gradientUnits="userSpaceOnUse" x1="53.36418" y1="101.47874" x2="113.6377" y2="101.47874">
    <stop  offset="0" style="stop-color:#B3B5B9"/>
    <stop  offset="0.00814" style="stop-color:#B5B6BA"/>
    <stop  offset="0.09692" style="stop-color:#CAC3C0"/>
    <stop  offset="0.19627" style="stop-color:#D9CCC4"/>
    <stop  offset="0.31468" style="stop-color:#E1D1C6"/>
    <stop  offset="0.5" style="stop-color:#E4D3C7"/>
    <stop  offset="0.60343" style="stop-color:#E3D1C4"/>
    <stop  offset="0.68926" style="stop-color:#E1CBB9"/>
    <stop  offset="0.76879" style="stop-color:#DDC0A8"/>
    <stop  offset="0.84456" style="stop-color:#D8B290"/>
    <stop  offset="0.91766" style="stop-color:#D19F70"/>
    <stop  offset="0.98777" style="stop-color:#C9884A"/>
    <stop  offset="1" style="stop-color:#C78343"/>
  </linearGradient>
  <path fill="url(#SVGID_6_)" d="M97.70113,101.12663c-0.73434,0.23061-1.48045,0.44266-2.22847,0.64104
    c-0.87467,0.25098-1.83095,0.41727-2.74151,0.49393c-0.22813,0.01981-0.45254,0.034-0.67193,0.04083
    c-8.05528,0.38512-12.88004-5.12893-20.79563-2.02699c-0.26643-0.07666-0.53407-0.16135-0.80049-0.25219
    c-2.40279-0.8172-4.81737-2.17036-7.42969-3.87154c-0.3184-0.08596-0.63737-0.16628-0.95817-0.24174
    c-2.80955-0.66079-5.69698-0.87038-8.54548-0.42468c-1.58186,4.33889,8.56029,14.05331,13.7986,11.92126
    c0.73377-0.23054,1.48052-0.44196,2.2291-0.64104c0.87468-0.25092,1.83101-0.41721,2.74094-0.49323
    c0.22807-0.01981,0.45247-0.03406,0.67193-0.04083c2.78855-0.09147,5.54057,0.09704,8.31862,0.31277
    c3.16378,0.24668,6.372,0.20465,9.47211-0.53532c1.17574-0.28061,2.38299-0.80917,3.60448-0.70966
    c1.23573,0.09957,2.34158,0.02848,3.55694-0.24599c2.29582-0.51868,4.49215-1.38905,6.65883-2.29525
    c2.75759-1.15288,5.80389-2.57465,7.92918-4.72774c0.38942-0.39436,0.80853-0.83575,1.01438-1.36113
    c0.03829-0.09767,0.20274-1.29259,0.04697-1.26479C108.14313,96.37914,102.77689,99.06261,97.70113,101.12663z"/>
  <linearGradient id="SVGID_7_" gradientUnits="userSpaceOnUse" x1="52.60116" y1="32.85928" x2="88.87614" y2="32.85928">
    <stop  offset="0" style="stop-color:#F5F0D4"/>
    <stop  offset="0.5" style="stop-color:#F5EBA5"/>
    <stop  offset="1" style="stop-color:#ECE3A7"/>
  </linearGradient>
  <path fill="url(#SVGID_7_)" d="M61.83413,23.95404c-4.91808,0-8.9052,3.98719-8.9052,8.90527
    c0,4.91871,3.98713,8.90521,8.9052,8.90521c0.78631,0,1.54541-0.11185,2.27177-0.30346
    c-1.24067-1.91204-2.27177-4.2295-2.27177-8.60175c0-0.00127,0-0.00183,0-0.0043c2.98763,0.46791,5.94613,0.84682,8.82616,1.13554
    c0.04696-0.37151,0.07912-0.74675,0.07912-1.13123C70.73941,27.94123,66.75284,23.95404,61.83413,23.95404z"/>

</svg>
