<?xml version="1.0" encoding="utf-8"?>
<!DOCTYPE svg PUBLIC "-//W3C//DTD SVG 1.1//EN" "http://www.w3.org/Graphics/SVG/1.1/DTD/svg11.dtd">
<svg version="1.1" xmlns="http://www.w3.org/2000/svg" xmlns:xlink="http://www.w3.org/1999/xlink" x="0px" y="0px" width="160px"
  height="160px" viewBox="0 0 160 160" enable-background="new 0 0 160 160" xml:space="preserve">
  <path fill="#FBBE8D" d="M68.23148,55.0274c1.41502-4.20818,4.05634-7.86871,5.5564-12.04238
    c0.43021-1.19638,0.72471-2.44106,0.81223-3.71c-0.11509,1.68537,1.67265,3.15552,2.58607,4.37498
    c0.81211,1.086,1.65887,2.1455,2.52623,3.19121c2.96339,3.57654,4.08154,5.37806,4.9237,10.10739
    c1.11816,6.29148-2.42504,12.1769-5.91994,16.44481c-0.82825-1.1469-1.70257-2.22018-2.93806-2.94843
    c-1.2931-0.76157-2.76796-1.10213-4.15529-1.65309c-2.92664-1.16198-4.23575-3.48571-4.45203-6.55959
    C66.99599,59.74743,67.45153,57.35231,68.23148,55.0274z"/>
  <path fill="#8DB936" d="M34.1039,107.7764c8.61415,3.46156,22.12208,6.43531,37.47983,6.43531
    c16.28272,0,33.09224-2.66311,45.91917-6.47089L94.68591,97.59079l27.52664,8.64066
    c10.48011-3.63638,17.32502-8.02975,17.32502-12.09409c0-9.1962-26.67307-16.65084-59.57211-16.65084
    c-32.90117,0-59.57199,7.45464-59.57199,16.65084c0,4.5015,4.37616,9.4033,12.705,13.23534l4.4267-3.10039L34.1039,107.7764z"/>
  <path fill="#F3806C" d="M85.44141,95.3752c4.37145,1.31831,9.61039,2.07647,14.04169,3.35802
    c1.26776,0.36695,2.43423,0.79138,3.40289,1.28379c-1.2885-0.65344-0.48086-1.74509-0.39121-2.49289
    c0.07362-0.66605,0.2025-1.33103,0.3613-1.99483c0.5407-2.27201,0.4348-3.31419-1.99024-5.46782
    c-3.22797-2.86443-10.93564-4.27827-17.47215-5.04668c-0.0483,0.69479-0.19555,1.37238-0.95018,2.01085
    c-0.79385,0.66605-2.06845,1.21252-3.09921,1.81872c-2.18343,1.28037-1.90731,2.58607,0.00695,3.89531
    C80.89961,93.79797,83.03015,94.64472,85.44141,95.3752z"/>

  <path fill="#F6996A" d="M97.09716,63.23774c6.9461-1.01579,13.99339,0.08281,20.95103-0.79033
    c1.99012-0.2508,3.95963-0.72353,5.80721-1.51267c-2.45496,1.04677-3.24882,4.6199-4.31173,6.77917
    c-0.94794,1.92462-1.83604,3.87798-2.68961,5.84631c-2.92204,6.73559-4.65677,9.60238-10.72172,14.17173
    c-8.06886,6.0798-18.89859,5.3022-27.41615,3.42929c1.0238-1.9867,1.91425-3.98837,2.05456-6.25002
    c0.1496-2.37097-0.43021-4.69364-0.64873-7.04163c-0.45565-4.95468,1.88433-8.46455,6.06023-10.96898
    C89.55747,64.87245,93.26405,63.80035,97.09716,63.23774z"/>

  <path fill="#F3806C" d="M62.76708,98.59857c-5.46429-0.31064-10.63195-1.74168-16.08022-2.12936
    c-1.55991-0.10932-3.14056-0.09778-4.68668,0.08976c2.05467-0.24973,3.28781-2.02475,4.47735-3.02782
    c1.06068-0.88821,2.08448-1.80623,3.07848-2.73344c3.40973-3.16812,5.23658-4.45768,10.65952-6.11431
    c7.20844-2.2064,15.31405-0.48204,21.46405,1.52893c-1.13194,0.91908-2.16046,1.85783-2.66665,3.02429
    c-0.52916,1.22406-0.49924,2.50785-0.75004,3.76302c-0.52456,2.65051-2.92191,4.20241-6.54345,5.00533
    C68.79057,98.65842,65.78571,98.76879,62.76708,98.59857z"/>

  <path fill="#F3806C" d="M70.64733,58.72021c-6.2168-3.26366-13.22956-4.56712-19.50149-7.70073
    c-1.79693-0.89622-3.4949-1.99483-4.97659-3.35342c1.9695,1.80152,1.52999,5.43448,1.8153,7.82607
    c0.25774,2.13054,0.44634,4.26802,0.59819,6.40539c0.51773,7.32459,1.20568,10.60556,5.41151,16.92921
    c5.59092,8.41283,16.06868,11.27384,24.72194,12.33452c-0.30605-2.21335,5.1077-2.71494,5.72439-4.89602
    c0.64413-2.2858-3.62613-5.966-2.64132-8.10796c2.07764-4.52459,1.03535-8.61073-2.07305-12.35985
    C77.2114,62.765,74.07544,60.52279,70.64733,58.72021z"/>

  <path fill="#FBBE8D" d="M86.78503,58.72021c6.21668-3.26366,13.23181-4.56712,19.5015-7.70073
    c1.79693-0.89622,3.4949-1.99483,4.97895-3.35342c-1.97186,1.80152-1.53235,5.43448-1.81766,7.82607
    c-0.25775,2.13054-0.44635,4.26802-0.59819,6.40539c-0.51773,7.32459-1.20569,10.60556-5.41151,16.92921
    c-5.59316,8.41283-16.06644,11.27384-24.72193,12.33452c-1.99943-1.63696-2.48253-2.26507-3.10145-4.44743
    c-0.64425-2.2858,1.00307-6.41458,0.01614-8.55655c-2.0754-4.52459-1.03075-8.61073,2.07753-12.35985
    C80.21861,62.765,83.35917,60.52279,86.78503,58.72021z"/>

  <path fill="#F6996A" d="M80.3727,52.31128c3.53636-2.68502,7.7767-4.22879,11.36361-6.83678
    c1.02851-0.74768,1.9741-1.60939,2.75641-2.61246c-1.03994,1.33091-0.39121,3.55239-0.31759,5.07319
    c0.05984,1.35635,0.16339,2.70917,0.2945,4.05857c0.43716,4.62579,0.3521,6.7436-1.61281,11.12777
    c-2.61375,5.83135-8.84881,8.70733-14.14063,10.27184c-0.04147-1.41383-0.1588-2.79316-0.77077-4.09073
    c-0.6419-1.35871-1.67265-2.46651-2.50785-3.702c-1.76701-2.6068-1.54153-5.26426,0.00683-7.92738
    C76.69603,55.51863,78.41933,53.79309,80.3727,52.31128z"/>

  <path fill="#F6996A" d="M70.84052,53.76659c1.9787-3.97576,5.09169-7.2406,7.1486-11.16924
    c0.589-1.12735,1.05373-2.31914,1.31147-3.56617c-0.34515,1.65662,1.2263,3.35684,1.96491,4.68669
    c0.65568,1.19072,1.35046,2.35601,2.0661,3.50868c2.44565,3.9482,3.30854,5.88542,3.49714,10.68484
    c0.2462,6.38584-4.06553,11.73291-8.11256,15.48203c-0.66263-1.25045-1.38274-2.43187-2.50785-3.32232
    c-1.17577-0.9318-2.59067-1.46909-3.88836-2.20535c-2.74026-1.54955-3.72037-4.03207-3.51563-7.10595
    C68.97009,58.27386,69.74769,55.96262,70.84052,53.76659z"/>

  <path fill="#FBBE8D" d="M77.05956,52.31128c-3.5386-2.68384-7.77895-4.22879-11.36349-6.83678
    c-1.02852-0.74662-1.9741-1.60939-2.75865-2.61022c1.04453,1.32985,0.39109,3.55015,0.31971,5.07319
    c-0.06208,1.35411-0.16563,2.70929-0.2945,4.05869c-0.4394,4.62343-0.35199,6.74124,1.61057,11.12542
    c2.61599,5.83135,8.85352,8.70969,14.14299,10.27184c0.03675-1.41383,0.15879-2.79316,0.77077-4.09073
    c0.64189-1.35754,1.67041-2.46651,2.50785-3.70082c1.76701-2.60563,1.54153-5.26426-0.00695-7.92855
    C80.73623,55.51863,79.01292,53.79309,77.05956,52.31128z"/>

  <path fill="#F6996A" d="M60.33521,63.23774c-6.9461-1.01579-13.99339,0.08281-20.95103-0.79033
    c-1.99248-0.2508-3.95963-0.72353-5.80944-1.51267c2.4572,1.04677,3.25093,4.6199,4.31396,6.77917
    c0.94794,1.92462,1.83604,3.87798,2.68962,5.84631c2.91968,6.73559,4.65676,9.60238,10.72395,14.17173
    c8.06662,6.0798,18.89871,5.3022,27.41391,3.42929c-1.0238-1.9867-1.91425-3.98837-2.05456-6.25002
    c-0.1496-2.37097,0.42785-4.69364,0.64649-7.04163c0.45789-4.95468-1.8821-8.46455-6.06036-10.96898
    C67.87254,64.87245,64.16831,63.80035,60.33521,63.23774z"/>

</svg>
