<?xml version="1.0" encoding="utf-8"?>
<!DOCTYPE svg PUBLIC "-//W3C//DTD SVG 1.1//EN" "http://www.w3.org/Graphics/SVG/1.1/DTD/svg11.dtd">
<svg version="1.1" xmlns="http://www.w3.org/2000/svg" xmlns:xlink="http://www.w3.org/1999/xlink" x="0px" y="0px" width="160px"
  height="160px" viewBox="0 0 160 160" enable-background="new 0 0 160 160" xml:space="preserve">
  <linearGradient id="SVGID_1_" gradientUnits="userSpaceOnUse" x1="30.43153" y1="49.72712" x2="124.20033" y2="110.3717">
    <stop  offset="0" style="stop-color:#B1D1E1"/>
    <stop  offset="0.2312" style="stop-color:#C9E1ED"/>
    <stop  offset="0.5" style="stop-color:#E9F6FD"/>
    <stop  offset="1" style="stop-color:#D2D8DE"/>
  </linearGradient>
  <path fill="url(#SVGID_1_)" d="M117.14145,81.81243c0.00901-0.12409,0.01886-0.24742,0.02795-0.3716
    c0.00159-0.02711,0.00412-0.05834,0.00656-0.08545c0.00085-0.02139,0.00329-0.04276,0.00413-0.06583
    c0.39626-5.40137,0.7506-11.35847,2.77141-30.51904c0.22604-2.32169,0.45957-4.7848,0.69714-7.33833
    c0.12249-1.31213,0.24001-2.60126,0.35265-3.85909c-0.39542,2.43845-27.67532,3.86565-41.43772,3.86565
    c-13.76248,0-41.74449-1.44202-42.56497-3.86565c0.09538,1.25782,0.20222,2.54865,0.31982,3.86069
    c0.33952,3.80159,0.75961,7.40088,1.20689,10.63017c0.95938,7.61623,1.94024,16.69577,2.51902,27.37031
    c0.00076,0.00909,0.0016,0.0181,0.0016,0.02964c0.03864,0.89279,0.08309,1.82262,0.13242,2.78369
    c0.04193,0.95206,0.08714,1.90656,0.15448,2.99088c0.02795,0.45057,0.06002,0.9077,0.09462,1.36642
    c0.28278,4.50202,0.66339,9.52767,1.13693,14.83038c0.85583,9.58357,1.85066,18.25213,2.76896,24.5282
    c0.1102,1.23408,14.90026,4.19129,35.31866,4.19129c20.41595,0,32.01949-2.95393,32.13457-4.18717
    c0.7309-6.28271,1.62782-14.95371,2.51901-24.53644C116.06606,95.25922,116.69913,87.74991,117.14145,81.81243z"/>
  <linearGradient id="SVGID_2_" gradientUnits="userSpaceOnUse" x1="46.82517" y1="64.85091" x2="109.02893" y2="105.08093">
    <stop  offset="0" style="stop-color:#ACC8E1"/>
    <stop  offset="0.5" style="stop-color:#85B1D4"/>
    <stop  offset="1" style="stop-color:#6EA4CC"/>
  </linearGradient>
  <path fill="url(#SVGID_2_)" d="M108.81654,75.44182c0.00497-0.06828,0.32311-5.07751,0.99643-13.09817H48.44673
    c0.30013,3.47596,0.56733,7.21003,0.77123,11.21215c0,0.00741,0.00076,0.01482,0.00076,0.02467
    c0.03048,0.74648,0.04277,1.05729,0.08225,1.86135c0.03292,0.79581,0.08957,2.06104,0.14303,2.96866
    c0.02222,0.37656,0.04689,0.75801,0.074,1.14198c0.222,3.7653,0.97589,7.96888,1.34176,12.40422
    c0.66095,8.01578,2.34054,15.26537,3.02624,20.51463c0.08141,1.03178,11.116,5.52715,26.34838,5.52715
    c15.23161,0,23.88863-4.49209,23.97332-5.52471c0.54587-5.25422,2.14161-12.50617,2.83059-20.52035
    C107.62531,85.11825,108.46962,80.40745,108.81654,75.44182z"/>
  <linearGradient id="SVGID_3_" gradientUnits="userSpaceOnUse" x1="49.32839" y1="58.76759" x2="108.75013" y2="20.33683">
    <stop  offset="0" style="stop-color:#ACC8E1"/>
    <stop  offset="0.5" style="stop-color:#85B1D4"/>
    <stop  offset="1" style="stop-color:#6EA4CC"/>
  </linearGradient>
  <path fill="url(#SVGID_3_)" d="M79.56762,33.19499c-13.76897,0-42.18588,2.31352-42.56901,6.37811
    c0.81964,3.99724,28.80005,6.37642,42.56901,6.37642c13.7592,0,41.03825-2.3562,41.43368-6.37642
    C121.06133,35.53233,93.32682,33.19499,79.56762,33.19499z"/>
    <linearGradient id="SVGID_4_" gradientUnits="userSpaceOnUse" x1="-208.79474" y1="146.17416" x2="-149.37152" y2="107.74246" gradientTransform="matrix(0.803 -0.0004 -0.0004 1 222.9001 0.8063)">
    <stop  offset="0" style="stop-color:#B1D1E1"/>
    <stop  offset="0.2312" style="stop-color:#C9E1ED"/>
    <stop  offset="0.5" style="stop-color:#E9F6FD"/>
    <stop  offset="1" style="stop-color:#D2D8DE"/>
  </linearGradient>
  <path fill="url(#SVGID_4_)" d="M79.51829,121.56651c-11.05598,0.00497-33.87495,2.33154-34.18493,6.39697
    c0.65691,3.99639,23.12321,6.91084,34.18004,6.91084c12.69282,0,30.29957-2.03477,33.27319-6.94779
    C112.83677,123.88576,90.56695,121.56079,79.51829,121.56651z"/>
  <linearGradient id="SVGID_5_" gradientUnits="userSpaceOnUse" x1="53.83121" y1="55.85284" x2="104.21857" y2="23.26503">
    <stop  offset="0" style="stop-color:#B1D1E1"/>
    <stop  offset="0.2312" style="stop-color:#C9E1ED"/>
    <stop  offset="0.5" style="stop-color:#E9F6FD"/>
    <stop  offset="1" style="stop-color:#D2D8DE"/>
  </linearGradient>
  <path fill="url(#SVGID_5_)" d="M79.48217,35.27497c-11.69067,0-35.81939,1.55879-36.14494,4.29812
    c0.69639,2.69328,24.45428,4.29559,36.14494,4.29559c11.68241,0,34.84511-1.5875,35.1805-4.29559
    C114.71369,36.85018,91.16458,35.27497,79.48217,35.27497z"/>
  <linearGradient id="SVGID_6_" gradientUnits="userSpaceOnUse" x1="59.06293" y1="69.3872" x2="83.08803" y2="69.3872">
    <stop  offset="0" style="stop-color:#ACC8E1"/>
    <stop  offset="0.12431" style="stop-color:#B2D6ED"/>
    <stop  offset="0.28368" style="stop-color:#B7DFF5"/>
    <stop  offset="0.5" style="stop-color:#B8E2F8"/>
    <stop  offset="0.60141" style="stop-color:#B1DDF4"/>
    <stop  offset="0.74387" style="stop-color:#9FCDE9"/>
    <stop  offset="0.90983" style="stop-color:#81B4D7"/>
    <stop  offset="1" style="stop-color:#6EA4CC"/>
  </linearGradient>
  <polygon fill-rule="evenodd" clip-rule="evenodd" fill="url(#SVGID_6_)" points="65.83477,58.24362 83.08803,60.46016
    83.08803,74.88519 76.31535,80.53078 59.06293,78.31433 59.06293,63.88922"/>
  <linearGradient id="SVGID_7_" gradientUnits="userSpaceOnUse" x1="58.32218" y1="69.38751" x2="83.82794" y2="69.38751">
    <stop  offset="0" style="stop-color:#B1D1E1"/>
    <stop  offset="0.2312" style="stop-color:#C9E1ED"/>
    <stop  offset="0.5" style="stop-color:#E9F6FD"/>
    <stop  offset="1" style="stop-color:#D2D8DE"/>
  </linearGradient>
  <path fill="url(#SVGID_7_)" d="M83.18172,59.72597l-17.25157-2.21645c-0.20222-0.02635-0.41108,0.03452-0.56893,0.16602
    l-6.77268,5.64476c-0.16854,0.14059-0.26636,0.34861-0.26636,0.56893v14.42511c0,0.37236,0.27705,0.68729,0.64621,0.73495
    l17.25317,2.21645c0.03123,0.00413,0.06247,0.00581,0.09379,0.00581c0.17258,0,0.34036-0.06003,0.4743-0.17182l6.77193-5.64645
    c0.16938-0.13975,0.26637-0.34853,0.26637-0.56808V60.46016C83.82794,60.08772,83.55173,59.77362,83.18172,59.72597z
     M66.06174,59.01889l3.25396,0.41849c-0.2039,0.10768-0.32395,0.27874-0.23842,0.54671
    c0.23429,0.74403,1.42064,1.02522,2.07258,1.10907c1.46097,0.18824,2.92268,0.37572,4.38441,0.56321
    c-0.55899,0.4669-1.11976,0.93312-1.67875,1.39925c-0.86737,0.72265,2.44501,2.04379,3.36247,1.27921
    c1.00712-0.83857,2.01424-1.67799,3.02051-2.51733c0.45216-0.37656,0.01566-0.75885-0.56396-1.04904l2.13588,0.27453
    l-5.60856,4.67468l-15.74868-2.02409L66.06174,59.01889z M59.80368,64.35704l16.14167,2.07418v13.30619l-16.14167-2.07426V64.35704
    z M76.6861,79.25814v-12.9798l5.66118-4.71905v12.97897L76.6861,79.25814z"/>
  <linearGradient id="SVGID_8_" gradientUnits="userSpaceOnUse" x1="60.70388" y1="70.40579" x2="68.93441" y2="70.40579">
    <stop  offset="0" style="stop-color:#B1D1E1"/>
    <stop  offset="0.2312" style="stop-color:#C9E1ED"/>
    <stop  offset="0.5" style="stop-color:#E9F6FD"/>
    <stop  offset="1" style="stop-color:#D2D8DE"/>
  </linearGradient>
  <path fill="url(#SVGID_8_)" d="M67.76844,66.48224l-5.60443-0.6314c-0.37-0.03948-0.74235,0.07729-1.02193,0.32639
    c-0.27866,0.24911-0.43819,0.60504-0.43819,0.97916v6.49807c0,0.72594,0.58787,1.31381,1.31297,1.31381
    c0.72594,0,1.31372-0.58788,1.31372-1.31381v-5.02809l4.14355,0.4669c0.72181,0.08057,1.37131-0.43735,1.45187-1.15916
    C69.00741,67.2139,68.48866,66.56364,67.76844,66.48224z"/>
  <path fill="#D0EBEF" d="M73.303,67.35204l-1.48799-0.29187c-0.7128-0.13731-1.40263,0.32395-1.54237,1.03506
    c-0.13975,0.71197,0.32395,1.40254,1.03591,1.54229l1.48808,0.29272c0.08545,0.01642,0.17098,0.02467,0.25483,0.02467
    c0.61497,0,1.16412-0.43406,1.28745-1.06058C74.47866,68.18237,74.01496,67.4918,73.303,67.35204z"/>
  <linearGradient id="SVGID_9_" gradientUnits="userSpaceOnUse" x1="78.57861" y1="78.87497" x2="101.00467" y2="78.87497">
    <stop  offset="0" style="stop-color:#ACC8E1"/>
    <stop  offset="0.12431" style="stop-color:#B2D6ED"/>
    <stop  offset="0.28368" style="stop-color:#B7DFF5"/>
    <stop  offset="0.5" style="stop-color:#B8E2F8"/>
    <stop  offset="0.60141" style="stop-color:#B1DDF4"/>
    <stop  offset="0.74387" style="stop-color:#9FCDE9"/>
    <stop  offset="0.90983" style="stop-color:#81B4D7"/>
    <stop  offset="1" style="stop-color:#6EA4CC"/>
  </linearGradient>
  <polygon fill-rule="evenodd" clip-rule="evenodd" fill="url(#SVGID_9_)" points="79.96885,86.30207 78.57861,68.96261
    92.69374,65.98647 99.61443,71.44955 101.00467,88.78825 86.88953,91.76347"/>
  <linearGradient id="SVGID_10_" gradientUnits="userSpaceOnUse" x1="77.83884" y1="78.87522" x2="101.74611" y2="78.87522">
    <stop  offset="0" style="stop-color:#B1D1E1"/>
    <stop  offset="0.2312" style="stop-color:#C9E1ED"/>
    <stop  offset="0.5" style="stop-color:#E9F6FD"/>
    <stop  offset="1" style="stop-color:#D2D8DE"/>
  </linearGradient>
  <path fill="url(#SVGID_10_)" d="M77.84122,69.02179l1.38932,17.33787c0.0165,0.2039,0.11845,0.39466,0.27959,0.52203
    l6.92068,5.46309c0.17183,0.13647,0.39626,0.18908,0.61161,0.14304l14.11514-2.9753
    c0.36427-0.07729,0.61582-0.41353,0.58619-0.78428l-1.39017-17.33955c-0.00328-0.03123-0.00825-0.06163-0.01482-0.0921
    c-0.03536-0.1693-0.1283-0.32058-0.26553-0.4291l-6.92152-5.4614c-0.17182-0.13655-0.39626-0.18917-0.61086-0.14388
    l-14.11514,2.97606C78.06153,68.31471,77.81158,68.65019,77.84122,69.02179z M80.68081,85.91978l-0.2614-3.27038
    c0.14632,0.17671,0.33868,0.25896,0.58282,0.12081c0.67997-0.38305,0.71036-1.60147,0.65775-2.25669
    c-0.11677-1.46913-0.23513-2.93751-0.35274-4.40748c0.57221,0.45132,1.14358,0.90357,1.71503,1.35489
    c0.88623,0.69958,1.4954-2.81501,0.55815-3.55492c-1.02841-0.81139-2.05775-1.62453-3.08626-2.43508
    c-0.46117-0.36503-0.74564,0.14051-0.91005,0.76786l-0.17107-2.14658l5.73029,4.52332l1.26767,15.82765L80.68081,85.91978z
     M87.19454,90.94224l-1.29975-16.22307l13.02004-2.7443l1.29975,16.22224L87.19454,90.94224z"/>
  <linearGradient id="SVGID_11_" gradientUnits="userSpaceOnUse" x1="87.62506" y1="85.39161" x2="97.14946" y2="85.39161">
    <stop  offset="0" style="stop-color:#B1D1E1"/>
    <stop  offset="0.2312" style="stop-color:#C9E1ED"/>
    <stop  offset="0.5" style="stop-color:#E9F6FD"/>
    <stop  offset="1" style="stop-color:#D2D8DE"/>
  </linearGradient>
  <path fill="url(#SVGID_11_)" d="M87.63113,82.71019l0.53845,5.61437c0.0378,0.36991,0.22857,0.71027,0.53029,0.93227
    c0.30088,0.222,0.68157,0.30341,1.0482,0.22612l6.35832-1.34007c0.71036-0.14968,1.16421-0.84599,1.01453-1.5555
    c-0.1496-0.71027-0.84599-1.16412-1.55627-1.01453l-4.92042,1.0376l-0.39711-4.15096
    c-0.07072-0.7235-0.71196-1.2521-1.43462-1.18138C88.09146,81.34714,87.56201,81.98838,87.63113,82.71019z"/>
  <linearGradient id="SVGID_12_" gradientUnits="userSpaceOnUse" x1="87.34071" y1="77.85514" x2="89.98903" y2="77.85514">
    <stop  offset="0" style="stop-color:#B1D1E1"/>
    <stop  offset="0.2312" style="stop-color:#C9E1ED"/>
    <stop  offset="0.5" style="stop-color:#E9F6FD"/>
    <stop  offset="1" style="stop-color:#D2D8DE"/>
  </linearGradient>
  <path fill="url(#SVGID_12_)" d="M87.34085,77.11485l0.02063,1.51678c0.01313,0.7251,0.60673,1.30472,1.33183,1.29571
    c0.72509-0.01069,1.30471-0.60673,1.29562-1.33191l-0.0213-1.51678c-0.00169-0.08714-0.01154-0.17267-0.02879-0.25483
    c-0.12662-0.60101-0.66431-1.04904-1.30312-1.04088C87.91063,75.79363,87.33016,76.38967,87.34085,77.11485z"/>
  <linearGradient id="SVGID_13_" gradientUnits="userSpaceOnUse" x1="65.3917" y1="94.21223" x2="95.12234" y2="94.21223">
    <stop  offset="0" style="stop-color:#ACC8E1"/>
    <stop  offset="0.12431" style="stop-color:#B2D6ED"/>
    <stop  offset="0.28368" style="stop-color:#B7DFF5"/>
    <stop  offset="0.5" style="stop-color:#B8E2F8"/>
    <stop  offset="0.60141" style="stop-color:#B1DDF4"/>
    <stop  offset="0.74387" style="stop-color:#9FCDE9"/>
    <stop  offset="0.90983" style="stop-color:#81B4D7"/>
    <stop  offset="1" style="stop-color:#6EA4CC"/>
  </linearGradient>
  <polygon fill-rule="evenodd" clip-rule="evenodd" fill="url(#SVGID_13_)" points="79.23222,81.94073 65.3917,92.47796
    72.59516,104.97597 81.28258,106.48374 95.12234,95.94736 87.91888,83.4501"/>
  <linearGradient id="SVGID_14_" gradientUnits="userSpaceOnUse" x1="64.65132" y1="94.21304" x2="95.86281" y2="94.21304">
    <stop  offset="0" style="stop-color:#B1D1E1"/>
    <stop  offset="0.2312" style="stop-color:#C9E1ED"/>
    <stop  offset="0.5" style="stop-color:#E9F6FD"/>
    <stop  offset="1" style="stop-color:#D2D8DE"/>
  </linearGradient>
  <path fill="url(#SVGID_14_)" d="M64.75046,92.84628l7.20346,12.49885c0.10936,0.18984,0.29844,0.32143,0.51547,0.35922
    l8.68581,1.50946c0.17267,0.02955,0.34778-0.00169,0.49738-0.08882c0.02635-0.01482,0.05261-0.03207,0.07812-0.05017
    l13.84052-10.53639c0.296-0.22604,0.37817-0.63712,0.19321-0.96022l-7.20431-12.49717
    c-0.10936-0.1916-0.29844-0.32395-0.51463-0.36015l-8.6875-1.50861c-0.20221-0.03528-0.41183,0.01649-0.57465,0.14059
    L64.94358,91.88849C64.64767,92.11453,64.56381,92.52477,64.75046,92.84628z M94.15555,95.7533l-12.94857,9.85895L74.56091,94.0844
    l12.95017-9.85903L94.15555,95.7533z M73.06458,104.30509l-6.48165-11.24506l7.26105,1.2611l6.48165,11.24516L73.06458,104.30509z"
    />
  <linearGradient id="SVGID_15_" gradientUnits="userSpaceOnUse" x1="85.50768" y1="87.87392" x2="88.89133" y2="87.87392">
    <stop  offset="0" style="stop-color:#B1D1E1"/>
    <stop  offset="0.2312" style="stop-color:#C9E1ED"/>
    <stop  offset="0.5" style="stop-color:#E9F6FD"/>
    <stop  offset="1" style="stop-color:#D2D8DE"/>
  </linearGradient>
  <path fill="url(#SVGID_15_)" d="M87.95827,86.56027l0.75885,1.31372c0.35931,0.6298,0.14556,1.43217-0.48255,1.79552
    c-0.62811,0.36175-1.43057,0.14555-1.79392-0.48171l-0.75801-1.31541c-0.04276-0.07568-0.07728-0.15372-0.10523-0.23354
    c-0.19809-0.58038,0.03452-1.24141,0.58788-1.56039C86.79415,85.71673,87.59737,85.93216,87.95827,86.56027z"/>
  <linearGradient id="SVGID_16_" gradientUnits="userSpaceOnUse" x1="85.33707" y1="91.81522" x2="87.02628" y2="91.81522">
    <stop  offset="0" style="stop-color:#B1D1E1"/>
    <stop  offset="0.2312" style="stop-color:#C9E1ED"/>
    <stop  offset="0.5" style="stop-color:#E9F6FD"/>
    <stop  offset="1" style="stop-color:#D2D8DE"/>
  </linearGradient>
  <path fill="url(#SVGID_16_)" d="M86.5607,91.15927l0.37817,0.65606c0.18008,0.31402,0.07316,0.71525-0.2401,0.89608
    c-0.31402,0.18092-0.71525,0.07316-0.89608-0.24001l-0.37816-0.65691c-0.02139-0.0378-0.03948-0.07644-0.05262-0.11677
    c-0.09866-0.29018,0.01642-0.61986,0.29263-0.77855C85.97864,90.73834,86.37978,90.84518,86.5607,91.15927z"/>
  <linearGradient id="SVGID_17_" gradientUnits="userSpaceOnUse" x1="60.52381" y1="78.49024" x2="62.53645" y2="78.49024">
    <stop  offset="0" style="stop-color:#B1D1E1"/>
    <stop  offset="0.2312" style="stop-color:#C9E1ED"/>
    <stop  offset="0.5" style="stop-color:#E9F6FD"/>
    <stop  offset="1" style="stop-color:#D2D8DE"/>
  </linearGradient>
  <path fill="url(#SVGID_17_)" d="M62.53645,77.73143v1.51762c-0.00168,0.72509-0.45057,1.31212-1.00712,1.3138
    c-0.55495-0.00084-1.00383-0.58871-1.00552-1.3138l0.00084-1.51762c0-0.08714,0.00741-0.17267,0.01978-0.25491
    c0.08958-0.60177,0.49737-1.0589,0.98649-1.0589C62.08672,76.4193,62.53645,77.0071,62.53645,77.73143z"/>
  <linearGradient id="SVGID_18_" gradientUnits="userSpaceOnUse" x1="64.74464" y1="88.17862" x2="68.05131" y2="88.17862">
    <stop  offset="0" style="stop-color:#B1D1E1"/>
    <stop  offset="0.2312" style="stop-color:#C9E1ED"/>
    <stop  offset="0.5" style="stop-color:#E9F6FD"/>
    <stop  offset="1" style="stop-color:#D2D8DE"/>
  </linearGradient>
  <path fill="url(#SVGID_18_)" d="M68.05131,86.93187v2.49351c-0.00253,1.19123-0.74,2.15567-1.65501,2.15895
    c-0.91174-0.00169-1.64921-0.96772-1.65165-2.15895l0.00085-2.49351c0-0.14388,0.01229-0.28446,0.03291-0.41933
    c0.14716-0.98901,0.81719-1.73962,1.62117-1.73962C67.313,84.77544,68.05131,85.74139,68.05131,86.93187z"/>
  <linearGradient id="SVGID_19_" gradientUnits="userSpaceOnUse" x1="57.46491" y1="48.31583" x2="100.80598" y2="76.34648">
    <stop  offset="0" style="stop-color:#ACC8E1"/>
    <stop  offset="0.12431" style="stop-color:#B2D6ED"/>
    <stop  offset="0.28368" style="stop-color:#B7DFF5"/>
    <stop  offset="0.5" style="stop-color:#B8E2F8"/>
    <stop  offset="0.60141" style="stop-color:#B1DDF4"/>
    <stop  offset="0.74387" style="stop-color:#9FCDE9"/>
    <stop  offset="0.90983" style="stop-color:#81B4D7"/>
    <stop  offset="1" style="stop-color:#6EA4CC"/>
  </linearGradient>
  <path fill="url(#SVGID_19_)" d="M109.85321,62.35762c-4.94921,2.74918-11.6841,3.59104-17.27868,2.31588
    c-0.60345-0.02054-1.20108-0.04269-1.79552-0.06575c-4.75845-0.18496-9.41335-0.42918-14.39632,1.08112
    c-0.52364,0.02055-1.04575,0.03452-1.56855,0.04361c-3.64703,0.05506-7.3688-0.17107-11.48845-0.71365
    c-0.60841-0.02551-1.21186-0.0543-1.81691-0.08966c-3.00982-0.17258-6.05912-0.52203-9.21037-1.22162
    c-0.48752-0.07812-0.93472-0.16198-1.33755-0.24751c-1.61301-0.34365-2.51413-0.72097-2.51413-1.11639
    c0-0.39551,0.90113-0.77283,2.51413-1.11647c0.40283-0.08553,0.85003-0.16938,1.33923-0.26477
    c3.15125-1.29486,6.19963-1.10082,9.20869-0.84927c0.60749,0.05262,1.21422,0.10776,1.835,0.16037
    c4.34164,1.02598,8.53117,0.09614,12.59499-0.4621c0.58619-0.08132,1.16909-0.15532,1.75603-0.21619
    c4.08597-0.71356,8.07993-1.01125,11.99163-0.79994c0.55824,0.03039,1.11563,0.07072,1.6705,0.12165
    c5.97031,1.1387,11.86333,1.98056,17.40867,2.6777C109.4636,61.82077,109.85321,62.07973,109.85321,62.35762z"/>
  <linearGradient id="SVGID_20_" gradientUnits="userSpaceOnUse" x1="60.35695" y1="60.97469" x2="83.08803" y2="60.97469">
    <stop  offset="0" style="stop-color:#ACC8E1"/>
    <stop  offset="0.12431" style="stop-color:#B2D6ED"/>
    <stop  offset="0.28368" style="stop-color:#B7DFF5"/>
    <stop  offset="0.5" style="stop-color:#B8E2F8"/>
    <stop  offset="0.60141" style="stop-color:#B1DDF4"/>
    <stop  offset="0.74387" style="stop-color:#9FCDE9"/>
    <stop  offset="0.90983" style="stop-color:#81B4D7"/>
    <stop  offset="1" style="stop-color:#6EA4CC"/>
  </linearGradient>
  <path fill="url(#SVGID_20_)" d="M60.35695,62.81055c0.38397,0.02803,0.76955,0.06171,1.15183,0.08393
    c0.60505,0.03527,1.20849,0.06406,1.81691,0.08957c4.11964,0.54258,7.84142,0.7687,11.48845,0.71365
    c0.5228-0.00909,1.04491-0.02307,1.56855-0.04361c2.2913-0.6947,4.51102-1.00796,6.70534-1.13702v-2.05692l-17.25326-2.21653
    L60.35695,62.81055z"/>
  <path fill="#D0EBEF" d="M83.18172,59.72597l-17.25157-2.21645c-0.20222-0.02635-0.41108,0.03452-0.56893,0.16602l-6.06813,5.05697
    c0.71196,0.06331,1.42064,0.11424,2.12688,0.15532l4.64177-3.86894l3.25396,0.41849
    c-0.2039,0.10768-0.32395,0.27874-0.23842,0.54671c0.23429,0.74403,1.42064,1.02522,2.07258,1.10907
    c1.46097,0.18824,2.92268,0.37572,4.38441,0.56321c-0.55899,0.4669-1.11976,0.93312-1.67875,1.39925
    c-0.22613,0.18824-0.16442,0.41681,0.06002,0.63796c0.29844-0.00084,0.60092,0.00817,0.89861,0.00413
    c0.5228-0.00909,1.04491-0.02307,1.56855-0.04361c0.79177-0.2401,1.57277-0.42262,2.34888-0.58122
    c0.50234-0.41849,1.00459-0.83698,1.50693-1.25538c0.45216-0.37656,0.01566-0.75885-0.56396-1.04904l2.13588,0.27453
    l-2.24852,1.87365c0.47026-0.08057,0.93808-0.148,1.40338-0.2055l1.382-1.15184v1.00796
    c0.49493-0.03948,0.98902-0.074,1.48067-0.09294v-2.01415C83.82794,60.08772,83.55173,59.77362,83.18172,59.72597z"/>

</svg>
