<?xml version="1.0" encoding="utf-8"?>
<!DOCTYPE svg PUBLIC "-//W3C//DTD SVG 1.1//EN" "http://www.w3.org/Graphics/SVG/1.1/DTD/svg11.dtd">
<svg version="1.1" xmlns="http://www.w3.org/2000/svg" xmlns:xlink="http://www.w3.org/1999/xlink" x="0px" y="0px" width="160px"
  height="160px" viewBox="0 0 160 160" enable-background="new 0 0 160 160" xml:space="preserve">
  <path fill="#6D6E70" d="M110.55294,109.19926V93.858c2.32556-0.03163,2.34438-0.33604,2.34438-3.2394
    c0-2.90645-0.01882-3.21078-2.34438-3.24249V66.98744H50.30278V77.1456c-0.65919-0.26514-1.46078-0.41734-2.34515-0.41734
    c-2.3656,0-4.15023,1.08486-4.15023,2.52675c0,0.25311,0.07383,0.49117,0.17774,0.72021h-2.89588l-13.14676,13.149
    l-6.86298,3.43079v0.74582c-0.22079-0.11147-0.45808-0.18838-0.72252-0.18838c-0.89648,0-1.62418,0.72777-1.62418,1.62425
    c0,0.89648,0.72769,1.62425,1.62418,1.62425c0.26445,0,0.50174-0.07838,0.72252-0.18839v9.02669h-3.24696v5.0505h4.24211
    c0.44219,3.15501,3.12338,5.59135,6.4012,5.59135c3.27859,0,5.95979-2.43634,6.40205-5.59135h15.42488h39.95853
    c0.4415,3.15501,3.12269,5.59135,6.40128,5.59135c3.27859,0,5.95979-2.43634,6.40197-5.59135h7.48838h3.24689v-5.0505H110.55294z"/>
  <path fill="#808184" d="M107.48603,90.6186c0,3.24542,0,3.24542-3.24696,3.24542c-1.79296,0-3.24619-1.454-3.24619-3.24542
    c0-1.79296,1.45322-3.2485,3.24619-3.2485C107.48603,87.37009,107.48603,87.37009,107.48603,90.6186z"/>
  <circle fill="#808184" cx="14.94495" cy="98.73669" r="1.62425"/>
  <polyline fill="#FFFFFF" stroke="#808184" stroke-width="1.80389" points="97.02347,113.34725 13.32298,113.34725
    13.32298,110.1003 107.48603,110.1003 107.48603,113.34725 97.02347,113.34725"/>
  <polygon fill="#FFFFFF" stroke="#808184" stroke-width="1.80389" points="45.79244,110.1003 16.56917,110.09875 16.56917,97.11245
    23.06456,93.86556 36.05087,80.87772 45.79244,80.87772"/>
  <polygon fill="#808184" points="42.54625,84.12321 36.0531,84.12321 29.55771,90.6186 29.55771,93.86556 32.80467,93.86556
    32.80467,90.6186 36.0531,90.6186 36.0531,93.86556 42.54625,93.86556"/>
  <circle fill="#808184" cx="23.06458" cy="113.34729" r="6.49315"/>
  <circle fill="#FFFFFF" stroke="#808184" stroke-width="1.80389" cx="23.06458" cy="113.34729" r="3.24696"/>
  <ellipse fill="#FFFFFF" stroke="#808184" stroke-width="1.80389" cx="42.54517" cy="79.255" rx="3.24731" ry="1.62425"/>
  <rect x="45.79243" y="67.88837" fill="#FFFFFF" stroke="#808184" stroke-width="1.80389" width="58.44662" height="45.45885"/>
  <circle fill="#808184" cx="91.25122" cy="113.34729" r="6.49311"/>
  <path fill="none" stroke="#808184" stroke-width="1.80389" d="M81.50964,113.34725c0-5.38197,4.36114-9.74235,9.74158-9.74235
    c5.38121,0,9.74166,4.36037,9.74166,9.74235"/>
  <circle fill="#FFFFFF" stroke="#808184" stroke-width="1.80389" cx="91.25085" cy="113.34729" r="3.24658"/>
  <rect x="64.8093" y="73.30056" fill="#C16558" width="10.52204" height="29.37471"/>
  <rect x="55.3827" y="82.72797" fill="#C16558" width="29.37548" height="10.52281"/>
  <path fill="none" stroke="#808184" stroke-width="1.80389" d="M129.71742,101.42915c1.26639,0,2.29169,1.02763,2.29169,2.29324
    c0,1.58051-1.2822,2.86425-2.86424,2.86425c-1.97826,0-3.58138-1.60311-3.58138-3.57991c0-2.47105,2.00465-4.47647,4.4764-4.47647
    c3.08951,0,5.59512,2.50569,5.59512,5.59443c0,3.86318-3.13094,6.99413-6.99413,6.99413h-11.38689"/>
  <path fill="none" stroke="#808184" stroke-width="1.80389" d="M144.90431,105.48828c1.26639,0,2.2917,1.02755,2.2917,2.29169
    c0,1.58198-1.28227,2.86426-2.86426,2.86426c-1.97833,0-3.58145-1.6032-3.58145-3.57845c0-2.47253,2.00464-4.4764,4.47639-4.4764
    c3.08951,0,5.59512,2.50407,5.59512,5.59436c0,3.86318-3.13086,6.99412-6.99413,6.99412h-26.57371"/>

</svg>
