<?xml version="1.0" encoding="utf-8"?>
<!DOCTYPE svg PUBLIC "-//W3C//DTD SVG 1.1//EN" "http://www.w3.org/Graphics/SVG/1.1/DTD/svg11.dtd">
<svg version="1.1" xmlns="http://www.w3.org/2000/svg" xmlns:xlink="http://www.w3.org/1999/xlink" x="0px" y="0px" width="160px"
  height="160px" viewBox="0 0 160 160" enable-background="new 0 0 160 160" xml:space="preserve">
  <path fill="#67B28E" d="M99.1676,117.30817c-2.68777,7.18071,2.07964,18.1888,5.74358,21.62318
    c1.70911,1.60181,4.36258,2.54866,6.70045,1.84383c5.36678-1.61925,1.71403-5.29321,1.61049-5.52277
    c-0.00185-0.00122-0.24387-0.45906-0.57881-1.28116c-2.97967-7.33043-3.00899-7.14079-3.94466-11.51334
    C104.33984,117.96683,99.61299,116.11554,99.1676,117.30817z"/>
  <path fill="#67B28E" d="M89.04843,138.42612c0.44724,0.44411,2.88487,1.7178,3.9596-0.10602
    c0.04056-0.01373,0.0792-0.03494,0.11535-0.06612c3.50432-3.04399,3.19492-12.43776,2.68221-15.35822
    c-0.10979-0.89697-1.22323-1.79514-3.49934-1.55939c-1.86502,0.19341-4.27769,0.78845-4.60204,2.45636
    C86.97441,127.5528,84.98337,134.40291,89.04843,138.42612z"/>
  <path fill="#67B28E" d="M106.45683,117.48159c-4.42926-2.90295-8.82549-8.30347-13.13321-7.08714
    c-4.30956,1.21632-5.65619,10.88329-5.93129,15.19349c0.65617,2.26799,4.91648,4.2752,8.5854,2.99653
    c1.25497-4.69568,5.47288-7.49509,9.67513-10.43675C106.15498,117.73357,106.45683,117.48159,106.45683,117.48159z"/>
  <path fill="#67B28E" d="M109.56815,109.87299c-5.28069,0.4017-13.18373,2.52617-16.4965,5.53643
    c-1.6704,1.50452,2.51685,2.53249,3.00835,5.81345c0.42916,2.86054,1.44589,5.70364,2.64478,7.31791
    c0.84332,1.11528,2.99212,2.60486,5.50341,3.98586c3.35894,1.8488,7.24745,0.4503,9.76244,3.80867
    c-0.93567-4.77054-6.99733-16.93256-4.92146-21.62447C110.22189,112.10605,109.56815,109.87299,109.56815,109.87299z"/>
  <path fill="#FFFFFF" d="M96.76554,44.83751c-7.57557,0.09479-15.24031,0.09479-22.90504,0.09479c0-0.63873,0-1.91618,0-2.55491
    c7.66473,0,15.32948,0,22.70168,0.2233L96.76554,44.83751z"/>
  <path fill="#F09A36" d="M91.02673,60.41716c-1.02682,0.13207-4.53999,1.18356-4.53999,1.18356s2.71769,2.94705,2.33985,4.74609
    C88.82658,66.3468,91.57574,59.72499,91.02673,60.41716z"/>
  <path fill="#F09A36" d="M91.93241,58.25529c-1.02682,0.13207-4.53999,1.18496-4.53999,1.18496s2.71769,2.94565,2.34048,4.74608
    C89.7329,64.18633,92.48143,57.56453,91.93241,58.25529z"/>
  <path fill="#F5E0CD" d="M91.39064,91.88628c-0.46972,3.49678-3.52923,9.39007-6.15466,12.35045
    c-1.21505,1.36598-1.57376,1.35225-3.02769,0.12225c-1.03922-0.88074-1.10098-1.3511-1.01552-1.52701
    c0.00128-0.00249,0.87263-1.72029,1.17392-2.34158c2.21933-4.59207,2.76825-6.42222,3.53108-10.52528
    C89.38772,86.54818,91.50166,90.89823,91.39064,91.88628z"/>
  <path fill="#00ADEE" d="M83.01666,92.8132c1.88815,2.02094,10.39869,5.99932,11.08794,4.32266
    c1.94173-4.72934,2.60729-6.48463,2.51001-12.35416c-0.05429-3.26102-0.24144-6.38229-2.03594-6.94617
    c-1.79585-0.56265-4.20354,1.16766-4.34827,1.49948c-0.00057,0.00249-0.29624,0.67864-0.80275,1.84631
    c-3.72755,8.5817-1.0242,3.95091-5.58759,10.08372C83.32293,92.22437,83.01666,92.8132,83.01666,92.8132z"/>
  <path fill="#00ADEE" d="M86.79665,114.82933c10.83903,4.78427,23.79448,3.42071,23.18321-11.21887
    c0.19961-1.31118,0.37672-2.64351,0.54266-3.97212c0.16716-1.32983,0.32499-2.65347,0.48652-3.94587
    c0.34185-1.85634,0.58386-3.63775,0.6487-5.28075c0.06738-1.64294-0.04114-3.14746-0.39671-4.45487
    c-0.63375-2.27796-7.30916-1.0479-11.56009-1.79764c-0.84516-0.13599-3.004-0.88949-3.84176-1.05544
    c-0.83705-0.16843-0.88259-0.05486-1.13585-0.03864c-0.85513,0.2507-3.0583,3.21983-3.6571,4.73055
    c-0.8732,1.99481-1.3997,4.65199-1.76646,7.53999c-0.18459,1.44461-0.32748,2.94537-0.45471,4.45117
    c-0.01437,2.12823-0.11044,4.14547-0.32249,6.15395c-0.21269,2.00976-0.54643,4.01325-1.03665,6.11282
    C87.06237,113.764,86.79665,114.82933,86.79665,114.82933z"/>
  <path fill="#00ADEE" d="M96.14987,119.14452c11.75349-1.4945,14.11813-1.84261,14.07137-21.57202
    c-0.50523-1.22508-1.04106-2.45891-1.58437-3.68272c-0.54266-1.22501-1.09031-2.44135-1.61867-3.63027
    c-0.66549-1.76768-1.37659-3.41815-2.1688-4.85906c-0.7903-1.44212-1.65916-2.67467-2.63782-3.61156
    c-1.7185-1.62422-6.80271,2.87306-10.83034,4.42498c-0.79464,0.31937,0.54829,3.37076-0.25511,3.66016
    c-0.80403,0.2882-0.78403,0.40917-0.99303,0.55391c-0.60258,0.65495-0.95809,4.33639-0.69111,5.9394
    c0.28066,2.15948,1.20011,4.70692,2.37588,7.36907c0.58693,1.3336,1.23939,2.69339,1.90744,4.04819
    c1.08475,1.83015,2.04405,3.60786,2.89861,5.43794c0.85456,1.83136-1.97916,1.13649-1.31552,3.18866
    C95.82738,118.09413,96.14987,119.14452,96.14987,119.14452z"/>
  <path fill="#00ADEE" d="M88.17516,110.15244c11.23447,3.7625,24.00903,1.20758,22.04794-13.31352
    c0.07799-1.32357,0.13036-2.6672,0.17405-4.00578c0.04305-1.33858,0.07799-2.6709,0.11913-3.97205
    c0.16965-1.88125,0.24514-3.67767,0.15904-5.3194c-0.08546-1.64178-0.33246-3.13002-0.8071-4.39879
    c-0.84146-2.2093-7.37469-0.36797-11.67678-0.72227c-0.85391-0.05742-3.07324-0.60756-3.92281-0.69615
    c-0.84893-0.09102-0.88387,0.02747-1.13464,0.06739c-0.82773,0.32811-2.74761,3.48803-3.20482,5.04749
    c-0.68491,2.06712-0.96371,4.76172-1.06226,7.67093c-0.04989,1.45464-0.05366,2.96287-0.0412,4.47487
    c0.18216,2.11949,0.27325,4.13672,0.24763,6.15644c-0.02683,2.021-0.174,4.04698-0.46844,6.1827
    C88.34103,109.06583,88.17516,110.15244,88.17516,110.15244z"/>
  <path fill="#F5E0CD" d="M102.22967,78.33202c-1.40411,0.11229-2.90672,2.30293-3.92843,2.98906
    c-0.78098,0.52522-2.49066,0.36803-3.30159-0.24329c-0.30812-0.23199-0.60066-2.38022-0.50332-3.05389
    c0.22452-1.512,0.75408-3.20737,0.95432-4.7094c0.2364-1.63924,0.41415-2.86802,0.41415-2.86802s0.46972,0.06738,1.17271,0.16965
    c2.02969,0.3718,4.3033,0.69985,6.34985,0.99431C102.501,73.77738,102.53843,76.07776,102.22967,78.33202z"/>
  <path fill="#F5E0CD" d="M87.01619,76.99472c-2.31041-0.11727-4.00451,0.12724-6.26874-0.12979
    c0.37423-0.62251,2.60046-1.6255,1.50759-2.77693c-0.48524-0.51398-3.0726,1.94984-6.19138,2.94038
    c-2.62045,0.83335-4.26715,3.92467-3.61034,5.42044c1.4602,0.04867,12.98726,1.84758,13.0715,0.56763
    c0.07793-1.17015-3.72634-0.68114-3.6571-0.92443c0.18772-0.67616,4.59584,1.14396,4.71062-0.58629
    c0.08731-1.32491-2.59049,0.11472-4.55841-1.19889c3.67888-0.32435,5.40357,0.86452,5.49466-0.51769
    c0.09108-1.3785-6.18832-1.40974-5.38742-1.26628C84.07765,78.22102,89.10265,79.11421,87.01619,76.99472"/>
  <path fill="#F5E0CD" d="M72.68658,108.97603c1.18394-1.24501,2.73644-2.24807,3.80995-3.56295
    c-0.57326-0.23825-2.37652,0.19341-2.46824-1.14518c-0.04362-0.5976,2.82567-0.20835,5.1042-1.09535
    c0.80595-0.31438,1.96735-0.15841,2.59298-0.91939c0.62627-0.76226,2.42832-0.07486,3.51051,1.98357
    c-1.47706,2.22181-2.59234,2.77942-3.67702,3.87478c-1.92558,1.94486-3.48746,4.44733-3.99333,3.92339
    c-0.73792-0.76469,1.61432-2.34158,1.43152-2.47379c-0.50275-0.36803-2.23363,3.44192-3.32458,2.31539
    c-0.83527-0.8658,1.89497-1.57185,2.18062-3.46185c-2.18688,1.6255-3.0514,4.17166-3.92403,3.2685
    c-0.86893-0.89946,1.26059-2.12952,2.80504-4.43993C75.49724,108.01794,72.81637,111.47601,72.68658,108.97603"/>
  <path fill="#67B28E" d="M53.99631,103.72645c4.37254,11.68298-3.38385,29.59733-9.34638,35.18371
    c-2.7807,2.60606-7.09959,4.14674-10.90264,3.00029c-8.73263-2.63475-2.78882-8.61287-2.61981-8.98709
    c0.00185-0.00128,0.39607-0.74483,0.94129-2.0834c4.84846-11.92748,4.89521-11.61936,6.41909-18.73518
    C45.57998,104.79811,53.2709,101.78657,53.99631,103.72645z"/>
  <path fill="#67B28E" d="M70.46106,138.08804c-0.72733,0.72234-4.69504,2.79443-6.44279-0.17213
    c-0.06554-0.02249-0.12915-0.05742-0.18715-0.10732c-5.70301-4.95262-5.19842-20.2372-4.36443-24.98895
    c0.17776-1.45963,1.98977-2.92174,5.69241-2.53876c3.03645,0.31566,6.96111,1.2825,7.48883,3.9971
    C73.83622,120.39451,77.07598,131.54236,70.46106,138.08804z"/>
  <path fill="#67B28E" d="M42.13621,104.00838c7.20562-4.72435,14.3595-13.51185,21.36865-11.53204
    c7.01106,1.97858,9.20356,17.70975,9.65144,24.72204c-1.0691,3.69019-8.00032,6.95741-13.96968,4.87528
    c-2.04278-7.64104-8.90477-12.19447-15.74363-16.98244C42.62522,104.41762,42.13621,104.00838,42.13621,104.00838z"/>
  <path fill="#67B28E" d="M37.50856,97.84568c8.59287,0.65495,21.01627-2.10704,26.40617,2.78945
    c2.71766,2.45138-4.09565,4.12305-4.89528,9.45988c-0.69736,4.65447-2.35282,9.28027-4.3033,11.90883
    c-1.37231,1.81387-4.86909,4.23777-8.95465,6.48584c-5.46605,3.00771-11.79342,0.73224-15.88466,6.19637
    c1.52075-7.76202,10.49909-27.21832,8.00716-35.18741C37.64761,98.46569,37.50856,97.84568,37.50856,97.84568z"/>
  <path fill="#F5E0CD" d="M52.88543,78.32704c4.4025,2.62601,13.79563,3.89848,19.6078,4.15046c0,0,2.49442-1.56686,2.47507-3.75873
    c-0.0131-1.56437,0.16658-0.95061-0.08482-0.99431c-0.00249-0.00121-2.91797-0.68861-3.80305-0.84203
    c-6.51017-1.12403-9.21231-5.94695-14.57226-8.78379C49.4697,68.98437,51.66035,77.56478,52.88543,78.32704z"/>
  <path fill="#00ADEE" d="M51.47569,77.22798c-3.40071-7.99905,1.45023-20.70501,5.43047-24.77569
    c1.85627-1.89932,5.37305-3.08819,8.05519-2.40583c6.159,1.5675,2.43579,6.2451,2.32912,6.51081
    c-0.00121,0.00122-0.11165,0.8695-0.44973,1.81827c-3.0109,8.45063-5.64437,7.61293-6.48833,12.61239
    C55.63931,76.28982,52.03963,78.5566,51.47569,77.22798z"/>
  <path fill="#00ADEE" d="M43.19599,73.06878c-2.64414-3.28345-4.00521-7.14079-4.34073-13.97844
    c-0.34868-7.11581,5.13659-12.0192,9.52784-12.04724c4.38876-0.02996,8.71768-0.70113,16.57825,3.00336
    c-1.65047,5.67248-4.27711,23.84691-6.89935,24.61786C55.87008,75.30931,43.82469,73.8472,43.19599,73.06878z"/>
  <path fill="#F5E0CD" d="M52.86544,44.49438c-4.62886-3.28281-7.01228-7.14015-7.59984-13.97774
    c-0.61126-7.11645,6.44905-12.97167,14.1362-13.00042c7.68345-0.02989,13.81498,5.74606,13.69152,12.8956
    c-0.12103,7.15203-5.58638,14.73252-10.17788,15.50353C59.07873,46.56028,53.96577,45.27414,52.86544,44.49438z"/>
  <path fill="#808184" d="M59.28766,33.07462c-0.46283,0.2408-0.8932-0.00556-0.96244-0.54886
    c-0.0686-0.5433,0.25076-1.17954,0.71295-1.42034c0.46218-0.2401,0.89256,0.00562,0.96122,0.54956
    C60.06921,32.1995,59.74927,32.8351,59.28766,33.07462z"/>
  <path fill="#808184" d="M69.07757,34.32589c-0.37116,0.29317-0.74482,0.10545-0.83463-0.41977
    c-0.08981-0.5258,0.13911-1.19014,0.50964-1.48389c0.3711-0.29382,0.74476-0.10482,0.83456,0.41914
    C69.67638,33.36716,69.44804,34.03214,69.07757,34.32589z"/>
    <linearGradient id="SVGID_1_" gradientUnits="userSpaceOnUse" x1="107.38343" y1="26.16748" x2="140.2769" y2="26.16748" gradientTransform="matrix(-0.9955 0.0952 0.0952 0.9955 181.52859 -12.9568)">
    <stop  offset="0" style="stop-color:#D0D2D3"/>
    <stop  offset="0.5" style="stop-color:#AAACAF"/>
    <stop  offset="1" style="stop-color:#A6A8AB"/>
  </linearGradient>
  <path fill="url(#SVGID_1_)" d="M45.46769,32.95301c-0.75415-2.89734-1.27625-5.22895-0.63809-6.98232
    c0.11848-0.34932,1.06348-0.40361,1.22131-0.7392c0.27631-0.68983,0.66926-1.97169,0.6699-1.97418
    c0.78659-1.55128,1.23881-6.48897,3.02335-8.43945c0,0,3.38328,0.91319,4.21222,0.07927
    c1.76397-1.77586,3.1481-3.05146,3.1481-3.05146s2.68029,1.03729,3.54296,1.92992c0.8078-0.21397,2.64101-1.08661,4.3208-1.86694
    c0,0,2.01283,3.15372,3.35268,3.48062c2.04157,0.49833,4.88902,0.74348,4.88902,0.74348s-0.9862,3.42448-0.64563,4.87656
    c1.5569,0.87825,4.63391,3.12938,4.63391,3.12938s-3.29654,3.18681-4.10492,6.27314c0,0-4.83229-7.33662-18.31668-3.64152
    c-3.83109,1.04981-5.3406,2.95226-6.69853,4.92708c-1.3573,1.97418-0.3331,4.98195,0.15406,7.76515
    c-0.85519-1.5463-1.5051-2.92416-1.99289-4.16917c-0.00996,0.02121-0.02185,0.04241-0.03245,0.06362
    C45.88497,34.54613,45.64174,33.74516,45.46769,32.95301z"/>
  <path fill="#00ADEE" d="M70.68307,99.45125c-8.94219-19.28288-9.93644-29.12204-5.72173-49.40479
    c-0.9107,4.38379-3.20795,10.85468-4.84973,11.04304c-3.89471,0.55703-5.08798-10.06246-10.9906-13.90422
    c3.31027,6.31868,2.98842,12.78019-0.98862,14.11315c-2.35473,0.78909-6.69853,0.05116-7.95977,1.76525
    c-0.72917-1.82695-1.11471-7.20504-1.33302-7.389c-0.13535,0.62001-0.41479,1.36598-0.3674,1.99909
    c-0.10041,20.30025-3.27035,31.25967-1.77394,42.15919c4.71247,6.12534,23.62917,6.25257,34.95791,6.2039
    C71.65618,106.03686,72.85629,103.57552,70.68307,99.45125z"/>
  <path fill="#F5E0CD" d="M46.03532,80.8283c3.00336,4.15423,11.4865,11.0942,17.13522,12.16081
    c2.60671,0.49399,3.00899,0.15591,3.58787-2.54872c0.41045-1.93362,3.89535,0.48282,1.07658-1.15144
    c-0.00185,0-3.52361-3.07011-4.33882-3.65895c-5.99747-4.34756-6.28559-8.03526-10.08865-12.76332
    C46.59294,70.89806,45.21194,79.64314,46.03532,80.8283z"/>
  <path fill="#F5E0CD" d="M46.88611,81.15392c-6.8913-5.29697-8.90854-18.74705-7.44144-24.24612
    c0.68363-2.56673,2.66905-5.0699,5.34002-5.79282c6.13524-1.66172,4.82412,4.06314,4.86219,4.34693
    c-0.00064,0.00128,0.03928,0.58635,0.21142,1.57874c1.52886,8.83866-0.14054,9.22516,1.58108,13.99321
    c-0.23541,1.08823,1.45312,1.13824,1.96814,1.83282C54.66553,74.56327,47.8511,81.89646,46.88611,81.15392z"/>
  <path fill="#F5E0CD" d="M116.06458,102.09099c-2.64344,2.33532-8.81368,4.79046-12.7365,5.30694
    c-1.812,0.23952-2.07458-0.00626-2.36968-1.88879c-0.20828-1.34478,0.0518-1.74149,0.23269-1.82012
    c0.00249-0.00121,1.78646-0.72726,2.42206-1.00172c4.68195-2.01601,5.43232-4.45238,8.69641-7.05475
    C117.18427,95.33446,116.79688,101.41732,116.06458,102.09099z"/>
  <path fill="#F5E0CD" d="M116.06458,102.09099c2.33602-5.51031-1.01168-14.25411-3.75502-17.05354
    c-1.27866-1.30741-2.94473,9.32141-2.36093,12.76205C113.1972,101.44727,115.67662,103.00539,116.06458,102.09099z"/>
  <path fill="#F5E0CD" d="M92.59695,104.37642c0.15598-0.27319,0.21085-0.34434,0.6531-0.42916
    c0.45905-0.08731,0.96741-0.12972,1.41344-0.26571c0.29439,0.5976,0.40482,0.72853-0.18964,0.75727
    c-0.37921,0.01871-0.61624-0.07983-0.84516-0.43414c-0.23767-0.36554,0.16651-0.70611,0.44098-0.89447
    c0.62749-0.43166,1.01608-1.31866,1.71594-1.02797c0.79215,0.32933,1.21633,0.38924,2.06462,0.53519
    c0.62193,0.10603,1.33488,0.92564,1.94238,1.09159c0.76041,0.2058,1.06853,0.09357,1.39849-0.02
    c0.26884-0.08981,0.54957,0.15968,0.77906,0.32939c0.34868,0.25568,0.55952,0.64742,0.7111,1.04292
    c0.27695,0.72975,0.42105,0.89819,0.54145,1.66415c0.03493,0.22208,0.06796,0.44666,0.10354,0.66747
    c-1.3985,0.19711-2.76391,0.50274-4.1343,0.83833c-0.83833,0.20459-1.67538,0.41166-2.51997,0.59255
    c-0.39046,0.08105-0.77286,0.20708-1.15584,0.30939c-0.30627,0.08355-0.66927,0.20459-0.98614,0.13222
    c-0.10538-0.0237-0.32434-0.1759-0.39984-0.28072c-0.37423-0.50773,0.39857-0.70982,0.1784-0.65368
    c-0.55263,0.14595-0.70669-0.22202-0.82147-0.42041c-0.30441-0.52644,0.17029-0.81834,0.40483-0.92066
    c-0.36989,0.0861-0.72298,0.10603-0.97994-0.22081c-0.21206-0.27197-0.32875-0.69985-0.07735-0.98428
    c0.14658-0.16467,0.36803-0.25326,0.56451-0.34058c-0.15847-0.06987-0.37487,0.10105-0.52586,0.00869
    C92.14536,105.00889,92.52834,104.4949,92.59695,104.37642z"/>
  <path fill="#F5E0CD" d="M98.06541,77.58599c4.27376-1.62511,7.11749-2.98196,9.9324-8.0299
    c2.93065-5.24856,0.07185-11.87246-5.27323-14.23349c-5.34298-2.36586-11.64577,0.17931-14.07738,5.68184
    c-2.43224,5.5012-0.74825,11.82655-0.09583,13.27789C89.09422,75.48988,95.714,78.47871,98.06541,77.58599z"/>
  <path fill="#F09A36" d="M106.99973,71.35786c1.54507-1.98389,2.72862-3.60767,2.90051-5.1404
    c0.04108-0.30192-0.59766-0.63188-0.58946-0.93716c0.05068-0.61,0.22866-1.70937,0.22733-1.71148
    c-0.0007-1.42589,0.41001-1.11921,0.24093-3.22156c0,0-2.57055-0.82556-2.68214-1.75039
    c-0.24023-1.97568-0.4874-3.44336-0.4874-3.44336s-2.1899-0.43679-3.16681-0.19579
    c-0.40181-0.49224-1.12748-1.87775-1.80177-3.13057c0,0-2.80124,1.29663-3.80338,0.94613
    c-1.5239-0.53465-3.43179-1.58754-3.43179-1.58754s-1.05212,2.77047-1.97428,3.61657
    c-1.40535-0.06435-4.43526,0.15541-4.43526,0.15541s1.17536,3.44336,0.65102,6.04671c0,0,5.95096-4.13545,14.04184,2.79718
    c2.30151,1.96741,2.68208,3.88148,2.93401,5.80235c0.25053,1.91953-1.52249,3.90889-2.84093,5.8859
    c1.13975-0.92139,2.07761-1.77576,2.85529-2.57945c0.0007,0.02054,0.00204,0.03975,0.0007,0.05756
    C106.14809,72.44903,106.59926,71.90961,106.99973,71.35786z"/>
  <path fill="#00ADEE" d="M107.2534,97.31924c2.72456,0.47655,11.91566-1.47208,11.45533-3.22487
    c-1.29745-4.94637-1.82261-6.75027-5.43481-11.37607c-2.0079-2.56986-2.835-5.10734-5.80846-4.31889
    c-0.41415,0.10851-2.65283,3.46312-2.56986,3.81487c0.00185,0.00249,0.17342,0.72106,0.4703,1.9561
    c2.19256,9.09689,1.5638,3.77125,1.61182,11.41605C107.14175,96.66301,107.2534,97.31924,107.2534,97.31924z"/>
  <path fill="#00ADEE" d="M54.84652,69.69176c-2.94351,2.11949-14.90281,5.0761-15.36314,2.74448
    c-1.29681-6.57877-3.99205-9.51168-2.37402-17.03481c0.89818-4.18354,3.88411-6.2725,7.84499-7.04408
    c0.55141-0.10539,3.93591,1.69723,4.03759,2.16254c0.00057,0.00377,0.97802,0.80844,1.33481,2.43707
    c2.61355,11.98925-0.45969,5.4847,3.85485,14.53292C54.60201,68.85464,54.84652,69.69176,54.84652,69.69176z"/>
  <path fill="#808184" d="M94.40511,67.69951c0.16494,0.3519,0.53121,0.40392,0.82009,0.1109
    c0.28818-0.28748,0.38954-0.81049,0.22382-1.16373c-0.16087-0.3519-0.52917-0.40251-0.81666-0.1123
    C94.34278,66.82467,94.24282,67.34768,94.40511,67.69951z"/>
  <path fill="#808184" d="M89.15858,66.45223c0.1362,0.32589,0.44772,0.33823,0.69686,0.02874
    c0.24717-0.31278,0.33682-0.82963,0.20062-1.15685c-0.13831-0.32449-0.45116-0.33549-0.69826-0.02264
    C89.11133,65.6116,89.02097,66.12844,89.15858,66.45223z"/>
  <path fill="#F5E0CD" d="M83.18069,87.96034c-2.43451-0.43536-5.13409-0.28443-7.49196-0.89569
    c0.51839-0.75728,3.077-1.7765,2.13641-3.39574c-0.41728-0.72482-3.63966,2.13699-7.14641,3.03019
    c-1.23505,0.31438-2.5431,1.47208-3.91285,1.12276c-1.37039-0.35175-3.0452,1.9549-2.75822,5.23457
    c3.56659,1.31616,5.37988,1.02049,7.57551,1.37231c3.89975,0.62001,7.78948,2.18937,8.00217,1.15769
    c0.30627-1.49826-3.82988-1.33736-3.71069-1.64172c0.32933-0.85085,5.45787,2.08704,5.91322-0.131
    c0.34676-1.69914-3.56915-0.2171-5.40735-2.15321c3.9727,0.03366,7.03911,2.23932,7.40209,0.46532
    c0.36369-1.76775-3.22858-1.39473-6.94553-2.75324C78.96725,89.22534,84.98714,90.95068,83.18069,87.96034"/>
  <path fill="#F09A36" d="M102.72668,61.55284c-0.48467,0.91522-1.65323,4.39145-1.65323,4.39145s3.97457-0.51958,5.22662,0.82563
    C106.30007,66.76992,102.47748,60.70533,102.72668,61.55284z"/>

</svg>
