<?xml version="1.0" encoding="utf-8"?>
<!DOCTYPE svg PUBLIC "-//W3C//DTD SVG 1.1//EN" "http://www.w3.org/Graphics/SVG/1.1/DTD/svg11.dtd">
<svg version="1.1" xmlns="http://www.w3.org/2000/svg" xmlns:xlink="http://www.w3.org/1999/xlink" x="0px" y="0px" width="160px"
  height="160px" viewBox="0 0 160 160" enable-background="new 0 0 160 160" xml:space="preserve">
  <linearGradient id="SVGID_1_" gradientUnits="userSpaceOnUse" x1="70.79903" y1="109.55364" x2="130.59958" y2="109.55364">
    <stop  offset="0" style="stop-color:#919397"/>
    <stop  offset="0.5" style="stop-color:#62696A"/>
    <stop  offset="1" style="stop-color:#505458"/>
  </linearGradient>
  <path fill="url(#SVGID_1_)" d="M112.65232,99.15842c0,0,0-0.00206-0.00101-0.00259
    c-0.48856-0.60392-1.86619-1.80096-2.90074-2.3221c0.03312-0.08177,0.02125-0.16614-0.05019-0.25305
    c-1.20684-1.48579-13.68173-2.05098-21.26134-2.05872h-0.14648c-8.05363,0-18.5811,0.77164-17.40266,2.22066
    c0.09937,0.12269,0.30582,0.23758,0.59978,0.34521c-0.40678,1.23016-0.06571,1.66227,0.23445,2.03387
    c0.00047,0.00053,0.00153,0.00101,0.00153,0.00101v0.00053l17.44824,21.62933l0.00106,0.00101
    c0.05119,0.06317,0.15056,0.12523,0.28564,0.18633c0.00106,0.00053,0.00053,0.00101,0.00106,0.00153
    c0.35448,0.4363,1.3176,0.93053,2.13164,1.27155c-0.07191,0.09989-0.07451,0.20493,0.01453,0.31362
    c1.20789,1.48579,13.68172,2.05146,21.26186,2.05872h0.14695c8.05317,0,18.67113-1.39629,17.49276-2.84537
    c-0.08696-0.10763-0.354,0.41558-0.59306,0.31882c0.24065-0.42385,0.22665-0.88235,0.13091-1.25395
    c0.00519-0.04086-0.00208-0.08124-0.0336-0.12162c0-0.00153-0.00053-0.00313-0.00053-0.0052
    c-0.01192-0.03465-0.04451-0.07085-0.08797-0.10863l-17.2723-21.41094H112.65232z"/>
  <linearGradient id="SVGID_2_" gradientUnits="userSpaceOnUse" x1="42.31181" y1="93.07678" x2="98.60739" y2="93.07678">
    <stop  offset="0" style="stop-color:#919397"/>
    <stop  offset="0.5" style="stop-color:#62696A"/>
    <stop  offset="1" style="stop-color:#505458"/>
  </linearGradient>
  <path fill="url(#SVGID_2_)" d="M81.77153,83.6944c0,0,0-0.00106-0.00101-0.00159c-0.46057-0.54494-1.75931-1.62554-2.73461-2.09597
    c0.03132-0.07398,0.01993-0.14955-0.04733-0.2282c-1.13831-1.34144-12.89948-1.85172-20.04543-1.85793h-0.13842
    c-7.59285,0-17.51814,0.69661-16.40728,2.0044c0.09369,0.11023,0.28855,0.21372,0.5654,0.31102
    c-0.3832,1.1106-0.06158,1.49974,0.22152,1.83614l0.00127,0.00106l0,0l16.45073,19.52037l0.00053,0.00053
    c0.04865,0.05744,0.14202,0.11335,0.26937,0.16873c0.00074,0.00047,0.00053,0.00101,0.00053,0.00101
    c0.33482,0.39438,1.24229,0.83996,2.01028,1.14786c-0.06778,0.09009-0.07011,0.18426,0.01346,0.28309
    c1.13879,1.34091,12.89948,1.8512,20.04623,1.85793h0.13815c7.59254,0,17.51809-0.69608,16.40675-2.0044
    c-0.08177-0.0973-0.2479-0.18834-0.47329-0.2753c0.22692-0.38347,0.21346-0.79698,0.12369-1.13233
    c0.00466-0.03625-0.00233-0.0735-0.03185-0.1097c-0.00021-0.00159-0.00074-0.00313-0.00074-0.00419
    c-0.01086-0.03206-0.04218-0.06465-0.08282-0.0983L81.77259,83.6944H81.77153z"/>
  <linearGradient id="SVGID_3_" gradientUnits="userSpaceOnUse" x1="59.18507" y1="99.68861" x2="101.71203" y2="99.68861">
    <stop  offset="0" style="stop-color:#D0D2D3"/>
    <stop  offset="0.5" style="stop-color:#AAACAF"/>
    <stop  offset="1" style="stop-color:#A6A8AB"/>
  </linearGradient>
  <path fill="url(#SVGID_3_)" d="M80.51991,93.07702c-11.77776-0.0186-21.33484,4.02528-21.33484,6.16683
    c0,1.41383,1.1106,3.0927,1.73683,3.71887c1.29353,1.1965,8.46768,3.31007,19.58767,3.33752h0.15681
    c11.63154,0,18.21623-2.41839,19.26991-3.7122l0,0c0.99831-1.27726,1.51532-2.84531,1.76036-3.96217
    C102.15491,96.53304,92.29766,93.10087,80.51991,93.07702z"/>
  <linearGradient id="SVGID_4_" gradientUnits="userSpaceOnUse" x1="61.84824" y1="41.87681" x2="99.44234" y2="41.87681">
    <stop  offset="0" style="stop-color:#A5BACA"/>
    <stop  offset="0.5" style="stop-color:#AAACAF"/>
    <stop  offset="0.5724" style="stop-color:#A5AAAF"/>
    <stop  offset="1" style="stop-color:#8EA2AD"/>
  </linearGradient>
  <path fill="url(#SVGID_4_)" d="M61.84824,42.29987c0.77705,0.99937,8.24722,2.77912,18.65408,2.80239h0.1796
    c10.60297,0,18.28194-2.08612,18.76043-3.17706c-0.00853-0.94812-7.15735-3.24743-18.92991-3.27383h-0.15034
    C69.24263,38.65137,62.11374,41.16446,61.84824,42.29987L61.84824,42.29987z"/>
  <linearGradient id="SVGID_5_" gradientUnits="userSpaceOnUse" x1="59.04538" y1="75.33752" x2="101.83662" y2="75.33752">
    <stop  offset="0" style="stop-color:#EC7B31"/>
    <stop  offset="0.5" style="stop-color:#D5562B"/>
    <stop  offset="0.80021" style="stop-color:#D87655"/>
    <stop  offset="1" style="stop-color:#DA886D"/>
  </linearGradient>
  <path fill="url(#SVGID_5_)" d="M101.83662,48.04025l-42.65155-0.08283l-0.13969,50.84239l0,0l0,0v0.00207l0,0
    c0.00233,2.1415,9.54384,3.89327,21.31539,3.91553c11.77102,0.02279,21.31724-1.9495,21.3351-4.09153h0.00079L101.83662,48.04025z"
    />
  <linearGradient id="SVGID_6_" gradientUnits="userSpaceOnUse" x1="60.87193" y1="45.34814" x2="100.37828" y2="45.34814">
    <stop  offset="0" style="stop-color:#E6EBF1"/>
    <stop  offset="0.5" style="stop-color:#D9DBDC"/>
    <stop  offset="1" style="stop-color:#D5DBDF"/>
  </linearGradient>
  <path fill="url(#SVGID_6_)" d="M100.37827,45.78694c-0.00546,2.14357-8.85194,3.8628-19.7626,3.84108
    c-10.9078-0.02072-19.74888-1.77255-19.74374-3.91458c0.0034-2.13837,8.84993-4.66545,19.75847-4.64526
    C91.5416,41.08889,100.38294,43.64751,100.37827,45.78694z"/>
  <linearGradient id="SVGID_7_" gradientUnits="userSpaceOnUse" x1="2278.59351" y1="1406.41357" x2="2281.27563" y2="1411.02551" gradientTransform="matrix(-0.7292 0.6843 0.6843 0.7292 780.89948 -2542.44727)">
    <stop  offset="0" style="stop-color:#D0D2D3"/>
    <stop  offset="0.40427" style="stop-color:#BDBFC1"/>
    <stop  offset="1" style="stop-color:#A6A8AB"/>
  </linearGradient>
  <path fill="url(#SVGID_7_)" d="M78.32669,45.80506c1.91611,0.68521,6.43668,1.6814,8.77791,0.73434
    c2.34229-0.94759-0.55061-2.60207-2.46624-3.28728c-1.91611-0.68521-4.88231-0.66862-6.62529,0.03625
    C76.26978,43.99319,76.41052,45.12038,78.32669,45.80506z"/>
  <linearGradient id="SVGID_8_" gradientUnits="userSpaceOnUse" x1="59.18507" y1="46.92807" x2="101.83663" y2="46.92807">
    <stop  offset="0" style="stop-color:#D0D2D3"/>
    <stop  offset="0.5" style="stop-color:#AAACAF"/>
    <stop  offset="1" style="stop-color:#A6A8AB"/>
  </linearGradient>
  <path fill="url(#SVGID_8_)" d="M99.669,42.33092c-1.10127,1.59709-6.58988,3.26662-19.3077,3.47361
    c-10.46297,0.1708-18.97596-1.5505-19.27559-3.44102c-1.89078,3.5264-1.8983,4.63911-1.90063,5.59185
    c-0.00387,2.14202,9.53949,3.89592,21.31725,3.91919c11.77749,0.01966,21.32964-1.69899,21.3343-3.83948
    C101.83949,45.8951,100.88103,40.57549,99.669,42.33092z"/>
  <path fill="#D0D2D3" d="M80.68192,46.61238l-0.18241-0.00101c-6.31871-0.01346-20.16838-1.1018-20.16838-4.24786
    c0-3.40684,11.63261-5.22125,20.03097-5.22125h0.15315c7.89842,0.01759,20.42789,1.34658,20.42789,4.83885
    C100.94314,45.00289,89.17599,46.61238,80.68192,46.61238L80.68192,46.61238z M61.84824,42.29987
    c0.77705,0.99937,8.24722,2.77912,18.65408,2.80239h0.1796c10.60297,0,18.28194-2.08612,18.76043-3.17706
    c-0.00853-0.94812-7.15735-3.24743-18.92991-3.27383h-0.15034C69.24263,38.65137,62.11374,41.16446,61.84824,42.29987
    L61.84824,42.29987z"/>
  <linearGradient id="SVGID_9_" gradientUnits="userSpaceOnUse" x1="1995.48523" y1="1112.92114" x2="2003.31238" y2="1112.92114" gradientTransform="matrix(-0.8468 0.5319 0.5319 0.8468 1175.86792 -1965.87048)">
    <stop  offset="0" style="stop-color:#A5BACA"/>
    <stop  offset="0.5" style="stop-color:#AAACAF"/>
    <stop  offset="0.5724" style="stop-color:#A5AAAF"/>
    <stop  offset="1" style="stop-color:#8EA2AD"/>
  </linearGradient>
  <path fill="url(#SVGID_9_)" d="M70.58715,40.18169c1.71998,1.18771,5.92433,3.24796,8.44389,2.56121
    c2.5203-0.68728,0.06805-3.22417-1.6522-4.4124c-1.71998-1.18824-4.63519-1.73678-6.51098-1.22549
    C68.99213,37.61581,68.86691,38.99345,70.58715,40.18169z M74.27836,41.24777c-0.75559-0.52221,2.95766-1.53397,3.7132-1.01176
    c0.75507,0.52168,1.73837,1.66227,0.36047,2.03747C76.97491,42.64867,75.03342,41.76945,74.27836,41.24777z M71.3986,39.8572
    c-1.25475-0.86635-1.16391-1.87192,0.20493-2.24452c1.36784-0.37313,3.49434,0.02745,4.74956,0.89375
    C77.60809,39.37331,72.65361,40.72403,71.3986,39.8572z"/>
  <linearGradient id="SVGID_10_" gradientUnits="userSpaceOnUse" x1="1995.29456" y1="1112.61743" x2="2003.1217" y2="1112.61743" gradientTransform="matrix(-0.8468 0.5319 0.5319 0.8468 1175.86792 -1965.87048)">
    <stop  offset="0" style="stop-color:#E6EBF1"/>
    <stop  offset="0.5" style="stop-color:#D9DBDC"/>
    <stop  offset="1" style="stop-color:#D5DBDF"/>
  </linearGradient>
  <path fill="url(#SVGID_10_)" d="M70.58715,39.82302c1.71998,1.18824,5.92433,3.24796,8.44389,2.56121
    c2.5203-0.68675,0.06805-3.22417-1.6522-4.4124c-1.71998-1.18771-4.63519-1.73678-6.51098-1.22549
    C68.99213,37.25715,68.86691,38.63478,70.58715,39.82302z M74.27836,40.88911c-0.75559-0.52168,2.95766-1.53392,3.7132-1.01123
    c0.75507,0.52168,1.73837,1.66179,0.36047,2.03699C76.97491,42.29006,75.03342,41.41078,74.27836,40.88911z M71.3986,39.49907
    c-1.25475-0.86688-1.16391-1.87239,0.20493-2.24505c1.36784-0.3726,3.49434,0.02745,4.74956,0.89428
    C77.60809,39.01465,72.65361,40.36536,71.3986,39.49907z"/>
  <linearGradient id="SVGID_11_" gradientUnits="userSpaceOnUse" x1="16.11664" y1="109.20637" x2="78.64173" y2="109.20637">
    <stop  offset="0" style="stop-color:#919397"/>
    <stop  offset="0.5" style="stop-color:#62696A"/>
    <stop  offset="1" style="stop-color:#505458"/>
  </linearGradient>
  <path fill="url(#SVGID_11_)" d="M59.87675,98.80188c0,0,0-0.00106-0.00101-0.00207c-0.51081-0.6045-1.95109-1.80254-3.0327-2.32475
    c0.03466-0.08177,0.02199-0.16561-0.05252-0.25305c-1.26227-1.48685-14.30537-2.05299-22.23018-2.06026h-0.15342
    c-8.42036,0-19.42726,0.77213-18.1953,2.22327c0.10376,0.12215,0.32009,0.23705,0.62698,0.34468
    c-0.42486,1.23121-0.06831,1.66332,0.24557,2.03593c0.00053,0.00053,0.00154,0.00106,0.00154,0.00106l0,0l18.24342,21.64793
    l0.00079,0.00101c0.05384,0.06317,0.15734,0.12528,0.29862,0.18686c0.00101,0.00048,0.00048,0.00048,0.00101,0.00154
    c0.3708,0.43678,1.37737,0.931,2.22899,1.27207c-0.07531,0.10037-0.0779,0.20493,0.015,0.31463
    c1.26275,1.48685,14.30531,2.05251,22.23065,2.06025h0.15347c8.41978,0,19.52217-2.04886,18.28973-3.49894
    c-0.09083-0.10764-0.37006,1.06715-0.62003,0.97032c0.25177-0.42485,0.23678-0.88336,0.13715-1.25495
    c0.0052-0.04092-0.00233-0.08177-0.03519-0.12215c-0.00027-0.00153-0.00075-0.00307-0.00075-0.00466
    c-0.01218-0.03519-0.04684-0.07191-0.09189-0.10917l-18.0589-21.42954H59.87675z"/>
  <path fill="#D0D2D3" d="M58.28952,115.04276h0.20233c7.00727,0.01653,22.36626,1.22337,22.36626,4.71151
    c0,3.77891-12.90075,5.79105-22.21412,5.79105h-0.16974c-8.75904-0.01966-22.65397-1.49354-22.65397-5.36667
    C35.82029,116.82819,48.86906,115.04276,58.28952,115.04276L58.28952,115.04276z M79.17619,119.82565
    c-0.86221-1.10954-9.14722-3.08236-20.6874-3.10822h-0.19926c-11.75863,0-20.27443,2.3133-20.8049,3.52326
    c0.00986,1.05162,7.93721,3.60197,20.99276,3.62995H58.644C70.97607,123.87064,78.88117,121.08426,79.17619,119.82565
    L79.17619,119.82565z"/>
  <linearGradient id="SVGID_12_" gradientUnits="userSpaceOnUse" x1="34.82872" y1="116.53835" x2="81.99042" y2="116.53835">
    <stop  offset="0" style="stop-color:#D0D2D3"/>
    <stop  offset="0.5" style="stop-color:#AAACAF"/>
    <stop  offset="1" style="stop-color:#A6A8AB"/>
  </linearGradient>
  <path fill="url(#SVGID_12_)" d="M58.48878,109.20613c-13.06122-0.02072-23.66006,4.46519-23.66006,6.83954
    c0,1.5681,1.23169,3.4291,1.92623,4.12465c1.43456,1.32591,9.39042,3.67027,21.72244,3.70033h0.17387
    c12.89922,0,20.20145-2.68183,21.37003-4.11638l0,0c1.10699-1.41696,1.6804-3.15586,1.9521-4.39375
    C82.4816,113.03889,71.55,109.23306,58.48878,109.20613z"/>
  <linearGradient id="SVGID_13_" gradientUnits="userSpaceOnUse" x1="37.78219" y1="52.42674" x2="79.47322" y2="52.42674">
    <stop  offset="0" style="stop-color:#A5BACA"/>
    <stop  offset="0.5" style="stop-color:#AAACAF"/>
    <stop  offset="0.5724" style="stop-color:#A5AAAF"/>
    <stop  offset="1" style="stop-color:#8EA2AD"/>
  </linearGradient>
  <path fill="url(#SVGID_13_)" d="M37.78219,52.89564c0.86169,1.10853,9.14617,3.08236,20.68693,3.10822h0.1992
    c11.75863,0,20.27448-2.3133,20.8049-3.52327c-0.00927-1.05162-7.93721-3.60197-20.99276-3.63095h-0.16661
    C45.98236,48.84963,38.07668,51.63596,37.78219,52.89564L37.78219,52.89564z"/>
  <linearGradient id="SVGID_14_" gradientUnits="userSpaceOnUse" x1="34.67397" y1="89.53368" x2="82.12865" y2="89.53368">
    <stop  offset="0" style="stop-color:#EC7B31"/>
    <stop  offset="0.5" style="stop-color:#D5562B"/>
    <stop  offset="0.80021" style="stop-color:#D87655"/>
    <stop  offset="1" style="stop-color:#DA886D"/>
  </linearGradient>
  <path fill="url(#SVGID_14_)" d="M82.12865,59.26215l-47.29994-0.0921l-0.15474,56.38294l0,0l0,0v0.00313l0,0
    c0.00259,2.3744,10.58385,4.31717,23.63834,4.34097c13.05396,0.02586,23.64035-2.16116,23.66006-4.53657h0.00101L82.12865,59.26215
    z"/>
  <linearGradient id="SVGID_15_" gradientUnits="userSpaceOnUse" x1="36.69957" y1="56.27663" x2="80.51138" y2="56.27663">
    <stop  offset="0" style="stop-color:#E6EBF1"/>
    <stop  offset="0.5" style="stop-color:#D9DBDC"/>
    <stop  offset="1" style="stop-color:#D5DBDF"/>
  </linearGradient>
  <path fill="url(#SVGID_15_)" d="M80.51138,56.76252c-0.0062,2.37753-9.81686,4.28405-21.9165,4.26026
    c-12.09657-0.02279-21.90103-1.96556-21.89531-4.34203c0.0036-2.37128,9.81427-5.17314,21.91184-5.15035
    C70.71158,51.55319,80.51657,54.39023,80.51138,56.76252z"/>
  <linearGradient id="SVGID_16_" gradientUnits="userSpaceOnUse" x1="1201.65234" y1="2431.62671" x2="1210.28247" y2="2431.62671" gradientTransform="matrix(0.7292 0.6843 -0.6843 0.7292 841.23621 -2542.44727)">
    <stop  offset="0" style="stop-color:#919397"/>
    <stop  offset="0.5" style="stop-color:#62696A"/>
    <stop  offset="1" style="stop-color:#505458"/>
  </linearGradient>
  <path fill="url(#SVGID_16_)" d="M61.50177,53.99171c-1.93291-0.78145-5.22231-0.80005-7.34723-0.04033
    c-2.12443,0.75972-5.33254,2.59481-2.73514,3.64542c2.5964,1.05056,7.60965-0.05384,9.73462-0.81356
    C63.27893,56.02351,63.43526,54.7737,61.50177,53.99171z"/>
  <linearGradient id="SVGID_17_" gradientUnits="userSpaceOnUse" x1="34.82871" y1="58.02824" x2="82.12866" y2="58.02824">
    <stop  offset="0" style="stop-color:#D0D2D3"/>
    <stop  offset="0.5" style="stop-color:#AAACAF"/>
    <stop  offset="1" style="stop-color:#A6A8AB"/>
  </linearGradient>
  <path fill="url(#SVGID_17_)" d="M79.72473,52.92976c-1.22131,1.77096-7.3079,3.62369-21.41195,3.85247
    c-11.60335,0.1894-21.04395-1.71924-21.37622-3.81622c-2.09698,3.9114-2.10525,5.14521-2.10785,6.20096
    c-0.00414,2.37642,10.57918,4.32131,23.6404,4.34717c13.06117,0.02173,23.65434-1.88379,23.65953-4.25819
    C82.13173,56.8826,81.06877,50.98286,79.72473,52.92976z"/>
  <path fill="#D0D2D3" d="M58.66832,57.67858l-0.20233-0.00106c-7.00727-0.01553-22.36626-1.22236-22.36626-4.7115
    c0-3.77791,12.90028-5.79004,22.21412-5.79004h0.16974c8.75904,0.01966,22.65402,1.49359,22.65402,5.36672
    C81.13761,55.8931,68.08826,57.67858,58.66832,57.67858L58.66832,57.67858z M37.78219,52.89564
    c0.86169,1.10853,9.14617,3.08236,20.68693,3.10822h0.1992c11.75863,0,20.27448-2.3133,20.8049-3.52327
    c-0.00927-1.05162-7.93721-3.60197-20.99276-3.63095h-0.16661C45.98236,48.84963,38.07668,51.63596,37.78219,52.89564
    L37.78219,52.89564z"/>
  <linearGradient id="SVGID_18_" gradientUnits="userSpaceOnUse" x1="745.36621" y1="1910.11047" x2="754.04657" y2="1910.11047" gradientTransform="matrix(0.8468 0.5319 -0.5319 0.8468 446.26831 -1965.87048)">
    <stop  offset="0" style="stop-color:#A5BACA"/>
    <stop  offset="0.5" style="stop-color:#AAACAF"/>
    <stop  offset="0.5724" style="stop-color:#A5AAAF"/>
    <stop  offset="1" style="stop-color:#8EA2AD"/>
  </linearGradient>
  <path fill="url(#SVGID_18_)" d="M69.42557,47.13458c-2.07992-0.5672-5.31288,0.04139-7.22046,1.35898
    c-1.90758,1.31765-4.62719,4.13138-1.83206,4.89317c2.79412,0.76179,7.4565-1.52305,9.36408-2.84012
    C71.6447,49.22897,71.50602,47.70125,69.42557,47.13458z M61.12604,52.86665c-1.52825-0.41664-0.43779-1.68092,0.39952-2.25951
    c0.83789-0.57912,4.95581,0.5434,4.11797,1.12199C64.80617,52.30772,62.65328,53.28271,61.12604,52.86665z M63.34263,48.68922
    c1.39211-0.96158,3.75045-1.40509,5.2673-0.99157c1.51791,0.41346,1.61882,1.52824,0.22719,2.48924
    C67.4455,51.14847,61.951,49.65022,63.34263,48.68922z"/>
  <linearGradient id="SVGID_19_" gradientUnits="userSpaceOnUse" x1="745.15479" y1="1909.77393" x2="753.83514" y2="1909.77393" gradientTransform="matrix(0.8468 0.5319 -0.5319 0.8468 446.26831 -1965.87048)">
    <stop  offset="0" style="stop-color:#E6EBF1"/>
    <stop  offset="0.5" style="stop-color:#D9DBDC"/>
    <stop  offset="1" style="stop-color:#D5DBDF"/>
  </linearGradient>
  <path fill="url(#SVGID_19_)" d="M69.42557,46.73713c-2.07992-0.5672-5.31288,0.04139-7.22046,1.35898
    c-1.90758,1.31765-4.62719,4.13138-1.83206,4.89317c2.79412,0.76179,7.4565-1.52305,9.36408-2.84012
    C71.6447,48.83151,71.50602,47.30379,69.42557,46.73713z M61.12604,52.46919c-1.52825-0.41664-0.43779-1.68092,0.39952-2.25951
    c0.83789-0.57912,4.95581,0.5434,4.11797,1.12199C64.80617,51.91026,62.65328,52.88525,61.12604,52.46919z M63.34263,48.29176
    c1.39211-0.96158,3.75045-1.40509,5.2673-0.99157c1.51791,0.41346,1.61882,1.52825,0.22719,2.48924
    C67.4455,50.75101,61.951,49.25276,63.34263,48.29176z"/>
  <path fill="#D0D2D3" d="M111.13446,115.38483l0.19353,0.00048c6.70139,0.01605,21.39123,1.22189,21.39123,4.70742
    c0,3.77531-12.33874,5.78586-21.24634,5.78586h-0.16196c-8.37764-0.01966-21.66658-1.49306-21.66658-5.36201
    C89.64435,117.16872,102.12386,115.38483,111.13446,115.38483L111.13446,115.38483z M131.11079,120.16359
    c-0.82497-1.108-8.74873-3.07976-19.78593-3.10509l-0.19041-0.00053c-11.2468,0-19.39106,2.31229-19.89875,3.5212
    c0.00986,1.05008,7.59153,3.59836,20.07829,3.62629h0.15888C123.26774,124.20546,130.8287,121.4212,131.11079,120.16359
    L131.11079,120.16359z"/>
  <linearGradient id="SVGID_20_" gradientUnits="userSpaceOnUse" x1="88.69576" y1="116.87939" x2="133.80215" y2="116.87939">
    <stop  offset="0" style="stop-color:#D0D2D3"/>
    <stop  offset="0.5" style="stop-color:#AAACAF"/>
    <stop  offset="1" style="stop-color:#A6A8AB"/>
  </linearGradient>
  <path fill="url(#SVGID_20_)" d="M111.32487,109.55341c-12.49191-0.02072-22.62911,4.461-22.62911,6.83387
    c0,1.56651,1.17785,3.4265,1.84234,4.12099c1.37197,1.32539,8.98109,3.66768,20.77591,3.6972h0.16614
    c12.3372,0,19.32116-2.67971,20.43902-4.11272l0,0c1.0583-1.41595,1.6069-3.15279,1.86667-4.39014
    C134.27232,113.38303,123.81683,109.58027,111.32487,109.55341z"/>
  <linearGradient id="SVGID_21_" gradientUnits="userSpaceOnUse" x1="91.52087" y1="52.8229" x2="131.3949" y2="52.8229">
    <stop  offset="0" style="stop-color:#A5BACA"/>
    <stop  offset="0.5" style="stop-color:#AAACAF"/>
    <stop  offset="0.5724" style="stop-color:#A5AAAF"/>
    <stop  offset="1" style="stop-color:#8EA2AD"/>
  </linearGradient>
  <path fill="url(#SVGID_21_)" d="M91.52087,53.29103c0.82337,1.10747,8.74718,3.07923,19.78487,3.10562h0.19046
    c11.24625,0,19.39154-2.31177,19.8987-3.5202c-0.0088-1.05056-7.59153-3.59884-20.07829-3.6273h-0.15888
    C99.36338,49.24916,91.8019,52.03289,91.52087,53.29103L91.52087,53.29103z"/>
  <linearGradient id="SVGID_22_" gradientUnits="userSpaceOnUse" x1="88.54774" y1="89.89828" x2="133.93437" y2="89.89828">
    <stop  offset="0" style="stop-color:#EC7B31"/>
    <stop  offset="0.5" style="stop-color:#D5562B"/>
    <stop  offset="0.80021" style="stop-color:#D87655"/>
    <stop  offset="1" style="stop-color:#DA886D"/>
  </linearGradient>
  <path fill="url(#SVGID_22_)" d="M133.93437,59.65187l-45.23862-0.0911l-0.14802,56.33435l0,0l0,0v0.00307l0,0
    c0.00255,2.37234,10.1227,4.31303,22.60792,4.33736c12.48573,0.02586,22.61052-2.15962,22.62917-4.53297h0.00101
    L133.93437,59.65187z"/>
  <linearGradient id="SVGID_23_" gradientUnits="userSpaceOnUse" x1="90.48531" y1="56.6689" x2="132.38753" y2="56.6689">
    <stop  offset="0" style="stop-color:#E6EBF1"/>
    <stop  offset="0.5" style="stop-color:#D9DBDC"/>
    <stop  offset="1" style="stop-color:#D5DBDF"/>
  </linearGradient>
  <path fill="url(#SVGID_23_)" d="M132.38753,57.15536c-0.00572,2.37436-9.3889,4.27939-20.96123,4.25554
    c-11.56917-0.02274-20.94666-1.96344-20.94099-4.33731c0.00313-2.36974,9.38628-5.16954,20.95651-5.1468
    C123.01467,51.94958,132.39267,54.78456,132.38753,57.15536z"/>
  <linearGradient id="SVGID_24_" gradientUnits="userSpaceOnUse" x1="869.55908" y1="2642.94507" x2="877.81836" y2="2642.94507" gradientTransform="matrix(1.3859 0.7938 0.3 0.8934 -1890.7876 -2998.41162)">
    <stop  offset="0" style="stop-color:#919397"/>
    <stop  offset="0.5" style="stop-color:#62696A"/>
    <stop  offset="1" style="stop-color:#505458"/>
  </linearGradient>
  <path fill="url(#SVGID_24_)" d="M114.39795,53.85822c-2.40027-0.87308-4.9558-0.79285-5.70567,0.18061
    c-0.75045,0.97292-1.08114,3.26296,2.14563,4.4362c3.22364,1.17324,5.79623-0.30122,6.54768-1.27414
    C118.13599,56.22797,116.79923,54.73178,114.39795,53.85822z"/>
  <linearGradient id="SVGID_25_" gradientUnits="userSpaceOnUse" x1="88.69576" y1="58.41937" x2="133.93439" y2="58.41937">
    <stop  offset="0" style="stop-color:#D0D2D3"/>
    <stop  offset="0.5" style="stop-color:#AAACAF"/>
    <stop  offset="1" style="stop-color:#A6A8AB"/>
  </linearGradient>
  <path fill="url(#SVGID_25_)" d="M131.63501,53.32568c-1.16805,1.76942-6.98911,3.62004-20.47882,3.84934
    c-11.09773,0.18834-20.12641-1.71818-20.44469-3.81309c-2.00541,3.90726-2.01367,5.14001-2.01574,6.19577
    c-0.00414,2.37387,10.11803,4.31664,22.60999,4.3425c12.49245,0.02173,22.62344-1.88225,22.62863-4.25401
    C133.9375,57.27487,132.92108,51.38032,131.63501,53.32568z"/>
  <path fill="#D0D2D3" d="M111.4962,58.06978l-0.19359-0.00101c-6.70186-0.015-21.39123-1.22136-21.39123-4.70684
    c0-3.77536,12.33823-5.78538,21.24634-5.78538h0.162c8.37763,0.01913,21.66706,1.492,21.66706,5.36148
    C132.98679,56.28642,120.50572,58.06978,111.4962,58.06978L111.4962,58.06978z M91.52087,53.29103
    c0.82337,1.10747,8.74718,3.07923,19.78487,3.10562h0.19046c11.24625,0,19.39154-2.31177,19.8987-3.5202
    c-0.0088-1.05056-7.59153-3.59884-20.07829-3.6273h-0.15888C99.36338,49.24916,91.8019,52.03289,91.52087,53.29103
    L91.52087,53.29103z"/>
  <linearGradient id="SVGID_26_" gradientUnits="userSpaceOnUse" x1="158.68201" y1="1681.47107" x2="169.47789" y2="1681.47107" gradientTransform="matrix(0.8558 0.2603 0.5173 1.3258 -901.21082 -2223.0354)">
    <stop  offset="0" style="stop-color:#A5BACA"/>
    <stop  offset="0.5" style="stop-color:#AAACAF"/>
    <stop  offset="0.5724" style="stop-color:#A5AAAF"/>
    <stop  offset="1" style="stop-color:#8EA2AD"/>
  </linearGradient>
  <path fill="url(#SVGID_26_)" d="M107.64479,44.56505c-2.16635,0.18426-3.47722,1.84499-2.92661,3.71219
    c0.55119,1.86725,2.62592,5.39312,5.53593,5.14627c2.91002-0.24637,2.85777-3.94304,2.30917-5.81023
    C112.01215,45.74709,109.81114,44.38238,107.64479,44.56505z M110.03727,52.68705c-1.59136,0.13403-2.61193-1.40556-2.85305-2.2248
    c-0.24224-0.81977,4.04542-1.18357,4.28766-0.36333C111.71305,50.91816,111.62762,52.55197,110.03727,52.68705z
     M105.74495,48.07131c-0.40106-1.36163,0.55479-2.5742,2.13482-2.70716c1.57944-0.13508,3.18639,0.86163,3.58691,2.22274
    C111.86774,48.94847,106.14659,49.43342,105.74495,48.07131z"/>
  <linearGradient id="SVGID_27_" gradientUnits="userSpaceOnUse" x1="158.14499" y1="1681.29956" x2="168.93903" y2="1681.29956" gradientTransform="matrix(0.8558 0.2603 0.5173 1.3258 -901.21082 -2223.0354)">
    <stop  offset="0" style="stop-color:#E6EBF1"/>
    <stop  offset="0.5" style="stop-color:#D9DBDC"/>
    <stop  offset="1" style="stop-color:#D5DBDF"/>
  </linearGradient>
  <path fill="url(#SVGID_27_)" d="M107.09572,44.19817c-2.16534,0.1832-3.47621,1.84547-2.92554,3.71214
    c0.55008,1.86619,2.62433,5.39206,5.53487,5.14574c2.91108-0.24632,2.85877-3.94351,2.30817-5.81023
    C111.46409,45.37968,109.26154,44.01444,107.09572,44.19817z M109.4882,52.31911c-1.59084,0.13508-2.61193-1.40609-2.85411-2.22485
    c-0.24118-0.81972,4.04754-1.18304,4.28919-0.36275C111.16446,50.55075,111.07855,52.18403,109.4882,52.31911z M105.1964,47.70385
    c-0.40112-1.36211,0.55427-2.57414,2.13477-2.70822c1.57997-0.13349,3.18533,0.86275,3.58697,2.22433
    C111.32021,48.58207,105.59799,49.06543,105.1964,47.70385z"/>

</svg>
