<?xml version="1.0" encoding="utf-8"?>
<!DOCTYPE svg PUBLIC "-//W3C//DTD SVG 1.1//EN" "http://www.w3.org/Graphics/SVG/1.1/DTD/svg11.dtd">
<svg version="1.1" xmlns="http://www.w3.org/2000/svg" xmlns:xlink="http://www.w3.org/1999/xlink" x="0px" y="0px" width="160px"
  height="160px" viewBox="0 0 160 160" enable-background="new 0 0 160 160" xml:space="preserve">
  <path fill="#E6E7E8" stroke="#989788" stroke-width="1.66832" d="M136.14726,52.88206
    c-1.94427-1.99915-7.80234-7.8103-9.07833-9.07489c-0.04456-0.0434-0.09025-0.08797-0.13364-0.13137
    c-0.07539-0.07428-0.12569-0.12452-0.12569-0.12452h-0.00912c-2.15788-2.05623-5.06863-3.32544-8.28323-3.32544H34.43506
    c-6.63485,0-12.01307,5.37822-12.01307,12.01307v54.05187c0,3.22829,1.28061,6.15273,3.35281,8.31062l-0.00111,0.00801
    c0,0,0.02971,0.02972,0.08112,0.08224c0.06165,0.06287,0.12564,0.12569,0.19073,0.18851
    c1.28862,1.2829,6.94098,6.90788,8.81788,8.82356c2.17964,2.2276,5.21942,3.60876,8.58025,3.60876h84.08334
    c6.63367,0,12.01189-5.37711,12.01189-12.0119V61.24753C139.53891,57.99638,138.2469,55.04568,136.14726,52.88206z"/>
  <path fill="#E6E7E8" stroke="#989788" stroke-width="1.66832" d="M127.1386,43.88596
    c-0.07651-0.07995-0.15307-0.15991-0.23302-0.23641c-0.03427-0.03428-0.0617-0.06399-0.09598-0.09826
    c-0.00339-0.00345-0.01141-0.00117-0.01485-0.00345c-2.1556-2.05395-5.06635-3.32199-8.2775-3.32199H34.43506
    c-6.63485,0-12.01307,5.37822-12.01307,12.01307v54.05187c0,3.11862,1.19949,5.95053,3.14605,8.08672l-0.00795,0.00573
    c0,0,0.07194,0.07311,0.17933,0.18161c0.13025,0.13481,0.26273,0.26846,0.39755,0.39871
    c0.93787,0.9436,2.84103,2.85589,4.22102,4.23588c3.31052,3.31052,5.22059,3.6087,8.58142,3.6087h84.08217
    c6.63479,0,12.01301-5.37822,12.01301-12.01189V56.74326C135.03458,53.53661,135.00493,51.80025,127.1386,43.88596z"/>
  <path fill="#FFFFFF" stroke="#989788" stroke-width="1.66832" d="M130.52913,106.29079
    c0,6.6348-5.37822,12.01302-12.01189,12.01302H34.43506c-6.63485,0-12.01307-5.37822-12.01307-12.01302V52.23892
    c0-6.63485,5.37822-12.01307,12.01307-12.01307h84.08218c6.63367,0,12.01189,5.37822,12.01189,12.01307V106.29079z"/>
  <polygon fill="#989788" points="61.46214,124.3092 52.45235,124.3092 49.44907,121.30591 58.45885,121.30591"/>
  <polygon fill="#989788" points="103.50322,124.3092 94.49454,124.3092 91.49133,121.30591 100.50111,121.30591"/>
  <path fill="#989788" d="M60.73331,40.22585v-4.7876c0-1.28289,1.04069-2.3247,2.32124-2.3247h26.83857
    c1.28178,0,2.32475,1.0418,2.32475,2.3247v4.7876h10.55763v-4.7876c0-7.10317-5.77916-12.88239-12.88239-12.88239H63.05455
    c-7.10089,0-12.87894,5.77922-12.87894,12.88239v4.7876H60.73331z"/>
  <rect x="68.02383" y="54.76582" fill="#C16558" width="17.38099" height="48.52281"/>
  <rect x="52.45236" y="70.33963" fill="#C16558" width="48.52398" height="17.37982"/>

</svg>
