<?xml version="1.0" encoding="utf-8"?>
<!DOCTYPE svg PUBLIC "-//W3C//DTD SVG 1.1//EN" "http://www.w3.org/Graphics/SVG/1.1/DTD/svg11.dtd">
<svg version="1.1" xmlns="http://www.w3.org/2000/svg" xmlns:xlink="http://www.w3.org/1999/xlink" x="0px" y="0px" width="160px"
  height="160px" viewBox="0 0 160 160" enable-background="new 0 0 160 160" xml:space="preserve">
  <path fill="#845727" d="M83.90213,61.97686c-0.27381-0.15691-0.54495-0.31273-0.78564-0.47286
    c-0.63939-0.42537-1.3055-0.31278-2.03562-0.61381c-0.92921-0.38318-1.17101-1.41328-2.06393-1.7858
    c-0.96977-0.4035-1.61293-0.01552-2.3596-0.86571c-0.6506-0.74028-0.47073-0.59403-1.48161-0.80756
    c-0.69547-0.14674-1.13362-0.62125-1.804-0.82888c-1.59369-0.49259-3.24237-0.26578-4.86864-0.16861
    c-1.4352,0.08537-2.52291-0.61381-3.94527-0.53588c-1.18489,0.06406-2.0741-0.3213-3.22641-0.27808
    c-1.75328,0.06618-3.58926,0.21987-5.32281,0.50063c-1.63802,0.26529-3.17088,0.15374-4.78966,0.26529
    c-1.07225,0.07471-2.12957,0.50806-3.11055,0.87424c-1.42236,0.53156-2.96162,0.27966-4.39895,0.71946
    c-0.53856,0.16489-0.96715,0.56785-1.50084,0.71946c-0.51347,0.14516-0.98098-0.04482-1.48696,0.01388
    c-0.92605,0.10728-1.5062,0.79204-1.98758,1.52215c-0.569,0.86145-0.69279,0.9431-1.582,1.40798
    c-0.69809,0.36399-0.60255,0.8497-1.02049,1.40476c-0.66929,0.88866-1.93047,0.98048-1.96195,2.33343
    c-0.01601,0.68748,0.09925,1.08186-0.21134,1.68392c-0.40619,0.78619-0.09072,1.33431,0.15532,2.33185
    c0.62442,2.52985,11.22527,5.03091,26.4338,5.0608c15.20847,0.02558,25.65564-1.89368,26.45566-4.95723
    c0.35175-1.34819,0.34267-2.67507-0.24818-3.8845c-0.50757-1.03863-0.90249-2.35529-1.89527-3.05185
    C84.5677,62.359,84.23251,62.16689,83.90213,61.97686z"/>
  <linearGradient id="SVGID_1_" gradientUnits="userSpaceOnUse" x1="33.85739" y1="63.46574" x2="86.14214" y2="63.46574">
    <stop  offset="0" style="stop-color:#C8926B"/>
    <stop  offset="0.5" style="stop-color:#A36C35"/>
    <stop  offset="0.52694" style="stop-color:#A56D37"/>
    <stop  offset="1" style="stop-color:#BC7A4E"/>
  </linearGradient>
  <path fill="url(#SVGID_1_)" d="M84.8596,62.56395c-0.29191-0.20495-0.62709-0.39706-0.95747-0.58709
    c-0.27381-0.15691-0.54495-0.31273-0.78564-0.47286c-0.63939-0.42537-1.3055-0.31278-2.03562-0.61381
    c-0.92921-0.38318-1.17101-1.41328-2.06393-1.7858c-0.96977-0.4035-1.61293-0.01552-2.3596-0.86571
    c-0.6506-0.74028-0.47073-0.59403-1.48161-0.80756c-0.69547-0.14674-1.13362-0.62125-1.804-0.82888
    c-1.59369-0.49259-3.24237-0.26578-4.86864-0.16861c-1.4352,0.08537-2.52291-0.61381-3.94527-0.53588
    c-1.18489,0.06406-2.0741-0.3213-3.22641-0.27808c-1.75328,0.06618-3.58926,0.21987-5.32281,0.50063
    c-1.63802,0.26529-3.17088,0.15374-4.78966,0.26529c-1.07225,0.07471-2.12957,0.50806-3.11055,0.87424
    c-1.42236,0.53156-2.96162,0.27966-4.39895,0.71946c-0.53856,0.16489-0.96715,0.56785-1.50084,0.71946
    c-0.51347,0.14516-0.98098-0.04482-1.48696,0.01388c-0.92605,0.10728-1.5062,0.79204-1.98758,1.52215
    c-0.569,0.86145-0.69279,0.9431-1.582,1.40798c-0.69809,0.36399-0.60255,0.8497-1.02049,1.40476
    c-0.66929,0.88866-1.93047,0.98048-1.96195,2.33343c-0.01601,0.68748,0.09925,1.08186-0.21134,1.68392
    c-0.04269,0.08275-0.07367,0.16172-0.10089,0.23966c2.84318,2.12902,12.51105,3.98478,25.59694,4.01041
    c15.20847,0.02557,25.65564-1.89369,26.45566-4.95724c0.18681-0.71574,0.26742-1.42509,0.2178-2.11465
    C85.8139,63.59138,85.4403,62.97122,84.8596,62.56395z"/>
  <path fill="#632C00" d="M45.57104,65.36761c-0.81341,0.49587-2.83405,0.30907-3.10628-0.6207
    c-0.31595-1.07919,1.52543-2.22882,1.73301-2.22882c0.20708,0,0.24818,0.30956,0.46865,0.61376
    c0.25884,0.35601,0.81018,0.45258,0.82029,0.91052c0.27863,0.38646,0.66344,0.91376,0.15052,1.28152
    C45.61641,65.33881,45.59455,65.35324,45.57104,65.36761z"/>
  <path fill="#632C00" d="M67.59469,58.36033c-0.72104,0.50866-2.51171,0.31704-2.75294-0.63726
    c-0.27966-1.10799,1.35191-2.28697,1.53554-2.28697c0.18413,0,0.22042,0.31754,0.41575,0.62977
    c0.229,0.36558,0.71787,0.46434,0.7264,0.93457c0.24714,0.39706,0.58763,0.9372,0.13396,1.31507
    C67.6347,58.33098,67.61551,58.34596,67.59469,58.36033z"/>
  <path fill="#632C00" d="M77.19266,69.54401c0.99113,0.6031,3.3214,0.1932,3.55302-1.07973
    c0.269-1.47679-3.31872-2.17597-3.55996-2.15996c-0.24069,0.01601-0.26042,0.43553-0.48943,0.86248
    c-0.26791,0.49959-0.21293,1.86806,0.41581,2.32278C77.13767,69.50881,77.16489,69.52696,77.19266,69.54401z"/>
  <path fill="#632C00" d="M53.89826,60.69966c-0.12384,0.01443-0.2525-0.02826-0.37683-0.00962
    c-0.36722,0.05394-0.73656,0.33519-1.11706,0.27168c-0.0769-0.01334-0.15265-0.03257-0.22474-0.05553
    c-0.35918-0.11204-0.64207-0.29458-0.72799-0.5508c-0.13931-0.41684,0.09231-0.80592,0.45636-1.14324
    c0.04536-0.04268,0.09231-0.08378,0.14194-0.12488c0.07526-0.07203,0.15691-0.14303,0.24233-0.21244
    c0.04323-0.03465,0.08701-0.06881,0.13182-0.10248c0.17664-0.17719,0.52358-0.30846,0.78351-0.43974
    c0.06192,0.51451,0.43285,0.89555,0.7851,1.31507c0.03471,0.04165,0.07045,0.08433,0.10461,0.12701
    c0.12172,0.15106,0.1521,0.33519,0.11636,0.52096c-0.03044,0.15849-0.09286,0.35169-0.27004,0.39602
    C53.92865,60.6954,53.91373,60.69808,53.89826,60.69966z"/>
  <path fill="#632C00" d="M51.14154,65.35428c-0.36722,0.05389-0.73651,0.33519-1.11706,0.27113
    c-0.0769-0.01279-0.15265-0.03203-0.22474-0.05498c-0.35918-0.1121-0.64207-0.29513-0.72799-0.55135
    c-0.13931-0.4163,0.92763-1.08023,0.97245-1.11389c0.17664-0.17719,0.52358-0.30792,0.78351-0.43925
    c0.06192,0.51451,1.0418,1.30764,1.00606,1.4934c-0.03039,0.15904-0.09285,0.35224-0.27004,0.39602
    C51.54877,65.35963,51.26593,65.33559,51.14154,65.35428z"/>
  <path fill="#632C00" d="M73.30608,62.33232c-0.13985,0.01656-0.28556-0.03148-0.42646-0.01066
    c-0.41575,0.06138-0.83418,0.37946-1.2649,0.30743c-0.08755-0.01498-0.17292-0.03683-0.25458-0.06247
    c-0.40727-0.12701-0.72749-0.3341-0.82461-0.62442c-0.158-0.47182,0.10461-0.91271,0.51664-1.29485
    c0.05121-0.04749,0.10461-0.09444,0.16062-0.14035c0.08543-0.0822,0.17773-0.16227,0.27491-0.24124
    c0.04853-0.03952,0.09816-0.07794,0.14942-0.11636c0.19959-0.20069,1.37699,0.51664,1.77624,0.99163
    c0.03951,0.04749,0.07952,0.09553,0.11849,0.14412c0.13767,0.17079,0.17237,0.37946,0.13182,0.58977
    c-0.03471,0.17986-0.10516,0.39815-0.30584,0.44832C73.34079,62.32751,73.32368,62.33019,73.30608,62.33232z"/>
  <path fill="#632C00" d="M81.42671,64.29324c0.12116,0.01443,0.24709-0.02721,0.36935-0.00962
    c0.36028,0.0534,0.72263,0.3288,1.09624,0.26688c0.07581-0.01279,0.14948-0.03203,0.22047-0.05444
    c0.35279-0.10996,0.63032-0.28928,0.71465-0.54118c0.13663-0.40886-0.09072-0.79045-0.44783-1.12193
    c-0.04427-0.0411-0.09072-0.0811-0.13925-0.12166c-0.07422-0.07045-0.15374-0.1404-0.23808-0.20872
    c-0.04214-0.03361-0.08537-0.06777-0.12969-0.10084c-0.17292-0.17402-1.19286,0.44778-1.53871,0.85926
    c-0.03416,0.0411-0.06886,0.08274-0.10302,0.12494c-0.11903,0.14833-0.14942,0.32874-0.11423,0.51128
    c0.03044,0.15533,0.09127,0.34481,0.26529,0.38853C81.39681,64.28897,81.41125,64.29165,81.42671,64.29324z"/>
  <path fill="#632C00" d="M58.98092,67.61726c0.17451,0.02033,0.35596-0.03946,0.53101-0.01334
    c0.51719,0.07635,1.03814,0.47182,1.57342,0.38268c0.10892-0.01868,0.21457-0.04591,0.31656-0.07793
    c0.50592-0.15794,0.90517-0.41575,1.02579-0.77657c0.19643-0.58709-0.12969-1.13521-0.64261-1.61075
    c-0.06406-0.05924-0.13024-0.11745-0.1996-0.17456c-0.10674-0.10248-0.22151-0.20228-0.34213-0.29994
    c-0.06028-0.04858-0.12221-0.09712-0.18626-0.14462c-0.24818-0.24982-1.71218,0.64256-2.20909,1.23342
    c-0.04908,0.0587-0.09925,0.11849-0.14784,0.17883c-0.17079,0.21293-0.21402,0.47231-0.16385,0.73383
    c0.04378,0.22364,0.13073,0.49532,0.3811,0.55774C58.93873,67.61141,58.95901,67.61513,58.98092,67.61726z"/>
  <path fill="#632C00" d="M72.0214,68.38158c-0.14035,0.01705-0.28661-0.03098-0.4275-0.00907
    c-0.4158,0.06351-0.83369,0.38372-1.26495,0.31437c-0.0875-0.01498-0.17238-0.03629-0.25513-0.06138
    c-0.40722-0.12543-0.72957-0.33147-0.82832-0.6213c-0.16013-0.47128,0.09979-0.91425,0.51134-1.29851
    c0.05066-0.04804,0.10406-0.09505,0.15958-0.14145c0.08537-0.08274,0.17719-0.16385,0.27376-0.24287
    c0.04859-0.03946,0.09821-0.07843,0.14948-0.1174c0.19904-0.20172,1.38071,0.5108,1.78263,0.9842
    c0.04001,0.04695,0.08056,0.09499,0.12007,0.14358c0.13822,0.17024,0.17402,0.37946,0.13505,0.58977
    c-0.03471,0.18041-0.10357,0.39924-0.30475,0.45045C72.05556,68.37623,72.039,68.37946,72.0214,68.38158z"/>
  <path fill="#632C00" d="M50.40339,70.78016c0.16549,0.01919,0.33787-0.03793,0.50385-0.01284
    c0.4921,0.07258,0.98688,0.44833,1.49548,0.3635c0.10411-0.01765,0.20446-0.04324,0.30158-0.07422
    c0.4809-0.14997,0.85981-0.39493,0.97458-0.73815c0.18681-0.55774-0.13341-1.05514-0.61113-1.53073
    c-0.47767-0.47554-1.61878-0.77335-1.96621-0.94895c-0.08329,0.68907-0.35333,0.97086-0.82461,1.53232
    c-0.047,0.05608-0.09449,0.11319-0.1404,0.17025c-0.16276,0.20232-0.20386,0.44887-0.15636,0.69759
    c0.0411,0.21244,0.12439,0.47073,0.36186,0.53052C50.36284,70.77371,50.38257,70.77798,50.40339,70.78016z"/>
  <path fill="#845727" d="M60.65682,65.43434c-0.30049-0.09608-0.5978-0.19216-0.86681-0.29835
    c-0.7141-0.28289-1.34229-0.03362-2.11886-0.17615c-0.98846-0.18091-1.44001-1.13789-2.39109-1.31617
    c-1.03279-0.19265-1.58036,0.32131-2.48826-0.35492c-0.7904-0.58818-0.58441-0.48248-1.61769-0.48035
    c-0.71039,0.00109-1.23774-0.37148-1.93692-0.43444c-1.66146-0.14942-3.22636,0.4163-4.79655,0.8497
    c-1.38612,0.38323-2.59555-0.07422-3.97041,0.2989c-1.14537,0.30956-2.09541,0.11849-3.21357,0.40083
    c-1.70098,0.43018-3.46437,0.96332-5.1013,1.59954c-1.54675,0.60097-3.0695,0.81127-4.62904,1.25801
    c-1.03328,0.29671-1.97692,0.94091-2.86023,1.50346c-1.27987,0.81663-2.83783,0.89079-4.1518,1.62096
    c-0.49265,0.27327-0.82784,0.75678-1.3178,1.01617c-0.47231,0.24927-0.96922,0.16122-1.45171,0.32398
    c-0.88331,0.29781-1.30764,1.08881-1.62627,1.90325c-0.37684,0.96124-0.4809,1.06695-1.25375,1.70688
    c-0.60682,0.50117-0.41203,0.95644-0.70503,1.58675c-0.46969,1.00874-1.68393,1.36098-1.43252,2.69103
    c0.12756,0.67574,0.32289,1.03759,0.14467,1.69086c-0.23326,0.85396,0.18943,1.32365,0.63775,2.24806
    c1.13849,2.34409,12.02753,2.58002,26.90829-0.56206c14.87973-3.14574,24.69653-7.20152,24.8401-10.36437
    c0.06297-1.39197-0.22255-2.68785-1.05251-3.74677c-0.71252-0.91053-1.37377-2.11569-2.48979-2.59019
    C61.38748,65.66974,61.01971,65.55174,60.65682,65.43434z"/>
  <linearGradient id="SVGID_2_" gradientUnits="userSpaceOnUse" x1="57.38868" y1="-90.42296" x2="109.67476" y2="-90.42296" gradientTransform="matrix(0.978 -0.2085 0.2085 0.978 -25.2506 177.7247)">
    <stop  offset="0" style="stop-color:#C8926B"/>
    <stop  offset="0.5" style="stop-color:#A36C35"/>
    <stop  offset="0.52694" style="stop-color:#A56D37"/>
    <stop  offset="1" style="stop-color:#BC7A4E"/>
  </linearGradient>
  <path fill="url(#SVGID_2_)" d="M61.71573,65.809c-0.32825-0.13926-0.69601-0.25726-1.05891-0.37466
    c-0.30049-0.09608-0.5978-0.19216-0.86681-0.29835c-0.7141-0.28289-1.34229-0.03362-2.11886-0.17615
    c-0.98846-0.18091-1.44001-1.13789-2.39109-1.31617c-1.03279-0.19265-1.58036,0.32131-2.48826-0.35492
    c-0.7904-0.58818-0.58441-0.48248-1.61769-0.48035c-0.71039,0.00109-1.23774-0.37148-1.93692-0.43444
    c-1.66146-0.14942-3.22636,0.4163-4.79655,0.8497c-1.38612,0.38323-2.59555-0.07422-3.97041,0.2989
    c-1.14537,0.30956-2.09541,0.11849-3.21357,0.40083c-1.70098,0.43018-3.46437,0.96332-5.1013,1.59954
    c-1.54675,0.60097-3.0695,0.81127-4.62904,1.25801c-1.03328,0.29671-1.97692,0.94091-2.86023,1.50346
    c-1.27987,0.81663-2.83783,0.89079-4.1518,1.62096c-0.49265,0.27327-0.82784,0.75678-1.3178,1.01617
    c-0.47231,0.24927-0.96922,0.16122-1.45171,0.32398c-0.88331,0.29781-1.30764,1.08881-1.62627,1.90325
    c-0.37684,0.96124-0.4809,1.06695-1.25375,1.70688c-0.60682,0.50117-0.41203,0.95644-0.70503,1.58675
    c-0.46969,1.00874-1.68393,1.36098-1.43252,2.69103c0.12756,0.67574,0.32289,1.03759,0.14467,1.69086
    c-0.02459,0.09018-0.03848,0.17397-0.04913,0.25567c3.22477,1.48909,13.0672,1.2884,25.8707-1.41492
    c14.87973-3.14629,24.69707-7.20158,24.84065-10.36443c0.03361-0.73918-0.03574-1.44957-0.22791-2.11356
    C62.86323,66.61497,62.36845,66.08603,61.71573,65.809z"/>
  <path fill="#632C00" d="M23.87516,76.74345c-0.69175,0.65431-2.7071,0.89293-3.16717,0.04055
    c-0.53424-0.98949,1.02688-2.49783,1.23025-2.5416c0.20227-0.04268,0.30688,0.25086,0.58605,0.50276
    c0.3277,0.29409,0.88703,0.27381,0.99218,0.71946c0.35333,0.31972,0.83953,0.75525,0.41417,1.22227
    C23.91358,76.70503,23.89543,76.72422,23.87516,76.74345z"/>
  <path fill="#632C00" d="M43.95385,65.29771c-0.59933,0.64791-2.39054,0.83368-2.82553-0.04908
    c-0.50434-1.0253,0.84543-2.51865,1.02475-2.55713c0.18041-0.03842,0.28234,0.26474,0.53856,0.52948
    c0.29994,0.30956,0.79898,0.3042,0.90517,0.76214c0.32453,0.33732,0.77018,0.79423,0.40509,1.25856
    C43.98697,65.26087,43.97095,65.27902,43.95385,65.29771z"/>
  <path fill="#632C00" d="M57.8302,73.59449c-0.70826,0.45149-2.40071,0.19106-2.58806-0.72695
    c-0.23266-1.13898,2.64785-1.61238,2.54269-1.6172c0.17396,0.00749,0.19588,0.31114,0.36771,0.61594
    c0.20178,0.3576,0.18254,1.34869-0.26523,1.68759C57.86916,73.56831,57.84993,73.58164,57.8302,73.59449z"/>
  <path fill="#632C00" d="M31.04629,70.44175c-0.11849,0.03951-0.25299,0.02509-0.37044,0.06886
    c-0.34798,0.12914-0.65059,0.48138-1.03596,0.4985c-0.07843,0.00322-0.15636,0-0.23162-0.00749
    c-0.3747-0.03416-0.68907-0.15369-0.82674-0.3864c-0.22309-0.37897-0.07794-0.80805,0.20818-1.21369
    c0.0352-0.05126,0.07258-0.10089,0.11259-0.1516c0.0587-0.08646,0.12384-0.17293,0.19265-0.25829
    c0.03525-0.04269,0.071-0.08543,0.10783-0.12811c0.1356-0.20975,0.44728-0.41045,0.67464-0.59293
    c0.16757,0.49046,0.6095,0.78564,1.04181,1.12242c0.04274,0.03361,0.08646,0.06777,0.12865,0.10247
    c0.15051,0.12221,0.21883,0.29568,0.22255,0.48516c0.00323,0.16172-0.0176,0.36345-0.18145,0.44351
    C31.07509,70.43109,31.06121,70.43694,31.04629,70.44175z"/>
  <path fill="#632C00" d="M29.32072,75.56873c-0.34798,0.12914-0.65059,0.48138-1.03596,0.49795
    c-0.07794,0.00323-0.15582,0.00055-0.23162-0.00694c-0.3747-0.03471-0.68956-0.15478-0.82674-0.38749
    c-0.22309-0.37788,0.68208-1.24944,0.71891-1.29212c0.1356-0.2103,0.44783-0.4099,0.67464-0.59299
    c0.16757,0.49052,1.29162,1.06159,1.29534,1.25108c0.00322,0.16172-0.01705,0.36344-0.18145,0.44351
    C29.71996,75.48921,29.43871,75.52441,29.32072,75.56873z"/>
  <path fill="#632C00" d="M50.36765,67.99142c-0.13292,0.04591-0.28556,0.0288-0.41897,0.07897
    c-0.39389,0.14626-0.73706,0.54495-1.17314,0.56419c-0.08859,0.00372-0.17664,0-0.26206-0.00803
    c-0.42482-0.03946-0.78083-0.17505-0.93665-0.4387c-0.25299-0.4286-0.0881-0.91479,0.23534-1.37383
    c0.04006-0.05766,0.08274-0.11423,0.12811-0.17134c0.06618-0.09816,0.13986-0.19588,0.21828-0.293
    c0.03897-0.04858,0.07952-0.09663,0.12171-0.14516c0.15369-0.23807,1.45438,0.21828,1.94435,0.59988
    c0.04804,0.03793,0.09767,0.0769,0.14571,0.11587c0.17025,0.13821,0.24763,0.33514,0.2519,0.54916
    c0.00377,0.18363-0.01973,0.41154-0.2055,0.50281C50.40071,67.97967,50.3847,67.98606,50.36765,67.99142z"/>
  <path fill="#632C00" d="M58.71886,68.21664c0.12166-0.01175,0.23589-0.07843,0.35918-0.08701
    c0.36345-0.02295,0.77548,0.1708,1.12778,0.03258c0.07148-0.0288,0.1398-0.06242,0.2044-0.09925
    c0.32185-0.18096,0.55615-0.41416,0.58605-0.67836c0.04853-0.42859-0.25354-0.75417-0.67196-1.00398
    c-0.05181-0.03094-0.1057-0.05974-0.16172-0.08963c-0.08701-0.0534-0.17937-0.10571-0.27594-0.15478
    c-0.04859-0.02405-0.09767-0.04804-0.14784-0.07154c-0.2055-0.13396-1.07334,0.68694-1.32633,1.16138
    c-0.02454,0.047-0.04963,0.09499-0.07416,0.14357c-0.08543,0.17025-0.07794,0.35279-0.00536,0.52358
    c0.06247,0.14571,0.16117,0.31863,0.34055,0.32508C58.68896,68.21828,58.70339,68.21774,58.71886,68.21664z"/>
  <path fill="#632C00" d="M37.45949,76.14729c0.17505-0.01656,0.34-0.11264,0.51664-0.12384
    c0.52145-0.03307,1.1134,0.24496,1.61884,0.04646c0.10248-0.0411,0.20014-0.08969,0.293-0.14199
    c0.4622-0.26048,0.79843-0.59561,0.84117-0.97354c0.0699-0.61535-0.3635-1.08345-0.96392-1.44209
    c-0.07526-0.04433-0.1521-0.08755-0.23162-0.12865c-0.12598-0.07794-0.25889-0.1521-0.39711-0.22201
    c-0.06941-0.0347-0.13986-0.0694-0.21244-0.10302c-0.29458-0.19216-1.54084,0.98633-1.90325,1.66737
    c-0.03629,0.06777-0.07258,0.13663-0.10783,0.20599c-0.12275,0.24337-0.11045,0.50598-0.00694,0.75148
    c0.08914,0.20976,0.23113,0.4574,0.48942,0.46647C37.41681,76.14992,37.43763,76.14992,37.45949,76.14729z"/>
  <path fill="#632C00" d="M50.37246,74.17567c-0.13346,0.04591-0.2866,0.0294-0.42007,0.08061
    c-0.3928,0.14838-0.73492,0.54867-1.17095,0.57108c-0.08914,0.00322-0.1767,0.00054-0.26261-0.00694
    c-0.42433-0.03787-0.78247-0.17238-0.93988-0.43499c-0.25463-0.4275-0.09291-0.91479,0.22949-1.37644
    c0.03946-0.05766,0.0822-0.11478,0.12701-0.17134c0.06618-0.09925,0.13876-0.19746,0.2167-0.29464
    c0.03951-0.04908,0.07952-0.09766,0.12166-0.14619c0.15265-0.23911,1.45712,0.21134,1.94867,0.59081
    c0.04908,0.03738,0.0987,0.07581,0.14729,0.11532c0.17079,0.13767,0.24928,0.33464,0.25512,0.54867
    c0.00372,0.18358-0.01815,0.41203-0.20386,0.50434C50.40503,74.16343,50.38951,74.16982,50.37246,74.17567z"/>
  <path fill="#632C00" d="M29.73013,81.02927c0.16544-0.01601,0.32235-0.10783,0.48991-0.11794
    c0.49636-0.03153,1.05891,0.23267,1.53822,0.04372c0.09821-0.03896,0.19107-0.08482,0.27966-0.13499
    c0.43925-0.24714,0.75843-0.56577,0.79953-0.9255c0.06618-0.58441-0.35066-1.00448-0.91692-1.36956
    c-0.56632-0.36558-1.74421-0.41898-2.12104-0.51768c0.06192,0.69065-0.14303,1.02262-0.48674,1.66999
    c-0.03471,0.0646-0.06886,0.13078-0.10193,0.19588c-0.1169,0.23167-0.1057,0.48145-0.00749,0.71519
    c0.08433,0.19855,0.21938,0.43449,0.46434,0.44302C29.68903,81.0314,29.7093,81.0314,29.73013,81.02927z"/>
  <linearGradient id="SVGID_3_" gradientUnits="userSpaceOnUse" x1="73.83179" y1="72.06702" x2="118.25428" y2="72.06702">
    <stop  offset="0" style="stop-color:#C8926B"/>
    <stop  offset="0.5" style="stop-color:#A36C35"/>
    <stop  offset="0.52694" style="stop-color:#A56D37"/>
    <stop  offset="1" style="stop-color:#BC7A4E"/>
  </linearGradient>
  <path fill="url(#SVGID_3_)" d="M114.40023,67.10702c-1.05356,1.52756-6.30433,3.12443-18.47166,3.32298
    c-10.01006,0.16226-18.15467-1.4827-18.44073-3.292c-2.70759,0.64262-3.65392,4.94231-3.65604,5.97133
    c-0.00372,2.31419,9.55796,4.20843,22.27981,4.23351c12.7219,0.02131,22.13787-1.83499,22.14268-4.14705
    C118.25745,70.88422,115.56003,65.42686,114.40023,67.10702z"/>
  <radialGradient id="SVGID_4_" cx="96.19249" cy="63.02438" r="21.36111" gradientTransform="matrix(1 0 0 0.29963 0 44.14038)" gradientUnits="userSpaceOnUse">
    <stop  offset="0.31461" style="stop-color:#FFFFFF"/>
    <stop  offset="0.68153" style="stop-color:#FDFDFE"/>
    <stop  offset="0.81371" style="stop-color:#F6F8F8"/>
    <stop  offset="0.90755" style="stop-color:#EBEDEF"/>
    <stop  offset="0.98328" style="stop-color:#DADFE3"/>
    <stop  offset="1" style="stop-color:#D5DBDF"/>
  </radialGradient>
  <path fill="url(#SVGID_4_)" d="M96.23544,71.20285l-0.17451-0.00109C90.01539,71.18897,76.7657,70.14711,76.7657,67.138
    c0-3.26002,11.1287-4.99516,19.1639-4.99516h0.14626c7.5565,0.01601,19.54341,1.28791,19.54341,4.62904
    C115.61927,69.66305,104.36192,71.20285,96.23544,71.20285L96.23544,71.20285z"/>
  <polygon fill="#EF8A45" points="84.69258,65.0762 84.2512,64.37434 84.63815,63.64106 85.46702,63.60903 85.9084,64.31138
    85.52145,65.04472"/>
  <polygon fill="#EF8A45" points="93.88332,66.05559 93.44194,65.35373 93.82889,64.62039 94.65776,64.58891 95.09914,65.29022
    94.7122,66.02466"/>
  <polygon fill="#EF8A45" points="99.54132,68.1398 99.0994,67.43794 99.48634,66.7046 100.31522,66.67258 100.75665,67.37444
    100.36971,68.10832"/>
  <polygon fill="#DCCD9A" points="94.8467,70.59653 94.03007,70.44923 93.74937,69.6684 94.28415,69.03541 95.10128,69.18269
    95.38258,69.96298"/>
  <polygon fill="#DCCD9A" points="110.56224,66.10259 109.74561,65.9558 109.46491,65.17496 109.99969,64.54196 110.81682,64.68871
    111.09757,65.46905"/>
  <polygon fill="#A4DBDF" points="109.29303,68.21719 108.67659,67.66317 108.84842,66.8514 109.63674,66.59464 110.25318,67.14866
    110.08189,67.96098"/>
  <polygon fill="#A4DBDF" points="85.14675,68.5433 84.53086,67.9877 84.70165,67.17642 85.49047,66.92027 86.10696,67.47423
    85.93562,68.2866"/>
  <polygon fill="#A4DBDF" points="101.83316,64.67701 101.21722,64.12244 101.3891,63.31117 102.17742,63.05446 102.79386,63.60903
    102.62252,64.42025"/>
  <polygon fill="#CB1625" points="105.74323,65.77915 104.91381,65.78872 104.49112,65.07516 104.89621,64.35303 105.72563,64.34341
    106.14887,65.05647"/>
  <polygon fill="#6E9A74" points="90.71408,67.72186 89.88411,67.73148 89.46143,67.01842 89.86652,66.29579 90.69643,66.28617
    91.11917,66.99924"/>
  <polygon fill="#6E9A74" points="98.42907,64.5788 97.59856,64.58891 97.17587,63.87481 97.5815,63.15322 98.41093,63.14305
    98.83416,63.85666"/>
  <polygon fill="#885780" points="81.39627,66.44844 80.59729,66.67258 80.00381,66.09401 80.20876,65.29022 81.00665,65.06609
    81.60073,65.64569"/>
  <polygon fill="#F05F77" points="91.68275,64.04877 90.88432,64.27242 90.2903,63.69336 90.49471,62.89061 91.29314,62.66538
    91.88716,63.24553"/>
  <polygon fill="#885780" points="106.71246,69.59151 105.91402,69.8157 105.31999,69.23659 105.5244,68.43389 106.32283,68.20866
    106.91686,68.78881"/>
  <linearGradient id="SVGID_5_" gradientUnits="userSpaceOnUse" x1="74.14884" y1="63.33132" x2="118.57133" y2="63.33132">
    <stop  offset="0" style="stop-color:#C8926B"/>
    <stop  offset="0.5" style="stop-color:#A36C35"/>
    <stop  offset="0.52694" style="stop-color:#A56D37"/>
    <stop  offset="1" style="stop-color:#BC7A4E"/>
  </linearGradient>
  <path fill="url(#SVGID_5_)" d="M114.71727,59.48652c-1.05355,1.1838-6.30433,2.42202-18.47166,2.57576
    c-10.01006,0.12592-18.15468-1.14964-18.44079-2.55226c-2.70758,0.49849-3.65385,3.83104-3.65598,4.62899
    c-0.00372,1.79383,9.55795,3.2621,22.2798,3.28188c12.7219,0.01601,22.13787-1.4229,22.14268-3.21516
    C118.57449,62.41452,115.87708,58.18424,114.71727,59.48652z"/>
  <radialGradient id="SVGID_6_" cx="96.50953" cy="16.93006" r="21.36085" gradientTransform="matrix(1 0 0 0.23227 0 52.38929)" gradientUnits="userSpaceOnUse">
    <stop  offset="0.31461" style="stop-color:#FFFFFF"/>
    <stop  offset="0.68153" style="stop-color:#FDFDFE"/>
    <stop  offset="0.81371" style="stop-color:#F6F8F8"/>
    <stop  offset="0.90755" style="stop-color:#EBEDEF"/>
    <stop  offset="0.98328" style="stop-color:#DADFE3"/>
    <stop  offset="1" style="stop-color:#D5DBDF"/>
  </radialGradient>
  <path fill="url(#SVGID_6_)" d="M96.55249,62.66112l-0.17456-0.00109c-6.04549-0.00956-19.29518-0.81712-19.29518-3.15001
    c0-2.52668,11.12869-3.87165,19.1639-3.87165h0.14625c7.5565,0.01224,19.54342,0.99803,19.54342,3.58822
    C115.93632,61.46771,104.67896,62.66112,96.55249,62.66112L96.55249,62.66112z"/>
  <polygon fill="#EF8A45" points="85.00963,57.91201 84.56819,57.36815 84.95519,56.79976 85.78407,56.77522 86.22545,57.31956
    85.8385,57.88747"/>
  <polygon fill="#EF8A45" points="94.20037,58.67098 93.75899,58.12767 94.14594,57.55867 94.97481,57.53413 95.41619,58.07799
    95.02924,58.64748"/>
  <polygon fill="#EF8A45" points="99.85837,60.28708 99.41644,59.74268 99.80338,59.17429 100.63226,59.1492 101.07364,59.6936
    100.68669,60.26254"/>
  <polygon fill="#DCCD9A" points="95.16374,62.19143 94.34711,62.0772 94.06641,61.47197 94.6012,60.98096 95.41832,61.09513
    95.69957,61.70042"/>
  <polygon fill="#DCCD9A" points="110.87923,58.70782 110.06266,58.59414 109.78191,57.98891 110.31674,57.49784 111.13387,57.61207
    111.41457,58.21626"/>
  <polygon fill="#A4DBDF" points="109.61007,60.34687 108.99364,59.91779 109.16547,59.28796 109.95379,59.08941 110.57022,59.51855
    110.39889,60.14832"/>
  <polygon fill="#A4DBDF" points="85.4638,60.59986 84.84791,60.16859 85.0187,59.53986 85.80751,59.34136 86.424,59.77099
    86.25266,60.40027"/>
  <polygon fill="#A4DBDF" points="102.15021,57.60245 101.53426,57.17282 101.70615,56.54409 102.49447,56.34499 103.1109,56.77522
    102.93957,57.4039"/>
  <polygon fill="#CB1625" points="106.06028,58.45696 105.23086,58.46445 104.80811,57.91097 105.21326,57.35159 106.04263,57.34416
    106.46591,57.89709"/>
  <polygon fill="#6E9A74" points="91.03107,59.9626 90.20116,59.97009 89.77841,59.41766 90.18356,58.85779 91.01347,58.8503
    91.43622,59.40274"/>
  <polygon fill="#6E9A74" points="98.74612,57.5267 97.9156,57.53413 97.49291,56.9812 97.89855,56.42188 98.72791,56.4133
    99.15121,56.96678"/>
  <polygon fill="#885780" points="81.71331,58.97573 80.91434,59.1492 80.32085,58.70088 80.5258,58.07799 81.32369,57.90458
    81.91772,58.35394"/>
  <polygon fill="#F05F77" points="91.9998,57.11571 91.20137,57.28918 90.60735,56.84031 90.81174,56.21797 91.61018,56.04346
    92.20421,56.49337"/>
  <polygon fill="#885780" points="107.0295,61.41218 106.23107,61.5862 105.63704,61.13678 105.84145,60.51444 106.63988,60.34048
    107.2339,60.78989"/>
  <linearGradient id="SVGID_7_" gradientUnits="userSpaceOnUse" x1="74.63345" y1="55.221" x2="116.38623" y2="55.221">
    <stop  offset="0" style="stop-color:#C8926B"/>
    <stop  offset="0.5" style="stop-color:#A36C35"/>
    <stop  offset="0.52694" style="stop-color:#A56D37"/>
    <stop  offset="1" style="stop-color:#BC7A4E"/>
  </linearGradient>
  <path fill="url(#SVGID_7_)" d="M112.76385,51.60713c-0.99059,1.1128-5.92542,2.27632-17.36154,2.42099
    c-9.40853,0.11849-17.06374-1.08083-17.33273-2.39912c-2.54478,0.46865-3.43399,3.60106-3.43612,4.35096
    c-0.00317,1.68655,8.98366,3.06622,20.94123,3.08492c11.95702,0.01492,20.80673-1.33754,20.81154-3.02195
    C116.38945,54.35954,113.85369,50.38328,112.76385,51.60713z"/>
  <radialGradient id="SVGID_8_" cx="95.65049" cy="7.0109" r="20.07732" gradientTransform="matrix(1 0 0 0.23227 0 47.00391)" gradientUnits="userSpaceOnUse">
    <stop  offset="0.31461" style="stop-color:#FFFFFF"/>
    <stop  offset="0.68153" style="stop-color:#FDFDFE"/>
    <stop  offset="0.81371" style="stop-color:#F6F8F8"/>
    <stop  offset="0.90755" style="stop-color:#EBEDEF"/>
    <stop  offset="0.98328" style="stop-color:#DADFE3"/>
    <stop  offset="1" style="stop-color:#D5DBDF"/>
  </radialGradient>
  <path fill="url(#SVGID_8_)" d="M95.69104,54.59121l-0.1644-0.00109c-5.68204-0.00907-18.13543-0.76805-18.13543-2.96112
    c0-2.37453,10.45941-3.63894,18.01213-3.63894h0.13718c7.10281,0.01175,18.36924,0.93829,18.36924,3.37315
    C113.90977,53.46928,103.32864,54.59121,95.69104,54.59121L95.69104,54.59121z"/>
  <polygon fill="#EF8A45" points="84.84146,50.12712 84.4268,49.61578 84.79025,49.08209 85.5695,49.05859 85.9847,49.57042
    85.6207,50.10471"/>
  <polygon fill="#EF8A45" points="93.48036,50.84073 93.06511,50.32994 93.4291,49.79515 94.2078,49.7722 94.62251,50.28348
    94.25906,50.81881"/>
  <polygon fill="#EF8A45" points="98.79787,52.35966 98.38261,51.84783 98.74612,51.31414 99.52531,51.29009 99.94057,51.80192
    99.57658,52.33676"/>
  <polygon fill="#DCCD9A" points="94.38554,54.14928 93.61803,54.04255 93.35439,53.47355 93.85665,53.01189 94.62464,53.11917
    94.88938,53.68812"/>
  <polygon fill="#DCCD9A" points="109.15694,50.87538 108.38889,50.76864 108.12524,50.1997 108.62746,49.73804 109.39605,49.84533
    109.6597,50.41317"/>
  <polygon fill="#A4DBDF" points="107.96353,52.41573 107.38387,52.01222 107.54559,51.42088 108.28696,51.23407 108.86607,51.63757
    108.70539,52.22892"/>
  <polygon fill="#A4DBDF" points="85.26846,52.65375 84.6899,52.24811 84.85004,51.6573 85.5919,51.47105 86.17101,51.87455
    86.00979,52.4659"/>
  <polygon fill="#A4DBDF" points="100.95198,49.83674 100.37287,49.4322 100.53459,48.84189 101.27597,48.65459 101.85502,49.05859
    101.6944,49.64994"/>
  <polygon fill="#CB1625" points="104.6272,50.63949 103.84741,50.64698 103.45036,50.12603 103.8314,49.60086 104.61065,49.59337
    105.00831,50.11324"/>
  <polygon fill="#6E9A74" points="90.5011,52.05491 89.72081,52.06185 89.3237,51.54253 89.7048,51.01627 90.48454,51.00933
    90.88219,51.52865"/>
  <polygon fill="#6E9A74" points="97.7523,49.76526 96.97201,49.7722 96.5749,49.25288 96.95599,48.72662 97.73519,48.71914
    98.13339,49.239"/>
  <polygon fill="#885780" points="81.74376,51.12733 80.99227,51.29009 80.43453,50.86898 80.62719,50.28348 81.37708,50.12072
    81.93586,50.54237"/>
  <polygon fill="#F05F77" points="91.41162,49.3788 90.66123,49.54216 90.10294,49.11996 90.2951,48.53501 91.0455,48.37116
    91.60378,48.79385"/>
  <polygon fill="#885780" points="105.53828,53.41698 104.78783,53.58083 104.22961,53.15869 104.42171,52.57373 105.17216,52.40983
    105.73038,52.83203"/>
  <linearGradient id="SVGID_9_" gradientUnits="userSpaceOnUse" x1="313.87839" y1="802.56079" x2="355.63309" y2="802.56079" gradientTransform="matrix(0.6633 0.7483 -0.7483 0.6633 500.36041 -720.51367)">
    <stop  offset="0" style="stop-color:#C8926B"/>
    <stop  offset="0.5" style="stop-color:#A36C35"/>
    <stop  offset="0.52694" style="stop-color:#A56D37"/>
    <stop  offset="1" style="stop-color:#BC7A4E"/>
  </linearGradient>
  <path fill="url(#SVGID_9_)" d="M135.99692,72.8371c-1.48914-0.00317-5.634-2.92374-13.32767-11.3865
    c-6.32942-6.96186-10.51013-13.48612-9.70203-14.56159c-2.03885-1.5937-4.97221-0.182-5.5353,0.31437
    c-1.26386,1.11602,3.66457,8.7563,11.58237,17.7175c7.91994,8.95753,14.80288,14.68282,16.0662,13.56947
    C136.34277,77.37591,137.63597,72.84087,135.99692,72.8371z"/>
  <radialGradient id="SVGID_10_" cx="334.96844" cy="970.74554" r="20.0773" gradientTransform="matrix(0.6633 0.7483 -0.17382 0.15407 73.41751 -342.16196)" gradientUnits="userSpaceOnUse">
    <stop  offset="0.31461" style="stop-color:#FFFFFF"/>
    <stop  offset="0.68153" style="stop-color:#FDFDFE"/>
    <stop  offset="0.81371" style="stop-color:#F6F8F8"/>
    <stop  offset="0.90755" style="stop-color:#EBEDEF"/>
    <stop  offset="0.98328" style="stop-color:#DADFE3"/>
    <stop  offset="1" style="stop-color:#D5DBDF"/>
  </radialGradient>
  <path fill="url(#SVGID_10_)" d="M122.4403,62.03988l-0.10892-0.1233c-3.76218-4.2586-11.45477-14.0813-9.81413-15.53513
    c1.77734-1.57555,9.66098,5.41304,14.67107,11.06519l0.09072,0.10247c4.7032,5.32335,11.48253,14.36893,9.66147,15.98291
    C135.36392,74.92983,127.5064,67.75553,122.4403,62.03988L122.4403,62.03988z"/>
  <polygon fill="#EF8A45" points="118.58308,50.96025 118.69031,50.3107 119.33188,50.22801 119.86557,50.7964 119.75883,51.44651
    119.11731,51.52761"/>
  <polygon fill="#EF8A45" points="123.77991,57.89813 123.8867,57.24808 124.52767,57.16692 125.06191,57.73378 124.95414,58.38329
    124.31256,58.46603"/>
  <polygon fill="#EF8A45" points="126.16996,62.88525 126.27779,62.23521 126.91822,62.15191 127.453,62.71982 127.34522,63.36992
    126.70365,63.45261"/>
  <polygon fill="#DCCD9A" points="121.90387,60.77066 121.47528,60.12487 121.72614,59.55003 122.4045,59.61993 122.83363,60.26577
    122.58332,60.84111"/>
  <polygon fill="#DCCD9A" points="134.15236,69.65239 133.72322,69.0071 133.97354,68.4323 134.6519,68.5022 135.08104,69.14854
    134.83122,69.72229"/>
  <polygon fill="#A4DBDF" points="132.20747,69.78153 132.12527,69.07967 132.67552,68.80854 133.30693,69.23981 133.38913,69.94003
    132.83937,70.21281"/>
  <polygon fill="#A4DBDF" points="116.97599,52.95587 116.89488,52.25346 117.4441,51.98129 118.07545,52.41251 118.15765,53.11382
    117.60795,53.38605"/>
  <polygon fill="#A4DBDF" points="129.48758,62.82339 129.40538,62.12207 129.95514,61.85094 130.5865,62.2816 130.66821,62.98347
    130.11949,63.2546"/>
  <polygon fill="#CB1625" points="131.32416,66.10631 130.80162,65.5272 130.9276,64.88568 131.57393,64.82162 132.09537,65.40018
    131.97049,66.0428"/>
  <polygon fill="#6E9A74" points="120.89513,56.47364 120.3721,55.89453 120.49753,55.25301 121.14386,55.18896 121.6664,55.76806
    121.54202,56.41013"/>
  <polygon fill="#6E9A74" points="127.4178,60.38158 126.89526,59.80247 127.02069,59.1604 127.66757,59.0969 128.19011,59.67436
    128.06468,60.31807"/>
  <polygon fill="#885780" points="115.78045,49.30518 115.15974,48.85047 115.1058,48.15342 115.67103,47.90999 116.29069,48.36263
    116.34512,49.06181"/>
  <polygon fill="#F05F77" points="123.50134,55.38002 122.88168,54.92635 122.82724,54.2293 123.39247,53.98489 124.01262,54.43802
    124.06657,55.13561"/>
  <polygon fill="#885780" points="129.84944,68.63081 129.22923,68.17767 129.1759,67.47958 129.74057,67.23512 130.36078,67.68826
    130.41467,68.38689"/>
  <linearGradient id="SVGID_11_" gradientUnits="userSpaceOnUse" x1="47.59601" y1="84.61404" x2="100.70113" y2="84.61404">
    <stop  offset="0" style="stop-color:#C8926B"/>
    <stop  offset="0.5" style="stop-color:#A36C35"/>
    <stop  offset="0.52694" style="stop-color:#A56D37"/>
    <stop  offset="1" style="stop-color:#BC7A4E"/>
  </linearGradient>
  <path fill="url(#SVGID_11_)" d="M96.094,78.68409c-1.2596,1.82641-7.53671,3.73605-22.08234,3.97303
    c-11.96664,0.1943-21.70283-1.77301-22.04551-3.9357c-3.23652,0.76859-4.36747,5.90836-4.37014,7.13856
    c-0.00481,2.76634,11.42547,5.03091,26.63393,5.06135c15.20853,0.02509,26.46533-2.19363,26.47118-4.95778
    C100.70484,83.19994,97.48006,76.67618,96.094,78.68409z"/>
  <radialGradient id="SVGID_12_" cx="74.3271" cy="73.80389" r="25.53619" gradientTransform="matrix(1 0 0 0.29963 0 51.69003)" gradientUnits="userSpaceOnUse">
    <stop  offset="0.31461" style="stop-color:#FFFFFF"/>
    <stop  offset="0.68153" style="stop-color:#FDFDFE"/>
    <stop  offset="0.81371" style="stop-color:#F6F8F8"/>
    <stop  offset="0.90755" style="stop-color:#EBEDEF"/>
    <stop  offset="0.98328" style="stop-color:#DADFE3"/>
    <stop  offset="1" style="stop-color:#D5DBDF"/>
  </radialGradient>
  <path fill="url(#SVGID_12_)" d="M74.37833,83.58044l-0.20866-0.00104c-7.22666-0.01492-23.06654-1.26064-23.06654-4.85798
    c0-3.89723,13.30418-5.97133,22.90963-5.97133h0.17505c9.03329,0.01924,23.36326,1.53926,23.36326,5.53366
    C97.55106,81.7402,84.0932,83.58044,74.37833,83.58044L74.37833,83.58044z"/>
  <polygon fill="#EF8A45" points="60.57943,76.25671 60.05153,75.41767 60.51428,74.54131 61.50488,74.50288 62.03272,75.34241
    61.57002,76.21933"/>
  <polygon fill="#EF8A45" points="71.56668,77.42766 71.03884,76.58868 71.50153,75.71176 72.49213,75.67389 73.02003,76.51287
    72.55727,77.39034"/>
  <polygon fill="#EF8A45" points="78.33005,79.91909 77.8022,79.08011 78.2649,78.20319 79.25549,78.16526 79.78339,79.0043
    79.32064,79.88177"/>
  <polygon fill="#DCCD9A" points="72.71845,82.85567 71.74229,82.67953 71.40655,81.7466 72.04594,80.98975 73.02265,81.1659
    73.35839,82.09884"/>
  <polygon fill="#DCCD9A" points="91.50557,77.48373 90.5294,77.30814 90.19367,76.3752 90.83306,75.61836 91.80978,75.79341
    92.14551,76.72635"/>
  <polygon fill="#A4DBDF" points="89.98817,80.012 89.25166,79.34911 89.45661,78.37879 90.39917,78.07241 91.13622,78.73476
    90.93127,79.70507"/>
  <polygon fill="#A4DBDF" points="61.12219,80.40157 60.38568,79.73764 60.59063,78.76733 61.53318,78.46099 62.27024,79.12389
    62.06529,80.09415"/>
  <polygon fill="#A4DBDF" points="81.0707,75.77953 80.33419,75.11664 80.53914,74.14632 81.48169,73.83999 82.21875,74.50233
    82.0138,75.47266"/>
  <polygon fill="#CB1625" points="85.7451,77.09679 84.75287,77.10854 84.24743,76.25562 84.73209,75.39204 85.72373,75.38029
    86.22971,76.23321"/>
  <polygon fill="#6E9A74" points="67.77778,79.41956 66.78555,79.43131 66.28011,78.57839 66.76478,77.71481 67.75641,77.70306
    68.26239,78.55598"/>
  <polygon fill="#6E9A74" points="77.00055,75.66214 76.00832,75.67389 75.50288,74.82097 75.98755,73.95739 76.97918,73.94563
    77.48516,74.79855"/>
  <polygon fill="#885780" points="56.63892,77.89735 55.68406,78.16526 54.97422,77.47302 55.21869,76.51287 56.17299,76.24442
    56.88338,76.93774"/>
  <polygon fill="#F05F77" points="68.93594,75.02805 67.98109,75.29596 67.27125,74.60371 67.51572,73.64356 68.47002,73.37511
    69.1804,74.06844"/>
  <polygon fill="#885780" points="86.90326,81.65478 85.94841,81.92269 85.23857,81.23045 85.48303,80.27029 86.43734,80.00184
    87.14773,80.69518"/>
  <path fill="#845727" d="M137.31096,89.19952c-0.27382-0.15691-0.54495-0.31278-0.78564-0.47286
    c-0.63945-0.42542-1.30551-0.31278-2.03568-0.61382c-0.92923-0.38323-1.17096-1.41328-2.06389-1.78586
    c-0.96977-0.40345-1.61293-0.01546-2.3596-0.86565c-0.65059-0.74028-0.47073-0.59409-1.4816-0.80756
    c-0.69547-0.14674-1.13368-0.62125-1.804-0.82887c-1.5937-0.49265-3.24237-0.26579-4.86864-0.16866
    c-1.4352,0.08542-2.52291-0.61376-3.94532-0.53582c-1.18483,0.064-2.07404-0.32131-3.22636-0.27808
    c-1.75328,0.06618-3.58931,0.21987-5.32286,0.50063c-1.63796,0.26524-3.17083,0.15369-4.78961,0.26524
    c-1.07224,0.07471-2.12957,0.50811-3.11054,0.87424c-1.42242,0.53162-2.96167,0.27972-4.399,0.71946
    c-0.53851,0.16494-0.96709,0.5679-1.50084,0.71951c-0.51341,0.14516-0.98098-0.04487-1.48696,0.01382
    c-0.92599,0.10728-1.50613,0.79209-1.98758,1.52221c-0.56894,0.86145-0.69279,0.9431-1.58194,1.40798
    c-0.69814,0.36399-0.60255,0.84969-1.02049,1.40475c-0.66929,0.88866-1.93047,0.98043-1.96195,2.33344
    c-0.01601,0.68743,0.09925,1.08186-0.2114,1.68392c-0.40613,0.78614-0.09073,1.33431,0.15533,2.33185
    c0.62447,2.52985,11.22533,5.03085,26.43379,5.06075c15.20852,0.02563,25.65563-1.89364,26.45571-4.95724
    c0.3517-1.34819,0.34262-2.67501-0.24818-3.88444c-0.50757-1.03864-0.90254-2.35535-1.89526-3.05185
    C137.97647,89.58166,137.64128,89.38955,137.31096,89.19952z"/>
  <linearGradient id="SVGID_13_" gradientUnits="userSpaceOnUse" x1="87.26621" y1="90.68838" x2="139.5509" y2="90.68838">
    <stop  offset="0" style="stop-color:#C8926B"/>
    <stop  offset="0.5" style="stop-color:#A36C35"/>
    <stop  offset="0.52694" style="stop-color:#A56D37"/>
    <stop  offset="1" style="stop-color:#BC7A4E"/>
  </linearGradient>
  <path fill="url(#SVGID_13_)" d="M138.26843,89.78661c-0.29196-0.20495-0.62715-0.39706-0.95747-0.58708
    c-0.27382-0.15691-0.54495-0.31278-0.78564-0.47286c-0.63945-0.42542-1.30551-0.31278-2.03568-0.61382
    c-0.92923-0.38323-1.17096-1.41328-2.06389-1.78586c-0.96977-0.40345-1.61293-0.01546-2.3596-0.86565
    c-0.65059-0.74028-0.47073-0.59409-1.4816-0.80756c-0.69547-0.14674-1.13368-0.62125-1.804-0.82887
    c-1.5937-0.49265-3.24237-0.26579-4.86864-0.16866c-1.4352,0.08542-2.52291-0.61376-3.94532-0.53582
    c-1.18483,0.064-2.07404-0.32131-3.22636-0.27808c-1.75328,0.06618-3.58931,0.21987-5.32286,0.50063
    c-1.63796,0.26524-3.17083,0.15369-4.78961,0.26524c-1.07224,0.07471-2.12957,0.50811-3.11054,0.87424
    c-1.42242,0.53162-2.96167,0.27972-4.399,0.71946c-0.53851,0.16494-0.96709,0.5679-1.50084,0.71951
    c-0.51341,0.14516-0.98098-0.04487-1.48696,0.01382c-0.92599,0.10728-1.50613,0.79209-1.98758,1.52221
    c-0.56894,0.86145-0.69279,0.9431-1.58194,1.40798c-0.69814,0.36399-0.60255,0.84969-1.02049,1.40475
    c-0.66929,0.88866-1.93047,0.98043-1.96195,2.33344c-0.01601,0.68743,0.09925,1.08186-0.2114,1.68392
    c-0.04269,0.0827-0.07362,0.16172-0.10084,0.2396c2.84312,2.12908,12.51105,3.98484,25.59689,4.01041
    c15.20853,0.02563,25.65564-1.89363,26.45572-4.95723c0.1868-0.71568,0.26736-1.42503,0.21773-2.11459
    C139.22273,90.81404,138.84912,90.19383,138.26843,89.78661z"/>
  <path fill="#632C00" d="M98.97987,92.59028c-0.81341,0.49581-2.83411,0.30901-3.10629-0.6207
    c-0.31595-1.07924,1.52538-2.22887,1.73301-2.22887c0.20708,0,0.24818,0.30956,0.4686,0.61382
    c0.25884,0.35596,0.81018,0.45258,0.82035,0.91052c0.27863,0.3864,0.66344,0.91375,0.15051,1.28146
    C99.02523,92.56147,99.00337,92.57584,98.97987,92.59028z"/>
  <path fill="#632C00" d="M121.00351,85.58299c-0.72109,0.50866-2.5117,0.31705-2.75294-0.63726
    c-0.27972-1.10799,1.35191-2.28703,1.53548-2.28703c0.18413,0,0.22042,0.31759,0.41581,0.62983
    c0.22894,0.36557,0.71781,0.46433,0.72639,0.93452c0.24709,0.39711,0.58763,0.93725,0.13396,1.31512
    C121.04352,85.55364,121.02428,85.56857,121.00351,85.58299z"/>
  <path fill="#632C00" d="M130.60147,96.76667c0.99115,0.6031,3.32135,0.19321,3.55302-1.07973
    c0.26895-1.47679-3.31873-2.17597-3.55997-2.15997c-0.24069,0.01601-0.26047,0.43549-0.48941,0.86249
    c-0.26797,0.49959-0.21298,1.86806,0.41574,2.32278C130.54649,96.73142,130.57372,96.74962,130.60147,96.76667z"/>
  <path fill="#632C00" d="M107.30703,87.92233c-0.12379,0.01443-0.25244-0.02831-0.37678-0.00962
    c-0.36722,0.05389-0.73656,0.33519-1.11712,0.27168c-0.07684-0.01334-0.15265-0.03257-0.22468-0.05553
    c-0.35918-0.11209-0.64207-0.29458-0.72799-0.5508c-0.13931-0.41684,0.09232-0.80592,0.45631-1.14324
    c0.04536-0.04269,0.09236-0.08379,0.14199-0.12489c0.07526-0.07203,0.15691-0.14303,0.24228-0.21243
    c0.04323-0.03471,0.08701-0.06886,0.13182-0.10248c0.1767-0.17719,0.52364-0.30846,0.78351-0.4398
    c0.06193,0.51451,0.43286,0.89561,0.78516,1.31512c0.03465,0.04165,0.07045,0.08434,0.10461,0.12701
    c0.12166,0.15106,0.1521,0.33519,0.11636,0.5209c-0.03044,0.15855-0.09291,0.35175-0.2701,0.39602
    C107.33747,87.91806,107.32249,87.92074,107.30703,87.92233z"/>
  <path fill="#632C00" d="M104.55036,92.57694c-0.36721,0.05389-0.73656,0.33519-1.11711,0.27113
    c-0.07684-0.01284-0.15265-0.03203-0.22468-0.05498c-0.35918-0.1121-0.64207-0.29514-0.72799-0.55135
    c-0.13931-0.4163,0.92758-1.08028,0.97245-1.11389c0.17664-0.17719,0.52358-0.30798,0.78351-0.43925
    c0.06187,0.51451,1.04181,1.30764,1.00607,1.49335c-0.03044,0.15904-0.09291,0.35229-0.2701,0.39602
    C104.95759,92.5823,104.67471,92.55825,104.55036,92.57694z"/>
  <path fill="#632C00" d="M126.7149,89.55499c-0.13985,0.01656-0.28556-0.03148-0.42646-0.01066
    c-0.4158,0.06138-0.83423,0.37946-1.26495,0.30743c-0.0875-0.01497-0.17292-0.03683-0.25458-0.06247
    c-0.40722-0.12701-0.72743-0.33409-0.82461-0.62447c-0.15795-0.47182,0.10461-0.91266,0.51664-1.2948
    c0.05126-0.04749,0.10461-0.09449,0.16068-0.1404c0.08537-0.08214,0.17773-0.16221,0.27485-0.24123
    c0.04858-0.03947,0.09821-0.07789,0.14942-0.11636c0.19965-0.20063,1.37705,0.51669,1.77624,0.99169
    c0.03951,0.04749,0.07957,0.09554,0.11849,0.14412c0.13773,0.17079,0.17243,0.37946,0.13187,0.58977
    c-0.03471,0.17986-0.10515,0.39815-0.30584,0.44832C126.74956,89.55018,126.73251,89.55286,126.7149,89.55499z"/>
  <path fill="#632C00" d="M134.83554,91.5159c0.12111,0.01437,0.24709-0.02722,0.36929-0.00962
    c0.36028,0.0534,0.72267,0.3288,1.09628,0.26688c0.07581-0.01285,0.14943-0.03203,0.22043-0.05444
    c0.35278-0.10996,0.63031-0.28928,0.71465-0.54124c0.13663-0.40881-0.09073-0.7904-0.44778-1.12187
    c-0.04433-0.0411-0.09071-0.0811-0.13931-0.12171c-0.07416-0.07045-0.15369-0.14035-0.23801-0.20866
    c-0.04219-0.03362-0.08543-0.06777-0.1297-0.10089c-0.17291-0.17397-1.19292,0.44783-1.53876,0.85931
    c-0.03416,0.0411-0.06882,0.08275-0.10298,0.12489c-0.11903,0.14838-0.14948,0.3288-0.11421,0.51134
    c0.03038,0.15533,0.09126,0.34475,0.26523,0.38853C134.80563,91.51163,134.82001,91.51431,134.83554,91.5159z"/>
  <path fill="#632C00" d="M112.38969,94.83992c0.17456,0.02028,0.35601-0.03951,0.53107-0.01334
    c0.51718,0.0763,1.03809,0.47182,1.57342,0.38268c0.10887-0.01869,0.21457-0.04591,0.3165-0.07793
    c0.50598-0.15795,0.90522-0.41575,1.02584-0.77657c0.19637-0.58708-0.12969-1.1352-0.64261-1.61074
    c-0.06406-0.05925-0.13024-0.11745-0.19965-0.17457c-0.10674-0.10247-0.22145-0.20227-0.34207-0.29993
    c-0.06034-0.04859-0.12226-0.09712-0.18632-0.14467c-0.24818-0.24976-1.71218,0.64262-2.20904,1.23347
    c-0.04913,0.05869-0.0993,0.11848-0.14789,0.17877c-0.17079,0.21298-0.21403,0.47237-0.16386,0.73389
    c0.04378,0.22364,0.13079,0.49527,0.3811,0.55774C112.34756,94.83408,112.36783,94.83779,112.38969,94.83992z"/>
  <path fill="#632C00" d="M125.43022,95.60419c-0.1404,0.01711-0.2866-0.03094-0.42755-0.00907
    c-0.41575,0.06356-0.83363,0.38377-1.2649,0.31437c-0.08755-0.01492-0.17238-0.03629-0.25513-0.06138
    c-0.40722-0.12543-0.72962-0.33142-0.82832-0.62125c-0.16013-0.47128,0.0998-0.91425,0.51128-1.29857
    c0.05072-0.04798,0.10406-0.09499,0.15958-0.14139c0.08543-0.08274,0.17719-0.1639,0.27382-0.24287
    c0.04858-0.03947,0.09821-0.07843,0.14942-0.1174c0.1991-0.20178,1.38076,0.51073,1.78263,0.9842
    c0.04006,0.04695,0.08061,0.09499,0.12012,0.14358c0.13822,0.17024,0.17397,0.37946,0.13499,0.58977
    c-0.03465,0.18035-0.10352,0.39919-0.30475,0.45045C125.46438,95.59889,125.44782,95.60207,125.43022,95.60419z"/>
  <path fill="#632C00" d="M103.81222,98.00277c0.16544,0.01924,0.33781-0.03787,0.50385-0.01279
    c0.49205,0.07258,0.98682,0.44832,1.49548,0.36344c0.10406-0.01759,0.20441-0.04323,0.30152-0.07417
    c0.4809-0.14996,0.85986-0.39497,0.97459-0.73814c0.18681-0.55774-0.13342-1.0552-0.61108-1.53074
    s-1.61878-0.77335-1.96626-0.94894c-0.08324,0.68902-0.35334,0.97086-0.82462,1.53232
    c-0.04694,0.05602-0.09444,0.11314-0.14035,0.17024c-0.16276,0.20228-0.20386,0.44888-0.15636,0.6976
    c0.0411,0.21243,0.12434,0.47073,0.36186,0.53052C103.77166,97.99638,103.79139,98.00064,103.81222,98.00277z"/>
  <linearGradient id="SVGID_14_" gradientUnits="userSpaceOnUse" x1="21.94731" y1="94.30545" x2="34.35643" y2="94.30545">
    <stop  offset="0" style="stop-color:#B58491"/>
    <stop  offset="0.5" style="stop-color:#DC6E71"/>
    <stop  offset="1" style="stop-color:#D66B63"/>
  </linearGradient>
  <path fill="url(#SVGID_14_)" d="M23.24003,98.20559l0.89287-1.81143l-2.18559-2.16586l2.39218-1.79334l-1.09946-2.18504
    c0,0,1.23183-0.27436,2.25549,0.18784c4.43048,2.00043,8.86091,1.14111,8.86091,3.79054c0,2.64938-3.58822,3.20072-8.69011,4.10004
    C23.87997,98.64216,23.24003,98.20559,23.24003,98.20559z"/>
  <linearGradient id="SVGID_15_" gradientUnits="userSpaceOnUse" x1="23.24003" y1="96.33506" x2="34.35643" y2="96.33506">
    <stop  offset="0" style="stop-color:#D66B63"/>
    <stop  offset="0.20786" style="stop-color:#DC6E71"/>
    <stop  offset="0.58637" style="stop-color:#A47180"/>
    <stop  offset="1" style="stop-color:#637591"/>
  </linearGradient>
  <path fill="url(#SVGID_15_)" d="M23.24003,98.20559l0.89287-1.81143c0,0,1.90915,2.51488,10.22353-2.16586
    c0,2.64938-3.58822,3.20072-8.69011,4.10004C23.87997,98.64216,23.24003,98.20559,23.24003,98.20559z"/>
  <linearGradient id="SVGID_16_" gradientUnits="userSpaceOnUse" x1="31.6659" y1="95.14601" x2="58.08051" y2="95.14601">
    <stop  offset="0" style="stop-color:#EABAA6"/>
    <stop  offset="0.5" style="stop-color:#E19D83"/>
    <stop  offset="0.83348" style="stop-color:#D86465"/>
    <stop  offset="1" style="stop-color:#D44C59"/>
  </linearGradient>
  <path fill="url(#SVGID_16_)" d="M58.08051,87.97091c0-0.92123-0.74722-1.66846-1.66841-1.66846H35.55569
    c-0.47128,0-0.89555,0.19746-1.19871,0.51183l-0.00055-0.00049l-1.95184,1.60807c-0.09018,0.06088-0.17451,0.13023-0.25141,0.20714
    l-0.00049,0.00049l0,0c-0.30048,0.30212-0.4868,0.71787-0.4868,1.1774v12.51427c0,0.92173,0.74722,1.6684,1.66901,1.6684h20.85581
    c0.562,0,1.05623-0.27966,1.35885-0.70503h0.00109l1.72235-1.37699c0.12806-0.07738,0.2455-0.16975,0.34853-0.27863
    l0.00213-0.00158l-0.00055-0.00055c0.2818-0.2989,0.4574-0.69863,0.4574-1.14165V87.97091z"/>
  <linearGradient id="SVGID_17_" gradientUnits="userSpaceOnUse" x1="31.6659" y1="96.06402" x2="55.85912" y2="96.06402">
    <stop  offset="0" style="stop-color:#B58491"/>
    <stop  offset="0.5" style="stop-color:#DC6E71"/>
    <stop  offset="1" style="stop-color:#D66B63"/>
  </linearGradient>
  <path fill="url(#SVGID_17_)" d="M55.85912,102.32116c0,0.92173-0.74668,1.6684-1.66841,1.6684H33.3349
    c-0.92178,0-1.66901-0.74667-1.66901-1.6684V89.80688c0-0.92118,0.74722-1.6684,1.66901-1.6684h20.85581
    c0.92173,0,1.66841,0.74722,1.66841,1.6684V102.32116z"/>
  <linearGradient id="SVGID_18_" gradientUnits="userSpaceOnUse" x1="33.54144" y1="96.07469" x2="53.98363" y2="96.07469">
    <stop  offset="0" style="stop-color:#B58491"/>
    <stop  offset="0.10112" style="stop-color:#DF8C7E"/>
    <stop  offset="0.33609" style="stop-color:#DF9682"/>
    <stop  offset="1" style="stop-color:#DEAD8D"/>
  </linearGradient>
  <path fill="url(#SVGID_18_)" d="M53.98363,101.22328c0,1.68229-19.03159,1.37595-19.03159,1.37595
    c-0.77919,0-1.41061-0.61594-1.41061-1.37595V90.90422c0-0.75947,0.63141-1.3759,1.41061-1.3759h17.62147
    C53.35331,89.52832,53.98363,101.22328,53.98363,101.22328z"/>
  <linearGradient id="SVGID_19_" gradientUnits="userSpaceOnUse" x1="58.43917" y1="96.06427" x2="58.43917" y2="91.9669">
    <stop  offset="0" style="stop-color:#637591"/>
    <stop  offset="0.41363" style="stop-color:#A47180"/>
    <stop  offset="0.79214" style="stop-color:#DC6E71"/>
    <stop  offset="1" style="stop-color:#D66B63"/>
  </linearGradient>
  <path fill="url(#SVGID_19_)" d="M60.41607,95.15374c0,0.50282-0.40668,0.91053-0.90944,0.91053h-2.13493
    c-0.50276,0-0.90944-0.40771-0.90944-0.91053v-2.27631c0-0.50276,0.40668-0.91053,0.90944-0.91053h2.13493
    c0.50276,0,0.90944,0.40777,0.90944,0.91053V95.15374z"/>
  <linearGradient id="SVGID_20_" gradientUnits="userSpaceOnUse" x1="58.06127" y1="94.01559" x2="60.41607" y2="94.01559">
    <stop  offset="0" style="stop-color:#B58491"/>
    <stop  offset="0.5" style="stop-color:#DC6E71"/>
    <stop  offset="1" style="stop-color:#D66B63"/>
  </linearGradient>
  <path fill="url(#SVGID_20_)" d="M60.41607,95.15374c0,0.50282-0.40668,0.91053-0.90944,0.91053h-0.53588
    c-0.50275,0-0.90948-0.40771-0.90948-0.91053v-2.27631c0-0.50276,0.40673-0.91053,0.90948-0.91053h0.53588
    c0.50276,0,0.90944,0.40777,0.90944,0.91053V95.15374z"/>
  <linearGradient id="SVGID_21_" gradientUnits="userSpaceOnUse" x1="58.63983" y1="93.94795" x2="68.67978" y2="93.94795">
    <stop  offset="0" style="stop-color:#B58491"/>
    <stop  offset="0.5" style="stop-color:#DC6E71"/>
    <stop  offset="1" style="stop-color:#D66B63"/>
  </linearGradient>
  <path fill="url(#SVGID_21_)" d="M67.63311,97.43169c-0.00907-0.36935-0.72159-1.46558-0.72159-1.46558l1.76826-1.75279
    l-1.93582-1.45067c0,0,1.67802-1.65507,1.68867-2.08579c0,0-2.3009-0.7077-3.65495-0.21561
    c-3.62719,1.31884-6.13786,1.60867-6.13786,3.75207c0,2.14346,2.01059,2.35802,6.13786,2.99047
    C66.223,97.42421,67.64486,97.85012,67.63311,97.43169z"/>
  <linearGradient id="SVGID_22_" gradientUnits="userSpaceOnUse" x1="58.63983" y1="95.82251" x2="68.67978" y2="95.82251">
    <stop  offset="0" style="stop-color:#637591"/>
    <stop  offset="0.41363" style="stop-color:#A47180"/>
    <stop  offset="0.79214" style="stop-color:#DC6E71"/>
    <stop  offset="1" style="stop-color:#D66B63"/>
  </linearGradient>
  <path fill="url(#SVGID_22_)" d="M67.63311,97.43169c-0.00907-0.36935-0.72159-1.46558-0.72159-1.46558l1.76826-1.75279
    c0,0-4.31839,2.6537-10.03995,0c0,2.14346,2.01059,2.35802,6.13786,2.99047C66.223,97.42421,67.63311,97.43169,67.63311,97.43169z"
    />
  <linearGradient id="SVGID_23_" gradientUnits="userSpaceOnUse" x1="41.50023" y1="97.23575" x2="36.43568" y2="98.7165">
    <stop  offset="0" style="stop-color:#D7655B"/>
    <stop  offset="0.30433" style="stop-color:#C35B44"/>
    <stop  offset="0.5" style="stop-color:#B45332"/>
    <stop  offset="1" style="stop-color:#E5552B"/>
  </linearGradient>
  <path fill="url(#SVGID_23_)" d="M41.46138,95.33628c1.45815,1.25747,1.4117,3.47777,0.28343,4.91882
    c-0.10302,0.13237-0.70612,0.3213-0.7446,0.35869c-0.03788,0.03629-0.08001,0.07149-0.12325,0.10406
    c-0.04006,0.02831-0.11958,0.41685-0.25835,0.49101c-0.56626,0.28556-1.13258,0.28556-1.6983,0.42859
    c-0.56681,0.14199-1.13258-0.14303-1.69885-0.42859c-0.84915-0.42805-1.41492-1.28414-1.6983-2.14078
    c-0.14199-0.85609-0.28344-1.71218,0.1409-2.42525c0.07793-0.11685,0.14461-0.23376,0.20654-0.34798
    c0.14571-0.26791-0.00268-0.76695,0.19052-0.90304c0.02618-0.0176,0.21031-0.14199,0.23436-0.16599
    c0.20544-0.18096,0.49582-0.07154,0.71678-0.21938c1.00497-0.66824,2.16848-0.95107,3.35179-0.38962
    C40.77499,94.78548,41.14647,95.03099,41.46138,95.33628z"/>
  <linearGradient id="SVGID_24_" gradientUnits="userSpaceOnUse" x1="41.46158" y1="96.7601" x2="36.88507" y2="98.09816">
    <stop  offset="0.29214" style="stop-color:#F07458"/>
    <stop  offset="0.65168" style="stop-color:#E6AA6E"/>
    <stop  offset="0.6573" style="stop-color:#EA6633"/>
    <stop  offset="1" style="stop-color:#E5502B"/>
  </linearGradient>
  <path fill="url(#SVGID_24_)" d="M41.46138,95.33628c-0.31491-0.30529-0.68639-0.5508-1.09733-0.71945
    c-1.1833-0.56145-2.34682-0.27863-3.35179,0.38962c-0.22096,0.14784-0.51134,0.03842-0.71678,0.21938
    c-0.02405,0.02399-0.20818,0.14838-0.23436,0.16599c-0.1932,0.13609-0.04482,0.63512-0.19052,0.90304
    c-0.04323,0.08115-0.09127,0.16172-0.14145,0.24501c0.00426,0.39651,0.07258,0.80859,0.13986,1.22112
    c0.28338,0.85609,0.8497,1.71169,1.69885,2.13973c0.56572,0.28606,1.13308,0.57108,1.6983,0.42908
    c0.56681-0.14303,1.37431,0.03951,1.93954-0.24441c0.13931-0.07581,0.78247-1.00557,0.88599-1.13794
    c0.18626-0.23911,0.34372-0.49953,0.4686-0.7728C42.64998,97.13067,42.31211,96.07017,41.46138,95.33628z"/>
  <linearGradient id="SVGID_25_" gradientUnits="userSpaceOnUse" x1="34.98172" y1="93.09705" x2="37.77791" y2="93.09705">
    <stop  offset="0" style="stop-color:#C1D5AE"/>
    <stop  offset="0.5" style="stop-color:#A9C690"/>
    <stop  offset="1" style="stop-color:#9EBF88"/>
  </linearGradient>
  <path fill="url(#SVGID_25_)" d="M37.52409,92.79096c-0.25567-0.55244-0.6677-1.01141-0.93403-1.55685
    c-0.07629-0.15697-0.13505-0.32185-0.16489-0.49319c0.04,0.22736-0.17883,0.45526-0.28453,0.63567
    c-0.0934,0.16063-0.19211,0.31759-0.29354,0.47286c-0.21561,0.3336-0.44406,0.66131-0.61644,1.01994
    c-0.15423,0.3213-0.29087,0.69601-0.23698,1.05891c0.047,0.31065,0.25457,0.52735,0.48571,0.7211
    c0.31169,0.25993,0.61589,0.51987,0.90517,0.80379c0.09395-0.16811,0.19642-0.32825,0.35229-0.44674
    c0.16385-0.12275,0.35809-0.1932,0.53746-0.28715c0.37837-0.2044,0.51932-0.54118,0.50221-0.96283
    C37.76265,93.41489,37.66444,93.09467,37.52409,92.79096z"/>
  <path fill="#A36C35" d="M36.72134,95.57539c-0.23053-0.7504-1.52751-0.45313-2.13542-0.87265
    c0.02454,0.12811,0.06405,0.20123-0.08056,0.2813c0.72853,0.2108,1.48854,0.30846,2.19308,0.57321
    C36.71281,95.569,36.72134,95.57539,36.72134,95.57539z"/>
  <polygon fill="#EF8A45" points="47.56026,96.34447 48.34378,95.8967 49.12461,96.35251 49.12035,97.2561 48.33629,97.70284
    47.55546,97.24812"/>
  <polygon fill="#CB1625" points="44.06491,100.16492 44.09371,99.26183 44.89001,98.83542 45.65647,99.30986 45.6287,100.21296
    44.83186,100.63936"/>
  <polygon fill="#6E9A74" points="45.89612,92.81709 45.92651,91.91405 46.72232,91.48814 47.48769,91.96264 47.46047,92.86677
    46.66411,93.29317"/>
  <polygon fill="#F05F77" points="49.84779,94.04417 49.64125,93.16402 50.29988,92.54595 51.16346,92.80643 51.37,93.68602
    50.71246,94.30459"/>

</svg>
