<?xml version="1.0" encoding="utf-8"?>
<!DOCTYPE svg PUBLIC "-//W3C//DTD SVG 1.1//EN" "http://www.w3.org/Graphics/SVG/1.1/DTD/svg11.dtd">
<svg version="1.1" xmlns="http://www.w3.org/2000/svg" xmlns:xlink="http://www.w3.org/1999/xlink" x="0px" y="0px" width="160px"
  height="160px" viewBox="0 0 160 160" enable-background="new 0 0 160 160" xml:space="preserve">
    <path fill-rule="evenodd" clip-rule="evenodd" fill="#CCCCCC" d="M69.8892,26.91724c-0.41096,0-0.59022,1.00116-0.59022,1.54365
      c0,6.42929-0.07303,16.59252-0.07303,22.37987c0,2.32582,0,3.12466-1.14164,3.12466c-1.30141,0-1.19455-0.8787-1.19455-3.12466
      c0-5.38393-0.10116-17.98563-0.09886-22.37928c0.00029-0.97356-0.28478-1.54365-0.65112-1.54365
      c-0.3664,0-0.6526,0.57008-0.65318,1.54306c-0.00371,4.43508-0.1207,17.5672-0.1207,22.72697
      c0,2.24538,0.02361,2.77756-1.03788,2.77756c-0.97786,0-1.16495-0.85456-1.16495-2.77756
      c0-5.63675-0.14654-18.37928-0.14883-22.72697c-0.00059-0.97297-0.26471-1.54306-0.57674-1.54306
      c-0.31179,0-0.57585,0.57008-0.57473,1.54365c0.0043,4.38565-0.125,16.94592-0.125,22.37928
      c0,2.17352-0.01954,3.12466-0.9991,3.12466c-1.5141,0-1.47102-0.78448-1.47102-2.96088
      c0-3.62354-0.04396-19.18788-0.04167-22.44078c0.00059-0.66777-0.11523-1.64652-0.51894-1.64652
      c-0.40401,0-0.59769,1.19078-0.64683,1.64652c-0.02213,0.20462-0.04108,0.37817-0.05061,0.45403
      c-0.2856,2.6006-1.46231,21.65512-1.46231,25.67467c0,1.66435,0.3428,3.71264,0.9,4.63447
      c1.16465,1.93506,3.45487,3.37642,4.59739,5.88616c0.82903,1.81612,0.48652,5.29653,0.48652,8.49423
      c0,17.01029-0.29172,35.05683-2.95635,49.64584c-0.69685,3.79308-1.64799,12.54131,0.9259,15.0873
      c1.85885,1.84485,6.26662,1.60803,7.81693-0.12529c2.14221-2.40057,1.66894-10.7758,0.91547-14.79765
      c-2.69882-14.39075-3.1066-31.58842-3.1066-49.81021c0-2.87526-0.36463-6.40687,0.48652-8.33099
      c1.13158-2.52992,3.76319-4.39424,4.74481-6.3253c0.69685-1.37816,0.7514-4.05167,0.59798-6.4034
      c-0.40547-6.06665-0.89652-16.0701-1.37498-24.18675C70.55067,27.94653,70.30038,26.91724,69.8892,26.91724z"/>
    <path fill-rule="evenodd" clip-rule="evenodd" fill="#CCCCCC" d="M90.38513,22.56607c-2.30117,0-2.72413,2.97701-2.72413,23.16664
      c0,8.1672,0,8.11665,0,15.85512c0,2.52757,0.48216,13.81831,1.66724,16.74247c0.85686,2.11608-0.64771,3.08099-0.64941,6.80917
      c-0.00347,10.45631-0.32127,44.02975-0.18738,47.64123c0.1207,3.24831,0.50746,6.13045,1.51551,7.17874
      c1.38622,1.44078,5.07755,1.47697,6.09714,0.75859c2.49132-1.75345,1.81836-7.12408,1.75687-10.8017
      c-0.20227-12.47464-1.37299-33.68033-1.72473-44.89927c-0.10746-3.34942-2.50514-4.25459-1.62469-6.49309
      c1.17413-2.95117,2.36779-4.11552,3.40691-6.81322c0.74134-1.92294,0.23734-5.65629,0.07068-8.94361
      c-0.45692-9.01035-0.32244-10.34537-3.45405-29.9229C93.90927,28.92645,93.12074,22.56607,90.38513,22.56607z"/>
    <path fill-rule="evenodd" clip-rule="evenodd" fill="#808184" d="M93.87988,141.4707c-1.36719,0-3.15723-0.34375-4.08496-1.30762
      c-0.92578-0.96289-1.44922-3.37402-1.59766-7.37207c-0.08203-2.20508,0.00293-15.29785,0.08496-27.95898
      c0.05176-7.98242,0.10156-15.60449,0.10254-19.69238c0.00098-2.06836,2.03809-3.00977,3.93066-3.00977
      c1.99902,0,4.05371,0.98828,4.11426,2.87695c0.13867,4.39941,0.40332,10.3623,0.68457,16.67676
      c0.42969,9.6748,0.91797,20.6416,1.04102,28.22754c0.00977,0.55957,0.0332,1.1582,0.05762,1.77832
      c0.1416,3.60547,0.30273,7.69141-1.93945,9.26855C95.81934,141.2793,94.92383,141.4707,93.87988,141.4707L93.87988,141.4707z"/>
    <path fill="#FAFAFC" d="M92.31543,82.42395c1.86768,0,3.7666,0.90271,3.8208,2.59314
      c0.35181,11.21887,1.52246,32.42456,1.72473,44.89929c0.06152,3.67761,0.7345,9.04822-1.75684,10.80164
      c-0.41333,0.29114-1.26526,0.45837-2.22498,0.45837c-1.40808,0-3.04785-0.36011-3.87219-1.21692
      c-1.00806-1.04834-1.39478-3.93042-1.5155-7.17883c-0.13391-3.61145,0.18384-37.18481,0.18738-47.64111
      C88.67969,83.29297,90.48254,82.42395,92.31543,82.42395 M92.31543,81.83545c-2.03418,0-4.224,1.03381-4.2251,3.30383
      c-0.00134,4.07324-0.05029,11.62146-0.10193,19.61279c-0.08228,12.70056-0.16724,25.83362-0.08508,28.05042
      c0.15344,4.12915,0.68713,6.53296,1.67944,7.56494c1.24768,1.29663,3.60388,1.39746,4.29639,1.39746
      c0.52942,0,1.83911-0.05518,2.56396-0.5658c2.37244-1.6698,2.20825-5.84094,2.06348-9.521
      c-0.02429-0.61719-0.04785-1.21399-0.05725-1.77161c-0.12292-7.58679-0.61047-18.55042-1.04065-28.22339
      c-0.28088-6.31787-0.54626-12.28528-0.6842-16.68445C96.65784,82.92175,94.45605,81.83545,92.31543,81.83545L92.31543,81.83545z"/>
  <circle fill-rule="evenodd" clip-rule="evenodd" fill="#FFFFFF" cx="92.47107" cy="88.8877" r="1.62557"/>
  <circle fill-rule="evenodd" clip-rule="evenodd" fill="#FFFFFF" cx="92.72217" cy="103.90955" r="1.62615"/>
  <circle fill-rule="evenodd" clip-rule="evenodd" fill="#FFFFFF" cx="92.97327" cy="118.93127" r="1.62557"/>
  <circle fill-rule="evenodd" clip-rule="evenodd" fill="#FFFFFF" cx="93.22424" cy="133.95312" r="1.62586"/>

</svg>
