<?xml version="1.0" encoding="utf-8"?>
<!DOCTYPE svg PUBLIC "-//W3C//DTD SVG 1.1//EN" "http://www.w3.org/Graphics/SVG/1.1/DTD/svg11.dtd">
<svg version="1.1" xmlns="http://www.w3.org/2000/svg" xmlns:xlink="http://www.w3.org/1999/xlink" x="0px" y="0px" width="160px"
  height="160px" viewBox="0 0 160 160" enable-background="new 0 0 160 160" xml:space="preserve">
  <linearGradient id="SVGID_1_" gradientUnits="userSpaceOnUse" x1="34.87643" y1="94.12104" x2="121.26293" y2="94.12104">
    <stop  offset="0" style="stop-color:#D0D2D3"/>
    <stop  offset="0.06748" style="stop-color:#F0EAD6"/>
    <stop  offset="0.5" style="stop-color:#F8DB93"/>
    <stop  offset="0.80289" style="stop-color:#F3E5BE"/>
    <stop  offset="1" style="stop-color:#F0EAD6"/>
  </linearGradient>
  <path fill="url(#SVGID_1_)" d="M121.24144,90.37942c-0.22459-16.76559-8.1953-18.28419-7.36909-26.8359
    c0.80569-8.5703-5.40141-14.1953-11.8526-14.8897c-2.5878-0.2803-4.7636-0.1308-6.6005,0.3008
    c-2.7373,0.6172-4.6885,1.8184-6.0567,2.9805c-2.29,1.9326-4.5576,3.7519-6.376,6.1523c-2.8691-2.1758-8.2705-3.3379-10.7841-2.289
    c-0.9375,0.3759-1.85551,0.9951-2.7002,1.7636c-1.5,1.3135-2.7559,3.0938-3.3936,4.9131c-0.1504,0.4307-0.376,0.8252-0.6748,1.1445
    c-1.6699,1.875-5.2695,2.2305-7.0703,1.669c-2.1006-0.6387-5.4375-2.7578-9.6572-2.457c-3.6201,0.2441-5.3448,1.3496-7.4453,2.8115
    c-3.3194,2.3076-5.7198,7.0332-6.2637,12.8095c-0.3193,3.3184-0.0186,6.9942,1.0498,10.7452
    c2.9258,10.3144,7.0322,15.1338,16.2773,25.2041c0.7696,0.8437,1.6319,1.74409,2.5879,2.7011
    c3.5645,3.5625,8.3086,7.7442,13.6348,11.5704c10.3496,7.3867,22.9336,13.3125,33.4726,10.2187
    C114.45334,135.27303,121.71124,124.02202,121.24144,90.37942z"/>
  <linearGradient id="SVGID_2_" gradientUnits="userSpaceOnUse" x1="38.85964" y1="93.81807" x2="94.2421" y2="93.81807">
    <stop  offset="0" style="stop-color:#B45332"/>
    <stop  offset="0.5" style="stop-color:#B45332"/>
    <stop  offset="0.6307" style="stop-color:#BE5430"/>
    <stop  offset="1" style="stop-color:#D5562B"/>
  </linearGradient>
  <path fill="url(#SVGID_2_)" d="M82.79904,94.48592c2.1182,5.26949,13.0137,26.9472,11.251,30.2285
    c-1.7441,3.2812-15.3408,7.14649-32.6865-9.01961c-17.3457-16.18259-7.0322-14.8896-5.0449-15.24609
    c1.9883-0.3378,2.8515-3.6191-6.2071-1.5185c-4.5566,1.0498-5.625-0.4678-5.625-0.4678
    c-4.2197-6.3203-5.6269-10.0723-5.6269-19.3359c0-9.26369,6.9014-12.5449,9.1328-12.5449c2.2324,0,11.3652-1.4063,15.7148,9.621
    c4.3331,11.0079,5.3829,14.1768,6.2071,8.7754c0.82619-5.3808-1.65041-6.6757-1.4063-12.5254
    c0.2266-5.871,0.5821-12.791,5.625-12.4355c5.045,0.3574,8.5528,3.2832,4.4473,9.2646
    C74.49054,75.26322,80.69754,89.19782,82.79904,94.48592z"/>
  <linearGradient id="SVGID_3_" gradientUnits="userSpaceOnUse" x1="80.27531" y1="86.35214" x2="114.28614" y2="86.35214">
    <stop  offset="0" style="stop-color:#B45332"/>
    <stop  offset="0.5" style="stop-color:#B45332"/>
    <stop  offset="0.6307" style="stop-color:#BE5430"/>
    <stop  offset="1" style="stop-color:#D5562B"/>
  </linearGradient>
  <path fill="url(#SVGID_3_)" d="M109.29614,76.03472c-3.4512,5.1562-6.7334,5.7929-1.5752-4.9903
    c5.1572-10.7832,0.3936-17.1396-3.3564-18.2265c-3.751-1.1074-5.9073-1.1836-8.9258-0.752
    c-1.2402,0.1895-2.3818,0.6211-3.3975,1.295c-0.8984,0.5439-1.7226,1.2558-2.4355,2.083
    c-2.1758,2.3994-3.7139,5.7177-4.6885,8.8691c-1.7236,5.4756,1.55569,0.7881,3.1123,7.6699
    c1.5762,6.8623,7.0332,7.1826,5.7949,8.7393c-1.2558,1.5742-8.28709-7.9707-12.1894-7.334
    c-3.919,0.6201,1.0879,14.2139,9.208,18.28419c8.1387,4.0517,7.9678,24.0615,13.4453,27.96091
    c5.47559,3.919,10.126-2.02641,9.99509-8.9072C113.98364,93.69872,107.72094,83.53472,109.29614,76.03472z"/>
  <linearGradient id="SVGID_4_" gradientUnits="userSpaceOnUse" x1="54.91234" y1="132.47902" x2="70.38304" y2="132.47902">
    <stop  offset="0" style="stop-color:#A5BACA"/>
    <stop  offset="0.5" style="stop-color:#799CB4"/>
    <stop  offset="0.52694" style="stop-color:#779BB3"/>
    <stop  offset="1" style="stop-color:#608CA6"/>
  </linearGradient>
  <path fill="url(#SVGID_4_)" d="M70.10284,144.05032c-1.44341-4.29491-2.02641-9.5078-1.5948-15.34081l0.0391-0.0361
    c-5.3262-3.82619-10.0703-8.0079-13.6348-11.5704c0.0196,8.3809,0.5821,17.9073,1.4063,27.77151
    c0,1.6494,3.1513,2.9805,7.0332,2.9805c3.8828,0,7.0312-1.3311,7.0312-2.9805
    C70.29034,144.61092,70.17804,144.33063,70.10284,144.05032z"/>
  <linearGradient id="SVGID_5_" gradientUnits="userSpaceOnUse" x1="56.63159" y1="43.30077" x2="98.26974" y2="43.30077">
    <stop  offset="0" style="stop-color:#B45332"/>
    <stop  offset="0.5" style="stop-color:#B45332"/>
    <stop  offset="0.6307" style="stop-color:#BE5430"/>
    <stop  offset="1" style="stop-color:#D5562B"/>
  </linearGradient>
  <path fill="url(#SVGID_5_)" d="M78.35374,22.98192c-7.7812,0-12.6172,2.4581-15.3965,5.9825
    c-1.5585,1.9765-4.5371,6.2431-5.8886,9.4707c-0.168,1.4609-0.2989,2.9814-0.375,4.4804
    c-0.4112,8.4766,1.0879,17.085,8.5342,20.4971l0.206,0.207c0.2988-0.3193,0.5244-0.7138,0.6748-1.1445
    c0.6377-1.8193,1.8936-3.5996,3.3936-4.9131c0.8447-0.7685,1.7627-1.3877,2.7002-1.7636
    c2.5136-1.0489,7.91499,0.1132,10.7841,2.289c1.8184-2.4004,4.086-4.2197,6.376-6.1523c1.3682-1.1621,3.3194-2.3633,6.0567-2.9805
    c1.8183-3.1309,2.8505-6.8076,2.8505-10.7266C98.26974,26.69482,89.36254,22.98192,78.35374,22.98192z"/>
  <linearGradient id="SVGID_6_" gradientUnits="userSpaceOnUse" x1="34.88504" y1="51.10107" x2="65.43385" y2="51.10107">
    <stop  offset="0" style="stop-color:#A5BACA"/>
    <stop  offset="0.5" style="stop-color:#799CB4"/>
    <stop  offset="0.52694" style="stop-color:#779BB3"/>
    <stop  offset="1" style="stop-color:#608CA6"/>
  </linearGradient>
  <path fill="url(#SVGID_6_)" d="M65.22784,63.41262c-7.4463-3.4121-8.9454-12.0205-8.5342-20.4971
    c0.0761-1.499,0.207-3.0195,0.375-4.4804c0.4883-4.2012,1.2949-8.1016,1.875-11.0469c0.1328-0.207,0.1875-0.4307,0.1875-0.6563
    c0-1.6503-3.1485-2.9824-7.0313-2.9824c-3.6377,0-6.6377,1.1641-6.9941,2.6817l-0.0752-0.0166
    c-2.6445,8.625-1.1631,16.708-5.9443,34.0732c-4.7081,17.084-3.7891,11.4951-4.2012,17.9648h0.1123
    c0.5439-5.7763,2.9443-10.5019,6.2637-12.8095c2.1005-1.4619,3.8252-2.5674,7.4453-2.8115
    c4.2197-0.3008,7.5566,1.8183,9.6572,2.457c1.8008,0.5615,5.4004,0.206,7.0703-1.669L65.22784,63.41262z"/>
  <linearGradient id="SVGID_7_" gradientUnits="userSpaceOnUse" x1="78.06968" y1="147.85503" x2="78.06968" y2="22.98192">
    <stop  offset="0" style="stop-color:#FFFFFF;stop-opacity:0"/>
    <stop  offset="0.08963" style="stop-color:#FFFFFF;stop-opacity:0.02958"/>
    <stop  offset="1" style="stop-color:#FFFFFF;stop-opacity:0.33"/>
  </linearGradient>
  <path fill="url(#SVGID_7_)" d="M121.24144,90.37942c-0.22459-16.76559-8.1953-18.28419-7.36909-26.8359
    c0.80569-8.5703-5.40141-14.1953-11.8526-14.8897c-2.5878-0.2803-4.7636-0.1308-6.6005,0.3008
    c1.8183-3.1309,2.8505-6.8076,2.8505-10.7266c0-11.5332-8.9072-15.2461-19.916-15.2461c-7.7812,0-12.6172,2.4581-15.3965,5.9825
    c-1.5585,1.9765-4.5371,6.2431-5.8886,9.4707c0.4883-4.2012,1.2949-8.1016,1.875-11.0469c0.1328-0.207,0.1875-0.4307,0.1875-0.6563
    c0-1.6503-3.1485-2.9824-7.0313-2.9824c-3.6377,0-6.6377,1.1641-6.9941,2.6817l-0.0752-0.0166
    c-2.6445,8.625-1.1631,16.708-5.9443,34.0732c-4.7081,17.084-3.7891,11.4951-4.2012,17.9648h0.1123
    c-0.3193,3.3184-0.0186,6.9942,1.0498,10.7452c2.9258,10.3144,7.0322,15.1338,16.2773,25.2041
    c0.7696,0.8437,1.6319,1.74409,2.5879,2.7011c0.0196,8.3809,0.5821,17.9073,1.4063,27.77151c0,1.6494,3.1513,2.9805,7.0332,2.9805
    c3.8828,0,7.0312-1.3311,7.0312-2.9805c-0.0927-0.26361-0.205-0.5439-0.2802-0.8242
    c-1.44341-4.29491-2.02641-9.5078-1.5948-15.34081l0.0391-0.0361c10.3496,7.3867,22.9336,13.3125,33.4726,10.2187
    C114.45334,135.27303,121.71124,124.02202,121.24144,90.37942z"/>

</svg>
