<?xml version="1.0" encoding="utf-8"?>
<!DOCTYPE svg PUBLIC "-//W3C//DTD SVG 1.1//EN" "http://www.w3.org/Graphics/SVG/1.1/DTD/svg11.dtd">
<svg version="1.1" xmlns="http://www.w3.org/2000/svg" xmlns:xlink="http://www.w3.org/1999/xlink" x="0px" y="0px" width="160px"
  height="160px" viewBox="0 0 160 160" enable-background="new 0 0 160 160" xml:space="preserve">
  <path fill="#D0D2D3" d="M128.49066,104.35373c0-10.9353-22.20251-19.83253-49.49126-19.83253
    c-27.2888,0-49.49006,8.89723-49.49006,19.83253c0,0.34492,0.02348,0.68737,0.06678,1.02798
    c-0.04209,0.32821-0.06678,0.66079-0.06678,0.99647c0,11.30496,22.6643,20.85615,49.49006,20.85615
    c26.8276,0,49.49126-9.55119,49.49126-20.85615c0-0.33568-0.02411-0.66826-0.06671-0.99647
    C128.46718,105.0411,128.49066,104.69865,128.49066,104.35373z"/>
  <path fill="#FFFFFF" d="M30.31046,104.35373c0,10.4939,21.84153,19.03197,48.68894,19.03197
    c26.84798,0,48.69015-8.53806,48.69015-19.03197c0-10.49454-21.84217-19.03197-48.69015-19.03197
    C52.15199,85.32175,30.31046,93.85918,30.31046,104.35373z"/>
  <path fill="#F1F1F2" d="M110.07751,103.29542c0,19.13952-66.24786,19.13952-66.24786,0
    C43.82965,84.15773,110.07751,84.15773,110.07751,103.29542z"/>
  <path fill="#BBBDBF" d="M76.9545,43.61554c-19.89614,0-41.30932,6.06792-41.30932,19.3893
    c0,9.86028,13.45988,38.10167,26.81095,44.77721c4.01188,2.00527,9.16176,3.11055,14.49837,3.11055
    c5.33725,0,10.4853-1.10528,14.49654-3.11055c13.3517-6.68111,26.81153-34.91877,26.81153-44.77721
    C118.26257,49.68346,96.84943,43.61554,76.9545,43.61554z"/>
  <path fill="#FFFFFF" d="M117.86263,56.86837c0,25.32176-81.81683,25.32176-81.81683,0
    C36.0458,31.54781,117.86263,31.54781,117.86263,56.86837z"/>
  <linearGradient id="SVGID_1_" gradientUnits="userSpaceOnUse" x1="43.82965" y1="56.86834" x2="110.07751" y2="56.86834">
    <stop  offset="0" style="stop-color:#E6EBF1"/>
    <stop  offset="0.5" style="stop-color:#D9DBDC"/>
    <stop  offset="1" style="stop-color:#D5DBDF"/>
  </linearGradient>
  <path fill="url(#SVGID_1_)" d="M110.07751,56.86837c0,20.50255-66.24786,20.50255-66.24786,0
    C43.82965,36.36575,110.07751,36.36575,110.07751,56.86837z"/>
  <linearGradient id="SVGID_2_" gradientUnits="userSpaceOnUse" x1="48.67297" y1="59.77315" x2="105.23357" y2="59.77315">
    <stop  offset="0" style="stop-color:#A36C35"/>
    <stop  offset="0.08194" style="stop-color:#B5773C"/>
    <stop  offset="0.18498" style="stop-color:#C48142"/>
    <stop  offset="0.30778" style="stop-color:#CC8645"/>
    <stop  offset="0.5" style="stop-color:#CF8846"/>
    <stop  offset="0.66531" style="stop-color:#CC8645"/>
    <stop  offset="0.80242" style="stop-color:#C17F41"/>
    <stop  offset="0.92908" style="stop-color:#B0743A"/>
    <stop  offset="1" style="stop-color:#A36C35"/>
  </linearGradient>
  <path fill="url(#SVGID_2_)" d="M66.81292,50.57358c-0.30409,6.50925,38.42065,6.73548,38.42065,11.40884
    c0,4.30983-14.1405,8.62333-28.27844,8.62333c-14.14111,0-28.28216-4.3135-28.28216-8.62333
    C48.67297,58.9101,67.11707,44.06433,66.81292,50.57358z"/>
  <path fill="#D0D2D3" d="M112.39872,69.77678c0,0-0.01488,0.00063-0.02165,0c-0.44139-0.07419-1.71296,0.9526-2.00717,2.69581
    c-0.29428,1.74385-0.17433,3.21816,0.267,3.29172c6.24345,0.00311,9.4035,4.73204,9.4035,8.577
    c0,1.95837-0.88892,3.59341-2.64327,4.86003c-1.73454,1.25239-5.19192,2.74525-11.80934,2.74525h-6.1328h-0.00063
    c-0.89753,0-1.29442,1.46438-1.62453,3.20208c-0.35606,1.87178-0.05685,3.20209,0.84074,3.20209h0.00057h6.91664
    c6.68726,0,11.92062-1.33157,15.55789-3.95814c3.41718-2.46648,5.29768-6.03633,5.29768-10.05132
    C126.44336,76.54752,120.10224,69.77678,112.39872,69.77678z"/>

</svg>
