<?xml version="1.0" encoding="utf-8"?>
<!DOCTYPE svg PUBLIC "-//W3C//DTD SVG 1.1//EN" "http://www.w3.org/Graphics/SVG/1.1/DTD/svg11.dtd">
<svg version="1.1" xmlns="http://www.w3.org/2000/svg" xmlns:xlink="http://www.w3.org/1999/xlink" x="0px" y="0px" width="160px"
  height="160px" viewBox="0 0 160 160" enable-background="new 0 0 160 160" xml:space="preserve">
  <linearGradient id="SVGID_1_" gradientUnits="userSpaceOnUse" x1="6.99943" y1="61.50449" x2="83.00562" y2="61.50449">
    <stop  offset="0" style="stop-color:#ACC8E1"/>
    <stop  offset="0.5" style="stop-color:#85B1D4"/>
    <stop  offset="1" style="stop-color:#6EA4CC"/>
  </linearGradient>
  <path fill="url(#SVGID_1_)" d="M83.00562,55.97248c-2.50503-4.29537,0-8.24641,0-8.24641
    C50.62148,43.36687,10.43366,67.11174,6.99943,71.2165l5.76677,4.59835L83.00562,55.97248z"/>
  <linearGradient id="SVGID_2_" gradientUnits="userSpaceOnUse" x1="85.33817" y1="111.67211" x2="153.50334" y2="111.67211">
    <stop  offset="0" style="stop-color:#8ECDE9"/>
    <stop  offset="0.5" style="stop-color:#67BDE0"/>
    <stop  offset="0.58351" style="stop-color:#54B8DD"/>
    <stop  offset="0.8655" style="stop-color:#18A9D2"/>
    <stop  offset="1" style="stop-color:#00A3CE"/>
  </linearGradient>
  <path fill="url(#SVGID_2_)" d="M98.05036,134.73094c15.54766-3.16904,62.1894-43.97943,54.63082-46.04083l-6.87143-0.07682
    l-60.47159,42.83343v1.90991L98.05036,134.73094z"/>
  <linearGradient id="SVGID_3_" gradientUnits="userSpaceOnUse" x1="12.7662" y1="92.51527" x2="146.53528" y2="92.51527">
    <stop  offset="0" style="stop-color:#919397"/>
    <stop  offset="0.5" style="stop-color:#62696A"/>
    <stop  offset="1" style="stop-color:#505458"/>
  </linearGradient>
  <path fill="url(#SVGID_3_)" d="M12.7662,75.61333c0,0,40.27332-28.57442,76.00768-23.76446
    c26.63912,3.58654,49.47728,34.70295,57.03587,36.76442c7.55858,2.0614-46.14594,41.76209-58.7537,44.66651
    C66.66785,137.97598,25.99447,104.81843,12.7662,75.61333z"/>
  <linearGradient id="SVGID_4_" gradientUnits="userSpaceOnUse" x1="12.76684" y1="92.31895" x2="146.53653" y2="92.31895">
    <stop  offset="0" style="stop-color:#95CAC6"/>
    <stop  offset="0.5" style="stop-color:#68B8B2"/>
    <stop  offset="0.64037" style="stop-color:#5DB3AC"/>
    <stop  offset="1" style="stop-color:#46A8A0"/>
  </linearGradient>
  <path fill="url(#SVGID_4_)" d="M14.21444,76.58751c-10.54926-2.26002,38.82508-29.5486,74.55944-24.73864
    c26.63912,3.58654,49.47728,34.70295,57.03587,36.76442c7.55858,2.0614-46.04157,42.26154-58.7537,44.66651
    C74.34245,135.68478,33.4559,80.71038,14.21444,76.58751z"/>
  <linearGradient id="SVGID_5_" gradientUnits="userSpaceOnUse" x1="3544.67676" y1="165.3309" x2="3578.75513" y2="165.3309" gradientTransform="matrix(-0.9989 -0.0475 -0.0475 0.9989 3667.84473 87.2534)">
    <stop  offset="0" style="stop-color:#E1C281"/>
    <stop  offset="0.45679" style="stop-color:#E6CE98"/>
    <stop  offset="0.5" style="stop-color:#E7CF9B"/>
    <stop  offset="1" style="stop-color:#F1E2C5"/>
  </linearGradient>
  <path fill="url(#SVGID_5_)" d="M85.33817,78.93964c0.24501,0.41098,0.49796,0.83427,0.75819,1.26625
    c4.48456,9.65917,17.13003,15.73256,26.97691,10.04914c0.51103-0.23632,1.01115-0.49655,1.50117-0.77556
    c0.49143-0.27834,0.97128-0.57552,1.43874-0.89305c1.01553-0.44935,2.55142-1.37135,2.54853-3.53205
    c0.19788-0.54221,0.36533-1.12567,0.49581-1.75345c0.13264-0.62771,0.22831-1.29958,0.28702-2.01791
    c0.07905-1.65481-0.54799-2.99721-1.58014-4.30116c-0.20582-0.26171-0.42908-0.52045-0.66467-0.78068
    c-0.45158-0.33267-0.91473-0.62407-1.39169-0.87991c-0.47621-0.25593-0.96475-0.47407-1.46561-0.6502
    c-1.69756,0.18118-3.35526,0.64656-4.98691,1.23225c-0.54361,0.19566-1.08507,0.4037-1.62363,0.62043
    c-6.06181,1.92446-13.62395,4.05184-19.41685,0.2943c-0.48349-0.27114-0.9793-0.29504-1.44022-0.0841
    c-0.461,0.21095-0.88504,0.65673-1.22498,1.3243C85.42953,78.33873,85.3585,78.63303,85.33817,78.93964z"/>
  <linearGradient id="SVGID_6_" gradientUnits="userSpaceOnUse" x1="3547.65747" y1="166.92506" x2="3578.75513" y2="166.92506" gradientTransform="matrix(-0.9989 -0.0475 -0.0475 0.9989 3667.84473 87.2534)">
    <stop  offset="0" style="stop-color:#F5F0D4"/>
    <stop  offset="0.5" style="stop-color:#F5EBA5"/>
    <stop  offset="1" style="stop-color:#ECE3A7"/>
  </linearGradient>
  <path fill="url(#SVGID_6_)" d="M85.33817,78.93964c0.24501,0.41098,0.49796,0.83427,0.75819,1.26625
    c4.48456,9.65917,17.13003,15.73256,26.97691,10.04914c0.51103-0.23632,1.01115-0.49655,1.50117-0.77556
    c0.49143-0.27834,0.97128-0.57552,1.43874-0.89305c-9.43227,2.8544-13.57326-0.50954-18.355-4.60339
    c-3.61905-3.10015-8.97491-6.88887-9.44312-7.16498c-0.4777-0.28271-0.9793-0.29504-1.44022-0.0841
    c-0.461,0.21095-0.88504,0.65673-1.22498,1.3243C85.42953,78.33873,85.3585,78.63303,85.33817,78.93964z"/>
  <linearGradient id="SVGID_7_" gradientUnits="userSpaceOnUse" x1="91.32529" y1="97.0248" x2="125.40492" y2="97.0248">
    <stop  offset="0" style="stop-color:#F5F0D4"/>
    <stop  offset="0.5" style="stop-color:#F5EBA5"/>
    <stop  offset="1" style="stop-color:#ECE3A7"/>
  </linearGradient>
  <path fill="url(#SVGID_7_)" d="M125.40492,93.54868c-0.26461,0.39865-0.53716,0.81036-0.81838,1.22928
    c-4.93755,9.4345-17.85705,14.90118-27.42345,8.75603c-0.49863-0.26089-0.9865-0.54361-1.46272-0.84518
    c-0.47688-0.30149-0.94226-0.62184-1.39458-0.96111c-0.99303-0.49648-2.48395-1.49025-2.37744-3.64881
    c-0.17249-0.55088-0.31166-1.14162-0.41238-1.77438c-0.1022-0.63349-0.16604-1.30907-0.19068-2.0303
    c0-1.65622,0.69006-2.96745,1.78239-4.2207c0.21815-0.25154,0.45299-0.50011,0.70164-0.74802
    c0.46604-0.311,0.943-0.58057,1.43154-0.81326c0.48779-0.23344,0.98576-0.42767,1.49463-0.57991
    c1.68739,0.26097,3.32044,0.80458,4.92307,1.46784c0.53344,0.22103,1.06406,0.45447,1.59171,0.69658
    c5.96397,2.21,13.41672,4.69469,19.38062,1.21622c0.49655-0.24857,0.99303-0.24857,1.4432-0.01596
    c0.45009,0.23269,0.85312,0.69874,1.16048,1.38084C125.34184,92.94347,125.39906,93.24133,125.40492,93.54868z"/>
  <linearGradient id="SVGID_8_" gradientUnits="userSpaceOnUse" x1="94.3058" y1="98.61886" x2="125.40492" y2="98.61886">
    <stop  offset="0" style="stop-color:#F1E2C5"/>
    <stop  offset="0.5" style="stop-color:#E7CF9B"/>
    <stop  offset="0.54321" style="stop-color:#E6CE98"/>
    <stop  offset="1" style="stop-color:#E1C281"/>
  </linearGradient>
  <path fill="url(#SVGID_8_)" d="M125.40492,93.54868c-0.26461,0.39865-0.53716,0.81036-0.81838,1.22928
    c-4.93755,9.4345-17.85705,14.90118-27.42345,8.75603c-0.49863-0.26089-0.9865-0.54361-1.46272-0.84518
    c-0.47688-0.30149-0.94226-0.62184-1.39458-0.96111c9.28665,3.29944,13.58202,0.13628,18.55289-3.72637
    c3.76266-2.92469,9.29244-6.45467,9.77222-6.70836c0.49076-0.25948,0.99303-0.24857,1.4432-0.01596
    c0.45009,0.23269,0.85312,0.69874,1.16048,1.38084C125.34184,92.94347,125.39906,93.24133,125.40492,93.54868z"/>
  <linearGradient id="SVGID_9_" gradientUnits="userSpaceOnUse" x1="65.96622" y1="99.99372" x2="100.04578" y2="99.99372">
    <stop  offset="0" style="stop-color:#F5F0D4"/>
    <stop  offset="0.5" style="stop-color:#F5EBA5"/>
    <stop  offset="1" style="stop-color:#ECE3A7"/>
  </linearGradient>
  <path fill="url(#SVGID_9_)" d="M100.04578,96.51761c-0.26453,0.39865-0.53708,0.81036-0.81831,1.22928
    c-4.93755,9.4345-17.85705,14.90118-27.42344,8.75603c-0.49863-0.26089-0.9865-0.54362-1.46272-0.84518
    c-0.47689-0.30149-0.94227-0.62184-1.39458-0.96111c-0.99303-0.49648-2.48402-1.49025-2.37744-3.64881
    c-0.17249-0.55088-0.31166-1.14162-0.41245-1.77438c-0.10221-0.63349-0.16596-1.30907-0.19061-2.0303
    c0-1.65622,0.69005-2.96745,1.78239-4.2207c0.21814-0.25154,0.45298-0.50011,0.70163-0.74802
    c0.46605-0.311,0.943-0.58057,1.43154-0.81326c0.48779-0.23344,0.98576-0.42767,1.49463-0.57991
    c1.68739,0.26097,3.32045,0.80458,4.92307,1.46784c0.53344,0.22103,1.06406,0.45447,1.59171,0.69658
    c5.96398,2.21,13.41673,4.69469,19.38063,1.21622c0.49655-0.24857,0.99303-0.24857,1.44319-0.01596
    c0.45009,0.23269,0.85312,0.69874,1.1604,1.38084C99.98276,95.91239,100.03999,96.21025,100.04578,96.51761z"/>
  <linearGradient id="SVGID_10_" gradientUnits="userSpaceOnUse" x1="68.94672" y1="101.58778" x2="100.04578" y2="101.58778">
    <stop  offset="0" style="stop-color:#F1E2C5"/>
    <stop  offset="0.5" style="stop-color:#E7CF9B"/>
    <stop  offset="0.54321" style="stop-color:#E6CE98"/>
    <stop  offset="1" style="stop-color:#E1C281"/>
  </linearGradient>
  <path fill="url(#SVGID_10_)" d="M100.04578,96.51761c-0.26453,0.39865-0.53708,0.81036-0.81831,1.22928
    c-4.93755,9.4345-17.85705,14.90118-27.42344,8.75603c-0.49863-0.26089-0.9865-0.54362-1.46272-0.84518
    c-0.47689-0.30149-0.94227-0.62184-1.39458-0.96111c9.28658,3.29944,13.58202,0.13628,18.55289-3.72637
    c3.76267-2.92469,9.29237-6.45467,9.77222-6.70836c0.49076-0.25948,0.99303-0.24857,1.44319-0.01596
    c0.45009,0.23269,0.85312,0.69874,1.1604,1.38084C99.98276,95.91239,100.03999,96.21025,100.04578,96.51761z"/>

</svg>
