<?xml version="1.0" encoding="utf-8"?>
<!DOCTYPE svg PUBLIC "-//W3C//DTD SVG 1.1//EN" "http://www.w3.org/Graphics/SVG/1.1/DTD/svg11.dtd">
<svg version="1.1" xmlns="http://www.w3.org/2000/svg" xmlns:xlink="http://www.w3.org/1999/xlink" x="0px" y="0px" width="160px"
  height="160px" viewBox="0 0 160 160" enable-background="new 0 0 160 160" xml:space="preserve">
  <linearGradient id="SVGID_1_" gradientUnits="userSpaceOnUse" x1="27.87194" y1="77.30619" x2="121.83864" y2="77.30619">
    <stop  offset="0" style="stop-color:#81B797"/>
    <stop  offset="0.5" style="stop-color:#8BBE9D"/>
    <stop  offset="1" style="stop-color:#BBD6C4"/>
  </linearGradient>
  <path fill="url(#SVGID_1_)" d="M120.49332,129.37091c-5.54076-0.0186-11.18278-0.0186-16.31184,2.03265
    c-24.61884,8.71927-56.93092,16.92548-73.85583-9.74461c-2.05124-3.07771-3.07714-6.15496-2.05124-9.74506
    c3.9495-12.56595,6.39061-25.13178,8.29591-37.83986c0.27126-1.8166,0.53154-3.63603,0.78208-5.4599
    c2.2049-13.1181,0.66661-25.93996,1.17956-39.27522c0.51295-11.79643,14.36116-16.41252,25.13111-13.84833
    c15.89957,4.1037,30.26084,10.25812,46.02747,9.81517c1.85827,0.16128,3.55851,0.36859,4.79385,0.67913
    c1.2359,0.3107,2.007,0.72521,2.007,1.30267c3.33362,16.66843,4.74345,33.20897,5.15852,49.7243
    c0.05196,2.0649,0.08814,4.12881,0.10886,6.19326c0.37407,14.34806-0.65183,29.22173-1.30153,43.52062
    C120.48022,128.43024,120.49332,129.37091,120.49332,129.37091z"/>
  <linearGradient id="SVGID_2_" gradientUnits="userSpaceOnUse" x1="53.30904" y1="77.84938" x2="117.30126" y2="76.17654">
    <stop  offset="0" style="stop-color:#E6EBF1"/>
    <stop  offset="0.5" style="stop-color:#D9DBDC"/>
    <stop  offset="1" style="stop-color:#D5DBDF"/>
  </linearGradient>
  <path fill="url(#SVGID_2_)" d="M117.51675,125.59748c0,0-5.41611,0-12.99837,0c-1.2639,0-2.58782,0-3.95611-0.00047
    c-1.79152,0.02074-3.58304,0.0224-5.37567,0.01144c-1.79264-0.01097-3.58517-0.03608-5.37781-0.06831
    c-11.27148-1.31687-28.7099,2.78626-30.24819-0.29097c-10.77107-29.23483-4.10372-64.11122-2.05191-96.93615
    c19.48977,0,38.97943-0.5125,58.46978,2.56419c-1.0259,20.51624,2.05124,41.03124,1.43279,61.33087
    c0.01524,1.80473,0.02184,3.62851,0.03383,5.45776c0.01209,1.82872,0.03561,3.65742,0.07224,5.48612
    c0,1.29996-0.00056,2.56429-0.00056,3.78767C117.51675,117.94253,117.51675,125.59748,117.51675,125.59748z"/>
  <linearGradient id="SVGID_3_" gradientUnits="userSpaceOnUse" x1="2225.91968" y1="4003.1333" x2="2233.67505" y2="4003.1333" gradientTransform="matrix(0.1751 0.9845 0.9845 -0.1751 -4250.71777 -1364.47644)">
    <stop  offset="0" style="stop-color:#B3B5B9"/>
    <stop  offset="0.00814" style="stop-color:#B5B6BA"/>
    <stop  offset="0.09692" style="stop-color:#CAC3C0"/>
    <stop  offset="0.19627" style="stop-color:#D9CCC4"/>
    <stop  offset="0.31468" style="stop-color:#E1D1C6"/>
    <stop  offset="0.5" style="stop-color:#E4D3C7"/>
    <stop  offset="0.73142" style="stop-color:#E3D0C4"/>
    <stop  offset="0.92316" style="stop-color:#E0C7B9"/>
    <stop  offset="1" style="stop-color:#DEC2B3"/>
  </linearGradient>
  <path fill="url(#SVGID_3_)" d="M88.34643,130.69865c-1.19547,1.88504-0.45885,1.73798-1.95996,2.05405
    c-2.78684,0.58784-5.78201-0.79564-7.80537-1.42238c-1.45306-0.44788-4.06765,1.13632-5.18819-1.74292
    c-1.29929-3.34347,2.94543-2.62109,3.11668-2.63586c0.00156,0,1.40434,0.05577,2.01518-0.01479
    c0.63928-0.07269,1.55307-0.21706,2.44122-0.45225C84.9296,127.50279,88.81559,129.95709,88.34643,130.69865z"/>
  <linearGradient id="SVGID_4_" gradientUnits="userSpaceOnUse" x1="-1264.64539" y1="2586.0144" x2="-1256.89746" y2="2580.92529" gradientTransform="matrix(-0.9734 -0.2293 0.2293 -0.9734 -1742.56775 2342.88892)">
    <stop  offset="0" style="stop-color:#DEC2B3"/>
    <stop  offset="0.07684" style="stop-color:#E0C7B9"/>
    <stop  offset="0.26858" style="stop-color:#E3D0C4"/>
    <stop  offset="0.5" style="stop-color:#E4D3C7"/>
    <stop  offset="0.68532" style="stop-color:#E1D1C6"/>
    <stop  offset="0.80373" style="stop-color:#D9CCC4"/>
    <stop  offset="0.90308" style="stop-color:#CAC3C0"/>
    <stop  offset="0.99186" style="stop-color:#B5B6BA"/>
    <stop  offset="1" style="stop-color:#B3B5B9"/>
  </linearGradient>
  <path fill="url(#SVGID_4_)" d="M73.56471,115.14964c0.52818,3.93527,1.79041,8.05479,0.69338,11.65429
    c-0.19028,0.62674,0.35873,2.95091,0.95702,3.0777c2.65771,0.56447,3.15868,0.85701,6.04665-0.74367
    c1.06152-0.58731,0.10774-1.68546-0.31337-2.40672c-1.32885-2.27772-0.8542-3.40865-1.04012-5.93903
    c-0.10382-1.42349-0.15915-7.6545,0.25591-9.01998c0.5918-1.94901,0.38337-4.98682-1.35294-7.60085
    c-1.17139-1.76151-6.1068,0.98759-5.613,3.13684C73.73529,109.64874,73.09219,111.6394,73.56471,115.14964z"/>
  <linearGradient id="SVGID_5_" gradientUnits="userSpaceOnUse" x1="-207.41594" y1="4408.00049" x2="-200.67867" y2="4403.57568" gradientTransform="matrix(0.5786 -0.8157 0.8157 0.5786 -3428.15112 -2612.8772)">
    <stop  offset="0" style="stop-color:#DEC2B3"/>
    <stop  offset="0.07684" style="stop-color:#E0C7B9"/>
    <stop  offset="0.26858" style="stop-color:#E3D0C4"/>
    <stop  offset="0.5" style="stop-color:#E4D3C7"/>
    <stop  offset="0.68532" style="stop-color:#E1D1C6"/>
    <stop  offset="0.80373" style="stop-color:#D9CCC4"/>
    <stop  offset="0.90308" style="stop-color:#CAC3C0"/>
    <stop  offset="0.99186" style="stop-color:#B5B6BA"/>
    <stop  offset="1" style="stop-color:#B3B5B9"/>
  </linearGradient>
  <path fill="url(#SVGID_5_)" d="M49.01913,99.4016c-3.84545-0.99098-5.82513-0.08635-8.24775-2.0518
    c-0.42112-0.34182-2.37884-0.64421-2.66275-0.22534c-1.26154,1.86589-1.64267,2.1601-1.31407,4.87695
    c0.12085,0.99913,1.2611,0.60914,1.94686,0.51026c2.16447-0.31068,2.88473,0.40622,4.88625,1.05267
    c1.12603,0.36422,4.92892,2.32419,6.03793,3.22218c1.58376,1.28126,4.47667,2.23112,7.55225,1.60549
    c2.07252-0.42324,1.38183-6.02963-0.79575-6.38131C54.05142,101.62846,52.44907,100.28482,49.01913,99.4016z"/>
  <linearGradient id="SVGID_6_" gradientUnits="userSpaceOnUse" x1="1153.78662" y1="1145.94678" x2="1164.58191" y2="1145.94678" gradientTransform="matrix(0.8254 0.5645 0.5645 -0.8254 -1543.85291 391.4346)">
    <stop  offset="0" style="stop-color:#00A3CE"/>
    <stop  offset="0.1345" style="stop-color:#18A9D2"/>
    <stop  offset="0.41649" style="stop-color:#54B8DD"/>
    <stop  offset="0.5" style="stop-color:#67BDE0"/>
    <stop  offset="1" style="stop-color:#8ECDE9"/>
  </linearGradient>
  <path fill="url(#SVGID_6_)" d="M68.65159,92.10751c0.21223,6.81171-6.9441,14.71944-11.0094,16.56349
    c-1.89657,0.8607-4.40118,0.899-6.16761-0.36041c-4.05612-2.89571,0.06787-4.94583,0.22097-5.10934
    c0.00112-0.00112,0.33577-0.31606,0.85309-0.91335c4.60133-5.32035,5.80497-4.72811,7.8421-8.14281
    C65.34205,91.60878,68.61665,90.97555,68.65159,92.10751z"/>
  <linearGradient id="SVGID_7_" gradientUnits="userSpaceOnUse" x1="360.19379" y1="1239.60632" x2="369.46429" y2="1239.60632" gradientTransform="matrix(0.8784 -0.478 -0.478 -0.8784 347.89749 1367.76379)">
    <stop  offset="0" style="stop-color:#00A3CE"/>
    <stop  offset="0.1345" style="stop-color:#18A9D2"/>
    <stop  offset="0.41649" style="stop-color:#54B8DD"/>
    <stop  offset="0.5" style="stop-color:#67BDE0"/>
    <stop  offset="1" style="stop-color:#8ECDE9"/>
  </linearGradient>
  <path fill="url(#SVGID_7_)" d="M78.71124,111.74658c-0.31225,0.44452-2.16615,1.86208-3.29162,0.38986
    c-0.0355-0.00706-0.07056-0.02072-0.10394-0.04424c-3.29643-2.24883-4.25671-10.54852-4.21078-13.17947
    c-0.02576-0.8028,0.77984-1.72813,2.69377-1.79925c1.57066-0.05678,3.64487,0.17181,4.12892,1.60012
    C79.01913,101.92973,81.55544,107.71286,78.71124,111.74658z"/>
  <linearGradient id="SVGID_8_" gradientUnits="userSpaceOnUse" x1="-2604.18384" y1="-400.10602" x2="-2590.00562" y2="-400.47665" gradientTransform="matrix(-0.8588 0.5124 -0.5124 -0.8588 -2363.82227 1081.92847)">
    <stop  offset="0" style="stop-color:#8ECDE9"/>
    <stop  offset="0.5" style="stop-color:#67BDE0"/>
    <stop  offset="0.58351" style="stop-color:#54B8DD"/>
    <stop  offset="0.8655" style="stop-color:#18A9D2"/>
    <stop  offset="1" style="stop-color:#00A3CE"/>
  </linearGradient>
  <path fill="url(#SVGID_8_)" d="M61.6189,92.32188c3.93751-2.58234,7.84478-7.38156,11.67511-6.30101
    c3.82966,1.08123,5.02837,9.67517,5.27231,13.50651c-0.58407,2.0163-4.37061,3.80122-7.6321,2.66318
    c-1.11562-4.17358-4.86486-6.66128-8.60111-9.278C61.88691,92.54498,61.6189,92.32188,61.6189,92.32188z"/>
  <linearGradient id="SVGID_9_" gradientUnits="userSpaceOnUse" x1="-2982.6311" y1="529.90009" x2="-2965.44824" y2="529.45093" gradientTransform="matrix(-0.9704 -0.2413 0.2413 -0.9704 -2948.55811 -108.901)">
    <stop  offset="0" style="stop-color:#8ECDE9"/>
    <stop  offset="0.5" style="stop-color:#67BDE0"/>
    <stop  offset="0.58351" style="stop-color:#54B8DD"/>
    <stop  offset="0.8655" style="stop-color:#18A9D2"/>
    <stop  offset="1" style="stop-color:#00A3CE"/>
  </linearGradient>
  <path fill="url(#SVGID_9_)" d="M61.15299,86.17128c4.33119,1.84573,11.24359,2.59757,13.17286,6.07735
    c0.97617,1.74448-2.84251,1.4142-4.19331,4.03529c-1.17744,2.28588-2.84475,4.38808-4.31528,5.40636
    c-2.40459,1.62901-6.59903-2.05348-10.27559-2.80163c2.14857-3.74992,5.40625-7.23608,5.51568-11.79585
    C61.1158,86.51579,61.15299,86.17128,61.15299,86.17128z"/>
  <linearGradient id="SVGID_10_" gradientUnits="userSpaceOnUse" x1="-708.61963" y1="1540.61755" x2="-701.74579" y2="1538.52197" gradientTransform="matrix(-0.1117 0.9937 -0.9937 -0.1117 1537.97046 953.20612)">
    <stop  offset="0" style="stop-color:#DEC2B3"/>
    <stop  offset="0.07684" style="stop-color:#E0C7B9"/>
    <stop  offset="0.26858" style="stop-color:#E3D0C4"/>
    <stop  offset="0.5" style="stop-color:#E4D3C7"/>
    <stop  offset="0.68532" style="stop-color:#E1D1C6"/>
    <stop  offset="0.80373" style="stop-color:#D9CCC4"/>
    <stop  offset="0.90308" style="stop-color:#CAC3C0"/>
    <stop  offset="0.99186" style="stop-color:#B5B6BA"/>
    <stop  offset="1" style="stop-color:#B3B5B9"/>
  </linearGradient>
  <path fill="url(#SVGID_10_)" d="M81.78346,83.60921c2.69333,0.76786,7.83168,0.11704,10.93514-0.56648
    c0,0,1.09647-1.17912,0.77716-2.33303c-0.22646-0.82466-0.50321-0.96578-0.64209-0.95367
    c-0.00156,0-1.17844,0.48775-1.66787,0.53155c-3.59514,0.32266-5.70058-1.84405-8.92927-2.58783
    C78.66634,79.15718,81.02938,83.3785,81.78346,83.60921z"/>
  <linearGradient id="SVGID_11_" gradientUnits="userSpaceOnUse" x1="1001.29242" y1="-986.39618" x2="1009.20398" y2="-986.39618" gradientTransform="matrix(-0.9766 0.2151 0.2151 0.9766 1276.10437 822.41309)">
    <stop  offset="0" style="stop-color:#B3B5B9"/>
    <stop  offset="0.00814" style="stop-color:#B5B6BA"/>
    <stop  offset="0.09692" style="stop-color:#CAC3C0"/>
    <stop  offset="0.19627" style="stop-color:#D9CCC4"/>
    <stop  offset="0.31468" style="stop-color:#E1D1C6"/>
    <stop  offset="0.5" style="stop-color:#E4D3C7"/>
    <stop  offset="0.73142" style="stop-color:#E3D0C4"/>
    <stop  offset="0.92316" style="stop-color:#E0C7B9"/>
    <stop  offset="1" style="stop-color:#DEC2B3"/>
  </linearGradient>
  <path fill="url(#SVGID_11_)" d="M81.78246,83.61359c-3.56064-3.14222-4.16174-10.54898-3.15823-13.49274
    c0.46703-1.37432,1.92065-2.78854,3.40318-3.08386c3.40642-0.67702,2.67149,2.50472,2.68235,2.66107
    c0,0.00112,0.14985,0.4556,0.20675,1.00182c0.50645,4.87482-0.98984,5.0837-0.22747,7.74589
    C83.6144,82.16993,82.37302,84.13482,81.78246,83.61359z"/>
  <linearGradient id="SVGID_12_" gradientUnits="userSpaceOnUse" x1="87.91257" y1="-1941.50049" x2="93.09074" y2="-1937.04993" gradientTransform="matrix(-0.7021 0.7122 0.7122 0.7021 1540.82812 1376.96387)">
    <stop  offset="0" style="stop-color:#DEC2B3"/>
    <stop  offset="0.07684" style="stop-color:#E0C7B9"/>
    <stop  offset="0.26858" style="stop-color:#E3D0C4"/>
    <stop  offset="0.5" style="stop-color:#E4D3C7"/>
    <stop  offset="0.68532" style="stop-color:#E1D1C6"/>
    <stop  offset="0.80373" style="stop-color:#D9CCC4"/>
    <stop  offset="0.90308" style="stop-color:#CAC3C0"/>
    <stop  offset="0.99186" style="stop-color:#B5B6BA"/>
    <stop  offset="1" style="stop-color:#B3B5B9"/>
  </linearGradient>
  <path fill="url(#SVGID_12_)" d="M99.36244,77.2038c-0.20451-0.14165-0.26902-0.17335-0.61465-0.08151
    c-0.35761,0.09464-0.73605,0.23788-1.10139,0.29422c-0.00649,0.5283-0.04155,0.65955,0.39378,0.47633
    c0.27776-0.11648,0.41451-0.26846,0.4583-0.60042c0.04256-0.3435-0.36321-0.449-0.62461-0.48943
    c-0.59605-0.09352-1.17789-0.59505-1.57985-0.14828c-0.45448,0.50813-1.06039,1.69476-1.57334,2.04038
    c-0.37621,0.25378-0.74378,0.50421-1.14955,0.70928c-0.23396,0.11871-0.44071,0.21056-0.71857,0.35604
    c-0.18099,0.09296-0.31494,0.26028-0.41888,0.4276c-0.15747,0.25323-0.18916,0.53925-0.17987,0.81053
    c0.01579,0.4976,0.13284,0.94054,0.30901,1.53113c0.05141,0.17068,0.10382,0.34123,0.15578,0.51306
    c1.06802-0.34026,2.15025-0.58846,3.24515-0.81815c0.67097-0.14168,1.34084-0.28,2.00756-0.44083
    c0.30732-0.07436,0.62226-0.11591,0.9335-0.17283c0.24662-0.04704,0.54733-0.08308,0.75084-0.24493
    c0.06664-0.05196,0.17057-0.23732,0.19084-0.33801c0.09184-0.491-0.5311-0.37296-0.35279-0.40689
    c0.44463-0.08411,0.42985-0.39972,0.44351-0.58183c0.0383-0.48016-0.40241-0.5272-0.60535-0.51956
    c0.29422-0.06608,0.5545-0.17227,0.62563-0.49537c0.05846-0.26577-0.00661-0.61363-0.28224-0.72955
    c-0.16127-0.06888-0.34999-0.05689-0.52056-0.05141c0.08971-0.10394,0.30296-0.05578,0.38012-0.17281
    C99.90283,77.50298,99.45159,77.26565,99.36244,77.2038z"/>
  <linearGradient id="SVGID_13_" gradientUnits="userSpaceOnUse" x1="-2652.94556" y1="2007.26648" x2="-2638.49219" y2="2005.70508" gradientTransform="matrix(0.7542 0.6567 -0.6567 0.7542 3395.76392 278.98251)">
    <stop  offset="0" style="stop-color:#B3B5B9"/>
    <stop  offset="0.00814" style="stop-color:#B5B6BA"/>
    <stop  offset="0.09692" style="stop-color:#CAC3C0"/>
    <stop  offset="0.19627" style="stop-color:#D9CCC4"/>
    <stop  offset="0.31468" style="stop-color:#E1D1C6"/>
    <stop  offset="0.5" style="stop-color:#E4D3C7"/>
    <stop  offset="0.73142" style="stop-color:#E3D0C4"/>
    <stop  offset="0.92316" style="stop-color:#E0C7B9"/>
    <stop  offset="1" style="stop-color:#DEC2B3"/>
  </linearGradient>
  <path fill="url(#SVGID_13_)" d="M79.00983,61.53453c-2.76333-1.40546-4.35908-3.30035-5.22045-6.94902
    c-0.89733-3.79797,2.45164-7.52436,6.60452-8.15267c4.15076-0.62842,7.92576,2.0042,8.42829,5.87933
    c0.50422,3.87502-1.84618,8.40802-4.26667,9.18999C82.53329,62.15679,79.66659,61.86806,79.00983,61.53453z"/>
  <path fill="#808184" d="M81.57246,54.85183c-0.23138,0.16565-0.48405,0.06662-0.56391-0.22097
    c-0.08086-0.28761,0.04166-0.65731,0.27238-0.82464c0.23083-0.16632,0.48238-0.06731,0.56223,0.22086
    C81.92458,54.31581,81.80261,54.68549,81.57246,54.85183z"/>
  <path fill="#808184" d="M86.96393,54.74678c-0.1783,0.18816-0.39536,0.11648-0.48563-0.15859
    c-0.08959-0.27887-0.0196-0.65564,0.15759-0.84323c0.17718-0.18928,0.39367-0.11592,0.4845,0.15971
    C87.21111,54.1813,87.1401,54.55918,86.96393,54.74678z"/>
  <linearGradient id="SVGID_14_" gradientUnits="userSpaceOnUse" x1="80.10348" y1="31.99669" x2="95.17406" y2="31.99669" gradientTransform="matrix(0.9998 0.0196 -0.0196 0.9998 -5.8042 19.0396)">
    <stop  offset="0" style="stop-color:#919397"/>
    <stop  offset="0.5" style="stop-color:#62696A"/>
    <stop  offset="1" style="stop-color:#505458"/>
  </linearGradient>
  <path fill="url(#SVGID_14_)" d="M88.74346,51.88667c-0.71589-3.63779-4.35358-6.05817-8.34956-5.45383
    c-4.15289,0.62831-7.50185,4.3547-6.60452,8.15267c0.45236,1.91449,1.10856,3.34291,2.02728,4.47387
    c-0.50198-1.44041-1.19759-2.93065-0.63548-4.08076c0.59718-1.22055,1.28461-2.41324,3.34023-3.3194
    C84.4582,49.04295,87.74982,51.07078,88.74346,51.88667z"/>
  <path fill="#808184" d="M85.27747,57.31814c0,0,0.16676-0.88915-0.22209-0.73168c-0.38931,0.15635-1.15437,0.70212-1.15437,0.70212
    L85.27747,57.31814z"/>
  <linearGradient id="SVGID_15_" gradientUnits="userSpaceOnUse" x1="191.31212" y1="-102.73596" x2="211.32814" y2="-103.25921" gradientTransform="matrix(0.9842 0.1773 -0.1773 0.9842 -144.2598 145.05)">
    <stop  offset="0" style="stop-color:#8ECDE9"/>
    <stop  offset="0.5" style="stop-color:#67BDE0"/>
    <stop  offset="0.58351" style="stop-color:#54B8DD"/>
    <stop  offset="0.8655" style="stop-color:#18A9D2"/>
    <stop  offset="1" style="stop-color:#00A3CE"/>
  </linearGradient>
  <path fill="url(#SVGID_15_)" d="M84.11918,67.30825c-0.24942,0.42111-0.54364,0.87504-0.8597,1.32995
    C83.58383,68.11105,83.87525,67.65443,84.11918,67.30825c-3.4053-3.30742-5.76128-3.72797-8.03451-4.49079
    c-1.97856-0.66506-5.03666,0.43198-6.511,3.18869c0.04267-0.23351,0.06563-0.39154,0.04816-0.42055
    c-0.17942,0.29701-0.45617,0.63223-0.54364,0.96799c-3.65192,10.47248-7.23339,15.57421-8.39223,21.47214
    c1.34857,4.00079,11.10135,7.42099,16.96489,9.4049c0,0,1.05659-1.05981,0.66493-3.57641
    C77.11382,82.30444,78.34423,77.04356,84.11918,67.30825z"/>
  <linearGradient id="SVGID_16_" gradientUnits="userSpaceOnUse" x1="-2504.92065" y1="1783.93506" x2="-2496.87915" y2="1778.40735" gradientTransform="matrix(-0.8032 -0.5957 0.5957 -0.8032 -3009.59302 14.8178)">
    <stop  offset="0" style="stop-color:#DEC2B3"/>
    <stop  offset="0.07684" style="stop-color:#E0C7B9"/>
    <stop  offset="0.26858" style="stop-color:#E3D0C4"/>
    <stop  offset="0.5" style="stop-color:#E4D3C7"/>
    <stop  offset="0.68532" style="stop-color:#E1D1C6"/>
    <stop  offset="0.80373" style="stop-color:#D9CCC4"/>
    <stop  offset="0.90308" style="stop-color:#CAC3C0"/>
    <stop  offset="0.99186" style="stop-color:#B5B6BA"/>
    <stop  offset="1" style="stop-color:#B3B5B9"/>
  </linearGradient>
  <path fill="url(#SVGID_16_)" d="M60.24849,68.13132c-2.01686,1.94463-4.34642,6.67117-5.00329,9.74125
    c-0.30351,1.41969-0.12521,1.64278,1.34588,1.99278c1.0511,0.25054,1.38026,0.07,1.45351-0.06944
    c0.00112-0.00056,0.68856-1.36436,0.94616-1.8511c1.88997-3.57755,3.86415-4.0167,6.1292-6.43552
    C65.66303,67.67134,60.82595,67.59597,60.24849,68.13132z"/>
  <linearGradient id="SVGID_17_" gradientUnits="userSpaceOnUse" x1="-34.09991" y1="-2040.32373" x2="-26.57821" y2="-2040.32373" gradientTransform="matrix(-0.467 -0.8842 -0.8842 0.467 -1750.39136 993.34711)">
    <stop  offset="0" style="stop-color:#B3B5B9"/>
    <stop  offset="0.00814" style="stop-color:#B5B6BA"/>
    <stop  offset="0.09692" style="stop-color:#CAC3C0"/>
    <stop  offset="0.19627" style="stop-color:#D9CCC4"/>
    <stop  offset="0.31468" style="stop-color:#E1D1C6"/>
    <stop  offset="0.5" style="stop-color:#E4D3C7"/>
    <stop  offset="0.73142" style="stop-color:#E3D0C4"/>
    <stop  offset="0.92316" style="stop-color:#E0C7B9"/>
    <stop  offset="1" style="stop-color:#DEC2B3"/>
  </linearGradient>
  <path fill="url(#SVGID_17_)" d="M59.87778,69.28132c2.08137-4.26768,9.06042-6.81721,12.16656-6.63342
    c1.44701,0.0859,3.00401,0.87493,3.68429,2.22573c1.55912,3.10291-1.64883,3.0263-1.79645,3.07771
    c0,0-0.31013,0.08534-0.82252,0.28548c-4.56414,1.78502-5.62498,1.82982-7.98971,3.27247
    C61.24494,71.46449,59.53103,69.99015,59.87778,69.28132z"/>
  <linearGradient id="SVGID_18_" gradientUnits="userSpaceOnUse" x1="-1173.26135" y1="-3241.00928" x2="-1168.08325" y2="-3236.55884" gradientTransform="matrix(-0.2632 -0.9647 -0.9647 0.2632 -3376.31836 -194.4212)">
    <stop  offset="0" style="stop-color:#DEC2B3"/>
    <stop  offset="0.07684" style="stop-color:#E0C7B9"/>
    <stop  offset="0.26858" style="stop-color:#E3D0C4"/>
    <stop  offset="0.5" style="stop-color:#E4D3C7"/>
    <stop  offset="0.68532" style="stop-color:#E1D1C6"/>
    <stop  offset="0.80373" style="stop-color:#D9CCC4"/>
    <stop  offset="0.90308" style="stop-color:#CAC3C0"/>
    <stop  offset="0.99186" style="stop-color:#B5B6BA"/>
    <stop  offset="1" style="stop-color:#B3B5B9"/>
  </linearGradient>
  <path fill="url(#SVGID_18_)" d="M56.96079,86.55241c0.22523-0.10606,0.28537-0.14538,0.37844-0.49
    c0.09833-0.35648,0.16508-0.75732,0.29959-1.10139c-0.45326-0.2707-0.54902-0.36634-0.61028,0.10181
    c-0.03886,0.29859,0.02408,0.49436,0.28985,0.69663c0.27451,0.21111,0.57096-0.08749,0.73773-0.2931
    c0.38001-0.46815,1.10408-0.7197,0.91928-1.29224c-0.21056-0.64634-0.23183-0.98547-0.2931-1.66631
    c-0.04435-0.49873-0.64746-1.11449-0.73997-1.60561c-0.11592-0.61464-0.00817-0.85085,0.10225-1.10632
    c0.08971-0.20618-0.09184-0.44351-0.21-0.63704c-0.18043-0.29041-0.47678-0.48238-0.78085-0.62676
    c-0.55887-0.26575-0.6842-0.38928-1.28294-0.53376c-0.17393-0.04156-0.34843-0.08311-0.5218-0.12354
    c-0.24225,1.09377-0.57198,2.15462-0.92197,3.2177c-0.21548,0.65026-0.43198,1.29996-0.62775,1.95672
    c-0.09027,0.30296-0.21224,0.59773-0.31942,0.8952c-0.08254,0.23573-0.20339,0.51461-0.1662,0.77055
    c0.01254,0.08422,0.11916,0.26801,0.19678,0.33521c0.37844,0.32648,0.58743-0.2707,0.5283-0.10113
    c-0.14986,0.4276,0.1307,0.57309,0.28055,0.67588c0.39759,0.27453,0.659-0.08252,0.7542-0.2625
    c-0.09083,0.28772-0.12914,0.56602,0.11424,0.7897c0.20126,0.18491,0.53266,0.30408,0.77323,0.12253
    c0.13944-0.10506,0.22366-0.27341,0.30463-0.42381c0.04435,0.12959-0.10449,0.29039-0.04099,0.41507
    C56.43082,86.86959,56.8629,86.59844,56.96079,86.55241z"/>
  <linearGradient id="SVGID_19_" gradientUnits="userSpaceOnUse" x1="-1955.11804" y1="-1817.03137" x2="-1947.828" y2="-1817.03137" gradientTransform="matrix(0.0956 -0.9954 -0.9954 -0.0956 -1550.4325 -2050.04443)">
    <stop  offset="0" style="stop-color:#8ECDE9"/>
    <stop  offset="0.5" style="stop-color:#67BDE0"/>
    <stop  offset="0.58351" style="stop-color:#54B8DD"/>
    <stop  offset="0.8655" style="stop-color:#18A9D2"/>
    <stop  offset="1" style="stop-color:#00A3CE"/>
  </linearGradient>
  <path fill="url(#SVGID_19_)" d="M76.08131,64.92561c1.66631,3.31345-1.76195,3.23248-1.91886,3.28714
    c0,0-0.33095,0.09138-0.87885,0.30575c-1.48308,0.57915-2.56867,0.90831-3.43274,1.1276
    c0.02352-0.14157,0.04984-0.28326,0.06351-0.42817c0.22691-2.36405,0.33297-4.88894-2.88249-5.66934
    c1.95996-0.72239,3.84063-1.07787,5.11259-1.00238C73.6915,62.63804,75.35623,63.48128,76.08131,64.92561z"/>

</svg>
