<svg version="1.1" xmlns="http://www.w3.org/2000/svg" xmlns:xlink="http://www.w3.org/1999/xlink"
 width="160px" height="160px" viewBox="-219 321 160 160">
<path fill="#58595B" d="M-170.8,451l78.9-22.6c0,0,1.2-0.4,1.2-2.3c0-11.5,0-7.4,0-13.5c0-4.7-44.3-22.2-44.3-22.2
c-2.7,0.5-53.7,11.4-53.7,11.4L-170.8,451z"/>
<path fill="#CCCCCC" d="M-184.6,383.7c5.2-1.1,46.5-9.8,50.2-10.5c17,6.7,43.9,18.5,43.9,21.7v13.5c0,1.5-0.8,1.8-0.9,1.8
l-78.4,22.4L-184.6,383.7z"/>
<path fill="#D7E7F6" d="M-90.7,389.5l-26.9-14v0c-4-2.8-11.9-4.6-21.1-4.6c-13.2,0-23.8,3.9-23.8,8.7c0,1.8,1.4,3.4,3.9,4.8l0,0
l0.2,0.1c0,0,0,0,0,0l26.4,17.5l14-3l-8.6-6.3c6.6-0.6,12.2-2.2,15.3-4.3l0,0.4L-90.7,389.5z"/>
<ellipse transform="matrix(-0.109 -0.994 0.994 -0.109 -516.4139 329.3087)" fill="#B4C1CC" cx="-110.6" cy="396.1" rx="8.7" ry="23.8"/>
<path fill="#6988B0" d="M-176.1,436.6l41.7-12.4c0,0,1-0.4,1-1.5c0-1.1,0-10.7,0-15.4c0-4.3-30-23.3-35.9-27.1
c-0.7-0.4-1.7-0.5-2.3-0.4c-5.5,1-23.7,4.2-23.7,4.2L-176.1,436.6z"/>
<path fill="#D9BC7B" d="M-109.6,337.2c-2.2,0-4.3,0.5-6.1,1.4c6.3,0.8,11.2,6.2,11.2,12.7c0,6.6-4.9,11.9-11.2,12.7
c1.8,0.9,3.9,1.4,6.1,1.4c7.8,0,14.1-6.3,14.1-14.1C-95.5,343.5-101.8,337.2-109.6,337.2z"/>
</svg>
