<?xml version="1.0" encoding="utf-8"?>
<!DOCTYPE svg PUBLIC "-//W3C//DTD SVG 1.1//EN" "http://www.w3.org/Graphics/SVG/1.1/DTD/svg11.dtd">
<svg version="1.1" xmlns="http://www.w3.org/2000/svg" xmlns:xlink="http://www.w3.org/1999/xlink" x="0px" y="0px" width="360px"
  height="360px" viewBox="0 0 360 360" enable-background="new 0 0 360 360" xml:space="preserve">
  <rect x="86.70508" y="162.14163" fill="#BEDEB4" width="186" height="151.8427"/>
  <rect x="86.70508" y="49.38572" fill="#FFF5CC" width="186" height="112.7559"/>
  <path fill="none" stroke="#00ADEE" stroke-width="1.5" stroke-dasharray="1.31275,2.1004" d="M249.16206,138.86235
    c-9.8037,8.8867-22.5224,9.7363-29.4951,8.66991c-8.83879-1.35161-26.16699-6.3672-25.0215-18.207
    c0.29791-3.06651,2.9805-8.22471,5.6983-9.83701c4.4062-2.6123,10.03711-2.1074,14.08101,0.9405
    c8.1348,6.1308,8.85939,16.02731,3.49809,24.2168c-3.0547,4.664-7.08299,9.41209-12.7119,10.91209
    c-5.3252,1.416-11.20709,1.4326-16.2686-0.9785c-1.9492-0.9278-8.0498,3.498-9.73441,2.1474"/>
  <path fill="none" stroke="#00ADEE" stroke-width="1.14825" stroke-dasharray="1.00491,1.60786" d="M218.10057,95.76365
    c2.7652-0.6963,4.70219-2.2177,7.0547-3.7392c1.5327-0.9903,3.04489-2.0186,4.47659-3.1524
    c2.33881-1.85149,4.41991-3.9902,5.9297-6.57809c2.0507-3.5176,3.8999-7.8672,4.02679-11.9883
    c0.08791-2.8613-0.1274-6.5996-2.06149-8.8847c-3.63091-4.2911-10.8941-3.209-13.71341,1.4169
    c-1.99269,3.2706-2.00879,7.7569,0.53661,10.8086c3.7627,4.5108,10.3174,5.54401,15.7359,4.20811
    c3.92621-0.9668,8.6445-2.5928,11.2236-5.89561c2.3701-3.03609,3.3223-7.68259,3.7925-11.4052
    c0.40041-3.17,0.2744-6.459-0.1304-9.6231"/>
  <polygon fill="#6C5944" points="263.03757,277.88965 260.09818,278.28125 254.33647,190.69334 261.30328,189.76465"/>
  <polygon fill="#B55332" points="260.09918,279.79395 263.03757,279.40234 263.03757,277.88965 260.09818,278.28125"/>
  <polygon fill="#6C5944" points="175.91557,298.49615 178.85696,298.10355 180.35307,200.04985 173.38527,201.35455"/>
  <polygon fill="#B55332" points="178.85696,299.61716 175.91557,300.00684 175.91557,298.49615 178.85696,298.10355"/>
  <polygon fill="#6C5944" points="110.42237,255.64455 113.36277,255.25294 118.34917,179.95605 111.38327,180.88284"/>
  <polygon fill="#B55332" points="113.36477,256.76755 110.42237,257.15826 110.42237,255.64455 113.36277,255.25294"/>
  <polygon fill="#6C5944" points="201.98387,244.87305 199.04057,245.26566 194.02586,171.29884 200.99557,170.37115"/>
  <polygon fill="#B55332" points="199.04347,246.77835 201.98387,246.38574 201.98387,244.87305 199.04057,245.26566"/>
  <polygon fill="#5D4F42" points="265.38525,184.37505 189.75926,160.44145 103.70557,162.52534 103.70557,176.13084
    165.33057,205.68166 265.38718,190.66505"/>
  <polygon fill="#95632F" points="99.05227,168.61035 163.96826,201.06155 163.93997,196.07526 99.02397,163.64165"/>
  <polygon fill="#F8A058" points="177.66257,147.52534 268.82767,181.61035 163.93997,196.07526 99.02397,163.64165"/>
  <polygon fill="#F6EAD6" points="187.91357,163.97266 219.96046,175.96385 175.44287,182.10355 154.53667,170.81255"/>
  <polygon fill="#A36C35" points="268.85596,186.59665 163.96826,201.06155 163.93997,196.07526 268.82767,181.61035"/>
  <polygon fill="#6C5944" points="84.44287,302.67484 86.33737,302.42285 89.55027,249.51074 85.06197,250.10844"/>
  <polygon fill="#B55332" points="86.33837,303.39844 84.44287,303.65036 84.44287,302.67484 86.33737,302.42285"/>
  <polygon fill="#6C5944" points="136.51128,296.88675 134.61476,297.13965 131.38327,249.47955 135.87447,248.88185"/>
  <polygon fill="#B55332" points="134.61667,298.11426 136.51128,297.86136 136.51128,296.88675 134.61476,297.13965"/>
  <polygon fill="#5D4F42" points="157.36377,256.81546 128.63426,242.48344 80.11477,244.27934 80.11477,248.04594
    102.24857,268.20996 157.36476,260.86816"/>
  <polygon fill="#004E80" points="77.11667,244.20026 98.94487,263.50485 98.92627,244.29205 77.09817,228.99905"/>
  <polygon fill="#5C80AC" points="131.08157,228.49615 159.58157,239.96875 98.92627,244.29205 77.09817,228.99905"/>
  <polygon fill="#6C5944" points="103.78267,316.09665 105.67827,315.84375 108.89107,267.32526 104.40087,267.92285"/>
  <polygon fill="#B55332" points="105.67827,316.81934 103.78267,317.07034 103.78267,316.09665 105.67827,315.84375"/>
  <polygon fill="#6C5944" points="155.85107,309.16116 153.95657,309.41306 150.72417,261.75394 155.21336,261.15524"/>
  <polygon fill="#B55332" points="153.95757,310.38776 155.85107,310.13574 155.85107,309.16116 153.95657,309.41306"/>
  <polygon fill="#26689E" points="159.60007,255.33694 98.94487,263.50485 98.92627,244.29205 159.58157,239.96875"/>
  <path fill="#B08775" d="M102.69877,181.08495c8.1484,2.3213,23.6982,0.35451,33.0888-1.7168c0,0,3.3194-3.5654,2.3526-7.05659
    c-0.68559-2.4951-1.52249-2.9229-1.94341-2.88771c-0.00589,0.00191-3.5674,1.4765-5.04689,1.60841
    c-10.87891,0.97749-17.25-5.5811-27.0195-7.83011C93.26607,167.61235,100.41647,180.38574,102.69877,181.08495z"/>
  <path fill="#B08775" d="M100.64987,165.33595c4.7119-7.041,17.8438-15.5977,26.3457-20.0928c0,0,4.837,0.5723,6.35841,3.8614
    c1.0918,2.3447,0.72949,3.2119,0.38579,3.45799c-0.00589,0.00391-3.6758,1.1806-4.88869,2.03711
    c-8.9297,6.29289-9.54691,15.414-15.54301,23.44919C102.17137,181.71194,99.36177,167.34575,100.64987,165.33595z"/>
  <path fill="#F0D0B3" d="M122.30227,192.25975c-10.7754-9.5078-12.5938-31.91991-9.5567-40.8291
    c1.4121-4.1553,5.8106-8.43849,10.2969-9.33009c10.30861-2.04881,8.084,7.58009,8.1172,8.0508
    c0,0.00299,0.45509,1.3799,0.62401,3.03419c1.53419,14.75-2.99411,15.38091-0.6875,23.4375
    C127.84617,187.89165,124.08837,193.83694,122.30227,192.25975z"/>
  <path fill="#F0D0B3" d="M152.06007,163.05956c-0.61821-0.42671-0.8154-0.5244-1.85741-0.2451
    c-1.086,0.2852-2.2285,0.7188-3.33499,0.8877c-0.02051,1.6006-0.12691,1.9951,1.19429,1.44341
    c0.8399-0.35161,1.252-0.8125,1.3829-1.8174c0.12981-1.0381-1.0977-1.35941-1.8858-1.4834
    c-1.80659-0.2803-3.5674-1.79791-4.7832-0.4463c-1.373,1.53709-3.20999,5.12889-4.76169,6.17479
    c-1.1367,0.7666-2.24901,1.52441-3.47661,2.14651c-0.7099,0.35739-1.334,0.63669-2.1767,1.07619
    c-0.5459,0.2812-0.95219,0.78801-1.2666,1.2939c-0.47369,0.7666-0.5703,1.63091-0.543,2.45221
    c0.0488,1.50679,0.40331,2.8466,0.93649,4.6328c0.15141,0.5175,0.3125,1.0351,0.4698,1.5507
    c3.2314-1.02631,6.50481-1.77731,9.8183-2.4736c2.0303-0.4267,4.05861-0.8486,6.0742-1.33301
    c0.93069-0.22749,1.8858-0.35249,2.8252-0.5244c0.74901-0.13969,1.6582-0.252,2.27351-0.7402
    c0.2002-0.15729,0.51559-0.71779,0.5761-1.0215c0.2784-1.4883-1.6064-1.12889-1.06731-1.2305
    c1.3457-0.2578,1.3007-1.21289,1.3427-1.7627c0.11531-1.4521-1.21869-1.5957-1.834-1.5713
    c0.8916-0.2002,1.6797-0.5215,1.89461-1.498c0.1787-0.80569-0.01761-1.8575-0.85451-2.209
    c-0.4883-0.20799-1.05759-0.16989-1.57329-0.15529c0.26959-0.3154,0.9151-0.16991,1.1485-0.5244
    C153.69777,163.96585,152.33057,163.24615,152.06007,163.05956z"/>
  <path fill="#B08775" d="M207.06297,240.80565c0.21579,4.961,1.37309,3.7549-0.96091,6.2412
    c-4.33789,4.61821-4.5903,6.38091-9.0786,7.8096c-3.22169,1.0293-5.97659,7.2471-11.6826,3.41891
    c-6.62309-4.44621,2.04001-8.52531,2.33101-8.77242c0.0049-0.00099,2.63379-1.68359,3.65819-2.59079
    c1.0742-0.9463-2.86909-1.5489-1.54689-3.11041C198.30667,240.62015,206.97707,238.85645,207.06297,240.80565z"/>
  <path fill="#B08775" d="M201.77347,285.34375c-2.76469,4.45999-1.03619,4.0957-4.5547,4.87701
    c-6.5381,1.4502-13.61229-1.7276-18.3828-3.15143c-3.4258-1.0195-9.5332,2.7695-12.2373-3.97067
    c-3.13579-7.8262,6.85741-6.23151,7.2588-6.27341c0.00481,0.00189,3.3027,0.09958,4.7373-0.08499
    c1.50189-0.18561,3.64549-0.54492,5.72949-1.12112C193.66206,277.91504,202.85938,283.58984,201.77347,285.34375z"/>
  <path fill="#B08775" d="M163.84956,252.17966c1.9375,8.63968,5.5401,17.5459,3.80081,25.75299
    c-0.30081,1.42871,1.37109,6.48441,2.72269,6.6543c6.0137,0.73529,7.18361,1.289,13.2881-2.82721
    c2.2451-1.5127-0.086-3.76459-1.16209-5.28607c-3.3956-4.80182-2.5596-7.40631-3.46201-12.9902
    c-0.5078-3.1416-1.83879-16.97272-1.1826-20.08701c0.9375-4.44431-0.1162-11.15331-4.4785-16.62111
    c-2.9453-3.68649-13.37689,3.37601-11.86229,8.05771C163.16017,239.92775,162.12106,244.47165,163.84956,252.17966z"/>
  <path fill="#B08775" d="M172.74316,236.73145c4.31351,7.73441,8.81841,9.53911,9.3701,16.4727
    c0.09671,1.20601,2.6192,4.83202,3.7334,4.64641c4.95221-0.832,6.01271-0.66791,9.8945-5.37891
    c1.42781-1.73039-0.955-2.9716-2.16989-3.9277c-3.8291-3.01559-3.77931-5.2822-5.81351-9.5098
    c-1.14549-2.3779-3.82809-11.5312-4.08389-14.705c-0.36531-4.5235-3.2823-10.6582-9.02051-14.66119
    c-3.87019-2.6972-11.8624,7.0401-9.0811,11.09669C168.60057,225.18065,168.89456,229.83495,172.74316,236.73145z"/>
  <path fill="#F05A22" d="M167.85347,223.79005c-0.44431-0.2715-0.8671-0.582-1.3271-0.8457
    c-1.2822-0.73241-2.4297-1.49811-3.6357-2.3477c-2.09669-1.4765-4.27251-2.8847-6.4883-4.1767
    c-1.8526-1.08011-3.7617-2.0654-5.70021-2.9854c-1.97949-0.9404-4.0078-1.7959-6.11819-2.40041
    c-1.8154-0.52139-3.71291-0.9189-5.60451-0.96291c-1.6552-0.041-3.1552,0.33701-4.62009,1.09581
    c-0.1562,0.08-0.33101,0.1523-0.4756,0.25189c-7.33491,4.99611-4.73241,18.55081-5.95901,28.9756c0,0,0.7647-0.1338,2.0313-0.37399
    c4.09959-0.77051,8.06149-2.211,12.1953-2.9043c3.834-0.64461,7.8848-0.84871,11.69431,0.0508
    c2.461,0.5791,4.8203,1.53119,7.2002,2.3662c2.8662,1.00481,5.2744,3.0576,8.05859,4.2431
    c4.2276,1.8047,9.2373,1.27539,12.6797-2.71091c5.5576-6.43849-2.58099-12.2442-7.56639-14.66209
    c-1.52251-0.7393-3.0986-1.35741-4.67871-1.9561C168.99997,224.24416,168.36427,224.10056,167.85347,223.79005z"/>
  <path fill="#EF7D32" d="M118.95357,212.47755c-1.5507,8.7363-7.2241,18.2119-2.3198,27.4912c0,0,17.13531,0.99609,18.04841,0.0811
    c6.5976-7.7412,17.13669-9.2012,26.125-12.6748c1.27829-0.4922,3.28609-0.5948,4.76459-0.82719
    c2.5977-0.4082,5.26471-1.1221,7.8887-1.2637c2.789-0.15131,5.832-0.35049,7.51561-2.9218
    c4.10939-6.27541-4.7695-13.4912-10.0605-14.87801c-3.64551-0.9511-7.5264-1.4131-11.3311-1.24409
    c-3.4756,0.1562-6.8389,1.1396-10.28421,1.543c-2.02339,0.23531-4.0654,0.2675-6.0927,0.4648
    c-4.1758,0.4063-7.8858,1.8857-11.77739,3.3154c-2.50191,0.918-5.14451,0.4346-7.64651-0.20309
    C122.08057,210.92285,119.39407,209.98825,118.95357,212.47755z"/>
  <path fill="#EF7D32" d="M110.03227,202.33495c-1.3926,1.3096-3.7681,2.2588-5.47511,3.2139
    c-2.9956,1.6797-5.9883,3.8945-9.0904,5.14261c-3.29829,1.3291-6.8862,2.83789-8.1821,7.7392
    c-3.1621,11.9697,9.4946,20.46291,16.2183,20.70711c4.6323,0.1601,14.7343,1.7744,19.2426,0.02139
    c4.1182-1.60249,9.753-3.1357,13.76571-5.1367c2.35689-1.17189-2.41411-5.75969-0.04201-6.87109
    c4.8867-2.28711,8.914-6.1709,13.17281-10.039C152.38187,214.62505,119.82127,193.11235,110.03227,202.33495z"/>
  <path fill="#B08775" d="M140.42337,135.30956c-8.3633-4.2529-13.1924-9.9883-15.7959-21.02731
    c-2.7188-11.4942,7.41699-22.7705,19.9843-24.6709c12.55859-1.9004,23.9834,6.0654,25.502,17.792
    c1.5244,11.7246-5.5869,25.44141-12.9102,27.80949C151.08347,137.19145,142.40868,136.31935,140.42337,135.30956z"/>
  <path fill="#00ADEE" d="M155.88237,152.78125c0,0-16.8965-14.0703-23.7735-16.38091
    c-5.9873-2.00969-16.92281,1.53911-21.3847,9.88191c-3.0489,5.89549-3.3536,13.85739-3.6202,14.87299
    c-11.0488,31.69051-18.62009,36.4678-22.1269,54.31351c4.0791,12.10651,53.47461,17.89549,52.29001,10.2793
    C133.62936,190.79884,138.40767,182.23825,155.88237,152.78125z"/>
  <path fill="#B08775" d="M163.60986,190.65726c6.83891,2.71779,20.373,2.4023,28.1396-0.1026
    c3.5889-1.16301,3.8819-1.9521,2.9122-6.39061c-0.6915-3.17189-1.49609-3.80659-1.89949-3.80949
    c-0.00291-0.002-3.92871,0.0517-5.34081,0.0332c-10.3965-0.10161-13.7627-4.79691-21.97751-7.51761
    C156.07176,176.74905,161.70067,189.85255,163.60986,190.65726z"/>
  <path fill="#B08775" d="M164.03568,190.92876c-13.8692-3.75-25.42191-23.0401-26.6494-32.37311
    c-0.56841-4.3515,0.88959-9.4267,4.51459-12.2187c8.33301-6.40329,9.9326,3.1748,10.17191,3.58301
    c0.00101,0.0029,0.4297,0.87399,1.3174,2.2822c7.90331,12.54491,8.6425,15.6709,14.2773,21.8779
    C169.74268,185.62115,166.33937,191.55466,164.03568,190.92876z"/>
  <rect x="202.27232" y="163.44496" transform="matrix(0.89314 0.44978 -0.44978 0.89314 99.72478 -72.85334)" fill="#B08775" width="1.82155" height="20.0007"/>
  <ellipse transform="matrix(0.89271 0.45064 -0.45064 0.89271 96.42007 -75.93853)" fill="#B08775" cx="207.68311" cy="164.51562" rx="0.91015" ry="0.63504"/>
  <rect x="207.37109" y="161.99849" transform="matrix(0.89271 0.45064 -0.45064 0.89271 95.94911 -76.33549)" fill="#B08775" width="1.82031" height="2.65928"/>
  <ellipse transform="matrix(0.89271 0.45064 -0.45064 0.89271 95.47816 -76.73244)" fill="#B08775" cx="208.87939" cy="162.14062" rx="0.91015" ry="0.63504"/>
  <ellipse transform="matrix(0.89314 0.44978 -0.44978 0.89314 103.26042 -69.8746)" fill="#B08775" cx="198.68213" cy="182.37549" rx="0.91078" ry="0.63542"/>
  <path fill="#B08775" d="M209.78757,173.64745c-0.6133-0.43649-0.8076-0.5361-1.85449-0.2695
    c-1.0869,0.2695-2.2422,0.68851-3.3486,0.8457c-0.03911,1.5947-0.1523,1.9902,1.1768,1.457
    c0.84369-0.3418,1.26169-0.7959,1.40619-1.79781c0.14841-1.03809-1.08099-1.375-1.86909-1.5078
    c-1.8008-0.3125-3.53709-1.8477-4.7735-0.50789c-1.39351,1.5127-2.2558,2.07129-3.95801,3.24319
    c-1.248,0.85739-1.9756,3.3613-3.13669,4.33299c-1.44731,1.21971-2.23241,1.2881-3.06741,1.37311
    c-0.6767,0.0713-1.03419,0.9023-1.36719,1.5009c-0.5,0.9073-0.5654,1.9747-0.49701,2.9883
    c0.12981,1.8672-1.2276,3.4649,0.49701,4.1768c3.7686,1.55859,6.9805-0.1299,10.3028-0.78621
    c2.0322-0.3974,4.0713-0.78799,6.09081-1.24699c0.93259-0.21291,1.89159-0.3262,2.83499-0.4883
    c0.7421-0.13181,1.6601-0.2256,2.2802-0.70311c0.20021-0.15919,0.5244-0.7139,0.5899-1.0186
    c0.2998-1.48239-1.584-1.1494-1.0518-1.24409c1.35161-0.2383,1.31841-1.1944,1.36821-1.7383
    c0.13469-1.45801-1.1983-1.6172-1.81061-1.60251c0.8936-0.1866,1.6817-0.502,1.91211-1.47269
    c0.18849-0.8047,0.0098-1.8555-0.82611-2.2207c-0.48439-0.2119-1.0518-0.18361-1.5694-0.1738
    c0.27541-0.3116,0.9209-0.15631,1.1573-0.50781C211.40967,174.57526,210.05327,173.83885,209.78757,173.64745z"/>
  <path fill="#00ADEE" d="M141.52786,144.67094c10.1123-7.7715,12.05951,3.85741,12.34471,4.3535
    c0.0029,0.0029,0.5244,1.0605,1.6035,2.77051c2.916,4.6347,4.72949,8.0898,6.0322,10.8623
    c-0.49409,0.01369-0.9882,0.01759-1.4882,0.06349c-8.1299,0.7646-16.7276,2.041-17.2793,13.4082
    c-3.709-6.1485-6.13091-12.2735-6.6963-16.6153C135.34717,154.22755,137.11867,148.05865,141.52786,144.67094z"/>
  <path fill="#BBBDBF" d="M163.08157,117.05275c1.82419-3.8311,5.08099-5.7383,7.2002-5.0391
    c0.0752-1.5508,0.02831-3.0966-0.168-4.6103c-1.5186-11.7266-12.94341-19.6924-25.502-17.792
    c-12.56731,1.9004-22.7031,13.1767-19.9843,24.6709c0.4697,1.9912,1.0146,3.8037,1.6357,5.4726
    c6.3848,3.4864,13.4902,5.4454,20.9893,5.4454c1.62399,0,3.22459-0.1124,4.80949-0.2911c0.209-0.7949,0.4581-1.5625,0.78911-2.2548
    c2.18069-4.5782,6.4131-6.4248,8.29489-4.336c0.3604,0.3985,0.709,0.9112,1.041,1.461
    C162.40967,118.81255,162.68697,117.87985,163.08157,117.05275z"/>
  <polygon fill="#6C5944" points="175.91557,298.49615 178.85696,298.10355 180.30127,203.43456 173.46626,204.46095"/>
  <polygon fill="#B55332" points="178.85696,299.61716 175.91557,300.00684 175.91557,298.49615 178.85696,298.10355"/>
  <polygon fill="#FFCD6F" points="197.86867,100.73535 218.60887,93.02445 212.49167,91.36625"/>
  <polygon fill="#FFCD6F" points="197.86867,100.73535 223.60347,94.45895 228.33107,98.98535"/>
  <polygon fill="#FBBE83" points="218.60887,93.02445 218.69827,95.65525 197.86867,100.73535"/>
  <polygon fill="#DFA872" points="219.24806,101.27835 220.46147,99.43655 197.86867,100.73535"/>
  <polygon fill="#FFCD6F" points="264.38867,130.63776 241.62407,139.87595 242.95506,132.25005"/>
  <polygon fill="#FFCD6F" points="264.38867,130.63776 239.79887,146.22466 236.91797,160.09766"/>
  <polygon fill="#FBBE83" points="241.62407,139.87595 245.21587,142.79005 264.38867,130.63776"/>
  <polygon fill="#FFCD6F" points="50.95557,41.92965 116.53807,81.46975 95.06737,81.46975"/>
  <polygon fill="#FFCD6F" points="50.95557,41.92965 123.62207,80.42965 156.45557,75.39945"/>
  <polygon fill="#FBBE83" points="109.91307,75.39945 112.53707,81.46975 50.95557,41.92965"/>
  <polygon fill="#DFA872" points="119.31737,94.21975 123.62207,80.42965 50.95557,41.92965"/>
  <polygon fill="#FFCD6F" points="280.35306,293.20316 241.65967,239.85056 259.28076,229.12595"/>
  <polygon fill="#FFCD6F" points="280.35306,293.20316 225.73387,247.33694 192.86867,265.92096"/>
  <polygon fill="#FBBE83" points="241.65967,239.85056 240.71046,256.39746 280.35306,293.20316"/>
  <polygon fill="#F6921E" points="225.73387,247.33694 240.71046,256.39746 280.35306,293.20316"/>

</svg>
