<?xml version="1.0" encoding="utf-8"?>
<!DOCTYPE svg PUBLIC "-//W3C//DTD SVG 1.1//EN" "http://www.w3.org/Graphics/SVG/1.1/DTD/svg11.dtd">
<svg version="1.1" xmlns="http://www.w3.org/2000/svg" xmlns:xlink="http://www.w3.org/1999/xlink" x="0px" y="0px" width="160px"
  height="160px" viewBox="0 0 160 160" enable-background="new 0 0 160 160" xml:space="preserve">
  <path fill="#5652A2" d="M117.8407,131.35815c-4.34062,5.9225-25.0427,2.48845-34.13475,0.45926
    c-6.73649-1.04263-15.70061-0.25644-22.9379-3.81145c-6.76991-3.32824-1.07727-11.61951,1.14346-11.94904
    c6.1455-0.90845,13.39673,0.59221,19.15795,0.87315c10.30666,0.744,12.89968-4.24295,12.89968-4.24295
    C98.15983,121.13846,122.17945,125.43624,117.8407,131.35815z"/>
  <path fill="#5652A2" d="M57.29052,128.84764c6.23815-0.23566,14.85075-3.12348,22.69599-0.85238
    c1.01553,0.21037,1.626,0.33392,1.626,0.33392c-0.82084-8.39024,2.12183-19.30607-2.77952-24.47578
    c-2.45316-2.60689-3.94433,4.09116-9.14998,4.98515c-3.14297,0.53925-6.26208,1.52898-8.72407,2.7392
    c-8.21696,2.15705-15.94692,4.13708-19.2424,7.80679c-2.49102,2.77513-3.99355,7.05969-2.70707,10.72559
    C40.71165,134.96039,51.05173,129.08195,57.29052,128.84764z"/>
  <path fill="#5652A2" d="M101.20835,128.84764c-6.23814-0.23566-14.85075-3.12348-22.69605-0.85238
    c-1.01553,0.21037-1.626,0.33392-1.626,0.33392c0.82091-8.39024-2.12177-19.30607,2.77953-24.47578
    c2.45322-2.60689,3.94439,4.09116,9.14997,4.98515c3.14304,0.53925,6.26215,1.52898,8.72414,2.7392
    c8.21696,2.15705,15.94691,4.13708,19.24239,7.80679c2.49096,2.77513,3.99348,7.05969,2.70707,10.72559
    C117.78716,134.96039,107.44714,129.08195,101.20835,128.84764z"/>
	<linearGradient id="SVGID_1_" gradientUnits="userSpaceOnUse" x1="-3.79196" y1="-246.04506" x2="29.88392" y2="-242.82591" gradientTransform="matrix(0.945 -0.3271 0.3271 0.945 150.8392 291.3324)">
    <stop  offset="0" style="stop-color:#D0D2D3"/>
    <stop  offset="0.5" style="stop-color:#ABADAF"/>
    <stop  offset="1" style="stop-color:#A6A8AB"/>
  </linearGradient>
  <path fill="url(#SVGID_1_)" d="M71.29514,74.11977c6.7485-3.42082,25.03329-6.17138,31.09506-10.73882
    c-4.50377-3.26709-7.24361-8.88471-8.36817-14.61825c-0.45422-1.91017-0.89264-3.82724-1.36015-5.73354
    c-5.47834,3.22993-13.52711,3.0006-15.40955,8.17915c-1.16481,2.67682-12.19405-9.0076-11.39902-5.45317
    c1.64109,3.34018,1.88243,22.24931,3.8146,25.41125C70.59842,72.99715,71.29514,74.11977,71.29514,74.11977z"/>
  <path fill="#F0D0B3" d="M77.83319,65.28545c1.57375-0.59853,2.86771-2.60127,6.27092-2.35303c0,0-1.2001-4.32236-0.0378-6.98157
    c1.16107-2.65727-9.4675,0.5815-9.4675,0.5815s1.04011,5.60188,0.06935,7.8604c-0.24508,0.56886,0.67155,0.94373,1.23919,1.05585
    C76.66206,65.5973,77.26749,65.50085,77.83319,65.28545z"/>
  <path fill="#F0D0B3" d="M83.98818,59.11781c3.92614-3.10775,5.24281-5.58801,5.74051-12.05671
    c0.51783-6.73333-4.52144-11.93143-11.03808-11.95723c-6.51219-0.03026-12.21174,5.48092-11.48405,12.19664
    c0.72885,6.71753,5.99875,13.31919,9.93746,13.59768C80.43505,61.13126,83.05645,59.85305,83.98818,59.11781z"/>
  <path fill="#F0D0B3" d="M86.08672,85.22269c4.84962-3.10768,6.47755-5.588,7.0924-12.05671
    c0.64008-6.73333-5.58678-11.93137-13.638-11.95723c-8.04626-0.03019-15.08827,5.48092-14.18867,12.19664
    c0.90025,6.71759,7.41121,13.31925,12.27728,13.59769C81.69566,87.23615,84.93507,85.95792,86.08672,85.22269z"/>
  <linearGradient id="SVGID_2_" gradientUnits="userSpaceOnUse" x1="-1208.21387" y1="186.12816" x2="-1180.47913" y2="186.12816" gradientTransform="matrix(0.9955 0.0952 -0.0952 0.9955 1285.65039 -30.1968)">
    <stop  offset="0" style="stop-color:#D0D2D3"/>
    <stop  offset="0.5" style="stop-color:#ABADAF"/>
    <stop  offset="1" style="stop-color:#A6A8AB"/>
  </linearGradient>
  <path fill="url(#SVGID_2_)" d="M90.50295,49.70644c0.50332-2.15712,2.12996-4.05845,2.18479-6.32891
    c0.04974-2.05693-0.9576-4.23476-2.05061-5.82302c-1.25119-1.8156-2.60947-3.8864-4.2814-5.23958
    c-3.45172-2.789-9.59478-3.35096-13.55865-1.81566c-1.24048,0.48009-2.3549,1.18694-3.48637,1.91327
    c-0.85555,0.54808-3.10207,3.69429-3.89085,5.92823c-0.36036,1.02057-0.88451,9.13862-0.20534,10.27827
    c0.25952,0.43784,0.04851-0.04412,1.27886-0.61298c0,0,4.68775-7.64494,16.11826-4.14909
    c3.24826,0.99476,4.49751,6.5418,6.79198,4.54034c1.60077-1.39486-0.35914,2.97544-0.77239,5.60878
    c0.78368,0.04348,1.18249-2.14641,1.19197-2.12557C90.09724,51.11194,90.35548,50.45547,90.50295,49.70644z"/>
  <path fill="#F399C0" d="M90.71777,88.15781c5.31461-1.00921,2.01849-10.35445,3.45734-15.45237
    c0.03658-0.5777-0.0138-2.36369-0.31875-3.56572c-0.3043-1.20267,0.40952-4.39358-1.58697-4.95676
    c-1.86914-0.52731-3.35722-1.41117-5.98804-1.59322C84.10159,69.71806,82.9286,75.1775,79.2494,75.1775
    c-3.67848,0-4.6506-6.35782-6.98783-12.40069c-2.63082,0.18205-4.60143,1.22784-7.37657,2.16022
    c-1.96429,0.65962,0.06239,3.00002-0.24256,4.20269c-0.30423,1.20203-0.35526,2.98802-0.31875,3.56572
    c1.46602,5.19429-2.0437,12.42339,3.38496,15.76364c0.5657,13.63232-5.3348,19.3898-4.72742,22.64812
    c3.56507,5.58046,9.30493,5.7398,17.87341,5.69574c0,0,0.13605-0.03342,0.3679-0.09573
    c5.79276-0.453,12.43726-2.69198,14.29576-5.60001C96.01283,106.87109,90.06067,101.64279,90.71777,88.15781z"/>
  <path fill="#F0D0B3" d="M96.16656,90.86804c0.70491,4.79865,5.3946,9.3119,8.67053,16.8642c0,0,2.18292,1.83327,4.15922,0.11593
    c1.41305-1.22532,0.14172-4.46158-0.28288-5.31267c-3.13046-6.26905-4.6815-8.26237-5.8016-13.89321
    C98.05712,84.0106,95.99709,89.51422,96.16656,90.86804z"/>
  <path fill="#F0D0B3" d="M102.91183,90.14733c0.98153-2.44749-7.03951-23.2882-7.29213-23.5358
    c-1.79295-1.76083-2.52187-2.55206-5.13882-2.55206c-2.2982,1.29022-2.29504,6.24383-2.18924,6.49393
    c0.00193,0.00123,0.97966,4.63486,2.04435,5.10165c2.69823,6.71947,5.6031,13.27132,6.35723,17.25101
    C101.25306,97.83194,102.40284,91.41297,102.91183,90.14733z"/>
  <path fill="#F0D0B3" d="M115.5425,109.90224c-0.69775-0.7128,5.28974,3.76756,4.30782,4.9095
    c-0.98058,1.1479-4.82721-2.75171-5.56543-3.42129c0.71862,0.56836,4.66325,3.29391,3.72119,4.39345
    c-1.22952,1.43462-4.40321-3.39326-5.02516-2.93729c-0.22739,0.1627,3.84268,2.52111,3.00906,3.49194
    c-0.716,0.83816-7.22744-5.23101-10.63441-8.37334c-0.90807-0.83823-0.99364-3.20775,0.07713-3.68139
    c1.39803-0.618,3.32529-0.80812,5.09179-0.1352c3.71791,1.41502,7.86311,1.1465,8.0088,1.95469
    c0.33516,1.81093-2.5106,1.0622-3.28154,1.33334c0.67681-0.23782,1.8508,2.43421,2.74061,1.40592
    c0.43182-0.49912-0.0758-1.93114,0.64744-2.34865c1.49864-0.86492,1.56072,3.50103-0.04837,4.48951
    c-0.9159,0.56315-0.77809,0.64282-1.52935,0.0287L115.5425,109.90224z"/>
  <path fill="#F0D0B3" d="M61.39742,90.86804c-0.70498,4.79865-5.3946,9.3119-8.6706,16.8642c0,0-2.18286,1.83327-4.15915,0.11593
    c-1.41305-1.22532-0.14173-4.46158,0.28288-5.31267c3.13039-6.26905,4.68143-8.26237,5.80154-13.89321
    C59.50679,84.0106,61.56688,89.51422,61.39742,90.86804z"/>
  <path fill="#F0D0B3" d="M54.65208,90.14733c-0.98154-2.44749,7.01873-23.31149,7.29213-23.5358
    c1.52394-1.24861,3.86814-2.06951,5.4973-2.06951c1.50949,1.58949,0.98785,7.44334,0.64891,8.33418
    c-0.51595,1.3595-1.04076,2.70326-1.5611,4.01994c-0.71698-0.09509-4.91896,12.10529-5.65858,16.00994
    C56.31085,97.83194,55.16114,91.41297,54.65208,90.14733z"/>
  <path fill="#F0D0B3" d="M42.61995,109.90826c0.67279-0.68737-5.10107,3.63313-4.15418,4.73433
    c0.9456,1.10694,4.65498-2.65353,5.36686-3.29922c-0.69297,0.54809-4.49686,3.17639-3.58842,4.23669
    c1.18565,1.38344,4.24617-3.27219,4.84594-2.83248c0.21921,0.15689-3.70564,2.43116-2.90177,3.36735
    c0.69046,0.80826,6.96957-5.04437,10.25498-8.07458c0.87567-0.80832,0.95818-3.0933-0.07431-3.55003
    c-1.34822-0.59595-3.20665-0.7793-4.91019-0.13038c-3.58526,1.36453-7.58255,1.10559-7.723,1.88495
    c-0.3232,1.74631,2.42103,1.0243,3.16439,1.28577c-0.65266-0.22934-1.78476,2.34736-2.64282,1.35576
    c-0.41642-0.48132,0.07309-1.86224-0.62428-2.26485c-1.44524-0.83406-1.50504,3.37611,0.04658,4.32933
    c0.88329,0.54305,0.75033,0.61988,1.47485,0.02767L42.61995,109.90826z"/>
  <path fill="#F0D0B3" d="M52.34885,112.1995c-0.08819,3.26586,1.94287,5.29635,3.37424,6.65772
    c2.65727,2.52753,6.60167,0.88702,9.32132,1.31544c1.95294,0.30869,1.89372,2.02919,5.3039-1.11759
    c1.48362-1.37021,3.65583-0.75285,2.90738-1.44775c-1.03947-0.96515-2.50419-1.91075-2.61695-1.98952
    c-0.00252,0-1.60271-0.80445-2.22892-1.27887c-0.65646-0.49892-3.16633-2.22511-5.38137-2.26414
    C60.8134,112.03699,52.38285,110.9156,52.34885,112.1995z"/>
  <path fill="#F0D0B3" d="M109.43537,112.89441c0.38558,3.87569-1.85533,6.46555-3.4416,8.20747
    c-2.94331,3.23309-7.77473,1.61974-10.97195,2.36375c-2.29627,0.53486-4.01426,5.14513-8.33978,1.69463
    c-5.01973-4.0042,1.09178-6.46684,1.29589-6.63314c0.00381,0,1.83766-1.09301,2.54076-1.71045
    c0.73769-0.64885,3.57578-2.91873,6.20667-3.15368C99.35618,113.42798,109.28609,111.37105,109.43537,112.89441z"/>
  <path fill="#5652A2" d="M60.14751,133.38734c8.13567-1.1252,16.91142-7.77286,23.95408-3.63693
    c0.93238,0.45358,7.12898-2.17034,7.12898-2.17034c1.2757-8.33224,0.30804-4.91264-3.1651-11.13188
    c-1.0445-1.86733-2.97099-0.18018-4.24044,0.56699c-4.0042,2.35549-9.0145,2.65347-13.47105,2.99557
    c-2.50613,0.19218-14.08913,0.51157-16.49759-0.21101c-3.43785-1.03069-8.79026-0.64511-13.38286,2.42987
    c-3.09769,2.07519,2.07648,12.73459,5.85889,11.85008C50.45261,133.11899,53.96414,134.24031,60.14751,133.38734z"/>

</svg>
