<?xml version="1.0" encoding="utf-8"?>
<!DOCTYPE svg PUBLIC "-//W3C//DTD SVG 1.1//EN" "http://www.w3.org/Graphics/SVG/1.1/DTD/svg11.dtd">
<svg version="1.1" xmlns="http://www.w3.org/2000/svg" xmlns:xlink="http://www.w3.org/1999/xlink" x="0px" y="0px" width="160px"
  height="160px" viewBox="0 0 160 160" enable-background="new 0 0 160 160" xml:space="preserve">
  <linearGradient id="SVGID_1_" gradientUnits="userSpaceOnUse" x1="38.74716" y1="132.7794" x2="136.38197" y2="109.64301">
    <stop  offset="0" style="stop-color:#EDEDEE"/>
    <stop  offset="0.5" style="stop-color:#C0C1C3"/>
    <stop  offset="0.6095" style="stop-color:#C8C9CA"/>
    <stop  offset="1" style="stop-color:#DFE0E1"/>
  </linearGradient>
  <path fill="url(#SVGID_1_)" d="M137.22952,125.61707c-0.52313,0.11762-1.01387,0.44205-1.9942,0.44205
    c-6.86613,0.64983-18.6361-2.11182-21.08853,1.1375c-0.48965,1.13699,0,2.27397,1.87153,3.46422
    c0.58246,0.45216,1.249,0.90839,1.92525,1.36356c3.37655,2.27606,6.9533,4.53789,1.16538,6.33897
    c-1.04625,0.25699-2.12396,0.50133-3.23157,0.73247c-6.64761,1.38895-14.36685,2.30948-22.68579,2.6136
    c-1.99066,0.07253-4.01524,0.11052-6.0733,0.11104c-4.35841-0.00352-9.26225,0.32089-12.69507-0.65341
    c-10.78912-2.76164-15.69398-7.14795-28.93501-8.77261c-1.22622-0.16222-2.45243-0.44656-3.45461-0.84044
    c-1.00161-0.39439-1.77872-0.89774-2.10771-1.49945c-0.46333-0.51302-0.87444-1.02954-1.23685-1.54608
    c-1.08685-1.54913-1.73465-3.09925-2.02866-4.56118c-0.147-1.51061-0.16169-3.25539,0.2869-5.01895
    c0.05881-0.60825,0.16932-1.21806,0.25398-1.84361c0.93066-3.37146-6.42612-9.54463,8.77718-9.86906
    c3.26956-0.10849,6.43012,0.03597,9.55117,0.29349c1.55926,0.12827,3.10943,0.28492,4.65955,0.45321
    c13.25318,1.69001,10.80075-4.15869,16.68599-6.10777c2.45191-0.97483,6.37543,0.4871,8.82787,1.13699
    c7.8465,2.43722,16.18365,6.33539,27.88469,5.20193c1.27438-0.18349,2.54368-0.37207,3.81957-0.55256
    c3.82819-0.54238,7.71312-1.01479,11.94282-1.07563c1.47153-0.16221,2.94312,0.32541,3.43282,0.81204
    c0.49068,3.73695-2.45145,7.47289,1.74477,11.15512c0.64885,0.58189,1.33014,1.1101,1.95921,1.64542
    c0.30008,0.41464,0.70915,0.82726,1.15623,1.23888c0.44766,0.41261,0.93326,0.82424,1.36258,1.23177
    c0.64381,0.64937,1.13345,1.46146,0.34171,2.17416C138.92155,125.12131,138.22864,125.39252,137.22952,125.61707z"/>
  <linearGradient id="SVGID_2_" gradientUnits="userSpaceOnUse" x1="36.22383" y1="118.71452" x2="128.85646" y2="118.71452">
    <stop  offset="0" style="stop-color:#E5E7CE"/>
    <stop  offset="0.5" style="stop-color:#F4F2F1"/>
    <stop  offset="1" style="stop-color:#E8F2DC"/>
  </linearGradient>
  <path fill="url(#SVGID_2_)" d="M82.29099,135.74007c8.31893-0.30414,16.03818-1.22467,22.68579-2.6136
    c1.1076-0.23116,2.18531-0.47548,3.23156-0.73248c5.78792-1.80109,2.21117-4.06291-1.16537-6.33896
    c-0.67625-0.45518-1.3428-0.9114-1.92526-1.36356c-1.87153-1.19025-2.36118-2.32723-1.87153-3.46422
    c2.45243-3.24932,14.2224-0.48767,21.08854-1.1375c0.98033,0,1.47107-0.32442,1.99419-0.44205
    c0.99911-0.22456,1.69203-0.49577,2.11789-0.79434c0.79175-0.71269,0.30209-1.52479-0.34172-2.17416
    c-0.42932-0.40752-0.91492-0.81915-1.36257-1.23177c-0.44708-0.41162-0.85616-0.82424-1.15624-1.23888
    c-0.62907-0.53532-1.31036-1.06354-1.95921-1.64542c-2.053-1.80156-2.39616-3.6163-2.26945-5.43764
    c-1.33066,0.15511-2.64454,0.3305-3.95033,0.5155c-1.27589,0.18049-2.54519,0.36906-3.81957,0.55256
    c-11.70103,1.13346-20.03819-2.76471-27.88469-5.20193c-2.45244-0.64989-6.37595-2.11182-8.82787-1.13699
    c-5.88524,1.94908-3.43281,7.79778-16.68599,6.10777c-1.55012-0.16829-3.10029-0.32494-4.65955-0.45321
    c-3.12105-0.25751-6.28161-0.40198-9.55117-0.29349c-15.2033,0.32442-7.84652,6.4976-8.77718,9.86906
    c-0.08466,0.62554-0.19517,1.23535-0.25398,1.84361c-0.44859,1.76357-0.4339,3.50834-0.2869,5.01895
    c0.19107,0.94997,0.53429,1.93741,1.04776,2.93704c10.96804,1.88218,15.91853,5.78028,25.81448,8.31333
    c3.43281,0.9743,8.33664,0.64989,12.69506,0.65341C78.27576,135.85057,80.30034,135.81258,82.29099,135.74007z"/>
  <linearGradient id="SVGID_3_" gradientUnits="userSpaceOnUse" x1="91.72662" y1="90.40002" x2="79.37245" y2="74.30534">
    <stop  offset="0" style="stop-color:#919397"/>
    <stop  offset="0.5" style="stop-color:#62696A"/>
    <stop  offset="1" style="stop-color:#505458"/>
  </linearGradient>
  <path fill="url(#SVGID_3_)" d="M100.16212,79.477c-5.56538,6.62534-12.39903,13.9654-12.39903,13.9654
    c-9.09195-3.12256-12.01991-4.50034-17.6466-5.30128c-6.03577-0.8597,8.55668-16.77824,17.6466-16.77824
    C96.85249,71.36288,104.0836,74.80888,100.16212,79.477z"/>
  <linearGradient id="SVGID_4_" gradientUnits="userSpaceOnUse" x1="54.73413" y1="55.20354" x2="119.77424" y2="55.20354">
    <stop  offset="0" style="stop-color:#EDC5B5"/>
    <stop  offset="0.5" style="stop-color:#E4B987"/>
    <stop  offset="0.52694" style="stop-color:#E4B885"/>
    <stop  offset="1" style="stop-color:#DDA96E"/>
  </linearGradient>
  <path fill="url(#SVGID_4_)" d="M119.76896,54.31645c-0.15764-8.66106-10.65733-15.87337-16.49491-24.27137
    c-0.85819-1.1781-1.66116-2.28165-2.38298-3.27517c-2.15942-2.97556-3.59804-4.95963-3.59804-4.95963
    c-0.03903-0.52619-2.29427-1.2815-2.29427-1.2815s-0.5196,0.18251-1.47106,0.60732
    c-0.47652,0.21189-1.06048,0.4856-1.73974,0.82829c-3.13981,1.25964-5.96685,3.04802-7.63206,5.8528
    c-8.50849,13.78596-22.03543,23.02387-28.84525,37.03288c-3.45815,7.11348,9.55828,14.96099,14.66138,23.34175
    c2.00177-0.68534,4.20837-1.06707,6.52802-1.06707c4.13029,0,7.6224,0.80753,10.06571,1.42694
    c0.19769-0.15204,1.11926,1.465,1.31188,1.317C100.90731,79.48561,120.13948,71.21386,119.76896,54.31645z"/>
  <linearGradient id="SVGID_5_" gradientUnits="userSpaceOnUse" x1="51.25007" y1="80.34103" x2="70.11649" y2="80.34103">
    <stop  offset="0" style="stop-color:#F1E2C5"/>
    <stop  offset="0.5" style="stop-color:#E7CF9B"/>
    <stop  offset="0.54321" style="stop-color:#E6CE98"/>
    <stop  offset="1" style="stop-color:#E1C281"/>
  </linearGradient>
  <path fill="url(#SVGID_5_)" d="M70.11649,88.14112c-4.48212-6.71706-9.88478-12.42541-14.55647-19.00056
    c-1.77213,1.36008-4.04916,3.10839-4.2991,4.35542c-0.24282,3.35065,3.65332,5.28353,5.34286,8.1993
    c0.43187,0.56262,0.87745,1.14358,1.33268,1.73766c1.9739,2.57462,4.13741,5.39606,6.21724,8.10856
    C65.78137,90.0806,67.81413,88.90857,70.11649,88.14112z"/>
  <linearGradient id="SVGID_6_" gradientUnits="userSpaceOnUse" x1="-1869.16589" y1="344.73007" x2="-1822.43555" y2="344.73007" gradientTransform="matrix(-0.6089 -0.7933 0.7933 -0.6089 -1289.53101 -1220.70105)">
    <stop  offset="0" style="stop-color:#F1E2C5"/>
    <stop  offset="0.5" style="stop-color:#E7CF9B"/>
    <stop  offset="0.54321" style="stop-color:#E6CE98"/>
    <stop  offset="1" style="stop-color:#E1C281"/>
  </linearGradient>
  <polygon fill="url(#SVGID_6_)" points="119.72079,54.01181 94.39751,20.9901 95.98112,13.32209 121.46863,46.52625"/>
  <linearGradient id="SVGID_7_" gradientUnits="userSpaceOnUse" x1="86.56577" y1="73.49872" x2="121.98262" y2="73.49872">
    <stop  offset="0" style="stop-color:#EABAA6"/>
    <stop  offset="0.5" style="stop-color:#E19D83"/>
    <stop  offset="1" style="stop-color:#DA886D"/>
  </linearGradient>
  <path fill="url(#SVGID_7_)" d="M121.32718,53.55611c-1.02139-0.03296-1.98303,0.7046-2.51882,1.49842
    c-7.49215,12.62312-18.23055,22.01161-29.57827,31.10356c-0.94386,0.72385-1.82386,1.53242-2.66432,2.39362
    c0.76949,1.50657,1.19733,3.15199,1.19733,4.87653c0,0.00504,0,0.0096,0,0.01417
    c14.15699-10.58736,31.65659-20.02853,34.21953-39.19436C121.98262,54.24804,121.87008,53.6565,121.32718,53.55611z"/>
  <linearGradient id="SVGID_8_" gradientUnits="userSpaceOnUse" x1="77.75513" y1="119.98605" x2="92.19398" y2="119.98605">
    <stop  offset="0" style="stop-color:#EDC5B5"/>
    <stop  offset="0.5" style="stop-color:#E4B987"/>
    <stop  offset="0.52694" style="stop-color:#E4B885"/>
    <stop  offset="1" style="stop-color:#DDA96E"/>
  </linearGradient>
  <path fill="url(#SVGID_8_)" d="M92.19398,124.8572H77.75513c0,0,4.84051-9.7423,7.21995-9.7423
    C87.35401,115.1149,92.19398,124.8572,92.19398,124.8572z"/>
  <linearGradient id="SVGID_9_" gradientUnits="userSpaceOnUse" x1="88.44336" y1="109.43623" x2="90.09894" y2="109.43623">
    <stop  offset="0" style="stop-color:#EDC5B5"/>
    <stop  offset="0.5" style="stop-color:#E4B987"/>
    <stop  offset="0.52694" style="stop-color:#E4B885"/>
    <stop  offset="1" style="stop-color:#DDA96E"/>
  </linearGradient>
  <polygon fill="url(#SVGID_9_)" points="89.87691,110.0417 89.04963,110.26376 88.44336,109.658 88.66539,108.83018
    89.49318,108.60869 90.09894,109.21445"/>
  <linearGradient id="SVGID_10_" gradientUnits="userSpaceOnUse" x1="82.67066" y1="101.96559" x2="85.3725" y2="101.96559">
    <stop  offset="0" style="stop-color:#EDC5B5"/>
    <stop  offset="0.5" style="stop-color:#E4B987"/>
    <stop  offset="0.52694" style="stop-color:#E4B885"/>
    <stop  offset="1" style="stop-color:#DDA96E"/>
  </linearGradient>
  <polygon fill="url(#SVGID_10_)" points="84.97457,102.9754 83.62365,103.29572 82.67066,102.28596 83.06808,100.95583
    84.4195,100.63546 85.3725,101.64527"/>
  <linearGradient id="SVGID_11_" gradientUnits="userSpaceOnUse" x1="84.25121" y1="98.43195" x2="86.49328" y2="98.43195">
    <stop  offset="0" style="stop-color:#EDC5B5"/>
    <stop  offset="0.5" style="stop-color:#E4B987"/>
    <stop  offset="0.52694" style="stop-color:#E4B885"/>
    <stop  offset="1" style="stop-color:#DDA96E"/>
  </linearGradient>
  <polygon fill="url(#SVGID_11_)" points="86.0406,99.34083 84.91932,99.46504 84.25121,98.55614 84.70438,97.52302
    85.82516,97.39886 86.49328,98.30776"/>
  <linearGradient id="SVGID_12_" gradientUnits="userSpaceOnUse" x1="77.75513" y1="125.07822" x2="92.19398" y2="125.07822">
    <stop  offset="0" style="stop-color:#EDC5B5"/>
    <stop  offset="0.5" style="stop-color:#E4B987"/>
    <stop  offset="0.52694" style="stop-color:#E4B885"/>
    <stop  offset="1" style="stop-color:#DDA96E"/>
  </linearGradient>
  <path fill="url(#SVGID_12_)" d="M77.75513,124.8572c0-0.87138,3.23208-1.57748,7.21944-1.57748s7.21941,0.7061,7.21941,1.57748
    c0,0.87137-3.23205,2.01952-7.21941,2.01952S77.75513,125.72857,77.75513,124.8572z"/>
  <linearGradient id="SVGID_13_" gradientUnits="userSpaceOnUse" x1="16.93343" y1="137.85138" x2="40.57878" y2="137.85138">
    <stop  offset="0" style="stop-color:#EDEDEE"/>
    <stop  offset="0.5" style="stop-color:#C0C1C3"/>
    <stop  offset="0.6095" style="stop-color:#C8C9CA"/>
    <stop  offset="1" style="stop-color:#DFE0E1"/>
  </linearGradient>
  <ellipse fill="url(#SVGID_13_)" cx="28.7561" cy="137.85135" rx="11.82268" ry="3.63406"/>
  <linearGradient id="SVGID_14_" gradientUnits="userSpaceOnUse" x1="16.93343" y1="137.1161" x2="38.93487" y2="137.1161">
    <stop  offset="0" style="stop-color:#E5E7CE"/>
    <stop  offset="0.5" style="stop-color:#F4F2F1"/>
    <stop  offset="1" style="stop-color:#E8F2DC"/>
  </linearGradient>
  <path fill="url(#SVGID_14_)" d="M16.93343,137.85135c0,0.14244,0.02938,0.28238,0.08108,0.42026
    c2.07631,1.04526,5.8214,1.74326,10.09766,1.74326c6.52952,0,11.82271-1.6272,11.82271-3.63405
    c0-0.14244-0.02938-0.28233-0.08108-0.42024c-2.07631-1.04521-5.82191-1.74323-10.09771-1.74323
    C22.22609,134.21735,16.93343,135.8445,16.93343,137.85135z"/>

</svg>
