<?xml version="1.0" encoding="utf-8"?>
<!DOCTYPE svg PUBLIC "-//W3C//DTD SVG 1.1//EN" "http://www.w3.org/Graphics/SVG/1.1/DTD/svg11.dtd">
<svg version="1.1" xmlns="http://www.w3.org/2000/svg" xmlns:xlink="http://www.w3.org/1999/xlink" x="0px" y="0px" width="160px"
  height="160px" viewBox="0 0 160 160" enable-background="new 0 0 160 160" xml:space="preserve">
  <linearGradient id="SVGID_1_" gradientUnits="userSpaceOnUse" x1="122.53013" y1="68.62138" x2="49.79727" y2="89.88666">
    <stop  offset="0" style="stop-color:#DDA96E"/>
    <stop  offset="0.15788" style="stop-color:#D2915E"/>
    <stop  offset="0.48912" style="stop-color:#B55533"/>
    <stop  offset="0.5" style="stop-color:#B45332"/>
    <stop  offset="1" style="stop-color:#EA892B"/>
  </linearGradient>
  <path fill="url(#SVGID_1_)" d="M121.84418,41.0906c20.94568,17.9119,20.28659,49.57162,4.06911,70.11654
    c-1.48499,1.88575-0.78998,6.49454-2.53338,8.17255c-1.76139,1.68948-3.64874,3.26607-5.65391,4.70852
    c-1.79573,1.2888-6.00217-0.34667-7.9926,0.7147c-8.13813,4.06911-16.27467,4.06911-24.40962,6.10365
    c-8.13813,2.03456-16.27308-2.03455-24.40962-6.10365c-12.20397-6.10031-20.34211-18.30596-24.40954-30.50993
    c-2.03455-12.20398-4.06911-24.40962,2.03288-34.57904c1.11378-1.67147,2.07383-3.33968,2.9668-4.97028
    c2.0868-3.81229-0.04095-10.92498,2.73283-12.8598c0.37129-0.25841,3.02081-2.03782,3.36915-2.38449
    c2.94218-2.57265,7.11763-1.00752,10.3019-3.11233c14.43966-9.54307,31.16416-13.55984,48.16994-5.56557
    C111.97571,33.22721,117.31552,36.73695,121.84418,41.0906z"/>
  <linearGradient id="SVGID_2_" gradientUnits="userSpaceOnUse" x1="121.83258" y1="61.31732" x2="56.09227" y2="80.53815">
    <stop  offset="0" style="stop-color:#EA892B"/>
    <stop  offset="0.058" style="stop-color:#E98F37"/>
    <stop  offset="0.34832" style="stop-color:#E6AA6E"/>
    <stop  offset="0.70786" style="stop-color:#EAAC69"/>
    <stop  offset="1" style="stop-color:#F09A36"/>
  </linearGradient>
  <path fill="url(#SVGID_2_)" d="M121.84418,41.0906c-4.52866-4.35365-9.86847-7.86339-15.76606-10.26915
    c-17.00578-7.99427-33.73028-3.9775-48.16994,5.56557c-3.18427,2.10481-7.35972,0.53968-10.3019,3.11233
    c-0.34835,0.34667-2.99786,2.12608-3.36915,2.38449c-2.77378,1.93482-0.64603,9.04752-2.73283,12.8598
    c-0.6297,1.14979-1.31659,2.32077-2.04435,3.49668c0.07193,5.65065,1.04177,11.52687,2.02308,17.40646
    c4.06743,12.20397,12.20398,24.40962,24.40795,30.51002c8.13654,4.06902,16.27308,8.13654,24.40961,6.10358
    c8.13654-2.03455,19.74523,0.57737,27.88177-3.49007c1.99034-1.06145,11.22266-14.32528,12.70933-16.21095
    c2.6871-3.40181,4.93587-7.11436,6.74149-11.015C138.92029,66.67287,134.06615,51.54305,121.84418,41.0906z"/>

    <linearGradient id="SVGID_3_" gradientUnits="userSpaceOnUse" x1="1459.87549" y1="487.94345" x2="1493.77283" y2="487.94345" gradientTransform="matrix(-0.9289 -0.3703 0.3703 -0.9289 1226.54492 1073.35266)">
      <stop  offset="0" style="stop-color:#C1D5AE"/>
      <stop  offset="0.5" style="stop-color:#A9C690"/>
      <stop  offset="1" style="stop-color:#9EBF88"/>
    </linearGradient>
    <path fill="url(#SVGID_3_)" d="M20.9119,72.77327c-0.03442,1.678-0.83904,5.76344-0.74911,7.40543
      c0.19628,3.58176,1.47854,4.67101,1.88575,8.19868c0.30422,2.64298-0.2502,7.72279-0.09487,10.40497
      c0.0834,1.39999,0.97637,0.37782,0.96825,1.80067c-0.01147,2.71165-0.28621,5.46584-0.93877,8.18729
      c0.61814-2.57265,2.83097-4.50253,4.90313-6.19527c0.8341-0.68037,0.80798,1.10398,1.48181,0.47269
      c1.27238-1.18739,3.40667-4.78054,4.70525-5.92212c0.8341-0.73429,0.83084,0.96825,1.67307,0.24694
      c0.73764-0.63129,2.3175-3.68476,3.05673-4.31278c1.62734-1.37865,2.40911-0.3254,4.01191-1.7434
      c2.22916-1.96748,5.25474-6.44213,7.32362-8.66149c3.7829-4.05605,3.06167-9.96502,4.57119-15.65159
      c1.29374-4.88688,0.41383-8.04175-1.89547-11.01014c-5.59504-7.1847,0.59034-11.93409-1.21846-17.59286
      c-2.1507,2.07048-4.33899,3.97089-6.93282,4.98653c-2.71491,1.06471-5.4789,1.15632-8.21994,1.73034
      c-5.78797,1.2136-9.512,5.5721-11.82783,11.97831C21.74927,62.27342,21.02469,67.53151,20.9119,72.77327z"/>

  <linearGradient id="SVGID_4_" gradientUnits="userSpaceOnUse" x1="1475.55481" y1="490.87512" x2="1482.75732" y2="490.87512" gradientTransform="matrix(-0.9289 -0.3703 0.3703 -0.9289 1226.54492 1073.35266)">
    <stop  offset="0" style="stop-color:#E5E7CE"/>
    <stop  offset="0.5" style="stop-color:#D2D5A7"/>
    <stop  offset="0.54321" style="stop-color:#D1D4A4"/>
    <stop  offset="1" style="stop-color:#C5C88D"/>
  </linearGradient>
  <path fill="url(#SVGID_4_)" d="M48.66932,43.39671C35.10295,57.66137,24.04709,76.68696,24.3709,97.64571
    C27.33929,77.13185,40.49678,61.54726,48.66932,43.39671L48.66932,43.39671z"/>
  <path fill="#865936" d="M47.91703,42.26166c-0.75563,1.03524-4.20978,0.07687-4.20978,0.07687
    c-0.63615-2.8834,4.11164-4.6628,5.64737-3.8941C50.13145,39.80842,49.28102,41.4881,47.91703,42.26166z"/>

</svg>
