<svg version="1.1" xmlns="http://www.w3.org/2000/svg" xmlns:xlink="http://www.w3.org/1999/xlink"
 width="160px" height="160px" viewBox="-219 321 160 160">
<path fill="#E4D3C7" d="M-135.3,407.8c0,6.1,2.4,13.2,2.4,28.6c0,2.8-0.3,2.7-1.4,5c-0.4,1.1,0.3,5.3,1.3,5.6
c4.7,1.3,5.5,1.9,10.8-0.6c2-0.9,0.4-3-0.3-4.3c-2.1-4.2,0.6-10.4,0.6-15.7c0-2.9,3.2-12.7,3.6-18.2c0.3-4.7-0.4-13-3.6-18.6
c-2.2-3.8-13.9-2.8-11.9,1.3C-131.3,395.4-135.3,396.2-135.3,407.8z"/>
<path fill="#E4D3C7" d="M-116.7,457.8c-0.2-0.4,0.2-0.9,0.2-1.2c0-0.4-0.9-2.9-2.2-4.3c-1.3-1.4-1.8-3.3-2.4-4.8
c-0.7-1.4,0-2.5,0-2.5s-0.6-0.6-1.9-1.5c-1.3-0.9-3.6-0.9-3.9-0.6c-0.3,0.3-6,3.9-6,3.9c0,1.3-0.5,1.6-0.5,3.6c0,2-0.2,3.3-0.9,4.2
c-0.8,0.9-1.1,2.9-1.1,4.1c0,1.2-0.3,3.4,2,3.4c2.3,0,3.4,0.3,3.8-0.6c0.4-0.9,4.5-0.6,6.8-0.6c1.2,0,3.1-0.2,4.7-0.5
c0.2,0.8,0.8,1.3,1.5,1.3c0.9,0,1.6-0.9,1.6-2.1C-115.1,458.8-115.8,457.9-116.7,457.8z"/>
<path fill="#E4D3C7" d="M-120,340.6c6.7,4.3,5.3,16.1,3.4,25.8c-0.1,0.8-0.2,8.2-0.2,9.1c-0.4,6.9,0.4,15.4-3,22
c-3.7,7-14.2-0.3-14.7-2.8c-1.3-6-0.4-12.7-0.2-18.5c0-0.8,0.1-8.1,0.1-8.9c0.3-11.2-4.6-12.6-10.2-19.8c-0.6-1-1-1.5-1-1.5
C-136.9,343.3-126.7,336.3-120,340.6z"/>
<path fill="#DBCCC1" d="M-131.7,398.6c0-3,2.4-5.4,5.4-5.4c2.9,0,5.3,2.5,5.2,5.5c0,3-2.3,6.6-5.2,6.6
C-129.3,405.3-131.7,401.6-131.7,398.6z"/>
<ellipse fill="#E4D3C7" cx="-116.7" cy="460.3" rx="1.6" ry="1.7"/>
<ellipse fill="#E4D3C7" cx="-119.5" cy="460.9" rx="1.6" ry="1.7"/>
<ellipse fill="#E4D3C7" cx="-122.7" cy="461.2" rx="2.1" ry="2"/>
<ellipse fill="#E4D3C7" cx="-126.9" cy="460.9" rx="2.4" ry="2.3"/>
<path fill="#E4D3C7" d="M-128.5,460.5c0,1.6-0.6,2.9-3.8,2.9c-1.8,0-3.2-1.3-3.2-2.9c0-1.6,1.4-2.9,3.2-2.9
C-130.5,457.5-128.5,458.8-128.5,460.5z"/>
<path fill="#FFF3EA" d="M-130.3,458.8l0.7,0.9c0.1,0.4-0.9-0.1-2.1-0.1c-1.2,0-2.2,0.7-2.3,0.2l0.6-1
C-132.3,458.5-130.9,458.5-130.3,458.8z"/>
<path fill="#FFF3EA" d="M-126,459.8l0.7,0.5c0.1,0.2-0.4-0.1-1.2-0.1c-0.8,0-1.4,0.2-1.5,0l0.2-0.4
C-127.6,459.8-126.5,459.7-126,459.8z"/>
<path fill="#FFF3EA" d="M-122,460.2l0.5,0.5c0,0.2-0.3,0-0.9,0c-0.6,0-1,0.1-1.1-0.1l0.2-0.4C-123.1,460.2-122.3,460-122,460.2z"/>
<path fill="#FFF3EA" d="M-118.9,460l0.4,0.5c0,0.2-0.2,0.1-0.7,0.1c-0.5,0-0.8-0.1-0.9-0.2l0.1-0.4
C-119.8,460.1-119.2,459.9-118.9,460z"/>
<path fill="#FFF3EA" d="M-116.1,459.8l0.4,0.5c0,0.2-0.2,0.1-0.7,0.1c-0.5,0-0.8-0.1-0.9-0.2l0.1-0.4
C-117,459.8-116.4,459.7-116.1,459.8z"/>
<path fill="#E4D3C7" d="M-146.7,407.8c0,6.1-2.4,13.2-2.4,28.6c0,2.8,0.3,2.7,1.4,5c0.4,1.1-0.3,5.3-1.3,5.6
c-4.7,1.3-5.5,1.9-10.8-0.6c-2-0.9-0.4-3,0.3-4.3c2.1-4.2-0.6-10.4-0.6-15.7c0-2.9-3.2-12.7-3.6-18.2c-0.3-4.7,0.4-13,3.6-18.6
c2.2-3.8,13.9-2.8,11.9,1.3C-150.7,395.4-146.7,396.2-146.7,407.8z"/>
<path fill="#E4D3C7" d="M-165.3,457.8c0.2-0.4-0.2-0.9-0.2-1.2c0-0.4,0.9-2.9,2.2-4.3c1.3-1.4,1.8-3.3,2.4-4.8c0.7-1.4,0-2.5,0-2.5
s0.6-0.6,1.9-1.5c1.3-0.9,3.6-0.9,3.9-0.6c0.3,0.3,6,3.9,6,3.9c0,1.3,0.5,1.6,0.5,3.6c0,2,0.2,3.3,0.9,4.2c0.8,0.9,1.1,2.9,1.1,4.1
c0,1.2,0.3,3.4-2,3.4c-2.3,0-3.4,0.3-3.8-0.6c-0.4-0.9-4.5-0.6-6.8-0.6c-1.2,0-3.1-0.2-4.7-0.5c-0.2,0.8-0.8,1.3-1.5,1.3
c-0.9,0-1.6-0.9-1.6-2.1C-166.9,458.8-166.2,457.9-165.3,457.8z"/>
<path fill="#E4D3C7" d="M-162,340.6c-6.7,4.3-5.3,16.1-3.4,25.8c0.2,1.3,0.2,9.3,0.3,10.8c0.2,6.6-0.2,14.3,3,20.4
c3.7,7,14.2-0.3,14.7-2.8c1.3-5.8,0.4-12.3,0.2-18c0-1-0.1-8.5-0.1-9.4c-0.3-11.2,4.6-12.6,10.2-19.8c0.6-1,1-1.5,1-1.5
C-145.1,343.3-155.3,336.3-162,340.6z"/>
<path fill="#DBCCC1" d="M-150.3,398.6c0-3-2.4-5.4-5.4-5.4c-2.9,0-5.3,2.5-5.2,5.5c0,3,2.3,6.6,5.2,6.6
C-152.8,405.3-150.3,401.6-150.3,398.6z"/>
<ellipse fill="#E4D3C7" cx="-165.3" cy="460.3" rx="1.6" ry="1.7"/>
<ellipse fill="#E4D3C7" cx="-162.5" cy="460.9" rx="1.6" ry="1.7"/>
<ellipse fill="#E4D3C7" cx="-159.3" cy="461.2" rx="2.1" ry="2"/>
<ellipse fill="#E4D3C7" cx="-155.1" cy="460.9" rx="2.4" ry="2.3"/>
<path fill="#E4D3C7" d="M-153.6,460.5c0,1.6,0.6,2.9,3.8,2.9c1.8,0,3.2-1.3,3.2-2.9c0-1.6-1.4-2.9-3.2-2.9
C-151.5,457.5-153.6,458.8-153.6,460.5z"/>
<path fill="#FFF3EA" d="M-151.7,458.8l-0.7,0.9c-0.1,0.4,0.9-0.1,2.1-0.1c1.2,0,2.2,0.7,2.3,0.2l-0.6-1
C-149.7,458.5-151.1,458.5-151.7,458.8z"/>
<path fill="#FFF3EA" d="M-156,459.8l-0.7,0.5c-0.1,0.2,0.4-0.1,1.2-0.1c0.8,0,1.4,0.2,1.5,0l-0.2-0.4
C-154.4,459.8-155.5,459.7-156,459.8z"/>
<path fill="#FFF3EA" d="M-160,460.2l-0.5,0.5c0,0.2,0.3,0,0.9,0c0.6,0,1,0.1,1.1-0.1l-0.2-0.4C-158.9,460.2-159.7,460-160,460.2z"/>
<path fill="#FFF3EA" d="M-163.1,460l-0.4,0.5c0,0.2,0.2,0.1,0.7,0.1c0.5,0,0.8-0.1,0.9-0.2l-0.1-0.4
C-162.2,460.1-162.8,459.9-163.1,460z"/>
<path fill="#FFF3EA" d="M-165.9,459.8l-0.4,0.5c0,0.2,0.2,0.1,0.7,0.1c0.5,0,0.8-0.1,0.9-0.2l-0.1-0.4
C-165,459.8-165.6,459.7-165.9,459.8z"/>
<path fill="#00ADEE" d="M-152.5,341.9c12.3-3.5,26.3-12.8,35.3-6.9c9.1,5.9,5.2,29.1,2.8,39.3c-3.1,4.8-14.4,6.3-21.9,0.7
c0.2-6.1-1.7-14.6-4.7-19.8c-2.8-4.9-6.5-6.5-10.1-11.2C-152,342.6-152.5,341.9-152.5,341.9z"/>
<path fill="#00ADEE" d="M-133.2,342.2c-12.3-3.5-22.6-13.1-31.6-7.2c-9.1,5.9-5.2,29.1-2.8,39.3c3.1,4.8,14.4,6.3,21.9,0.7
c-0.2-6.1,1.7-14.6,4.7-19.8c2.8-4.9,5.7-5,7.9-10.6C-132.7,343.5-133.2,342.2-133.2,342.2z"/>
<path fill="#00ADEE" d="M-131.4,342.2c1.1-3,1.8-6.1,1.8-8.5c0,0-6.5-0.7-10.8-0.7c-4.4,0-13.5,0.8-13.5,0.8c0,2.3,0.7,5.1,1.9,7.9
c2.8,6.7,7.9,13.5,10.9,13.5C-138,355.2-133.8,348.7-131.4,342.2z"/>
</svg>
