<svg version="1.1" xmlns="http://www.w3.org/2000/svg" xmlns:xlink="http://www.w3.org/1999/xlink"
 width="160px" height="160px" viewBox="-219 321 160 160">
<path fill="#67B28E" d="M-119.8,438.3c-2.7,7.2,2.1,18.2,5.7,21.6c1.7,1.6,4.4,2.5,6.7,1.8c5.4-1.6,1.7-5.3,1.6-5.5
c0,0-0.2-0.5-0.6-1.3c-3-7.3-3-7.1-3.9-11.5C-114.7,439-119.4,437.1-119.8,438.3z"/>
<path fill="#67B28E" d="M-130,459.4c0.4,0.4,2.9,1.7,4-0.1c0,0,0.1,0,0.1-0.1c3.5-3,3.2-12.4,2.7-15.4c-0.1-0.9-1.2-1.8-3.5-1.6
c-1.9,0.2-4.3,0.8-4.6,2.5C-132,448.6-134,455.4-130,459.4z"/>
<path fill="#67B28E" d="M-112.5,438.5c-4.4-2.9-8.8-8.3-13.1-7.1c-4.3,1.2-5.7,10.9-5.9,15.2c0.7,2.3,4.9,4.3,8.6,3
c1.3-4.7,5.5-7.5,9.7-10.4C-112.8,438.7-112.5,438.5-112.5,438.5z"/>
<path fill="#67B28E" d="M-109.4,430.9c-5.3,0.4-13.2,2.5-16.5,5.5c-1.7,1.5,2.5,2.5,3,5.8c0.4,2.9,1.4,5.7,2.6,7.3
c0.8,1.1,3,2.6,5.5,4c3.4,1.8,7.2,0.5,9.8,3.8c-0.9-4.8-7-16.9-4.9-21.6C-108.8,433.1-109.4,430.9-109.4,430.9z"/>
<path fill="#FFFFFF" d="M-122.2,365.8c-7.6,0.1-15.2,0.1-22.9,0.1c0-0.6,0-1.9,0-2.6c7.7,0,15.3,0,22.7,0.2L-122.2,365.8z"/>
<path fill="#F09A36" d="M-128,381.4c-1,0.1-4.5,1.2-4.5,1.2s2.7,2.9,2.3,4.7C-130.2,387.3-127.4,380.7-128,381.4z"/>
<path fill="#F09A36" d="M-127.1,379.3c-1,0.1-4.5,1.2-4.5,1.2s2.7,2.9,2.3,4.7C-129.3,385.2-126.5,378.6-127.1,379.3z"/>
<path fill="#F5E0CD" d="M-127.6,412.9c-0.5,3.5-3.5,9.4-6.2,12.4c-1.2,1.4-1.6,1.4-3,0.1c-1-0.9-1.1-1.4-1-1.5c0,0,0.9-1.7,1.2-2.3
c2.2-4.6,2.8-6.4,3.5-10.5C-129.6,407.5-127.5,411.9-127.6,412.9z"/>
<path fill="#00ADEE" d="M-136,413.8c1.9,2,10.4,6,11.1,4.3c1.9-4.7,2.6-6.5,2.5-12.4c-0.1-3.3-0.2-6.4-2-6.9
c-1.8-0.6-4.2,1.2-4.3,1.5c0,0-0.3,0.7-0.8,1.8c-3.7,8.6-1,4-5.6,10.1C-135.7,413.2-136,413.8-136,413.8z"/>
<path fill="#00ADEE" d="M-132.2,435.8c10.8,4.8,23.8,3.4,23.2-11.2c0.2-1.3,0.4-2.6,0.5-4c0.2-1.3,0.3-2.7,0.5-3.9
c0.3-1.9,0.6-3.6,0.6-5.3c0.1-1.6,0-3.1-0.4-4.5c-0.6-2.3-7.3-1-11.6-1.8c-0.8-0.1-3-0.9-3.8-1.1c-0.8-0.2-0.9-0.1-1.1,0
c-0.9,0.3-3.1,3.2-3.7,4.7c-0.9,2-1.4,4.7-1.8,7.5c-0.2,1.4-0.3,2.9-0.5,4.5c0,2.1-0.1,4.1-0.3,6.2c-0.2,2-0.5,4-1,6.1
C-131.9,434.8-132.2,435.8-132.2,435.8z"/>
<path fill="#00ADEE" d="M-122.9,440.1c11.8-1.5,14.1-1.8,14.1-21.6c-0.5-1.2-1-2.5-1.6-3.7c-0.5-1.2-1.1-2.4-1.6-3.6
c-0.7-1.8-1.4-3.4-2.2-4.9c-0.8-1.4-1.7-2.7-2.6-3.6c-1.7-1.6-6.8,2.9-10.8,4.4c-0.8,0.3,0.5,3.4-0.3,3.7c-0.8,0.3-0.8,0.4-1,0.6
c-0.6,0.7-1,4.3-0.7,5.9c0.3,2.2,1.2,4.7,2.4,7.4c0.6,1.3,1.2,2.7,1.9,4c1.1,1.8,2,3.6,2.9,5.4c0.9,1.8-2,1.1-1.3,3.2
C-123.2,439.1-122.9,440.1-122.9,440.1z"/>
<path fill="#00ADEE" d="M-130.8,431.2c11.2,3.8,24,1.2,22-13.3c0.1-1.3,0.1-2.7,0.2-4c0-1.3,0.1-2.7,0.1-4c0.2-1.9,0.2-3.7,0.2-5.3
c-0.1-1.6-0.3-3.1-0.8-4.4c-0.8-2.2-7.4-0.4-11.7-0.7c-0.9-0.1-3.1-0.6-3.9-0.7c-0.8-0.1-0.9,0-1.1,0.1c-0.8,0.3-2.7,3.5-3.2,5
c-0.7,2.1-1,4.8-1.1,7.7c0,1.5-0.1,3,0,4.5c0.2,2.1,0.3,4.1,0.2,6.2c0,2-0.2,4-0.5,6.2C-130.7,430.1-130.8,431.2-130.8,431.2z"/>
<path fill="#F5E0CD" d="M-116.8,399.3c-1.4,0.1-2.9,2.3-3.9,3c-0.8,0.5-2.5,0.4-3.3-0.2c-0.3-0.2-0.6-2.4-0.5-3.1
c0.2-1.5,0.8-3.2,1-4.7c0.2-1.6,0.4-2.9,0.4-2.9s0.5,0.1,1.2,0.2c2,0.4,4.3,0.7,6.3,1C-116.5,394.8-116.5,397.1-116.8,399.3z"/>
<path fill="#F5E0CD" d="M-132,398c-2.3-0.1-4,0.1-6.3-0.1c0.4-0.6,2.6-1.6,1.5-2.8c-0.5-0.5-3.1,1.9-6.2,2.9
c-2.6,0.8-4.3,3.9-3.6,5.4c1.5,0,13,1.8,13.1,0.6c0.1-1.2-3.7-0.7-3.7-0.9c0.2-0.7,4.6,1.1,4.7-0.6c0.1-1.3-2.6,0.1-4.6-1.2
c3.7-0.3,5.4,0.9,5.5-0.5c0.1-1.4-6.2-1.4-5.4-1.3C-134.9,399.2-129.9,400.1-132,398"/>
<path fill="#F5E0CD" d="M-146.3,430c1.2-1.2,2.7-2.2,3.8-3.6c-0.6-0.2-2.4,0.2-2.5-1.1c0-0.6,2.8-0.2,5.1-1.1c0.8-0.3,2-0.2,2.6-0.9
c0.6-0.8,2.4-0.1,3.5,2c-1.5,2.2-2.6,2.8-3.7,3.9c-1.9,1.9-3.5,4.4-4,3.9c-0.7-0.8,1.6-2.3,1.4-2.5c-0.5-0.4-2.2,3.4-3.3,2.3
c-0.8-0.9,1.9-1.6,2.2-3.5c-2.2,1.6-3.1,4.2-3.9,3.3c-0.9-0.9,1.3-2.1,2.8-4.4C-143.5,429-146.2,432.5-146.3,430"/>
<path fill="#67B28E" d="M-165,424.7c4.4,11.7-3.4,29.6-9.3,35.2c-2.8,2.6-7.1,4.1-10.9,3c-8.7-2.6-2.8-8.6-2.6-9
c0,0,0.4-0.7,0.9-2.1c4.8-11.9,4.9-11.6,6.4-18.7C-173.4,425.8-165.7,422.8-165,424.7z"/>
<path fill="#67B28E" d="M-148.5,459.1c-0.7,0.7-4.7,2.8-6.4-0.2c-0.1,0-0.1-0.1-0.2-0.1c-5.7-5-5.2-20.2-4.4-25
c0.2-1.5,2-2.9,5.7-2.5c3,0.3,7,1.3,7.5,4C-145.2,441.4-141.9,452.5-148.5,459.1z"/>
<path fill="#67B28E" d="M-176.9,425c7.2-4.7,14.4-13.5,21.4-11.5c7,2,9.2,17.7,9.7,24.7c-1.1,3.7-8,7-14,4.9
c-2-7.6-8.9-12.2-15.7-17C-176.4,425.4-176.9,425-176.9,425z"/>
<path fill="#67B28E" d="M-181.5,418.8c8.6,0.7,21-2.1,26.4,2.8c2.7,2.5-4.1,4.1-4.9,9.5c-0.7,4.7-2.4,9.3-4.3,11.9
c-1.4,1.8-4.9,4.2-9,6.5c-5.5,3-11.8,0.7-15.9,6.2c1.5-7.8,10.5-27.2,8-35.2C-181.4,419.5-181.5,418.8-181.5,418.8z"/>
<path fill="#F5E0CD" d="M-166.1,399.3c4.4,2.6,13.8,3.9,19.6,4.2c0,0,2.5-1.6,2.5-3.8c0-1.6,0.2-1-0.1-1c0,0-2.9-0.7-3.8-0.8
c-6.5-1.1-9.2-5.9-14.6-8.8C-169.5,390-167.3,398.6-166.1,399.3z"/>
<path fill="#00ADEE" d="M-167.5,398.2c-3.4-8,1.5-20.7,5.4-24.8c1.9-1.9,5.4-3.1,8.1-2.4c6.2,1.6,2.4,6.2,2.3,6.5
c0,0-0.1,0.9-0.4,1.8c-3,8.5-5.6,7.6-6.5,12.6C-163.4,397.3-167,399.6-167.5,398.2z"/>
<path fill="#00ADEE" d="M-175.8,394.1c-2.6-3.3-4-7.1-4.3-14c-0.3-7.1,5.1-12,9.5-12c4.4,0,8.7-0.7,16.6,3
c-1.7,5.7-4.3,23.8-6.9,24.6C-163.1,396.3-175.2,394.8-175.8,394.1z"/>
<path fill="#F5E0CD" d="M-166.1,365.5c-4.6-3.3-7-7.1-7.6-14c-0.6-7.1,6.4-13,14.1-13c7.7,0,13.8,5.7,13.7,12.9
c-0.1,7.2-5.6,14.7-10.2,15.5C-159.9,367.6-165,366.3-166.1,365.5z"/>
<path fill="#808184" d="M-159.7,354.1c-0.5,0.2-0.9,0-1-0.5c-0.1-0.5,0.3-1.2,0.7-1.4c0.5-0.2,0.9,0,1,0.5
C-158.9,353.2-159.3,353.8-159.7,354.1z"/>
<path fill="#808184" d="M-149.9,355.3c-0.4,0.3-0.7,0.1-0.8-0.4c-0.1-0.5,0.1-1.2,0.5-1.5c0.4-0.3,0.7-0.1,0.8,0.4
C-149.3,354.4-149.6,355-149.9,355.3z"/>
<path fill="#AAACAF" d="M-173.5,354c-0.8-2.9-1.3-5.2-0.6-7c0.1-0.3,1.1-0.4,1.2-0.7c0.3-0.7,0.7-2,0.7-2c0.8-1.6,1.2-6.5,3-8.4
c0,0,3.4,0.9,4.2,0.1c1.8-1.8,3.1-3.1,3.1-3.1s2.7,1,3.5,1.9c0.8-0.2,2.6-1.1,4.3-1.9c0,0,2,3.2,3.4,3.5c2,0.5,4.9,0.7,4.9,0.7
s-1,3.4-0.6,4.9c1.6,0.9,4.6,3.1,4.6,3.1s-3.3,3.2-4.1,6.3c0,0-4.8-7.3-18.3-3.6c-3.8,1-5.3,3-6.7,4.9c-1.4,2-0.3,5,0.2,7.8
c-0.9-1.5-1.5-2.9-2-4.2c0,0,0,0,0,0.1C-173.1,355.5-173.4,354.7-173.5,354z"/>
<path fill="#00ADEE" d="M-148.3,420.5c-8.9-19.3-9.9-29.1-5.7-49.4c-0.9,4.4-3.2,10.9-4.8,11c-3.9,0.6-5.1-10.1-11-13.9
c3.3,6.3,3,12.8-1,14.1c-2.4,0.8-6.7,0.1-8,1.8c-0.7-1.8-1.1-7.2-1.3-7.4c-0.1,0.6-0.4,1.4-0.4,2c-0.1,20.3-3.3,31.3-1.8,42.2
c4.7,6.1,23.6,6.3,35,6.2C-147.3,427-146.1,424.6-148.3,420.5z"/>
<path fill="#F5E0CD" d="M-173,401.8c3,4.2,11.5,11.1,17.1,12.2c2.6,0.5,3,0.2,3.6-2.5c0.4-1.9,3.9,0.5,1.1-1.2c0,0-3.5-3.1-4.3-3.7
c-6-4.3-6.3-8-10.1-12.8C-172.4,391.9-173.8,400.6-173,401.8z"/>
<path fill="#F5E0CD" d="M-172.1,402.2c-6.9-5.3-8.9-18.7-7.4-24.2c0.7-2.6,2.7-5.1,5.3-5.8c6.1-1.7,4.8,4.1,4.9,4.3
c0,0,0,0.6,0.2,1.6c1.5,8.8-0.1,9.2,1.6,14c-0.2,1.1,1.5,1.1,2,1.8C-164.3,395.6-171.1,402.9-172.1,402.2z"/>
<path fill="#F5E0CD" d="M-102.9,423.1c-2.6,2.3-8.8,4.8-12.7,5.3c-1.8,0.2-2.1,0-2.4-1.9c-0.2-1.3,0.1-1.7,0.2-1.8
c0,0,1.8-0.7,2.4-1c4.7-2,5.4-4.5,8.7-7.1C-101.8,416.3-102.2,422.4-102.9,423.1z"/>
<path fill="#F5E0CD" d="M-102.9,423.1c2.3-5.5-1-14.3-3.8-17.1c-1.3-1.3-2.9,9.3-2.4,12.8C-105.8,422.4-103.3,424-102.9,423.1z"/>
<path fill="#F5E0CD" d="M-126.4,425.4c0.2-0.3,0.2-0.3,0.7-0.4c0.5-0.1,1-0.1,1.4-0.3c0.3,0.6,0.4,0.7-0.2,0.8
c-0.4,0-0.6-0.1-0.8-0.4c-0.2-0.4,0.2-0.7,0.4-0.9c0.6-0.4,1-1.3,1.7-1c0.8,0.3,1.2,0.4,2.1,0.5c0.6,0.1,1.3,0.9,1.9,1.1
c0.8,0.2,1.1,0.1,1.4,0c0.3-0.1,0.5,0.2,0.8,0.3c0.3,0.3,0.6,0.6,0.7,1c0.3,0.7,0.4,0.9,0.5,1.7c0,0.2,0.1,0.4,0.1,0.7
c-1.4,0.2-2.8,0.5-4.1,0.8c-0.8,0.2-1.7,0.4-2.5,0.6c-0.4,0.1-0.8,0.2-1.2,0.3c-0.3,0.1-0.7,0.2-1,0.1c-0.1,0-0.3-0.2-0.4-0.3
c-0.4-0.5,0.4-0.7,0.2-0.7c-0.6,0.1-0.7-0.2-0.8-0.4c-0.3-0.5,0.2-0.8,0.4-0.9c-0.4,0.1-0.7,0.1-1-0.2c-0.2-0.3-0.3-0.7-0.1-1
c0.1-0.2,0.4-0.3,0.6-0.3c-0.2-0.1-0.4,0.1-0.5,0C-126.9,426-126.5,425.5-126.4,425.4z"/>
<path fill="#F5E0CD" d="M-120.9,398.6c4.3-1.6,7.1-3,9.9-8c2.9-5.2,0.1-11.9-5.3-14.2c-5.3-2.4-11.6,0.2-14.1,5.7
c-2.4,5.5-0.7,11.8-0.1,13.3C-129.9,396.5-123.3,399.5-120.9,398.6z"/>
<path fill="#F09A36" d="M-112,392.4c1.5-2,2.7-3.6,2.9-5.1c0-0.3-0.6-0.6-0.6-0.9c0.1-0.6,0.2-1.7,0.2-1.7c0-1.4,0.4-1.1,0.2-3.2
c0,0-2.6-0.8-2.7-1.8c-0.2-2-0.5-3.4-0.5-3.4s-2.2-0.4-3.2-0.2c-0.4-0.5-1.1-1.9-1.8-3.1c0,0-2.8,1.3-3.8,0.9
c-1.5-0.5-3.4-1.6-3.4-1.6s-1.1,2.8-2,3.6c-1.4-0.1-4.4,0.2-4.4,0.2s1.2,3.4,0.7,6c0,0,6-4.1,14,2.8c2.3,2,2.7,3.9,2.9,5.8
c0.3,1.9-1.5,3.9-2.8,5.9c1.1-0.9,2.1-1.8,2.9-2.6c0,0,0,0,0,0.1C-112.9,393.4-112.4,392.9-112,392.4z"/>
<path fill="#00ADEE" d="M-111.7,418.3c2.7,0.5,11.9-1.5,11.5-3.2c-1.3-4.9-1.8-6.8-5.4-11.4c-2-2.6-2.8-5.1-5.8-4.3
c-0.4,0.1-2.7,3.5-2.6,3.8c0,0,0.2,0.7,0.5,2c2.2,9.1,1.6,3.8,1.6,11.4C-111.9,417.7-111.7,418.3-111.7,418.3z"/>
<path fill="#00ADEE" d="M-164.2,390.7c-2.9,2.1-14.9,5.1-15.4,2.7c-1.3-6.6-4-9.5-2.4-17c0.9-4.2,3.9-6.3,7.8-7
c0.6-0.1,3.9,1.7,4,2.2c0,0,1,0.8,1.3,2.4c2.6,12-0.5,5.5,3.9,14.5C-164.4,389.9-164.2,390.7-164.2,390.7z"/>
<path fill="#808184" d="M-124.6,388.7c0.2,0.4,0.5,0.4,0.8,0.1c0.3-0.3,0.4-0.8,0.2-1.2c-0.2-0.4-0.5-0.4-0.8-0.1
C-124.7,387.8-124.8,388.3-124.6,388.7z"/>
<path fill="#808184" d="M-129.8,387.5c0.1,0.3,0.4,0.3,0.7,0c0.2-0.3,0.3-0.8,0.2-1.2c-0.1-0.3-0.5-0.3-0.7,0
C-129.9,386.6-130,387.1-129.8,387.5z"/>
<path fill="#F5E0CD" d="M-135.8,409c-2.4-0.4-5.1-0.3-7.5-0.9c0.5-0.8,3.1-1.8,2.1-3.4c-0.4-0.7-3.6,2.1-7.1,3
c-1.2,0.3-2.5,1.5-3.9,1.1c-1.4-0.4-3,2-2.8,5.2c3.6,1.3,5.4,1,7.6,1.4c3.9,0.6,7.8,2.2,8,1.2c0.3-1.5-3.8-1.3-3.7-1.6
c0.3-0.9,5.5,2.1,5.9-0.1c0.3-1.7-3.6-0.2-5.4-2.2c4,0,7,2.2,7.4,0.5c0.4-1.8-3.2-1.4-6.9-2.8C-140,410.2-134,412-135.8,409"/>
<path fill="#F09A36" d="M-116.3,382.6c-0.5,0.9-1.7,4.4-1.7,4.4s4-0.5,5.2,0.8C-112.7,387.8-116.5,381.7-116.3,382.6z"/>
</svg>
