<svg version="1.1" xmlns="http://www.w3.org/2000/svg" xmlns:xlink="http://www.w3.org/1999/xlink"
 width="160px" height="160px" viewBox="-219 321 160 160">
<path fill="#8BBE9D" d="M-98.5,450.4c-5.5,0-11.2,0-16.3,2c-24.6,8.7-56.9,16.9-73.9-9.7c-2.1-3.1-3.1-6.2-2.1-9.7
c3.9-12.6,6.4-25.1,8.3-37.8c0.3-1.8,0.5-3.6,0.8-5.5c2.2-13.1,0.7-25.9,1.2-39.3c0.5-11.8,14.4-16.4,25.1-13.8
c15.9,4.1,30.3,10.3,46,9.8c1.9,0.2,3.6,0.4,4.8,0.7c1.2,0.3,2,0.7,2,1.3c3.3,16.7,4.7,33.2,5.2,49.7c0.1,2.1,0.1,4.1,0.1,6.2
c0.4,14.3-0.7,29.2-1.3,43.5C-98.5,449.4-98.5,450.4-98.5,450.4z"/>
<path fill="#EEEEEE" d="M-101.5,446.6c0,0-5.4,0-13,0c-1.3,0-2.6,0-4,0c-1.8,0-3.6,0-5.4,0c-1.8,0-3.6,0-5.4-0.1
c-11.3-1.3-28.7,2.8-30.2-0.3c-10.8-29.2-4.1-64.1-2.1-96.9c19.5,0,39-0.5,58.5,2.6c-1,20.5,2.1,41,1.4,61.3c0,1.8,0,3.6,0,5.5
c0,1.8,0,3.7,0.1,5.5c0,1.3,0,2.6,0,3.8C-101.5,438.9-101.5,446.6-101.5,446.6z"/>
<path fill="#E4D3C7" d="M-130.7,451.7c-1.2,1.9-0.5,1.7-2,2.1c-2.8,0.6-5.8-0.8-7.8-1.4c-1.5-0.4-4.1,1.1-5.2-1.7
c-1.3-3.3,2.9-2.6,3.1-2.6c0,0,1.4,0.1,2,0c0.6-0.1,1.6-0.2,2.4-0.5C-134.1,448.5-130.2,451-130.7,451.7z"/>
<path fill="#E4D3C7" d="M-182.5,431.2c-1.7-1-1.5-0.4-1.8-1.7c-0.5-2.4,0.7-5.1,1.2-6.8c0.4-1.3-1-3.6,1.5-4.5
c2.9-1.1,2.3,2.6,2.3,2.7c0,0,0,1.2,0,1.8c0.1,0.6,0.2,1.4,0.4,2.1C-179.7,428.3-181.8,431.7-182.5,431.2z"/>
<path fill="#E4D3C7" d="M-145.4,436.1c0.5,3.9,1.8,8.1,0.7,11.7c-0.2,0.6,0.4,3,1,3.1c2.7,0.6,3.2,0.9,6-0.7
c1.1-0.6,0.1-1.7-0.3-2.4c-1.3-2.3-0.9-3.4-1-5.9c-0.1-1.4-0.2-7.7,0.3-9c0.6-1.9,0.4-5-1.4-7.6c-1.2-1.8-6.1,1-5.6,3.1
C-145.3,430.6-145.9,432.6-145.4,436.1z"/>
<path fill="#E4D3C7" d="M-170,420.4c-3.8-1-5.8-0.1-8.2-2.1c-0.4-0.3-2.4-0.6-2.7-0.2c-1.3,1.9-1.6,2.2-1.3,4.9
c0.1,1,1.3,0.6,1.9,0.5c2.2-0.3,2.9,0.4,4.9,1.1c1.1,0.4,4.9,2.3,6,3.2c1.6,1.3,4.5,2.2,7.6,1.6c2.1-0.4,1.4-6-0.8-6.4
C-164.9,422.6-166.6,421.3-170,420.4z"/>
<path fill="#5CBBE5" d="M-150.3,413.1c0.2,6.8-6.9,14.7-11,16.6c-1.9,0.9-4.4,0.9-6.2-0.4c-4.1-2.9,0.1-4.9,0.2-5.1
c0,0,0.3-0.3,0.9-0.9c4.6-5.3,5.8-4.7,7.8-8.1C-153.7,412.6-150.4,412-150.3,413.1z"/>
<path fill="#5CBBE5" d="M-140.3,432.7c-0.3,0.4-2.2,1.9-3.3,0.4c0,0-0.1,0-0.1,0c-3.3-2.2-4.3-10.5-4.2-13.2c0-0.8,0.8-1.7,2.7-1.8
c1.6-0.1,3.6,0.2,4.1,1.6C-140,422.9-137.4,428.7-140.3,432.7z"/>
<path fill="#5CBBE5" d="M-157.4,413.3c3.9-2.6,7.8-7.4,11.7-6.3c3.8,1.1,5,9.7,5.3,13.5c-0.6,2-4.4,3.8-7.6,2.7
c-1.1-4.2-4.9-6.7-8.6-9.3C-157.1,413.5-157.4,413.3-157.4,413.3z"/>
<path fill="#5CBBE5" d="M-157.8,407.2c4.3,1.8,11.2,2.6,13.2,6.1c1,1.7-2.8,1.4-4.2,4c-1.2,2.3-2.8,4.4-4.3,5.4
c-2.4,1.6-6.6-2.1-10.3-2.8c2.1-3.7,5.4-7.2,5.5-11.8C-157.9,407.5-157.8,407.2-157.8,407.2z"/>
<path fill="#E4D3C7" d="M-137.2,404.6c2.7,0.8,7.8,0.1,10.9-0.6c0,0,1.1-1.2,0.8-2.3c-0.2-0.8-0.5-1-0.6-1c0,0-1.2,0.5-1.7,0.5
c-3.6,0.3-5.7-1.8-8.9-2.6C-140.3,400.2-138,404.4-137.2,404.6z"/>
<path fill="#E4D3C7" d="M-137.2,404.6c-3.6-3.1-4.2-10.5-3.2-13.5c0.5-1.4,1.9-2.8,3.4-3.1c3.4-0.7,2.7,2.5,2.7,2.7
c0,0,0.1,0.5,0.2,1c0.5,4.9-1,5.1-0.2,7.7C-135.4,403.2-136.6,405.1-137.2,404.6z"/>
<path fill="#E4D3C7" d="M-119.6,398.2c-0.2-0.1-0.3-0.2-0.6-0.1c-0.4,0.1-0.7,0.2-1.1,0.3c0,0.5,0,0.7,0.4,0.5
c0.3-0.1,0.4-0.3,0.5-0.6c0-0.3-0.4-0.4-0.6-0.5c-0.6-0.1-1.2-0.6-1.6-0.1c-0.5,0.5-1.1,1.7-1.6,2c-0.4,0.3-0.7,0.5-1.1,0.7
c-0.2,0.1-0.4,0.2-0.7,0.4c-0.2,0.1-0.3,0.3-0.4,0.4c-0.2,0.3-0.2,0.5-0.2,0.8c0,0.5,0.1,0.9,0.3,1.5c0.1,0.2,0.1,0.3,0.2,0.5
c1.1-0.3,2.2-0.6,3.2-0.8c0.7-0.1,1.3-0.3,2-0.4c0.3-0.1,0.6-0.1,0.9-0.2c0.2,0,0.5-0.1,0.8-0.2c0.1-0.1,0.2-0.2,0.2-0.3
c0.1-0.5-0.5-0.4-0.4-0.4c0.4-0.1,0.4-0.4,0.4-0.6c0-0.5-0.4-0.5-0.6-0.5c0.3-0.1,0.6-0.2,0.6-0.5c0.1-0.3,0-0.6-0.3-0.7
c-0.2-0.1-0.3-0.1-0.5-0.1c0.1-0.1,0.3-0.1,0.4-0.2C-119.1,398.5-119.5,398.3-119.6,398.2z"/>
<path fill="#E4D3C7" d="M-140,382.5c-2.8-1.4-4.4-3.3-5.2-6.9c-0.9-3.8,2.5-7.5,6.6-8.2c4.2-0.6,7.9,2,8.4,5.9
c0.5,3.9-1.8,8.4-4.3,9.2C-136.5,383.2-139.3,382.9-140,382.5z"/>
<path fill="#808184" d="M-137.4,375.9c-0.2,0.2-0.5,0.1-0.6-0.2c-0.1-0.3,0-0.7,0.3-0.8c0.2-0.2,0.5-0.1,0.6,0.2
C-137.1,375.3-137.2,375.7-137.4,375.9z"/>
<path fill="#808184" d="M-132,375.7c-0.2,0.2-0.4,0.1-0.5-0.2c-0.1-0.3,0-0.7,0.2-0.8c0.2-0.2,0.4-0.1,0.5,0.2
C-131.8,375.2-131.9,375.6-132,375.7z"/>
<path fill="#888888" d="M-130.3,372.9c-0.7-3.6-4.4-6.1-8.3-5.5c-4.2,0.6-7.5,4.4-6.6,8.2c0.5,1.9,1.1,3.3,2,4.5
c-0.5-1.4-1.2-2.9-0.6-4.1c0.6-1.2,1.3-2.4,3.3-3.3C-134.5,370-131.3,372.1-130.3,372.9z"/>
<path fill="#808184" d="M-133.7,378.3c0,0,0.2-0.9-0.2-0.7c-0.4,0.2-1.2,0.7-1.2,0.7L-133.7,378.3z"/>
<path fill="#5CBBE5" d="M-134.9,388.3c-0.2,0.4-0.5,0.9-0.9,1.3C-135.4,389.1-135.1,388.7-134.9,388.3c-3.4-3.3-5.8-3.7-8-4.5
c-2-0.7-5,0.4-6.5,3.2c0-0.2,0.1-0.4,0-0.4c-0.2,0.3-0.5,0.6-0.5,1c-3.7,10.5-7.2,15.6-8.4,21.5c1.3,4,11.1,7.4,17,9.4
c0,0,1.1-1.1,0.7-3.6C-141.9,403.3-140.7,398-134.9,388.3z"/>
<path fill="#E4D3C7" d="M-158.8,389.1c-2,1.9-4.3,6.7-5,9.7c-0.3,1.4-0.1,1.6,1.3,2c1.1,0.3,1.4,0.1,1.5-0.1c0,0,0.7-1.4,0.9-1.9
c1.9-3.6,3.9-4,6.1-6.4C-153.3,388.7-158.2,388.6-158.8,389.1z"/>
<path fill="#E4D3C7" d="M-159.1,390.3c2.1-4.3,9.1-6.8,12.2-6.6c1.4,0.1,3,0.9,3.7,2.2c1.6,3.1-1.6,3-1.8,3.1c0,0-0.3,0.1-0.8,0.3
c-4.6,1.8-5.6,1.8-8,3.3C-157.8,392.5-159.5,391-159.1,390.3z"/>
<path fill="#E4D3C7" d="M-162,407.6c0.2-0.1,0.3-0.1,0.4-0.5c0.1-0.4,0.2-0.8,0.3-1.1c-0.5-0.3-0.5-0.4-0.6,0.1c0,0.3,0,0.5,0.3,0.7
c0.3,0.2,0.6-0.1,0.7-0.3c0.4-0.5,1.1-0.7,0.9-1.3c-0.2-0.6-0.2-1-0.3-1.7c0-0.5-0.6-1.1-0.7-1.6c-0.1-0.6,0-0.9,0.1-1.1
c0.1-0.2-0.1-0.4-0.2-0.6c-0.2-0.3-0.5-0.5-0.8-0.6c-0.6-0.3-0.7-0.4-1.3-0.5c-0.2,0-0.3-0.1-0.5-0.1c-0.2,1.1-0.6,2.2-0.9,3.2
c-0.2,0.7-0.4,1.3-0.6,2c-0.1,0.3-0.2,0.6-0.3,0.9c-0.1,0.2-0.2,0.5-0.2,0.8c0,0.1,0.1,0.3,0.2,0.3c0.4,0.3,0.6-0.3,0.5-0.1
c-0.1,0.4,0.1,0.6,0.3,0.7c0.4,0.3,0.7-0.1,0.8-0.3c-0.1,0.3-0.1,0.6,0.1,0.8c0.2,0.2,0.5,0.3,0.8,0.1c0.1-0.1,0.2-0.3,0.3-0.4
c0,0.1-0.1,0.3,0,0.4C-162.6,407.9-162.1,407.6-162,407.6z"/>
<path fill="#5CBBE5" d="M-142.9,385.9c1.7,3.3-1.8,3.2-1.9,3.3c0,0-0.3,0.1-0.9,0.3c-1.5,0.6-2.6,0.9-3.4,1.1c0-0.1,0-0.3,0.1-0.4
c0.2-2.4,0.3-4.9-2.9-5.7c2-0.7,3.8-1.1,5.1-1C-145.3,383.6-143.6,384.5-142.9,385.9z"/>
</svg>
