<?xml version="1.0" encoding="utf-8"?>
<!DOCTYPE svg PUBLIC "-//W3C//DTD SVG 1.1//EN" "http://www.w3.org/Graphics/SVG/1.1/DTD/svg11.dtd">
<svg version="1.1" xmlns="http://www.w3.org/2000/svg" xmlns:xlink="http://www.w3.org/1999/xlink" x="0px" y="0px" width="160px"
  height="160px" viewBox="0 0 160 160" enable-background="new 0 0 160 160" xml:space="preserve">
  <polygon fill="#CE9D77" points="138.92993,120.35669 46.96382,120.35669 21.88178,89.00407 21.88178,80.64413 138.92993,111.99675"/>
  <polygon fill="#F5E0CD" points="138.92993,111.99675 46.96382,111.99675 21.88178,80.64413 113.84783,80.64413"/>
  <path fill="#9ABB6C" d="M25.23418,75.84561c0,2.23961-1.37339,1.34521-2.86409,2.87347
    c-1.75839,1.80767-3.4839,5.36903-2.09643,7.82938c1.23719,2.19266,4.28208,2.9439,6.57335,2.25372
    c0.75124-0.22771,3.60362-2.82185,4.06844-2.64816c0.94607,0.35218,0.37795,7.02879,0.43433,7.91388
    c0.11972,1.88279-0.01412,5.60144,2.45794,5.63197c0.73014,0.00938,1.23956-0.45074,2.02366-0.24418
    c1.00949,0.26997,1.78423,1.3288,2.48613,2.03069c1.81945,1.82648,3.85952,3.65296,6.53346,2.33595
    c1.75839-0.86633,2.96506-2.52376,4.74696-3.40175c1.99781-0.98364,4.6741-2.39928,6.91143-2.52603
    c3.02605-0.16906,2.57296,2.87347,1.75129,4.90651c-0.61976,1.53301-3.08948,3.81258-2.95568,5.50053
    c0.15025,1.86163,2.82423,2.46263,4.27738,2.44622c2.84534-0.02584,5.49117-1.61752,8.37868-1.05408
    c1.35458,0.26294,4.07552,2.75375,5.29391,2.01423c1.88988-1.14796-0.11269-3.88061,1.73963-5.09197
    c1.99548-1.30296,5.42066,0.84043,7.55232,0.24178c2.33356-0.6573-0.4202-4.95819,0.88503-6.56158
    c3.21628-3.94167,11.34844,4.00034,11.98231,7.03818c0.35452,1.69498-0.43428,3.57308,0.77943,5.03098
    c1.13156,1.35458,3.14349,1.70905,4.80795,1.51655c4.90423-0.57047,7.65798-5.94419,9.77318-9.79662
    c3.00965-5.48406,7.77301-6.47949,13.25238-3.90646c5.36201,2.519,11.24044,5.08025,17.07668,6.24937
    c2.41101,0.48596,5.26338,0.19719,3.66228-2.99793c-3.06363-6.12965,3.06839-9.19568-3.06363-9.19568
    c-6.1297,0-6.1297-3.06363-12.25935,0c-6.12731,3.06602-9.19568-15.32533-9.19568-15.32533s-88.88126-6.12965-91.94724-6.12965
    C25.23652,72.77959,25.23418,69.71597,25.23418,75.84561z"/>
  <path fill="#ED1E3D" d="M60.72332,59.32767c-17.73399,0-32.39967,5.90428-35.11821,13.62566h-0.49534V75.531
    c0,8.94687,15.94508,16.20338,35.61354,16.20338c19.67551,0,35.62057-7.25651,35.62057-16.20338
    C96.34389,66.58184,80.39883,59.32767,60.72332,59.32767z"/>
  <path fill="#F0646E" d="M96.34389,72.95333c0,8.94681-15.94506,16.20098-35.62057,16.20098
    c-19.66847,0-35.61354-7.25417-35.61354-16.20098c0-8.94921,15.94508-16.20338,35.61354-16.20338
    C80.39883,56.74995,96.34389,64.00412,96.34389,72.95333z"/>
  <path fill="#ED1E3D" d="M64.7894,82.81335c-0.83808,8.90456,14.35341,17.8138,33.92326,19.90321
    c19.57453,2.08473,36.11597-3.44399,36.95173-12.34621c0.83807-8.90456-14.35107-17.8138-33.92326-19.89847
    C82.16893,68.38248,65.62514,73.90879,64.7894,82.81335z"/>
  <path fill="#F0646E" d="M65.02884,80.24741c-0.83339,8.90456,14.3534,17.81615,33.928,19.90087
    c19.56985,2.08936,36.11356-3.4393,36.95165-12.34152c0.83348-8.9069-14.35574-17.8138-33.92558-19.90087
    C82.40836,65.81654,65.86464,71.3452,65.02884,80.24741z"/>
  <path fill="#ED1E3D" d="M29.19695,82.49644c-0.83809,8.90222,14.35346,17.81146,33.92332,19.90088
    c19.57452,2.08701,36.11825-3.44399,36.95164-12.34386c0.83582-8.90456-14.34872-17.81615-33.92324-19.90087
    C46.57648,68.06323,30.03275,73.58955,29.19695,82.49644z"/>
  <path fill="#F0646E" d="M29.4388,79.93045c-0.83575,8.90221,14.35105,17.81386,33.92558,19.89853
    c19.56985,2.08941,36.11359-3.4369,36.94937-12.34146c0.83809-8.90456-14.3534-17.81387-33.92325-19.89853
    C46.81593,65.49957,30.27219,71.02589,29.4388,79.93045z"/>
  <path fill="#F8DB88" d="M130.79536,79.76379c-4.08723-5.75169-11.61137-7.35514-17.99224-8.96094
    c-8.31059-2.0917-16.43338-3.07066-24.95998-3.73974c-8.9539-0.70665-17.87955-1.49311-26.81699-2.36407
    c-5.24462-0.5118-11.0456-1.76542-16.29257-1.13858c-5.46766,0.65262-11.79215,6.9654-11.494,12.90958
    c0.16197,3.23034,3.36887,4.60841,5.60612,6.42078c3.05431,2.47675,4.96997,5.79868,7.77301,8.46559
    c3.10828,2.96272,6.39968,2.59647,10.38594,1.85929c5.50516-1.02121,10.54082-1.69967,16.13758-0.91087
    c6.30574,0.88743,12.05274,1.85226,18.38667,0.4249c5.95121-1.33811,12.30389-5.12954,18.53686-4.51448
    c5.03566,0.50002,8.17681,5.18826,13.06223,5.9184C131.09352,95.32387,135.00232,85.69626,130.79536,79.76379z"/>
  <linearGradient id="SVGID_1_" gradientUnits="userSpaceOnUse" x1="21.88178" y1="70.06337" x2="138.92993" y2="70.06337">
    <stop  offset="0" style="stop-color:#B08774"/>
    <stop  offset="0.42697" style="stop-color:#CE9D77"/>
    <stop  offset="1" style="stop-color:#DEB18A"/>
  </linearGradient>
  <polygon fill="url(#SVGID_1_)" points="138.92993,89.91962 46.96382,89.91962 21.88178,58.56705 21.88178,50.20712
    138.92993,81.55974"/>
  <linearGradient id="SVGID_2_" gradientUnits="userSpaceOnUse" x1="21.88178" y1="65.88343" x2="138.92993" y2="65.88343">
    <stop  offset="0" style="stop-color:#F2E7DC"/>
    <stop  offset="0.42697" style="stop-color:#F2D7BF"/>
    <stop  offset="0.79214" style="stop-color:#F5E0CD"/>
    <stop  offset="1" style="stop-color:#F0D0B3"/>
  </linearGradient>
  <polygon fill="url(#SVGID_2_)" points="138.92993,81.55974 46.96382,81.55974 21.88178,50.20712 113.84783,50.20712"/>
  <polygon fill="#2E86C7" points="80.82374,24.16253 93.08303,30.29218 80.82607,36.42183"/>
  <rect x="79.51249" y="24.16254" fill="#CE9D77" width="1.3112" height="40.78185"/>

</svg>
