<svg version="1.1" xmlns="http://www.w3.org/2000/svg" xmlns:xlink="http://www.w3.org/1999/xlink" width="160px"
  height="160px" viewBox="0 0 160 160" >
  <polygon fill="#A4DBDF" points="59.86741,29.44716 68.13739,21.17486 68.13739,24.41783 71.22997,24.41306 71.22997,27.32651
    74.35592,27.32651 74.35592,30.31161 77.23122,30.31161 77.23122,33.35883 80.50048,33.35883 73.0974,40.76668"/>
  <path fill="#FFFFFF" d="M61.13548,30.18262l5.16065-5.16298l1.54757-0.16237l-6.15177,6.15165L61.13548,30.18262z
     M63.28718,32.60418l6.15409-6.15165l-1.54745,0.16238l-5.16065,5.16774L63.28718,32.60418z M64.88477,34.19943l6.15177-6.15177
    l-1.54513,0.16727l-5.16065,5.16297L64.88477,34.19943z M66.48247,35.80423l6.15165-6.15177l-1.54269,0.1625l-5.16541,5.1582
    L66.48247,35.80423z M68.07772,37.39948l6.1541-6.15177l-1.54758,0.15761l-5.16064,5.16786L68.07772,37.39948z M69.68007,38.99951
    l6.15177-6.15177l-1.54513,0.16238l-5.16541,5.15833L69.68007,38.99951z M71.27777,40.59953l6.15165-6.15654l-1.54745,0.16238
    l-5.16309,5.15833L71.27777,40.59953z"/>
  <path fill="#A6A8AB" d="M68.53623,32.37015c4.23164,4.23164,7.66572,7.66572,2.55043,12.77624
    c-5.10807,5.11052-8.54215,1.68121-12.77391-2.55043c-4.23641-4.23653-7.67526-7.67061-2.55997-12.78101
    C60.86807,24.69489,64.2997,28.13374,68.53623,32.37015z"/>
  <path fill="#A6A8AB" d="M99.06792,62.89462c4.2364,4.23653,7.66572,7.67061,2.5552,12.7859
    c-5.11529,5.11052-8.54937,1.68121-12.78345-2.55532c-4.23641-4.23641-7.66572-7.66572-2.5552-12.78101
    C91.40207,55.2289,94.83138,58.6582,99.06792,62.89462z"/>
  <path fill="#A6A8AB" d="M138.54535,104.58111c3.3194,3.32416,6.01802,6.01801,2.00597,10.02993
    c-4.0096,4.01205-6.70332,1.31343-10.0276-2.00596c-3.32416-3.32428-6.01789-6.01801-2.00829-10.02993
    C132.52734,98.5631,135.22108,101.25684,138.54535,104.58111z"/>
  <polygon fill="#A6A8AB" points="138.54535,104.58111 130.52371,112.60508 88.55795,72.83871 98.78131,62.61291"/>
  <rect x="76.02393" y="39.68572" transform="matrix(0.70729 -0.70692 0.70692 0.70729 -14.45957 71.56281)" fill="#A6A8AB" width="6.32397" height="27.1127"/>
  <path fill="#9B5C40" d="M41.82342,78.05784l51.26926,38.61706c1.81573,1.36765,2.17906,3.94823,0.81155,5.76405l-6.45601,8.57253
    L29.60167,87.44426l6.45719-8.5747C37.42648,77.05345,40.00746,76.69002,41.82342,78.05784z"/>
  <rect x="23.38244" y="106.03548" transform="matrix(-0.79876 -0.60165 0.60165 -0.79876 42.32669 229.77831)" fill="#754C24" width="72.41823" height="3.54988"/>
  <path fill="#9B5C40" d="M88.87931,127.6445l0.70396,0.53137l-4.20039,5.57886l-0.70397-0.53137L88.87931,127.6445z
     M83.04655,131.99255l0.70396,0.53137l4.19903-5.57599l-0.7011-0.53137L83.04655,131.99255z M81.41418,130.7646l0.70547,0.53139
    l4.19753-5.57599l-0.70397-0.53138L81.41418,130.7646z M79.78333,129.53667l0.7011,0.52835l4.20039-5.57598l-0.70397-0.53123
    L79.78333,129.53667z M78.14809,128.30569l0.70548,0.53139l4.20039-5.57886l-0.70548-0.53138L78.14809,128.30569z
     M76.51723,127.07187l0.70246,0.53425l4.19903-5.57584l-0.69958-0.53425L76.51723,127.07187z M74.88335,125.84393l0.70412,0.53425
    l4.19888-5.57584l-0.7011-0.53425L74.88335,125.84393z M73.25114,124.61598l0.70396,0.52836l4.19888-5.57584l-0.70397-0.53138
    L73.25114,124.61598z M71.61726,123.38517l0.70547,0.53123l4.19888-5.57886l-0.70246-0.53123L71.61726,123.38517z
     M69.98353,122.15421l0.70684,0.53138l4.19903-5.57599l-0.70412-0.53122L69.98353,122.15421z M68.35403,120.92627l0.70261,0.53137
    l4.20039-5.57598l-0.7011-0.53123L68.35403,120.92627z M66.7203,119.69833l0.70246,0.52836l4.20039-5.57584l-0.70245-0.53138
    L66.7203,119.69833z M65.08945,118.46751l0.70094,0.53123l4.2019-5.57886l-0.70397-0.53123L65.08945,118.46751z
     M63.45406,117.23655l0.70412,0.53138l4.19888-5.57599l-0.7011-0.53123L63.45406,117.23655z M61.82471,116.00574l0.70261,0.53425
    l4.19888-5.57598l-0.70261-0.53425L61.82471,116.00574z M60.19098,114.77779l0.70095,0.52836l4.20039-5.57296l-0.70245-0.53426
    L60.19098,114.77779z M58.5571,113.54684l0.70397,0.53137l4.2019-5.57886l-0.70699-0.53137L58.5571,113.54684z M56.92473,112.31602
    l0.70261,0.53123l4.20175-5.57583l-0.70397-0.53138L56.92473,112.31602z M55.29251,111.08808l0.70397,0.53123l4.19888-5.57584
    l-0.70397-0.53138L55.29251,111.08808z M53.66015,109.86014l0.70095,0.52836l4.2019-5.57599l-0.70397-0.53123L53.66015,109.86014z
     M52.02476,108.62917l0.70699,0.53138l4.19888-5.57886l-0.70397-0.53138L52.02476,108.62917z M50.3939,107.39836l0.70412,0.53123
    l4.20175-5.57584l-0.70684-0.53137L50.3939,107.39836z M48.76168,106.17043l0.70397,0.53122l4.19888-5.57583l-0.7011-0.53138
    L48.76168,106.17043z M47.12931,104.93946l0.70397,0.53137l4.19888-5.57598l-0.70397-0.53425L47.12931,104.93946z
     M45.49695,103.7085l0.70261,0.5344l4.20024-5.58188l-0.70246-0.53138L45.49695,103.7085z M43.86171,102.47768l0.70699,0.53137
    l4.19888-5.57598l-0.70397-0.53138L43.86171,102.47768z M42.23236,101.24974l0.70246,0.53138l4.19888-5.57599l-0.7011-0.53137
    L42.23236,101.24974z M40.59848,100.0218l0.70397,0.52836l4.19888-5.57584l-0.70397-0.53138L40.59848,100.0218z M38.96763,98.79084
    l0.7011,0.53137l4.20175-5.57886l-0.70397-0.53137L38.96763,98.79084z M37.33239,97.5629l0.70397,0.5285l4.20039-5.57598
    l-0.70261-0.53138L37.33239,97.5629z M35.70153,96.33208l0.70397,0.52835l4.19737-5.57598l-0.70095-0.52836L35.70153,96.33208z
     M34.06765,95.10414l0.70261,0.52836l4.20024-5.57599l-0.70246-0.52835L34.06765,95.10414z M32.43679,93.87318l0.7011,0.52548
    l4.19888-5.57296l-0.70246-0.53138L32.43679,93.87318z M30.80307,92.64236l0.70246,0.52836l4.2019-5.57599l-0.70548-0.53123
    L30.80307,92.64236z M29.16919,91.4114l0.70397,0.52836l4.19888-5.57584l-0.70095-0.52835L29.16919,91.4114z M27.53833,90.18346
    l0.70246,0.52835l4.20039-5.57584l-0.70397-0.52835L27.53833,90.18346z"/>

</svg>
