<?xml version="1.0" encoding="utf-8"?>
<!DOCTYPE svg PUBLIC "-//W3C//DTD SVG 1.1//EN" "http://www.w3.org/Graphics/SVG/1.1/DTD/svg11.dtd">
<svg version="1.1" xmlns="http://www.w3.org/2000/svg" xmlns:xlink="http://www.w3.org/1999/xlink" x="0px" y="0px" width="160px"
  height="160px" viewBox="0 0 160 160" enable-background="new 0 0 160 160" xml:space="preserve">
  <path fill="#C4D6E5" d="M117.28133,118.84206c-1.30494-0.36731-2.82523-0.57808-4.45676-0.57808
    c-1.62696,0-3.15241,0.21077-4.45286,0.57808h-4.22977v3.47515c0,2.23225,3.88637,4.04549,8.68262,4.04549
    c4.79559,0,8.68196-1.81323,8.68196-4.04549v-3.47515H117.28133z"/>
  <ellipse fill="#FFFFFF" cx="112.82422" cy="118.84204" rx="8.68229" ry="4.05065"/>
  <path fill="none" stroke="#C4D6E5" d="M106.66199,116.68616c2.55619-0.38803,9.27686,1.46142,12.22625,3.6303"/>
  <rect x="59.59521" y="18.88426" fill="#A6A8AB" width="38.92212" height="9.21488"/>
  <path fill="#9B7761" d="M105.63438,51.07469c0.00775-3.60183-1.98261-6.52864-4.44444-6.54022l0,0h-4.60615
    c-1.21827-0.3091-2.14299-1.3709-2.14299-2.69267c0-1.3709,0.99518-2.46117,2.29237-2.72246l4.41538,0.01165l0,0h0.0045
    c2.46633,0.00517,1.26356-4.18256,1.27197-9.37128c0.00842-5.1888-1.74337-4.82533-3.90768-4.82924
    c-0.30526,0-38.6046-0.11509-38.92212-0.11509c-2.17345,0-3.94073-0.37638-3.94523,4.81242
    c-0.01232,5.1784-1.22674,9.38035,1.23509,9.3842l0,0l3.86246,0.01165c1.53578,0.02847,2.77934,1.27263,2.77934,2.81815
    c0,1.32177-0.92472,2.38356-2.14756,2.69267h-4.60615v0.02582c-2.39906,0.11383-4.32479,2.97336-4.32929,6.5144v71.66225l0,0
    c-0.00325,3.53846,1.92573,6.40832,4.32929,6.50791v0.04271h44.41677v-0.0298c2.45726-0.02066,4.44444-2.92416,4.44444-6.52082
    V51.07469L105.63438,51.07469z"/>
  <path fill="#D0D2D3" d="M102.25948,57.62531c0.00457-2.94614-1.66444-5.33619-3.72532-5.34136l0,0H61.34958v0.0155
    c-2.01175,0.09701-3.62189,2.43276-3.62646,5.32586v58.55842l0,0c-0.00451,2.89185,1.61471,5.23792,3.62646,5.32069v0.03358
    h37.18457v-0.02457c2.05631-0.01808,3.72532-2.38741,3.72532-5.3297V57.62531L102.25948,57.62531z"/>
  <path fill="#F1F1F2" d="M101.30568,57.62531c0.00451-2.94614-1.6606-5.33619-3.72539-5.34136l0,0H60.39638v0.0155
    c-2.00784,0.09701-3.62321,2.43276-3.62706,5.32586v58.55842l0,0c-0.0045,2.89185,1.61921,5.23792,3.62706,5.32069v0.03358
    h37.18391v-0.02457c2.06029-0.01808,3.72539-2.38741,3.72539-5.3297V57.62531L101.30568,57.62531z"/>
  <rect x="61.00293" y="57.61108" fill="#E5E2B6" width="37.5144" height="11.65015"/>
  <rect x="61.0029" y="72.11938" fill="#D0D2D3" width="31.44293" height="2.38356"/>
  <rect x="61.0029" y="77.04565" fill="#D0D2D3" width="31.44293" height="2.38356"/>
  <rect x="61.0029" y="81.97441" fill="#D0D2D3" width="31.44293" height="2.38224"/>
  <rect x="61.00297" y="86.90197" fill="#D0D2D3" width="14.77091" height="2.38356"/>
  <circle fill="#D0D2D3" cx="73.81445" cy="102.05432" r="7.90795"/>
  <rect x="71.8544" y="94.14838" fill="#D0D2D3" width="1.96136" height="15.81457"/>
  <path fill="#FFFFFF" d="M71.85449,109.16992c-3.92188,0-7.11328-3.19238-7.11328-7.11523
    c0-3.92188,3.19141-7.11328,7.11328-7.11328s7.11328,3.19141,7.11328,7.11328
    C78.96777,105.97754,75.77637,109.16992,71.85449,109.16992z"/>
  <path fill="#D0D2D3" d="M71.85449,95.7345c3.48474,0,6.31982,2.83508,6.31982,6.31982c0,3.48621-2.83508,6.32239-6.31982,6.32239
    s-6.31982-2.83618-6.31982-6.32239C65.53467,98.56958,68.36975,95.7345,71.85449,95.7345 M71.85449,94.14832
    c-4.3656,0-7.90601,3.53857-7.90601,7.90601c0,4.36877,3.54041,7.90857,7.90601,7.90857
    c4.36938,0,7.90601-3.53979,7.90601-7.90857C79.7605,97.68689,76.22388,94.14832,71.85449,94.14832L71.85449,94.14832z"/>
  <polygon fill="#D0D2D3" points="69.2478,108.36954 68.35604,107.92079 74.48572,95.61886 75.38131,96.06887"/>
  <path fill="#C4D6E5" d="M109.24432,128.13841c-1.59464-0.44491-3.44926-0.70481-5.44095-0.70481
    c-1.99102,0-3.84564,0.2599-5.43578,0.70481h-5.1635v4.23819c0,2.73404,4.74646,4.94823,10.59928,4.94823
    c5.85355,0,10.59995-2.21419,10.59995-4.94823v-4.23819H109.24432z"/>
  <ellipse fill="#FFFFFF" cx="103.80371" cy="128.13843" rx="10.59962" ry="4.94564"/>
  <path fill="none" stroke="#C4D6E5" d="M96.02931,128.13841c2.82973-1.41228,12.72354-1.41228,16.96497,0"/>
  <path fill="#C4D6E5" d="M80.73012,133.15457c-1.81773-0.5096-3.9388-0.80573-6.22079-0.80573
    c-2.27755,0-4.39989,0.29613-6.21828,0.80573h-5.90586v4.84732c0,3.12849,5.42863,5.66211,12.12414,5.66211
    c6.69736,0,12.12731-2.53362,12.12731-5.66211v-4.84732H80.73012z"/>
  <path fill="#FFFFFF" d="M86.63664,133.15457c0,3.12335-5.42995,5.65431-12.12731,5.65431
    c-6.69551,0-12.12414-2.53096-12.12414-5.65431c0-3.12592,5.42863-5.65953,12.12414-5.65953
    C81.20669,127.49504,86.63664,130.02866,86.63664,133.15457z"/>
  <path fill="none" stroke="#C4D6E5" d="M66.34982,136.29599c2.53103-2.58791,11.3339-6.14192,16.44118-6.19881"/>

</svg>
