<?xml version="1.0" encoding="utf-8"?>
<!DOCTYPE svg PUBLIC "-//W3C//DTD SVG 1.1//EN" "http://www.w3.org/Graphics/SVG/1.1/DTD/svg11.dtd">
<svg version="1.1" xmlns="http://www.w3.org/2000/svg" xmlns:xlink="http://www.w3.org/1999/xlink" x="0px" y="0px" width="160px"
  height="160px" viewBox="0 0 160 160" enable-background="new 0 0 160 160" xml:space="preserve">
  <path fill="#A6A8AB" d="M17.19689,66.05944c0,0,87.03496-18.62238,95.01347-13.14778
    c16.33553,11.20915,29.51641,46.92859,34.16752,50.34981c4.65111,3.41853-83.93281,23.31778-93.36491,21.94427
    C37.75649,122.98385,18.56614,89.51956,17.19689,66.05944z"/>
  <path fill="#FFFFFF" d="M21.79267,67.56425c0,0,81.31995-17.33322,89.11466-12.88799
    c15.80775,9.01341,26.81639,43.74338,30.99222,47.00726c1.79218,1.4025-84.73014,27.21442-86.4796,18.63625
    C47.2094,80.08194,30.4856,86.07343,21.79267,67.56425z"/>
  <path fill="#D0D2D3" d="M21.79678,73.89971c1.25195,17.07626,15.89618,41.92502,27.37473,43.36346
    c4.79628,0.60107,1.75356-3.53046,1.75356-3.53046c-6.53046-29.34648-20.57078-24.74928-27.2532-38.29494
    C23.12202,73.73954,21.60335,71.96108,21.79678,73.89971z"/>

</svg>
