<?xml version="1.0" encoding="utf-8"?>
<!DOCTYPE svg PUBLIC "-//W3C//DTD SVG 1.1//EN" "http://www.w3.org/Graphics/SVG/1.1/DTD/svg11.dtd">
<svg version="1.1" xmlns="http://www.w3.org/2000/svg" xmlns:xlink="http://www.w3.org/1999/xlink" x="0px" y="0px" width="160px"
  height="160px" viewBox="0 0 160 160" enable-background="new 0 0 160 160" xml:space="preserve">
  <path fill="#808184" d="M54.13074,123.08226l-0.06806,4.91555c3.64935,0.7086,10.47999,1.64129,21.21386,1.66283h0.36511
    c10.59946,0,17.34382-0.91109,20.93674-1.60144l0.06967-4.87906c-5.69385,0.80159-12.61911,1.20485-20.67283,1.20485h-0.52608
    C67.11165,124.3717,59.969,123.9336,54.13074,123.08226z"/>
  <path fill="#C4D6E5" d="M79.91253,30.0886c-4.84219-1.36603-10.48093-2.14736-16.53998-2.14736
    c-6.03874,0-11.69272,0.78133-16.52471,2.14736H31.15357v12.88758c0,8.29796,14.42482,15.02652,32.21898,15.02652
    c17.79924,0,32.22405-6.72857,32.22405-15.02652V30.0886H79.91253z"/>
  <path fill="#FFFFFF" d="M95.5966,30.0886c0,8.30641-14.42481,15.03498-32.22405,15.03498
    c-17.79416,0-32.21898-6.72857-32.21898-15.03498c0-8.30811,14.42482-15.0519,32.21898-15.0519
    C81.17178,15.03669,95.5966,21.78049,95.5966,30.0886z"/>
  <path fill="none" stroke="#C4D6E5" stroke-width="2.38679" d="M40.50234,22.08386
    c9.49282-1.44061,34.43072,5.42689,45.37434,13.47401"/>
  <path fill="#C4D6E5" d="M129.19856,54.84518c-5.91669-1.65755-12.79945-2.62025-20.18726-2.62025
    c-7.39292,0-14.27057,0.9627-20.17542,2.62025H69.67565v15.72646c0,10.14703,17.61453,18.36362,39.33565,18.36362
    c21.71774,0,39.33222-8.2166,39.33222-18.36362V54.84518H129.19856z"/>
  <path fill="#FFFFFF" d="M148.34352,54.84518c0,10.1301-17.61449,18.3467-39.33222,18.3467
    c-21.72112,0-39.33565-8.21661-39.33565-18.3467c0-10.1521,17.61453-18.36362,39.33565-18.36362
    C130.72903,36.48156,148.34352,44.69308,148.34352,54.84518z"/>
  <path fill="none" stroke="#C4D6E5" stroke-width="2.91423" d="M80.16167,54.84518c10.49786-5.24552,47.21326-5.24552,62.95668,0"/>
  <path fill="#C4D6E5" d="M87.08847,97.91285c-6.74545-1.89315-14.61121-2.99815-23.08376-2.99815
    c-8.45046,0-16.32304,1.105-23.07699,2.99815H19.01339v17.98572c0,11.60798,20.14323,21.00925,44.99131,21.00925
    c24.85829,0,45.00659-9.40128,45.00659-21.00925V97.91285H87.08847z"/>
  <path fill="#FFFFFF" d="M109.0113,97.91285c0,11.58598-20.1483,20.98387-45.00659,20.98387
    c-24.84809,0-44.99131-9.39789-44.99131-20.98387c0-11.60291,20.14323-21.00587,44.99131-21.00587
    C88.863,76.90698,109.0113,86.30994,109.0113,97.91285z"/>
  <path fill="none" stroke="#C4D6E5" stroke-width="3.33328" d="M33.72466,109.5683
    c9.39788-9.59959,42.05755-22.79054,61.01607-22.99733"/>

</svg>
