<?xml version="1.0" encoding="utf-8"?>
<!DOCTYPE svg PUBLIC "-//W3C//DTD SVG 1.1//EN" "http://www.w3.org/Graphics/SVG/1.1/DTD/svg11.dtd">
<svg version="1.1" xmlns="http://www.w3.org/2000/svg" xmlns:xlink="http://www.w3.org/1999/xlink" x="0px" y="0px" width="160px"
  height="160px" viewBox="0 0 160 160" enable-background="new 0 0 160 160" xml:space="preserve">
  <path fill="#D0D2D3" d="M86.94233,102.34484c0.34215-0.55086,0.54819-1.19368,0.54819-1.88973
    c0-1.97911-1.60584-3.58495-3.58495-3.58495H53.79482c-3.6679,0-5.37746-1.42567-5.37746-2.38869h-7.16998
    c0,1.74712,0.58841,3.49815,1.73418,5.01846l-18.00142,15.08909l42.68023,6.52323l18.0792-17.59318
    c0.48469-0.28899,0.893-0.68304,1.19241-1.15871l0.01553-0.01553H86.94233z"/>
  <path fill="#E6E7E8" d="M86.60535,90.84203c0.54303-0.62856,0.88517-1.43736,0.88517-2.33553
    c0-1.98045-1.60584-3.58369-3.58495-3.58369H53.79482c-3.54998,0-6.61913,0.89168-8.87171,2.58312
    c-0.7725,0.57806-1.43609,1.24425-1.97785,1.97261l-19.12901,18.53927l43.14163,1.8586l19.3247-18.70517
    c0.08945-0.07777,0.17107-0.15681,0.24885-0.24108l0.08169-0.07904L86.60535,90.84203z"/>
  <path fill="#BBBDBF" d="M64.78825,122.56122H34.67623c-8.23671,0-12.54618-4.80843-12.54618-9.55866
    c0-2.6816,1.34014-5.22318,3.67441-6.97681c2.25391-1.68879,5.32172-2.58445,8.87177-2.58445h30.11202
    c1.98044,0,3.58502,1.60591,3.58502,3.58629c0,1.98044-1.60458,3.58369-3.58502,3.58369H34.67623
    c-2.64278,0-3.99718,0.72192-4.57006,1.15094c-0.52099,0.39013-0.80614,0.8295-0.80614,1.24033
    c0,0.96301,1.70823,2.39001,5.37621,2.39001h30.11202c1.98044,0,3.58502,1.60325,3.58502,3.58369
    C68.37327,120.95538,66.76868,122.56122,64.78825,122.56122L64.78825,122.56122z"/>
  <path fill="#D0D2D3" d="M137.01025,102.34484c0.34216-0.55086,0.54694-1.19368,0.54694-1.88973
    c0-1.97911-1.60457-3.58495-3.58369-3.58495h-30.11201c-3.66665,0-5.3762-1.42567-5.3762-2.38869h-7.16866
    c0,1.74712,0.58709,3.49815,1.73285,5.01846l-18.00142,15.08909l42.6803,6.52323l18.07913-17.59318
    c0.48476-0.28899,0.89299-0.68304,1.19241-1.15871l0.01553-0.01553H137.01025z"/>
  <path fill="#E6E7E8" d="M136.67328,90.84203c0.54303-0.62856,0.88391-1.43736,0.88391-2.33553
    c0-1.98045-1.60457-3.58369-3.58369-3.58369h-30.11201c-3.54998,0-6.61787,0.89168-8.87177,2.58312
    c-0.76984,0.57806-1.43477,1.24425-1.9752,1.97261l-19.13033,18.53927l43.1417,1.8586l19.32336-18.70517
    c0.09071-0.07777,0.17108-0.15681,0.25018-0.24108l0.08162-0.07904L136.67328,90.84203z"/>
  <path fill="#BBBDBF" d="M114.85751,122.56122H84.74542c-8.23791,0-12.54745-4.80843-12.54745-9.55866
    c0-2.6816,1.33887-5.22318,3.67441-6.97681c2.25391-1.68879,5.32179-2.58445,8.87304-2.58445h30.11208
    c1.97785,0,3.58369,1.60591,3.58369,3.58629c0,1.98044-1.60584,3.58369-3.58369,3.58369H84.74542
    c-2.64397,0-3.9997,0.72192-4.57127,1.15094c-0.52106,0.39013-0.80746,0.8295-0.80746,1.24033
    c0,0.96301,1.7095,2.39001,5.37873,2.39001h30.11208c1.97785,0,3.58369,1.60325,3.58369,3.58369
    C118.4412,120.95538,116.83536,122.56122,114.85751,122.56122L114.85751,122.56122z"/>
  <path fill="#F58D7A" d="M52.42097,27.73287c-3.45018,2.82932-5.67171,5.68982-5.67171,9.53789
    c0,6.5738,14.9569,9.16595,5.67171,16.77662c-2.22797,1.82357-0.72711,4.86417,2.23832,2.4366
    c3.4515-2.82805,5.67044-5.68591,5.67044-9.53922c0-6.57373-14.95432-9.16595-5.67044-16.77138
    C56.88858,28.34717,55.38513,25.30656,52.42097,27.73287L52.42097,27.73287z"/>
  <path fill="#F58D7A" d="M72.79163,27.73287c-3.45151,2.82932-5.67171,5.68982-5.67171,9.53789
    c0,6.5738,14.95683,9.16595,5.67171,16.77662c-2.22803,1.82357-0.72585,4.86417,2.23831,2.4366
    c3.45151-2.82805,5.67038-5.68591,5.67038-9.53922c0-6.57373-14.95425-9.16595-5.67038-16.77138
    C77.25924,28.34717,75.75579,25.30656,72.79163,27.73287L72.79163,27.73287z"/>
  <path fill="#F58D7A" d="M93.16356,27.73287c-3.45277,2.82932-5.67303,5.68982-5.67303,9.53789
    c0,6.5738,14.95823,9.16595,5.67303,16.77662c-2.22929,1.82357-0.72585,4.86417,2.23447,2.4366
    c3.45277-2.82805,5.67422-5.68591,5.67422-9.53922c0-6.57373-14.95557-9.16595-5.67422-16.77138
    C97.62726,28.34717,96.12513,25.30656,93.16356,27.73287L93.16356,27.73287z"/>
  <path fill="#D0D2D3" d="M108.61809,80.89841c0.34222-0.54952,0.54959-1.19368,0.54959-1.88966
    c0-1.97911-1.6059-3.58369-3.58502-3.58369H75.47064c-3.66796,0-5.37621-1.42699-5.37621-2.39001h-7.16998
    c0,1.74712,0.58841,3.49949,1.73418,5.01846L46.65722,93.14392l42.68029,6.52317l18.07913-17.59311
    c0.48476-0.29033,0.893-0.68304,1.19241-1.15997l0.01553-0.01559H108.61809z"/>
  <path fill="#E6E7E8" d="M108.28111,69.39693c0.54436-0.62862,0.88657-1.43867,0.88657-2.33553
    c0-1.98044-1.6059-3.58502-3.58502-3.58502H75.47064c-3.54998,0-6.61786,0.893-8.87177,2.58312
    c-0.77116,0.57939-1.43603,1.24557-1.97652,1.97268L45.49334,86.57271l43.14169,1.85735l19.3247-18.7039
    c0.08813-0.07777,0.17107-0.15681,0.25011-0.24109l0.08036-0.07903L108.28111,69.39693z"/>
  <path fill="#BBBDBF" d="M86.46533,101.11486H56.35332c-8.23664,0-12.54618-4.80724-12.54618-9.5574
    c0-2.6816,1.33887-5.2245,3.67315-6.97681c2.25391-1.69012,5.32172-2.58444,8.87304-2.58444h30.11201
    c1.98045,0,3.58369,1.60458,3.58369,3.58502c0,1.98044-1.60325,3.58495-3.58369,3.58495H56.35332
    c-2.64271,0-3.99844,0.72066-4.57133,1.14961c-0.51973,0.39146-0.80614,0.83083-0.80614,1.24166
    c0,0.96301,1.7095,2.38876,5.37747,2.38876h30.11201c1.98045,0,3.58369,1.60452,3.58369,3.58495
    C90.04903,99.51028,88.44578,101.11486,86.46533,101.11486L86.46533,101.11486z"/>

</svg>
