<?xml version="1.0" encoding="utf-8"?>
<!DOCTYPE svg PUBLIC "-//W3C//DTD SVG 1.1//EN" "http://www.w3.org/Graphics/SVG/1.1/DTD/svg11.dtd">
<svg version="1.1" xmlns="http://www.w3.org/2000/svg" xmlns:xlink="http://www.w3.org/1999/xlink" x="0px" y="0px" width="160px"
  height="160px" viewBox="0 0 160 160" enable-background="new 0 0 160 160" xml:space="preserve">
    <linearGradient id="SVGID_1_" gradientUnits="userSpaceOnUse" x1="59.38553" y1="-697.07074" x2="104.25014" y2="-658.50928" gradientTransform="matrix(0.7071 -0.7071 0.7071 0.7071 502.4765 622.67047)">
    <stop  offset="0" style="stop-color:#919397"/>
    <stop  offset="0.5" style="stop-color:#62696A"/>
    <stop  offset="1" style="stop-color:#505458"/>
  </linearGradient>
  <path fill="url(#SVGID_1_)" d="M104.81001,94.65561l1.8223,1.8223c2.582,2.581,2.58,6.7812,0,9.3623
    c-2.5821,2.582-6.7813,2.582-9.3633,0.001l-45.2383-45.2364l-2.33792,2.3389l45.23632,45.2373
    c3.8711,3.873,10.17191,3.873,14.04501,0c3.873-3.87209,3.873-10.1719,0-14.0439l-1.8223-1.8223L104.81001,94.65561z"/>
  <path fill="#B32C39" d="M101.2182,59.61851c3.623-3.623,7.29491-5.8252,8.2031-4.9248
    c-18.125-18.1211-47.5097-18.1211-65.63472,0.0019c-18.125,18.125-18.125,47.5118,0,65.6358
    c-0.9063-0.9063,1.29683-4.5791,4.92183-8.2041c3.625-3.624,7.2989-5.8291,8.2051-4.9209
    c-0.9062-0.9082,1.2969-4.5801,4.9238-8.2061c3.6231-3.625,7.2969-5.8291,8.2051-4.9218
    c-0.9082-0.9073,1.2949-4.5791,4.9199-8.2051s7.2989-5.8291,8.2051-4.92091c-0.9062-0.9082,1.2969-4.58199,4.9238-8.20609
    c3.625-3.625,7.29691-5.8291,8.2051-4.92381C95.38811,66.91731,97.5932,63.24451,101.2182,59.61851z"/>
  <linearGradient id="SVGID_2_" gradientUnits="userSpaceOnUse" x1="77.27689" y1="-725.96863" x2="77.27689" y2="-725.96863" gradientTransform="matrix(0.7071 -0.7071 0.7071 0.7071 502.4765 622.67047)">
    <stop  offset="0" style="stop-color:#F37F5F"/>
    <stop  offset="0.5" style="stop-color:#EC1C24"/>
    <stop  offset="1" style="stop-color:#D0232A"/>
  </linearGradient>
  <line fill="url(#SVGID_2_)" x1="43.78658" y1="54.69561" x2="43.78658" y2="54.69561"/>
  <path fill="#CE3045" d="M88.0912,72.74641c3.6231-3.624,7.293-5.8271,8.2032-4.92381
    c-18.125-18.125-41.6328-24.002-52.50782-13.127c-10.875,10.876-4.9981,34.3858,13.12693,52.5108
    c-0.9062-0.9082,1.2969-4.5801,4.9238-8.2061c3.6231-3.625,7.2969-5.8291,8.2051-4.9218
    c-0.9082-0.9073,1.2949-4.5791,4.9199-8.2051s7.2989-5.8291,8.2051-4.92091C82.26121,80.04431,84.4643,76.37051,88.0912,72.74641z"/>
  <path fill="#D55A55" d="M74.9623,85.87341c3.625-3.6231,7.295-5.8262,8.2032-4.92381
    c-18.1231-18.1241-35.75393-29.878-39.37893-26.254c-3.625,3.626,8.12893,21.2579,26.25583,39.3829
    C69.1342,93.17121,71.3373,89.49941,74.9623,85.87341z"/>
  <linearGradient id="SVGID_3_" gradientUnits="userSpaceOnUse" x1="75.94235" y1="-727.11383" x2="78.60944" y2="-724.82147" gradientTransform="matrix(0.7071 -0.7071 0.7071 0.7071 502.4765 622.67047)">
    <stop  offset="0" style="stop-color:#F37F5F"/>
    <stop  offset="0.5" style="stop-color:#EC1C24"/>
    <stop  offset="1" style="stop-color:#D0232A"/>
  </linearGradient>
  <path fill="url(#SVGID_3_)" d="M45.41548,53.06871c0.1191,0.1182-0.5137,0.9453-1.41208,1.8447
    c-0.90042,0.8985-1.72472,1.5303-1.84572,1.4121c-0.1192-0.1191,0.51172-0.9472,1.414-1.8447
    C44.47018,53.58041,45.2944,52.94961,45.41548,53.06871z"/>
    <linearGradient id="SVGID_4_" gradientUnits="userSpaceOnUse" x1="75.92845" y1="-727.23199" x2="78.65326" y2="-724.89001" gradientTransform="matrix(0.7071 -0.7071 0.7071 0.7071 502.4765 622.67047)">
    <stop  offset="0" style="stop-color:#F37F5F"/>
    <stop  offset="0.5" style="stop-color:#EC1C24"/>
    <stop  offset="1" style="stop-color:#D0232A"/>
  </linearGradient>
  <path fill="url(#SVGID_4_)" d="M45.05608,52.95541c0.0254,0.0264,0.3594,0.1133,0.3594,0.1133s-0.9493,0.9082-1.6485,1.6084
    c-0.6855,0.6846-1.6093,1.6484-1.6093,1.6484s-0.084-0.332-0.11328-0.3603c-0.11723-0.1192,0.39058-0.8223,1.289-1.7217
    C44.23378,53.34511,44.93688,52.83631,45.05608,52.95541z"/>
  <linearGradient id="SVGID_5_" gradientUnits="userSpaceOnUse" x1="76.63401" y1="-727.06506" x2="77.91795" y2="-725.96155" gradientTransform="matrix(0.7071 -0.7071 0.7071 0.7071 502.4765 622.67047)">
    <stop  offset="0" style="stop-color:#919397"/>
    <stop  offset="0.5" style="stop-color:#62696A"/>
    <stop  offset="1" style="stop-color:#505458"/>
  </linearGradient>
  <path fill="url(#SVGID_5_)" d="M44.18108,53.53261c0.0762,0.0742-0.2109,0.4853-0.6406,0.917
    c-0.4317,0.4306-0.8418,0.7167-0.92,0.6406c-0.07608-0.0762,0.211-0.4864,0.6426-0.916
    C43.69278,53.74151,44.10488,53.45441,44.18108,53.53261z"/>
  <linearGradient id="SVGID_6_" gradientUnits="userSpaceOnUse" x1="76.08917" y1="-728.8468" x2="78.55979" y2="-726.72327" gradientTransform="matrix(0.7071 -0.7071 0.7071 0.7071 502.4765 622.67047)">
    <stop  offset="0" style="stop-color:#919397"/>
    <stop  offset="0.5" style="stop-color:#62696A"/>
    <stop  offset="1" style="stop-color:#505458"/>
  </linearGradient>
  <path fill="url(#SVGID_6_)" d="M41.56188,51.76601c0.0157,0.0175,2.6192,1.7666,2.6192,1.7666s-0.457,0.4306-0.7949,0.7646
    c-0.3262,0.3291-0.7657,0.793-0.7657,0.793s-1.748-2.6026-1.7636-2.6192c-0.0762-0.0752,0.0019-0.2802,0.2109-0.4902
    C41.27868,51.76991,41.48578,51.69171,41.56188,51.76601z"/>
  <linearGradient id="SVGID_7_" gradientUnits="userSpaceOnUse" x1="76.98189" y1="-729.93848" x2="77.56868" y2="-729.43414" gradientTransform="matrix(0.7071 -0.7071 0.7071 0.7071 502.4765 622.67047)">
    <stop  offset="0" style="stop-color:#919397"/>
    <stop  offset="0.5" style="stop-color:#62696A"/>
    <stop  offset="1" style="stop-color:#505458"/>
  </linearGradient>
  <path fill="url(#SVGID_7_)" d="M41.50918,51.71521c0.0488,0.0498-0.0683,0.2461-0.2637,0.4414
    c-0.1953,0.1943-0.3925,0.3135-0.4414,0.2637c-0.0488-0.0479,0.07033-0.2452,0.2637-0.4395
    C41.26308,51.78551,41.4604,51.66631,41.50918,51.71521z"/>
  <linearGradient id="SVGID_8_" gradientUnits="userSpaceOnUse" x1="92.74704" y1="-655.48877" x2="94.90755" y2="-653.63177" gradientTransform="matrix(0.7071 -0.7071 0.7071 0.7071 502.4765 622.67047)">
    <stop  offset="0" style="stop-color:#919397"/>
    <stop  offset="0.5" style="stop-color:#62696A"/>
    <stop  offset="1" style="stop-color:#505458"/>
  </linearGradient>
  <path fill="url(#SVGID_8_)" d="M107.1518,92.31481c0.4043,0.4033,0.207,1.2539-0.4414,1.8994
    c-0.6445,0.6465-1.4961,0.8447-1.9004,0.4414c-0.4004-0.4033-0.2031-1.2519,0.4434-1.8994
    C105.8998,92.10971,106.7514,91.91341,107.1518,92.31481z"/>

</svg>
