<?xml version="1.0" encoding="utf-8"?>
<!DOCTYPE svg PUBLIC "-//W3C//DTD SVG 1.1//EN" "http://www.w3.org/Graphics/SVG/1.1/DTD/svg11.dtd">
<svg version="1.1" xmlns="http://www.w3.org/2000/svg" xmlns:xlink="http://www.w3.org/1999/xlink" x="0px" y="0px" width="160px"
  height="160px" viewBox="0 0 160 160" enable-background="new 0 0 160 160" xml:space="preserve">
  <path fill="#F5E0CD" d="M107.3073,151.67604c-2.01158,3.17325-0.77231,2.92538-3.29807,3.45822
    c-4.69085,0.98814-9.73245-1.34045-13.13844-2.39429c-2.4466-0.75539-6.84738,1.91205-8.73249-2.93558
    c-2.18692-5.62666,4.95726-4.41096,5.24552-4.43625c0.00172,0.00172,2.36398,0.09444,3.39088-0.02357
    c1.0774-0.12311,2.6152-0.36588,4.11079-0.76213C101.55589,146.29723,108.09809,150.42831,107.3073,151.67604z"/>
  <path fill="#F5E0CD" d="M17.34833,114.21757c-2.34706-2.04784-2.29984-1.00074-2.41958-3.13708
    c-0.22092-3.96912,2.32185-7.80762,3.61344-10.46583c0.92563-1.90954-0.70653-5.85095,3.50208-6.78668
    c4.88647-1.08595,2.99204,4.61574,2.97684,4.85522c-0.00078,0.0025-0.37433,1.92551-0.40549,2.78208
    c-0.0354,0.89792-0.0303,2.18864,0.10705,3.46418C22.47929,110.18015,18.27155,115.02268,17.34833,114.21757z"/>
  <path fill="#F5E0CD" d="M82.42664,125.50379c0.89024,6.62395,3.01474,13.55817,1.16676,19.61736
    c-0.32037,1.05383,0.60535,4.96649,1.61032,5.18068c4.47493,0.9493,5.31803,1.44164,10.17921-1.25197
    c1.7873-0.98978,0.18208-2.83698-0.52782-4.05182c-2.23751-3.83342-1.43826-5.73709-1.75018-9.99628
    c-0.17533-2.39601-0.26814-12.88377,0.42993-15.18283c0.99651-3.28038,0.64584-8.39442-2.27628-12.79356
    c-1.97273-2.9651-10.28039,1.66169-9.44911,5.28014C82.71326,116.24434,81.63241,119.59465,82.42664,125.50379z"/>
  <path fill="#F5E0CD" d="M41.1111,98.99597c-6.47305-1.66764-9.80488-0.14503-13.88192-3.45322
    c-0.70989-0.57496-4.0046-1.08422-4.48262-0.37856c-2.12373,3.14044-2.76533,3.63528-2.21144,8.20898
    c0.20236,1.68111,2.12209,1.02518,3.27624,0.85822c3.64288-0.52264,4.85608,0.68459,8.22495,1.77219
    c1.89521,0.61286,8.29583,3.9118,10.1641,5.42345c2.66407,2.15653,7.53448,3.75588,12.71007,2.70205
    c3.48861-0.71153,2.32686-10.1489-1.33881-10.7407C49.58226,102.74512,46.88444,100.4831,41.1111,98.99597z"/>
  <path fill="#00ADEE" d="M91.28897,102.2325c-0.05819-0.38953-0.08348-0.78406-0.15427-1.17858
    c-0.19813-1.09519-0.31113-2.13132-0.40472-3.24162c-0.16273-1.92982-0.40385-3.87053-0.73096-5.77921
    c-0.27315-1.59512-0.62891-3.17756-1.03691-4.74402c-0.41655-1.60178-0.9063-3.18931-1.57907-4.70432
    c-0.57841-1.30255-1.26888-2.59241-2.16085-3.70866c-0.77982-0.97623-1.72488-1.66169-2.87402-2.14056
    c-0.12224-0.05137-0.24949-0.11715-0.37683-0.1534c-6.44775-1.81933-13.02544,6.25895-19.65198,10.60577
    c0,0,0.45021,0.37605,1.20224,0.99314c2.43399,1.99725,5.18828,3.59065,7.59439,5.6461
    c2.23164,1.90531,4.31315,4.14955,5.64177,6.78918c0.85916,1.70468,1.45182,3.53083,2.12286,5.31303
    c0.80857,2.14565,0.79001,4.53234,1.45346,6.71926c1.00748,3.32001,3.74242,5.96223,7.7175,6.01955
    c6.41996,0.09272,5.83153-7.43079,4.81223-11.48763c-0.31113-1.23763-0.71749-2.45083-1.13818-3.65471
    C91.58232,103.116,91.35639,102.67761,91.28897,102.2325z"/>
  <path fill="#00ADEE" d="M83.70805,86.95609c-3.24749-5.85683-14.88352-7.12225-22.17274-10.22894
    c0,0-0.06233,0.57996-0.16187,1.55118c-0.1838,7.67538-5.66707,13.54308-9.28388,19.8552
    c-0.51427,0.89697-1.64312,1.91119-2.39938,2.75092c-1.32862,1.47539-2.55193,3.16237-4.02222,4.49358
    c-1.5631,1.41634-3.25094,2.97935-3.01483,5.28851c0.57582,5.63176,9.213,5.63849,12.97226,3.93295
    c2.59077-1.17521,5.08546-2.75092,7.2344-4.65968c1.96349-1.74431,3.4659-3.92113,5.29369-5.79605
    c1.07404-1.10105,2.25599-2.09083,3.35031-3.17082c2.25434-2.22396,3.72472-4.85609,5.32572-7.54459
    c1.03017-1.72919,2.80824-2.70205,4.5787-3.51813C82.61381,89.35546,84.63377,88.62537,83.70805,86.95609z"/>
  <path fill="#F5E0CD" d="M96.26134,72.41477c4.53235,1.29159,13.1823,0.19735,18.40598-0.95515c0,0,1.84626-1.98293,1.30843-3.92535
    c-0.38107-1.38768-0.84734-1.62543-1.08163-1.60601c-0.00259,0.00078-1.98379,0.82109-2.8066,0.89447
    c-6.05244,0.5438-9.59587-3.10418-15.03028-4.35528C91.0141,64.92078,94.99168,72.02612,96.26134,72.41477z"/>
  <path fill="#F5E0CD" d="M96.25883,72.42159c-5.99339-5.2886-7.00501-17.75591-5.31639-22.71152
    c0.78655-2.31167,3.23315-4.69421,5.72871-5.18992c5.73449-1.13982,4.49686,4.2162,4.51456,4.47839
    c0,0.00173,0.25295,0.76722,0.34826,1.68784c0.85312,8.20475-1.66592,8.55551-0.38279,13.03727
    C99.34281,69.99183,97.25285,73.29922,96.25883,72.42159z"/>
  <path fill="#F5E0CD" d="M125.84977,61.6328c-0.34402-0.23775-0.45358-0.29171-1.03363-0.13657
    c-0.60362,0.1585-1.23927,0.39962-1.85472,0.49398c-0.01183,0.89032-0.07088,1.10952,0.66344,0.80261
    c0.46791-0.19554,0.69729-0.45185,0.76972-1.01084c0.07252-0.57746-0.61035-0.75617-1.04961-0.82532
    c-1.0041-0.156-1.9837-0.99988-2.65984-0.24786c-0.76385,0.85484-1.78565,2.85296-2.64896,3.43465
    c-0.63315,0.42656-1.2511,0.84811-1.93398,1.19378c-0.39462,0.19899-0.74192,0.35413-1.21069,0.59861
    c-0.30345,0.15678-0.52946,0.43839-0.7048,0.71991c-0.26382,0.42664-0.31778,0.90716-0.30181,1.36411
    c0.02702,0.83801,0.22429,1.5833,0.52014,2.57731c0.08521,0.28748,0.17456,0.57582,0.26227,0.86244
    c1.7974-0.57073,3.61845-0.98891,5.46134-1.37594c1.12972-0.23766,2.2578-0.47205,3.37906-0.74184
    c0.51764-0.12647,1.04874-0.19563,1.57147-0.29171c0.41646-0.07761,0.92236-0.13994,1.26379-0.41145
    c0.11214-0.08763,0.28748-0.39963,0.32115-0.56823c0.15514-0.8279-0.89361-0.62805-0.59352-0.6846
    c0.74866-0.1433,0.72337-0.67441,0.74702-0.98045c0.06406-0.80762-0.67786-0.88773-1.02016-0.87427
    c0.4958-0.11127,0.93418-0.28999,1.05383-0.83292c0.09868-0.44857-0.0101-1.03363-0.47542-1.22926
    c-0.27151-0.11542-0.58852-0.09436-0.876-0.08598c0.15091-0.17534,0.51004-0.09436,0.63988-0.29171
    C126.7603,62.13697,125.99981,61.73649,125.84977,61.6328z"/>
  <path fill="#F5E0CD" d="M91.59242,35.25819c-4.652-2.36562-7.33808-5.55579-8.78731-11.69673
    c-1.51156-6.39388,4.12685-12.6663,11.11676-13.7235c6.98654-1.0572,13.34071,3.37396,14.18632,9.89682
    c0.84811,6.52191-3.10754,14.15257-7.1813,15.46945C97.52263,36.30529,92.69685,35.81969,91.59242,35.25819z"/>
  <path fill="#808184" d="M95.90557,24.00909c-0.38943,0.27911-0.81435,0.11301-0.94929-0.37174
    c-0.13571-0.48397,0.07001-1.10615,0.45867-1.38776c0.38779-0.27988,0.81185-0.11292,0.94678,0.37096
    C96.49831,23.10703,96.29346,23.72921,95.90557,24.00909z"/>
  <path fill="#808184" d="M104.98045,23.83289c-0.30017,0.31614-0.66526,0.19563-0.81695-0.26805
    c-0.15176-0.46791-0.03289-1.10279,0.26383-1.41893c0.30017-0.31778,0.6644-0.19476,0.81608,0.269
    C105.39604,22.88196,105.27716,23.51761,104.98045,23.83289z"/>
  <linearGradient id="SVGID_1_" gradientUnits="userSpaceOnUse" x1="115.79512" y1="-4.73128" x2="141.16142" y2="-4.73128" gradientTransform="matrix(0.9998 0.0196 -0.0196 0.9998 -33.2842 22.6796)">
    <stop  offset="0" style="stop-color:#919397"/>
    <stop  offset="0.5" style="stop-color:#62696A"/>
    <stop  offset="1" style="stop-color:#505458"/>
  </linearGradient>
  <path fill="url(#SVGID_1_)" d="M107.97498,19.01903c-1.20387-6.1241-7.32711-10.19777-14.05311-9.18106
    c-6.98991,1.0572-12.62832,7.32962-11.11676,13.7235c0.76134,3.22219,1.86578,5.62667,3.41195,7.53025
    c-0.84474-2.42467-2.01668-4.93274-1.06903-6.86758c1.00497-2.05544,2.16163-4.06366,5.62244-5.58877
    C100.76338,14.23201,106.3032,17.64482,107.97498,19.01903z"/>
  <path fill="#808184" d="M102.14259,28.16037c0,0,0.27997-1.49645-0.37424-1.23167c-0.65508,0.26469-1.9433,1.18281-1.9433,1.18281
    L102.14259,28.16037z"/>
  <path fill="#00ADEE" d="M100.19179,44.97709c-0.41982,0.70817-0.91389,1.47202-1.44672,2.23751
    C99.29136,46.32773,99.78207,45.55878,100.19179,44.97709c-5.73121-5.56762-9.69697-6.27578-13.52374-7.56064
    c-3.33011-1.11789-8.47704,0.72759-10.95903,5.36871c0.07252-0.39289,0.10963-0.65931,0.08098-0.70826
    c-0.3019,0.49994-0.76722,1.06402-0.91562,1.62888c-6.14594,17.62857-12.17474,26.21524-14.12477,36.14237
    c2.26954,6.73446,18.68577,12.49088,28.5548,15.82944c0,0,1.77797-1.7822,1.11953-6.01861
    C88.40062,70.21775,90.47116,61.36302,100.19179,44.97709z"/>
  <path fill="#F5E0CD" d="M60.01278,46.3614c-3.39589,3.27279-7.31615,11.2289-8.4223,16.3969
    c-0.50917,2.39014-0.20995,2.76611,2.26617,3.35454c1.76873,0.42155,2.32349,0.1181,2.4466-0.11629
    c0.00164-0.00086,1.15838-2.2982,1.59167-3.11601c3.18179-6.02206,6.5043-6.76139,10.31751-10.83342
    C69.12634,45.58745,60.984,45.45933,60.01278,46.3614z"/>
  <path fill="#F5E0CD" d="M59.38801,48.2971c3.50294-7.18294,15.25112-11.47416,20.47902-11.16562
    c2.4365,0.14503,5.05672,1.47374,6.20163,3.74665c2.62444,5.22367-2.77535,5.09383-3.0232,5.18146
    c-0.00173,0-0.52274,0.14331-1.3844,0.4806c-7.68201,3.003-9.46767,3.07889-13.44862,5.50693
    C61.69044,51.97123,58.80545,49.49088,59.38801,48.2971z"/>
  <path fill="#F5E0CD" d="M54.47884,77.36953c0.37942-0.1787,0.47974-0.24622,0.63651-0.82618
    c0.1661-0.60026,0.27824-1.27476,0.50503-1.85308c-0.76385-0.45531-0.92399-0.61718-1.0269,0.17197
    c-0.06578,0.50244,0.03963,0.82955,0.48734,1.17185c0.46195,0.35577,0.96025-0.14832,1.241-0.49321
    c0.63988-0.78819,1.85981-1.21147,1.54782-2.17596c-0.35404-1.0875-0.38943-1.6591-0.49234-2.80401
    c-0.07589-0.83973-1.09087-1.87587-1.24601-2.70291c-0.19563-1.03442-0.01433-1.43317,0.17197-1.86146
    c0.15004-0.3474-0.15514-0.74702-0.35413-1.0724c-0.30345-0.48898-0.80261-0.81271-1.31351-1.05556
    c-0.94083-0.44676-1.15156-0.65585-2.1599-0.8987c-0.29335-0.06915-0.58678-0.13994-0.8785-0.20736
    c-0.408,1.84125-0.96275,3.62605-1.55204,5.41584c-0.36172,1.09433-0.72759,2.18865-1.05643,3.29308
    c-0.15168,0.51004-0.35741,1.00661-0.53697,1.50742c-0.13916,0.39616-0.34316,0.86667-0.28075,1.29745
    c0.02193,0.14081,0.20149,0.44935,0.33211,0.564c0.63651,0.54967,0.98891-0.45522,0.88946-0.1711
    c-0.25295,0.72077,0.22006,0.96526,0.47128,1.13895c0.6694,0.46204,1.10952-0.13994,1.26966-0.44175
    c-0.15341,0.48388-0.21669,0.95179,0.19226,1.32871c0.33884,0.31104,0.89697,0.51081,1.30169,0.20564
    c0.23516-0.17698,0.37597-0.46031,0.51254-0.71317c0.07502,0.21833-0.17534,0.48898-0.06915,0.69884
    C53.58687,77.90236,54.3136,77.44541,54.47884,77.36953z"/>
  <path fill="#00ADEE" d="M86.66305,40.96575c2.80487,5.5778-2.9651,5.44123-3.22979,5.53308
    c-0.00173,0.00086-0.55813,0.15427-1.47875,0.51513c-2.49719,0.97458-4.32498,1.52761-5.77843,1.89771
    c0.03876-0.23853,0.08262-0.47628,0.10627-0.72077c0.38184-3.97931,0.56149-8.22927-4.85194-9.5427
    c3.29894-1.2157,6.46468-1.81518,8.60523-1.68698C82.64074,37.11464,85.44225,38.53434,86.66305,40.96575z"/>

</svg>
