<?xml version="1.0" encoding="utf-8"?>
<!DOCTYPE svg PUBLIC "-//W3C//DTD SVG 1.1//EN" "http://www.w3.org/Graphics/SVG/1.1/DTD/svg11.dtd">
<svg version="1.1" xmlns="http://www.w3.org/2000/svg" xmlns:xlink="http://www.w3.org/1999/xlink" x="0px" y="0px" width="160px"
  height="160px" viewBox="0 0 160 160" enable-background="new 0 0 160 160" xml:space="preserve">
  <path fill="#F6EAD6" d="M24.02558,66.57092C30.21992,50.51409,89.3804,26.8224,92.59318,26.8224l45.81234,71.0292
    c-3.21205,0-52.46349,22.10335-58.65298,38.16161L24.02558,66.57092z"/>
  <path fill="none" stroke="#989788" stroke-width="3.43349" d="M116.29596,81.4768c2.24227,3.4127,1.00381,7.82644-2.765,9.85488
    l-31.42648,17.38834c-2.17147,1.29259-4.9809,0.57896-6.27488-1.59251L56.65163,74.87773
    c-1.29259-2.17144-0.57896-4.98158,1.59457-6.27417l32.2477-19.17798c2.17285-1.29263,4.98158-0.57757,6.27349,1.59386
    L116.29596,81.4768z"/>
  <path fill="#26689E" d="M126.86515,25.56172l2.20826,2.11595c-5.96665,6.65181-12.14297,16.31231-18.54698,28.9773
    c-6.4012,12.66222-10.92185,24.19844-13.55218,34.62116l-3.14819,3.16972c-2.59699,2.6935-4.33043,4.65256-5.21136,5.88128
    c-0.73169-1.45226-2.16311-3.78757-4.29431-7.01421l-2.00765-2.91147c-2.87188-4.19437-5.36686-7.2183-7.48693-9.08154
    c-2.1194-1.85211-4.29712-2.94339-6.53519-3.2433c2.79553-4.43453,5.66535-6.93922,8.61084-7.52234
    c2.51858-0.49846,5.9986,2.37136,10.42759,8.60391l2.20338,3.12253c3.68205-10.41163,8.99339-20.88575,15.9222-31.40703
    C112.38135,40.35236,119.52121,31.91643,126.86515,25.56172z"/>

</svg>
