<?xml version="1.0" encoding="utf-8"?>
<!DOCTYPE svg PUBLIC "-//W3C//DTD SVG 1.1//EN" "http://www.w3.org/Graphics/SVG/1.1/DTD/svg11.dtd">
<svg version="1.1" xmlns="http://www.w3.org/2000/svg" xmlns:xlink="http://www.w3.org/1999/xlink" x="0px" y="0px" width="160px"
  height="160px" viewBox="0 0 160 160" enable-background="new 0 0 160 160" xml:space="preserve">
  <path fill="#D0D2D3" d="M127.12078,76.38724c0.38526-0.61879,0.61867-1.3439,0.61867-2.12753
    c0-2.2304-1.80818-4.03858-4.03846-4.03858H89.77791c-4.1319,0-6.05724-1.60664-6.05724-2.69213h-8.07704
    c0,1.96753,0.6629,3.94144,1.95262,5.6544L57.31702,90.18229l48.0835,7.34875l20.36757-19.81915
    c0.54473-0.32686,1.0034-0.76998,1.34212-1.3054l0.01797-0.01797L127.12078,76.38724z"/>
  <path fill="#E7E7E8" d="M126.74102,63.42999c0.61382-0.70828,0.99843-1.62079,0.99843-2.63171
    c0-2.23027-1.80818-4.03859-4.03846-4.03859H89.77791c-3.99995,0-7.45583,1.00659-9.99486,2.91127
    c-0.86967,0.65168-1.61722,1.40178-2.22721,2.22224l-21.5497,20.88667l48.60196,2.09221l21.77126-21.07164
    c0.09778-0.0872,0.19173-0.17554,0.28072-0.27205l0.09153-0.08847L126.74102,63.42999z"/>
  <path fill="#BBBDBF" d="M102.16302,99.16253H68.24007c-9.27905,0-14.13428-5.41728-14.13428-10.76854
    c0-3.0209,1.5095-5.88488,4.13942-7.85802c2.53903-1.90469,5.9949-2.91128,9.99485-2.91128h33.92296
    c2.23027,0,4.03858,1.80831,4.03858,4.03859c0,2.23027-1.80831,4.03845-4.03858,4.03845H68.24007
    c-2.9773,0-4.5035,0.8118-5.14843,1.29546c-0.58628,0.43943-0.90881,0.93546-0.90881,1.3968
    c0,1.0855,1.92534,2.69214,6.05724,2.69214h33.92296c2.23027,0,4.03858,1.80755,4.03858,4.03845
    C106.20161,97.35498,104.3933,99.16253,102.16302,99.16253L102.16302,99.16253z"/>
  <path fill="#00ADEE" d="M58.23145,45.39417c-0.00242-6.23903-5.09668-12.47168-9.04755-14.55318
    c-0.25573,3.04882-2.09017,3.09051-4.33791,3.09179c-2.24952,0.00115-4.0846-0.0399-4.34352-3.09
    c-3.95011,2.08711-9.03442,8.32614-9.03135,14.56504L31.48169,68.345c0.00064,1.06,0.37913,2.06786,1.06013,2.98534
    c-0.65984,1.63711-1.05643,3.30595-1.05579,4.66107c0,1.05936,0.37849,2.06646,1.05885,2.98406
    c-0.65792,1.63825-1.05503,3.30711-1.05452,4.66095c0,1.05821,0.37722,2.06722,1.05886,2.98355
    c-0.6592,1.63953-1.05694,3.30647-1.05567,4.66094c0.00191,1.06064,0.37786,2.06786,1.05885,2.98407
    c-0.65856,1.63902-1.05579,3.30837-1.05451,4.66171c0,0.66163,0.16063,1.29967,0.44069,1.91221
    c-0.27879,0.61369-0.44006,1.36749-0.44006,1.91285c0.00306,3.47206,5.99375,6.28377,13.38418,6.27995
    c7.38992-0.00243,13.37857-2.81911,13.37679-6.29117c0-0.54536-0.16305-1.30043-0.4407-1.91539
    c0.27701-0.61191,0.43878-1.24982,0.43878-1.91158c0-1.3569-0.40016-3.02142-1.06-4.6598
    c0.67845-0.91747,1.05758-1.92585,1.05694-2.98585c-0.00064-1.35576-0.40092-3.02218-1.06076-4.6598
    c0.67973-0.91697,1.05822-1.92661,1.05694-2.9847c0-1.35639-0.4008-3.02205-1.06064-4.66043
    c0.67909-0.91748,1.05694-1.92521,1.05694-2.9847c-0.00128-1.35754-0.4008-3.02206-1.06-4.66107
    c0.67845-0.91684,1.05631-1.92458,1.05503-2.98521L58.23145,45.39417z"/>

  <path fill="#00ADEE" d="M49.23438,30.10708c0.00306,3.82187-1.9632,3.82569-4.38839,3.82569
    c-2.42442,0.00242-4.39464,0.00064-4.39464-3.81944c-0.00305-3.82569,1.96639-3.82697,4.39094-3.8276
    C47.26735,26.2833,49.23374,26.2833,49.23438,30.10708z"/>

  <linearGradient id="SVGID_1_" gradientUnits="userSpaceOnUse" x1="2621.31689" y1="1179.66919" x2="2618.04517" y2="1176.23389" gradientTransform="matrix(-0.7628 -0.6466 0.6466 -0.7628 1281.66345 2623.88379)">
    <stop  offset="0" style="stop-color:#ACC8E1"/>
    <stop  offset="0.5" style="stop-color:#86B2D5"/>
    <stop  offset="0.52694" style="stop-color:#84B1D4"/>
    <stop  offset="1" style="stop-color:#6DA5CC"/>
  </linearGradient>
  <path fill="url(#SVGID_1_)" d="M44.7998,28.84375c-2.12891,0-3.29785-1.0415-3.29785-1.38672
    c-0.00098-0.11475,0.19629-0.46143,0.80566-0.80469c0.67188-0.37793,1.55664-0.58643,2.49316-0.5874
    c2.13184,0,3.30176,1.04346,3.30176,1.38916c0,0.34521-1.16992,1.38867-3.2998,1.38965H44.7998z"/>
  <path fill="#C5C7C9" d="M44.80603,26.37503c1.86255,0,2.82385,0.80379,2.97424,1.0791
    c-0.1499,0.27509-1.11145,1.07867-2.97986,1.07962c-1.86768,0-2.82837-0.80336-2.97632-1.07683
    c0.14819-0.27423,1.10962-1.08028,2.97656-1.08189H44.80603 M44.80603,25.75476c-0.00183,0-0.00342,0-0.00537,0
    c-2.23975,0.00192-3.61047,1.10361-3.60913,1.70251c0,0.59987,1.36926,1.69676,3.60889,1.69676c0.00073,0,0.00122,0,0.00122,0
    c2.24048-0.00114,3.61182-1.10054,3.61182-1.70059C48.41211,26.85519,47.04224,25.75476,44.80603,25.75476L44.80603,25.75476z"/>
  <path fill="#929497" d="M50.46495,23.02401c-0.06157-2.1126-2.68092-2.9884-5.84676-2.91183
    c-3.16458,0.07718-5.68118,1.1391-5.61769,3.25297l0.11257,3.82136l0,0l-0.00051,0.00064
    c0.064,1.24918,2.68219,2.21536,5.84677,2.15927c3.16827-0.05533,5.68181-1.11227,5.61896-2.36094v-0.00128l0,0L50.46495,23.02401z"/>
  <path fill="#E2E3E4" d="M44.77689,23.23193c2.23907-0.04411,3.57673-0.80236,3.55926-1.20138
    c-0.0181-0.39952-1.42166-1.10482-3.65945-1.06c-2.24085,0.04357-3.57736,0.80364-3.55926,1.20265
    C41.13617,22.57272,42.53667,23.2768,44.77689,23.23193z"/>
  <path fill="#86338B" d="M117.61635,111.3187c-0.01747,10.84579,3.70675,19.64679,5.67811,19.64679
    c1.30222,0,2.84843-1.02328,3.42604-1.59912c1.10054-1.19206,3.04755-7.7976,3.07189-18.03837v-0.14379
    c0-10.7113-2.22657-16.77479-3.41737-17.74517l0,0c-1.17638-0.91875-2.62112-1.39502-3.64951-1.62091
    C120.79903,91.39603,117.63815,100.4729,117.61635,111.3187z"/>
  <path fill="#9A84BD" d="M103.51878,93.09229l-0.07534,39.27625l19.4427-1.2748l0,0l0,0h0.00241l0,0
    c1.97136-0.00192,3.58489-8.78864,3.60413-19.62818c0.0218-10.83955-1.79455-19.62997-3.76717-19.64616v-0.00127
    L103.51878,93.09229z"/>
  <path fill="#86338B" d="M108.32416,112.85305c0.01746-10.84515-2.83401-19.76077-4.80537-19.76077
    c-1.30222,0-2.08903,1.13662-2.666,1.7136c-1.10118,1.19143-3.04819,7.7976-3.07305,18.03786v0.14367
    c0,10.71143,2.22645,16.77478,3.41788,17.74593l0,0c1.17715,0.91812,1.1927,1.62029,2.24583,1.62029
    C105.46273,132.35362,108.30185,123.69884,108.32416,112.85305z"/>
  <path fill="#9A84BD" d="M61.27032,106.21068L61.228,121.79964l40.57897-1.27481l0,0l0,0h0.00191l0,0
    c1.0999-0.00051,1.9994-3.48825,2.00999-7.79072c0.01172-4.30183-1.00163-7.79135-2.10152-7.79824l0,0L61.27032,106.21068z"/>
  <path fill="#86338B" d="M55.61146,113.8683c-0.0167,10.84579,3.70739,19.64679,5.67875,19.64679
    c1.30222,0,2.84842-1.02328,3.4254-1.59911c1.10117-1.19208,3.04832-7.79761,3.07317-18.03838v-0.1438
    c0-10.7113-2.22658-16.77478-3.41801-17.74516l0,0c-1.17703-0.91875-2.62113-1.39502-3.64951-1.62092
    C58.79414,93.94564,55.6339,103.02251,55.61146,113.8683z"/>
  <path fill="#9A84BD" d="M40.81237,95.6419l-0.07521,39.27625l20.14473-1.27481l0,0l0,0h0.00255l0,0
    c1.97136-0.00191,3.58412-8.78864,3.604-19.62818c0.02244-10.83954-1.79454-19.62997-3.76717-19.64616v-0.00127L40.81237,95.6419z"/>
  <path fill="#86338B" d="M45.61788,115.40266c0.01746-10.84515-2.83414-19.76076-4.80551-19.76076
    c-1.30209,0-2.79042,1.13662-3.36752,1.71359c-1.10169,1.19144-3.04819,7.79761-3.07305,18.03786v0.14367
    c0,10.71143,2.22658,16.77479,3.41801,17.74593l0,0c1.17639,0.91811,1.89411,1.62027,2.94735,1.62027
    C42.75645,134.90323,45.59544,126.24845,45.61788,115.40266z"/>

</svg>
