<?xml version="1.0" encoding="utf-8"?>
<!DOCTYPE svg PUBLIC "-//W3C//DTD SVG 1.1//EN" "http://www.w3.org/Graphics/SVG/1.1/DTD/svg11.dtd">
<svg version="1.1" xmlns="http://www.w3.org/2000/svg" xmlns:xlink="http://www.w3.org/1999/xlink" x="0px" y="0px" width="160px"
  height="160px" viewBox="0 0 160 160" enable-background="new 0 0 160 160" xml:space="preserve">
  <linearGradient id="SVGID_1_" gradientUnits="userSpaceOnUse" x1="652.09198" y1="239.62448" x2="718.16803" y2="239.62448" gradientTransform="matrix(-0.8343 0.5513 -0.5513 -0.8343 741.72882 -68.8202)">
    <stop  offset="0" style="stop-color:#DEC2B3"/>
    <stop  offset="0.07684" style="stop-color:#E0C7B9"/>
    <stop  offset="0.26858" style="stop-color:#E3D0C4"/>
    <stop  offset="0.5" style="stop-color:#E4D3C7"/>
    <stop  offset="0.68532" style="stop-color:#E1D1C6"/>
    <stop  offset="0.80373" style="stop-color:#D9CCC4"/>
    <stop  offset="0.90308" style="stop-color:#CAC3C0"/>
    <stop  offset="0.99186" style="stop-color:#B5B6BA"/>
    <stop  offset="1" style="stop-color:#B3B5B9"/>
  </linearGradient>
  <path fill="url(#SVGID_1_)" d="M7.24278,122.32411c17.85284,16.45277,23.64478,5.99684,33.5775-4.27733
    c11.82182-12.22942,29.28032-18.57655,28.00693-22.02549c-2.83762-7.7494-12.65462,0.29192-16.41426,0.59817
    C52.41295,96.61946,29.00173,89.21371,7.24278,122.32411z"/>
  <linearGradient id="SVGID_2_" gradientUnits="userSpaceOnUse" x1="-1462.26843" y1="-1264.37927" x2="-1378.35535" y2="-1264.37927" gradientTransform="matrix(0.7839 0.6209 0.6209 -0.7839 2022.0863 -15.8312)">
    <stop  offset="0" style="stop-color:#DEC2B3"/>
    <stop  offset="0.07684" style="stop-color:#E0C7B9"/>
    <stop  offset="0.26858" style="stop-color:#E3D0C4"/>
    <stop  offset="0.5" style="stop-color:#E4D3C7"/>
    <stop  offset="0.68532" style="stop-color:#E1D1C6"/>
    <stop  offset="0.80373" style="stop-color:#D9CCC4"/>
    <stop  offset="0.90308" style="stop-color:#CAC3C0"/>
    <stop  offset="0.99186" style="stop-color:#B5B6BA"/>
    <stop  offset="1" style="stop-color:#B3B5B9"/>
  </linearGradient>
  <path fill="url(#SVGID_2_)" d="M94.64534,63.15544c3.83121,11.40103,10.24992,22.71508,13.31336,34.15577
    c-3.71994-0.62569-12.81107-9.48103-16.30186-2.0037c-1.56424,3.32779,15.28509,11.1488,26.0153,24.34869
    c9.01398,11.08817,5.68952,18.91799,33.08508,7.14022c-7.63484-15.57041-15.79623-66.33648-22.13783-64.30525
    c-5.80959,1.85171,3.79816,19.31792,2.48727,19.44793c-3.62959,0.37889-4.79282-27.92324-13.38274-25.18256
    c-6.57516,2.09952,7.06757,15.82596,4.46017,27.84721c-8.57006-17.17763-7.7384-35.06126-14.59995-32.86591
    c-6.84063,2.18221,2.28683,16.85818,5.76774,35.74313C108.1768,78.6223,100.9209,49.02913,94.64534,63.15544"/>
  <polygon fill="#CE9D77" points="122.00345,95.0894 43.70302,95.0894 22.34722,68.39551 22.34722,61.27728 122.00345,87.97118"/>
  <polygon fill="#F5E0CD" points="122.00345,87.97118 43.70302,87.97118 22.34722,61.27728 100.64877,61.27728"/>
  <path fill="#9ABB6C" d="M25.20244,57.19165c0,1.90675-1.16871,1.14558-2.43882,2.4465
    c-1.49701,1.53891-2.96757,4.57145-1.78448,6.66663c1.05196,1.8671,3.64391,2.506,5.59584,1.91888
    c0.64002-0.1939,3.06892-2.4025,3.46219-2.25484c0.80634,0.29959,0.32165,5.98358,0.37122,6.73814
    c0.10135,1.60276-0.0132,4.76863,2.09185,4.79508c0.6235,0.00767,1.05636-0.38448,1.72503-0.20823
    c0.85812,0.23022,1.51681,1.13132,2.11498,1.72943c1.54879,1.55431,3.28594,3.1097,5.56284,1.9883
    c1.49701-0.73804,2.52585-2.14909,4.04158-2.89594c1.69971-0.83833,3.97988-2.04341,5.88336-2.15136
    c2.57762-0.1432,2.19208,2.44655,1.49154,4.17818c-0.52655,1.30424-2.63052,3.24629-2.51705,4.68267
    c0.12887,1.58517,2.40577,2.09738,3.64284,2.08305c2.4223-0.02205,4.67607-1.37806,7.13362-0.89776
    c1.15331,0.22362,3.47099,2.3452,4.50756,1.7151c1.60822-0.97707-0.09476-3.30354,1.48155-4.33571
    c1.69751-1.10926,4.61443,0.71605,6.42869,0.20603c1.98717-0.55959-0.35802-4.22116,0.75457-5.58597
    c2.73954-3.35645,9.66167,3.40596,10.20254,5.99131c0.30185,1.44303-0.37009,3.04359,0.66202,4.28393
    c0.965,1.15331,2.6779,1.45516,4.09335,1.29104c4.17599-0.4847,6.52011-5.06055,8.32337-8.34097
    c2.55997-4.66947,6.61588-5.51654,11.28095-3.32559c4.56593,2.14363,9.5703,4.32578,14.5405,5.3205
    c2.05107,0.4142,4.47997,0.16745,3.11629-2.5523c-2.60847-5.21915,2.61288-7.82982-2.60847-7.82982
    c-5.21808,0-5.21808-2.60847-10.43615,0c-5.21802,2.61067-7.82982-13.04676-7.82982-13.04676s-75.6721-5.22027-78.28278-5.22027
    C25.20469,54.58092,25.20244,51.97245,25.20244,57.19165z"/>
  <path fill="#ED1E3D" d="M55.41803,43.12812c-15.1001,0-27.58614,5.0275-29.90054,11.60153h-0.42187v2.19427
    c0,7.61837,13.57664,13.79586,30.32241,13.79586c16.75125,0,30.32675-6.17748,30.32675-13.79586
    C85.74477,49.30453,72.16927,43.12812,55.41803,43.12812z"/>
  <path fill="#F0646E" d="M85.74477,54.72965c0,7.61724-13.5755,13.7936-30.32675,13.7936
    c-16.74577,0-30.32241-6.17635-30.32241-13.7936c0-7.61939,13.57664-13.7958,30.32241-13.7958
    C72.16927,40.93385,85.74477,47.11026,85.74477,54.72965z"/>
  <path fill="#ED1E3D" d="M58.87909,63.12459c-0.71379,7.58087,12.2195,15.16614,28.88264,16.94627
    c16.66534,1.77455,30.7476-2.93345,31.46032-10.51212c0.71267-7.58087-12.21729-15.16727-28.88157-16.94188
    C73.67621,50.83786,59.59068,55.54259,58.87909,63.12459z"/>
  <path fill="#F0646E" d="M59.08179,60.94018c-0.70945,7.58087,12.22169,15.16839,28.88818,16.94407
    c16.66202,1.77788,30.74648-2.92905,31.46027-10.50771c0.70832-7.58414-12.22169-15.16721-28.88485-16.94402
    C73.87891,48.65351,59.79445,53.36044,59.08179,60.94018z"/>
  <path fill="#ED1E3D" d="M28.5754,62.85471c-0.71379,7.57974,12.22062,15.16502,28.8827,16.94402
    c16.66535,1.77573,30.75195-2.93232,31.46027-10.50986c0.71159-7.582-12.21622-15.16947-28.88157-16.94295
    C43.37145,50.56579,29.28699,55.27164,28.5754,62.85471z"/>
  <path fill="#F0646E" d="M28.78137,60.67031c-0.71159,7.57867,12.21842,15.16727,28.88377,16.94074
    c16.66101,1.77901,30.7476-2.92571,31.4592-10.50766c0.71384-7.58087-12.22057-15.16619-28.88264-16.94075
    C43.57635,48.38364,29.48969,53.08837,28.78137,60.67031z"/>
  <path fill="#F8DB88" d="M115.07693,60.52824c-3.47984-4.8975-9.88642-6.26231-15.3204-7.62938
    c-7.07417-1.7812-13.9897-2.61394-21.25-3.18459c-7.62384-0.60144-15.22237-1.27118-22.83189-2.0125
    c-4.46565-0.43625-9.40393-1.50254-13.87183-0.96939c-4.65403,0.55632-10.03949,5.93079-9.78614,10.99129
    c0.1388,2.7506,2.86954,3.92371,4.7741,5.46702c2.59967,2.10838,4.22995,4.93715,6.61593,7.20745
    c2.64812,2.52252,5.45049,2.21081,8.84433,1.58291c4.68713-0.86911,8.97433-1.44743,13.74075-0.77549
    c5.36787,0.75569,10.26097,1.57743,15.65304,0.36242c5.06715-1.14011,10.47574-4.36875,15.78191-3.84441
    c4.28839,0.42519,6.96183,4.4172,11.12236,5.0385C115.33027,73.77544,118.65694,65.5788,115.07693,60.52824z"/>
  <linearGradient id="SVGID_3_" gradientUnits="userSpaceOnUse" x1="22.34722" y1="52.26934" x2="122.00345" y2="52.26934">
    <stop  offset="0" style="stop-color:#B08774"/>
    <stop  offset="0.42697" style="stop-color:#CE9D77"/>
    <stop  offset="1" style="stop-color:#DEB18A"/>
  </linearGradient>
  <polygon fill="url(#SVGID_3_)" points="122.00345,69.1754 43.70302,69.1754 22.34722,42.48043 22.34722,35.36327
    122.00345,62.05717"/>
  <linearGradient id="SVGID_4_" gradientUnits="userSpaceOnUse" x1="22.34722" y1="48.71022" x2="122.00345" y2="48.71022">
    <stop  offset="0" style="stop-color:#F2E7DC"/>
    <stop  offset="0.42697" style="stop-color:#F2D7BF"/>
    <stop  offset="0.79214" style="stop-color:#F5E0CD"/>
    <stop  offset="1" style="stop-color:#F0D0B3"/>
  </linearGradient>
  <polygon fill="url(#SVGID_4_)" points="122.00345,62.05717 43.70302,62.05717 22.34722,35.36327 100.64877,35.36327"/>
  <polygon fill="#2E86C7" points="72.53062,13.18906 82.96891,18.40713 72.53169,23.62627"/>
  <rect x="71.41364" y="13.18906" fill="#CE9D77" width="1.11699" height="34.72202"/>
  <linearGradient id="SVGID_5_" gradientUnits="userSpaceOnUse" x1="-1444.42944" y1="-1280.85522" x2="-1378.35535" y2="-1280.85522" gradientTransform="matrix(0.7839 0.6209 0.6209 -0.7839 2022.0863 -15.8312)">
    <stop  offset="0" style="stop-color:#DEC2B3"/>
    <stop  offset="0.07684" style="stop-color:#E0C7B9"/>
    <stop  offset="0.26858" style="stop-color:#E3D0C4"/>
    <stop  offset="0.5" style="stop-color:#E4D3C7"/>
    <stop  offset="0.66878" style="stop-color:#E3D1C4"/>
    <stop  offset="0.77662" style="stop-color:#E1C9BC"/>
    <stop  offset="0.86711" style="stop-color:#DDBDAD"/>
    <stop  offset="0.91011" style="stop-color:#DAB4A3"/>
  </linearGradient>
  <path fill="url(#SVGID_5_)" d="M107.9587,97.3112c-3.71994-0.62569-12.81107-9.48103-16.30186-2.0037
    c-1.56424,3.32779,15.28509,11.1488,26.0153,24.34869c9.01398,11.08817,5.68952,18.91799,33.08508,7.14022
    C133.00793,98.18917,107.9587,97.3112,107.9587,97.3112z"/>
  <linearGradient id="SVGID_6_" gradientUnits="userSpaceOnUse" x1="634.25507" y1="255.17958" x2="718.16803" y2="255.17958" gradientTransform="matrix(-0.8343 0.5513 -0.5513 -0.8343 741.72882 -68.8202)">
    <stop  offset="0" style="stop-color:#DEC2B3"/>
    <stop  offset="0.07684" style="stop-color:#E0C7B9"/>
    <stop  offset="0.26858" style="stop-color:#E3D0C4"/>
    <stop  offset="0.5" style="stop-color:#E4D3C7"/>
    <stop  offset="0.70775" style="stop-color:#E2D0C4"/>
    <stop  offset="0.84048" style="stop-color:#DBC8BC"/>
    <stop  offset="0.95185" style="stop-color:#CEB9AE"/>
    <stop  offset="1" style="stop-color:#C7B0A5"/>
  </linearGradient>
  <path fill="url(#SVGID_6_)" d="M68.60686,63.73043c-4.79502,11.02981-12.16112,21.75235-16.1939,32.88903
    c3.75964-0.30624,0.22915,9.1979-11.59267,21.42732c-9.93272,10.27417-15.72466,20.7301-33.5775,4.27733
    c8.94348-14.85769,21.42845-64.73592,27.57294-62.16929c5.62782,2.343-5.4417,18.9224-4.14733,19.16475
    c3.58334,0.68847,7.16994-27.41096,15.49331-23.9433c6.37246,2.65585-8.39827,15.16174-6.83183,27.36144
    c10.01197-16.38008,10.71696-34.26704,17.36374-31.49338c6.6302,2.7616-3.72214,16.60151-8.81134,35.11749
    C53.79874,77.979,63.56509,49.11948,68.60686,63.73043"/>
  <path fill="#FFF4F0" d="M62.13362,63.37212l0.73804-1.89852c0.45988-0.89004,1.69525-1.16984,2.76047-0.62457
    c1.06849,0.5486,1.56255,1.71787,1.1043,2.60904l-1.39013,1.76411C64.92274,65.40008,62.36716,64.49571,62.13362,63.37212z"/>
  <path fill="#FFF4F0" d="M62.13418,97.87959l0.34314-1.34828c0.87295-1.02557,3.17466-2.04945,4.40068-1.00352
    c1.22274,1.04593,0.0551,2.40031-0.82287,3.4297l-1.57298,1.12354C63.87128,100.18571,62.0934,99.42561,62.13418,97.87959z"/>
  <path fill="#FFF4F0" d="M53.04525,54.9654l0.37895-2.00043c0.28809-0.9611,1.45679-1.46503,2.60571-1.12607
    c1.15331,0.33986,1.85447,1.39764,1.56644,2.35874l-1.04649,1.98994C56.16487,56.44064,53.482,56.02565,53.04525,54.9654z"/>
  <path fill="#FFF4F0" d="M41.55003,59.19812l0.62897-1.93597c0.40207-0.91875,1.62148-1.26848,2.71862-0.78491
    c1.09607,0.48526,1.65786,1.62261,1.25246,2.5391l-1.28218,1.84347C44.4559,61.06245,41.84912,60.30682,41.55003,59.19812z"/>
  <path fill="#FFF4F0" d="M32.63244,63.56106l0.19773-1.27892c0.15307-0.6174,0.83934-0.99195,1.52341-0.83826
    c0.68683,0.15865,1.11535,0.78649,0.9589,1.40615l-0.59208,1.30424C34.49898,64.33272,32.90507,64.20605,32.63244,63.56106z"/>

</svg>
