<?xml version="1.0" encoding="utf-8"?>
<!DOCTYPE svg PUBLIC "-//W3C//DTD SVG 1.1//EN" "http://www.w3.org/Graphics/SVG/1.1/DTD/svg11.dtd">
<svg version="1.1" xmlns="http://www.w3.org/2000/svg" xmlns:xlink="http://www.w3.org/1999/xlink" x="0px" y="0px" width="160px"
  height="160px" viewBox="0 0 160 160" enable-background="new 0 0 160 160" xml:space="preserve">
  <path fill="#FFFFFF" stroke="#58595B" d="M48.23989,130.00356l78.87051-22.58157c0,0,1.21665-0.38866,1.21665-2.27856
    c0-11.54073,0-7.43892,0-13.45761c0-4.71712-44.32199-22.18703-44.32199-22.18703
    c-2.69549,0.54542-50.87754,10.66074-50.87754,10.66074"/>
    <path fill="#FFFFFF" d="M34.35547,62.65723c5.20508-1.09277,46.52246-9.76562,50.19531-10.51953
      c17.02051,6.71582,43.86719,18.4873,43.86719,21.66797V87.2627c0,1.47168-0.8418,1.79395-0.87793,1.80664l-78.37402,22.43848
      L34.35547,62.65723z"/>
    <path fill="#58595B" d="M84.50476,52.65796c1.75635,0.69739,11.60388,4.62952,21.44019,9.01733
      c20.38281,9.09253,21.88171,11.72449,21.97302,12.13013v13.45776c0,0.99988-0.43896,1.28052-0.54333,1.33313l-77.87329,22.29517
      l-14.50928-47.8573C41.91199,61.58167,80.14099,53.55811,84.50476,52.65796 M84.59595,51.61853
      c-2.69543,0.54663-50.87756,10.66125-50.87756,10.66125l15.11169,49.84412l78.87122-22.58093c0,0,1.21667-0.38928,1.21667-2.27979
      c0-11.54016,0-7.43896,0-13.45776C128.91797,69.08777,84.59595,51.61853,84.59595,51.61853L84.59595,51.61853z"/>
  <path fill="#D7E7F6" stroke="#58595B" d="M128.32706,70.34789L101.3887,54.5274v0.00391
    c-3.99052-2.76065-11.94787-4.64393-21.1179-4.64393c-13.17175,0-23.84962,3.88313-23.84962,8.67337
    c0,1.75614,1.43999,3.38911,3.90816,4.75463l-0.00263,0.00195l0.1548,0.08499c0.00661,0.00331,0.01255,0.00722,0.01848,0.00985
    L88.1972,79.7254l12.76466-1.82001l-8.62069-6.30065c6.61423-0.58434,12.15536-2.16591,15.32841-4.28764l-0.00722,0.38799
    L128.32706,70.34789z"/>
  <ellipse fill="#D7E7F6" stroke="#58595B" cx="108.38501" cy="75.10449" rx="23.84961" ry="8.67337"/>
  <ellipse fill="#C7D8E5" cx="108.38501" cy="75.10449" rx="19.46915" ry="6.73019"/>
  <line fill="#D7E7F6" stroke="#58595B" x1="56.42119" y1="58.56075" x2="84.59595" y2="74.51628"/>
  <path fill="#6988B0" d="M41.58086,115.49395l43.01509-12.3563c0,0,1.01645-0.36492,1.01645-1.45975
    c0-1.09544,0-10.67126,0-15.38831c0-4.25008-29.99222-23.34702-35.93786-27.09188
    c-0.65409-0.41106-1.71067-0.50259-2.28902-0.39656c-5.47131,1.00586-23.66452,4.15261-23.66452,4.15261L41.58086,115.49395z"/>
  <path fill="#D9BC7B" d="M109.40401,16.16879c-2.18959,0-4.25264,0.51244-6.10301,1.39978
    c6.3362,0.79439,11.24239,6.18995,11.24239,12.74159s-4.90619,11.94788-11.24239,12.74234
    c1.84835,0.8866,3.91342,1.39911,6.10301,1.39911c7.80917,0,14.14077-6.331,14.14077-14.14145
    C123.54478,22.5004,117.21317,16.16879,109.40401,16.16879z"/>

</svg>
