<?xml version="1.0" encoding="utf-8"?>
<!DOCTYPE svg PUBLIC "-//W3C//DTD SVG 1.1//EN" "http://www.w3.org/Graphics/SVG/1.1/DTD/svg11.dtd">
<svg version="1.1" xmlns="http://www.w3.org/2000/svg" xmlns:xlink="http://www.w3.org/1999/xlink" x="0px" y="0px" width="160px"
  height="160px" viewBox="0 0 160 160" enable-background="new 0 0 160 160" xml:space="preserve">
  <path fill="#A9DEF0" d="M70.55522,43.78874c-0.14274,0.03463-0.28416,0.07071-0.43073,0.10929
    c-0.02831,0.01027-0.06426,0.01672-0.09521,0.02436c-0.02567,0.00777-0.05017,0.01291-0.07584,0.02186
    c-6.23681,1.59584-13.09871,3.41554-35.34938,8.66093c-2.69275,0.64813-5.54759,1.33998-8.50791,2.05883
    c-1.51999,0.3716-3.01286,0.73676-4.47118,1.0969c2.86256-0.5736,10.21945,17.77694,13.11156,27.2826
    c2.89211,9.50697,7.12921,29.34025,4.54063,30.74567c1.41452-0.50144,2.85998-1.02224,4.33244-1.55726
    c4.25764-1.55594,8.26852-3.09135,11.85511-4.51877c8.47565-3.30361,18.61272-7.12802,30.65047-11.22383
    c0.01041-0.00381,0.02318-0.01027,0.03345-0.01277c1.00947-0.33698,2.05883-0.69054,3.14415-1.05582
    c1.07636-0.36002,2.15404-0.71885,3.37433-1.14313c0.50803-0.175,1.02368-0.35619,1.53671-0.53752
    c5.0692-1.75925,10.71581-3.76015,16.65568-5.92696c10.74017-3.91185,20.40543-7.60129,27.3624-10.41109
    c1.38107-0.50539,1.64339-11.74713-2.64653-25.85136c-4.29121-14.10303-10.09467-21.09596-11.52472-20.74871
    c-7.30922,1.67419-17.37439,4.05973-28.48116,6.76538C86.10109,39.87176,77.41317,42.03593,70.55522,43.78874z"/>
  <path fill="#FFFFFF" d="M60.47346,99.25424c0,0,20.6202-7.25404,24.93446-8.72005c0.01041-0.00382,0.01804-0.00777,0.02831-0.01028
    c0.80628-0.26626,1.14457-0.37937,2.00998-0.67381c0.85896-0.28429,2.22726-0.74465,3.20328-1.08149
    c0.40504-0.13892,0.81655-0.28548,1.22937-0.43086c4.05196-1.39911,8.56954-2.99877,13.32375-4.72459
    c8.59008-3.11834,16.32121-6.0593,21.88802-8.29814c1.10731-0.39992,1.36185-9.23703-2.00471-20.3064
    c-3.36669-11.06437-7.96907-16.5373-9.1122-16.25695c-5.84335,1.34512-13.8934,3.2624-22.76778,5.43303
    C85.6356,46.03904,60.47346,99.25424,60.47346,99.25424z"/>
  <path fill="#00ADEE" d="M25.92523,85.72086c2.8933,9.51211,10.46496,28.65866,13.35193,28.06834
    c2.58858-1.40543-1.64733-21.2387-4.54063-30.7495c-2.89079-9.50447-10.249-27.85238-13.11156-27.27878
    C18.82031,56.5672,23.03444,76.21519,25.92523,85.72086z"/>
  <path fill="#A9DEF0" d="M126.61869,55.13069c2.32891,7.63605,8.729,22.91052,11.6032,22.27135
    c2.62202-1.29495-0.08493-17.42588-2.40858-25.06562c-2.66705-8.7664-7.77234-20.50195-11.79084-21.52551
    C121.22161,31.62497,124.29241,47.49991,126.61869,55.13069z"/>
  <path fill="#A9DEF0" d="M27.38083,85.3428c2.45743,8.07574,8.60299,24.4163,10.56543,24.06656
    c1.71409-1.04937-2.17195-17.79367-4.62951-25.87335c-2.45348-8.06665-8.41771-23.73471-10.35948-23.39774
    C21.06558,60.67578,24.92735,77.27602,27.38083,85.3428z"/>
  <path fill="#D0D2D3" d="M93.20594,44.18471c-5.45502,3.09016,1.929,5.89101-0.00895,9.61377
    c-1.93927,3.72407-6.03244,6.01822-6.30502,6.42208c-2.20802,3.24831-2.61558,6.67912-3.73566,10.82129
    c-0.21095,0.37542-0.43086,0.74966-0.64945,1.11362c-1.55595,2.58345-5.12832,4.80161-7.30421,7.44814
    c-0.28548,0.41413-0.56451,0.82301-0.85645,1.23069c-1.43506,2.02407-0.06294,8.39466-8.17213,13.78661
    c-1.18184,2.52564-5.39194,4.75027-5.7006,4.63333c-0.30484-0.11324-1.92254-0.43336-1.72449-1.78112
    c0.05017-0.33302,0.11443-0.70212,0.18132-1.10717c-0.08744-2.80717,5.80608-14.19048,7.28881-16.18492
    c0.30221-0.39991,0.60442-0.80378,0.90913-1.21133c2.61176-2.59254,3.15442-6.37705,4.53812-9.45562
    c0.19936-0.45272,0.39991-0.88991,0.61337-1.3309c1.28086-3.16601,3.45663-5.6428,5.30965-8.28537
    c0.26363-0.37806,0.53752-0.75229,0.81142-1.11626c3.40145-3.68549,4.86219-7.44946,7.76589-11.02447
    C87.47321,46.17665,93.01303,44.06646,93.20594,44.18471z"/>
  <path fill="#D0D2D3" d="M43.03863,123.43391c0,3.18906-2.6298,5.77645-5.87561,5.77645c-3.24054,0-5.87034-2.58739-5.87034-5.77645
    c0-2.2158,0.96325-6.84254,4.00455-12.21394c1.33735-2.36104,2.87789-3.29597,2.44071-1.58044
    C36.12537,115.96891,43.03863,120.24091,43.03863,123.43391z"/>
  <path fill="#FFFFFF" d="M40.57343,121.56535c0.11061,2.26965-1.56503,3.98006-3.44767,4.11504
    c-1.87869,0.13628-3.25212-1.35276-3.36274-3.62373c-0.07453-1.57661,0.25586-3.98269,1.83629-7.93049
    c0.69317-1.73859,0.88858-2.97691,0.69317-1.73859C35.57232,116.95652,40.46664,119.29438,40.57343,121.56535z"/>

</svg>
