<svg version="1.1" xmlns="http://www.w3.org/2000/svg" xmlns:xlink="http://www.w3.org/1999/xlink" width="160px"
  height="160px" viewBox="0 0 160 160" >
  <ellipse fill="#FCEC97" cx="75.24768" cy="100.6841" rx="58.89587" ry="24.59063"/>
  <path fill="#DFA872" d="M45.5323,80.08223l14.65261-9.69878c6.32508,8.37186,25.25349,11.89266,38.51047,8.72785L83.07411,95.88896
    C71.50003,100.90123,53.64521,91.0612,45.5323,80.08223z"/>
  <path fill="#C08041" d="M40.42324,89.24303c0-0.64888-1.08996-1.17396-2.43671-1.17396c-1.34436,0-2.43658,0.52508-2.43658,1.17396
    c0,0.11209,0,0.53094,0,0.64183c0,0.64888,1.09222,1.17635,2.43658,1.17635c1.34676,0,2.43671-0.52747,2.43671-1.17635
    C40.42324,89.77396,40.42324,89.35512,40.42324,89.24303z"/>
  <path fill="#C08041" d="M39.99615,85.46901c0-0.53333-0.90091-0.96747-2.00962-0.96747c-1.1062,0-2.0071,0.43414-2.0071,0.96747
    c0,0.09333-0.42948,3.66431-0.42948,3.77402c0,0.64888,1.09222,1.17635,2.43658,1.17635c1.34676,0,2.43671-0.52747,2.43671-1.17635
    C40.42324,89.13332,39.99615,85.56234,39.99615,85.46901z"/>
  <path fill="#C08041" d="M40.42086,85.28342c0.01875-0.64876-1.05722-1.21602-2.40158-1.26609
    c-1.34676-0.04911-2.45069,0.43522-2.46933,1.0829c-0.00239,0.11209-0.01398,0.53094-0.01864,0.64183
    c-0.01637,0.64888,1.05961,1.21602,2.40397,1.26621c1.34436,0.05019,2.45068-0.43534,2.46693-1.08302
    C40.40686,85.81329,40.41858,85.39432,40.42086,85.28342z"/>
  <path fill="#C08041" d="M40.09653,81.49423c0.01625-0.53213-0.87066-1.00009-1.97926-1.04095
    c-1.10632-0.04195-2.01655,0.35718-2.03053,0.89158c-0.00466,0.09106-0.53213,3.64449-0.53679,3.75538
    c-0.01864,0.64888,1.05721,1.21602,2.40396,1.26621c1.34436,0.05019,2.4483-0.43533,2.46695-1.08302
    C40.42324,85.17265,40.09653,81.58649,40.09653,81.49423z"/>
  <path fill="#C08041" d="M40.57501,81.61445c0.04433-0.64529-1.00368-1.27554-2.34565-1.40614
    c-1.33969-0.13074-2.46467,0.28931-2.51378,0.93472c-0.00693,0.1109-0.03967,0.52866-0.04433,0.63944
    c-0.0466,0.64768,1.00128,1.27792,2.34098,1.40746c1.34209,0.12953,2.46706-0.28824,2.51366-0.93592
    C40.53532,82.14311,40.56556,81.72534,40.57501,81.61445z"/>
  <path fill="#C08041" d="M40.41858,77.81247c0.03728-0.53333-0.82622-1.05148-1.93015-1.15891
    c-1.10632-0.10731-2.03292,0.23816-2.07032,0.77029c-0.00932,0.09106-0.69309,3.60827-0.70253,3.71916
    c-0.0466,0.64649,1.00367,1.27661,2.34565,1.40615c1.3397,0.13073,2.46467-0.28704,2.51379-0.93472
    C40.57966,81.50356,40.41153,77.9046,40.41858,77.81247z"/>
  <path fill="#C08041" d="M40.90398,77.71794c0.07469-0.64422-0.94524-1.33277-2.28028-1.54166
    c-1.33265-0.20649-2.47626,0.14591-2.55095,0.78893c-0.01171,0.1097-0.05843,0.52628-0.07241,0.63598
    c-0.07469,0.64302,0.94524,1.33277,2.27801,1.54046c1.33265,0.20769,2.47865-0.14471,2.55095-0.78893
    C40.841,78.24302,40.89,77.82764,40.90398,77.71794z"/>
  <path fill="#C08041" d="M40.91569,73.91118c0.05832-0.52974-0.78188-1.09808-1.87888-1.26968
    c-1.09927-0.1704-2.03985,0.12022-2.10054,0.64888c-0.0116,0.09106-0.84953,3.56394-0.86351,3.67484
    c-0.07241,0.64303,0.94751,1.33146,2.28028,1.54154c1.33265,0.20661,2.47626-0.14699,2.55095-0.78882
    C40.91569,77.60705,40.90398,74.00224,40.91569,73.91118z"/>
  <path fill="#C08041" d="M41.39656,74.06988c0.10026-0.63944-0.89158-1.38046-2.2173-1.6571
    c-1.32334-0.27652-2.47866,0.01637-2.57677,0.65582c-0.01864,0.1097-0.08401,0.52173-0.10026,0.63023
    c-0.09811,0.63944,0.89385,1.38165,2.21718,1.65829c1.32572,0.27653,2.47865-0.01756,2.57903-0.65581
    C41.31482,74.59161,41.38018,74.17958,41.39656,74.06988z"/>
  <path fill="#C08041" d="M41.55525,70.2679c0.07935-0.52628-0.73755-1.13668-1.82749-1.3654
    c-1.08996-0.22752-2.04224,0.01398-2.12399,0.54037c-0.01398,0.08987-0.98491,3.51614-1.00128,3.62572
    c-0.10026,0.63728,0.89158,1.37938,2.2173,1.65721c1.32333,0.27652,2.47865-0.01756,2.57676-0.65593
    C41.41281,73.96017,41.53888,70.35896,41.55525,70.2679z"/>
  <path fill="#C08041" d="M42.08738,70.28426c0.13766-0.63023-0.81224-1.44594-2.11692-1.82284
    c-1.30708-0.37809-2.47399-0.17387-2.60938,0.45506c-0.02329,0.10743-0.11197,0.51468-0.13539,0.62318
    c-0.13539,0.62904,0.81223,1.44594,2.11932,1.82284c1.30469,0.3781,2.47161,0.17387,2.60699-0.45505
    C41.97768,70.79883,42.06397,70.39158,42.08738,70.28426z"/>
  <path fill="#C08041" d="M42.46309,66.5032c0.11208-0.51814-0.6698-1.19152-1.74349-1.50306
    c-1.07586-0.31046-2.03985-0.14232-2.15183,0.37571c-0.01876,0.08878-1.18567,3.43333-1.2067,3.54063
    c-0.13766,0.63024,0.80984,1.44714,2.11455,1.82404c1.30707,0.37809,2.47637,0.17387,2.61176-0.45625
    C42.11068,70.17564,42.44444,66.59187,42.46309,66.5032z"/>
  <path fill="#C08041" d="M42.69646,65.87308c0.04206-0.6092-0.95217-1.19391-2.21718-1.30469
    c-1.26741-0.11089-2.32462,0.29517-2.36429,0.90556c-0.00705,0.10504-0.03273,0.49939-0.03968,0.60442
    c-0.04205,0.60921,0.95457,1.19499,2.21958,1.3047c1.26728,0.1097,2.32461-0.29517,2.36429-0.90556
    C42.66624,66.37247,42.69181,65.97812,42.69646,65.87308z"/>
  <path fill="#C08041" d="M42.52618,62.28811c0.03262-0.5019-0.78654-0.98264-1.82989-1.0737
    c-1.04095-0.09094-1.91376,0.24282-1.94652,0.7446c-0.00693,0.08628-0.62785,3.4099-0.63478,3.51495
    c-0.04206,0.61028,0.95456,1.19499,2.21957,1.30469c1.26501,0.11078,2.32462-0.29408,2.3619-0.90556
    C42.70591,65.76912,42.51913,62.37439,42.52618,62.28811z"/>
  <path fill="#C08041" d="M42.72921,61.66492c-0.0374-0.6104-1.09461-1.01992-2.36202-0.91488
    c-1.26502,0.10492-2.25925,0.68616-2.22185,1.29644c0.00693,0.10504,0.03024,0.49831,0.0373,0.60335
    c0.03739,0.61148,1.09461,1.02112,2.36201,0.91608c1.26501-0.10624,2.26152-0.68616,2.22424-1.29657
    C42.76184,62.16431,42.73614,61.76996,42.72921,61.66492z"/>
  <path fill="#C08041" d="M42.10602,58.14759c-0.03262-0.50177-0.90329-0.8402-1.94413-0.7538
    c-1.04335,0.08747-1.8649,0.56595-1.83227,1.06892c0.00478,0.0864-0.19133,3.47874-0.18428,3.58377
    c0.03968,0.6104,1.09461,1.01992,2.35963,0.91489c1.26728-0.10504,2.26391-0.68497,2.22424-1.29645
    C42.72455,61.55988,42.11068,58.23399,42.10602,58.14759z"/>
  <path fill="#C08041" d="M42.04065,57.32018c-0.09106-0.53798-1.0689-0.7667-2.18456-0.51348
    c-1.11325,0.25334-1.94186,0.89278-1.8508,1.43076c0.01625,0.09225,0.07469,0.43999,0.08867,0.53106
    c0.09333,0.53786,1.06892,0.76778,2.18456,0.51456c1.11325-0.25322,1.94425-0.89505,1.8508-1.43184
    C42.11535,57.76017,42.05464,57.41243,42.04065,57.32018z"/>
  <path fill="#C08041" d="M41.15373,54.27558c-0.07696-0.44119-0.87986-0.63251-1.79715-0.42243
    c-0.91954,0.20769-1.60105,0.73635-1.52875,1.17862c0.01398,0.07588,0.16109,3.11355,0.17746,3.20568
    c0.09094,0.53799,1.06892,0.76671,2.18217,0.51468c1.11564-0.25441,1.94425-0.89397,1.85319-1.43196
    C42.02428,57.22804,41.16772,54.35254,41.15373,54.27558z"/>
  <path fill="#C08041" d="M40.72438,53.10855c-0.1844-0.4388-1.06666-0.38036-1.97688,0.12835
    c-0.90569,0.50882-1.49374,1.27553-1.30934,1.71313c0.03261,0.07469,0.14938,0.35719,0.1796,0.43187
    c0.18439,0.4388,1.06904,0.38037,1.97688-0.12727c0.90568-0.50883,1.49374-1.27553,1.30935-1.71421
    C40.87376,53.46574,40.757,53.18324,40.72438,53.10855z"/>
  <path fill="#C08041" d="M39.3683,50.72562c-0.15176-0.36065-0.87987-0.31273-1.62674,0.10504
    c-0.74687,0.42004-1.23,1.05028-1.08063,1.412c0.02559,0.0607,0.74448,2.63268,0.77723,2.70737
    c0.18199,0.43761,1.06652,0.38049,1.97447-0.12834c0.90796-0.50883,1.49374-1.27661,1.31175-1.71314
    C40.69402,53.03387,39.39626,50.7874,39.3683,50.72562z"/>
  <path fill="#C08041" d="M38.68906,49.73486c-0.26134-0.32217-1.01526,0.00347-1.68279,0.72464
    c-0.66751,0.72356-0.99662,1.57081-0.73516,1.89286c0.04433,0.05365,0.21235,0.26254,0.25668,0.31739
    c0.25909,0.32217,1.01299-0.00227,1.68052-0.72584c0.66752-0.72118,0.99662-1.56842,0.73755-1.89048
    C38.89915,49.99739,38.7334,49.78971,38.68906,49.73486z"/>
  <path fill="#C08041" d="M36.95967,48.09294c-0.21474-0.26493-0.83327,0.00227-1.38404,0.59749
    c-0.55089,0.59511-0.82156,1.29298-0.60693,1.55899c0.0374,0.04445,1.25808,2.0469,1.30242,2.10294
    c0.25908,0.32205,1.0106-0.00466,1.67813-0.72584c0.66752-0.72237,0.99889-1.57082,0.73981-1.89167
    C38.64246,49.68001,36.99696,48.13955,36.95967,48.09294z"/>
  <path fill="#37B34A" d="M25.26646,65.27439c5.83956-1.94532,4.61194-7.6753,3.87201-11.15284
    c-0.74914-3.48818-0.57646-5.82092,0.73994-7.26327c0.93126-1.01538,4.27818-1.45179,5.58287-0.72476
    c-2.23595,0.28596-2.57676,3.61186-2.97588,7.55043C32.12594,57.20354,31.23914,63.3103,25.26646,65.27439z"/>
  <path fill="#37B34A" d="M13.47991,50.09431c3.72036,3.63623,8.71973,0.22047,11.75392-1.84853
    c3.04579-2.08072,5.30038-2.95485,7.08354-2.56851c1.25797,0.27652,2.7517,2.65252,2.48797,3.96653
    c-0.99184-1.58946-4.23612-0.4143-8.07549,0.98025C23.29891,51.86696,17.26098,53.82399,13.47991,50.09431z"/>
  <path fill="#37B34A" d="M53.35339,43.99914c-1.9838,4.81031-6.78014,2.01882-10.22279,1.35835
    c-3.44958-0.66047-5.76953-0.54611-7.20722,0.52747c-1.01992,0.75619-2.42271,3.51028-1.71314,4.59557
    c0.30807-1.84387,3.61293-0.23577,7.52234-0.52042C45.22184,49.71036,51.35548,48.92142,53.35339,43.99914z"/>
  <path fill="#37B34A" d="M48.90026,32.34093c0.89385,5.56531-5.91903,8.01373-10.05716,9.50161
    c-4.14972,1.48907-6.58403,2.9968-7.45937,4.83947c-0.62546,1.3035,0.61626,4.09726,2.07259,4.65269
    c-0.82848-1.86012,2.58142-4.07504,6.62849-6.70079C43.7048,42.29066,49.84549,38.01953,48.90026,32.34093z"/>
  <path fill="#37B34A" d="M13.50799,58.10206c6.20594,1.04454,9.44317-4.18593,11.41299-7.3578
    c1.97221-3.18584,3.83938-5.01215,5.982-5.59566c1.51238-0.40845,4.56761,0.74448,5.09269,1.92549
    c-2.03758-0.77364-2.73772,2.68526-5.97721,5.72054C27.11726,55.50439,19.83762,59.19093,13.50799,58.10206z"/>
  <path fill="#37B34A" d="M33.60809,66.79729c4.93627-3.11355,1.75508-8.36027-0.18439-11.55317
    c-1.93254-3.19278-2.58608-5.47425-1.82284-7.14305c0.53679-1.17754,3.606-2.30944,5.11599-1.8894
    c-2.0469,0.75392-1.21124,4.02736-0.2194,7.90056C37.38678,57.57232,38.67043,63.63474,33.60809,66.79729z"/>
  <path fill="#37B34A" d="M55.05254,53.19029c-5.63187,2.28255-10.51687-2.09589-13.48797-4.76012
    c-2.9711-2.66196-5.38917-4.04361-7.65308-4.16729c-1.59651-0.08759-4.15677,1.65471-4.26647,2.90228
    c1.70609-1.16117,3.03874,2.17643,7.19086,4.43807C40.53999,53.62443,49.31337,55.54287,55.05254,53.19029z"/>
  <polygon fill="#C08041" points="101.60817,77.94786 85.85856,94.23067 83.07411,94.23067 98.826,77.94786"/>
  <polygon fill="#A36C35" points="101.60817,79.60615 85.85856,95.88896 85.85856,94.23067 101.60817,77.94786"/>
  <rect x="83.07408" y="94.23067" fill="#C08041" width="2.78445" height="1.65829"/>
  <polygon fill="#EFB97D" points="41.86799,65.44707 40.86431,65.03981 42.75024,78.42514 43.60442,79.20116"/>
  <polygon fill="#EFB97D" points="41.91231,65.97573 40.86431,65.03981 57.41217,68.72517 57.41217,69.59571"/>
  <polygon fill="#EFB97D" points="108.44901,85.825 108.02192,87.39449 101.60817,79.60615 101.60817,77.94786"/>
  <polygon fill="#EFB97D" points="108.44901,85.825 108.02192,87.39449 85.85856,95.88896 85.85856,94.23067"/>
  <polygon fill="#C08041" points="60.18491,68.72517 45.5323,78.42514 42.75024,78.42514 57.40286,68.72517"/>
  <polygon fill="#A36C35" points="60.18491,70.38345 45.5323,80.08223 45.5323,78.42514 60.18491,68.72517"/>
  <rect x="42.75027" y="78.42514" fill="#C08041" width="2.78206" height="1.65709"/>
  <path fill="#A36C35" d="M107.98452,106.03479c0-0.80411,1.35143-1.45406,3.01782-1.45406
    c1.66643,0,3.01783,0.64996,3.01783,1.45406c0,0.13885,0,0.65701,0,0.79467c0,0.80411-1.3514,1.45526-3.01783,1.45526
    c-1.6664,0-3.01782-0.65115-3.01782-1.45526C107.98452,106.6918,107.98452,106.17365,107.98452,106.03479z"/>
  <path fill="#A36C35" d="M108.51437,101.36095c0-0.66167,1.11326-1.19846,2.48797-1.19846c1.37233,0,2.4857,0.53679,2.4857,1.19846
    c0,0.11436,0.53213,4.53725,0.53213,4.67384c0,0.80399-1.3514,1.45514-3.01783,1.45514c-1.6664,0-3.01782-0.65115-3.01782-1.45514
    C107.98452,105.8982,108.51437,101.4753,108.51437,101.36095z"/>
  <path fill="#A36C35" d="M107.98691,101.12995c-0.02342-0.80291,1.30935-1.50545,2.97576-1.56734
    c1.66642-0.06178,3.0342,0.53918,3.0575,1.3409c0.00227,0.13885,0.01865,0.6582,0.02103,0.79478
    c0.02332,0.80399-1.30935,1.50533-2.97588,1.56723c-1.66402,0.06298-3.03408-0.53679-3.05511-1.3397
    C108.00555,101.78577,107.99158,101.26762,107.98691,101.12995z"/>
  <path fill="#A36C35" d="M108.38831,96.43866c-0.01865-0.66047,1.07823-1.23933,2.45295-1.29071
    c1.37006-0.05138,2.49502,0.44347,2.51605,1.10632c0.00239,0.11197,0.65821,4.51157,0.66286,4.64923
    c0.02103,0.80411-1.31174,1.50545-2.97576,1.56842c-1.66653,0.0619-3.0342-0.53918-3.0575-1.34197
    C107.98452,100.99217,108.39071,96.55302,108.38831,96.43866z"/>
  <path fill="#A36C35" d="M107.79786,96.58684c-0.05603-0.80052,1.24159-1.58121,2.90335-1.7411
    c1.65948-0.16228,3.05284,0.35587,3.11356,1.15651c0.00931,0.13766,0.049,0.65581,0.05604,0.79227
    c0.05831,0.80172-1.24171,1.58134-2.90108,1.7423c-1.65948,0.16228-3.05523-0.35706-3.11127-1.15759
    C107.84686,97.24265,107.80945,96.7257,107.79786,96.58684z"/>
  <path fill="#A36C35" d="M107.99158,91.8781c-0.04673-0.65939,1.02219-1.30122,2.38998-1.43423
    c1.36765-0.133,2.51592,0.29528,2.56503,0.95336c0.00932,0.11436,0.85657,4.46843,0.86817,4.60502
    c0.05604,0.80052-1.24398,1.58241-2.90348,1.74337c-1.66175,0.16109-3.05284-0.35706-3.11343-1.15878
    C107.79082,96.45037,108.00089,91.99126,107.99158,91.8781z"/>
  <path fill="#A36C35" d="M107.38941,91.76135c-0.09344-0.79707,1.17157-1.65244,2.82401-1.90912
    c1.65016-0.25681,3.06455,0.17973,3.15788,0.97786c0.01637,0.13539,0.07469,0.65008,0.09106,0.78654
    c0.09106,0.79586-1.17168,1.65016-2.82172,1.90804c-1.65016,0.25681-3.06683-0.17853-3.16027-0.97678
    C107.46637,92.4125,107.40566,91.89674,107.38941,91.76135z"/>
  <path fill="#A36C35" d="M107.37531,87.04675c-0.0723-0.65581,0.96627-1.35954,2.327-1.57069
    c1.36073-0.21247,2.52538,0.14698,2.60233,0.8028c0.0141,0.11209,1.05267,4.41238,1.06664,4.55124
    c0.09106,0.79586-1.17157,1.65016-2.82412,1.90685c-1.65004,0.25681-3.06443-0.17973-3.15776-0.97559
    C107.37304,91.62369,107.38941,87.15884,107.37531,87.04675z"/>
  <path fill="#A36C35" d="M106.7802,87.24405c-0.12607-0.7924,1.10394-1.70967,2.74477-2.05276
    c1.64072-0.342,3.06909,0.02103,3.19279,0.81223c0.02102,0.13528,0.10277,0.64649,0.12379,0.78188
    c0.12129,0.79121-1.10871,1.71075-2.74716,2.05156c-1.64072,0.34309-3.06682-0.01984-3.19277-0.80996
    C106.88058,87.89053,106.80124,87.37932,106.7802,87.24405z"/>
  <path fill="#A36C35" d="M106.58411,82.53519c-0.10026-0.65115,0.91261-1.40853,2.26403-1.68971
    c1.34902-0.2825,2.52766,0.01625,2.62804,0.66752c0.01863,0.11197,1.22066,4.35514,1.24159,4.49053
    c0.12379,0.79121-1.10622,1.70848-2.74467,2.05156c-1.64084,0.34309-3.07148-0.01984-3.19289-0.81104
    C106.7569,87.10746,106.60287,82.64728,106.58411,82.53519z"/>
  <path fill="#A36C35" d="M105.92364,82.55502c-0.16801-0.7783,1.00594-1.79009,2.62109-2.25805
    c1.61742-0.46677,3.06443-0.21355,3.23244,0.56475c0.03036,0.13419,0.13779,0.63836,0.16575,0.77256
    c0.1704,0.77842-1.00594,1.79021-2.62097,2.25698c-1.61515,0.46915-3.06216,0.21474-3.2303-0.56487
    C106.0613,83.19339,105.95399,82.68922,105.92364,82.55502z"/>
  <path fill="#A36C35" d="M105.45914,77.87198c-0.14005-0.64183,0.82861-1.4739,2.16126-1.86024
    c1.33038-0.38503,2.52537-0.17614,2.66303,0.46569c0.02342,0.11089,1.46577,4.2513,1.49374,4.3843
    c0.16814,0.77961-1.00355,1.79021-2.62097,2.25937c-1.61514,0.46676-3.06455,0.21461-3.23257-0.56607
    C105.89329,82.42083,105.48257,77.98287,105.45914,77.87198z"/>
  <path fill="#A36C35" d="M105.16972,77.09356c-0.05126-0.755,1.17875-1.47975,2.74716-1.61623
    c1.56844-0.13658,2.87778,0.36639,2.92677,1.12138c0.00932,0.12953,0.04195,0.61745,0.049,0.74806
    c0.05138,0.75511-1.18101,1.47976-2.74944,1.61515c-1.56842,0.13766-2.87778-0.36411-2.92677-1.12031
    C105.20939,77.71209,105.17677,77.22429,105.16972,77.09356z"/>
  <path fill="#A36C35" d="M105.38219,72.65441c-0.04206-0.62199,0.9732-1.21841,2.26391-1.33158
    c1.29073-0.11197,2.37134,0.30114,2.41101,0.92313c0.00694,0.10731,0.7795,4.22334,0.78654,4.35275
    c0.05138,0.75631-1.18101,1.47975-2.74704,1.61634c-1.56843,0.13647-2.88017-0.36411-2.9269-1.1215
    C105.15813,76.96522,105.38912,72.76053,105.38219,72.65441z"/>
  <path fill="#A36C35" d="M105.13004,71.88304c0.04433-0.75631,1.35381-1.26274,2.92223-1.1344
    c1.57069,0.13073,2.8007,0.84964,2.75397,1.60583c-0.00932,0.12954-0.03728,0.61733-0.04661,0.74806
    c-0.04672,0.755-1.35607,1.26382-2.9245,1.13309c-1.56843-0.13073-2.8007-0.84952-2.7541-1.60571
    C105.09037,72.50037,105.12072,72.01138,105.13004,71.88304z"/>
  <path fill="#A36C35" d="M105.90034,67.52779c0.04193-0.62319,1.1179-1.04096,2.40862-0.93592
    c1.29298,0.1097,2.31063,0.70134,2.27097,1.32333c-0.00933,0.10743,0.23576,4.30854,0.22633,4.43927
    c-0.049,0.755-1.35596,1.26263-2.92211,1.13201c-1.56843-0.12846-2.80309-0.84844-2.7541-1.60344
    C105.13709,71.75231,105.89329,67.63282,105.90034,67.52779z"/>
  <path fill="#A36C35" d="M105.98196,66.50093c0.11437-0.66525,1.32345-0.95002,2.70511-0.6349
    c1.37936,0.31273,2.40395,1.10632,2.29425,1.77145c-0.02103,0.11436-0.09333,0.54384-0.11197,0.6582
    c-0.11436,0.66513-1.32333,0.9511-2.7051,0.63717c-1.37938-0.31393-2.40636-1.1086-2.29199-1.77384
    C105.89101,67.04585,105.96331,66.61529,105.98196,66.50093z"/>
  <path fill="#A36C35" d="M107.07896,62.73157c0.09572-0.54742,1.08995-0.78308,2.22889-0.52281
    c1.13668,0.25668,1.98154,0.91142,1.89059,1.45872c-0.01637,0.09452-0.19849,3.85564-0.21712,3.96999
    c-0.11436,0.66525-1.32572,0.9499-2.70498,0.63717c-1.37936-0.31273-2.40636-1.1074-2.29438-1.77372
    C106.00298,66.38657,107.06258,62.8261,107.07896,62.73157z"/>
  <path fill="#A36C35" d="M107.61347,61.28563c0.22874-0.54264,1.32095-0.47035,2.44591,0.15989
    c1.1227,0.63012,1.85092,1.57894,1.6222,2.12159c-0.03967,0.09094-0.18439,0.44227-0.22406,0.5344
    c-0.22646,0.54156-1.32106,0.47154-2.44603-0.1575c-1.12268-0.63012-1.8508-1.58121-1.62208-2.12278
    C107.4267,61.7279,107.5738,61.37896,107.61347,61.28563z"/>
  <path fill="#A36C35" d="M109.29387,58.33437c0.18439-0.44585,1.08769-0.38742,2.01427,0.13061
    c0.9242,0.52054,1.5217,1.30242,1.33731,1.74815c-0.03501,0.07708-0.9242,3.26065-0.96387,3.35398
    c-0.22646,0.54145-1.32106,0.47023-2.44376-0.15989c-1.12496-0.63024-1.8508-1.57894-1.62435-2.12159
    C107.65076,61.1923,109.25658,58.41132,109.29387,58.33437z"/>
  <path fill="#A36C35" d="M110.13406,57.10902c0.32444-0.40032,1.2557,0.00227,2.08192,0.89744
    c0.82621,0.89505,1.23466,1.94413,0.91261,2.34206c-0.05605,0.06775-0.26373,0.32683-0.31978,0.39447
    c-0.31978,0.39912-1.25331-0.00466-2.07951-0.89864c-0.82861-0.89505-1.23707-1.94413-0.91263-2.34325
    C109.87272,57.43454,110.07814,57.17666,110.13406,57.10902z"/>
  <path fill="#A36C35" d="M112.27442,55.07491c0.266-0.3279,1.03151,0.00359,1.71301,0.73874
    c0.68162,0.73874,1.02004,1.60224,0.75165,1.93134c-0.04446,0.05605-1.55444,2.5335-1.61049,2.60353
    c-0.32205,0.39912-1.2533-0.00466-2.07952-0.89851c-0.82622-0.89397-1.23705-1.94425-0.91501-2.34099
    C110.19011,57.04019,112.22769,55.13215,112.27442,55.07491z"/>
  <path fill="#37B34A" d="M121.63359,79.07162c-5.68793-2.40862-4.49294-9.50388-3.77176-13.81014
    c0.73061-4.32013,0.56021-7.20961-0.72118-8.99505c-0.91022-1.25797-4.17075-1.79834-5.44044-0.89863
    c2.17764,0.35479,1.15066,4.79406,1.53807,9.67201C113.5907,69.39735,115.81493,76.63959,121.63359,79.07162z"/>
  <path fill="#37B34A" d="M135.24762,60.42201c-4.04015,5.13356-9.47125,0.31046-12.77145-2.61045
    c-3.30965-2.93621-5.75555-4.17088-7.69514-3.62584c-1.36766,0.3898-2.98975,3.74606-2.70043,5.59912
    c1.07597-2.24288,4.60262-0.58578,8.7711,1.38404C124.57899,62.92528,131.13985,65.6875,135.24762,60.42201z"/>
  <path fill="#37B34A" d="M88.81568,53.1879c2.49729,5.61203,8.53761,2.35389,12.87183,1.5848
    c4.34116-0.77256,7.26328-0.63717,9.07679,0.61613c1.28127,0.88107,3.04818,4.09499,2.15422,5.36348
    c-0.38504-2.15421-4.54887-0.27652-9.47127-0.60682C99.05483,59.85141,91.33173,58.93293,88.81568,53.1879z"/>
  <path fill="#37B34A" d="M93.08215,35.62023c-1.15066,7.9284,7.63443,11.41539,12.97221,13.53458
    c5.34937,2.12159,8.48862,4.26647,9.62063,6.89223c0.80518,1.85785-0.79826,5.83729-2.67248,6.62849
    c1.06904-2.64906-3.33055-5.80455-8.55159-9.54355C99.78294,49.79436,91.86386,43.70852,93.08215,35.62023z"/>
  <path fill="#37B34A" d="M133.09329,70.18855c-6.04964,1.29537-9.20274-5.18136-11.12369-9.10953
    c-1.92082-3.94431-3.74127-6.20714-5.82558-6.9307c-1.47498-0.50525-4.45312,0.92193-4.96435,2.38532
    c1.98392-0.95802,3.02954,4.25835,6.18742,8.016C120.1935,67.90588,126.92464,71.53996,133.09329,70.18855z"/>
  <path fill="#37B34A" d="M113.50668,80.95744c-4.81031-3.85683-1.71075-10.35352,0.17734-14.30607
    c1.88354-3.95255,2.52073-6.77894,1.7785-8.84687c-0.5228-1.45633-3.51494-2.85913-4.98537-2.33859
    c1.99564,0.93353,0.02568,4.2875-0.94059,9.08372C108.66841,68.83367,108.57269,77.0411,113.50668,80.95744z"/>
  <path fill="#37B34A" d="M92.60834,64.10736c5.48955,2.82532,10.24847-2.59647,13.1449-5.89441
    c2.89414-3.29794,5.2515-5.00868,7.45709-5.16045c1.55672-0.10958,4.04935,2.04929,4.15678,3.59202
    c-1.66186-1.43769-3.26292,1.99791-7.30772,4.80099C106.44884,63.94986,98.20293,67.02135,92.60834,64.10736z"/>

</svg>
