<?xml version="1.0" encoding="utf-8"?>
<!DOCTYPE svg PUBLIC "-//W3C//DTD SVG 1.1//EN" "http://www.w3.org/Graphics/SVG/1.1/DTD/svg11.dtd">
<svg version="1.1" xmlns="http://www.w3.org/2000/svg" xmlns:xlink="http://www.w3.org/1999/xlink" x="0px" y="0px" width="160px"
  height="160px" viewBox="0 0 160 160" enable-background="new 0 0 160 160" xml:space="preserve">
  <path fill="#9A84BD" d="M106.26465,62.10608c1.35588,3.96338,0.55742,17.31994-2.1267,17.89485
    c-9.57639,1.88322-23.09108,0.62774-32.72647-3.76128c-4.49701-2.0488-8.30843-3.03803-7.83008-7.67312
    c0.06646-0.64407,1.61325-8.52686,2.16051-8.48417c0.00257,0,1.1187,0.0878,3.03688,0.24348
    c14.12482,1.13746,23.38367,3.50276,34.82938,1.77523C105.2578,62.09348,106.26465,62.10608,106.26465,62.10608z"/>
  <path fill="#F0D0B3" d="M49.51173,59.48984c3.20888,0.33386,6.54581,1.35073,9.72088,1.48379
    c-0.38297-0.93769-3.23279-2.79827-1.48019-4.15042c0.77956-0.60511,3.814,3.34695,7.89783,5.38083
    c3.43116,1.70992,5.0331,6.32225,3.80783,8.24056c-2.02129-0.24606-18.28656-0.24348-18.12716-2.02373
    c0.14437-1.62829,5.27902-0.13807,5.23634-0.48954c-0.11416-0.97047-6.57718,0.58994-6.36377-1.81791
    c0.16455-1.84555,5.50515-0.80103,6.53707-0.67286c-1.12988-0.05284-7.3606,0.06273-7.1873-1.86188
    c0.16944-1.91831,8.55822-0.64522,7.42333-0.61887C54.3552,62.12498,46.18239,61.96043,49.51173,59.48984"/>
  <path fill="#587582" d="M131.76744,40.28424c0.71439,1.93592-0.20338,4.05748-2.05008,4.73793l-5.67832,2.09417
    c-1.84554,0.68032-3.92069-0.33656-4.63508-2.27235l-2.6012-7.05553c-0.7131-1.93592,0.20338-4.05761,2.05008-4.73806
    l5.67831-2.09405c1.84555-0.68045,3.92199,0.33656,4.63508,2.27235L131.76744,40.28424z"/>
  <path fill="#F0D0B3" d="M124.26749,39.08532c2.9654-8.66119-3.11337-17.80833-11.76453-19.89736
    c-8.64371-2.09148-17.39773,3.43244-19.54577,12.33339c-2.15189,8.90095,1.82665,21.31469,10.50289,23.27941
    C114.51035,57.30285,119.53959,52.90135,124.26749,39.08532z"/>
  <path fill="#808284" d="M99.98251,38.88323c0.44442,0.42179,1.00814,0.23089,1.25921-0.42436
    c0.25236-0.65538,0.0941-1.53046-0.34775-1.95353c-0.44441-0.42051-1.00813-0.23089-1.2592,0.42565
    C99.38241,37.58752,99.53938,38.46132,99.98251,38.88323z"/>
  <path fill="#9A84BD" d="M132.46678,134.89583c-6.59235,4.09515-31.04175,8.21806-33.19737,3.61307
    c-7.38695-16.50632-10.75151-41.43163-6.83956-60.65717c1.82537-8.97011,2.02502-16.2654,10.59326-17.33254
    c1.19017-0.15067,16.06705-0.63892,16.21771,0.36407c0,0.00887,1.18503,2.03889,0.8261,5.58665
    c-3.12109,30.95895,3.41599,43.68021,11.30379,63.62642C132.06877,133.07047,132.46678,134.89583,132.46678,134.89583z"/>
  <path fill="none" d="M116.94584,60.395c4.73048,1.25663,4.35381,5.34304,4.99157,9.40437"/>
  <path fill="#587582" d="M124.26749,39.08532c3.52526-8.44278-3.11337-17.80833-11.76453-19.89736
    c-8.64371-2.09148-17.39773,3.43244-19.54577,12.33339C92.95718,31.52135,115.98038,29.27535,124.26749,39.08532z"/>
  <path fill="#F05A22" d="M28.82477,114.12853c7.55896-4.95518,15.06264-14.17252,22.41693-12.09737
    c7.35429,2.07656,9.65557,18.57787,10.12506,25.93473c-1.12114,3.87172-8.39251,7.29903-14.6546,5.11459
    c-2.14431-8.01468-9.34293-12.79156-16.51647-17.81578C29.33707,114.5592,28.82477,114.12853,28.82477,114.12853z"/>
  <path fill="#EF7D32" d="M23.97012,107.66307c9.01395,0.68803,22.04656-2.20949,27.70096,2.92773
    c2.8524,2.57111-4.29608,4.32359-5.13465,9.92541c-0.73315,4.88101-2.46814,9.7345-4.5145,12.49152
    c-3.36585,4.44661-13.26491,0.33643-20.41326,1.24275c1.59679-8.14261,5.37068-16.49257,2.75431-24.85242
    C24.11693,108.31343,23.97012,107.66307,23.97012,107.66307z"/>
  <path fill="#00ADEE" d="M45.44666,88.7237c-5.96705-6.89484-5.20754-21.1414-2.54348-26.48701
    c1.24288-2.49334,4.3727-4.81082,7.2715-4.99157c6.65367-0.41434,4.43916,5.45102,4.41911,5.75236
    c0,0,0.16687,0.90387,0.13434,1.9597c-0.28758,9.40695-2.38908,15.44175,3.70215,29.04553
    C55.42993,100.8122,46.43847,89.86862,45.44666,88.7237z"/>
  <path fill="#F5E0CD" d="M42.4688,52.71803c-5.29406-2.72179-8.34225-6.3738-9.96552-13.38794
    c-1.69231-7.29902,4.77058-14.42615,12.75004-15.59743c7.97458-1.17256,15.19955,3.91568,16.13235,11.36036
    c0.93653,7.44351-3.61563,16.12849-8.26833,17.60997C49.228,53.9433,43.72672,53.36583,42.4688,52.71803z"/>
  <linearGradient id="SVGID_1_" gradientUnits="userSpaceOnUse" x1="1775.52515" y1="-254.88934" x2="1811.61719" y2="-254.88934" gradientTransform="matrix(-0.972 0.2351 0.2351 0.972 1850.2384 -142.59039)">
    <stop  offset="0" style="stop-color:#D0D2D3"/>
    <stop  offset="0.5" style="stop-color:#ABADAF"/>
    <stop  offset="1" style="stop-color:#A6A8AB"/>
  </linearGradient>
  <path fill="url(#SVGID_1_)" d="M30.51207,40.04692c-0.18705-0.89385-0.28115-1.80531-0.29876-2.74814
    c-0.01761-1.09221-0.05271-2.18442-0.06775-3.27663c-0.00257-0.14309-0.27241-2.07142-0.29002-2.05394
    c1.10095-1.0557,2.37533-1.34071,2.37533-1.34328c0-1.31693-0.15452-1.85545-0.98551-3.00666
    c0.19078-0.89642,1.79014-2.59002,3.03057-2.50967c0.46949-0.86377,0.35906-1.8881,0.54739-2.74557
    c0,0,2.2748-1.14248,4.38646-0.54238c1.568-2.10536,2.81589-3.63697,2.81589-3.63697s2.8461-0.51474,3.96595,1.47891
    c0.80592-0.34144,2.58115-1.5203,4.21059-2.57999c0,0,3.11349,0.87508,3.99732,3.11735
    c2.19458,0.2134,5.18748,0.04512,5.18748,0.04512s1.50899,2.22337,0.05399,5.15985
    c1.74874,0.68289,5.27658,2.56353,5.27658,2.56353s0.52978,2.87875-3.80783,4.93513c0,0-5.63049-4.71415-19.08617,1.12615
    c-3.82158,1.65837-5.10843,3.85912-6.22442,6.11142c-1.11741,2.24973,0.03008,5.22258,0.94913,8.03976
    c-1.81662-1.73885-4.21072-3.22521-5.24649-5.63692C30.94775,41.71789,30.68793,40.89063,30.51207,40.04692z"/>
  <path fill="#F5E0CD" d="M60.64364,39.62642h-0.00373c-0.03767-0.08665-0.13807-0.13691-0.24233-0.11056
    c-0.05901,0.01389-1.79143,7.51383-1.79143,7.51383s1.34457,0.33772,3.16993,0.07906
    c1.82536-0.26238,1.31693-1.86689,1.31693-1.86689L60.64364,39.62642z"/>
  <path fill="#F0D0B3" d="M93.15054,38.87064h0.00244c0.0351-0.06531,0.11544-0.10169,0.19836-0.07533
    c0.04525,0.0126,1.06843,6.02104,1.06843,6.02104s-1.07846,0.20209-2.50967-0.08793
    c-1.42864-0.29002-0.95415-1.5329-0.95415-1.5329L93.15054,38.87064z"/>
  <path fill="#00ADEE" d="M58.77187,109.34792c-9.38059-20.22749-10.42267-30.54963-6.00099-51.82923
    c-0.19078,0.91905-0.44197,1.92461-0.73187,2.94779c0.25981-1.1588,0.50458-2.16681,0.73187-2.94779
    c-8.24686-3.88547-12.78784-3.18124-17.39271-3.14975c-4.00734,0.02636-8.87588,3.92186-9.83877,9.84623
    c-0.06659-0.44943-0.12431-0.74949-0.17329-0.79088c-0.1418,0.65037-0.43439,1.4325-0.38541,2.09778
    c-0.10542,21.29463-3.43103,32.79434-1.86059,44.22759c4.94387,6.42522,24.78853,6.55827,36.67365,6.50814
    C59.79375,116.2578,61.05167,113.67537,58.77187,109.34792z"/>
  <path fill="#808284" d="M55.14621,39.38537c-0.69934,0.36279-1.4514-0.00129-1.45384-0.82983
    c-0.00257-1.22411,2.52843-1.31448,2.52843-1.31448C56.32622,38.06215,55.84285,39.02375,55.14621,39.38537z"/>
  <path fill="#F5E0CD" d="M48.10571,77.21397c-0.46833-0.09551-0.60511-0.10297-1.14376,0.32139
    c-0.56115,0.44057-1.11985,0.97921-1.72111,1.35575c0.38914,0.93537,0.42938,1.19403,1.05956,0.53994
    c0.39917-0.41434,0.52477-0.78844,0.34774-1.40614c-0.18204-0.63777-0.97921-0.51474-1.47261-0.38914
    c-1.11985,0.29118-2.52844-0.15324-2.89752,0.94154c-0.41434,1.24044-0.76954,1.7877-1.45255,2.90511
    c-0.50085,0.82353-0.27241,2.46056-0.69176,3.32561c-0.52219,1.07845-0.9616,1.32066-1.42363,1.58933
    c-0.37165,0.21469-0.36664,0.78715-0.40174,1.22154c-0.05528,0.65666,0.18332,1.29057,0.4871,1.86303
    c0.55742,1.04709,1.72753,1.04837,2.59618,1.0872c0.87007,0.04024,2.78079-0.68417,4.53712-1.92075
    c1.07588-0.75835,2.1519-1.51284,3.20644-2.30115c0.48324-0.36665,1.00929-0.68173,1.51272-1.01817
    c0.40058-0.26868,0.90272-0.56243,1.1399-0.99939c0.07662-0.14308,0.12187-0.54984,0.07662-0.74074
    c-0.20839-0.93769-1.21524-0.25609-0.92894-0.44943c0.72055-0.48826,0.45444-1.03192,0.34016-1.36333
    c-0.30005-0.87753-1.11098-0.62402-1.46258-0.45702c0.46949-0.339,0.84615-0.72441,0.7257-1.34958
    c-0.09796-0.51346-0.47463-1.07589-1.0521-1.07332c-0.33399,0.00373-0.65782,0.16687-0.95658,0.30751
    c0.08035-0.25236,0.49456-0.33013,0.53981-0.5938C49.2883,77.32697,48.31153,77.25279,48.10571,77.21397z"/>
  <path fill="#F5E0CD" d="M20.18993,88.91949c4.92138,2.16938,15.01751,2.87245,20.94934,1.80659
    c2.74313-0.49082,3.00937-0.9679,2.56495-3.83778c-0.31895-2.04893-0.87881-2.50337-1.18014-2.53358
    c-0.00257-0.00116-2.92645-0.23218-3.97726-0.33142c-7.73212-0.76324-12.8831-4.20815-18.82881-6.47793
    C12.50178,79.37075,18.81901,88.28057,20.18993,88.91949z"/>
  <path fill="#00ADEE" d="M16.50282,83.66927c-2.05522-8.88334,5.27156-21.12623,10.12622-24.60637
    c2.26361-1.62456,5.54025-2.33008,8.18798-1.13734c6.07619,2.74429,1.19891,6.50814,1.04066,6.76423
    c0,0-0.35777,0.50214-0.87868,1.41862c-4.65141,8.18284-6.38511,7.71965-8.16664,12.73127
    C20.97708,83.45844,16.84684,85.14445,16.50282,83.66927z"/>
  <path fill="#F0D0B3" d="M122.70451,125.76258c-0.68418-3.1536-0.76208-6.64248-1.62829-9.69813
    c-0.77083,0.65525-1.64706,3.94448-3.48001,2.7016c-0.81851-0.55112,1.98863-4.6676,2.64388-9.18339
    c0.5524-3.79266,4.43414-6.75677,6.63875-6.19305c0.39673,1.99866,5.48124,17.45043,3.74111,17.85474
    c-1.59178,0.37153-1.7814-4.97151-2.1015-4.82085c-0.8864,0.41177,2.61624,6.06373,0.26109,6.61099
    c-1.80274,0.42191-2.47946-4.97897-2.68155-5.99842c0.30249,1.08977,2.36015,6.97274,0.47707,7.40958
    c-1.87563,0.43683-3.28679-7.92933-2.90639-6.85846C123.69502,120.33791,126.09169,128.15166,122.70451,125.76258"/>
  <path fill="#F5E0CD" d="M44.21265,97.4565c2.25847-1.57687,4.98026-2.78465,7.10066-4.47195
    c-0.76954-0.39158-3.647,0-3.27162-1.85043c0.16442-0.8261,4.32989,0.03008,8.10005-0.9391
    c3.16993-0.8135,4.61991,5.13221,2.45426,6.85216c-3.47744,2.76189-7.67311,5.91808-8.22295,5.15728
    c-0.81607-1.13232,3.32934-3.03816,3.10591-3.24154c-0.61642-0.56243-3.9144,4.05504-5.11961,2.38034
    c-0.9265-1.28054,3.10334-3.59056,3.84151-4.08512c-0.75951,0.59753-4.7153,4.15287-5.67831,2.81461
    c-0.96031-1.33325,5.16242-5.19752,4.44559-4.54458C48.80878,96.4521,43.44556,100.91145,44.21265,97.4565"/>
  <path fill="#9A84BD" d="M114.99488,107.97945c4.45433,1.23786,19.11767-0.49712,19.57841-3.49004
    c1.46014-10.66872-0.78714-25.47771-6.24074-35.80988c-2.54348-4.82213-3.87801-8.9588-8.95238-8.13514
    c-0.70564,0.11416-9.2915,2.32378-9.20858,2.92259c0.00128,0.00502,0.16815,1.22784,0.46203,3.33063
    c2.15923,15.48828,5.35564,25.53673,4.18681,38.25424C114.91839,106.86962,114.99488,107.97945,114.99488,107.97945z"/>

</svg>
