<?xml version="1.0" encoding="utf-8"?>
<!DOCTYPE svg PUBLIC "-//W3C//DTD SVG 1.1//EN" "http://www.w3.org/Graphics/SVG/1.1/DTD/svg11.dtd">
<svg version="1.1" xmlns="http://www.w3.org/2000/svg" xmlns:xlink="http://www.w3.org/1999/xlink" x="0px" y="0px" width="160px"
  height="160px" viewBox="0 0 160 160" enable-background="new 0 0 160 160" xml:space="preserve">
  <rect x="76.42035" y="83.29836" fill="#6D6E70" width="6.8259" height="53.93159"/>
  <polygon fill="#BF4A50" points="62.45583,111.18497 38.29306,87.02219 38.29306,52.85372 62.45583,28.69095 96.62602,28.69095
    120.78704,52.85372 120.78704,87.02219 96.62602,111.18497"/>
  <polygon fill="#BF4A50" stroke="#FFFFFF" stroke-width="2.30572" points="64.40786,106.47006 43.00792,85.07194 43.00792,54.80575
    64.40786,33.40762 94.67224,33.40762 116.07213,54.80575 116.07213,85.07194 94.67224,106.47006"/>
  <path fill="#FFFFFF" d="M65.99177,62.32913c-9.61488-8.8102-18.66011,11.65944-8.64999,17.09565
    c4.89955,2.6608,11.0339,0.89529,13.5017-4.17426c0.59572-1.22378,1.3577-6.55201,2.31885-6.62498
    c-0.56326,0.04276-3.63226,2.3876-4.15514,3.01292c-1.47009,1.75808-1.4116,3.83495-0.05927,5.64992
    c3.20432,4.30054,11.28603,6.27335,14.6439,1.30553c1.41496-2.09338,1.85366-5.09123,2.241-7.53578
    c0.30803-1.94398-0.13448-4.64709,1.5126-6.02702c0.71915-0.60252,6.79966-1.2799,7.65171-0.88082
    c1.68193-0.01256,2.10773,0.74506,1.27737,2.27283c-0.26296,1.16879-0.47016,2.34738-0.62161,3.53577
    c-0.07057,1.23533-0.02473,2.4256,0.2773,3.63031c0.57323,2.2865,2.01347,4.57765,4.32523,5.43666
    c7.37499,2.7404,8.90164-6.9347,8.63035-11.79337c-0.14681-2.62935-4.29409-3.70181-4.1123-0.44603
    c0.36556,1.65456,0.20011,3.2334-0.49636,4.73652c-0.24293,2.81042-1.73997,2.82873-4.49113,0.0549
    c-0.29543-0.81129,0.49764-2.68542,0.62161-3.53577c0.27332-1.87474,0.64219-4.00884-0.1449-5.82148
    c-1.55807-3.58818-5.63446-2.85-8.83784-2.5678c-3.41984,0.30127-7.97881-0.05706-9.09592,3.87299
    c-0.66174,2.32801-0.41882,5.0638-0.90358,7.46713c-0.27472,1.36203-0.89198,4.71596-2.43798,5.40472
    c-1.41335,0.62968-6.70711-0.23913-6.38626-1.47072c0.1375-0.52779,3.68021-2.34286,4.26917-3.27386
    c0.71767-1.13449,0.99178-2.26674,0.8392-3.61084c-0.28562-2.51606-2.51392-5.10121-5.2666-4.69805
    c-4.96806,0.72763-3.83259,6.83891-5.91845,9.89943c-2.05221,3.01115-8.50011,4.38788-9.27977-0.26015
    c-0.41589-2.47937,2.46557-11.14074,6.31591-7.61265C65.95601,67.5658,68.12383,64.28275,65.99177,62.32913L65.99177,62.32913z"/>

</svg>
