<?xml version="1.0" encoding="utf-8"?>
<!DOCTYPE svg PUBLIC "-//W3C//DTD SVG 1.1//EN" "http://www.w3.org/Graphics/SVG/1.1/DTD/svg11.dtd">
<svg version="1.1" xmlns="http://www.w3.org/2000/svg" xmlns:xlink="http://www.w3.org/1999/xlink" x="0px" y="0px" width="160px"
  height="160px" viewBox="0 0 160 160" enable-background="new 0 0 160 160" xml:space="preserve">
  <ellipse fill="#4D4D62" cx="83.72119" cy="81.16956" rx="60.14669" ry="60.28638"/>
  <path fill="#F0EAD6" d="M89.88916,94.06299c-5.0874,0-10.02441-1.13232-14.67383-3.36475l-2.56543-1.23193l2.82373-0.354
    C90.08545,87.28223,101.104,74.7959,101.104,60.06836c0-14.72803-11.01709-27.21436-25.62695-29.04443l-2.82471-0.354
    l2.56641-1.23193c4.64893-2.23145,9.58496-3.36328,14.67041-3.36328c18.74414,0,33.99414,15.24951,33.99414,33.99365
    C123.8833,78.81299,108.6333,94.06299,89.88916,94.06299z"/>
  <path fill="#FFFFFF" d="M89.88908,26.91211c18.31232,0,33.1569,14.84448,33.1569,33.15607
    c0,18.31317-14.84457,33.15765-33.1569,33.15765c-5.13229,0-9.97344-1.19946-14.31136-3.28235
    c14.85956-1.86163,26.36347-14.51178,26.36347-29.87531c0-15.36029-11.50314-28.01379-26.36007-29.87549
    C79.91734,28.11157,84.75764,26.91211,89.88908,26.91211 M89.88908,25.23749c-5.21127,0-10.26895,1.15924-15.03255,3.44543
    l-5.1329,2.4635l5.64928,0.70789c14.19172,1.77832,24.89367,13.90765,24.89367,28.21387s-10.7034,26.43549-24.89702,28.21368
    l-5.6477,0.70752l5.131,2.46375c4.76405,2.28748,9.82296,3.44733,15.03622,3.44733
    c19.20617,0,34.83152-15.62567,34.83152-34.83228C124.7206,40.86249,109.09525,25.23749,89.88908,25.23749L89.88908,25.23749z"/>
  <polygon fill="#D9BC7B" points="27.66211,49.62158 22.70898,44.79199 29.55371,43.79639 32.61621,37.59229 35.67871,43.79639
    42.52441,44.79199 37.5708,49.62207 38.73975,56.43994 32.61621,53.21973 26.49219,56.43994  "/>
  <path fill="#FFFFFF" d="M32.61627,39.48407l2.50627,5.07739l5.60315,0.81519l-4.05428,3.95276l0.95654,5.57977l-5.01169-2.63513
    l-5.01158,2.63513l0.9574-5.57977l-4.05429-3.95276l5.60231-0.81519L32.61627,39.48407 M32.61624,35.70062l-1.50163,3.04224
    L28.998,43.03101l-4.73134,0.68848l-3.35655,0.4884l2.42865,2.3678l3.42393,3.3382l-0.80852,4.7121l-0.5739,3.34485
    l3.00377-1.57941l4.23224-2.22534l4.23233,2.22534l3.0032,1.57904l-0.5733-3.34424L38.47069,49.914l3.42404-3.33832
    l2.42871-2.36786l-3.35664-0.48834l-4.73218-0.68848l-2.1167-4.28815L32.61624,35.70062L32.61624,35.70062z"/>
  <polygon fill="#D9BC7B" points="53.67773,107.25488 47.60986,101.33984 55.99561,100.12305 59.74561,92.52344 63.49609,100.12305
    71.88184,101.33984 65.81396,107.25488 67.24609,115.6084 59.74561,111.66357 52.24561,115.60889  "/>
  <path fill="#FFFFFF" d="M59.74585,94.41534l3.19415,6.47314l7.14197,1.03644l-5.16721,5.03748l1.21939,7.1153l-6.38831-3.36047
    l-6.38832,3.36047l1.21948-7.1153l-5.16721-5.03748l7.14188-1.03644L59.74585,94.41534 M59.74585,90.63092l-1.50174,3.0434
    l-2.80447,5.68341l-6.27032,0.90997l-3.35847,0.48737l2.42998,2.36896l4.53694,4.42303l-1.07079,6.24774l-0.57327,3.34491
    l3.00345-1.57996l5.6087-2.95032l5.60867,2.95032l3.00343,1.57996l-0.57324-3.34485l-1.07071-6.2478l4.53696-4.42303
    l2.42999-2.36896l-3.35848-0.48743l-6.27042-0.90991l-2.80444-5.68341L59.74585,90.63092L59.74585,90.63092z"/>
  <polygon fill="#D9BC7B" points="95.16553,109.52246 91.39893,105.85059 96.604,105.09424 98.93164,100.37695 101.25977,105.09424
    106.46484,105.85059 102.69873,109.52197 103.58838,114.70508 98.93164,112.25684 94.27588,114.70508  "/>
  <path fill="#FFFFFF" d="M98.93169,102.26929l1.77178,3.59009l3.96194,0.57562l-2.86648,2.79492l0.67708,3.9444l-3.54433-1.86328
    l-3.54347,1.86328l0.67708-3.9444l-2.86725-2.79492l3.96186-0.57562L98.93169,102.26929 M98.93169,98.48535l-1.5017,3.04285
    l-1.38214,2.80054l-3.09058,0.44904l-3.35794,0.48792l2.42979,2.36847l2.23672,2.1803l-0.52811,3.07654l-0.57423,3.34515
    l3.0041-1.57965l2.76418-1.45349l2.765,1.45361l3.00387,1.57916l-0.57415-3.34479l-0.52813-3.07666l2.23613-2.1803
    l2.42908-2.36847l-3.35738-0.48779l-3.09068-0.44904l-1.38213-2.80054L98.93169,98.48535L98.93169,98.48535z"/>
  <polygon fill="#D9BC7B" points="120.03223,98.69482 117.14844,100.20898 117.69971,97 115.36816,94.72363 118.59082,94.25586
    120.03223,91.33643 121.47363,94.25537 124.69775,94.72363 122.36523,97 122.91699,100.20898  "/>
  <path fill="#FFFFFF" d="M120.0323,93.22754l0.88585,1.79333l1.9814,0.28778l-1.43404,1.39911l0.33858,1.97137l-1.77178-0.92999
    l-1.77178,0.92999l0.33858-1.97137l-1.43328-1.39911l1.98055-0.28778L120.0323,93.22754 M120.03237,89.44647l-1.50148,3.03937
    l-0.49617,1.00433l-1.10971,0.16125l-3.35487,0.48749l2.42593,2.3681l0.80364,0.78448l-0.18964,1.10419l-0.57405,3.34235
    l3.0028-1.57611l0.99349-0.52148l0.99349,0.52148l3.0028,1.57611l-0.57405-3.34235l-0.18959-1.10394l0.80404-0.78442
    l2.42757-2.36841l-3.3563-0.48749l-1.11047-0.16132l-0.49606-1.00421L120.03237,89.44647L120.03237,89.44647z"/>

</svg>
