<?xml version="1.0" encoding="utf-8"?>
<!DOCTYPE svg PUBLIC "-//W3C//DTD SVG 1.1//EN" "http://www.w3.org/Graphics/SVG/1.1/DTD/svg11.dtd">
<svg version="1.1" xmlns="http://www.w3.org/2000/svg" xmlns:xlink="http://www.w3.org/1999/xlink" x="0px" y="0px" width="160px"
  height="160px" viewBox="0 0 160 160" enable-background="new 0 0 160 160" xml:space="preserve">
  <linearGradient id="SVGID_1_" gradientUnits="userSpaceOnUse" x1="83.75837" y1="84.63656" x2="76.21854" y2="77.09672">
    <stop  offset="0" style="stop-color:#EDC6B6"/>
    <stop  offset="0.5" style="stop-color:#E4B987"/>
    <stop  offset="0.52694" style="stop-color:#E4B885"/>
    <stop  offset="1" style="stop-color:#DDA96E"/>
  </linearGradient>
  <circle fill="url(#SVGID_1_)" cx="79.9884" cy="80.86591" r="5.33121"/>
  <polygon fill="#DFA872" points="60.55947,88.58891 99.41825,88.58891 107.78956,123.24245 79.98882,134.29251 52.18724,123.24245"/>
  <polygon fill="#997F60" points="79.98882,80.86588 99.41825,88.58891 79.98882,96.31112 60.55947,88.58891"/>
  <circle fill="#A9DEF0" cx="79.9884" cy="53.18604" r="38.61307"/>
  <path fill="#FFFFFF" d="M53.65295,52.42052c-0.40835-0.04474-0.81835-0.12982-1.2266-0.25964
    c-3.23487-1.0359-5.01835-4.49806-3.98244-7.73376c3.81412-11.91324,12.4271-20.44297,24.25608-24.01533
    c3.25367-0.98576,6.68456,0.85777,7.66674,4.11043c0.98392,3.25275-0.85685,6.68365-4.11135,7.66665
    c-7.94866,2.40131-13.51582,7.92987-16.09435,15.98781C59.25586,51.00588,56.49378,52.7249,53.65295,52.42052L53.65295,52.42052z"
    />
  <path fill="#BA9653" d="M46.79382,117.84812c5.86705-5.86887,8.43485-21.94892,8.43485-29.25921
    c0-2.94563,2.38692-5.33254,5.3308-5.33254c2.94471,0,5.33163,2.38692,5.33163,5.33254
    c0,8.27367,0.42971,42.28252-13.70386,42.28252c-4.21339,0-7.62815-3.41558-7.62815-7.62897
    C44.55909,121.13572,45.41237,119.22865,46.79382,117.84812"/>
  <path fill="#BA9653" d="M113.18298,117.84812c-5.86613-5.86887-8.43302-21.94892-8.43302-29.25921
    c0-2.94563-2.38701-5.33254-5.33171-5.33254c-2.94379,0-5.33071,2.38692-5.33071,5.33254
    c0,8.27367-0.4298,42.28252,13.70202,42.28252c4.21339,0,7.62815-3.41558,7.62815-7.62897
    C115.41771,121.13572,114.56443,119.22865,113.18298,117.84812"/>
  <path fill="#BA9653" d="M87.56507,133.4276l-2.24546-37.11648c0-2.94562-2.38692-5.33263-5.3308-5.33263
    c-2.94471,0-5.33163,2.38701-5.33163,5.33263l-2.24454,37.11648c-0.03401,0.28384-0.05281,0.57217-0.05281,0.86491
    c0,4.21248,3.41476,7.62814,7.62897,7.62814c4.21339,0,7.62823-3.41566,7.62823-7.62814
    C87.61705,133.99977,87.59817,133.71144,87.56507,133.4276z"/>
  <path fill="#FFFFFF" d="M56.11862,60.89745c0.26147,3.87582-1.74497,7.16882-4.47752,7.3542
    c-2.73879,0.18355-5.16779-2.80957-5.42926-6.6863c-0.26138-3.87674,1.74231-7.16974,4.48027-7.35421
    C53.42732,54.02586,55.85806,57.02071,56.11862,60.89745z"/>
  <rect x="41.34437" y="127.32518" fill="#BA9653" width="8.3203" height="8.3212"/>
  <rect x="110.31214" y="127.32518" fill="#BA9653" width="8.3203" height="8.3212"/>
  <polygon fill="#BA9653" points="80.00945,151.2041 74.20274,145.3564 80.00945,139.5507 85.79455,145.33589"/>

</svg>
