<svg version="1.1" xmlns="http://www.w3.org/2000/svg" xmlns:xlink="http://www.w3.org/1999/xlink"
 width="160px" height="160px" viewBox="-219 321 160 160">
<path fill="#A299A7" d="M-105.4,385.8c3.5,2.2,11.1,12.8,9.4,14.9c-6.1,7.3-17.2,14.7-27.2,17.3c-4.7,1.2-8.2,2.8-10.7-1
c-0.3-0.5-4-7.5-3.6-7.8c0,0,0.9-0.6,2.5-1.7c11.4-7.8,19.9-11.7,27.6-20.1C-106.2,386.5-105.4,385.8-105.4,385.8z"/>
<path fill="#E1D1C6" d="M-149.6,420.1c2.4-1.6,5.3-2.7,7.5-4.4c-0.8-0.4-3.8-0.1-3.3-2c0.2-0.9,4.5,0.2,8.4-0.7
c3.3-0.7,7,1.5,7.2,3.6c-1.5,1-12.7,10-13.6,8.7c-0.8-1.2,3.6-3,3.3-3.3c-0.6-0.6-4.2,4.1-5.4,2.3c-0.9-1.4,3.3-3.6,4.1-4.1
c-0.8,0.6-5,4.1-6,2.7c-1-1.4,5.5-5.2,4.8-4.6C-144.8,419.2-150.5,423.6-149.6,420.1"/>
<path fill="#FFF4F0" d="M-148.3,420.8l-0.4,0.4c-0.2,0.2-0.6,0.1-0.8-0.2c-0.2-0.3-0.2-0.6,0.1-0.8l0.6-0.2
C-148.7,420-148.2,420.5-148.3,420.8z"/>
<path fill="#FFF4F0" d="M-143.8,414.4l-0.4,0.2c-0.4,0-1-0.3-1-0.8c0-0.4,0.5-0.4,0.9-0.4l0.5,0.2
C-143.6,413.6-143.4,414.1-143.8,414.4z"/>
<path fill="#FFF4F0" d="M-145.8,422.5l-0.4,0.4c-0.2,0.2-0.6,0.1-0.8-0.2c-0.2-0.3-0.2-0.6,0.1-0.8l0.6-0.2
C-146.3,421.6-145.7,422.2-145.8,422.5z"/>
<path fill="#FFF4F0" d="M-143.9,423.9l-0.4,0.4c-0.2,0.2-0.6,0.1-0.8-0.2c-0.2-0.3-0.2-0.6,0.1-0.8l0.6-0.2
C-144.4,423-143.9,423.6-143.9,423.9z"/>
<path fill="#FFF4F0" d="M-142.5,425l-0.3,0.2c-0.2,0.1-0.4,0-0.4-0.2c-0.1-0.2,0-0.4,0.1-0.5l0.4-0.1
C-142.6,424.5-142.4,424.8-142.5,425z"/>
<path fill="#577482" d="M-79.4,361.3c1.2,1.4,1,3.5-0.3,4.6l-4.1,3.4c-1.3,1.1-3.4,0.9-4.5-0.5l-4.3-5.1c-1.2-1.4-1-3.5,0.3-4.6
l4.1-3.4c1.3-1.1,3.4-0.9,4.5,0.5L-79.4,361.3z"/>
<polygon fill="#E1D1C6" points="-86.9,387.7 -104.6,389.3 -96.7,372.3 -86.9,370.7 "/>
<path fill="#E1D1C6" d="M-86,362.5c-0.1-8.1-7.8-14-15.7-13.2c-7.8,0.8-13.5,8-12.7,16.1c0.8,8.1,7.8,17.3,15.6,16.4
C-88.8,380.6-85.9,375.4-86,362.5z"/>
<path fill="#808184" d="M-103.4,367.9c0.5,0.2,0.9-0.1,0.9-0.7c0-0.6-0.4-1.3-0.9-1.5c-0.5-0.2-0.9,0.1-0.9,0.7
C-104.3,367-103.9,367.7-103.4,367.9z"/>
<path fill="#808184" d="M-113.3,370.4c0.4,0.3,0.8,0,0.8-0.6c0-0.6-0.3-1.3-0.7-1.6c-0.4-0.3-0.8,0-0.8,0.6
C-114,369.4-113.7,370.1-113.3,370.4z"/>
<path fill="#A299A7" d="M-87.4,452.6c-5.8,3.6-15.5,5-17.4,0.9c-6.5-14.6-9.5-36.7-6.1-53.8c1.6-7.9,1.8-14.4,9.4-15.4
c1.1-0.1,14.2-0.6,14.4,0.3c0,0,1,1.8,0.7,5c-2.8,27.4,4.1,41.3,0.1,57.7C-86.9,450.9-87.4,452.6-87.4,452.6z"/>
<path fill="none" d="M-89.1,384.3c4.2,1.1,3.9,4.7,4.4,8.3"/>
<path fill="#577482" d="M-86,362.5c0.5-8.1-7.8-14-15.7-13.2c-7.8,0.8-13.5,8-12.7,16.1C-114.4,365.4-95.8,356.7-86,362.5z"/>
<polygon fill="#808184" points="-107.7,374.4 -108.7,373.4 -105.8,373.8 "/>
<path fill="#808184" d="M-107.8,369.3c0-0.1-0.1-0.1-0.1-0.1c-0.1,0-0.1,0-0.1,0.1h0l-0.6,4l0.3,0L-107.8,369.3L-107.8,369.3
C-107.8,369.4-107.8,369.4-107.8,369.3z"/>
<path fill="#E1D1C6" d="M-86,441.3c-0.1-2.9,0.4-5.9,0.1-8.7c-0.8,0.4-2.1,3.2-3.5,1.8c-0.6-0.6,2.5-3.8,3.8-7.6
c1.1-3.2,4.9-5.2,6.8-4.3c0,1.8,2,16.1,0.4,16.2c-1.4,0.1-0.8-4.6-1.1-4.5c-0.8,0.2,1.3,5.7-0.8,5.8c-1.6,0.1-1.4-4.7-1.4-5.7
c0.1,1,0.9,6.5-0.8,6.5c-1.7,0.1-1.6-7.4-1.4-6.4C-84.3,436.7-83.4,443.9-86,441.3"/>
<path fill="#FFF4F0" d="M-84.7,440.5l0.1,0.6c0,0.3-0.2,0.5-0.6,0.5c-0.3,0-0.6-0.2-0.6-0.5l0.1-0.6
C-85.6,440.4-84.9,440.3-84.7,440.5z"/>
<path fill="#FFF4F0" d="M-87.8,433.3l0,0.4c-0.2,0.3-0.8,0.7-1.2,0.4c-0.4-0.2-0.1-0.7,0.1-1l0.4-0.4
C-88.4,432.8-87.9,432.9-87.8,433.3z"/>
<path fill="#FFF4F0" d="M-82,439.3l0.1,0.6c0,0.3-0.2,0.5-0.6,0.5c-0.3,0-0.6-0.2-0.6-0.5l0.1-0.6C-82.9,439.2-82.2,439.1-82,439.3z
"/>
<path fill="#FFF4F0" d="M-79.8,438.4l0.1,0.6c0,0.3-0.2,0.5-0.6,0.5c-0.3,0-0.6-0.2-0.6-0.5l0.1-0.6
C-80.7,438.3-80,438.2-79.8,438.4z"/>
<path fill="#FFF4F0" d="M-78.1,437.7l0,0.4c0,0.2-0.2,0.3-0.4,0.3c-0.2,0-0.3-0.2-0.3-0.4l0.1-0.4
C-78.6,437.6-78.2,437.5-78.1,437.7z"/>
<path fill="#A299A7" d="M-90.9,426.5c3.9,1.1,16.9-0.4,17.3-3.1c1.3-9.5-0.7-22.6-5.5-31.7c-2.3-4.3-3.4-7.9-7.9-7.2
c-0.6,0.1-4.4,4.7-4.3,5.2c0,0,0.1,1.1,0.4,3c1.9,13.7,0.9,20-0.1,31.2C-90.9,425.5-90.9,426.5-90.9,426.5z"/>
<path fill="#E1692E" enable-background="new    " d="M-177.8,384.8c-3.5,2.2-9.2,13.9-7.5,16c6.1,7.3,17.2,14.7,27.2,17.3
c4.7,1.2,8.2,2.8,10.7-1c0.3-0.5,4-7.5,3.6-7.8c0,0-0.9-0.6-2.5-1.7c-11.4-7.8-20.7-9.9-28.3-18.3
C-175.9,388.2-177.8,384.8-177.8,384.8z"/>
<path fill="#807370" d="M-131.7,420.1c-2.4-1.6-5.3-2.7-7.5-4.4c0.8-0.4,3.8-0.1,3.3-2c-0.2-0.9-4.5,0.2-8.4-0.7
c-3.3-0.7-7,1.5-7.2,3.6c1.5,1,12.7,10,13.6,8.7c0.8-1.2-3.6-3-3.3-3.3c0.6-0.6,4.2,4.1,5.4,2.3c0.9-1.4-3.3-3.6-4.1-4.1
c0.8,0.6,5,4.1,6,2.7c1-1.4-5.5-5.2-4.8-4.6C-136.5,419.2-130.8,423.6-131.7,420.1"/>
<path fill="#FFF4F0" d="M-133,420.8l0.4,0.4c0.2,0.2,0.6,0.1,0.8-0.2c0.2-0.3,0.2-0.6-0.1-0.8l-0.6-0.2
C-132.6,420-133.1,420.5-133,420.8z"/>
<path fill="#FFF4F0" d="M-137.5,414.4l0.4,0.2c0.4,0,1-0.3,1-0.8c0-0.4-0.5-0.4-0.9-0.4l-0.5,0.2
C-137.7,413.6-137.9,414.1-137.5,414.4z"/>
<path fill="#FFF4F0" d="M-135.5,422.5l0.4,0.4c0.2,0.2,0.6,0.1,0.8-0.2c0.2-0.3,0.2-0.6-0.1-0.8l-0.6-0.2
C-135.1,421.6-135.6,422.2-135.5,422.5z"/>
<path fill="#FFF4F0" d="M-137.4,423.9l0.4,0.4c0.2,0.2,0.6,0.1,0.8-0.2c0.2-0.3,0.2-0.6-0.1-0.8l-0.6-0.2
C-136.9,423-137.4,423.6-137.4,423.9z"/>
<path fill="#FFF4F0" d="M-138.8,425l0.3,0.2c0.2,0.1,0.4,0,0.4-0.2c0.1-0.2,0-0.4-0.1-0.5l-0.4-0.1
C-138.7,424.5-138.9,424.8-138.8,425z"/>
<polygon fill="#807370" points="-194.4,387.7 -176.7,389.3 -184.6,372.3 -194.4,370.7 "/>
<path fill="#807370" d="M-195.3,362.5c0.1-8.1,7.8-14,15.7-13.2c7.8,0.8,13.5,8,12.7,16.1c-0.8,8.1-7.8,17.3-15.6,16.4
C-192.5,380.6-195.4,375.4-195.3,362.5z"/>
<path fill="#D9DBDC" d="M-177.9,367.9c-0.5,0.2-0.9-0.1-0.9-0.7c0-0.6,0.4-1.3,0.9-1.5c0.5-0.2,0.9,0.1,0.9,0.7
C-177,367-177.4,367.7-177.9,367.9z"/>
<path fill="#D9DBDC" d="M-168,370.4c-0.4,0.3-0.8,0-0.8-0.6c0-0.6,0.3-1.3,0.7-1.6c0.4-0.3,0.8,0,0.8,0.6
C-167.3,369.4-167.6,370.1-168,370.4z"/>
<path fill="#EC7B31" d="M-166.1,450.3c-5.8,3.6-27.5,7.3-29.4,3.2c-6.5-14.6-9.5-36.7-6.1-53.8c1.6-7.9,1.8-14.4,9.4-15.4
c1.1-0.1,14.2-0.6,14.4,0.3c0,0,7.6,14.3,6.6,17.3c-7.2,20.9-1.4,32.1,4.2,44C-166.4,448.7-166.1,450.3-166.1,450.3z"/>
<path fill="#563C37" d="M-195.3,362.5c-0.5-8.1,7.8-14,15.7-13.2c7.8,0.8,13.5,8,12.7,16.1C-166.9,365.4-185.5,356.7-195.3,362.5z"
/>
<path fill="#D9DBDC" d="M-173.2,369.3L-173.2,369.3c0-0.1-0.1-0.1-0.1-0.1c-0.1,0-0.1,0.1-0.1,0.1c0,0,0,0,0,0l0,0l0.6,4
l-2.6,0.4l1.8,0.5l1-1L-173.2,369.3z"/>
<path fill="#807370" d="M-195.3,441.3c0.1-2.9-0.4-5.9-0.1-8.7c0.8,0.4,2.1,3.2,3.5,1.8c0.6-0.6-2.5-3.8-3.8-7.6
c-1.1-3.2-4.9-5.2-6.8-4.3c0,1.8-2,16.1-0.4,16.2c1.4,0.1,0.8-4.6,1.1-4.5c0.8,0.2-1.3,5.7,0.8,5.8c1.6,0.1,1.4-4.7,1.4-5.7
c-0.1,1-0.9,6.5,0.8,6.5c1.7,0.1,1.6-7.4,1.4-6.4C-197,436.7-197.9,443.9-195.3,441.3"/>
<path fill="#FFF4F0" d="M-196.7,440.5l-0.1,0.6c0,0.3,0.2,0.5,0.6,0.5c0.3,0,0.6-0.2,0.6-0.5l-0.1-0.6
C-195.7,440.4-196.4,440.3-196.7,440.5z"/>
<path fill="#FFF4F0" d="M-193.5,433.3l0,0.4c0.2,0.3,0.8,0.7,1.2,0.4c0.4-0.2,0.1-0.7-0.1-1l-0.4-0.4
C-192.9,432.8-193.4,432.9-193.5,433.3z"/>
<path fill="#FFF4F0" d="M-199.4,439.3l-0.1,0.6c0,0.3,0.2,0.5,0.6,0.5c0.3,0,0.6-0.2,0.6-0.5l-0.1-0.6
C-198.4,439.2-199.1,439.1-199.4,439.3z"/>
<path fill="#FFF4F0" d="M-201.5,438.4l-0.1,0.6c0,0.3,0.2,0.5,0.6,0.5c0.3,0,0.6-0.2,0.6-0.5l-0.1-0.6
C-200.6,438.3-201.3,438.2-201.5,438.4z"/>
<path fill="#FFF4F0" d="M-203.2,437.7l0,0.4c0,0.2,0.2,0.3,0.4,0.3c0.2,0,0.3-0.2,0.3-0.4l-0.1-0.4
C-202.7,437.6-203.1,437.5-203.2,437.7z"/>
<path fill="#E1692E" d="M-188.8,426.9c-3.9,1.1-16.9-0.4-17.3-3.1c-1.3-9.5,0.7-22.6,5.5-31.7c2.3-4.3,3.4-7.9,7.9-7.2
c0.6,0.1,4.4,4.7,4.3,5.2c0,0-0.1,1.1-0.4,3c-1.9,13.7-0.9,20,0.1,31.2C-188.8,425.9-188.8,426.9-188.8,426.9z"/>
</svg>
