<svg version="1.1" xmlns="http://www.w3.org/2000/svg" xmlns:xlink="http://www.w3.org/1999/xlink"
 width="160px" height="160px" viewBox="-219 321 160 160">
<path fill="#54B8DD" d="M-136,377c-2.5-4.3,0-8.2,0-8.2c-32.4-4.4-72.6,19.4-76,23.5l5.8,4.6L-136,377z"/>
<path fill="#54B8DD" d="M-120.9,455.7c15.5-3.2,62.2-44,54.6-46l-6.9-0.1l-60.5,42.8v1.9L-120.9,455.7z"/>
<path fill="#888888" d="M-206.2,396.6c0,0,40.3-28.6,76-23.8c26.6,3.6,49.5,34.7,57,36.8c7.6,2.1-46.1,41.8-58.8,44.7
C-152.3,459-193,425.8-206.2,396.6z"/>
<path fill="#6FBBB5" d="M-204.8,397.6c-10.5-2.3,38.8-29.5,74.6-24.7c26.6,3.6,49.5,34.7,57,36.8c7.6,2.1-46,42.3-58.8,44.7
C-144.7,456.7-185.5,401.7-204.8,397.6z"/>
<path fill="#E6CE98" d="M-133.7,399.9c0.2,0.4,0.5,0.8,0.8,1.3c4.5,9.7,17.1,15.7,27,10c0.5-0.2,1-0.5,1.5-0.8
c0.5-0.3,1-0.6,1.4-0.9c1-0.4,2.6-1.4,2.5-3.5c0.2-0.5,0.4-1.1,0.5-1.8c0.1-0.6,0.2-1.3,0.3-2c0.1-1.7-0.5-3-1.6-4.3
c-0.2-0.3-0.4-0.5-0.7-0.8c-0.5-0.3-0.9-0.6-1.4-0.9c-0.5-0.3-1-0.5-1.5-0.7c-1.7,0.2-3.4,0.6-5,1.2c-0.5,0.2-1.1,0.4-1.6,0.6
c-6.1,1.9-13.6,4.1-19.4,0.3c-0.5-0.3-1-0.3-1.4-0.1c-0.5,0.2-0.9,0.7-1.2,1.3C-133.6,399.3-133.6,399.6-133.7,399.9z"/>
<path fill="#F5EBA5" d="M-133.7,399.9c0.2,0.4,0.5,0.8,0.8,1.3c4.5,9.7,17.1,15.7,27,10c0.5-0.2,1-0.5,1.5-0.8
c0.5-0.3,1-0.6,1.4-0.9c-9.4,2.9-13.6-0.5-18.4-4.6c-3.6-3.1-9-6.9-9.4-7.2c-0.5-0.3-1-0.3-1.4-0.1c-0.5,0.2-0.9,0.7-1.2,1.3
C-133.6,399.3-133.6,399.6-133.7,399.9z"/>
<path fill="#F5EBA5" d="M-93.6,414.5c-0.3,0.4-0.5,0.8-0.8,1.2c-4.9,9.4-17.9,14.9-27.4,8.8c-0.5-0.3-1-0.5-1.5-0.8
c-0.5-0.3-0.9-0.6-1.4-1c-1-0.5-2.5-1.5-2.4-3.6c-0.2-0.6-0.3-1.1-0.4-1.8c-0.1-0.6-0.2-1.3-0.2-2c0-1.7,0.7-3,1.8-4.2
c0.2-0.3,0.5-0.5,0.7-0.7c0.5-0.3,0.9-0.6,1.4-0.8c0.5-0.2,1-0.4,1.5-0.6c1.7,0.3,3.3,0.8,4.9,1.5c0.5,0.2,1.1,0.5,1.6,0.7
c6,2.2,13.4,4.7,19.4,1.2c0.5-0.2,1-0.2,1.4,0c0.5,0.2,0.9,0.7,1.2,1.4C-93.7,413.9-93.6,414.2-93.6,414.5z"/>
<path fill="#E6CE98" d="M-93.6,414.5c-0.3,0.4-0.5,0.8-0.8,1.2c-4.9,9.4-17.9,14.9-27.4,8.8c-0.5-0.3-1-0.5-1.5-0.8
c-0.5-0.3-0.9-0.6-1.4-1c9.3,3.3,13.6,0.1,18.6-3.7c3.8-2.9,9.3-6.5,9.8-6.7c0.5-0.3,1-0.2,1.4,0c0.5,0.2,0.9,0.7,1.2,1.4
C-93.7,413.9-93.6,414.2-93.6,414.5z"/>
<path fill="#F5EBA5" d="M-119,417.5c-0.3,0.4-0.5,0.8-0.8,1.2c-4.9,9.4-17.9,14.9-27.4,8.8c-0.5-0.3-1-0.5-1.5-0.8
c-0.5-0.3-0.9-0.6-1.4-1c-1-0.5-2.5-1.5-2.4-3.6c-0.2-0.6-0.3-1.1-0.4-1.8c-0.1-0.6-0.2-1.3-0.2-2c0-1.7,0.7-3,1.8-4.2
c0.2-0.3,0.5-0.5,0.7-0.7c0.5-0.3,0.9-0.6,1.4-0.8c0.5-0.2,1-0.4,1.5-0.6c1.7,0.3,3.3,0.8,4.9,1.5c0.5,0.2,1.1,0.5,1.6,0.7
c6,2.2,13.4,4.7,19.4,1.2c0.5-0.2,1-0.2,1.4,0c0.5,0.2,0.9,0.7,1.2,1.4C-119,416.9-119,417.2-119,417.5z"/>
<path fill="#E6CE98" d="M-119,417.5c-0.3,0.4-0.5,0.8-0.8,1.2c-4.9,9.4-17.9,14.9-27.4,8.8c-0.5-0.3-1-0.5-1.5-0.8
c-0.5-0.3-0.9-0.6-1.4-1c9.3,3.3,13.6,0.1,18.6-3.7c3.8-2.9,9.3-6.5,9.8-6.7c0.5-0.3,1-0.2,1.4,0c0.5,0.2,0.9,0.7,1.2,1.4
C-119,416.9-119,417.2-119,417.5z"/>
</svg>
