<?xml version="1.0" encoding="utf-8"?>
<!DOCTYPE svg PUBLIC "-//W3C//DTD SVG 1.1//EN" "http://www.w3.org/Graphics/SVG/1.1/DTD/svg11.dtd">
<svg version="1.1" xmlns="http://www.w3.org/2000/svg" xmlns:xlink="http://www.w3.org/1999/xlink" x="0px" y="0px" width="160px"
  height="160px" viewBox="0 0 160 160" enable-background="new 0 0 160 160" xml:space="preserve">
  <path fill="#E1B4AB" d="M111.2757,87.46665c-0.19178-14.29399-6.98714-15.5887-6.28318-22.88021
    c0.68739-7.30618-4.60478-12.10151-10.10475-12.69423c-2.20579-0.23843-4.06001-0.11055-5.6271,0.25705
    c-2.33441,0.52616-3.99678,1.55052-5.16429,2.54153c-1.95079,1.64771-3.88486,3.19823-5.436,5.24422
    c-2.44626-1.85422-7.05111-2.84523-9.19299-1.95147c-0.79924,0.32102-1.58244,0.84854-2.30243,1.50258
    c-1.27875,1.12018-2.34969,2.63872-2.89317,4.18917c-0.12787,0.36767-0.32033,0.70335-0.57608,0.97642
    c-1.42258,1.5984-4.49225,1.90209-6.02675,1.42258c-1.79161-0.54348-4.63676-2.34969-8.23389-2.09394
    c-3.08632,0.20781-4.55691,1.14951-6.34715,2.39634c-2.82988,1.96736-4.87656,5.99674-5.34011,10.92124
    c-0.27239,2.82927-0.01596,5.96217,0.89512,9.16039c2.49427,8.79402,5.99551,12.90203,13.87709,21.48825
    c0.65601,0.7206,1.39196,1.48655,2.20647,2.30304c3.03769,3.03707,7.08309,6.6029,11.62329,9.86367
    c8.82533,6.2992,19.55281,11.35158,28.538,8.7128C105.48805,125.74113,111.67535,116.14916,111.2757,87.46665z"/>
  <path fill="#B33927" d="M78.50119,90.96721c1.80621,4.49294,11.09509,22.97481,9.59258,25.77209
    c-1.48716,2.79722-13.07847,6.0927-27.86732-7.6898C45.4376,95.25234,54.231,96.35527,55.92597,96.05157
    c1.69436-0.28773,2.4303-3.08631-5.2921-1.29607c-3.88555,0.89648-4.79663-0.39829-4.79663-0.39829
    c-3.5972-5.38805-4.79663-8.58621-4.79663-16.48518c0-7.89754,5.88421-10.69482,7.78698-10.69482
    c1.90216,0,9.68785-1.19881,13.39758,8.2013c3.69302,9.38681,4.58814,12.08813,5.29142,7.48328
    c0.70403-4.58882-1.40662-5.69175-1.19881-10.68015c0.19253-5.00443,0.49554-10.90262,4.79662-10.60029
    c4.30048,0.30369,7.29022,2.79728,3.78898,7.8976C71.41817,74.57928,76.70959,86.45832,78.50119,90.96721z"/>
  <path fill="#B33927" d="M101.09169,75.23598c-2.9418,4.39568-5.73969,4.93916-1.34265-4.25451
    c4.39568-9.19231,0.33569-14.61235-2.86186-15.53939c-3.19755-0.94307-5.03642-1.00704-7.61055-0.63937
    c-1.05566,0.15979-2.03065,0.52746-2.89447,1.10293c-0.76725,0.46349-1.46991,1.07094-2.07798,1.77558
    c-1.85422,2.04599-3.16556,4.87519-3.99678,7.56193c-1.47052,4.66875,1.32737,0.67129,2.65406,6.53893
    c1.34272,5.85154,5.99483,6.12331,4.94053,7.45c-1.07162,1.34402-7.06706-6.79604-10.39249-6.25119
    c-3.34138,0.52746,0.92773,12.11876,7.84966,15.58733c6.93919,3.45398,6.79529,20.51456,11.46404,23.8393
    c4.66814,3.3407,8.63354-1.72763,8.52102-7.59391C105.08847,90.29585,99.74904,81.63107,101.09169,75.23598z"/>
  <path fill="#787689" d="M67.67714,133.22311c-1.2308-3.66042-1.72696-8.10541-1.35936-13.07785l0.03198-0.03198
    c-4.5402-3.26077-8.5856-6.8266-11.62329-9.86367c0.01671,7.14639,0.49622,15.26775,1.1995,23.67678
    c0,1.40662,2.68605,2.54153,5.99545,2.54153c3.30946,0,5.99483-1.13492,5.99483-2.54153
    C67.837,133.70264,67.74111,133.46291,67.67714,133.22311z"/>
  <path fill="#B33927" d="M74.7116,30.00567c-6.63488,0-10.75681,2.0966-13.12648,5.10032
    c-1.32874,1.68501-3.8689,5.32279-5.02039,8.07479c-0.1439,1.24676-0.25513,2.54147-0.31904,3.82021
    c-0.35164,7.22624,0.92711,14.5657,7.27487,17.4749l0.17514,0.17582c0.25575-0.27307,0.44821-0.60875,0.57608-0.97642
    c0.54349-1.55045,1.61443-3.06899,2.89317-4.18917c0.71999-0.65404,1.50319-1.18156,2.30243-1.50258
    c2.14188-0.89376,6.74673,0.09725,9.19299,1.95147c1.55114-2.04599,3.48521-3.59652,5.436-5.24422
    c1.16751-0.99101,2.82988-2.01537,5.16429-2.54153c1.55113-2.6707,2.42962-5.8036,2.42962-9.14566
    C91.69028,33.17055,84.09637,30.00567,74.7116,30.00567z"/>
  <path fill="#787689" d="M63.52057,64.47589c-6.34776-2.9092-7.62651-10.24866-7.27487-17.4749
    c0.0639-1.27875,0.17514-2.57345,0.31904-3.82021c0.41622-3.58321,1.10422-6.90796,1.59908-9.41743
    c0.11253-0.17718,0.15986-0.36766,0.15986-0.56081c0-1.40662-2.68537-2.54153-5.99551-2.54153
    c-3.10091,0-5.65976,0.99108-5.96277,2.28579l-0.06397-0.01466c-2.25441,7.35412-0.9917,14.24469-5.06834,29.05018
    c-4.01342,14.5644-3.22953,9.79976-3.58117,15.31562h0.09589c0.46355-4.9245,2.51023-8.95388,5.34011-10.92124
    c1.79024-1.24683,3.26083-2.18853,6.34715-2.39634c3.59713-0.25575,6.44229,1.55046,8.23389,2.09394
    c1.5345,0.47952,4.60417,0.17582,6.02675-1.42258L63.52057,64.47589z"/>
  <polygon fill="#FFFFFF" points="100.88921,96.64962 89.20467,100.57915 79.59546,89.30621 70.72751,92.86535 80.04298,85.0903
    89.94928,93.0265 100.41904,87.58518 112.65435,93.83904 111.65802,104.49798"/>
  <path fill="#B33927" d="M110.87011,121.6638c0,3.6804,2.96444,5.91148,6.57555,5.91148c3.66977,0,6.812-2.75193,6.812-7.04906
    c0-9.64652-8.91125-15.0759-8.10336-13.03257C119.14936,115.06895,110.87011,115.18612,110.87011,121.6638z"/>

</svg>
