<svg version="1.1" xmlns="http://www.w3.org/2000/svg" xmlns:xlink="http://www.w3.org/1999/xlink" width="160px"
  height="160px" viewBox="0 0 160 160">
  <path fill="#42563E" d="M42.74637,52.74821c0,0,6.4065,12.9227,7.76397,15.5402c1.3573,2.6171,13.77299,29.54802,14.2056,31.42813
    c0.43261,1.88012,9.81842,23.14954,10.5659,25.18053c0.56843,1.54433,5.52872,16.74529,5.52872,16.74529l2.90917,3.14424
    c0,0-3.60143-12.4207-6.55765-19.84831c-0.27128-0.68159-12.20775-29.08546-13.07575-31.26635
    c-0.86802-2.18094-9.8777-21.64539-10.74716-23.03619S43.75323,53.29476,42.74637,52.74821z"/>
  <path fill="#42563E" d="M83.71973,144.78661l-1.38324-3.47543c0,0,4.19516-27.83851,4.42146-28.75745
    c0.22631-0.91895,4.89481-37.06068,5.17825-41.13657c0.13017-1.87287,0.50758-10.03012-0.58884-13.97495
    c-1.09641-3.94482-3.29332-9.46463-6.27138-12.18692c-2.97805-2.72228-8.24866-2.87436-9.80075-3.20391
    s-6.41485-0.0519-7.31499,0.66159c-0.90013,0.71349-1.69499-0.39108-1.69499-0.39108s3.18963-1.50631,4.29318-1.70871
    c1.10355-0.2024,7.92728-0.31323,10.62259,0.5086c2.6953,0.82183,7.93894,4.77379,9.64765,9.06697s3.33401,9.56685,3.4062,15.10343
    s-1.01006,17.09795-1.31876,18.40492c-0.30869,1.30697-2.71117,20.26162-3.0219,22.75352
    c-0.31074,2.49189-3.1636,22.98383-3.22839,24.0198C86.39271,134.84192,83.71973,144.78661,83.71973,144.78661z"/>
  <path fill="#83AA61" d="M47.35539,62.37375l-8.6192-5.87401c0,0-4.67905-3.92507-3.53587-4.69551
    c1.14302-0.77037,7.54605,0.94398,7.54605,0.94398l3.50924,7.06225l1.84729,3.39206L47.35539,62.37375z"/>
  <path fill="#83AA61" d="M75.49962,125.32335c0,0-20.02308-10.73965-19.91882-11.96525
    c0.10426-1.22561,16.25322,5.13541,18.08806,7.36541L75.49962,125.32335z"/>
  <path fill="#83AA61" d="M69.35641,109.88833c0,0-21.78369-8.61799-21.67943-9.84359
    c0.10426-1.22561,17.81041,2.50266,19.64525,4.73265L69.35641,109.88833z"/>
  <path fill="#83AA61" d="M65.60904,98.09973c0,0,5.43824-21.11019,4.52032-21.92896
    c-0.91793-0.81877-7.11998,13.01712-6.92065,15.89806L65.60904,98.09973z"/>
  <path fill="#83AA61" d="M51.23063,66.9249c0,0,4.65034-20.91132,3.73242-21.73008
    c-0.91793-0.81877-7.13299,13.18604-6.93365,16.06697L51.23063,66.9249z"/>
  <path fill="#83AA61" d="M61.56195,92.38706c0,0-16.66393-15.12753-16.55967-16.35313
    c0.10426-1.22561,11.71425,6.55895,13.54909,8.78895L61.56195,92.38706z"/>
  <path fill="#83AA61" d="M91.46885,69.94541c0,0-10.12499-15.9539-10.02074-17.1795c0.10426-1.22561,8.97826,5.6349,10.8131,7.8649
    L91.46885,69.94541z"/>
  <path fill="#83AA61" d="M92.32411,51.76475c0,0,2.69052-16.82598,2.13097-17.92152
    c-0.55936-1.09515-6.18517,8.60796-7.04202,11.36628L92.32411,51.76475z"/>
  <path fill="#83AA61" d="M90.85888,87.66624c0,0-8.59155-16.56374-8.48729-17.78934c0.10426-1.2256,6.91389,6.10083,8.74873,8.33083
    L90.85888,87.66624z"/>
  <path fill="#83AA61" d="M87.8849,103.1744c0,0-8.59175-16.56413-8.4875-17.78973
    c0.10426-1.22561,7.64972,12.41216,9.48456,14.64217L87.8849,103.1744z"/>
  <path fill="#83AA61" d="M86.36595,110.34151c0,0-7.78007-14.13322-7.67581-15.35883
    c0.10426-1.2256,5.69217,8.57004,7.52701,10.80003L86.36595,110.34151z"/>
  <path fill="#83AA61" d="M84.87354,94.43106c0,0-8.7415-12.75797-8.63725-13.98357c0.10426-1.2256,6.59983,7.97196,8.43467,10.20196
    L84.87354,94.43106z"/>
  <path fill="#83AA61" d="M91.09466,77.97236c0,0-9.34401-15.10838-8.87184-19.81074
    c0.12303-1.22379,8.07076,15.03791,9.90559,17.26791L91.09466,77.97236z"/>
  <path fill="#83AA61" d="M85.71117,44.17361c-0.84678-10.67519,0.37392-19.80503-0.84257-20.8602
    c-1.59657-1.38498-2.86269,13.33568-0.50304,19.26437C84.36555,42.57777,85.80685,45.37974,85.71117,44.17361z"/>
  <path fill="#83AA61" d="M93.58945,75.571c3.98907-11.69565,11.74612-20.53795,10.52966-21.59314
    c-1.59638-1.38453-11.36385,9.67933-9.71364,13.82556C94.40547,67.80342,93.19899,76.71669,93.58945,75.571z"/>
  <path fill="#83AA61" d="M57.56255,79.66083c0,0-2.84744-17.81245-3.76537-18.63122
    c-0.91793-0.81877,0.48931,9.03159,0.68865,11.91253L57.56255,79.66083z"/>
  <path fill="#83AA61" d="M75.86565,43.23732c0,0-5.87327,5.7715-6.69102,6.09697c-0.81775,0.32547-1.67516-0.04374-1.67516-0.04374
    s-4.45431,3.98148-4.89724,4.35617c-0.44307,0.37433-2.16096,1.41329-2.16096,1.41329s6.6585-10.93887,8.08956-11.50844
    s7.43192-1.65542,7.50694-1.56687C76.11281,42.07325,75.86565,43.23732,75.86565,43.23732z"/>
  <path fill="#83AA61" d="M88.06095,49.15012c0,0-5.45441-0.87309-5.95601-1.18503c-0.5012-0.3121-0.64339-0.92155-0.64339-0.92155
    s-3.923-0.81982-4.3017-0.91009c-0.37866-0.09028-1.66673-0.12251-1.62343-0.6041c0.04361-0.48082,8.66228-0.81995,9.53956-0.27407
    C85.95329,45.80112,88.06095,49.15012,88.06095,49.15012z"/>
  <path fill="#83AA61" d="M50.73765,54.77773c0,0,12.8468-5.11309,15.83468-10.44666
    c2.98783-5.33355-8.79203,3.02563-8.79203,3.02563S50.12637,53.83691,50.73765,54.77773z"/>
  <path fill="#83AA61" d="M95.63588,92.02043c0.88316-2.36449,2.74072-4.98634,1.83979-5.01862
    c-0.90092-0.03227-3.23518,3.02817-4.0654,4.66112s-3.13932,6.63114-3.21915,6.78734c-0.07983,0.1562-0.7795,3.6942-0.7795,3.6942
    L95.63588,92.02043z"/>
  <path fill="#83AA61" d="M49.46122,68.68745c0,0-6.75658-3.2906-7.06425-2.57609c-0.30767,0.71451,1.37281,3.59799,1.52563,3.8332
    s6.24905,1.42041,6.24905,1.42041L49.46122,68.68745z"/>
  <path fill="#83AA61" d="M64.12503,97.64088c0,0-8.96972-5.13231-13.41655-3.36336
    c-2.45325,0.9764,14.68392,7.73367,14.68392,7.73367l-1.18601-4.16588"/>
  <path fill="#83AA61" d="M48.28845,65.30908l-9.92331-3.21434c0,0-5.59353-2.45098-4.71322-3.51181
    c0.8803-1.06083,8.04994,1.53252,8.04994,1.53252l6.40811,2.06757l1.09845,2.75991L48.28845,65.30908z"/>
  <path fill="#83AA61" d="M54.09485,78.4091l-8.78823-5.61941c0,0-4.79198-3.78573-3.67197-4.58953
    c1.11978-0.80366,7.40091,3.51846,7.40091,3.51846l5.67707,3.62078l0.36488,2.94829L54.09485,78.4091z"/>
  <path fill="#83AA61" d="M58.66859,30.78086c0.29913-1.30316,13.91517,1.25645,18.18071,7.32853
    c1.10454,1.57243-0.93636,2.50407-0.93636,2.50407C72.04542,35.75857,58.36946,32.08402,58.66859,30.78086z"/>
  <path fill="#83AA61" d="M72.99612,114.32648c0,0,0.45415-2.72659,1.00694-3.42024c0.5528-0.69366,2.25311-2.88662,2.98196-5.11244
    c0.72845-2.22566,1.34852-6.76669,1.22272-7.67779c-0.1258-0.9111,1.21284-4.16734,1.33354-4.57061
    c0.12074-0.40328,0.27763-2.53793-0.74659-0.94617s-3.24533,4.19273-3.76889,5.70362
    c-0.52356,1.5109-4.41558,8.83897-4.39331,10.08497C70.65479,109.63383,72.99612,114.32648,72.99612,114.32648z"/>
  <path fill="#83AA61" d="M74.25873,118.02754c0,0,4.47513-10.11062,5.11604-10.43414s0.28703,2.18554-0.21913,3.15666
    c-0.5062,0.97115-3.25648,8.34155-3.07442,9.39399c0.18205,1.05244,4.18694-11.1985,6.38566-12.66566
    c2.19872-1.46716,1.47238-0.05317,1.16917,0.54116c-0.30286,0.59418-4.63599,7.70648-5.07716,8.82936
    c-0.44117,1.12287-2.5677,4.87031-2.53043,5.62514C76.06569,123.22891,74.25873,118.02754,74.25873,118.02754z"/>
  <path fill="#83AA61" d="M63.43047,87.11691c0,0-0.41596-7.59035,1.26125-8.73154c1.6772-1.14117,6.15156-2.56676,6.42496-3.50446
    c0.27325-0.93763-3.28979-1.5066-4.82307-0.89635c-0.47793,0.19022-3.12804,0.86383-3.85706,3.04856
    c-0.72902,2.18472-0.49104,6.3528-0.49104,6.3528L63.43047,87.11691z"/>
  <path fill="#99CC72" d="M62.3252,83.77094c0,0,3.04084-10.68456,1.67359-15.50862
    c-1.36712-4.82373-3.55701,1.17889-3.59996,2.45914c-0.04294,1.2803,0.05339,10.33558,0.05339,10.33558l0.83073,0.54911
    L62.3252,83.77094z"/>
  <path fill="#99CC72" d="M74.44399,118.44365c0,0,3.29685-11.68979,1.92975-16.51347
    c-1.36711-4.82369-3.55697,1.17886-3.59995,2.45918c-0.04311,1.27989,0.05325,10.33512,0.05325,10.33512l0.67744,1.40802
    L74.44399,118.44365z"/>
  <path fill="#99CC72" d="M55.61241,78.80468c0,0-4.26072-3.90884-7.01387-5.49721c-2.75299-1.58797-7.92524-3.47673-8.18387-3.53152
    s-2.65709,0.66299,4.52768,4.43443s13.2214,9.21957,13.2214,9.21957L55.61241,78.80468z"/>
  <path fill="#99CC72" d="M65.73064,102.55649c0,0-4.58618-4.72659-7.33934-6.31496s-7.59994-2.65939-7.85841-2.71377
    c-0.25879-0.0552-2.65725,0.66258,4.52752,4.43402s13.22157,9.21998,13.22157,9.21998L65.73064,102.55649z"/>
  <path fill="#99CC72" d="M57.39608,82.41582c0,0-6.27053-4.84577-7.03329-4.77901s2.30778,4.21205,3.61468,4.71871
    c1.30661,0.50592,4.15091,1.90025,4.15091,1.90025L57.39608,82.41582z"/>
  <path fill="#99CC72" d="M52.70179,71.81129c0,0-3.55227-5.37539-5.18837-6.30244c-1.6364-0.92779-4.04486-2.02198-4.05944-1.46301
    c-0.01488,0.55824,1.69656,3.4294,2.36971,3.951c0.67316,0.52164,3.28758,3.43308,3.28758,3.43308l4.79174,4.10776
    L52.70179,71.81129z"/>
  <path fill="#99CC72" d="M51.03707,66.43859c0,0-1.66523-10.82678-0.50121-12.31602
    c1.16387-1.48961,3.59365-3.91318,3.05325,5.04257s-1.11548,9.96818-1.11548,9.96818l-1.3428-2.45918"/>
  <path fill="#99CC72" d="M48.89895,64.28213c0,0-6.96945-2.43668-11.83344-1.36898s-9.87763,1.95815-10.92823,3.08675
    s3.51166,1.286,4.874,1.13881c1.36218-0.14761,10.28993-1.51726,11.75197-1.61211c1.46206-0.09481,4.24644,0.29654,4.24644,0.29654
    L48.89895,64.28213z"/>
  <path fill="#99CC72" d="M43.47438,53.64531c0,0,2.26641-6.45533,3.44277-8.6608c1.17665-2.20473,3.49827-5.89194,4.27432-5.72717
    s0.44446,2.90179,0.36105,3.88227c-0.08341,0.98048-2.53443,8.50834-3.47788,10.69931
    c-0.94344,2.19102-1.47947,5.0094-1.47947,5.0094L43.47438,53.64531z"/>
  <path fill="#99CC72" d="M49.55359,65.09139c0,0-5.89782-7.6782-6.72682-8.76919c-0.829-1.09098-4.87262-1.92849-5.94836-2.05309
    c-1.07572-0.12455-0.42604,2.30096,0.74355,3.25639c1.16959,0.95543,3.73643,0.06568,7.13642,5.43503
    c3.40032,5.37017,6.31401,5.94693,6.31401,5.94693L49.55359,65.09139z"/>
  <path fill="#99CC72" d="M68.35935,43.31826c0,0-5.50713,2.42869-8.10962,3.22767s-8.44896,1.86312-8.44896,1.86312
    s0.41882-2.99837,5.25426-4.1384c4.83526-1.14048,9.06806-2.4047,10.26247-2.57756
    c1.19471-0.17209,6.34831-0.51273,7.00675-0.64345c0.65845-0.13068,1.14666,1.09595,1.14666,1.09595
    S69.90603,42.64991,68.35935,43.31826z"/>
  <path fill="#99CC72" d="M93.15055,57.00114c0,0,3.82848-7.2089,4.42889-9.09032c0.60019-1.88091,3.28163-7.62167,3.28163-7.62167
    c0.3829-1.02058,0.68785-2.56246-0.38976-2.36807c-2.37991,0.42962-4.74734,3.93901-5.81271,6.61744
    c-1.06536,2.67846-2.49306,7.42163-2.49306,7.42163L93.15055,57.00114z"/>
  <path fill="#99CC72" d="M92.61329,68.55693c0.02804-0.32703,0.77172-5.20131,0.67976-7.21743
    c-0.09184-2.0158,0.25793-7.28598-1.09828-10.6935c-1.35608-3.40719-1.90927,1.54942-1.90927,1.54942
    s-0.81221-2.83447-1.62938-2.90383c-0.81715-0.06932-1.59828,2.5307-1.25031,6.18135
    c0.34796,3.65066,2.50072,10.84579,3.49266,12.34557c0.99194,1.49978,1.53435,2.86259,1.53435,2.86259L92.61329,68.55693z"/>
  <path fill="#99CC72" d="M84.54532,42.91555c0.02296-0.26538-0.50922-2.92967-0.58388-4.56648
    c-0.0741-1.6366,0.20946-5.91557-0.8917-8.68226c-1.10099-2.76628-1.5498,1.2579-1.5498,1.2579s-0.6597-2.30132-1.32323-2.35774
    c-0.66339-0.05606-1.29739,2.05476-1.01506,5.0188c0.28236,2.96398,1.1937,6.31823,1.99937,7.53601
    C81.98631,42.33967,84.54532,42.91555,84.54532,42.91555z"/>
  <path fill="#99CC72" d="M90.77651,50.46207c0.13013-0.12857,1.034-1.76355,1.72153-2.65563
    c0.68806-0.89182,2.7367-3.01155,3.3875-4.95238c0.6504-1.94063-1.37211-0.02834-1.37211-0.02834s0.6758-1.5003,0.35254-1.82444
    c-0.3229-0.32433-1.59337,0.50235-2.76131,2.18275c-1.16763,1.68118-2.17928,3.84611-2.29689,4.843
    C89.68948,49.02325,90.77651,50.46207,90.77651,50.46207z"/>
  <path fill="#99CC72" d="M92.05425,71.58478c0,0-2.08616-6.4316-2.92921-7.35975c-0.84273-0.92732-2.56901-3.08212-1.90822,0.75948
    c0.66094,3.84201,3.56502,9.94855,3.75493,10.4257s0.74683,1.28141,0.74683,1.28141L92.05425,71.58478z"/>
  <path fill="#99CC72" d="M88.36655,49.35781c0,0-6.8966-2.42679-8.14287-2.29249c-1.24646,0.13395-4.00436,0.25888-0.51139,1.98894
    c3.49339,1.72993,10.13863,2.98252,10.63584,3.11026c0.4972,0.12774-1.1889-0.2549-1.1889-0.2549L88.36655,49.35781z"/>
  <path fill="#99CC72" d="M84.30412,44.556c0,0-3.20909-1.23066-3.90408-1.15573c-0.69495,0.07492-2.23273,0.14393-0.28527,1.1089
    c1.94827,0.9647,5.65361,1.66299,5.93087,1.73437c0.27728,0.07143-0.40826-0.47025-0.40826-0.47025L84.30412,44.556z"/>
  <path fill="#99CC72" d="M93.90208,71.59631c0,0,3.0929-8.49336,4.23815-9.186s2.00166,0.07152,2.04133,0.7662
    c0.03966,0.69468-1.15805,3.30324-2.4523,5.87023c-1.29401,2.56774-4.16183,7.06396-4.16183,7.06396L93.90208,71.59631z"/>
  <path fill="#99CC72" d="M85.38196,39.77632c0,0,3.09289-8.49336,4.23814-9.186c1.14526-0.69264,2.00166,0.07152,2.04133,0.7662
    c0.03967,0.69468-1.15804,3.30324-2.45215,5.8706c-1.29415,2.56738-3.52909,6.54438-3.52909,6.54438L85.38196,39.77632z"/>
  <path fill="#99CC72" d="M97.17392,77.63558c0,0,2.51358-4.39497,2.97925-5.80378c0.46569-1.40877,2.91157-6.17139,2.3414-7.20766
    c-0.57015-1.03624-3.35902,1.54091-3.77773,2.40878c-0.41872,0.86784-5.2187,9.69743-5.2187,9.69743l-0.01588,1.61273
    l2.74874-1.09402L97.17392,77.63558z"/>
  <path fill="#99CC72" d="M89.53704,92.43714c0,0-2.53266-6.16467-3.67648-6.26216c-1.14365-0.09709,3.04863,11.4996,3.04863,11.4996
    L89.53704,92.43714z"/>
  <path fill="#99CC72" d="M92.07121,90.79711c0,0,4.36708-6.71782,4.75187-7.81503c0.3848-1.09721,1.18793-5.62457-0.59209-5.73302
    c-1.77999-0.1084-2.93395,0.95866-3.47543,1.38324c-0.54147,0.42462-2.77846,1.94675-3.23904,4.656
    c-0.46056,2.7093,0.39436,4.65858,0.28438,5.17599s1.05618,3.44746,1.05618,3.44746L92.07121,90.79711z"/>
  <path fill="#99CC72" d="M60.71606,39.71264c0,0,7.75116,2.02888,8.91355,2.04866c1.16239,0.01982,5.71236-0.64397,5.25484-2.36758
    c-0.4575-1.72357-1.83357-2.48257-2.40711-2.86256c-0.57368-0.38035-2.72286-2.0241-5.43939-1.60805
    c-2.71649,0.41604-4.29731,1.84126-4.82309,1.89972c-0.52574,0.05844-2.93898,2.08836-2.93898,2.08836L60.71606,39.71264z"/>
  <path fill="#99CC72" d="M88.21558,103.21623c0,0-4.0405-8.40407-5.20538-9.3285c-1.16489-0.92448-2.70264-3.00303-3.01498-2.79639
    c-0.31231,0.20662,0.35235,1.67894,0.92332,2.31988c0.57101,0.64092,3.04402,3.4458,3.97439,5.20691
    c2.1577,4.08488,1.809,3.78057,2.78349,6.02087L88.21558,103.21623z"/>
  <path fill="#99CC72" d="M89.34464,98.76865c0,0-4.0405-8.40407-5.20538-9.3285c-1.16494-0.92446-2.70269-3.00305-3.01498-2.79639
    c-0.31231,0.20662,0.35231,1.67896,0.92332,2.31988c0.57101,0.64092,3.04402,3.4458,3.97439,5.20691
    c2.1577,4.08488,1.809,3.78057,2.78345,6.02089L89.34464,98.76865z"/>
  <path fill="#99CC72" d="M87.44445,107.76235c0,0,2.94061-2.55848,4.01963-4.40887c1.07902-1.85038,3.93443-6.77643,3.64983-7.68906
    c-0.28462-0.91268-0.0794-1.78345-1.01365-0.85934c-0.93423,0.92414-3.18739,4.18955-3.77472,5.2915
    s-1.00633,2.47688-1.00633,2.47688L87.44445,107.76235l5.70714-6.7142"/>
  <path fill="#99CC72" d="M106.12898,89.62262c-0.06028-0.25726-5.47897,2.10197-7.21095,3.50179
    c-1.73199,1.3998-3.79166,2.80148-3.79166,2.80148l-3.2014,5.61047c0,0,1.84377-0.12647,2.51228-0.62936
    c0.6685-0.50289,7.30858-4.64528,8.0053-5.86987C103.13926,93.81255,106.46694,91.06676,106.12898,89.62262z"/>
  <path fill="#99CC72" d="M88.84325,111.29544c0,0,3.12467-3.4546,4.01189-4.59681c0.88723-1.14221,4.08078-5.01877,4.13657-5.67234
    s-0.02413-1.64815-0.43241-1.8802c-0.40827-0.23205-3.52058,2.06355-4.0046,3.22755
    c-0.48402,1.16399-3.04153,4.15509-3.0397,4.7071C89.51687,107.63274,88.84325,111.29544,88.84325,111.29544z"/>
  <path fill="#99CC72" d="M94.3763,95.49865c0,0,2.24206-3.59079,3.09106-6.21782c0.84898-2.62707,2.19442-7.18066,1.66165-7.13046
    c-0.53278,0.05016-1.42003,0.00225-1.66506,0.57664c-0.24503,0.57439-4.37363,9.63817-4.45704,10.61865
    c-0.08341,0.98048,0.42832,4.25004,0.42832,4.25004L94.3763,95.49865z"/>
  <path fill="#99CC72" d="M69.58415,107.08854c0,0,5.09943-11.18655,5.57863-12.56138c0.4792-1.37483,3.44701-8.7925,2.45344-9.10752
    s-5.30944,6.69189-5.8289,7.76683c-0.51944,1.07497-3.20406,9.80038-3.20673,11.38058
    C68.57789,106.1472,69.58415,107.08854,69.58415,107.08854z"/>
  <path fill="#99CC72" d="M69.07392,110.76489c0,0-6.10701-4.83181-7.78014-6.06047
    c-1.67312-1.22867-8.17754-4.48132-8.60051-4.15526c-0.42295,0.3261,4.44384,5.8101,6.78367,7.32568
    c2.33984,1.51562,10.55492,8.27203,11.76685,8.34193C72.45575,116.28674,69.07392,110.76489,69.07392,110.76489z"/>
  <path fill="#99CC72" d="M76.66284,125.77759c0,0,3.18782-8.45299,4.17194-10.34423
    c0.98372-1.89108,5.06998-10.06934,6.59693-10.993c1.52695-0.92366,1.49872,0.19306,1.11501,1.21397
    c-0.38289,1.02058-4.70199,8.26513-5.49399,10.3172c-0.7924,2.05223-5.23215,9.73981-5.76409,10.18835
    C76.7567,126.60842,76.66284,125.77759,76.66284,125.77759z"/>
  <path fill="#99CC72" d="M67.85001,103.4369c0,0-2.03037-8.9807-1.90671-9.66129c0.12365-0.68063-0.67389-4.07326-0.40137-4.18172
    c0.27251-0.10846,2.55223,4.82565,2.87668,6.23586s0.7306,5.81898,0.54044,6.65321
    c-0.19015,0.83427-0.37846,2.08408-0.37846,2.08408L67.85001,103.4369z"/>
  <path fill="#99CC72" d="M64.65511,98.47243c0,0-0.1382-0.10314-0.37924-0.28524c-1.6144-1.22058-7.83327-5.97311-7.90297-6.83856
    c-0.08013-0.99449-4.71924-4.12136-4.3639-4.81548c0.35547-0.69379,2.35859-1.41238,3.25645-0.74339
    c0.89788,0.66903,6.45856,6.50826,6.63503,6.75348L64.65511,98.47243z"/>
  <path fill="#99CC72" d="M62.63686,92.01333c0,0-3.24542-7.36106-3.45284-8.67538c-0.20744-1.31436-0.01109-2.89253-0.01109-2.89253
    s2.0721,0.83305,2.45586,1.54854c0.38389,0.71583,2.5713,7.00492,2.57361,8.00263s0.25938,3.73726,0.25938,3.73726
    L62.63686,92.01333z"/>
  <path fill="#42563E" d="M142.66237,68.24641c0,0-9.4193,10.9232-11.38512,13.12083
    c-1.96558,2.19727-20.68932,25.19391-21.57595,26.90735c-0.88663,1.71343-15.26759,19.98007-16.49672,21.76132
    c-0.93467,1.35443-9.48486,14.75069-9.48486,14.75069l-1.38324-3.47543c0,0,4.32597-5.24403,9.03669-11.70299
    c0.43227-0.5927,19.0582-25.13518,20.44135-27.03165c1.38319-1.89651,14.9509-18.50844,16.13895-19.63928
    S141.55121,68.52537,142.66237,68.24641z"/>
  <path fill="#83AA61" d="M92.88762,130.39464c0,0,22.06501-5.42207,22.26886-6.63509s-17.01975,0.93156-19.35157,2.63513
    L92.88762,130.39464z"/>
  <path fill="#83AA61" d="M102.67675,116.97256c0,0,23.2426-2.92918,23.44645-4.1422
    c0.20385-1.21303-17.8732-2.00576-20.20502-0.30219L102.67675,116.97256z"/>
  <path fill="#83AA61" d="M109.2384,106.48646c0,0-0.01688-21.79942,1.07585-22.36415
    c1.09273-0.56473,3.65865,14.37894,2.74904,17.11977L109.2384,106.48646z"/>
  <path fill="#83AA61" d="M114.57915,101.95988c0,0,19.90276-10.50755,20.10662-11.72057
    c0.20384-1.21302-12.97748,3.4393-15.3093,5.14287L114.57915,101.95988z"/>
  <path fill="#83AA61" d="M121.61812,90.62829c0,0,7.18823-16.5445,8.28096-17.10924s-2.72025,8.62608-3.62987,11.36691
    L121.61812,90.62829z"/>
  <path fill="#83AA61" d="M114.92902,104.05966c0,0,9.96436-2.7401,13.83147,0.07926
    c2.13332,1.55589-16.14599,3.8385-16.14599,3.8385l2.18487-3.73999"/>
  <path fill="#83AA61" d="M125.28818,90.27837l9.90971-3.25703c0,0,5.58298-2.47492,4.69807-3.53202
    c-0.8847-1.05692-8.04344,1.56715-8.04344,1.56715l-6.39922,2.09502l-1.0867,2.76488L125.28818,90.27837z"/>
  <path fill="#83AA61" d="M98.04756,120.36599c0,0,0.23827-2.75386-0.12463-3.56321s-1.46435-3.35629-1.6167-5.69346
    c-0.152-2.3369,0.37685-6.88946,0.7253-7.74063c0.34845-0.85118-0.13824-4.33804-0.15485-4.75866
    c-0.01664-0.42064,0.36231-2.52722,0.95846-0.73074c0.59614,1.79648,2.10054,4.86814,2.23186,6.46178
    c0.13132,1.59364,2.07842,9.65944,1.74695,10.86075C101.48248,116.40314,98.04756,120.36599,98.04756,120.36599z"/>
  <path fill="#83AA61" d="M95.90411,123.63673c0,0-1.81981-10.90594-2.36011-11.37872
    c-0.5403-0.47276-0.8216,2.04547-0.57288,3.11197c0.24876,1.06653,1.07945,8.88936,0.64136,9.86346
    c-0.4381,0.97409-1.2701-11.88797-3.03483-13.85588c-1.76472-1.96791-1.41289-0.4177-1.26701,0.23337
    c0.14555,0.65083,2.57355,8.61736,2.72159,9.81468c0.14803,1.19731,1.27568,5.3559,1.05183,6.07774
    C92.86026,128.22522,95.90411,123.63673,95.90411,123.63673z"/>
  <path fill="#99CC72" d="M115.98288,93.42467c0,0-0.28786-11.10513,2.23627-15.43752
    c2.52391-4.33212,3.15202,2.02653,2.87521,3.27724c-0.27684,1.25075-2.62236,9.99751-2.62236,9.99751l-0.9412,0.32524
    L115.98288,93.42467z"/>
  <path fill="#99CC72" d="M95.62118,123.99368c0,0-0.2858-12.14243,2.23809-16.47452s3.15199,2.0265,2.87518,3.27728
    c-0.27659,1.25039-2.62212,9.99709-2.62212,9.99709l-1.00635,1.19529L95.62118,123.99368z"/>
  <path fill="#99CC72" d="M123.71992,90.28407c0,0,5.09902-2.7263,8.16073-3.57999c3.06143-0.85335,8.54092-1.39632,8.80505-1.38507
    c0.26413,0.01126,2.40869,1.30302-5.48833,3.16897c-7.89703,1.86594-15.09901,5.64145-15.09901,5.64145L123.71992,90.28407z"/>
  <path fill="#99CC72" d="M108.01215,110.77293c0,0,5.61765-3.4374,8.67935-4.2911c3.06169-0.8537,8.02255-0.68558,8.28642-0.67396
    c0.26439,0.0109,2.40895,1.30266-5.48807,3.1686s-15.09927,5.64182-15.09927,5.64182L108.01215,110.77293z"/>
  <path fill="#99CC72" d="M121.09414,93.3381c0,0,7.27872-3.1339,8.00091-2.87953s-3.28288,3.5057-4.67472,3.67139
    c-1.39138,0.16505-4.4931,0.80813-4.4931,0.80813L121.09414,93.3381z"/>
  <path fill="#99CC72" d="M128.27846,84.23437c0,0,4.77759-4.32297,6.59286-4.81395c1.81573-0.49163,4.42065-0.95242,4.29576-0.40738
    c-0.12444,0.5444-2.49622,2.89967-3.27794,3.23746c-0.78174,0.33783-4.03813,2.50752-4.03813,2.50752l-5.66284,2.78689
    L128.27846,84.23437z"/>
  <path fill="#99CC72" d="M103.15252,114.20412c0,0-2.15689-12.10335-2.27908-13.55416s-1.15183-9.37353-0.11114-9.43153
    c1.0407-0.058,3.4782,7.80216,3.71398,8.97252c0.23575,1.17039,0.66584,10.28932,0.27541,11.82053
    C104.36129,113.54263,103.15252,114.20412,103.15252,114.20412z"/>
  <path fill="#99CC72" d="M102.73235,117.89185c0,0,7.11686-3.16105,9.043-3.93497s9.03516-2.3066,9.36373-1.88558
    c0.32855,0.42105-5.74928,4.52226-8.39252,5.40826c-2.64328,0.88603-12.28064,5.38689-13.47188,5.15317
    C98.0834,122.39906,102.73235,117.89185,102.73235,117.89185z"/>
  <path fill="#99CC72" d="M91.64797,130.54529c0,0-0.98524-8.98023-1.46805-11.05682
    c-0.48247-2.07632-2.40623-11.01392-3.65547-12.28833c-1.24924-1.27441-1.49965-0.18575-1.38191,0.89851
    c0.11703,1.08375,2.49855,9.17487,2.75528,11.35944c0.25707,2.18483,2.64526,10.73508,3.04893,11.30183
    C91.35043,131.32668,91.64797,130.54529,91.64797,130.54529z"/>
  <path fill="#99CC72" d="M105.7404,111.09853c0,0,4.20023-8.1935,4.24973-8.88345c0.04952-0.68999,1.6658-3.77765,1.42883-3.95048
    c-0.23698-0.17284-3.67226,4.03922-4.33725,5.32442c-0.665,1.28519-2.15493,5.45441-2.17823,6.30972
    c-0.02332,0.85535-0.15178,2.11272-0.15178,2.11272L105.7404,111.09853z"/>
  <path fill="#99CC72" d="M110.06965,107.08471c0,0,0.15951-0.06554,0.43827-0.18195c1.86725-0.7807,9.07274-3.83714,9.3555-4.65806
    c0.32496-0.94331,5.596-2.81809,5.42446-3.57878c-0.17174-0.76041-1.93319-1.95462-2.96922-1.52997
    c-1.03606,0.42468-7.87434,4.69738-8.10624,4.89101L110.06965,107.08471z"/>
  <path fill="#99CC72" d="M113.63097,101.33055c0,0,4.97427-6.32256,5.50206-7.54398
    c0.52782-1.22147,0.73016-2.79888,0.73016-2.79888s-2.21418,0.2915-2.76384,0.88906
    c-0.54987,0.59785-4.23275,6.14527-4.48313,7.11105c-0.25039,0.96578-1.18076,3.55531-1.18076,3.55531L113.63097,101.33055z"/>

</svg>
