<?xml version="1.0" encoding="utf-8"?>
<!DOCTYPE svg PUBLIC "-//W3C//DTD SVG 1.1//EN" "http://www.w3.org/Graphics/SVG/1.1/DTD/svg11.dtd">
<svg version="1.1" xmlns="http://www.w3.org/2000/svg" xmlns:xlink="http://www.w3.org/1999/xlink" x="0px" y="0px" width="160px"
  height="160px" viewBox="0 0 160 160" enable-background="new 0 0 160 160" xml:space="preserve">
  <linearGradient id="SVGID_1_" gradientUnits="userSpaceOnUse" x1="-285.97418" y1="447.75201" x2="-276.23749" y2="447.75201" gradientTransform="matrix(0.9602 0.2792 -0.2792 0.9602 465.42859 -282.01251)">
    <stop  offset="0" style="stop-color:#919498"/>
    <stop  offset="0.5" style="stop-color:#62696A"/>
    <stop  offset="1" style="stop-color:#505558"/>
  </linearGradient>
  <path fill="url(#SVGID_1_)" d="M73.88617,75.21908c-0.80822-0.04803-8.13609-2.76744-7.76061-8.18172l9.39693-0.97075
    L73.88617,75.21908z"/>
  <path fill="#F0D0B3" d="M60.29842,82.78434c-4.60379-3.03753-10.82281-11.35496-13.20184-17.06519
    c-1.09483-2.64097-0.83517-3.13575,1.88784-4.3464c1.94389-0.86427,2.64803-0.63156,2.84338-0.39297
    c0.00227,0.00348,1.8258,2.4013,2.49485,3.24462c4.9546,6.24825,8.93724,6.3909,14.19486,10.25665
    C70.9538,81.71873,61.61184,83.61244,60.29842,82.78434z"/>
  <path fill="#F0D0B3" d="M60.46095,82.47437c7.87403-0.59179,16.10367-9.80978,17.73065-14.71886
    c0.75564-2.28896,0.49358-5.18037-1.17545-7.05875c-3.83173-4.31837-5.68916,0.68545-5.85875,0.8796
    c0,0.00347-0.32171,0.42686-0.94859,1.09711c-5.56172,5.95577-4.73242,7.26811-8.41444,10.03436
    C59.47966,78.72336,59.15448,82.57378,60.46095,82.47437z"/>
  <path fill="#F399C0" d="M77.35296,60.25109c-4.13356-4.65277-6.13363,0.74043-6.31604,0.95326
    c-0.00347,0.0024-0.34853,0.45969-1.02117,1.18023c-1.82581,1.95204-3.00831,3.43984-3.89019,4.65277
    c0.23512,0.05498,0.47142,0.09834,0.71001,0.16612c3.82359,1.11579,6.46229,4.32185,7.05061,8.0156
    c2.34165-2.61066,4.06218-5.32194,4.73122-7.3547C79.43842,65.39516,79.1554,62.27691,77.35296,60.25109z"/>
  <path fill="#816F9F" d="M71.37144,101.08223c-7.65065-2.79775-19.93313,10.02513-24.92988,16.08858
    c-5.18145,5.25283-14.76678,9.99926-14.8814,20.09914c-0.01282,1.11005,1.36264,5.68448,4.99436,4.58965
    c0.06791,0.02922,0.14397,0.04922,0.22577,0.05031c8.16412,0.21989,13.77615-7.07635,19.13306-11.17482
    c6.84951-5.58855,16.05109-5.22241,25.3837-5.0903c1.18251-0.07366,1.89359-0.12504,1.89359-0.12504
    C79.75187,116.52164,79.01743,103.87543,71.37144,101.08223z"/>
  <path fill="#F0D0B3" d="M97.5224,37.76466c2.36968,2.21302,5.33942,4.06924,7.53712,6.38982
    c-0.96488,0.32398-4.25513-0.6082-4.1241,1.61177c0.05845,0.98835,4.50893,1.40588,8.7419,3.15455
    c3.55579,1.47247,4.49024-0.19535,9.29871-3.27037c-3.80251-2.71127-12.24618-13.69302-13.48952-12.39949
    c-1.13688,1.1837,3.37792,4.0926,3.08543,4.29034c-0.81396,0.55442-4.71948-6.0026-6.40024-4.25046
    c-1.28779,1.33917,3.7043,2.84219,4.62475,6.02248c-4.22939-2.96746-6.32658-7.31506-7.67162-5.91026
    c-1.33929,1.39306,2.70421,3.69843,5.94882,7.72779C102.71091,39.69455,97.19482,33.61481,97.5224,37.76466"/>
  <path fill="#BBBDBF" d="M84.38728,70.31012c9.68929-1.27737,19.62424-1.65513,28.84223-4.49503
    c-4.55696-5.42243-6.08213-12.82636-5.53358-19.73886c0.08887-2.33471,0.19187-4.6693,0.25727-7.00389
    c-8.02255,1.55093-18.10027-1.80005-22.25598,3.33469c-2.38837,2.57904-3.33109,6.49965-3.54633,10.82389
    c0.92404,4.40604-0.15558,8.79927,1.19532,13.11752C83.8913,68.77321,84.38728,70.31012,84.38728,70.31012z"/>
  <path fill="#9A84BD" d="M62.36748,118.71934c5.11258,13.53756,16.07325,8.7607,22.46654,7.25182
    c2.98028-0.70414,5.82713-3.1791,6.55475-6.73943c1.6574-8.18293-5.0061-6.90568-5.34409-6.97934
    c0,0-2.76865-0.21284-3.94648-0.52747c-1.23281-0.32758-2.97908-0.89709-4.65745-1.66327
    C69.3667,111.48632,61.66334,116.85725,62.36748,118.71934z"/>
  <path fill="#9A84BD" d="M62.41431,126.75134c7.03192-1.19772,16.36214-5.75706,25.58947-4.35574
    c2.10535-0.10767,3.64812-4.64008,3.64812-4.64008c-2.17901-9.384-2.23399-17.41948-8.55949-22.54368
    c-3.16976-2.5873-3.85976,5.22708-9.62498,7.01431c-3.48093,1.0831-6.86699,2.67031-9.47646,4.40724
    c-8.99222,3.67268-17.45577,7.07049-20.63847,11.72218c-2.40945,3.51482-3.37672,8.55134-1.46433,12.55734
    C46.27902,140.11333,55.3788,127.95026,62.41431,126.75134z"/>
  <path fill="#F0D0B3" d="M92.31281,89.44425c3.89725-2.65391,6.6108-6.33473,9.19225-13.54331
    c2.6866-7.49627-1.58614-14.52579-6.27173-15.98557c-4.68559-1.45738-9.0975-3.58369-18.71194-2.17661
    c-0.07833,6.60266-3.18257,26.89714-0.62808,28.57442C78.02548,87.71678,91.38985,90.07005,92.31281,89.44425z"/>
  <path fill="#F0D0B3" d="M86.31596,59.98088c1.98378-0.1333,4.13476-1.95324,7.89979-0.50292c0,0,0.12983-5.29846,2.35686-7.90446
    c2.22704-2.60599-10.90582-2.60252-10.90582-2.60252s-0.74857,6.69632-2.62468,8.91509
    c-0.47022,0.56029,0.43633,1.29593,1.03867,1.61884C84.88552,59.93297,85.60128,60.03119,86.31596,59.98088z"/>
  <path fill="#F0D0B3" d="M91.26588,55.73042c6.019-2.00354,8.74896-6.1044,11.60181-13.22639
    c2.96735-7.41315-1.60242-15.22526-9.81577-17.7564c-8.21083-2.53102-16.64635,1.65153-18.84177,9.33968
    c-2.19781,7.68923,1.1849,17.57746,5.84702,19.89337C83.95094,55.9211,89.83665,56.20759,91.26588,55.73042z"/>
  <path fill="#808284" d="M88.11253,41.42561c0.41644,0.41058,0.95566,0.28661,1.20706-0.27128
    c0.25032-0.56029,0.11581-1.34396-0.29823-1.75214c-0.41872-0.4071-0.95913-0.28302-1.20946,0.27488
    C87.56171,40.23735,87.69729,41.02209,88.11253,41.42561z"/>
  <path fill="#808284" d="M77.23367,39.57885c0.30063,0.4374,0.76259,0.35788,1.02932-0.17319
    c0.26553-0.53454,0.23739-1.32048-0.06432-1.75561c-0.30063-0.43393-0.76151-0.3556-1.02812,0.17666
    C76.90501,38.36113,76.93304,39.14599,77.23367,39.57885z"/>
  <path fill="#BBBDBF" d="M102.93549,45.79308c1.37785-2.2468,4.08205-3.77329,4.93243-6.31724
    c0.76954-2.30537,0.24673-5.15581-0.58723-7.37111c-0.95327-2.53114-1.95564-5.3956-3.60011-7.56646
    c-3.39433-4.47731-10.95145-7.4716-16.48382-7.25649c-1.72999,0.06791-3.37912,0.4398-5.0576,0.8281
    c-1.26791,0.29009-2.52647,0.39309-3.62477,1.15328c-1.06549,0.73228-7.22607,11.57833-6.76172,13.13046
    c0.17906,0.58952,0.08073-0.0327,1.8282-0.20349c0,0,8.1852-4.37562,21.408,3.96157c3.7546,2.3686,0.37788,8.80514,3.9581,7.42141
    c2.49844-0.96141,1.57439,3.54404,0.14504,6.36287c0.97781,0.35093,2.2329-1.97312,2.23518-1.94629
    C101.93778,47.22831,102.48981,46.58262,102.93549,45.79308z"/>
  <path fill="#808284" d="M81.48772,44.23162c0-0.00227,2.05732-4.88213,2.01995-4.89615
    c-0.06551-0.02803-0.1357-0.00587-0.16959,0.04803l-0.0012-0.0024l-2.58719,4.82476l0.66904,1.34396l2.06319,0.26673
    L81.48772,44.23162z"/>
  <path fill="#F399C0" d="M54.3308,108.71887c8.64728-9.67181,13.84633-17.10603,17.12245-25.61869
    c0.74509-1.93348-1.9451-5.9723-1.38013-8.05537c1.50063-5.53944,5.75935-9.69876,6.44827-17.30606
    c-0.45154,4.98143-0.09714,12.65089,1.59776,13.38653c3.98373,1.86329,8.99102-9.19811,16.55042-11.38766
    c3.65867,1.34516,4.89962,2.33699,6.93838,5.40027c1.53811,2.31123,1.58721,3.50548,1.58841,5.04934
    c0.00108,1.54517-0.56496,3.66214-0.82115,4.32304c-6.49618,21.74839-6.66925,34.50336-11.81692,45.67579
    C83.52635,125.2039,76.53192,96.17913,54.3308,108.71887z"/>
  <linearGradient id="SVGID_2_" gradientUnits="userSpaceOnUse" x1="188.12366" y1="-3.75855" x2="200.10472" y2="-3.75855" gradientTransform="matrix(-0.291 0.9567 0.9567 0.291 166.1911 -115.945)">
    <stop  offset="0" style="stop-color:#919498"/>
    <stop  offset="0.5" style="stop-color:#62696A"/>
    <stop  offset="1" style="stop-color:#505558"/>
  </linearGradient>
  <path fill="url(#SVGID_2_)" d="M109.79074,76.05185c0.49597-0.86439,2.61773-10.24264-3.213-13.50007l-7.32081,9.03558
    L109.79074,76.05185z"/>
  <path fill="#F0D0B3" d="M126.29912,67.0982c-0.02803-5.73012-3.73353-15.85802-7.35004-21.16822
    c-1.67141-2.45388-2.25266-2.50658-4.85052-0.82582c-1.85502,1.20011-2.05384,1.94521-1.95216,2.25039
    c0,0.00359,1.048,2.94986,1.4048,4.01307c2.62001,7.85415,0.48424,11.39939,0.862,18.16697
    C119.32457,75.76296,126.27336,68.71117,126.29912,67.0982z"/>
  <path fill="#F0D0B3" d="M126.29912,67.0982c-5.90666,7.71617-20.94365,9.99926-27.09476,8.37121
    c-2.87033-0.75792-5.67287-2.97334-6.48695-5.95817c-1.87024-6.85418,4.5336-5.40266,4.84943-5.4447
    c0.00228,0.00227,0.65611-0.04683,1.76736-0.23978c9.87877-1.72878,10.67417,0.01054,16.00186-1.92413
    C123.09079,63.5635,127.27933,65.81748,126.29912,67.0982z"/>
  <path fill="#F399C0" d="M92.03326,69.56035c-2.0154-7.3922,4.88788-5.82367,5.22947-5.8693
    c0.00347,0,0.70761-0.0503,1.90293-0.25967c3.24115-0.56616,5.57107-0.78606,7.41208-0.8796
    c-0.10408,0.27955-0.21523,0.55442-0.3029,0.84451c-1.42469,4.69146,0.10528,9.56892,3.5159,12.65556
    c-4.26567,0.6609-8.21671,0.60701-10.76066-0.06671C95.93279,75.16878,92.90927,72.78041,92.03326,69.56035z"/>
  <linearGradient id="SVGID_3_" gradientUnits="userSpaceOnUse" x1="201.59204" y1="-1.06795" x2="180.90945" y2="41.46173" gradientTransform="matrix(0.9969 0.0785 -0.0785 0.9969 -139.97191 23.7838)">
    <stop  offset="0" style="stop-color:#F37F5F"/>
    <stop  offset="0.5" style="stop-color:#EC1C24"/>
    <stop  offset="1" style="stop-color:#D0232A"/>
  </linearGradient>
  <polygon fill="url(#SVGID_3_)" points="62.01775,39.09569 59.33342,39.36937 59.33342,39.36589 48.327,58.47679"/>
  <linearGradient id="SVGID_4_" gradientUnits="userSpaceOnUse" x1="204.28937" y1="0.23799" x2="183.60187" y2="42.77774" gradientTransform="matrix(0.9969 0.0785 -0.0785 0.9969 -139.97191 23.7838)">
    <stop  offset="0" style="stop-color:#F69454"/>
    <stop  offset="0.5" style="stop-color:#F37521"/>
    <stop  offset="1" style="stop-color:#D4622A"/>
  </linearGradient>
  <polygon fill="url(#SVGID_4_)" points="65.49508,44.63046 65.35123,41.93799 65.34309,41.94027 48.327,58.47679"/>
  <linearGradient id="SVGID_5_" gradientUnits="userSpaceOnUse" x1="203.61693" y1="-0.08721" x2="182.93085" y2="42.44966" gradientTransform="matrix(0.9969 0.0785 -0.0785 0.9969 -139.97191 23.7838)">
    <stop  offset="0" style="stop-color:#F37F5F"/>
    <stop  offset="0.5" style="stop-color:#EC1C24"/>
    <stop  offset="1" style="stop-color:#D0232A"/>
  </linearGradient>
  <polygon fill="url(#SVGID_5_)" points="65.34309,41.94027 62.65757,41.71809 62.65876,41.71342 48.327,58.47679"/>
  <linearGradient id="SVGID_6_" gradientUnits="userSpaceOnUse" x1="202.52536" y1="-0.62003" x2="181.83807" y2="41.91928" gradientTransform="matrix(0.9969 0.0785 -0.0785 0.9969 -139.97191 23.7838)">
    <stop  offset="0" style="stop-color:#F69454"/>
    <stop  offset="0.5" style="stop-color:#F37521"/>
    <stop  offset="1" style="stop-color:#D4622A"/>
  </linearGradient>
  <polygon fill="url(#SVGID_6_)" points="62.65876,41.71342 62.02242,39.09221 62.01775,39.09569 48.327,58.47679"/>
  <linearGradient id="SVGID_7_" gradientUnits="userSpaceOnUse" x1="197.77898" y1="-2.92633" x2="177.09286" y2="39.61059" gradientTransform="matrix(0.9969 0.0785 -0.0785 0.9969 -139.97191 23.7838)">
    <stop  offset="0" style="stop-color:#F69454"/>
    <stop  offset="0.5" style="stop-color:#F37521"/>
    <stop  offset="1" style="stop-color:#D4622A"/>
  </linearGradient>
  <polygon fill="url(#SVGID_7_)" points="55.63379,37.67112 54.09461,35.45582 54.09461,35.45582 48.327,58.47679"/>
  <linearGradient id="SVGID_8_" gradientUnits="userSpaceOnUse" x1="198.88106" y1="-2.39226" x2="178.19347" y2="40.14769" gradientTransform="matrix(0.9969 0.0785 -0.0785 0.9969 -139.97191 23.7838)">
    <stop  offset="0" style="stop-color:#F37F5F"/>
    <stop  offset="0.5" style="stop-color:#EC1C24"/>
    <stop  offset="1" style="stop-color:#D0232A"/>
  </linearGradient>
  <polygon fill="url(#SVGID_8_)" points="58.22458,36.90734 55.63619,37.67112 55.63379,37.67112 48.327,58.47679"/>
  <linearGradient id="SVGID_9_" gradientUnits="userSpaceOnUse" x1="199.71011" y1="-1.98558" x2="179.02531" y2="40.54863" gradientTransform="matrix(0.9969 0.0785 -0.0785 0.9969 -139.97191 23.7838)">
    <stop  offset="0" style="stop-color:#F69454"/>
    <stop  offset="0.5" style="stop-color:#F37521"/>
    <stop  offset="1" style="stop-color:#D4622A"/>
  </linearGradient>
  <polygon fill="url(#SVGID_9_)" points="59.33342,39.36589 58.22458,36.90734 58.22458,36.90734 48.327,58.47679"/>
  <linearGradient id="SVGID_10_" gradientUnits="userSpaceOnUse" x1="207.40523" y1="1.75591" x2="186.71982" y2="44.2914" gradientTransform="matrix(0.9969 0.0785 -0.0785 0.9969 -139.97191 23.7838)">
    <stop  offset="0" style="stop-color:#F69454"/>
    <stop  offset="0.5" style="stop-color:#F37521"/>
    <stop  offset="1" style="stop-color:#D4622A"/>
  </linearGradient>
  <polygon fill="url(#SVGID_10_)" points="69.34203,51.76646 70.17492,49.2061 70.16199,49.20502 48.327,58.47679"/>
  <linearGradient id="SVGID_11_" gradientUnits="userSpaceOnUse" x1="210.44478" y1="1.60894" x2="188.48103" y2="46.77306" gradientTransform="matrix(0.9969 0.0785 -0.0785 0.9969 -139.97191 23.7838)">
    <stop  offset="0" style="stop-color:#F37F5F"/>
    <stop  offset="0.5" style="stop-color:#EC1C24"/>
    <stop  offset="1" style="stop-color:#D0232A"/>
  </linearGradient>
  <polygon fill="url(#SVGID_11_)" points="72.0369,57.71767 70.20642,55.74563 70.21468,55.73977 48.327,58.47679"/>
  <linearGradient id="SVGID_12_" gradientUnits="userSpaceOnUse" x1="205.45856" y1="0.80955" x2="184.77341" y2="43.34448" gradientTransform="matrix(0.9969 0.0785 -0.0785 0.9969 -139.97191 23.7838)">
    <stop  offset="0" style="stop-color:#F37F5F"/>
    <stop  offset="0.5" style="stop-color:#EC1C24"/>
    <stop  offset="1" style="stop-color:#D0232A"/>
  </linearGradient>
  <polygon fill="url(#SVGID_12_)" points="68.09053,45.35101 65.494,44.63633 65.49508,44.63046 48.327,58.47679"/>
  <linearGradient id="SVGID_13_" gradientUnits="userSpaceOnUse" x1="208.64943" y1="2.35894" x2="187.96246" y2="44.89761" gradientTransform="matrix(0.9969 0.0785 -0.0785 0.9969 -139.97191 23.7838)">
    <stop  offset="0" style="stop-color:#F69454"/>
    <stop  offset="0.5" style="stop-color:#F37521"/>
    <stop  offset="1" style="stop-color:#D4622A"/>
  </linearGradient>
  <polygon fill="url(#SVGID_13_)" points="70.21468,55.73977 71.50714,53.37715 71.49541,53.37355 48.327,58.47679"/>
  <linearGradient id="SVGID_14_" gradientUnits="userSpaceOnUse" x1="209.81143" y1="2.92626" x2="189.12622" y2="45.46133" gradientTransform="matrix(0.9969 0.0785 -0.0785 0.9969 -139.97191 23.7838)">
    <stop  offset="0" style="stop-color:#F69454"/>
    <stop  offset="0.5" style="stop-color:#F37521"/>
    <stop  offset="1" style="stop-color:#D4622A"/>
  </linearGradient>
  <polygon fill="url(#SVGID_14_)" points="70.34799,59.81021 72.04863,57.72355 72.0369,57.71767 48.327,58.47679"/>
  <linearGradient id="SVGID_15_" gradientUnits="userSpaceOnUse" x1="205.93497" y1="1.0387" x2="185.2478" y2="43.57777" gradientTransform="matrix(0.9969 0.0785 -0.0785 0.9969 -139.97191 23.7838)">
    <stop  offset="0" style="stop-color:#F69454"/>
    <stop  offset="0.5" style="stop-color:#F37521"/>
    <stop  offset="1" style="stop-color:#D4622A"/>
  </linearGradient>
  <polygon fill="url(#SVGID_15_)" points="67.74786,48.02132 68.0988,45.34753 68.09053,45.35101 48.327,58.47679"/>
  <linearGradient id="SVGID_16_" gradientUnits="userSpaceOnUse" x1="208.79625" y1="1.94903" x2="187.73067" y2="45.26625" gradientTransform="matrix(0.9969 0.0785 -0.0785 0.9969 -139.97191 23.7838)">
    <stop  offset="0" style="stop-color:#F37F5F"/>
    <stop  offset="0.5" style="stop-color:#EC1C24"/>
    <stop  offset="1" style="stop-color:#D0232A"/>
  </linearGradient>
  <polygon fill="url(#SVGID_16_)" points="71.49541,53.37355 69.33269,51.77233 69.34203,51.76646 48.327,58.47679"/>
  <linearGradient id="SVGID_17_" gradientUnits="userSpaceOnUse" x1="207.13916" y1="1.62779" x2="186.45476" y2="44.16119" gradientTransform="matrix(0.9969 0.0785 -0.0785 0.9969 -139.97191 23.7838)">
    <stop  offset="0" style="stop-color:#F37F5F"/>
    <stop  offset="0.5" style="stop-color:#EC1C24"/>
    <stop  offset="1" style="stop-color:#D0232A"/>
  </linearGradient>
  <polygon fill="url(#SVGID_17_)" points="70.16199,49.20502 67.74439,48.02599 67.74786,48.02132 48.327,58.47679"/>
  <linearGradient id="SVGID_18_" gradientUnits="userSpaceOnUse" x1="197.12564" y1="-3.24513" x2="176.43864" y2="39.29362" gradientTransform="matrix(0.9969 0.0785 -0.0785 0.9969 -139.97191 23.7838)">
    <stop  offset="0" style="stop-color:#F37F5F"/>
    <stop  offset="0.5" style="stop-color:#EC1C24"/>
    <stop  offset="1" style="stop-color:#D0232A"/>
  </linearGradient>
  <polygon fill="url(#SVGID_18_)" points="54.09461,35.45582 51.68744,36.68277 51.68744,36.68277 48.327,58.47679"/>
  <linearGradient id="SVGID_19_" gradientUnits="userSpaceOnUse" x1="195.94873" y1="-3.81818" x2="175.2612" y2="38.72166" gradientTransform="matrix(0.9969 0.0785 -0.0785 0.9969 -139.97191 23.7838)">
    <stop  offset="0" style="stop-color:#F69454"/>
    <stop  offset="0.5" style="stop-color:#F37521"/>
    <stop  offset="1" style="stop-color:#D4622A"/>
  </linearGradient>
  <polygon fill="url(#SVGID_19_)" points="51.68744,36.68277 49.7657,34.78558 49.7645,34.78905 48.327,58.47679"/>
  <linearGradient id="SVGID_20_" gradientUnits="userSpaceOnUse" x1="211.75273" y1="1.1886" x2="188.95804" y2="48.06141" gradientTransform="matrix(0.9969 0.0785 -0.0785 0.9969 -139.97191 23.7838)">
    <stop  offset="0" style="stop-color:#F37F5F"/>
    <stop  offset="0.5" style="stop-color:#EC1C24"/>
    <stop  offset="1" style="stop-color:#D0232A"/>
  </linearGradient>
  <polygon fill="url(#SVGID_20_)" points="70.34799,59.81021 48.327,58.47679 71.77148,62.08743 70.33745,59.81488"/>
  <linearGradient id="SVGID_21_" gradientUnits="userSpaceOnUse" x1="214.83806" y1="-22.31728" x2="202.44643" y2="2.04217" gradientTransform="matrix(0.9982 0.0606 -0.0606 0.9982 -159.56131 44.9935)">
    <stop  offset="0" style="stop-color:#EDC6B6"/>
    <stop  offset="0.5" style="stop-color:#E4B987"/>
    <stop  offset="0.52694" style="stop-color:#E4B885"/>
    <stop  offset="1" style="stop-color:#DDA96E"/>
  </linearGradient>
  <polygon fill="url(#SVGID_21_)" points="50.48972,34.02886 49.13642,33.94814 47.41937,62.25116 48.77267,62.33068"/>
  <linearGradient id="SVGID_22_" gradientUnits="userSpaceOnUse" x1="314.59006" y1="2122.27344" x2="302.19907" y2="2146.63159" gradientTransform="matrix(-0.155 0.9879 -0.9879 -0.155 2215.56763 86.6804)">
    <stop  offset="0" style="stop-color:#EDC6B6"/>
    <stop  offset="0.5" style="stop-color:#E4B987"/>
    <stop  offset="0.52694" style="stop-color:#E4B885"/>
    <stop  offset="1" style="stop-color:#DDA96E"/>
  </linearGradient>
  <polygon fill="url(#SVGID_22_)" points="72.45681,62.94715 72.66618,61.60786 44.65552,57.21476 44.44616,58.55272"/>
  <path fill="#F0D0B3" d="M54.48518,49.04704c-1.9088,2.00246-3.5171,4.516-5.51477,6.36755
    c-0.26913-0.82223-2.57677,0.30183-4.10553,3.89378c-1.28779,3.02124,0.12756,3.83174,2.7066,7.95943
    c2.34166-3.21539,11.78183-10.31857,10.69059-11.39005c-0.9977-0.98009-3.51722,2.84111-3.68442,2.59318
    c-0.46555-0.70066,5.15929-3.96864,3.68202-5.41668c-1.12873-1.11352-2.45736,3.13119-5.17797,3.88791
    c2.56731-3.58022,6.29269-5.33128,5.11018-6.49031c-1.17664-1.151-3.1791,2.27147-6.64602,5.0037
    C52.79161,53.45308,58.02695,48.80618,54.48518,49.04704"/>

</svg>
