<svg version="1.1" xmlns="http://www.w3.org/2000/svg" xmlns:xlink="http://www.w3.org/1999/xlink"
 width="160px" height="160px" viewBox="-219 321 160 160">
<path fill="#BBBBBB" d="M-81.8,446.6c-0.5,0.1-1,0.4-2,0.4c-6.9,0.6-18.6-2.1-21.1,1.1c-0.5,1.1,0,2.3,1.9,3.5
c0.6,0.5,1.2,0.9,1.9,1.4c3.4,2.3,7,4.5,1.2,6.3c-1,0.3-2.1,0.5-3.2,0.7c-6.6,1.4-14.4,2.3-22.7,2.6c-2,0.1-4,0.1-6.1,0.1
c-4.4,0-9.3,0.3-12.7-0.7c-10.8-2.8-15.7-7.1-28.9-8.8c-1.2-0.2-2.5-0.4-3.5-0.8c-1-0.4-1.8-0.9-2.1-1.5c-0.5-0.5-0.9-1-1.2-1.5
c-1.1-1.5-1.7-3.1-2-4.6c-0.1-1.5-0.2-3.3,0.3-5c0.1-0.6,0.2-1.2,0.3-1.8c0.9-3.4-6.4-9.5,8.8-9.9c3.3-0.1,6.4,0,9.6,0.3
c1.6,0.1,3.1,0.3,4.7,0.5c13.3,1.7,10.8-4.2,16.7-6.1c2.5-1,6.4,0.5,8.8,1.1c7.8,2.4,16.2,6.3,27.9,5.2c1.3-0.2,2.5-0.4,3.8-0.6
c3.8-0.5,7.7-1,11.9-1.1c1.5-0.2,2.9,0.3,3.4,0.8c0.5,3.7-2.5,7.5,1.7,11.2c0.6,0.6,1.3,1.1,2,1.6c0.3,0.4,0.7,0.8,1.2,1.2
c0.4,0.4,0.9,0.8,1.4,1.2c0.6,0.6,1.1,1.5,0.3,2.2C-80.1,446.1-80.8,446.4-81.8,446.6z"/>
<path fill="#FFDD99" d="M-136.7,456.7c8.3-0.3,16-1.2,22.7-2.6c1.1-0.2,2.2-0.5,3.2-0.7c5.8-1.8,2.2-4.1-1.2-6.3
c-0.7-0.5-1.3-0.9-1.9-1.4c-1.9-1.2-2.4-2.3-1.9-3.5c2.5-3.2,14.2-0.5,21.1-1.1c1,0,1.5-0.3,2-0.4c1-0.2,1.7-0.5,2.1-0.8
c0.8-0.7,0.3-1.5-0.3-2.2c-0.4-0.4-0.9-0.8-1.4-1.2c-0.4-0.4-0.9-0.8-1.2-1.2c-0.6-0.5-1.3-1.1-2-1.6c-2.1-1.8-2.4-3.6-2.3-5.4
c-1.3,0.2-2.6,0.3-4,0.5c-1.3,0.2-2.5,0.4-3.8,0.6c-11.7,1.1-20-2.8-27.9-5.2c-2.5-0.6-6.4-2.1-8.8-1.1c-5.9,1.9-3.4,7.8-16.7,6.1
c-1.6-0.2-3.1-0.3-4.7-0.5c-3.1-0.3-6.3-0.4-9.6-0.3c-15.2,0.3-7.8,6.5-8.8,9.9c-0.1,0.6-0.2,1.2-0.3,1.8c-0.4,1.8-0.4,3.5-0.3,5
c0.2,0.9,0.5,1.9,1,2.9c11,1.9,15.9,5.8,25.8,8.3c3.4,1,8.3,0.6,12.7,0.7C-140.7,456.9-138.7,456.8-136.7,456.7z"/>
<path fill="#666666" d="M-118.8,400.5c-5.6,6.6-12.4,14-12.4,14c-9.1-3.1-12-4.5-17.6-5.3c-6-0.9,8.6-16.8,17.6-16.8
C-122.1,392.4-114.9,395.8-118.8,400.5z"/>
<path fill="#E59C45" d="M-99.2,375.3c-0.2-8.7-10.7-15.9-16.5-24.3c-0.9-1.2-1.7-2.3-2.4-3.3c-2.2-3-3.6-5-3.6-5
c0-0.5-2.3-1.3-2.3-1.3s-0.5,0.2-1.5,0.6c-0.5,0.2-1.1,0.5-1.7,0.8c-3.1,1.3-6,3-7.6,5.9c-8.5,13.8-22,23-28.8,37
c-3.5,7.1,9.6,15,14.7,23.3c2-0.7,4.2-1.1,6.5-1.1c4.1,0,7.6,0.8,10.1,1.4c0.2-0.2,1.1,1.5,1.3,1.3
C-118.1,400.5-98.9,392.2-99.2,375.3z"/>
<path fill="#FFAB50" d="M-148.9,409.1c-4.5-6.7-9.9-12.4-14.6-19c-1.8,1.4-4,3.1-4.3,4.4c-0.2,3.4,3.7,5.3,5.3,8.2
c0.4,0.6,0.9,1.1,1.3,1.7c2,2.6,4.1,5.4,6.2,8.1C-153.2,411.1-151.2,409.9-148.9,409.1z"/>
<polygon fill="#CC862B" points="-99.3,375 -124.6,342 -123,334.3 -97.5,367.5 "/>
<path fill="#CC862B" d="M-97.7,374.6c-1,0-2,0.7-2.5,1.5c-7.5,12.6-18.2,22-29.6,31.1c-0.9,0.7-1.8,1.5-2.7,2.4
c0.8,1.5,1.2,3.2,1.2,4.9c0,0,0,0,0,0c14.2-10.6,31.7-20,34.2-39.2C-97,375.2-97.1,374.7-97.7,374.6z"/>
<path fill="#E5BC73" d="M-126.8,445.9h-14.4c0,0,4.8-9.7,7.2-9.7C-131.6,436.1-126.8,445.9-126.8,445.9z"/>
<polygon fill="#E5BC73" points="-129.1,431 -130,431.3 -130.6,430.7 -130.3,429.8 -129.5,429.6 -128.9,430.2 "/>
<polygon fill="#E5BC73" points="-134,424 -135.4,424.3 -136.3,423.3 -135.9,422 -134.6,421.6 -133.6,422.6 "/>
<polygon fill="#E5BC73" points="-133,420.3 -134.1,420.5 -134.7,419.6 -134.3,418.5 -133.2,418.4 -132.5,419.3 "/>
<path fill="#E5BC73" d="M-141.2,445.9c0-0.9,3.2-1.6,7.2-1.6s7.2,0.7,7.2,1.6s-3.2,2-7.2,2S-141.2,446.7-141.2,445.9z"/>
<ellipse fill="#BBBBBB" cx="-190.2" cy="458.9" rx="11.8" ry="3.6"/>
<path fill="#FFDD99" d="M-202.1,458.9c0,0.1,0,0.3,0.1,0.4c2.1,1,5.8,1.7,10.1,1.7c6.5,0,11.8-1.6,11.8-3.6c0-0.1,0-0.3-0.1-0.4
c-2.1-1-5.8-1.7-10.1-1.7C-196.8,455.2-202.1,456.8-202.1,458.9z"/>
</svg>
