<svg version="1.1" xmlns="http://www.w3.org/2000/svg" xmlns:xlink="http://www.w3.org/1999/xlink"
 width="160px" height="160px" viewBox="-219 321 160 160">
<path fill="#4F663D" d="M-143.9,410.3c0,0-8.5-0.1-10.5,4.9s-3.6,15.6-3.5,16.1c0.1,0.4-0.8,8.2-2.9,8.5c-2.1,0.3-5,2.8-6.4-7
c-1.5-9.8,8.5-15.6,8.7-16.2s7.6-6.3,7.6-6.3s2.6-1.6,4.3-1.8s3.4,0,3.4,0L-143.9,410.3z"/>
<path fill="#4F663D" d="M-191.9,415.9c0,0,10.2,10,26,1.1c7.4-4.2,14.1-11.1,13.1-13.7c-2.8-7.3-0.1-14.1-0.1-14.1
s-7.9-0.3-12.1-3.6c-3.5-2.7-16.1,3.1-21.3,9C-196.1,405.9-191.9,415.9-191.9,415.9z"/>
<path fill="#4F663D" d="M-161.1,335.4c0,0-12.4,7.3-7.9,24.8c2.1,8.2,7,16.5,9.8,16.2c7.8-0.8,13.6,3.6,13.6,3.6s2.4-7.5,6.6-10.7
c3.6-2.7,1.3-16.4-3.1-22.9C-150.4,333.9-161.1,335.4-161.1,335.4z"/>
<path fill="#4F663D" d="M-130.4,390.7c0,0,9.2-0.4,11.5,0.8c2.3,1.2,2.2,5.7,6.1,8.6c6.2,4.6,14.1,7.6,18.9,3
c4.8-4.6,1.9-12.2,0-14.6c-1.9-2.4-3-7.3-12.8-10.4s-19.4,0.3-21.8,1.9c-2.4,1.6-8.5,4.1-9.5,5.7"/>
<path fill="#4F663D" d="M-109.8,428c0,0,8.5-11.5-2.4-26c-5.1-6.8-12.9-12.5-15.4-11.1c-6.9,3.8-14,2-14,2s0.8,7.8-1.9,12.5
c-2.2,3.9,5.2,15.6,11.8,19.9C-119.1,433.5-109.8,428-109.8,428z"/>
<path fill="#3C4C2E" d="M-113.1,423.2c0,0-5.9-18.7-18.8-23.4L-113.1,423.2z"/>
<path fill="#3C4C2E" d="M-147.7,374c0,0,0.1-29.4-12.7-34.7L-147.7,374z"/>
<path fill="#3C4C2E" d="M-157.5,390.3c0,0-25.9,6.5-31.6,21.2L-157.5,390.3z"/>
<path fill="#608A47" d="M-144.6,404.5c0,0,1.5,20.9,1.4,22.4c-0.1,1.5,4.1,4.2,4.1,4.2s-2.1-15.6-1.7-20.5
C-140.4,405.8-144.6,404.5-144.6,404.5z"/>
<path fill="#608A47" d="M-134.7,376.2c0,0-0.5,3-1.6,3.9c-1.1,0.9-5.4,4.5-6,4.7c-0.6,0.2-2.6-3.1-2.4-7c0.2-3.9-3-2.7-3-2.7v3.8
c0,0,2.7,5.9,1.9,7c-0.8,1.1-5.5,2.5-6.5,2.4c-0.9-0.1-4.2-0.3-4.6-0.5c-0.4-0.1,2.1,5.6,2.1,5.6s2.2-2.5,3.8-2.9
c1.6-0.4,5-1.8,5.4-1.9c0.4-0.1,6-3.3,6.5-3.8c0.5-0.5,5.9-4.4,9.8-3.3C-125.3,382.5-134.7,376.2-134.7,376.2z"/>
<path fill="#608A47" d="M-155.9,351c0,0-11.9,9.7-9.2,20.3c2.1,8.2,5.9,12,8.3,10.7c7-3.5,11.2,0.2,11.2,0.2s0.7-5,5.7-6.9
c2.7-1,5.4-9.7,0.7-16.1C-143.9,352.8-155.9,351-155.9,351z"/>
<path fill="#608A47" d="M-184.3,401.7c0,0,11.1,12.7,22.5,9.3c8.9-2.6,12.8-6.9,11.4-9.5c-4.1-7.6-0.2-12.2-0.2-12.2
s-5.5-0.6-7.8-5.9c-1.2-2.9-10.8-5.5-17.6-0.2C-182.9,388.4-184.3,401.7-184.3,401.7z"/>
<path fill="#608A47" d="M-108,355.9c0,0-15.7-6.3-23.3-0.4c-7.9,6.1-8.1,13-6.2,15.3c3.8,4.7,1.3,11.2,1.3,11.2s5.6-1.8,10.6,1.4
c2.9,1.8,12.2,1,16.8-6.8C-104.2,368.7-108,355.9-108,355.9z"/>
<path fill="#608A47" d="M-133.9,411.5c0,0,8.8-9.3,6.8-16.3c-2.1-7.2-6.9-9.3-9-8.6c-4.3,1.4-8.2-2.2-8.2-2.2s-0.3,4.4-3.9,7.1
c-2.1,1.6-4.1,8.3,0.1,13.7C-143.9,410.6-133.9,411.5-133.9,411.5z"/>
<path fill="#608A47" d="M-134.6,466.7c0,0,16.5-11.7,15.5-23.2c-1-11.9-7.9-16.5-11.4-16.1c-7.2,0.8-12.1-5.9-12.1-5.9
s-1.8,6.7-8.3,9.8c-3.7,1.8-8.9,11.6-4,21.3C-149.9,462.3-134.6,466.7-134.6,466.7z"/>
<path fill="#54773E" d="M-155.3,353c0,0,4.2,20.5,9.3,27.8L-155.3,353z"/>
<path fill="#54773E" d="M-179.9,400.6c0,0,20.2-5.5,27.1-11.1"/>
<path fill="#54773E" d="M-110.5,357.9c0,0-15.6,10.2-22.9,21.4L-110.5,357.9z"/>
<path fill="#54773E" d="M-134.3,410.3c0,0-1.6-17-9.2-23.4L-134.3,410.3z"/>
<path fill="#54773E" d="M-134.3,462.3c0,0,2.2-29.6-7.6-36.8L-134.3,462.3z"/>
<path fill="#3C4C2E" d="M-112.3,390.7c-3.4-2.5-15.4-4.3-15.4-4.3c20.6-2,29.8,13.4,29.8,13.4L-112.3,390.7z"/>
</svg>
