<svg version="1.1" xmlns="http://www.w3.org/2000/svg" xmlns:xlink="http://www.w3.org/1999/xlink" width="160px"
  height="160px" viewBox="0 0 160 160" >
  <ellipse fill="#C3C5C7" cx="80.20435" cy="114.25916" rx="60.334" ry="19.2871"/>
  <polyline fill="#C3C5C7" points="19.87034,98.9282 19.87034,114.2592 80.45144,130.5795 140.45433,114.2592 140.45433,98.9282"/>
  <ellipse fill="#E7E6E6" cx="80.20435" cy="98.92822" rx="60.334" ry="19.2871"/>
  <path fill="#C3C5C7" d="M132.74924,99.1752c0,7.1709-25.6313,15.084-52.5449,15.084s-52.2978-7.9131-52.2978-15.084
    c0-8.3301,25.3842-15.083,52.2978-15.083S132.74924,90.8451,132.74924,99.1752z"/>
  <path fill="#A2A4A7" d="M128.42793,104.4916c0,0.8653-16.65469,9.7676-48.22359,9.7676c-30.4966,0-48.0127-8.81931-48.0127-9.7676
    c0-5.3945,21.0991-9.7675,48.0127-9.7675S128.42793,99.0971,128.42793,104.4916z"/>
  <ellipse fill="#5E5F62" cx="60.13452" cy="100.69568" rx="2.3496" ry="0.4268"/>
  <ellipse fill="#5E5F62" cx="71.66675" cy="101.12256" rx="2.3496" ry="0.4277"/>
  <ellipse fill="#5E5F62" cx="66.86182" cy="103.39294" rx="4.3777" ry="0.3975"/>
  <ellipse fill="#5E5F62" cx="69.31714" cy="107.14893" rx="2.3496" ry="0.4277"/>
  <ellipse fill="#5E5F62" cx="63.48096" cy="108.67029" rx="2.34935" ry="0.4268"/>
  <ellipse fill="#5E5F62" cx="66.96802" cy="100.26794" rx="2.3491" ry="0.4277"/>
  <ellipse fill="#5E5F62" cx="102.11035" cy="106.29443" rx="2.3494" ry="0.4277"/>
  <ellipse fill="#5E5F62" cx="105.97388" cy="103.89978" rx="2.34915" ry="0.4268"/>
  <ellipse fill="#5E5F62" cx="111.47314" cy="107.07764" rx="3.9221" ry="0.7216"/>
  <ellipse fill="#5E5F62" cx="113.74487" cy="104.38025" rx="2.3496" ry="0.4268"/>
  <ellipse fill="#5E5F62" cx="117.67285" cy="105.86755" rx="2.3494" ry="0.4268"/>
  <ellipse fill="#5E5F62" cx="93.38232" cy="107.57666" rx="2.34935" ry="0.4268"/>
  <ellipse fill="#5E5F62" cx="80.85254" cy="107.57666" rx="2.3494" ry="0.4268"/>
  <ellipse fill="#5E5F62" cx="77.15088" cy="111.51794" rx="2.34935" ry="0.4268"/>
  <ellipse fill="#5E5F62" cx="75.58374" cy="108.24255" rx="2.3496" ry="0.4277"/>
  <ellipse fill="#5E5F62" cx="90.64136" cy="109.73767" rx="4.6631" ry="0.5078"/>
  <path fill="#5E5F62" d="M102.99534,104.3813c0,1.2939-7.0151,2.3408-15.664,2.3408c-8.6495,0-15.6646-1.0469-15.6646-2.3408
    c0-1.29591,7.01511-2.3428,15.6646-2.3428C95.98024,102.0385,102.99534,103.0854,102.99534,104.3813z"/>
  <polygon fill="#DFDFDF" points="86.76833,34.2162 86.76833,55.2934 100.49294,71.3461 81.19314,92.9731 81.19314,104.4916
    94.12083,104.4916 96.32693,93.2797 116.06614,69.5317 99.95193,53.4174 100.49294,34.2162"/>
  <polygon fill="#CDA248" stroke="#E7E6E6" stroke-width="0.18381" points="100.49294,34.2162 86.76833,34.2162 86.76833,55.2934
    99.95193,53.4174"/>
  <path fill="#D4D1D2" d="M65.83034,34.2162c0,0-4.9951,1.1631-5.6958,3.8829c-0.7012,2.7207,2.4492,8.4082,5.6958,10.8808
    c3.2466,2.4727,2.4897,3.9561-1.2114,8.4063c-3.7017,4.4511-3.4698,9.8916,0,15.331c3.4692,5.4404,7.7548,9.1494,3.2627,16.0733
    c-4.4917,6.92281,0.9394,7.1699,1.9331,8.6543c0.9936,1.4834-3.9605-5.6875,0-7.6661c3.9604-1.9775,6.4204-5.9336,4.2016-10.1377
    c-2.2192-4.2041-7.0434-14.8359-2.77679-18.5449c4.26659-3.7099,3.15179-10.3857,0-12.8584
    c-3.15141-2.4726-9.5962-8.4072-6.62061-10.6328C67.59354,35.3793,65.83034,34.2162,65.83034,34.2162z"/>
  <path fill="#D4D1D2" d="M56.70193,56.5297c0,0-2.0362,0.7539-2.3213,2.5176c-0.2862,1.7627,0.9975,5.4492,2.3213,7.0518
    c1.3227,1.6035,1.0141,2.5644-0.4942,5.4492c-1.5083,2.8857-1.414,6.41209,0,9.9384c1.4141,3.5264,3.1602,5.93069,1.3301,10.419
    c-1.8311,4.4873,0.3823,4.6475,0.7871,5.6094c0.4053,0.9609-1.6138-3.6866,0-4.9688c1.6143-1.2822,2.6167-3.8467,1.7124-6.5722
    c-0.9043-2.7247-2.8701-9.6163-1.1313-12.0206c1.7382-2.4052,1.2841-6.7314,0-8.3349c-1.2842-1.6026-3.9102-5.4492-2.6983-6.8926
    C57.41964,57.2836,56.70193,56.5297,56.70193,56.5297z"/>
  <path fill="#D4D1D2" d="M77.47243,47.1342c0,0-2.0357,0.7539-2.3213,2.5166c-0.28571,1.7627,0.998,5.4502,2.3213,7.0518
    c1.3227,1.6035,1.0146,2.5654-0.4942,5.4502c-1.5078,2.8847-1.4135,6.4111,0,9.9375c1.4141,3.5263,3.1602,5.9306,1.3301,10.4189
    c-1.8306,4.4873,0.3823,4.6484,0.78761,5.6094c0.4048,0.9619-1.6138-3.6865,0-4.9688c1.6138-1.2822,2.6162-3.8466,1.71239-6.5713
    c-0.9043-2.7255-2.8706-9.6171-1.1318-12.0214c1.7383-2.4043,1.2842-6.7315,0-8.335c-1.2842-1.6025-3.9102-5.4492-2.6983-6.8926
    C78.19014,47.8881,77.47243,47.1342,77.47243,47.1342z"/>
  <path fill="#D4D1D2" d="M64.61893,37.6049c2.9746-2.2256,0.7168-3.3887,0.7168-3.3887s-4.5005,1.1631-5.2012,3.8829"/>

</svg>
