<?xml version="1.0" encoding="utf-8"?>
<!DOCTYPE svg PUBLIC "-//W3C//DTD SVG 1.1//EN" "http://www.w3.org/Graphics/SVG/1.1/DTD/svg11.dtd">
<svg version="1.1" xmlns="http://www.w3.org/2000/svg" xmlns:xlink="http://www.w3.org/1999/xlink" x="0px" y="0px" width="160px"
  height="160px" viewBox="0 0 160 160" enable-background="new 0 0 160 160" xml:space="preserve">
  <path fill-rule="evenodd" clip-rule="evenodd" fill="#D0EBEF" d="M101.99839,43.46164
    c-19.77221-0.63329-39.0396-2.71583-58.88156-0.93041c-7.47635,28.56115,0,58.01528,1.72628,86.87401
    c19.55411,1.78502,40.54682,6.84315,57.5126-1.18959c3.45142-1.78551,1.1499-12.79335,1.1499-19.93412
    c-0.57448-17.25555-2.87513-34.51125-1.85894-51.65026C102.06339,48.87599,101.99839,43.46164,101.99839,43.46164z"/>
  <linearGradient id="SVGID_1_" gradientUnits="userSpaceOnUse" x1="98.68187" y1="87.26813" x2="125.93675" y2="87.26813">
    <stop  offset="0" style="stop-color:#8ECDE9"/>
    <stop  offset="0.5" style="stop-color:#69BEE1"/>
    <stop  offset="0.59056" style="stop-color:#54B9DD"/>
    <stop  offset="0.86777" style="stop-color:#18A9D2"/>
    <stop  offset="1" style="stop-color:#00A3CE"/>
  </linearGradient>
  <path fill-rule="evenodd" clip-rule="evenodd" fill="url(#SVGID_1_)" d="M125.93675,60.96546
    c-5.13493-7.30831-17.7881-11.47349-23.93836-17.50382c-7.4773,28.5616-0.21715,58.72093,1.50723,87.58026
    C123.06067,132.82683,125.93675,60.96546,125.93675,60.96546z"/>
  <linearGradient id="SVGID_2_" gradientUnits="userSpaceOnUse" x1="39.85455" y1="307.88684" x2="103.50562" y2="307.88684" gradientTransform="matrix(1 0 0 -1 0 402.49509)">
    <stop  offset="0" style="stop-color:#8ECDE9"/>
    <stop  offset="0.5" style="stop-color:#69BEE1"/>
    <stop  offset="0.59056" style="stop-color:#54B9DD"/>
    <stop  offset="0.86777" style="stop-color:#18A9D2"/>
    <stop  offset="1" style="stop-color:#00A3CE"/>
  </linearGradient>
  <path fill-rule="evenodd" clip-rule="evenodd" fill="url(#SVGID_2_)" d="M68.42319,59.77588
    c-10.45459-3.21756-14.60487-14.13278-25.30636-17.24464c-7.47635,28.56115,0,58.01528,1.72628,86.87401
    c8.81185,5.67175,14.99461,14.89507,21.85476,17.24464c3.6621,1.25497,36.80775-31.22758,36.80775-38.36835
    C102.93114,91.02598,68.42319,59.77588,68.42319,59.77588z"/>
  <linearGradient id="SVGID_3_" gradientUnits="userSpaceOnUse" x1="63.43514" y1="103.41624" x2="127.08656" y2="103.41624">
    <stop  offset="0" style="stop-color:#8ECDE9"/>
    <stop  offset="0.5" style="stop-color:#69BEE1"/>
    <stop  offset="0.59056" style="stop-color:#54B9DD"/>
    <stop  offset="0.86777" style="stop-color:#18A9D2"/>
    <stop  offset="1" style="stop-color:#00A3CE"/>
  </linearGradient>
  <path fill-rule="evenodd" clip-rule="evenodd" fill="url(#SVGID_3_)" d="M125.86624,145.42186
    c-19.7723,0.63319-39.32651,3.01295-59.16837,1.22803c-7.47729-28.56111,0-58.01528,1.72533-86.87401
    c19.55411-1.78551,41.45068,6.97174,57.51356,1.18959c0.80835,3.60062,1.1498,12.7933,1.1498,19.93358
    c-0.57533,17.25562-2.87598,34.51176-1.85884,51.65081C125.64348,140.30513,125.86624,145.42186,125.86624,145.42186z"/>
  <path fill="#00ADEE" d="M62.70353,44.63491c1.99437-7.41056-3.02642-20.61185,7.22309-22.01853
    c3.45141-0.43301,6.798-0.32456,10.35433,0.21601c2.51039,0.4331,4.49734,2.59725,4.81105,5.1945
    c0.62827,5.62663-1.15076,11.1447,0,16.55522c0.10482,0.54106,2.8241,0.32456,4.49734,0.32456
    c-1.15076-8.65639,5.22958-23.69687-5.43836-26.51024c-6.69413-1.73114-13.59705-0.97358-20.49987-0.54106
    c-0.62741,0.10806-1.35869,0.2165-1.98695,0.43261c-0.52259,0.10845-0.94111,0.43301-1.35964,0.64951
    c-1.67334,0.97407-2.82315,2.70531-2.82315,4.65246c0.10397,7.14175-0.20974,14.17496-0.36569,21.30757L62.70353,44.63491z"/>
  <path fill="#00ADEE" d="M87.97549,60.518c1.99437,7.41062-3.39762,23.76515,6.85179,25.1718
    c3.45151,0.43299,6.7981,0.32455,10.35433-0.21604c2.50954-0.43304,4.49744-2.59725,4.8102-5.19403
    c0.62827-5.62706-3.74478-12.09283-2.59488-17.5029c0.10482-0.54106,4.56511,0.18337,6.23845,0.18337
    c-1.1499,8.65642,6.08335,24.13627-4.58468,26.94954c-6.69309,1.73163-13.59601,0.97407-20.49892,0.54155
    c-0.62732-0.10854-1.35955-0.2165-1.98695-0.43301c-0.52249-0.10854-0.94102-0.43311-1.35964-0.64912
    c-1.67325-0.97407-2.82401-2.70531-2.82401-4.65298c0.10483-7.14172-0.94662-17.74677-1.10257-24.87886L87.97549,60.518z"/>

</svg>
