<svg xmlns="http://www.w3.org/2000/svg" width="40" height="40" viewBox="0 0 40 40"><path opacity=".2" d="M20.2 5.17c-8.253 0-14.945 6.69-14.945 14.945 0 8.255 6.692 14.946 14.946 14.946s14.947-6.69 14.947-14.945c0-8.254-6.692-14.946-14.946-14.946zm0 26.58c-6.424 0-11.633-5.21-11.633-11.635S13.777 8.48 20.2 8.48c6.426 0 11.634 5.21 11.634 11.635 0 6.426-5.208 11.634-11.633 11.634z"/><path d="M26.013 10.047l1.654-2.866C25.47 5.91 22.924 5.17 20.2 5.17v3.31c2.12 0 4.1.577 5.813 1.567z"><animateTransform attributeType="xml" attributeName="transform" type="rotate" from="0 20 20" to="360 20 20" dur="0.5s" repeatCount="indefinite"/></path></svg>