<svg xmlns="http://www.w3.org/2000/svg" width="100%" height="100%" viewBox="0 0 160 100"
  role="presentation" aria-labelledby="title" aria-describedby="desc"
  style="fill-rule:evenodd; clip-rule:evenodd;" >
  <title id="title">Bicycle</title>
  <desc id="desc">A white silhouette of a bycicle</desc>
  <path
    style="fill:#fff;"
    d="M100,7l7.5,0c0.8,0 1.5,0.7 1.5,1.5c0,0.3 -0.2,0.5 -0.5,0.5l1.5,0l1,1l-0.332,0.332c0.485,0.245 1.245,0.368 2.332,0.368c1.5,0 2.1,0.8 2.1,1.6c0,0.8 -0.7,1.6 -2.1,1.6c-1.8,0 -2.8,0.3 -3.3,1c-0.8,1.2 0.2,3.6 1.6,7.2l0.4,1l2.761,6.673l0.433,-0.197l0.415,0.91l-0.435,0.198l1.205,2.923c1.912,-0.398 3.892,-0.607 5.921,-0.607c16,0 29,13 29,29c0,16 -13,29 -29,29c-16,0 -29,-13 -29,-29c0,-12.417 7.829,-23.027 18.815,-27.156l-2.415,-7.244c0,-0.2 -0.3,-0.2 -0.4,-0.1l-31.247,33.722c1.088,1.304 1.747,2.973 1.747,4.778c0,2.465 -1.229,4.677 -3.1,6.049l2.75,5.458c0.383,0.038 0.724,0.221 0.968,0.493l1.882,0l1,0.5l0,1l-1,0.5l-1.882,0c-0.275,0.307 -0.674,0.5 -1.118,0.5c-0.444,0 -0.843,-0.193 -1.118,-0.5l-1.882,0l-1,-0.5l0,-1l1,-0.5l1.495,0l-2.865,-4.985c-0.821,0.313 -1.708,0.485 -2.63,0.485c-0.7,0 -1.4,-0.1 -2.1,-0.3l-5.633,-1.314c-4.048,11.142 -14.737,19.114 -27.267,19.114c-16,0 -29,-13 -29,-29c0,-16 13,-29 29,-29c4.793,0 9.317,1.167 13.303,3.231l2.802,-4.558l-0.377,-0.252l0.554,-0.832l0.347,0.231l1.163,-1.892l0.426,0.262l-1.172,1.908l0.831,0.554l2.723,-4.352c0.2,-0.2 0.2,-0.5 0.1,-0.8l-0.22,-0.66l-2.042,3.401l-0.857,-0.515l2.266,-3.775l-0.147,0.049l-0.2,0c-0.3,0 -0.5,-0.2 -0.5,-0.5c0,-0.3 0.1,-0.4 0.3,-0.5l0.769,-0.256l-3.078,-9.235l-0.991,0.991l-1,0l-1,-1l0,-0.771l-0.8,0.271c-0.048,0 -0.12,0.023 -0.193,0.048l-0.014,0.004c-0.073,0.025 -0.145,0.048 -0.193,0.048c-0.8,0 -1.6,-0.3 -2.2,-0.9l-0.7,-0.7c-0.3,-0.4 -0.6,-0.5 -0.9,-0.5l-1,0c-1.1,0 -2,-0.9 -2,-2c0,-0.6 0.4,-1 1,-1l17.3,0c0.5,0 0.9,0.1 1.3,0.3l2.7,1.3c1.1,0.6 1.7,0.9 1.7,1.3c0,1 -1.6,1 -2.2,1c-1.2,0 -2.3,-0.3 -3.3,-0.8l-0.2,-0.1l-0.3,0l-4,1.5l-1.764,0l3.256,9.769l0.808,-0.269l0.4,1l-0.66,0.22l0.211,0.632l47.014,-6.691l-0.062,-0.2l-0.103,0.039l-0.2,0c-0.3,0 -0.5,-0.2 -0.5,-0.5c0,-0.3 0.1,-0.4 0.3,-0.5l0.372,-0.124l-1.772,-5.376c-0.1,-0.3 -0.1,-0.5 0.1,-0.8c0.2,-0.3 0.4,-0.4 0.7,-0.4l0.9,0l-1.224,-1.3l-4.776,0c-0.6,0 -1,-0.4 -1,-1c0,-0.6 0.4,-1 1,-1ZM38.9,86.929l0,-12.329l-1.908,-5.874l-1.892,5.745l0,12.458c0.627,0.047 1.261,0.071 1.9,0.071c0.639,0 1.273,-0.024 1.9,-0.071ZM123.9,86.929l0,-12.002l-1.908,-5.872l-1.892,5.77l0,12.104c0.627,0.047 1.261,0.071 1.9,0.071c0.639,0 1.273,-0.024 1.9,-0.071ZM119.9,86.913l0,-11.478l-3.58,10.916c1.164,0.271 2.36,0.46 3.58,0.562ZM34.9,86.913l0,-11.834l-3.702,11.243c1.203,0.287 2.439,0.486 3.702,0.591ZM42.715,86.343l-3.615,-11.127l0,11.697c1.233,-0.103 2.44,-0.295 3.615,-0.57ZM127.616,86.366l-3.516,-10.824l0,11.371c1.198,-0.1 2.372,-0.284 3.516,-0.547ZM131.396,85.172l-3.797,-11.687l-3.499,-4.815l0,5.902l3.809,11.725c1.198,-0.291 2.363,-0.668 3.487,-1.125ZM46.49,85.134l-3.796,-11.685l-3.594,-4.946l0,6.065l3.81,11.728c1.232,-0.298 2.427,-0.689 3.58,-1.162ZM116.027,86.281l3.873,-11.809l0,-5.827l-3.629,5.032l-3.757,11.458c1.132,0.465 2.305,0.85 3.513,1.146ZM31.003,86.275l3.897,-11.836l0,-6.004l-3.7,5.106l-3.802,11.546c1.16,0.484 2.365,0.882 3.605,1.188ZM134.84,83.452l-6.671,-9.181l3.505,10.786c1.097,-0.461 2.155,-0.998 3.166,-1.605ZM49.925,83.401l-6.851,-9.429l3.601,11.085c1.128,-0.474 2.213,-1.029 3.25,-1.656ZM112.236,85.019l3.456,-10.539l-6.488,8.998c0.97,0.579 1.983,1.095 3.032,1.541ZM27.213,85.01l3.601,-10.937l-6.753,9.319c1.006,0.61 2.059,1.152 3.152,1.618ZM108.946,83.322l7.055,-9.782l1.921,-5.86l-4.61,3.324l-7.34,10.178c0.936,0.783 1.93,1.499 2.974,2.14ZM53.208,81.03l-7.013,-9.652l-5.188,-3.769l1.867,5.748l7.222,9.939c1.096,-0.676 2.136,-1.434 3.112,-2.266ZM138.133,81.094l-7.192,-9.898l-4.936,-3.587l1.864,5.739l7.228,9.947c1.068,-0.658 2.082,-1.395 3.036,-2.201ZM23.89,83.287l7.13,-9.838l1.898,-5.766l-4.96,3.577l-7.113,9.815c0.956,0.811 1.973,1.551 3.045,2.212ZM105.743,80.988l6.798,-9.428l-9.436,6.805c0.813,0.938 1.695,1.815 2.638,2.623ZM20.692,80.945l6.748,-9.312l-9.335,6.732c0.799,0.921 1.664,1.784 2.587,2.58ZM55.862,78.403l-9.144,-6.644l6.642,9.14c0.891,-0.772 1.728,-1.607 2.502,-2.496ZM140.862,78.404l-9.135,-6.638l6.634,9.132c0.891,-0.772 1.727,-1.606 2.501,-2.494ZM143.22,75.218l-9.987,-7.256l-5.59,-1.817l3.513,4.836l9.902,7.194c0.79,-0.929 1.513,-1.918 2.162,-2.957ZM58.221,75.217l-9.614,-6.985l-5.36,-1.251l2.901,3.992l9.911,7.201c0.79,-0.93 1.513,-1.918 2.162,-2.957ZM17.909,78.136l10.093,-7.278l3.461,-4.775l-5.894,1.908l-9.861,7.111c0.658,1.067 1.395,2.081 2.201,3.034ZM102.909,78.136l10.188,-7.347l3.372,-4.675l-6.049,1.984l-9.713,7.004c0.659,1.067 1.396,2.081 2.202,3.034ZM145.009,71.788l-10.853,-3.526l9.222,6.7c0.616,-1.013 1.162,-2.074 1.631,-3.174ZM60.009,71.789l-9.798,-3.183l-0.852,-0.199l9.02,6.554c0.615,-1.013 1.161,-2.072 1.63,-3.172ZM15.551,74.845l9.087,-6.553l-10.665,3.453c0.455,1.074 0.983,2.109 1.578,3.1ZM100.551,74.844l8.928,-6.438l-10.466,3.432c0.446,1.041 0.96,2.045 1.538,3.006ZM122.151,68.571l1.749,5.385l0,-5.561l-1.165,-1.604l-0.584,1.78ZM37.097,68.404l1.803,5.549l0,-5.726l-1.2,-1.652l-0.603,1.829ZM120.1,68.368l0,5.494l1.735,-5.291l-0.584,-1.799l-1.151,1.596ZM35.1,68.159l0,5.673l1.787,-5.428l-0.608,-1.872l-1.179,1.627ZM71.992,73l0.001,0l-0.002,0l0.001,0ZM71.984,73l0,0l-0.001,0l0.001,0ZM71.975,73l0.001,0l-0.001,0l0,0ZM71.967,73l0,0l0,0l0,0ZM33.194,67.484l-1.789,5.432l3.495,-4.822l0,-1.84l-1.706,1.23ZM39.1,68.162l3.394,4.671l-1.763,-5.424l-1.631,-1.186l0,1.939ZM118.336,67.382l-1.756,5.355l3.32,-4.605l0,-1.878l-1.564,1.128ZM65.338,68.179c-0.239,1.099 -0.54,2.175 -0.9,3.223l5.347,1.248c-2.114,-0.692 -3.766,-2.353 -4.447,-4.471ZM124.1,68.16l3.199,4.402l-1.707,-5.253l-1.492,-1.084l0,1.935ZM76.188,71.63l0.002,-0.001l-0.002,0.001ZM98.896,71.561l11.386,-3.734l5.169,-3.727l-5.56,0l-12.145,3.983c0.299,1.196 0.685,2.357 1.15,3.478ZM60.341,70.97l-6.685,-1.56l6.469,2.101c0.074,-0.179 0.146,-0.36 0.216,-0.541ZM146.275,67.997l-11.996,-3.897l-5.85,0l4.942,3.591l11.754,3.819c0.467,-1.132 0.852,-2.305 1.15,-3.513ZM71.25,68.28l-0.95,1.62c-0.3,0.6 0,1.4 0.7,1.5c0.3,0.1 0.7,0.1 1,0.1c0.3,0 0.7,0 1,-0.1c0.223,-0.032 0.405,-0.135 0.541,-0.28l-1.564,-2.72c-0.254,-0.002 -0.498,-0.044 -0.727,-0.12ZM13.857,71.467l11.575,-3.747l5.02,-3.62l-5.733,0l-11.997,3.884c0.294,1.197 0.675,2.361 1.135,3.483ZM40.849,67.123l4.775,3.47l-2.675,-3.681l-2.347,-0.548l0.247,0.759ZM61.275,67.999l-10.531,-3.421l-4.191,-0.478l-3.122,0l4.867,3.536l12.222,2.852c0.293,-0.811 0.546,-1.642 0.755,-2.489ZM31.786,65.978l-3.267,4.507l4.558,-3.287l0.604,-1.833l-1.895,0.613ZM125.847,67.124l4.523,3.286l-3.213,-4.422l-1.877,-0.61l0.567,1.746ZM116.953,65.955l-3.085,4.279l4.213,-3.039l0.592,-1.804l-1.72,0.564ZM67.677,66.507c-0.634,0.077 -1.059,0.735 -0.777,1.393c0.2,0.6 0.6,1.2 1,1.7c0.4,0.5 1.3,0.4 1.6,-0.2l0.93,-1.586c-0.327,-0.283 -0.577,-0.653 -0.714,-1.074l-2.039,-0.233ZM76.2,66.5l-1.852,0c-0.062,0.293 -0.178,0.566 -0.337,0.809l1.306,2.592c0.295,0.019 0.587,-0.107 0.783,-0.401c0.4,-0.5 0.8,-1.1 1,-1.7c0.3,-0.6 -0.2,-1.3 -0.9,-1.3ZM121.468,66.471l0.526,1.617l0.523,-1.597l-0.534,-0.735l-0.515,0.715ZM36.424,66.332l0.569,1.75l0.562,-1.706l-0.582,-0.801l-0.549,0.757ZM37.777,66.341l1.123,1.546l0,-1.809l-0.226,-0.164l-0.703,-0.164l-0.194,0.591ZM122.85,66.439l1.05,1.445l0,-1.804l-0.753,-0.547l-0.297,0.906ZM120.1,66.109l0,1.746l1.036,-1.436l-0.278,-0.856l-0.758,0.546ZM35.1,66.11l0,1.708l1.103,-1.521l-0.259,-0.796l-0.844,0.609ZM97.675,67.79l11.253,-3.69l-11.841,0c0.105,1.259 0.303,2.491 0.588,3.69ZM61.708,65.827l-9.468,-1.079l9.105,2.958c0.144,-0.618 0.266,-1.244 0.363,-1.879ZM146.913,64.1l-11.663,0l11.095,3.605c0.274,-1.172 0.466,-2.376 0.568,-3.605ZM12.652,67.691l11.093,-3.591l-11.658,0c0.102,1.224 0.292,2.423 0.565,3.591ZM115.964,64.1l-4.741,3.419l5.544,-1.818l1.154,-1.601l-1.957,0ZM30.965,64.1l-4.602,3.319l5.399,-1.748l1.138,-1.571l-1.935,0ZM41.154,64.1l1.187,1.634l5.116,1.662l-4.536,-3.296l-1.767,0ZM126.156,64.1l1.187,1.633l5.105,1.658l-4.53,-3.291l-1.762,0ZM33.917,65.288l-0.564,1.711l1.547,-1.115l0,-0.914l-0.983,0.318ZM40.574,66.923l-0.199,-0.612l-0.949,-0.222l1.148,0.834ZM119.027,65.275l-0.532,1.622l1.405,-1.013l0,-0.895l-0.873,0.286ZM124.1,65.854l1.334,0.97l-0.506,-1.561l-0.828,-0.268l0,0.859ZM42.789,66.351l1.705,0.398l-1.853,-0.603l0.148,0.205ZM40.418,65.798l2.073,0.483l-0.174,-0.24l-2.034,-0.661l0.135,0.418ZM37.632,66.142l0.144,-0.438l-0.556,-0.129l0.412,0.567ZM122.168,65.5l0.464,0.64l0.26,-0.793l-0.403,-0.292l-0.321,0.445ZM121.113,65.379l0.24,0.738l0.444,-0.616l-0.293,-0.404l-0.391,0.282ZM36.124,65.408l0.224,0.689l0.434,-0.599c-0.226,-0.008 -0.446,-0.039 -0.658,-0.09ZM39.1,65.49l1.091,0.254l-0.143,-0.44l-0.948,-0.308l0,0.494ZM35.1,64.968l0,0.772l0.629,-0.454c-0.222,-0.084 -0.432,-0.191 -0.629,-0.318ZM120.1,64.923l0,0.817l0.66,-0.477l-0.163,-0.503l-0.497,0.163ZM123.245,65.233l0.655,0.476l0,-0.779l-0.502,-0.163l-0.153,0.466ZM39.867,64.1l0.301,0.928l1.849,0.6l-1.11,-1.528l-1.04,0ZM124.865,64.1l0.301,0.925l1.691,0.55l-1.071,-1.475l-0.921,0ZM33.147,64.1l-1.063,1.466l1.713,-0.554l0.3,-0.912l-0.95,0ZM118.291,64.1l-1.04,1.442l1.538,-0.504l0.307,-0.938l-0.805,0ZM76.354,62.733l-2.149,2.319c0.062,0.143 0.11,0.293 0.143,0.448l1.852,0c0.7,0 1.2,-0.7 0.9,-1.4c-0.157,-0.472 -0.438,-0.944 -0.746,-1.367ZM38.162,65.171l0.203,0.147l0.535,0.125l0,-0.512l-0.595,-0.193l-0.143,0.433ZM121.799,64.993l0.183,0.252l0.18,-0.249c-0.054,0.003 -0.108,0.004 -0.162,0.004c-0.067,0 -0.134,-0.002 -0.201,-0.007ZM37.333,65.078l0.28,0.065l-0.214,-0.156l-0.066,0.091ZM120.926,64.802l0.09,0.277l0.239,-0.172c-0.112,-0.029 -0.222,-0.064 -0.329,-0.105ZM123.071,64.803c-0.094,0.036 -0.191,0.067 -0.289,0.094l0.208,0.151l0.081,-0.245ZM38.073,64.802c-0.094,0.036 -0.191,0.068 -0.289,0.094l0.208,0.151l0.081,-0.245ZM36.797,64.993l0.001,0.001c0.066,0.004 0.134,0.006 0.202,0.006l0.122,0.028l0.023,-0.031c-0.048,0.002 -0.096,0.003 -0.145,0.003c-0.068,0 -0.136,-0.002 -0.203,-0.007ZM39.1,64.142l0,0.539l0.833,0.27l-0.277,-0.851l-0.514,0c-0.014,0.014 -0.028,0.028 -0.042,0.042ZM34.27,64.214l-0.237,0.721l0.712,-0.23c-0.173,-0.147 -0.332,-0.312 -0.475,-0.491ZM119.858,64.1l-0.446,0l-0.269,0.822l0.757,-0.249l0,-0.531c-0.014,-0.014 -0.028,-0.028 -0.042,-0.042ZM35.927,64.802l0.005,0.014c0.102,0.037 0.208,0.069 0.317,0.095l0.006,-0.004c-0.112,-0.029 -0.221,-0.064 -0.328,-0.105ZM124.1,64.142l0,0.537l0.713,0.232l-0.263,-0.811l-0.408,0c-0.014,0.014 -0.028,0.028 -0.042,0.042ZM35.688,64.715l0.001,0l-0.001,0l0,0ZM70.138,63.688l-0.638,-1.088c-0.4,-0.6 -1.2,-0.7 -1.6,-0.1c-0.4,0.5 -0.8,1.1 -1,1.7c-0.041,0.082 -0.067,0.166 -0.08,0.249l2.18,0.251c0.59,0 1.109,-0.497 1.138,-1.012ZM38.9,64.321c-0.089,0.073 -0.183,0.141 -0.28,0.204l0.28,0.091l0,-0.295ZM123.9,64.321c-0.089,0.073 -0.182,0.14 -0.278,0.203l0.278,0.09l0,-0.293ZM120.1,64.321l0,0.287l0.271,-0.089c-0.094,-0.061 -0.185,-0.127 -0.271,-0.198ZM35.1,64.321l0,0.029c0.073,0.059 0.15,0.114 0.229,0.166l0.025,-0.008c-0.088,-0.058 -0.173,-0.12 -0.254,-0.187ZM34.858,64.1l-0.032,0c0.024,0.025 0.049,0.05 0.074,0.074l0,-0.032c-0.014,-0.014 -0.028,-0.028 -0.042,-0.042ZM31.242,63.9l1.803,0l0.511,-0.705l-0.921,-0.299l-1.393,1.004ZM43.156,63.9l1.642,0l-1.947,-0.222l0.305,0.222ZM97.071,63.9l12.467,0l5.571,-1.827l-6.074,-1.973l-11.964,0c-0.047,0.627 -0.071,1.261 -0.071,1.9c0,0.639 0.024,1.273 0.071,1.9ZM125.474,63.161l0.537,0.739l1.632,0l-1.375,-0.999l-0.794,0.26ZM126.619,62.785l1.534,1.115l5.511,0l-5.246,-1.704l-1.799,0.589ZM12.071,63.9l12.292,0l5.692,-1.843l-6.025,-1.957l-11.959,0c-0.047,0.627 -0.071,1.261 -0.071,1.9c0,0.639 0.024,1.273 0.071,1.9ZM124.436,63.75c-0.037,0.052 -0.075,0.101 -0.115,0.15l0.164,0l-0.049,-0.15ZM39.509,63.645c-0.059,0.088 -0.121,0.173 -0.188,0.255l0.27,0l-0.082,-0.255ZM25.337,63.9l5.392,0l1.552,-1.119l-1.74,-0.566l-5.204,1.685ZM146.929,60.1l-12.121,0l-5.907,1.937l5.734,1.863l12.294,0c0.047,-0.627 0.071,-1.261 0.071,-1.9c0,-0.639 -0.024,-1.273 -0.071,-1.9ZM39.65,63.432l0.152,0.468l0.959,0l-0.364,-0.501l-0.475,-0.055l-0.272,0.088ZM41.008,63.9l1.638,0l-0.401,-0.291l-1.579,-0.18l0.342,0.471ZM34.469,63.611l-0.008,0.024c0.058,0.092 0.121,0.18 0.189,0.265l0.029,0c-0.075,-0.092 -0.146,-0.189 -0.21,-0.289ZM33.738,63.284l-0.446,0.616l0.756,0c-0.122,-0.194 -0.226,-0.4 -0.31,-0.616ZM119.538,63.714l-0.06,0.186l0.201,0c-0.049,-0.06 -0.096,-0.122 -0.141,-0.186ZM118.435,63.9l0.727,0l0.151,-0.461l-0.442,-0.143l-0.436,0.604ZM116.241,63.9l1.824,0l0.506,-0.702l-0.935,-0.304l-1.395,1.006ZM124.648,63.432l0.152,0.468l0.84,0l-0.465,-0.641l-0.527,0.173ZM110.501,63.9l5.227,0l1.554,-1.121l-1.69,-0.549l-5.091,1.67ZM61.929,60.1l-11.986,0l-5.49,1.777l17.477,2.01c0.046,-0.623 0.07,-1.252 0.07,-1.887c0,-0.639 -0.024,-1.273 -0.071,-1.9ZM73.101,63.122l0.599,-1.022c0.3,-0.6 0,-1.4 -0.7,-1.5c-0.3,-0.1 -0.7,-0.1 -1,-0.1c-0.215,0 -0.481,0 -0.725,0.037l0.625,1.863c0.215,0.573 0.738,0.838 1.201,0.722ZM34.103,62.781l-0.005,0.007c0.026,0.102 0.057,0.201 0.093,0.298l0.014,0.004c-0.04,-0.1 -0.074,-0.204 -0.102,-0.309ZM119.143,62.918l-0.088,0.122l0.149,0.048c-0.022,-0.056 -0.042,-0.112 -0.061,-0.17ZM124.878,62.85c-0.022,0.073 -0.046,0.144 -0.073,0.215l0.184,-0.061l-0.111,-0.154ZM117.937,62.677l0.819,0.266l0.284,-0.395l-0.461,-0.334l-0.642,0.463ZM125.032,62.553l0.257,0.353l0.679,-0.223l-0.556,-0.404l-0.38,0.274ZM33.51,62.265l-0.574,0.413l0.679,0.221c-0.054,-0.206 -0.089,-0.418 -0.105,-0.634ZM125.668,62.094l0.652,0.474l1.614,-0.529l-1.509,-0.491l-0.757,0.546ZM31.027,62.058l1.556,0.505l0.742,-0.535l-0.679,-0.494l-1.619,0.524ZM116.075,62.072l1.509,0.49l0.74,-0.534l-0.658,-0.478l-1.591,0.522ZM68.871,59.723l-0.242,-0.723l-2.783,0c0.102,0.986 0.154,1.987 0.154,3c0,0.123 -0.001,0.246 -0.002,0.368c0.682,-1.135 1.678,-2.055 2.873,-2.645ZM125,61.98c0,0.006 0,0.013 0,0.02c0,0.071 -0.002,0.142 -0.007,0.211l0.163,-0.118l-0.156,-0.113ZM119.001,61.909l-0.166,0.12l0.169,0.122c-0.003,-0.05 -0.004,-0.1 -0.004,-0.151c0,-0.03 0,-0.06 0.001,-0.091ZM34.001,61.91l0,0c-0.001,0.03 -0.001,0.06 -0.001,0.09c0,0.05 0.001,0.1 0.003,0.149l0.001,0.001c-0.003,-0.05 -0.004,-0.1 -0.004,-0.15c0,-0.03 0,-0.06 0.001,-0.09ZM110.006,60.1l5.586,1.815l1.775,-0.582l-1.697,-1.233l-5.664,0ZM124.983,61.597l0.429,0.312l0.659,-0.476l-0.786,-0.255l-0.302,0.419ZM25.001,60.1l5.54,1.8l1.805,-0.584l-1.674,-1.216l-5.671,0ZM128.433,60.1l-1.706,1.231l1.69,0.549l5.429,-1.78l-5.413,0ZM118.018,61.435l0.562,0.408l0.367,-0.265l-0.263,-0.362l-0.666,0.219ZM43.434,60.1l-1.709,1.232l1.104,0.359l0.905,0.104l5.235,-1.695l-5.535,0ZM33.589,61.228l-0.59,0.192l0.508,0.369c0.012,-0.191 0.04,-0.378 0.082,-0.561ZM41.006,61.481l0.064,-0.046l-0.888,-0.289l-0.133,0.184c0.078,0.033 0.162,0.057 0.251,0.07l0.706,0.081ZM34.155,61.045l-0.01,0.004c-0.023,0.069 -0.042,0.14 -0.059,0.212l0.004,0.006c0.019,-0.075 0.041,-0.149 0.065,-0.222ZM119.149,61.064l-0.165,0.054l0.107,0.147c0.017,-0.068 0.036,-0.135 0.058,-0.201ZM116.18,60.1l1.538,1.117l0.781,-0.256l-0.626,-0.861l-1.693,0ZM40.941,60.1l-0.574,0.791l1.005,0.326l1.549,-1.117l-1.98,0ZM126.062,60.1l-0.593,0.822l0.904,0.294l1.547,-1.116l-1.858,0ZM124.841,61.033c0.019,0.058 0.037,0.115 0.053,0.174l0.091,-0.127l-0.144,-0.047ZM39.841,61.036c0.019,0.055 0.037,0.111 0.052,0.168l0.089,-0.123l-0.141,-0.045ZM31.183,60.1l1.516,1.101l0.887,-0.287l-0.591,-0.814l-1.812,0ZM118.244,60.1l0.555,0.763l0.481,-0.158l-0.197,-0.605l-0.839,0ZM39.69,60.671l0.477,0.155l0.527,-0.726l-0.863,0l-0.169,0.516c0.009,0.018 0.019,0.036 0.028,0.055ZM124.929,60.1l-0.192,0.584l0.433,0.141l0.522,-0.725l-0.763,0ZM34.078,60.1l-0.836,0l0.488,0.672c0.092,-0.237 0.209,-0.462 0.348,-0.672ZM34.342,60.572c-0.019,0.038 -0.039,0.077 -0.057,0.116l0.02,-0.007c0.014,-0.029 0.029,-0.058 0.045,-0.087l-0.008,-0.022ZM39.527,60.384l0.094,-0.284l-0.123,0c-0.021,0.057 -0.036,0.115 -0.045,0.173c0.025,0.036 0.05,0.073 0.074,0.111ZM124.522,60.376l0.091,-0.276l-0.292,0c0.072,0.088 0.139,0.18 0.201,0.276ZM119.679,60.1l-0.281,0l0.087,0.265c0.06,-0.092 0.125,-0.18 0.194,-0.265ZM34.679,60.1l-0.029,0c-0.061,0.077 -0.119,0.157 -0.173,0.24l0.008,0.024c0.06,-0.091 0.125,-0.18 0.194,-0.264ZM98.836,52.585c-0.462,1.133 -0.843,2.308 -1.135,3.517l11.689,3.798l6.005,0l-4.818,-3.501l-11.741,-3.814ZM124.142,59.9l0.537,0l0.238,-0.728l-0.817,0.268l0,0.418c0.014,0.014 0.028,0.028 0.042,0.042ZM146.35,56.315l-10.932,3.585l11.495,0c-0.102,-1.222 -0.292,-2.419 -0.563,-3.585ZM33.097,59.9l1.027,0l-0.262,-0.807l-1.769,-0.575l1.004,1.382ZM61.822,59l-8.481,0l-2.78,0.9l11.352,0c-0.025,-0.302 -0.056,-0.602 -0.091,-0.9ZM145.146,52.539l-11.421,3.745l-5.014,3.616l5.744,0l11.825,-3.878c-0.294,-1.197 -0.675,-2.36 -1.134,-3.483ZM41.738,59l-0.652,0.9l2.112,0l1.248,-0.9l-2.708,0ZM127.293,58.393l-1.087,1.507l1.992,0l4.586,-3.307l-5.491,1.8ZM125.271,59.056l-0.277,0.844l0.842,0l0.972,-1.348l-1.537,0.504ZM115.905,59.9l1.823,0l-1.12,-1.541l-5.108,-1.66l4.405,3.201ZM12.631,56.397c-0.261,1.14 -0.445,2.31 -0.544,3.503l11.327,0l-10.783,-3.503ZM34.9,59.826c-0.025,0.024 -0.05,0.049 -0.074,0.074l0.032,0c0.014,-0.014 0.028,-0.028 0.042,-0.042l0,-0.032ZM40.473,59l-0.313,0.101l-0.263,0.799l0.942,0l0.652,-0.9l-1.018,0ZM119.9,59.858l0,-0.43l-0.805,-0.261l0.238,0.733l0.525,0c0.014,-0.014 0.028,-0.028 0.042,-0.042ZM39.6,59.9l0.087,0l0.095,-0.29l-0.182,0.29ZM97.632,56.395c-0.262,1.141 -0.445,2.311 -0.545,3.505l11.332,0l-10.787,-3.505ZM30.907,59.9l1.942,0l-1.08,-1.487l-5.261,-1.709l4.399,3.196ZM118.099,59.9l0.919,0l-0.275,-0.848l-1.649,-0.535l1.005,1.383ZM44.959,59l-1.248,0.9l5.876,0l2.78,-0.9l-7.408,0ZM13.835,52.586c-0.461,1.134 -0.842,2.309 -1.135,3.518l11.685,3.796l6.012,0l-4.812,-3.496l-11.75,-3.818ZM76.302,59.88l32.098,-34.68c0.1,-0.1 0.2,-0.3 0.1,-0.5l-0.9,-2.8c-0.2,-0.5 -0.6,-0.8 -1.1,-0.7l-45.6,6.5c-0.3,0.1 -0.5,0.4 -0.4,0.7l10.092,30.1l1.408,0c1.592,0 3.079,0.513 4.302,1.38ZM34.716,59.37l-0.619,-0.201l0.204,0.629c0.127,-0.154 0.265,-0.297 0.415,-0.428ZM123.9,59.679l0,-0.173l-0.158,0.052c0.054,0.039 0.107,0.079 0.158,0.121ZM35.244,59.542c-0.049,0.034 -0.097,0.07 -0.144,0.108l0,0.029c0.055,-0.045 0.111,-0.088 0.169,-0.129l-0.025,-0.008ZM120.254,59.561l-0.007,-0.02l-0.147,-0.048l0,0.186c0.05,-0.041 0.101,-0.08 0.154,-0.118ZM123.409,59.351l0.491,-0.161l0,-0.813l-0.725,0.522l0.13,0.399c0.035,0.017 0.07,0.035 0.104,0.053ZM35.682,59.288c-0.034,0.016 -0.067,0.032 -0.099,0.049l0.022,0.007c0.023,-0.012 0.047,-0.024 0.07,-0.036l0.007,-0.02ZM36.085,59.133c-0.054,0.017 -0.107,0.034 -0.159,0.053l-0.005,0.014c0.057,-0.022 0.114,-0.042 0.173,-0.06l-0.009,-0.007ZM120.1,59.178l0.029,0.009l-0.029,-0.087l0,0.078ZM122.942,59.151l-0.022,-0.067l-0.058,0.042c0.026,0.008 0.053,0.016 0.08,0.025ZM124.1,58.233l0,0.892l0.933,-0.306l0.541,-1.649l-1.474,1.063ZM33.983,58.817l0.917,0.298l0,-0.843l-1.433,-1.041l0.516,1.586ZM118.981,58.814l0.919,0.299l0,-0.613l-0.099,-0.298l-1.334,-0.969l0.514,1.581ZM72,59l-1.24,0l0.034,0.101c0.391,-0.066 0.794,-0.101 1.206,-0.101ZM35.618,58.794l-0.518,-0.376l0,0.66c0.164,-0.109 0.338,-0.204 0.518,-0.284ZM36.576,59.028c-0.035,0.004 -0.07,0.009 -0.105,0.015l0.004,0.003c0.033,-0.006 0.066,-0.011 0.099,-0.016l0.002,-0.002ZM37.448,59l0.026,0.036l0.05,-0.036l-0.076,0ZM122.209,58.667l0.267,0.367l0.346,-0.25l-0.216,-0.667l-0.397,0.55ZM37.206,59.007l-0.005,-0.007l-0.201,0c-0.054,0 -0.107,0.001 -0.16,0.004l0,0c0.053,-0.003 0.106,-0.004 0.16,-0.004c0.069,0 0.138,0.002 0.206,0.007ZM122.081,59.001l-0.057,-0.078l-0.056,0.077c0.011,0 0.021,0 0.032,0c0.027,0 0.054,0 0.081,0.001ZM121.714,58.841l0.124,-0.174l-0.337,-0.464l0.213,0.638ZM31.793,58.105l1.954,0.635l-0.555,-1.709l-4.617,-3.354l3.218,4.428ZM125.987,56.872l-0.6,1.831l1.72,-0.564l3.116,-4.321l-4.236,3.054ZM116.794,58.104l1.834,0.596l-0.574,-1.767l-4.472,-3.249l3.212,4.42ZM35.1,58.047l0.799,0.58l0.322,-0.976l-1.121,-1.543l0,1.939ZM36.84,58.504l-0.474,-0.654l-0.253,0.769c0.234,-0.064 0.478,-0.103 0.727,-0.115ZM122.823,57.815l0.255,0.785l0.822,-0.593l0,-1.685l-1.077,1.493ZM60.179,52.62l-11.565,3.744l-2.961,2.136l8.259,0l7.389,-2.392c-0.29,-1.199 -0.666,-2.363 -1.122,-3.488ZM61.37,56.401l-6.484,2.099l6.871,0c-0.1,-0.71 -0.229,-1.41 -0.387,-2.099ZM68.462,58.5l-9.562,-28.6c0,-0.2 -0.3,-0.3 -0.4,-0.1l-5.173,8.239c6.737,4.602 11.439,11.971 12.463,20.461l2.672,0ZM42.126,58.465l-0.026,0.035l3.04,0l2.544,-1.834l-5.558,1.799ZM37.205,58.5l0.632,0l-0.196,-0.602l-0.436,0.602ZM37.787,57.698l0.26,0.802l0.03,0l0.823,-1.315l0,-1.024l-1.113,1.537ZM41.926,56.195l-1.447,2.305l0.564,0l1.058,-0.343l3.171,-4.374l-3.346,2.412ZM36.443,57.616l0.579,0.797l0.543,-0.75l-0.565,-1.74l-0.557,1.693ZM121.509,57.704l0.514,0.707l0.468,-0.648l-0.498,-1.533l-0.484,1.474ZM56.152,45.937l-10.363,7.473l-3.365,4.643l6.053,-1.96l9.865,-7.114c-0.654,-1.069 -1.387,-2.086 -2.19,-3.042ZM17.876,45.903c-0.786,0.933 -1.506,1.924 -2.15,2.966l9.997,7.264l5.746,1.867l-3.418,-4.704l-10.175,-7.393ZM141.152,45.936l-10.159,7.326l-3.402,4.718l5.996,-1.966l9.755,-7.035c-0.654,-1.07 -1.387,-2.087 -2.19,-3.043ZM102.875,45.904c-0.786,0.933 -1.505,1.924 -2.15,2.966l9.989,7.259l5.594,1.817l-3.511,-4.833l-9.922,-7.209ZM33.31,56.746l1.59,1.155l0,-2.068l-3.413,-4.697l1.823,5.61ZM124.1,56.044l0,1.819l1.633,-1.177l1.747,-5.329l-3.38,4.687ZM118.309,56.748l1.329,0.965l-1.278,-3.833l-1.777,-2.446l1.726,5.314ZM37.106,55.602l0.604,1.86l1.19,-1.641l0,-5.669l-1.794,5.45ZM122.151,55.747l0.557,1.714l1.192,-1.652l0,-5.395l-1.749,5.333ZM35.1,55.768l1.198,1.649l0.597,-1.815l-1.795,-5.527l0,5.693ZM120.1,54l1.087,3.26l0.105,0.145l0.544,-1.659l-1.736,-5.342l0,3.596ZM39.1,55.886l0,0.979l3.347,-5.348l0.15,-0.457l-3.497,4.826ZM23.907,40.703c-1.097,0.675 -2.137,1.433 -3.113,2.265l7.21,9.923l5.031,3.655l-1.928,-5.934l-7.2,-9.909ZM108.823,40.754c-1.065,0.663 -2.077,1.403 -3.027,2.213l7.216,9.931l4.884,3.55l-1.884,-5.799l-7.189,-9.895ZM135.142,40.732l-7.083,9.822l-1.913,5.833l4.632,-3.34l7.329,-10.163c-0.933,-0.786 -1.924,-1.506 -2.965,-2.152ZM15.569,49.126c-0.612,1.016 -1.154,2.079 -1.619,3.182l10.85,3.525l-9.231,-6.707ZM100.568,49.127c-0.611,1.015 -1.153,2.078 -1.617,3.18l10.84,3.522l-9.223,-6.702ZM58.498,49.237l-9.09,6.555l10.656,-3.45c-0.451,-1.075 -0.975,-2.112 -1.566,-3.105ZM143.498,49.237l-8.97,6.468l10.502,-3.444c-0.444,-1.046 -0.956,-2.056 -1.532,-3.024ZM42.992,37.724l-3.892,11.821l0,6l3.703,-5.109l3.794,-11.525c-1.16,-0.484 -2.365,-0.882 -3.605,-1.187ZM128.056,37.74l-3.956,12.064l0,5.727l3.689,-5.115l3.777,-11.518c-1.131,-0.469 -2.303,-0.858 -3.51,-1.158ZM51.2,41.426l-8.849,14.093l3.482,-2.511l7.313,-10.091c-0.623,-0.528 -1.273,-1.026 -1.946,-1.491ZM31.081,37.706c-1.231,0.299 -2.427,0.689 -3.579,1.164l3.785,11.65l3.613,4.973l0,-6.033l-3.819,-11.754ZM38.9,37.071c-0.627,-0.047 -1.261,-0.071 -1.9,-0.071c-0.639,0 -1.273,0.024 -1.9,0.071l0,12.357l1.901,5.852l1.899,-5.767l0,-12.442ZM123.9,37.071c-0.627,-0.047 -1.261,-0.071 -1.9,-0.071c-0.639,0 -1.273,0.024 -1.9,0.071l0,3.115c0.185,0.182 0.3,0.435 0.3,0.714c0,0.279 -0.115,0.532 -0.3,0.714l0,7.819l1.894,5.83l1.906,-5.812l0,-12.38ZM119.9,53.4l0,-3.611l-2.423,-7.457l-0.557,0.254l2.28,8.714l0.7,2.1ZM113.087,38.638c-0.197,0.075 -0.392,0.152 -0.586,0.232l3.782,11.641l1.763,2.426l-0.346,-1.037l-4.613,-13.262ZM53.299,43.048l-6.948,9.587l9.606,-6.928c-0.818,-0.951 -1.707,-1.84 -2.658,-2.659ZM20.642,43.099c-0.918,0.795 -1.777,1.656 -2.571,2.575l9.41,6.837l-6.839,-9.412ZM138.336,43.08l-6.787,9.411l9.408,-6.784c-0.808,-0.939 -1.684,-1.817 -2.621,-2.627ZM105.568,43.164c-0.891,0.777 -1.725,1.616 -2.498,2.511l9.156,6.653l-6.658,-9.164ZM42.983,50.528l-0.092,0.279l0.698,-1.116l-0.606,0.837ZM27.317,38.947c-1.124,0.473 -2.206,1.025 -3.239,1.651l6.829,9.399l-3.59,-11.05ZM46.034,41.26l-2.846,8.643l1.963,-2.707l3.013,-4.817l-0.723,-0.482c-0.133,0.066 -0.283,0.103 -0.441,0.103c-0.462,0 -0.851,-0.314 -0.966,-0.74ZM112.223,38.986c-1.089,0.464 -2.139,1.003 -3.143,1.611l6.633,9.129l-3.49,-10.74ZM131.843,39.015l-3.475,10.598l6.517,-9.038c-0.973,-0.586 -1.989,-1.108 -3.042,-1.56ZM39.1,37.087l0,11.818l3.697,-11.229c-1.201,-0.285 -2.436,-0.484 -3.697,-0.589ZM124.1,37.087l0,11.754l3.664,-11.172c-1.191,-0.282 -2.414,-0.478 -3.664,-0.582ZM118.825,41.718l-1.073,0.488l2.148,6.612l0,-7.052c-0.147,0.085 -0.318,0.134 -0.5,0.134c-0.214,0 -0.413,-0.067 -0.575,-0.182ZM34.9,37.087c-1.235,0.103 -2.446,0.296 -3.624,0.572l3.624,11.154l0,-11.726ZM115.982,37.73c-0.173,0.043 -0.346,0.088 -0.518,0.134l0.836,2.536c0.1,0.1 0.1,0.1 0.1,0.2l0.263,1.004l0.503,-0.23l-1.184,-3.644ZM48.649,39.877l-0.651,1.058c0.001,0.022 0.002,0.043 0.002,0.065c0,0.022 -0.001,0.045 -0.002,0.067l0.697,0.464l0.758,-1.21c-0.265,-0.153 -0.533,-0.301 -0.804,-0.444ZM117.133,37.474c-0.288,0.057 -0.574,0.119 -0.858,0.186l1.166,3.589l0.963,-0.438c0.005,-0.061 0.016,-0.12 0.032,-0.178l-1.303,-3.159ZM46.782,38.988l-0.405,1.23c0.171,-0.136 0.388,-0.218 0.623,-0.218c0.307,0 0.583,0.139 0.766,0.358l0.437,-0.711c-0.466,-0.234 -0.94,-0.453 -1.421,-0.659ZM119.9,37.087c-0.765,0.064 -1.521,0.162 -2.265,0.293l1.132,2.746c0.173,-0.141 0.393,-0.226 0.633,-0.226c0.182,0 0.353,0.049 0.5,0.134l0,-2.947ZM51.574,36.93l2.772,-4.43l-0.824,-0.55l-2.776,4.515c0.279,0.151 0.555,0.306 0.828,0.465ZM115.583,33.714l-1.164,-2.823l-1.11,0.506c0.034,0.064 0.064,0.132 0.091,0.203l0.811,2.461c0.453,-0.127 0.91,-0.242 1.372,-0.347ZM108.409,18.235l0.509,1.537l0.626,-0.209l0.885,2.657l-0.629,0.21l2.726,8.225l1.641,-0.748l-4.267,-10.307c-0.415,-0.947 -0.794,-1.299 -1.491,-1.365ZM106.3,18.358l-46.985,6.687l0.185,0.555c0,0.2 0.3,0.3 0.5,0.3l46,-6.6c0.3,-0.1 0.5,-0.4 0.4,-0.7l-0.062,-0.2l-0.038,0l0,-0.042ZM109,10l-1,0l0.3,0.3c0.3,0.3 0.3,0.7 0.2,1c-0.1,0.3 -0.4,0.5 -0.8,0.5l-1.6,0l0.428,1.369l0.616,-0.206l0.885,2.657l-0.666,0.222l0.171,0.547l1.166,-0.389l0.3,0.9l-0.918,0.348l0.259,0.782c0.61,0.031 1.042,0.223 1.422,0.722c-0.591,-1.78 -0.775,-3.021 -0.263,-3.852c0.5,-0.7 1.6,-1.1 3.5,-1.1c1.3,0 1.9,-0.7 1.9,-1.4c0,-0.7 -0.6,-1.4 -1.9,-1.4c-1.169,0 -2,-0.169 -2.522,-0.478l-0.478,0.478l-1,-1ZM57,12.5l1.333,-0.5l-2.133,0c-0.1,0 -0.3,0 -0.4,0.1l-0.357,0.121l0.557,0.279l1,0ZM107,9"/>
</svg>
