<svg xmlns="http://www.w3.org/2000/svg" width="100%" height="100%" viewBox="0 0 60 60"
  role="img" aria-labelledby="title" aria-describedby="desc">
  <title id="title">GitHub</title>
  <desc id="desc">The GitHub octocat logo</desc>>
  <path id="GitHub" style="fill:#414042;" d="M30,60c-16.569,0 -30,-13.431 -30,-30c0,-16.569 13.431,-30 30,-30c16.569,0 30,13.431 30,30c0,16.569 -13.431,30 -30,30ZM30,4.634c-14.009,0 -25.366,11.357 -25.366,25.366c0,11.413 7.537,21.065 17.905,24.251c-0.004,-0.581 0.004,-4.088 -0.004,-4.702c-0.056,-0.035 -5.948,1.726 -8.482,-2.522c-0.403,-0.691 -1.057,-3.118 -2.824,-4.461c-0.062,-0.053 -1.368,-0.716 -1.488,-1.368c-0.013,-0.091 0.084,-0.281 0.213,-0.329c0.134,-0.049 2.282,-0.927 4.676,2.096c0.722,1.012 2.351,4.894 8.055,2.495c0.153,-0.598 0.459,-1.977 2.27,-2.354c-8.494,-1.01 -12.372,-4.234 -13.577,-11.461c-0.751,-4.927 0.694,-9.022 2.865,-11.043c-0.329,-0.43 -1.413,-4.03 0.272,-7.838c1.824,-0.364 5.173,0.94 8.115,3.049c4.15,-1.492 11.942,-1.104 14.73,0c1.324,-1.091 6.057,-3.638 8.088,-3.044c0.596,1.512 1.457,5.175 0.267,7.845c2.644,2.709 3.39,6.206 2.913,10.502c-0.583,6.511 -4.591,11.162 -13.591,11.93c2.266,1.555 2.367,3.989 2.445,4.95c0.019,2.239 -0.026,5.284 0.002,6.248c10.356,-3.194 17.882,-12.84 17.882,-24.244c0,-14.009 -11.357,-25.366 -25.366,-25.366Z"/>
</svg>
