<svg xmlns="http://www.w3.org/2000/svg" width="160px" height="160px" viewBox="0 0 160 160"
  role="img" aria-labelledby="title" aria-describedby="desc">
  <title id="title">Mug</title>
  <desc id="desc">A black mug with "Like a Boss" written on it.</desc>
  <path fill="#444444" d="M111,50c-8.8000031,0-16,11.1000061-16,26s7.1999969,26,16,26s13.9000015-11.1000061,13.9000015-26
    S119.8000031,50,111,50z M101,63c6.6999969,0-0.0999985-7,10-7c5.5999985,0,9,8.7999878,9,20s-3.4000015,20-9,20
    c-10,0-3.3000031-7-10-7V63z"/>
  <path fill="#dddddd" d="M40,108v13c0,1.7999878,1.3000031,3,3,3h52c1.6999969,0,3-1.2000122,3-3v-13H40z"/>
  <path fill="#dddddd" d="M98,36H40c-1.6999969,0-3,1.5-3,3.2999878V44h64v-4.7000122C101,37.5,99.6999969,36,98,36z"/>
  <path fill="#333333" d="M37,39.2999878v78.3999939c0,1.7999878,1.3000031,3.2999878,3,3.2999878h58c1.6999969,0,3-1.5,3-3.2999878
    V39.2999878H37z"/>
  <path fill="#444444" d="M41,39.2999878V116c0,1.1000061,0.8999939,2,2,2h57c0.5999985,0,1-0.3999939,1-1V39.2999878H41z"/>
  <g>
    <path fill="#f4f4f4" d="M53,84L53,84c-0.6,0-1-0.4-1-1v-6c0-0.6,0.4-1,1-1l0,0c0.6,0,1,0.4,1,1v6C54,83.6,53.6,84,53,84z"/>
    <path fill="#f4f4f4" d="M67,84L67,84c-0.6,0-1-0.4-1-1v-6c0-0.6,0.4-1,1-1l0,0c0.6,0,1,0.4,1,1v6C68,83.6,67.6,84,67,84z"/>
    <path fill="#f4f4f4" d="M71,84L71,84c-0.6,0-1-0.4-1-1v-6c0-0.6,0.4-1,1-1l0,0c0.6,0,1,0.4,1,1v6C72,83.6,71.6,84,71,84z"/>
    <path fill="#f4f4f4" d="M81,84L81,84c-0.6,0-1-0.4-1-1v-6c0-0.6,0.4-1,1-1l0,0c0.6,0,1,0.4,1,1v6C82,83.6,81.6,84,81,84z"/>
    <path fill="#f4f4f4" d="M82,83L82,83c0,0.6-0.4,1-1,1h-3c-0.6,0-1-0.4-1-1l0,0c0-0.6,0.4-1,1-1h3C81.6,82,82,82.4,82,83z"/>
    <path fill="#f4f4f4" d="M75,84L75,84c-0.6,0-1-0.4-1-1v-3c0-0.6,0.4-1,1-1l0,0c0.6,0,1,0.4,1,1v3C76,83.6,75.6,84,75,84z"/>
    <path fill="#f4f4f4" d="M56,79L56,79c0,0.6-0.4,1-1,1h-2c-0.6,0-1-0.4-1-1l0,0c0-0.6,0.4-1,1-1h2C55.6,78,56,78.4,56,79z"/>
    <path fill="#f4f4f4" d="M63,76L63,76c0.6,0,1,0.4,1,1v2c0,0.6-0.4,1-1,1l0,0c-0.6,0-1-0.4-1-1v-2C62,76.4,62.4,76,63,76z"/>
    <path fill="#f4f4f4" d="M59,80L59,80c0.6,0,1,0.4,1,1v2c0,0.6-0.4,1-1,1l0,0c-0.6,0-1-0.4-1-1v-2C58,80.4,58.4,80,59,80z"/>
    <path fill="#f4f4f4" d="M64,83L64,83c0,0.6-0.4,1-1,1h-4c-0.6,0-1-0.4-1-1l0,0c0-0.6,0.4-1,1-1h4C63.6,82,64,82.4,64,83z"/>
    <path fill="#f4f4f4" d="M75,57L75,57c0,0.6-0.4,1-1,1H64c-0.6,0-1-0.4-1-1l0,0c0-0.6,0.4-1,1-1h10C74.6,56,75,56.4,75,57z"/>
    <path fill="#f4f4f4" d="M64,60L64,60c-0.6,0-1-0.4-1-1v-2c0-0.6,0.4-1,1-1l0,0c0.6,0,1,0.4,1,1v2C65,59.6,64.6,60,64,60z"/>
    <path fill="#f4f4f4" d="M64,92L64,92c-0.6,0-1-0.4-1-1v-2c0-0.6,0.4-1,1-1l0,0c0.6,0,1,0.4,1,1v2C65,91.6,64.6,92,64,92z"/>
    <path fill="#f4f4f4" d="M74,60L74,60c-0.6,0-1-0.4-1-1v-2c0-0.6,0.4-1,1-1l0,0c0.6,0,1,0.4,1,1v2C75,59.6,74.6,60,74,60z"/>
    <path fill="#f4f4f4" d="M74,92L74,92c-0.6,0-1-0.4-1-1v-2c0-0.6,0.4-1,1-1l0,0c0.6,0,1,0.4,1,1v2C75,91.6,74.6,92,74,92z"/>
    <path fill="#f4f4f4" d="M75,91L75,91c0,0.6-0.4,1-1,1H64c-0.6,0-1-0.4-1-1l0,0c0-0.6,0.4-1,1-1h10C74.6,90,75,90.4,75,91z"/>
    <circle fill="#f4f4f4" cx="59" cy="77" r="1"/>
    <circle fill="#f4f4f4" cx="75" cy="77" r="1"/>
    <circle fill="#f4f4f4" cx="85" cy="82" r="1"/>
    <circle fill="#f4f4f4" cx="85" cy="78" r="1"/>
    <path fill="#f4f4f4" d="M57,72L57,72c-0.6,0-1-0.4-1-1v-6c0-0.6,0.4-1,1-1l0,0c0.6,0,1,0.4,1,1v6C58,71.6,57.6,72,57,72z"/>
    <path fill="#f4f4f4" d="M85,72L85,72c-0.6,0-1-0.4-1-1v-6c0-0.6,0.4-1,1-1l0,0c0.6,0,1,0.4,1,1v6C86,71.6,85.6,72,85,72z"/>
    <path fill="#f4f4f4" d="M73,72L73,72c-0.6,0-1-0.4-1-1v-6c0-0.6,0.4-1,1-1l0,0c0.6,0,1,0.4,1,1v6C74,71.6,73.6,72,73,72z"/>
    <path fill="#f4f4f4" d="M76,65L76,65c0,0.6-0.4,1-1,1h-2c-0.6,0-1-0.4-1-1l0,0c0-0.6,0.4-1,1-1h2C75.6,64,76,64.4,76,65z"/>
    <path fill="#f4f4f4" d="M77,67L77,67c0.6,0,1,0.4,1,1v3c0,0.6-0.4,1-1,1l0,0c-0.6,0-1-0.4-1-1v-3C76,67.4,76.4,67,77,67z"/>
    <path fill="#f4f4f4" d="M81,64L81,64c0.6,0,1,0.4,1,1v3c0,0.6-0.4,1-1,1l0,0c-0.6,0-1-0.4-1-1v-3C80,64.4,80.4,64,81,64z"/>
    <path fill="#f4f4f4" d="M69,72L69,72c-0.6,0-1-0.4-1-1v-3c0-0.6,0.4-1,1-1l0,0c0.6,0,1,0.4,1,1v3C70,71.6,69.6,72,69,72z"/>
    <path fill="#f4f4f4" d="M65,64L65,64c0.6,0,1,0.4,1,1v6c0,0.6-0.4,1-1,1l0,0c-0.6,0-1-0.4-1-1v-6C64,64.4,64.4,64,65,64z"/>
    <path fill="#f4f4f4" d="M61,67L61,67c0.6,0,1,0.4,1,1v3c0,0.6-0.4,1-1,1l0,0c-0.6,0-1-0.4-1-1v-3C60,67.4,60.4,67,61,67z"/>
    <path fill="#f4f4f4" d="M66,68L66,68c0,0.6-0.4,1-1,1h-4c-0.6,0-1-0.4-1-1l0,0c0-0.6,0.4-1,1-1h4C65.6,67,66,67.4,66,68z"/>
    <path fill="#f4f4f4" d="M82,68L82,68c0,0.6-0.4,1-1,1h-4c-0.6,0-1-0.4-1-1l0,0c0-0.6,0.4-1,1-1h4C81.6,67,82,67.4,82,68z"/>
    <circle fill="#f4f4f4" cx="53" cy="66" r="1"/>
    <circle fill="#f4f4f4" cx="53" cy="70" r="1"/>
    <circle fill="#f4f4f4" cx="69" cy="65" r="1"/>
  </g>
  <line fill="none" x1="101" y1="94" x2="101" y2="97"/>
</svg>
