<svg xmlns="http://www.w3.org/2000/svg" width="160px" height="160px" viewBox="0 0 160 160"
  role="img" aria-labelledby="title" aria-describedby="desc">
  <title id="title">Hot sauce bottle</title>
  <desc id="desc">A bottle of red asian chilli hot sauce with a rooster on the front</desc>
    <path d="M72,43l0,-6l14,0l0,6c5.369,0 9.755,4.24 9.99,9.552l4.01,21.448l0,63c0,3.863 -3.137,7 -7,7l-28,0c-3.863,0 -7,-3.137 -7,-7l0,-8c0,0 0,-55 0,-55l4.034,-21.832c0.424,-5.131 4.727,-9.168 9.966,-9.168Z" fill="#cb4125"/>
    <path d="M94.5,51l-32.25,0l-4.25,22.599l0,61.901l41,0l0,-61.901l-4.5,-22.599Z" fill="#da5234"/>
    <circle cx="73.5" cy="102.5" r="1.5" fill="#fff"/>
    <path d="M80.7,80.501c0.723,0.014 1.443,0.068 2.158,0.178c1.448,0.221 2.863,0.65 4.19,1.27c1.467,0.685 2.823,1.602 4.008,2.706c1.274,1.186 2.348,2.585 3.16,4.124c0.71,1.345 1.22,2.795 1.506,4.289c0.322,1.677 0.364,3.407 0.127,5.098c-0.221,1.577 -0.687,3.118 -1.379,4.552c-0.811,1.681 -1.927,3.212 -3.278,4.5c-1.399,1.334 -3.046,2.404 -4.835,3.135c-1.855,0.759 -3.854,1.147 -5.857,1.147c-2.004,0 -4.002,-0.388 -5.857,-1.147c-1.789,-0.731 -3.436,-1.801 -4.835,-3.135c-1.351,-1.288 -2.468,-2.819 -3.279,-4.5c-0.691,-1.435 -1.158,-2.975 -1.379,-4.552c-0.237,-1.691 -0.194,-3.421 0.127,-5.098c0.287,-1.494 0.796,-2.944 1.506,-4.289c0.813,-1.539 1.886,-2.938 3.16,-4.124c1.185,-1.104 2.542,-2.021 4.009,-2.706c1.327,-0.62 2.741,-1.049 4.189,-1.27c0.715,-0.11 1.435,-0.164 2.159,-0.178c0.2,-0.001 0.2,-0.001 0.4,0ZM80.312,81.501c-0.676,0.013 -1.35,0.064 -2.02,0.166c-1.353,0.207 -2.676,0.608 -3.917,1.188c-1.372,0.641 -2.642,1.499 -3.751,2.532c-1.192,1.109 -2.196,2.419 -2.956,3.859c-0.664,1.258 -1.141,2.613 -1.409,4.01c-0.301,1.569 -0.34,3.189 -0.118,4.771c0.206,1.475 0.643,2.915 1.289,4.257c0.759,1.573 1.804,3.005 3.068,4.21c1.309,1.248 2.849,2.249 4.523,2.934c1.735,0.709 3.605,1.072 5.479,1.072c1.874,0 3.743,-0.363 5.478,-1.072c1.674,-0.685 3.215,-1.686 4.524,-2.934c1.264,-1.205 2.309,-2.637 3.067,-4.21c0.647,-1.342 1.083,-2.782 1.29,-4.257c0.222,-1.582 0.182,-3.202 -0.119,-4.771c-0.268,-1.397 -0.744,-2.752 -1.408,-4.01c-0.761,-1.44 -1.765,-2.75 -2.957,-3.859c-1.109,-1.033 -2.378,-1.891 -3.751,-2.532c-1.24,-0.58 -2.563,-0.981 -3.917,-1.188c-0.669,-0.102 -1.343,-0.153 -2.02,-0.166c-0.187,-0.001 -0.187,-0.001 -0.375,0Z" fill="#fff"/>
    <path d="M95,54c0,-5.519 -4.481,-10 -10,-10l-13,0c-5.519,0 -10,4.481 -10,10l0,9c0,5.519 4.481,10 10,10l13,0c5.519,0 10,-4.481 10,-10l0,-9Z" fill="#da5234"/>
    <path d="M99,128c0,-3.863 -3.137,-7 -7,-7l-27,0c-3.863,0 -7,3.137 -7,7l0,8c0,3.863 3.137,7 7,7l27,0c3.863,0 7,-3.137 7,-7l0,-8Z" fill="#da5234"/>
    <rect x="72" y="37" width="13" height="6" fill="#da5234"/>
    <path d="M77,37l0,7c-5.239,0 -9.542,3.037 -9.966,8.168l-4.034,21.832l0,63c0,3.863 3.136,6 7,6l23,0l0,1l-28,0c-3.863,0 -7,-3.137 -7,-7l0,-8c0,0 0,-55 0,-55l4.034,-21.832c0.424,-5.131 4.727,-9.168 9.966,-9.168l0,-6l5,0Z" fill="#cb4125"/>
    <rect x="76.5" y="40" width="9.5" height="1" fill="#cb4125"/>
    <rect x="76.5" y="37" width="9.5" height="1" fill="#cb4125"/>
    <path d="M82,37l0,6c5.369,0 9.755,4.24 9.99,9.552l4.01,21.448l0,62c0,3.863 -4.136,7 -8,7l-1,0l1,-1c2.985,0 7,-2.936 7,-6l0,-62l-4.01,-21.448c-0.235,-5.312 -4.621,-8.552 -9.99,-8.552l0,-7l1,0Z" fill="#e78f7e"/>
    <rect x="84" y="37" width="1" height="6" fill="#e78f7e"/>
    <path d="M88,39.5c0,-0.276 -0.224,-0.5 -0.5,-0.5l-17,0c-0.276,0 -0.5,0.224 -0.5,0.5c0,0.276 0.224,0.5 0.5,0.5l17,0c0.276,0 0.5,-0.224 0.5,-0.5Z" fill="#cb4125"/>
    <path d="M88,39.5c0,-0.276 -0.224,-0.5 -0.5,-0.5l-14,0c-0.276,0 -0.5,0.224 -0.5,0.5c0,0.276 0.224,0.5 0.5,0.5l14,0c0.276,0 0.5,-0.224 0.5,-0.5Z" fill="#e78f7e"/>
    <path d="M87,39.5c0,-0.276 -0.224,-0.5 -0.5,-0.5l-14,0c-0.276,0 -0.5,0.224 -0.5,0.5c0,0.276 0.224,0.5 0.5,0.5l14,0c0.276,0 0.5,-0.224 0.5,-0.5Z" fill="#da5234"/>
    <path d="M88,28.35c0,-0.276 -0.224,-0.5 -0.5,-0.5l-17,0c-0.276,0 -0.5,0.224 -0.5,0.5l0,8.15c0,0.276 0.224,0.5 0.5,0.5l17,0c0.276,0 0.5,-0.224 0.5,-0.5l0,-8.15Z" fill="#16a749"/>
    <rect x="70" y="28" width="18" height="2" fill="#1cd55e"/>
    <path d="M79,25l-8,2l-1,1l0,1l18,0l0,-1l-1,-1l-8,-2Z" fill="#1cd55e"/>
    <path d="M82,18l-1,-1l0,-6l-4,0l0,6l-1,1l-1,10l8,0l-1,-10Z" fill="#1cd55e"/>
    <ellipse cx="79" cy="11.25" rx="2" ry="0.75" fill="#1cd55e"/>
    <path d="M70,28l0.5,-0.5l0,8.5l-0.5,0l0,-8Z" fill="#16a749"/>
    <path d="M70.5,27.5l0.5,-0.5l0,9l-0.5,0l0,-8.5Z" fill="#1cd55e"/>
    <rect x="71" y="27" width="0.5" height="9" fill="#16a749"/>
    <rect x="71.5" y="27" width="0.5" height="9" fill="#1cd55e"/>
    <rect x="72" y="27" width="0.5" height="9" fill="#16a749"/>
    <rect x="72.5" y="27" width="0.5" height="9" fill="#1cd55e"/>
    <rect x="73" y="27" width="0.5" height="9" fill="#16a749"/>
    <rect x="73.5" y="27" width="0.5" height="9" fill="#1cd55e"/>
    <rect x="75" y="27" width="0.5" height="9" fill="#16a749"/>
    <rect x="75.5" y="27" width="0.5" height="9" fill="#1cd55e"/>
    <rect x="74" y="27" width="0.5" height="9" fill="#16a749"/>
    <rect x="74.5" y="27" width="0.5" height="9" fill="#1cd55e"/>
    <rect x="76" y="27" width="0.5" height="9" fill="#16a749"/>
    <rect x="76.5" y="27" width="0.5" height="9" fill="#1cd55e"/>
    <rect x="77" y="27" width="0.5" height="9" fill="#16a749"/>
    <rect x="77.5" y="27" width="0.5" height="9" fill="#1cd55e"/>
    <rect x="78" y="27" width="0.5" height="9" fill="#16a749"/>
    <rect x="78.5" y="27" width="0.5" height="9" fill="#1cd55e"/>
    <rect x="80" y="27" width="0.5" height="9" fill="#16a749"/>
    <rect x="80.5" y="27" width="0.5" height="9" fill="#1cd55e"/>
    <rect x="79" y="27" width="0.5" height="9" fill="#16a749"/>
    <rect x="79.5" y="27" width="0.5" height="9" fill="#1cd55e"/>
    <rect x="81" y="27" width="0.5" height="9" fill="#16a749"/>
    <rect x="81.5" y="27" width="0.5" height="9" fill="#1cd55e"/>
    <rect x="82" y="27" width="0.5" height="9" fill="#16a749"/>
    <rect x="82.5" y="27" width="0.5" height="9" fill="#1cd55e"/>
    <rect x="83" y="27" width="0.5" height="9" fill="#16a749"/>
    <rect x="83.5" y="27" width="0.5" height="9" fill="#1cd55e"/>
    <rect x="85" y="27" width="0.5" height="9" fill="#16a749"/>
    <rect x="85.5" y="27" width="0.5" height="9" fill="#1cd55e"/>
    <rect x="84" y="27" width="0.5" height="9" fill="#16a749"/>
    <rect x="84.5" y="27" width="0.5" height="9" fill="#1cd55e"/>
    <rect x="86" y="27" width="0.5" height="9" fill="#16a749"/>
    <rect x="86.5" y="27" width="0.5" height="9" fill="#1cd55e"/>
    <path d="M87,28l0.5,0.5l0,7.5l-0.5,0l0,-8Z" fill="#16a749"/>
    <path d="M87.5,27.5l0.5,0.5l0,8l-0.5,0l0,-8.5Z" fill="#1cd55e"/>
    <path d="M82.5,78c-0.3,0 -0.5,-0.2 -0.5,-0.5l0,-3c0,-0.3 0.2,-0.5 0.5,-0.5c0.3,0 0.5,0.2 0.5,0.5l0,3c0,0.3 -0.2,0.5 -0.5,0.5Z" fill="#f4f4f4"/>
    <path d="M84,74.5c0,0.3 -0.2,0.5 -0.5,0.5l-1,0c-0.3,0 -0.5,-0.2 -0.5,-0.5c0,-0.3 0.2,-0.5 0.5,-0.5l1,0c0.3,0 0.5,0.2 0.5,0.5Z" fill="#f4f4f4"/>
    <path d="M80.5,78c-0.3,0 -0.5,-0.2 -0.5,-0.5l0,-1.5c0,-0.3 0.2,-0.5 0.5,-0.5c0.3,0 0.5,0.2 0.5,0.5l0,1.5c0,0.3 -0.2,0.5 -0.5,0.5Z" fill="#f4f4f4"/>
    <path d="M78.5,74c0.3,0 0.5,0.2 0.5,0.5l0,3c0,0.3 -0.2,0.5 -0.5,0.5c-0.3,0 -0.5,-0.2 -0.5,-0.5l0,-3c0,-0.3 0.2,-0.5 0.5,-0.5Z" fill="#f4f4f4"/>
    <path d="M76.5,75.5c0.3,0 0.5,0.2 0.5,0.5l0,1.5c0,0.3 -0.2,0.5 -0.5,0.5c-0.3,0 -0.5,-0.2 -0.5,-0.5l0,-1.5c0,-0.3 0.2,-0.5 0.5,-0.5Z" fill="#f4f4f4"/>
    <path d="M79,76c0,0.3 -0.2,0.5 -0.5,0.5l-2,0c-0.3,0 -0.5,-0.2 -0.5,-0.5c0,-0.3 0.2,-0.5 0.5,-0.5l2,0c0.3,0 0.5,0.2 0.5,0.5Z" fill="#f4f4f4"/>
    <circle cx="80.5" cy="74.5" r="0.5" fill="#f4f4f4"/>
    <path d="M90,76.5l0,1c0,0.3 -0.2,0.5 -0.5,0.5c-0.3,0 -0.5,-0.2 -0.5,-0.5l0,-1c0,-0.3 0.2,-0.5 0.5,-0.5c0.3,0 0.5,0.2 0.5,0.5Z" fill="#fff"/>
    <path d="M93.5,78l-2,0c-0.3,0 -0.5,-0.2 -0.5,-0.5c0,-0.3 0.2,-0.5 0.5,-0.5l2,0c0.3,0 0.5,0.2 0.5,0.5c0,0.3 -0.2,0.5 -0.5,0.5Z" fill="#fff"/>
    <path d="M86,76.5l0,1c0,0.3 -0.2,0.5 -0.5,0.5c-0.3,0 -0.5,-0.2 -0.5,-0.5l0,-1c0,-0.3 0.2,-0.5 0.5,-0.5c0.3,0 0.5,0.2 0.5,0.5Z" fill="#fff"/>
    <path d="M88,76.5l0,1c0,0.3 -0.2,0.5 -0.5,0.5c-0.3,0 -0.5,-0.2 -0.5,-0.5l0,-1c0,-0.3 0.2,-0.5 0.5,-0.5c0.3,0 0.5,0.2 0.5,0.5Z" fill="#fff"/>
    <path d="M92,76.5l0,1c0,0.3 -0.2,0.5 -0.5,0.5c-0.3,0 -0.5,-0.2 -0.5,-0.5l0,-1c0,-0.3 0.2,-0.5 0.5,-0.5c0.3,0 0.5,0.2 0.5,0.5Z" fill="#fff"/>
    <path d="M96,76.5l0,1c0,0.3 -0.2,0.5 -0.5,0.5c-0.3,0 -0.5,-0.2 -0.5,-0.5l0,-1c0,-0.3 0.2,-0.5 0.5,-0.5c0.3,0 0.5,0.2 0.5,0.5Z" fill="#fff"/>
    <path d="M98,76.5l0,1c0,0.3 -0.2,0.5 -0.5,0.5c-0.3,0 -0.5,-0.2 -0.5,-0.5l0,-1c0,-0.3 0.2,-0.5 0.5,-0.5c0.3,0 0.5,0.2 0.5,0.5Z" fill="#fff"/>
    <path d="M66,76.5l0,1c0,0.3 -0.2,0.5 -0.5,0.5c-0.3,0 -0.5,-0.2 -0.5,-0.5l0,-1c0,-0.3 0.2,-0.5 0.5,-0.5c0.3,0 0.5,0.2 0.5,0.5Z" fill="#fff"/>
    <path d="M69.5,78l-2,0c-0.3,0 -0.5,-0.2 -0.5,-0.5c0,-0.3 0.2,-0.5 0.5,-0.5l2,0c0.3,0 0.5,0.2 0.5,0.5c0,0.3 -0.2,0.5 -0.5,0.5Z" fill="#fff"/>
    <path d="M62,76.5l0,1c0,0.3 -0.2,0.5 -0.5,0.5c-0.3,0 -0.5,-0.2 -0.5,-0.5l0,-1c0,-0.3 0.2,-0.5 0.5,-0.5c0.3,0 0.5,0.2 0.5,0.5Z" fill="#fff"/>
    <path d="M64,76.5l0,1c0,0.3 -0.2,0.5 -0.5,0.5c-0.3,0 -0.5,-0.2 -0.5,-0.5l0,-1c0,-0.3 0.2,-0.5 0.5,-0.5c0.3,0 0.5,0.2 0.5,0.5Z" fill="#fff"/>
    <path d="M68,76.5l0,1c0,0.3 -0.2,0.5 -0.5,0.5c-0.3,0 -0.5,-0.2 -0.5,-0.5l0,-1c0,-0.3 0.2,-0.5 0.5,-0.5c0.3,0 0.5,0.2 0.5,0.5Z" fill="#fff"/>
    <path d="M72,76.5l0,1c0,0.3 -0.2,0.5 -0.5,0.5c-0.3,0 -0.5,-0.2 -0.5,-0.5l0,-1c0,-0.3 0.2,-0.5 0.5,-0.5c0.3,0 0.5,0.2 0.5,0.5Z" fill="#fff"/>
    <path d="M74,76.5l0,1c0,0.3 -0.2,0.5 -0.5,0.5c-0.3,0 -0.5,-0.2 -0.5,-0.5l0,-1c0,-0.3 0.2,-0.5 0.5,-0.5c0.3,0 0.5,0.2 0.5,0.5Z" fill="#fff"/>
    <path d="M93,80l5,0l0,8l-5,-8Z" fill="#fff"/>
    <path d="M66,80l-5,0l0,8l5,-8Z" fill="#fff"/>
    <rect x="91" y="119" width="1" height="1" fill="#fff"/>
    <rect x="91" y="117" width="3" height="1" fill="#fff"/>
    <rect x="93" y="117" width="1" height="4" fill="#fff"/>
    <rect x="84" y="117" width="1" height="4" fill="#fff"/>
    <rect x="83" y="118" width="2" height="1" fill="#fff"/>
    <rect x="86" y="117" width="1" height="1" fill="#fff"/>
    <rect x="88" y="117" width="1" height="2" fill="#fff"/>
    <rect x="86" y="120" width="3" height="1" fill="#fff"/>
    <rect x="73" y="102" width="1" height="1" fill="#cb4125"/>
    <rect x="63" y="90" width="32" height="15" fill="#da5234"/>
    <path d="M74,87.5l0,1l1,-1l0,-1l-1,1Z" fill="#fff"/>
    <path d="M83.999,96l-3.499,0c0,-0.896 0.341,-1.792 1.024,-2.475c1.366,-1.366 3.584,-1.366 4.95,0c1.366,1.366 1.366,3.584 0,4.95l-2.475,2.525l0,-5Z" fill="#fff"/>
    <circle cx="80" cy="100.5" r="3.5" fill="#fff"/>
    <circle cx="76.5" cy="92" r="2.5" fill="#fff"/>
    <path d="M76,95.5l0,4.5c-1.104,0 -2,-1.008 -2,-2.25c0,-1.242 0.896,-2.25 2,-2.25Z" fill="#fff"/>
    <path d="M87.499,98.5l-3.5,3.5l0,2l3.5,-3.5l0,-2Z" fill="#fff"/>
    <rect x="76.5" y="96.5" width="7" height="4" fill="#fff"/>
    <rect x="74" y="94.5" width="2" height="3.5" fill="#fff"/>
    <path d="M78,87.5l-4,0c0,-1.104 0.896,-2 2,-2c1.104,0 2,0.896 2,2Z" fill="#fff"/>
    <path d="M76,85.5l4,0l-1,1l2,0l-1,1l-3,0l-1,-2Z" fill="#fff"/>
    <rect x="76" y="87" width="3" height="9" fill="#fff"/>
    <rect x="74" y="92" width="3" height="4" fill="#fff"/>
    <rect x="79.5" y="104.5" width="1" height="4" fill="#fff"/>
    <rect x="94" y="109" width="2" height="4" fill="#fff"/>
    <rect x="94" y="114" width="2" height="1" fill="#fff"/>
    <rect x="78" y="118" width="3" height="1" fill="#fff"/>
    <rect x="80" y="120" width="2" height="1" fill="#fff"/>
    <rect x="77" y="120" width="2" height="1" fill="#fff"/>
    <rect x="66" y="117" width="2" height="2" fill="#fff"/>
    <rect x="66" y="120" width="4" height="1" fill="#fff"/>
    <rect x="69" y="117" width="1" height="2" fill="#fff"/>
    <rect x="72" y="117" width="1" height="4" fill="#fff"/>
    <rect x="72" y="119" width="2" height="1" fill="#fff"/>
    <rect x="74" y="117" width="2" height="1" fill="#fff"/>
    <rect x="75" y="117" width="1" height="2.5" fill="#fff"/>
    <rect x="79" y="117" width="1" height="2" fill="#fff"/>
    <circle cx="71" cy="124" r="1" fill="#fff"/>
    <circle cx="74" cy="124" r="1" fill="#fff"/>
    <circle cx="77" cy="124" r="1" fill="#fff"/>
    <circle cx="80" cy="124" r="1" fill="#fff"/>
    <circle cx="83" cy="124" r="1" fill="#fff"/>
    <circle cx="86" cy="124" r="1" fill="#fff"/>
    <circle cx="89" cy="124" r="1" fill="#fff"/>
    <circle cx="86" cy="48.5" r="1.5" fill="#e78f7e"/>
    <circle cx="72.5" cy="48.5" r="0.75" fill="#e78f7e"/>
    <rect x="65" y="127" width="29" height="3" fill="#cb4125"/>
    <rect x="65" y="131" width="24" height="1" fill="#cb4125"/>
    <rect x="78" y="109" width="4" height="5" fill="#da5234"/>
</svg>
