<svg xmlns="http://www.w3.org/2000/svg" width="160px" height="160px" viewBox="0 0 160 160"
  role="img" aria-labelledby="title" aria-describedby="desc">
  <title id="title">Television</title>
  <desc id="desc">A wide flat screen television</desc>
  <polygon fill="#aaaaaa" points="112,126 48,126 49,123 49,118 41,128 119,128 111,118 111,123 "/>
  <polygon fill="#e0e0e0" points="110,118 115,127 45,127 50,118 49,118 41,128 41,129 119,129 119,128 111,118 "/>
  <path fill="#383838" d="M88.5,122c0.3,0,0.5,0.2,0.5,0.5s-0.2,0.5-0.5,0.5h-17c-0.3,0-0.5-0.2-0.5-0.5s0.2-0.5,0.5-0.5l-2.5-1v1
    l1.7,1.7c0.2,0.2,0.4,0.3,0.7,0.3h17.2c0.3,0,0.5-0.1,0.7-0.3L91,122v-1L88.5,122z"/>
  <path fill="#a3c9cc" d="M81.5,124h-3c-0.3,0-0.5-0.2-0.5-0.5l0,0c0-0.3,0.2-0.5,0.5-0.5h3c0.3,0,0.5,0.2,0.5,0.5l0,0
    C82,123.8,81.8,124,81.5,124z"/>
  <path fill="#ccfeff" d="M80.5,124h-1c-0.3,0-0.5-0.2-0.5-0.5l0,0c0-0.3,0.2-0.5,0.5-0.5h1c0.3,0,0.5,0.2,0.5,0.5l0,0
    C81,123.8,80.8,124,80.5,124z"/>
  <path fill="#383838" d="M151,122H9c-0.6,0-1-0.4-1-1V40c0-0.6,0.4-1,1-1h142c0.6,0,1,0.4,1,1v81C152,121.6,151.6,122,151,122z"/>
  <path fill="#555555" d="M150,122H10c-0.6,0-1-0.4-1-1V40c0-0.6,0.4-1,1-1h140c0.6,0,1,0.4,1,1v81C151,121.6,150.6,122,150,122z"/>
  <path fill="#383838" d="M90.5,121h-21c-0.3,0-0.5-0.2-0.5-0.5l0,0c0-0.3,0.2-0.5,0.5-0.5h21c0.3,0,0.5,0.2,0.5,0.5l0,0
    C91,120.8,90.8,121,90.5,121z"/>
  <path fill="#f5f5f5" d="M83.5,121h-7c-0.3,0-0.5-0.2-0.5-0.5l0,0c0-0.3,0.2-0.5,0.5-0.5h7c0.3,0,0.5,0.2,0.5,0.5l0,0
    C84,120.8,83.8,121,83.5,121z"/>
  <rect x="10" y="41" fill="#f5f5f5" width="140" height="78"/>
  <rect x="41" y="128" fill="#cccccc" width="78" height="1"/>
  <circle fill="#383838" cx="10.5" cy="120.5" r="0.5"/>
  <circle fill="#383838" cx="12.5" cy="120.5" r="0.5"/>
  <circle fill="#383838" cx="14.5" cy="120.5" r="0.5"/>
  <circle fill="#383838" cx="149.5" cy="120.5" r="0.5"/>
  <circle fill="#383838" cx="147.5" cy="120.5" r="0.5"/>
  <circle fill="#383838" cx="145.5" cy="120.5" r="0.5"/>
</svg>
