<svg  xmlns="http://www.w3.org/2000/svg" width="160px" height="160" viewBox="0 0 160 160"  role="img" aria-labelledby="title" aria-describedby="desc">
  <title id="title">Smart watch</title>
  <desc id="desc">A smart watch with a black creen and white band</desc>
  <g id="bandtop">
    <path fill="#eeeeee" d="M77.994,9c13.053,0 20.199,-0.131 20.994,4c0.686,3.56 1.307,14.05 3,18c2.556,5.959 7.799,5.194 9,9c0.72,2.278 -21.996,2 -32.994,2c-10.998,0 -33.713,0.278 -32.994,-2c1.202,-3.806 6.445,-3.041 9,-9c1.694,-3.95 2.314,-14.44 3,-18c0.796,-4.131 7.941,-4 20.994,-4Z"/>
    <path fill="#f1f1f1" d="M99,30c0,2.208 -1.792,4 -4,4l-34,0c-2.208,0 -4,-1.792 -4,-4l0,-7c0,-6.623 5.377,-12 12,-12l18,0c6.623,0 12,5.377 12,12l0,7Z"/>
  </g>
  <g id="bandbottom">
    <path fill="#eeeeee" d="M77.994,147.01c13.053,0 20.199,0.132 20.994,-4c0.686,-3.56 1.307,-14.05 3,-18c2.556,-5.959 7.799,-5.194 9,-9c0.72,-2.278 -21.996,-2 -32.994,-2c-10.998,0 -33.713,-0.278 -32.994,2c1.202,3.806 6.445,3.041 9,9c1.694,3.95 2.314,14.44 3,18c0.796,4.132 7.941,4 20.994,4Z"/>
    <path fill="#eaeaea" d="M54,125.01c0.85,1.983 12.381,1.998 24,1.99c11.528,-0.008 23.145,-0.022 23.988,-1.99c2.556,-5.959 7.799,-5.194 9,-9c0.72,-2.278 -21.996,-2 -32.994,-2c-10.998,0 -33.713,-0.278 -32.994,2c1.202,3.806 6.445,3.041 9,9Z"/>
    <path fill="#f1f1f1" d="M97,131c0,-2.208 -1.792,-4 -4,-4l-30,0c-2.208,0 -4,1.792 -4,4l0,3c0,6.623 5.377,12 12,12l14,0c6.623,0 12,-5.377 12,-12l0,-3Z"/>
  </g>
  <g id="watchface">
    <path fill="#cccccc" d="M101.122,35.073c0.475,0.009 0.948,0.036 1.419,0.09c1.093,0.125 2.171,0.381 3.203,0.759c2.006,0.736 3.832,1.938 5.306,3.485c1.359,1.426 2.412,3.139 3.067,4.998c0.347,0.984 0.582,2.007 0.7,3.044c0.054,0.472 0.081,0.945 0.09,1.42c0.046,7.254 0.075,14.509 0.087,21.763c0.02,12.166 -0.009,24.333 -0.087,36.499c-0.009,0.475 -0.036,0.948 -0.09,1.42c-0.118,1.037 -0.353,2.06 -0.7,3.044c-0.655,1.859 -1.708,3.572 -3.067,4.999c-1.474,1.547 -3.3,2.749 -5.306,3.484c-0.977,0.359 -1.995,0.606 -3.028,0.738c-0.529,0.067 -1.06,0.101 -1.594,0.111c-15.414,0.097 -30.83,0.097 -46.245,0c-0.474,-0.009 -0.947,-0.036 -1.419,-0.09c-1.093,-0.125 -2.17,-0.38 -3.203,-0.759c-1.9,-0.697 -3.641,-1.813 -5.072,-3.245c-1.472,-1.473 -2.608,-3.273 -3.3,-5.238c-0.347,-0.984 -0.582,-2.007 -0.701,-3.044c-0.054,-0.472 -0.081,-0.945 -0.09,-1.42c-0.123,-19.42 -0.123,-38.842 0,-58.262c0.009,-0.475 0.036,-0.948 0.09,-1.42c0.119,-1.037 0.354,-2.06 0.701,-3.044c0.673,-1.912 1.767,-3.668 3.182,-5.119c1.454,-1.489 3.237,-2.647 5.19,-3.364c1.033,-0.378 2.11,-0.634 3.203,-0.759c0.472,-0.054 0.945,-0.081 1.419,-0.09c15.415,-0.097 30.831,-0.097 46.245,0Z"/>
    <path fill="#e0e0e0" d="M75.11,36c-6.739,0.008 -13.478,0.032 -20.217,0.073c-0.166,0.004 -0.332,0.009 -0.498,0.017c-0.402,0.022 -0.803,0.058 -1.202,0.115c-1.003,0.146 -1.989,0.409 -2.93,0.785c-1.681,0.671 -3.217,1.699 -4.482,2.995c-1.149,1.177 -2.072,2.575 -2.703,4.095c-0.438,1.055 -0.735,2.169 -0.881,3.303c-0.064,0.498 -0.093,0.999 -0.105,1.502c-0.014,2.424 -0.028,4.848 -0.04,7.272c-0.037,8.494 -0.057,16.989 -0.051,25.483c0.007,8.492 0.041,16.984 0.091,25.475c0.004,0.166 0.01,0.332 0.017,0.499c0.022,0.396 0.057,0.79 0.113,1.183c0.145,1.018 0.412,2.019 0.795,2.973c0.629,1.57 1.568,3.014 2.746,4.227c1.374,1.414 3.072,2.51 4.927,3.175c0.93,0.333 1.9,0.562 2.881,0.671c0.44,0.049 0.88,0.074 1.322,0.084c1.924,0.012 3.847,0.022 5.771,0.032c6.741,0.029 13.483,0.045 20.225,0.04c6.739,-0.005 13.478,-0.032 20.217,-0.072c0.186,-0.004 0.186,-0.004 0.372,-0.011c0.371,-0.018 0.741,-0.044 1.109,-0.092c1.021,-0.133 2.024,-0.381 2.986,-0.75c1.735,-0.665 3.323,-1.71 4.624,-3.037c1.323,-1.35 2.349,-2.991 2.977,-4.775c0.321,-0.914 0.54,-1.863 0.65,-2.825c0.044,-0.385 0.066,-0.771 0.079,-1.158l0.004,-0.164c0.058,-9.705 0.093,-19.41 0.093,-29.115c0,-9.705 -0.035,-19.41 -0.093,-29.115c-0.004,-0.167 -0.009,-0.333 -0.017,-0.499c-0.022,-0.396 -0.056,-0.79 -0.112,-1.183c-0.145,-1.009 -0.408,-2 -0.785,-2.947c-0.612,-1.539 -1.523,-2.961 -2.667,-4.159c-1.326,-1.391 -2.959,-2.484 -4.753,-3.171c-0.981,-0.376 -2.009,-0.631 -3.052,-0.759c-0.415,-0.05 -0.833,-0.076 -1.251,-0.091l-0.164,-0.003c-5.776,-0.035 -11.552,-0.058 -17.328,-0.069c-2.889,-0.004 -5.778,-0.005 -8.668,-0.004Z"/>
    <path fill="#eeeeee" d="M46.265,116.486c-0.172,-0.159 -0.339,-0.322 -0.502,-0.489c-1.178,-1.213 -2.117,-2.657 -2.746,-4.227c-0.383,-0.954 -0.65,-1.955 -0.795,-2.973c-0.056,-0.393 -0.091,-0.787 -0.113,-1.183c-0.007,-0.167 -0.013,-0.333 -0.017,-0.499c-0.05,-8.491 -0.084,-16.983 -0.091,-25.475c-0.006,-8.494 0.014,-16.989 0.051,-25.483c0.012,-2.424 0.026,-4.848 0.04,-7.272c0.012,-0.503 0.041,-1.004 0.105,-1.502c0.146,-1.134 0.443,-2.248 0.881,-3.303c0.631,-1.52 1.554,-2.918 2.703,-4.095c1.265,-1.296 2.801,-2.324 4.482,-2.995c0.941,-0.376 1.927,-0.639 2.93,-0.785c0.399,-0.057 0.8,-0.093 1.202,-0.115c0.166,-0.008 0.332,-0.013 0.498,-0.017c6.739,-0.041 13.478,-0.065 20.217,-0.073c2.89,-0.001 5.779,0 8.668,0.004c5.776,0.011 11.552,0.034 17.328,0.069l0.164,0.003c0.418,0.015 0.836,0.041 1.251,0.091c1.043,0.128 2.071,0.383 3.052,0.759c1.736,0.665 3.321,1.71 4.623,3.036l-63.931,76.524Z"/>
    <path fill="#000000" d="M111,49c0,-5.519 -4.481,-10 -10,-10l-46,0c-5.519,0 -10,4.481 -10,10l0,58c0,5.519 4.481,10 10,10l46,0c5.519,0 10,-4.481 10,-10l0,-58Z"/>
    <path fill="#383838" d="M110,49c0,-4.967 -4.033,-9 -9,-9l-46,0c-4.967,0 -9,4.033 -9,9l0,58c0,4.967 4.033,9 9,9l46,0c4.967,0 9,-4.033 9,-9l0,-58Z"/>
    <path fill="#3e3e3e" d="M108,51.332c0.057,9.308 -15.656,9.868 -31,9.668c-14.698,-0.192 -29.055,-0.752 -29,-9.668c0.006,-0.32 0.024,-0.639 0.059,-0.956c0.077,-0.695 0.23,-1.381 0.455,-2.04c0.438,-1.285 1.151,-2.464 2.073,-3.438c0.946,-1 2.107,-1.779 3.379,-2.26c0.635,-0.24 1.296,-0.406 1.967,-0.495c0.346,-0.045 0.692,-0.067 1.04,-0.074c14.018,-0.092 28.036,-0.092 42.054,0c0.348,0.007 0.694,0.029 1.04,0.074c0.671,0.089 1.332,0.255 1.967,0.495c1.272,0.481 2.433,1.26 3.379,2.26c0.922,0.974 1.635,2.153 2.073,3.438c0.225,0.659 0.378,1.345 0.455,2.04c0.035,0.317 0.053,0.636 0.059,0.956Z"/>
  </g>
  <g id="button">
    <path fill="#aaaaaa" d="M116,81l-1,-1l-1,0l0,20l1,0l1,-1l0,-18Z"/>
    <rect fill="#666" x="114" y="80" width="1" height="3"/>
    <path fill="#e0e0e0" d="M115,82.5c0,-0.276 -0.224,-0.5 -0.5,-0.5c-0.276,0 -0.5,0.224 -0.5,0.5l0,16c0,0.276 0.224,0.5 0.5,0.5c0.276,0 0.5,-0.224 0.5,-0.5l0,-16Z"/>
    <path d="M115,83l-1,0l0,4.5c0,0.276 0.224,0.5 0.5,0.5c0.276,0 0.5,-0.224 0.5,-0.5l0,-4.5Z" fill="#cccccc"/>
    <path d="M115,97l-1,0l0,1.5c0,0.276 0.224,0.5 0.5,0.5c0.276,0 0.5,-0.224 0.5,-0.5l0,-1.5Z" fill="#cccccc"/>
    <path d="M115,82.5c0,-0.276 -0.224,-0.5 -0.5,-0.5c-0.276,0 -0.5,0.224 -0.5,0.5l0,1.5l1,0l0,-1.5Z" fill="#aaaaaa"/>
  </g>
  <g id="crown">
    <path d="M118,55.5l0,0.5l-3,0l0,-0.5l3,0Z" fill="#666666"/>
    <path d="M118,68.5l-0.5,0.499l-2.5,0.001l0,-0.5l3,0Z" fill="#666666"/><g>
    <path d="M118,56.5l0,-0.5l-4,0l0,0.5l4,0Z" fill="#aaaaaa"/>
    <path d="M118,57l0,-0.5l-4,0l0,0.5l4,0Z" fill="#666666"/>
    <path d="M118,57.5l0,-0.5l-4,0l0,0.5l4,0Z" fill="#cccccc"/>
    <path d="M118,58l0,-0.5l-4,0l0,0.5l4,0Z" fill="#666666"/>
    <path d="M118,59.5l0,-0.5l-4,0l0,0.5l4,0Z" fill="#eeeeee"/>
    <path d="M118,60l0,-0.5l-4,0l0,0.5l4,0Z" fill="#aaaaaa"/>
    <path d="M118,58.5l0,-0.5l-4,0l0,0.5l4,0Z" fill="#cccccc"/>
    <path d="M118,59l0,-0.5l-4,0l0,0.5l4,0Z" fill="#666666"/>
    <path d="M118,60.5l0,-0.5l-4,0l0,0.5l4,0Z" fill="#eeeeee"/>
    <path d="M118,61l0,-0.5l-4,0l0,0.5l4,0Z" fill="#aaaaaa"/>
    <path d="M118,63.5l0,-0.5l-4,0l0,0.5l4,0Z" fill="#e0e0e0"/>
    <path d="M118,61.5l0,-0.5l-4,0l0,0.5l4,0Z" fill="#e0e0e0"/>
    <path d="M118,62l0,-0.5l-4,0l0,0.5l4,0Z" fill="#aaaaaa"/>
    <path d="M118,62.5l0,-0.5l-4,0l0,0.5l4,0Z" fill="#e0e0e0"/>
    <path d="M118,63l0,-0.5l-4,0l0,0.5l4,0Z" fill="#aaaaaa"/>
    <path d="M118,64l0,-0.5l-4,0l0,0.5l4,0Z" fill="#aaaaaa"/>
    <path d="M118,64.5l0,-0.5l-4,0l0,0.5l4,0Z" fill="#e0e0e0"/>
    <path d="M118,65l0,-0.5l-4,0l0,0.5l4,0Z" fill="#666666"/>
    <path d="M118,65.5l0,-0.5l-4,0l0,0.5l4,0Z" fill="#cccccc"/>
    <path d="M118,66l0,-0.5l-4,0l0,0.5l4,0Z" fill="#666666"/>
    <path d="M118,66.5l0,-0.5l-4,0l0,0.5l4,0Z" fill="#cccccc"/>
    <path d="M118,67l0,-0.5l-4,0l0,0.5l4,0Z" fill="#666666"/>
    <path d="M118,67.5l0,-0.5l-4,0l0,0.5l4,0Z" fill="#aaaaaa"/>
    <path d="M118,68l0,-0.5l-4,0l0,0.5l4,0Z" fill="#666666"/></g>
    <path d="M117.5,55l0.5,0.5l-3,0l0,-0.5l2.5,0Z" fill="#aaaaaa"/>
    <path d="M116,55l-1,0l-1,1l0,12l1,1l1,0l0,-14Z" fill="#aaaaaa"/>
    <path d="M116,55l-1,0l-1,1l0,8l2,0l0,-7.969l0,-1.031Z" fill="#888888"/>
    <path d="M117,57c0,-0.552 -0.448,-1 -1,-1c-0.552,0 -1,0.448 -1,1l0,11c0,0.552 0.448,1 1,1c0.552,0 1,-0.448 1,-1l0,-11Z" fill="#aaaaaa"/>
    <path d="M115,57.5c0,-0.276 -0.224,-0.5 -0.5,-0.5c-0.276,0 -0.5,0.224 -0.5,0.5l0,8c0,0.276 0.224,0.5 0.5,0.5c0.276,0 0.5,-0.224 0.5,-0.5l0,-8Z" fill="#888888"/>
    <path d="M117,57c0,-0.552 -0.448,-1 -1,-1c-0.552,0 -1,0.448 -1,1l0,3l2,0l0,-3Z" fill="#eeeeee"/>
    <path d="M118,68l0,0.5l-3,0l0,-0.5l3,0Z" fill="#aaaaaa"/>
  </g>
</svg>
