<svg version="1.1" xmlns="http://www.w3.org/2000/svg" xmlns:xlink="http://www.w3.org/1999/xlink" width="160px"
  height="160px" viewBox="0 0 160 160" >
  <path fill="#A9DEF0" d="M54.94303,51.42845c-4.19317,2.97691-5.14228,7.49402-5.35652,12.35262
    c-0.12725,2.84849-0.04788,5.54933,0.731,8.30206c2.91651,10.30959,11.68099,16.74751,21.38065,20.17574
    c2.73505,0.96666,5.58083,1.64603,8.42429,2.20564c3.93221,0.77385,11.37847,0.71706,15.37882,0.41842
    c14.10836-1.05869,24.50378-4.87629,34.8992-13.47325c1.50743-1.24389,5.30606-4.67586,7.06927-6.93945
    c-18.69231,11.34569-43.90192,14.19663-64.00952,1.82246C64.53428,70.80002,56.88268,64.3017,54.94303,51.42845z"/>
  <path fill="#A9DEF0" d="M62.28592,102.64927c0.91491,2.34038,1.94094,4.48936,3.55032,6.4303
    c5.18642,6.25633,14.79406,9.49045,22.6297,8.97627c8.56031-0.56348,17.26685-3.80882,24.25172-8.757
    c3.79876-2.68962,7.66553-6.0257,10.64502-9.61655c2.75505-3.31465,4.82467-7.12219,6.65849-11.00407
    c-4.3785,5.36774-10.68787,10.63108-16.71745,13.96845c-9.65681,5.34891-19.58464,7.29875-30.19431,6.57524
    C73.89632,108.5943,69.78871,106.69995,62.28592,102.64927z"/>
  <path fill="#A9DEF0" d="M96.93552,54.68258c-2.06574,1.07133-2.77273,3.03873-3.17359,5.20281
    c-0.23566,1.26918-0.37054,2.48544-0.19024,3.76843c0.6617,4.80194,4.19059,8.23521,8.32207,10.37774
    c1.1671,0.60503,2.39975,1.08643,3.63989,1.51504c1.71418,0.59225,5.05658,1.03339,6.86768,1.14941
    c6.38875,0.40577,11.28904-0.65536,16.48669-3.85928c0.75125-0.46371,2.66948-1.76568,3.60091-2.66936
    c-9.08598,3.91711-20.56654,3.62092-28.80794-3.18237C100.02341,63.96511,96.99979,60.57354,96.93552,54.68258z"/>
    <path fill="#8DB936" d="M21.52351,80.57789c-0.46759-9.25608,1.85769-18.37974,1.57673-27.62949
      c-0.0795-2.65051-0.45507-5.29354-1.2604-7.82299c1.06746,3.3588,5.66523,4.84725,8.36879,6.51471
      c2.41227,1.486,4.86867,2.89753,7.34908,4.26635c5.30102,2.9227,10.71549,5.69556,15.61333,9.2837
      c4.37592,3.20638,8.89303,7.27229,10.73563,12.53304c1.58551,4.52086,0.30884,8.93459-1.44431,13.18829
      c-2.36193,5.73208-4.6432,11.39989-6.54375,17.30724c-2.48299-1.59183-5.00109-3.01098-7.95541-3.47985
      c-3.09667-0.49275-6.2211-0.02272-9.33416-0.0302c-6.56904-0.01768-10.88701-3.5316-13.65716-9.3317
      C22.72841,90.68589,21.78305,85.68481,21.52351,80.57789z"/>
  <path fill="#FAB47F" d="M53.61591,103.71543c-14.17521-12.01616-26.47505-28.7549-28.29247-48.45557
    C30.1872,74.21056,44.11152,87.5061,53.61591,103.71543L53.61591,103.71543z"/>
    <path fill="#A0CC42" d="M98.75294,113.57899c-3.35131,2.75893-5.77235,6.4454-9.06313,9.2686
      c-0.9415,0.80663-1.97501,1.51-3.10686,2.03179c1.50239-0.69073,3.46733,0.43094,4.89899,0.83941
      c1.27177,0.36666,2.5372,0.77127,3.79373,1.19601c2.68703,0.91129,5.35149,1.91203,8.14061,2.47279
      c2.49177,0.50296,5.32503,0.78276,7.72723-0.24069c2.06574-0.87967,3.1874-2.71478,4.10748-4.66334
      c1.23898-2.6265,2.47783-5.20525,3.92227-7.72852c-1.33216-0.3553-2.61773-0.78133-3.71423-1.65352
      c-1.14825-0.91633-1.96998-2.14511-2.95561-3.22147c-2.07955-2.26733-4.65701-2.6518-7.54073-1.77962
      C102.62978,110.80627,100.6007,112.05647,98.75294,113.57899z"/>
  <path fill="#FAB47F" d="M116.89069,117.38021c-8.63465-1.1116-18.30914-0.08569-25.69862,5.50648
    C99.28364,118.58641,108.27876,119.2077,116.89069,117.38021L116.89069,117.38021z"/>
    <path fill="#C1D852" d="M131.0206,65.81906c-3.21269-0.02516-6.31944-1.01583-9.5271-1.10656
      c-0.91749-0.02517-1.84001,0.05046-2.73117,0.27851c1.18348-0.30238,1.78968-1.86143,2.42246-2.76395
      c0.56335-0.80405,1.10282-1.62577,1.62461-2.45512c1.12037-1.77458,2.18925-3.59201,3.52889-5.21288
      c1.19743-1.44934,2.69595-2.92902,4.55376-3.46088c1.59802-0.45623,3.09796,0.07563,4.53467,0.76752
      c1.93474,0.93272,3.84793,1.83885,5.85313,2.61528c-0.60115,0.82676-1.14062,1.66875-1.36249,2.682
      c-0.23566,1.06126-0.13486,2.15014-0.2003,3.22651c-0.14119,2.27366-1.44315,3.69539-3.5063,4.53725
      C134.54073,65.60741,132.7926,65.833,131.0206,65.81906z"/>

</svg>
