<svg version="1.1" xmlns="http://www.w3.org/2000/svg" xmlns:xlink="http://www.w3.org/1999/xlink" width="160px"
  height="160px" viewBox="0 0 160 160" >
  <path fill="#00ADEE" d="M87.72791,91.32042c7.51463-0.65914,19.98144-5.24576,25.83797-11.347
    c2.77054-2.88652,4.17593-3.82137,1.68797-7.04471c-1.77708-2.30312-2.77542-2.48259-3.16235-2.31661
    c-0.00425,0.00125-3.75488,1.69534-5.11565,2.27875c-10.01734,4.29366-14.89628,1.87218-23.73694,3.10374
    C75.60529,83.11615,85.60914,91.46439,87.72791,91.32042z"/>
  <path fill="#A6A8AB" d="M50.6698,53.14437c-0.89948-3.45768-1.52312-6.24284-0.76038-8.33599
    c0.14098-0.41743,1.26879-0.48217,1.45726-0.88248c0.32957-0.82262,0.79949-2.35436,0.80074-2.35674
    c0.93847-1.85157,1.47801-7.74534,3.6084-10.07533c0,0,4.03921,1.09119,5.02904,0.09523
    c2.1054-2.12002,3.75788-3.64315,3.75788-3.64315s3.20022,1.23879,4.22905,2.30299
    c0.96546-0.25383,3.15385-1.29616,5.15902-2.22863c0,0,2.4026,3.76525,4.00208,4.15581
    c2.4386,0.59565,5.83766,0.88736,5.83766,0.88736s-1.1778,4.0887-0.77138,5.82178c1.85882,1.04958,5.53259,3.736,5.53259,3.736
    s-3.93622,3.8055-4.90031,7.49014c0,0-5.76929-8.75955-21.86775-4.34866c-4.57324,1.25354-6.37594,3.52479-7.99667,5.8829
    c-1.62086,2.35674-0.39793,5.94739,0.18297,9.26959c-1.02033-1.84532-1.79595-3.49055-2.37811-4.97717
    c-0.01225,0.02562-0.02625,0.05124-0.03849,0.07574C51.16897,55.04593,50.87852,54.09021,50.6698,53.14437z"/>
  <path fill="#00ADEE" d="M90.43009,124.03962c8.23038-33.32822-9.03288-40.99546-2.83091-70.84401
    c-1.34015,6.45155-4.72097,15.97385-7.13694,16.24968c-5.73143,0.82149-7.48776-14.80704-16.17407-20.46048
    c4.87157,9.29783,4.39802,18.80801-1.45426,20.76805c-3.46555,1.16193-9.85862,0.07574-11.71368,2.59732
    c-1.07345-2.68755-1.63973-10.60136-1.96205-10.87232c-0.19884,0.91298-0.61015,2.01017-0.54004,2.94151
    c-0.14772,29.87418-4.81358,46.00313-2.61069,62.04285c6.93435,9.01463,19.34017,8.27138,36.01216,8.20064
    C82.01961,134.66286,93.62781,130.11037,90.43009,124.03962z"/>
  <path fill="#00ADEE" d="M53.07415,91.63774c-7.51463-0.65914-19.98132-5.24576-25.83797-11.347
    c-2.77052-2.88652-2.70217-8.74493-0.21421-11.96826c1.77708-2.30312,1.30166,2.44097,1.68859,2.60694
    c0.00425,0.00125,3.75488,1.69534,5.11578,2.27875c10.01722,4.29366,14.89616,1.87219,23.73682,3.10374
    C65.19689,83.43347,55.19305,91.78172,53.07415,91.63774z"/>
  <path fill="#A6A8AB" d="M37.70995,97.5705c1.42252-1.11544,28.50602,7.7381,35.83393,14.22739
    c10.45602-10.64886,31.87759-28.58289,31.87759-28.58289l1.16256-67.35085c0,0-26.04181,17.93403-38.75158,28.58164
    c-8.90778-6.48817-35.81919-14.6142-37.54803-13.49876L37.70995,97.5705z"/>
  <path fill="#E7E7E8" d="M36.68162,100.9037c1.42251-1.11544,29.53435,6.48817,36.86226,12.9776
    C83.9999,103.23244,107.47801,87.798,107.47801,87.798l1.60561-67.35084c0,0-28.5414,15.43444-41.25117,26.08205
    c-8.90778-6.48817-37.06898-13.36454-38.79782-12.24897L36.68162,100.9037z"/>
  <path fill="#D0D2D3" d="M70.77209,48.11583c8.99389-7.53538,29.19067-18.45632,29.19067-18.45632l-0.16348,3.04637
    c0,0-20.76019,11.47997-28.15946,19.0141L70.77209,48.11583z"/>
  <path fill="#D0D2D3" d="M36.68162,100.9037c1.42251-1.11544,29.53435,6.48817,36.86226,12.9776l-5.71143-67.35209
    c-8.90778-6.48817-37.06898-13.36454-38.79782-12.24897L36.68162,100.9037z"/>
  <path fill="#A6A8AB" d="M34.93141,57.62475c0.36069-0.28308,7.48901,1.64523,9.3467,3.29045l-1.44814-17.07717
    c-2.25863-1.64523-9.39969-3.38932-9.83787-3.10736L34.93141,57.62475z"/>
  <path fill="#A6A8AB" d="M35.37209,60.73823c0.36069-0.28308,7.07645,2.04804,8.93402,3.69326l-0.12748-1.34003
    c-2.25863-1.64523-8.56121-4.05208-8.99938-3.77013L35.37209,60.73823z"/>
  <path fill="#A6A8AB" d="M35.37209,63.86272c0.36069-0.28308,7.07645,2.04803,8.93402,3.69326l-0.12748-1.34003
    c-2.25863-1.64523-8.56121-4.05208-8.99938-3.77013L35.37209,63.86272z"/>
  <path fill="#A6A8AB" d="M35.7364,67.19592c0.36069-0.28308,7.07645,2.04803,8.93402,3.69326l-0.12748-1.34003
    c-2.25863-1.64536-8.56121-4.05208-8.99938-3.77025L35.7364,67.19592z"/>
  <path fill="#A6A8AB" d="M40.14054,70.37663c-2.02354-0.83123-3.86473-1.42439-4.0942-1.27666l0.19284,1.41702
    c0.18435-0.14523,2.03279,0.39543,4.04233,1.17768L40.14054,70.37663z"/>
  <path fill="#A6A8AB" d="M56.94689,84.48067c0.36069-0.28308,7.48901,1.64523,9.34658,3.29045l-1.44814-17.07716
    c-2.2585-1.64523-9.39969-3.38932-9.83787-3.10749L56.94689,84.48067z"/>
  <path fill="#A6A8AB" d="M57.38744,87.59416c0.36069-0.28308,7.07645,2.04803,8.93415,3.69326l-0.12761-1.34016
    c-2.2585-1.64523-8.5612-4.05195-8.99938-3.77013L57.38744,87.59416z"/>
  <path fill="#A6A8AB" d="M57.38744,90.71864c0.36069-0.28308,7.07645,2.04803,8.93415,3.69326l-0.12761-1.34016
    c-2.2585-1.64523-8.5612-4.05195-8.99938-3.77012L57.38744,90.71864z"/>
  <path fill="#A6A8AB" d="M57.75175,94.05184c0.36069-0.28308,7.07645,2.04803,8.93414,3.69326l-0.1276-1.34016
    c-2.2585-1.64523-8.56121-4.05208-8.99939-3.77012L57.75175,94.05184z"/>
  <path fill="#A6A8AB" d="M62.1559,97.23244c-2.02354-0.83112-3.86461-1.42426-4.09407-1.27654l0.19284,1.41689
    c0.18422-0.14523,2.03267,0.39556,4.04221,1.1778L62.1559,97.23244z"/>
  <path fill="#D0D2D3" d="M90.73766,65.68129c-0.39544-0.23059-15.45281,10.20956-17.06867,12.09399L72.77551,60.659
    c2.01379-1.93693,17.10779-12.19773,17.58134-11.97802L90.73766,65.68129z"/>
  <path fill="#D0D2D3" d="M90.72542,68.82652c-0.39544-0.23183-14.98889,10.55251-16.60487,12.43444l-0.05612-1.34377
    c2.01379-1.93806,16.18745-12.74077,16.65974-12.52105L90.72542,68.82652z"/>
  <path fill="#D0D2D3" d="M88.07323,48.53201c-0.39543-0.23183-13.65373,8.33974-15.26959,10.22181l-0.05611-1.34378
    c2.01379-1.93818,14.85217-10.52813,15.32458-10.30841L88.07323,48.53201z"/>
  <path fill="#D0D2D3" d="M82.73974,81.71988c-0.39544-0.23183-6.21235,4.81858-7.82833,6.70065l-0.05611-1.34378
    c2.01379-1.93818,7.4109-7.00697,7.88319-6.78725L82.73974,81.71988z"/>
  <path fill="#D0D2D3" d="M83.16566,84.81512c-0.39543-0.23196-6.21234,4.81858-7.82832,6.70177l-0.05611-1.34502
    c2.01254-1.93818,7.4109-7.00684,7.88319-6.78713L83.16566,84.81512z"/>
  <path fill="#D0D2D3" d="M83.25965,88.16656c-0.39668-0.23183-6.21235,4.81857-7.82833,6.70301l-0.05611-1.34615
    c2.01254-1.93693,7.40965-7.00696,7.88194-6.78725L83.25965,88.16656z"/>
  <path fill="#D0D2D3" d="M75.85725,96.03401c1.16131-1.16319,3.11598-3.53704,3.36369-3.42231l0.00249,1.42914
    c-0.20259-0.11835-2.72542,2.50571-3.32582,3.31732L75.85725,96.03401z"/>
  <path fill="#D0D2D3" d="M91.88548,76.1703c-0.39544-0.23184-6.47168,3.09274-8.08754,4.9748l-0.05624-1.34378
    c2.01392-1.93818,7.67023-5.28112,8.14265-5.06141L91.88548,76.1703z"/>
  <path fill="#D0D2D3" d="M92.31152,79.26554c-0.39543-0.23196-6.4718,3.09274-8.08765,4.97592l-0.05624-1.34502
    c2.01266-1.93806,7.67036-5.281,8.14265-5.06142L92.31152,79.26554z"/>
  <path fill="#D0D2D3" d="M92.40551,82.61698c-0.39668-0.23183-6.4718,3.09274-8.08766,4.97718l-0.05624-1.34615
    c2.01266-1.93693,7.66911-5.28113,8.1414-5.06142L92.40551,82.61698z"/>
  <path fill="#D0D2D3" d="M84.70841,88.66086c0,0,3.37644-2.76067,3.62428-2.64594l0.00237,1.42914
    c-0.20259-0.11835-3.5864,2.54108-3.5864,2.54108L84.70841,88.66086z"/>
  <path fill="#A6A8AB" d="M37.41462,78.32207c0.36057-0.2832,7.07645,2.04803,8.93402,3.69327l-0.12761-1.34016
    c-2.2585-1.64523-8.56121-4.05208-8.99926-3.77013L37.41462,78.32207z"/>
  <path fill="#A6A8AB" d="M37.41462,81.44655c0.36057-0.2832,7.07645,2.04804,8.93402,3.69327l-0.12761-1.34016
    c-2.2585-1.64523-8.56121-4.05208-8.99926-3.77013L37.41462,81.44655z"/>
  <path fill="#A6A8AB" d="M37.77894,84.77975c0.36057-0.2832,7.07645,2.04791,8.93402,3.69327l-0.12761-1.34016
    c-2.2585-1.64523-8.56108-4.05208-8.99926-3.77013L37.77894,84.77975z"/>
  <path fill="#A6A8AB" d="M42.18308,87.96035c-2.02366-0.83112-3.86473-1.42439-4.0942-1.27666l0.19284,1.41702
    c0.18435-0.14523,2.03279,0.39543,4.04233,1.1778L42.18308,87.96035z"/>
  <path fill="#F0D0B3" d="M36.29968,62.90225c-0.63714-0.20996-0.82874-0.24171-1.64898,0.25871
    c-0.85186,0.52241-1.71959,1.18143-2.61919,1.60748c0.38818,1.36815-0.1721,2.11877,0.81286,1.31203l-0.57965-3.65789
    c-1.61236,0.21846-3.45718,3.27583-4.14919,4.74159c-0.78225,1.65872-1.56099,9.29908,3.26308,11.308
    c1.62323-0.87748,3.24771-1.75146,4.84295-2.67655c0.73713-0.42968,1.52075-0.77863,2.27862-1.16681
    c0.6029-0.30757,1.35228-0.63227,1.75271-1.2058c0.12935-0.18559,0.25996-0.74338,0.23184-1.0167
    c-0.13798-1.34253-1.65373-0.55653-1.22168-0.78237c1.0837-0.56016,0.80062-1.36203,0.69689-1.84295
    c-0.27096-1.26929-1.44389-1.05207-1.96143-0.87635c0.70913-0.39544,1.29741-0.87023,1.23392-1.75996
    c-0.05237-0.73225-0.4833-1.57923-1.28754-1.66597c-0.46867-0.05249-0.94597,0.12323-1.38527,0.26971
    c0.15372-0.34045,0.74325-0.37831,0.84949-0.73963C37.92416,63.25856,36.57914,62.99261,36.29968,62.90225z"/>
  <path fill="#F0D0B3" d="M104.50251,62.58493c0.63702-0.20996,0.82861-0.24171,1.64885,0.25871
    c0.85186,0.52241,1.71971,1.18143,2.61919,1.60736c-0.38818,1.36827,0.1721,2.1189-0.81286,1.31216l0.14647-3.3222
    c1.61224,0.21846,3.89036,2.94014,4.58237,4.4059c0.78237,1.65872,1.56099,9.29908-3.26295,11.308
    c-1.62336-0.8776-3.24784-1.75146-4.84295-2.67655c-0.73725-0.42968-1.52075-0.77875-2.27875-1.16681
    c-0.6029-0.30757-1.35228-0.63227-1.75259-1.2058c-0.12936-0.18559-0.25996-0.74338-0.23196-1.01671
    c0.13798-1.34252,1.65385-0.55653,1.2218-0.78236c-1.08382-0.56016-0.80074-1.36203-0.69701-1.84295
    c0.27096-1.26929,1.44389-1.05207,1.96143-0.87635c-0.70913-0.39544-1.29741-0.87023-1.23392-1.75996
    c0.05249-0.73225,0.48329-1.57936,1.28766-1.66597c0.46867-0.05249,0.94585,0.12323,1.38515,0.26971
    c-0.15372-0.34045-0.74325-0.37832-0.84936-0.73963C102.87803,62.94124,104.22293,62.67529,104.50251,62.58493z"/>

</svg>
