<svg xmlns="http://www.w3.org/2000/svg" width="160px" height="160px" viewBox="0 0 160 160">
<path fill="#96cca8" d="M63.2,116.1c-28.5,3.7-49.4-9.7-49.4-34.1C3.5,115.9,44.1,126.8,83,115.9C76.6,117.1,69.9,117.1,63.2,116.1z
  "/>
<path fill="#87bb9a" d="M63.2,116.1c-20.4-2.9-39.4-15.2-49.4-34.1C13.9,106.6,34.8,120,63.2,116.1z"/>
<path fill="#c6e5a8" d="M126.8,46.5L13.9,82c10,19,29,31.3,49.4,34.1c6.6,1,13.3,0.8,20-0.3c4.4-0.8,8.6-2.1,12.7-3.7
  c5.1-2.2,9.7-4.9,13.7-8.1c7.4-5.9,14.9-10.4,24.2-24.2s11.2-25.5,12.5-39.4L126.8,46.5z"/>
<path fill="#dd9075" d="M119.3,48.8L22.9,79.2c8.5,16.2,24.8,26.7,42,29.2c5.6,0.8,11.4,0.7,17-0.3c3.7-0.7,7.4-1.6,11-3.1
  c4.4-1.8,8.3-4.1,11.8-7c6.3-5.1,12.7-8.9,20.7-20.7s9.6-21.6,10.5-33.7L119.3,48.8z"/>
<path fill="#62696a" d="M46.9,82.5c-1.8,0.8-2.9-0.1-1.5-1.5c1.8-1.2,3.3-1.4,4.9-1.6c0.7-0.1-0.4,1-1.2,1.5
  C48.4,81.6,47.4,82.2,46.9,82.5z"/>
<path fill="#62696a" d="M52.5,91.5c-1.5,1.2-3,0.8-2.1-0.7c1.4-1.6,2.9-2.3,4.5-3c0.7-0.3,0,1-0.7,1.6
  C53.7,90.3,52.9,91.1,52.5,91.5z"/>
<path fill="#62696a" d="M61.9,97.2c-1,1.5-2.9,1.6-2.5,0c0.7-1.8,2.1-2.9,3.4-4c0.5-0.4,0.4,0.8,0,1.6
  C62.6,95.7,62.2,96.8,61.9,97.2z"/>
<path fill="#62696a" d="M74.1,98.9c-0.4,1.6-2.2,2.3-2.5,0.8c0-1.8,1-3,1.9-4.4c0.4-0.5,0.7,0.5,0.7,1.4
  C74.2,97.5,74.2,98.5,74.1,98.9z"/>
<path fill="#62696a" d="M87.4,96.3c0.3,1.5-1.4,2.6-2.2,1.5c-0.7-1.5-0.3-2.9,0.1-4.4c0.1-0.5,1,0.3,1.2,0.8
  C87,95.1,87.3,95.9,87.4,96.3z"/>
<path fill="#62696a" d="M100,89.7c0.8,1.1-0.4,2.7-1.6,2.1c-1.4-1-1.5-2.3-1.6-3.7c0-0.5,1.1-0.1,1.6,0.3
  C99.2,88.9,99.8,89.4,100,89.7z"/>
<path fill="#62696a" d="M110.5,80.1c1.4,0.7,0.7,2.3-1,2.3c-1.8-0.4-2.5-1.5-3.1-2.6c-0.3-0.4,1.1-0.4,1.8-0.3
  C109.2,79.7,110.1,79.9,110.5,80.1z"/>
<path fill="#62696a" d="M117.4,68.6c1.6,0.1,1.8,1.8,0,2.2c-1.9,0.3-3.1-0.4-4.2-1.1c-0.4-0.3,1-0.7,1.8-0.8
  C115.7,68.6,116.8,68.6,117.4,68.6z"/>
<path fill="#62696a" d="M119.7,56.7c1.8-0.4,2.5,0.8,0.8,1.8c-1.9,0.8-3.4,0.7-4.9,0.5c-0.5-0.1,0.7-1,1.5-1.2
  C118.2,57.3,119.1,56.9,119.7,56.7z"/>
<path fill="#62696a" d="M63.6,81.9c-1,0.8-1.9,0.5-1.4-0.4c0.8-1.1,1.8-1.5,2.9-1.9c0.4-0.1,0,0.5-0.4,1.1
  C64.3,81.1,63.8,81.6,63.6,81.9z"/>
<path fill="#62696a" d="M69.6,85.6c-0.7,1-1.8,1.1-1.5,0c0.4-1.1,1.4-1.8,2.2-2.5c0.4-0.3,0.3,0.5,0,1C70,84.7,69.7,85.2,69.6,85.6z
  "/>
<path fill="#62696a" d="M77.4,86.6c-0.3,1.1-1.4,1.5-1.6,0.5c0-1.1,0.5-1.9,1.2-2.9c0.3-0.4,0.4,0.4,0.4,0.8
  C77.5,85.7,77.4,86.3,77.4,86.6z"/>
<path fill="#62696a" d="M85.9,84.9c0.1,1-0.8,1.6-1.5,1c-0.4-1-0.1-1.8,0.1-2.7c0.1-0.4,0.5,0.1,0.8,0.5
  C85.6,84.1,85.7,84.7,85.9,84.9z"/>
<path fill="#62696a" d="M94,80.8c0.5,0.7-0.3,1.6-1.1,1.4c-0.8-0.7-1-1.5-1-2.3c0-0.4,0.7-0.1,1.1,0.3C93.3,80.1,93.8,80.5,94,80.8z
  "/>
<path fill="#62696a" d="M100.7,74.7c0.8,0.4,0.4,1.5-0.5,1.5c-1.1-0.3-1.5-1-2.1-1.6c-0.1-0.3,0.7-0.3,1.2-0.1
  C99.7,74.4,100.4,74.5,100.7,74.7z"/>
<path fill="#62696a" d="M105,67.3c1.1,0.1,1.1,1.1,0,1.4c-1.2,0.1-2.1-0.3-2.7-0.7c-0.3-0.1,0.5-0.4,1.1-0.5
  C104,67.3,104.6,67.3,105,67.3z"/>
<path fill="#62696a" d="M105.9,60.6c0.8,0,1,0.7,0.1,1.1c-1,0.3-1.6,0-2.2-0.3c-0.3-0.1,0.4-0.4,0.8-0.5
  C105,60.7,105.6,60.6,105.9,60.6z"/>
</svg>
