<svg version="1.1" xmlns="http://www.w3.org/2000/svg" xmlns:xlink="http://www.w3.org/1999/xlink"
 width="160px" height="160px" viewBox="-219 321 160 160">
<path fill="#CCCCCC" d="M-149.1,347.9c-0.4,0-0.6,1-0.6,1.5c0,6.4-0.1,16.6-0.1,22.4c0,2.3,0,3.1-1.1,3.1c-1.3,0-1.2-0.9-1.2-3.1
c0-5.4-0.1-18-0.1-22.4c0-1-0.3-1.5-0.7-1.5c-0.4,0-0.7,0.6-0.7,1.5c0,4.4-0.1,17.6-0.1,22.7c0,2.2,0,2.8-1,2.8
c-1,0-1.2-0.9-1.2-2.8c0-5.6-0.1-18.4-0.1-22.7c0-1-0.3-1.5-0.6-1.5c-0.3,0-0.6,0.6-0.6,1.5c0,4.4-0.1,16.9-0.1,22.4
c0,2.2,0,3.1-1,3.1c-1.5,0-1.5-0.8-1.5-3c0-3.6,0-19.2,0-22.4c0-0.7-0.1-1.6-0.5-1.6c-0.4,0-0.6,1.2-0.6,1.6c0,0.2,0,0.4-0.1,0.5
c-0.3,2.6-1.5,21.7-1.5,25.7c0,1.7,0.3,3.7,0.9,4.6c1.2,1.9,3.5,3.4,4.6,5.9c0.8,1.8,0.5,5.3,0.5,8.5c0,17-0.3,35.1-3,49.6
c-0.7,3.8-1.6,12.5,0.9,15.1c1.9,1.8,6.3,1.6,7.8-0.1c2.1-2.4,1.7-10.8,0.9-14.8c-2.7-14.4-3.1-31.6-3.1-49.8c0-2.9-0.4-6.4,0.5-8.3
c1.1-2.5,3.8-4.4,4.7-6.3c0.7-1.4,0.8-4.1,0.6-6.4c-0.4-6.1-0.9-16.1-1.4-24.2C-148.4,348.9-148.7,347.9-149.1,347.9z"/>
<path fill="#CCCCCC" d="M-128.6,343.6c-2.3,0-2.7,3-2.7,23.2c0,8.2,0,8.1,0,15.9c0,2.5,0.5,13.8,1.7,16.7c0.9,2.1-0.6,3.1-0.6,6.8
c0,10.5-0.3,44-0.2,47.6c0.1,3.2,0.5,6.1,1.5,7.2c1.4,1.4,5.1,1.5,6.1,0.8c2.5-1.8,1.8-7.1,1.8-10.8c-0.2-12.5-1.4-33.7-1.7-44.9
c-0.1-3.3-2.5-4.3-1.6-6.5c1.2-3,2.4-4.1,3.4-6.8c0.7-1.9,0.2-5.7,0.1-8.9c-0.5-9-0.3-10.3-3.5-29.9
C-125.1,349.9-125.9,343.6-128.6,343.6z"/>
<path fill="#808184" d="M-125.1,462.5c-1.4,0-3.2-0.3-4.1-1.3c-0.9-1-1.4-3.4-1.6-7.4c-0.1-2.2,0-15.3,0.1-28
c0.1-8,0.1-15.6,0.1-19.7c0-2.1,2-3,3.9-3c2,0,4.1,1,4.1,2.9c0.1,4.4,0.4,10.4,0.7,16.7c0.4,9.7,0.9,20.6,1,28.2
c0,0.6,0,1.2,0.1,1.8c0.1,3.6,0.3,7.7-1.9,9.3C-123.2,462.3-124.1,462.5-125.1,462.5L-125.1,462.5z"/>
<circle fill="#FFFFFF" cx="-126.5" cy="409.9" r="1.6"/>
<circle fill="#FFFFFF" cx="-126.3" cy="424.9" r="1.6"/>
<circle fill="#FFFFFF" cx="-126" cy="439.9" r="1.6"/>
<circle fill="#FFFFFF" cx="-125.8" cy="455" r="1.6"/>
</svg>
