<svg version="1.1" xmlns="http://www.w3.org/2000/svg" xmlns:xlink="http://www.w3.org/1999/xlink"
 width="160px" height="160px" viewBox="-219 321 160 160">
<path fill="#85B1D4" d="M-160.7,401.4c3.6,4.3,10.7,5.6,14.6,4.7c-1.6-2.2-0.4-3.3,1.2-4.6c1.5-1.3,2.8-2.3,4.8-0.4
c1.5-3.7,1.3-10.9-2.3-15.2l-13.3-15.7c-0.6-0.7-1.5-1.2-2.5-1.4c-0.5-1.5-1.2-2.9-2-3.8c-0.6-0.7-1.5-1.2-2.4-1.4
c-0.5-1.5-1.2-2.9-2-3.8c-0.6-0.7-1.5-1.2-2.4-1.4c-0.5-1.5-1.2-2.9-2-3.8c-0.6-0.7-1.5-1.2-2.4-1.4c-0.5-1.5-1.2-2.9-2-3.8
c-0.4-0.5-0.9-0.8-1.4-1c-0.2-0.6-0.4-1.1-0.8-1.6c-2.4-2.9-8.5-1.7-13.6,2.5c-5,4.3-7.2,10.1-4.7,13c0.4,0.5,0.9,0.8,1.4,1.1
c0.2,0.6,0.4,1.1,0.8,1.6c0.8,0.9,2,1.8,3.4,2.6c0.1,1,0.4,1.9,1,2.7c0.8,0.9,2,1.8,3.4,2.6c0.1,1,0.4,1.9,1,2.6
c0.8,0.9,2,1.8,3.4,2.6c0.1,1,0.4,1.9,1,2.7c0.8,0.9,2,1.8,3.4,2.6c0.1,1,0.4,1.9,1,2.7L-160.7,401.4z"/>
<path fill="#EEEEEE" d="M-153.8,391.1c3.2-2.7,6.9-4.2,9.7-4.1l-8.7-10.2c-1.5-1.8-6.4-1.1-10.9,2.8c-4.5,3.8-6,8.5-4.5,10.3
l8.7,10.2C-159,397.2-157,393.8-153.8,391.1z"/>
<path fill="#85B1D4" d="M-145.7,406.7c-2.2-2.6-0.9-3.7,0.8-5.2c1.7-1.4,3-2.5,5.2,0.1c2.2,2.6,0.9,3.8-0.8,5.2
C-142.1,408.1-143.5,409.3-145.7,406.7z"/>
<path fill="#CCCCCC" d="M-125.8,402.3c1.7,0.8,4.1-0.6,5.3-3.1c1.2-2.5,0.9-5.3-0.8-6.1l-3.1-1.5l0,0l0,0c-1.7-0.8-4.1,0.6-5.3,3.1
c-1.2,2.5-0.9,5.3,0.8,6.1l0,0l0,0L-125.8,402.3z"/>
<path fill="#EEEEEE" d="M-124.1,397.5c-0.9,1.8-0.5,3.3-0.1,3.6c0.5,0.2,1.9-0.4,2.8-2.2c0.9-1.8,0.5-3.3,0.1-3.6
C-121.8,395-123.2,395.7-124.1,397.5z"/>
<path fill="#C5C7C9" d="M-139.4,404.2c0.2,0,0.3,0,0.3,0c0.1,0.3-0.1,1.4-1.4,2.5c-0.9,0.8-1.8,1-2.3,1c-0.2,0-0.3,0-0.3,0
c-0.1-0.3,0.1-1.4,1.4-2.5C-140.8,404.4-139.9,404.2-139.4,404.2 M-139.4,403.6c-0.7,0-1.7,0.3-2.7,1.2c-1.5,1.3-1.8,2.8-1.5,3.3
c0.1,0.1,0.4,0.2,0.7,0.2c0.7,0,1.7-0.3,2.7-1.2c1.5-1.3,1.8-2.8,1.5-3.3C-138.8,403.7-139,403.6-139.4,403.6L-139.4,403.6z"/>
<path fill="#85B1D4" d="M-89.6,416.7c-1-0.4-2-0.5-3-0.4c0-2.6-0.5-5.3-2-7.3c-2.9-4.1-8.4-3.8-11.2,0.1c-0.9,1.3-1.3,3.2-2.1,4.6
c-0.6,1.1-1.3,2.3-2.3,3.1c-1.9,1.6-4.7,2-7.1,1.8c-1.4-0.1-2.8-0.4-4.1-0.9c-1.6-0.6-3-1.5-4.4-2.5c-1.6-1.2-3.1-2.6-4.5-4.1
c-1.2-1.3-2.4-2.6-3.9-3.6c-0.8-0.5-1.7-1-2.6-1.4c-0.9-0.4-1.9-0.9-2.9-1c-0.4-0.1-0.8-0.1-1.1,0c-0.7,0.2-1.1,0.8-1.4,1.4
c-0.3,0.7-1.2,1.1-1,1.3c1,1,2.1,3.2,2.5,4.4c0.5,1.3,0.7,3.1,0.9,4.5c0.5,2.9,0.6,5.8,0.7,8.8c0.1,2.1,0.1,4.3-0.1,6.4
c-0.3,2.7-2.1,7.2-1.6,8.9c0.4,1.3,1.4,2.2,2.8,1.9c1.1-0.2,3.3-1.1,4.8-4c1.5-2.9,1.5-2.9,1.9-4.4c0.4,1.2,0.6,2.3,0.7,3.9
c0.2,2.3,0.8,4.1,1.9,5.6c0.9,1.2,3.1,1.5,4.4,0c0.4-0.5,1-1.3,1.2-1.9c0.6,0.9,1.3,1.7,1.9,2.5c6.4,7.2,29.4,12.5,30.8-1.6
c0.1-0.6,0-1.3-0.4-1.7c-0.3-0.4-0.8-0.7-1.3-0.8c-0.4-0.1-0.8,0-1.2-0.1c-0.2,0-0.4-0.1-0.5-0.2c-0.1-0.1-0.2-0.1-0.3-0.3
c-0.1-0.1-0.1-0.1-0.2-0.2c0.2,0,0.5,0.1,0.6,0c2.7-0.2,4.9-1.7,6.3-3.8c0.4-0.6,0.7-1.3,0.9-1.9c0.7-1.8,0.9-3.9,1.1-5.8
C-84.8,423.8-85.4,418.5-89.6,416.7z"/>
<path fill="#A1C9E5" d="M-140.7,446.8c-1.6-3.2-6.6-0.8-5,2.4C-144.1,452.5-139.1,450-140.7,446.8z"/>
<path fill="#A1C9E5" d="M-124.4,453.4c0.2-2-2.9-2.3-3.1-0.3C-127.7,455.2-124.6,455.4-124.4,453.4z"/>
<path fill="#A1C9E5" d="M-103.1,418.8c-7.5,1.8-4.7,13.4,2.8,11.6C-92.8,428.6-95.6,417-103.1,418.8z"/>
<path fill="#A1C9E5" d="M-92.1,418.9c-3.3,1.6-0.8,6.6,2.4,5C-86.4,422.4-88.9,417.3-92.1,418.9z"/>
<circle fill="#A1C9E5" cx="-134.3" cy="417.1" r="2.4"/>
<circle fill="#A1C9E5" cx="-93.2" cy="442.7" r="2"/>
</svg>
