<svg version="1.1" xmlns="http://www.w3.org/2000/svg" xmlns:xlink="http://www.w3.org/1999/xlink" width="160px"
  height="160px" viewBox="0 0 160 160" >
  <path fill="#FFC50A" d="M100.00663,135.98387L75.63626,43.45629l-24.45279,92.84975
    c-0.22375,0.45314-0.36726,0.91606-0.36726,1.39023v0.0013l0,0l0,0c0,4.65868,11.12685,8.4366,24.85232,8.4366
    c13.72633,0,24.8503-3.77792,24.8503-8.4366C100.51883,137.11087,100.34161,136.53815,100.00663,135.98387z"/>
  <path fill="#F6921E" d="M98.0846,128.68912L75.63626,43.45629l-22.52513,85.52963
    c-0.20547,0.41725-0.33774,0.84286-0.33774,1.28044v0.00072l0,0v0.00072c0,4.29143,10.24883,7.77037,22.8924,7.77037
    c12.64285,0,22.89168-3.47894,22.89168-7.77037C98.55747,129.72678,98.39423,129.19916,98.0846,128.68912z"/>
  <path fill="#9A84BD" d="M39.61632,124.71208c2.00069-4.96254,0.77097-9.22168-0.31524-12.97842
    c-1.14804-3.97343-2.14003-7.40368,0.19421-11.51514l-9.17384-1.84523c-3.11933,5.49448-1.76166,10.1925-0.56421,14.33694
    c1.01864,3.52174,1.97966,6.84653,0.44174,10.65542L39.61632,124.71208L39.61632,124.71208z"/>
  <path fill="#37B34A" d="M118.36844,124.71208c-2.00083-4.96254-0.77111-9.22168,0.3151-12.97842
    c1.14817-3.97343,2.13873-7.40368-0.19408-11.51514l9.17371-1.84523c3.11803,5.49448,1.76167,10.1925,0.56292,14.33694
    c-1.01879,3.52174-1.97836,6.84653-0.44189,10.65542L118.36844,124.71208L118.36844,124.71208z"/>
  <path fill="#FFF100" d="M91.70245,39.46312c-1.23548-3.05896-0.47561-5.6838,0.19408-7.99902
    c0.70642-2.44893,1.31703-4.56301-0.12103-7.09708l5.65354-1.13751c1.92203,3.38674,1.08622,6.28231,0.34896,8.83612
    c-0.62761,2.17099-1.22136,4.21966-0.27301,6.5673L91.70245,39.46312L91.70245,39.46312z"/>
  <path fill="#00ADEE" d="M127.95594,73.61938c-0.64159,2.2449-0.24767,4.17183,0.10128,5.87082
    c0.36584,1.79754,0.68381,3.34942-0.06195,5.20949l2.93231,0.83509c0.99617-2.48624,0.56277-4.61156,0.1801-6.48561
    c-0.32648-1.59352-0.63322-3.09756-0.14076-4.82047L127.95594,73.61938L127.95594,73.61938z"/>
  <path fill="#EEC35C" d="M39.06192,44.42076c-0.6416,2.24491-0.24769,4.17183,0.09983,5.87082
    c0.36726,1.79754,0.68396,3.34942-0.06181,5.20949l2.93361,0.83508c0.99617-2.48624,0.56277-4.61156,0.1801-6.48575
    c-0.32648-1.59338-0.63309-3.09757-0.14062-4.82048L39.06192,44.42076L39.06192,44.42076z"/>
  <path fill="#EC1C24" d="M48.6579,89.18749c2.85206-5.15965,3.34582-10.12636,3.78065-14.50927
    c0.46005-4.63332,0.85685-8.63499,3.66813-12.78563l-5.51278-3.73296c-3.75529,5.54649-4.30121,11.027-4.781,15.86001
    c-0.40674,4.10714-0.79215,7.98634-2.98303,11.94579L48.6579,89.18749L48.6579,89.18749z"/>
  <polygon fill="#A9DEF0" points="118.132,63.62457 110.64375,50.24936 95.37749,48.83666 105.78394,37.58043 102.41276,22.62725
    116.33101,29.04543 129.51199,21.21599 127.70827,36.43932 139.22905,46.55386 124.19344,49.5438"/>
  <polygon fill="#FFC50A" points="84.34156,105.11652 80.02479,97.40868 71.22944,96.59477 77.22618,90.10902 75.28312,81.49248
    83.30318,85.19086 86.17843,83.48193 89.64256,96.64261 87.83305,97.00209"/>
  <polygon fill="#FFC50A" points="67.36147,117.1466 61.09875,117.78603 58.07366,123.30788 55.90122,118.38612 58.38746,108.92944
    58.67865,109.09975 64.37153,106.40948 63.0447,112.56385"/>
  <polygon fill="#F6921E" points="84.11074,51.31728 79.3479,47.88688 81.88903,53.17807 78.12942,48.67068 79.27485,54.42753
    76.75346,49.12654 76.43259,54.98829 75.30833,49.22639 73.53976,54.8236 73.88455,48.96402 70.77919,53.94486 72.56895,48.35485
    68.32248,52.40767 71.44757,47.43808 66.32597,50.30771 70.58914,46.27175 64.91471,47.77724 70.04755,44.92792 64.17745,44.97518
    69.85621,43.49144 64.15916,42.0773 70.02925,42.05338 64.86255,39.26674 70.55399,40.70264 66.24284,36.71941 71.3996,39.52565
    68.21413,34.59481 72.50987,38.59561 70.6511,33.02736 73.81696,37.97016 73.40044,32.11563 75.23802,37.69022 76.29197,31.91579
    76.68444,37.77248 79.14114,32.44125 78.06472,38.21149 81.76945,33.65901 79.29314,38.98045 84.01363,35.4917 80.29061,40.03079
    85.73092,37.82522 80.99703,41.29567 86.8144,40.51274 81.36559,42.69641 87.19434,43.38583 81.37409,44.14571 86.851,46.26253
    81.02239,45.55135 85.79851,48.96258 80.33282,46.82458"/>
  <circle fill="#FFC50A" cx="75.63623" cy="43.4563" r="2.64379"/>

</svg>
