<svg version="1.1" xmlns="http://www.w3.org/2000/svg" xmlns:xlink="http://www.w3.org/1999/xlink"
 width="160px" height="160px" viewBox="-219 321 160 160">
<path fill="#D0D2D3" d="M-90.5,425.4c0-10.9-22.2-19.8-49.5-19.8c-27.3,0-49.5,8.9-49.5,19.8c0,0.3,0,0.7,0.1,1c0,0.3-0.1,0.7-0.1,1
c0,11.3,22.7,20.9,49.5,20.9c26.8,0,49.5-9.6,49.5-20.9c0-0.3,0-0.7-0.1-1C-90.5,426-90.5,425.7-90.5,425.4z"/>
<path fill="#FFFFFF" d="M-188.7,425.4c0,10.5,21.8,19,48.7,19c26.8,0,48.7-8.5,48.7-19c0-10.5-21.8-19-48.7-19
C-166.8,406.3-188.7,414.9-188.7,425.4z"/>
<path fill="#F1F1F2" d="M-108.9,424.3c0,19.1-66.2,19.1-66.2,0C-175.2,405.2-108.9,405.2-108.9,424.3z"/>
<path fill="#BBBDBF" d="M-142,364.6c-19.9,0-41.3,6.1-41.3,19.4c0,9.9,13.5,38.1,26.8,44.8c4,2,9.2,3.1,14.5,3.1
c5.3,0,10.5-1.1,14.5-3.1c13.4-6.7,26.8-34.9,26.8-44.8C-100.7,370.7-122.2,364.6-142,364.6z"/>
<path fill="#FFFFFF" d="M-101.1,377.9c0,25.3-81.8,25.3-81.8,0C-183,352.5-101.1,352.5-101.1,377.9z"/>
<path fill="#D9DBDC" d="M-108.9,377.9c0,20.5-66.2,20.5-66.2,0C-175.2,357.4-108.9,357.4-108.9,377.9z"/>
<path fill="#CF8846" d="M-152.2,371.6c-0.3,6.5,38.4,6.7,38.4,11.4c0,4.3-14.1,8.6-28.3,8.6c-14.1,0-28.3-4.3-28.3-8.6
C-170.3,379.9-151.9,365.1-152.2,371.6z"/>
<path fill="#D0D2D3" d="M-106.6,390.8C-106.6,390.8-106.6,390.8-106.6,390.8c-0.5-0.1-1.7,1-2,2.7c-0.3,1.7-0.2,3.2,0.3,3.3
c6.2,0,9.4,4.7,9.4,8.6c0,2-0.9,3.6-2.6,4.9c-1.7,1.3-5.2,2.7-11.8,2.7h-6.1h0c-0.9,0-1.3,1.5-1.6,3.2c-0.4,1.9-0.1,3.2,0.8,3.2h0
h6.9c6.7,0,11.9-1.3,15.6-4c3.4-2.5,5.3-6,5.3-10.1C-92.6,397.5-98.9,390.8-106.6,390.8z"/>
</svg>
