<svg version="1.1" xmlns="http://www.w3.org/2000/svg" xmlns:xlink="http://www.w3.org/1999/xlink"
 width="160px" height="160px" viewBox="-219 321 160 160">
<path fill="#F8DB93" d="M-97.8,411.4c-0.2-16.8-8.2-18.3-7.4-26.8c0.8-8.6-5.4-14.2-11.9-14.9c-2.6-0.3-4.8-0.1-6.6,0.3
c-2.7,0.6-4.7,1.8-6.1,3c-2.3,1.9-4.6,3.8-6.4,6.2c-2.9-2.2-8.3-3.3-10.8-2.3c-0.9,0.4-1.9,1-2.7,1.8c-1.5,1.3-2.8,3.1-3.4,4.9
c-0.2,0.4-0.4,0.8-0.7,1.1c-1.7,1.9-5.3,2.2-7.1,1.7c-2.1-0.6-5.4-2.8-9.7-2.5c-3.6,0.2-5.3,1.3-7.4,2.8c-3.3,2.3-5.7,7-6.3,12.8
c-0.3,3.3,0,7,1,10.7c2.9,10.3,7,15.1,16.3,25.2c0.8,0.8,1.6,1.7,2.6,2.7c3.6,3.6,8.3,7.7,13.6,11.6c10.3,7.4,22.9,13.3,33.5,10.2
C-104.5,456.3-97.3,445-97.8,411.4z"/>
<path fill="#B45332" d="M-136.2,415.5c2.1,5.3,13,26.9,11.3,30.2c-1.7,3.3-15.3,7.1-32.7-9c-17.3-16.2-7-14.9-5-15.2
c2-0.3,2.9-3.6-6.2-1.5c-4.6,1-5.6-0.5-5.6-0.5c-4.2-6.3-5.6-10.1-5.6-19.3c0-9.3,6.9-12.5,9.1-12.5c2.2,0,11.4-1.4,15.7,9.6
c4.3,11,5.4,14.2,6.2,8.8c0.8-5.4-1.7-6.7-1.4-12.5c0.2-5.9,0.6-12.8,5.6-12.4c5,0.4,8.6,3.3,4.4,9.3
C-144.5,396.3-138.3,410.2-136.2,415.5z"/>
<path fill="#B45332" d="M-109.7,397c-3.5,5.2-6.7,5.8-1.6-5c5.2-10.8,0.4-17.1-3.4-18.2c-3.8-1.1-5.9-1.2-8.9-0.8
c-1.2,0.2-2.4,0.6-3.4,1.3c-0.9,0.5-1.7,1.3-2.4,2.1c-2.2,2.4-3.7,5.7-4.7,8.9c-1.7,5.5,1.6,0.8,3.1,7.7c1.6,6.9,7,7.2,5.8,8.7
c-1.3,1.6-8.3-8-12.2-7.3c-3.9,0.6,1.1,14.2,9.2,18.3c8.1,4.1,8,24.1,13.4,28c5.5,3.9,10.1-2,10-8.9
C-105,414.7-111.3,404.5-109.7,397z"/>
<path fill="#779BB3" d="M-148.9,465.1c-1.4-4.3-2-9.5-1.6-15.3l0,0c-5.3-3.8-10.1-8-13.6-11.6c0,8.4,0.6,17.9,1.4,27.8
c0,1.6,3.2,3,7,3c3.9,0,7-1.3,7-3C-148.7,465.6-148.8,465.3-148.9,465.1z"/>
<path fill="#B45332" d="M-140.6,344c-7.8,0-12.6,2.5-15.4,6c-1.6,2-4.5,6.2-5.9,9.5c-0.2,1.5-0.3,3-0.4,4.5
c-0.4,8.5,1.1,17.1,8.5,20.5l0.2,0.2c0.3-0.3,0.5-0.7,0.7-1.1c0.6-1.8,1.9-3.6,3.4-4.9c0.8-0.8,1.8-1.4,2.7-1.8
c2.5-1,7.9,0.1,10.8,2.3c1.8-2.4,4.1-4.2,6.4-6.2c1.4-1.2,3.3-2.4,6.1-3c1.8-3.1,2.9-6.8,2.9-10.7C-120.7,347.7-129.6,344-140.6,344
z"/>
<path fill="#779BB3" d="M-153.8,384.4c-7.4-3.4-8.9-12-8.5-20.5c0.1-1.5,0.2-3,0.4-4.5c0.5-4.2,1.3-8.1,1.9-11
c0.1-0.2,0.2-0.4,0.2-0.7c0-1.7-3.1-3-7-3c-3.6,0-6.6,1.2-7,2.7l-0.1,0c-2.6,8.6-1.2,16.7-5.9,34.1c-4.7,17.1-3.8,11.5-4.2,18h0.1
c0.5-5.8,2.9-10.5,6.3-12.8c2.1-1.5,3.8-2.6,7.4-2.8c4.2-0.3,7.6,1.8,9.7,2.5c1.8,0.6,5.4,0.2,7.1-1.7L-153.8,384.4z"/>
</svg>
