<svg version="1.1" xmlns="http://www.w3.org/2000/svg" xmlns:xlink="http://www.w3.org/1999/xlink" width="160px"
  height="160px" viewBox="0 0 160 160">
  <polygon fill-rule="evenodd" clip-rule="evenodd" fill="#A4DBDF" stroke="#D0EBEF" stroke-width="5.72625" stroke-linejoin="round" points="
    60.09067,45.00334 126.80215,53.5737 126.80215,109.35219 100.61547,131.1841 33.90398,122.6114 33.90398,66.83069"/>
  <polyline fill-rule="evenodd" clip-rule="evenodd" fill="#A4DBDF" points="79.53378,52.52468 109.28275,56.34922 97.60397,66.0827
   "/>
  <path fill="#D0EBEF" d="M80.64094,56.01957c9.91633,1.27485,19.83265,2.54969,29.74897,3.82454
    c-2.53625-1.98925-5.0725-3.9785-7.60875-5.96775c-3.89293,3.24449-7.78586,6.48898-11.67879,9.73347
    c-3.29107,2.74289,9.43896,7.91627,13.0032,4.94572c3.89292-3.24448,7.78585-6.48898,11.67878-9.73346
    c3.42898-2.85782-6.34313-5.80504-7.60875-5.96775c-9.91633-1.27485-19.83265-2.54969-29.74897-3.82454
    c-1.88339-0.24213-6.28307-0.19962-5.80335,2.70071C73.08446,54.51873,78.55062,55.75084,80.64094,56.01957L80.64094,56.01957z"/>
  <line fill-rule="evenodd" clip-rule="evenodd" fill="none" stroke="#D0EBEF" stroke-width="2.86313" x1="100.61547" y1="75.40339" x2="126.80215" y2="53.5737"/>
  <line fill-rule="evenodd" clip-rule="evenodd" fill="none" stroke="#D0EBEF" stroke-width="2.86313" x1="33.90398" y1="66.83069" x2="100.61547" y2="75.40339"/>
  <line fill-rule="evenodd" clip-rule="evenodd" fill="none" stroke="#D0EBEF" stroke-width="2.86313" x1="100.61547" y1="131.1841" x2="100.61547" y2="75.40339"/>
  <polyline fill-rule="evenodd" clip-rule="evenodd" fill="#A4DBDF" stroke="#D0EBEF" stroke-width="10.15739" stroke-linecap="round" stroke-linejoin="round" points="
  45.32623,104.5948 45.32623,79.46742 66.99631,81.90537"/>
  <line fill-rule="evenodd" clip-rule="evenodd" fill="#A4DBDF" stroke="#D0EBEF" stroke-width="10.15739" stroke-linecap="round" stroke-linejoin="round" x1="82.23282" y1="84.07652" x2="87.98785" y2="85.20762"/>

</svg>
