<svg version="1.1" xmlns="http://www.w3.org/2000/svg" xmlns:xlink="http://www.w3.org/1999/xlink"
 width="160px" height="160px" viewBox="-219 321 160 160">
<path fill="#F0D0B3" d="M-140.6,434c4.6,12.3-3.6,31.3-9.9,37.2c-2.9,2.8-7.5,4.4-11.5,3.2c-9.2-2.8-2.9-9.1-2.8-9.5
c0,0,0.4-0.8,1-2.2c5.1-12.6,7.7-12.3,9.3-19.8C-147,435.2-141.4,432-140.6,434z"/>
<path fill="#F0D0B3" d="M-120.1,471.9c-4.4,6.3-10.3-3.4-11.7-7.2c-1.5-4-2.3-8.4-2.7-12.6c-0.2-1.7-0.2-3.3-0.3-5
c0-1.6,1.5-3.3,5.2-3.5c3-0.1,7.1,0.3,8,3.1C-119.5,452.9-114.6,464.1-120.1,471.9z"/>
<path fill="#EC7B31" d="M-153.1,434.3c7.6-5,15.2-14.3,22.6-12.2c7.4,2.1,9.7,18.7,10.2,26.1c-1.1,3.9-8.5,7.4-14.8,5.2
c-2.2-8.1-9.4-12.9-16.6-18C-152.6,434.7-153.1,434.3-153.1,434.3z"/>
<path fill="#EC7B31" d="M-158,427.8c9.1,0.7,22.2-2.2,27.9,2.9c2.9,2.6-4.3,4.4-5.2,10c-0.7,4.9-2.5,9.8-4.5,12.6
c-3.4,4.5-13.4,0.3-20.6,1.3c1.6-8.2,5.4-16.6,2.8-25C-157.9,428.5-158,427.8-158,427.8z"/>
<path fill="#F0D0B3" d="M-143.2,406c4.1,3.6,13.6,6.7,19.6,8.1c0,0,2.9-1.1,3.3-3.4c0.3-1.6-0.1-2.1-0.3-2.2c0,0-2.5-0.1-3.4-0.5
c-6.5-2.4-8.4-8-13.4-12C-145,395.6-144.4,405-143.2,406z"/>
<path fill="#F0D0B3" d="M-143.3,406c-3.6-8.5,1.5-21.9,5.7-26.2c2-2,5.7-3.3,8.5-2.5c6.5,1.7,2.6,6.6,2.5,6.9c0,0-0.1,0.9-0.5,1.9
c-3.2,8.9-6,8-6.9,13.3C-138.8,405-142.7,407.4-143.3,406z"/>
<path fill="#F0D0B3" d="M-107.2,409.5c-0.2-0.4-0.3-0.5-1-0.7c-0.7-0.1-1.5-0.2-2.2-0.4c-0.5,0.9-0.6,1.1,0.3,1.2
c0.6,0,0.9-0.1,1.3-0.7c0.4-0.6-0.3-1.1-0.7-1.4c-1-0.7-1.6-2-2.6-1.6c-1.2,0.5-3.3,2.1-4.4,2.2c-0.9,0.1-1.7,0.3-2.6,0.3
c-0.5,0-0.9,0-1.6,0c-0.4,0-0.8,0.2-1.1,0.4c-0.5,0.3-0.8,0.8-1,1.3c-0.4,0.9-0.6,1.8-0.7,2.9c-0.1,0.3-0.1,0.7-0.2,1
c2.1,0.3,4.2,0.8,6.3,1.3c1.3,0.3,2.6,0.6,3.9,0.9c0.6,0.1,1.2,0.3,1.8,0.5c0.5,0.1,1,0.3,1.5,0.2c0.2,0,0.5-0.3,0.6-0.4
c0.6-0.8-0.6-1.1-0.3-1c0.8,0.2,1.1-0.3,1.3-0.6c0.5-0.8-0.3-1.3-0.6-1.4c0.6,0.1,1.1,0.2,1.5-0.3c0.3-0.4,0.5-1.1,0.1-1.5
c-0.2-0.3-0.6-0.4-0.9-0.5c0.2-0.1,0.6,0.2,0.8,0C-106.5,410.5-107.1,409.7-107.2,409.5z"/>
<path fill="#F0D0B3" d="M-152,401.6c-2.8-3.5-4.2-7.5-4.6-14.8c-0.4-7.5,5.4-12.7,10.1-12.7c4.6,0,9.2-0.7,17.5,3.2
c-1.7,6-4.5,25.2-7.3,26C-138.6,404-151.3,402.4-152,401.6z"/>
<path fill="#F0D0B3" d="M-141.8,371.4c-4.9-3.5-7.4-7.5-8-14.8c-0.6-7.5,6.8-13.7,14.9-13.7c8.1,0,14.6,6.1,14.5,13.6
c-0.1,7.6-5.9,15.6-10.8,16.4C-135.2,373.6-140.6,372.2-141.8,371.4z"/>
<path fill="#808184" d="M-135,359.3c-0.5,0.3-0.9,0-1-0.6c-0.1-0.6,0.3-1.2,0.8-1.5c0.5-0.3,0.9,0,1,0.6
C-134.2,358.4-134.5,359.1-135,359.3z"/>
<path fill="#808184" d="M-124.6,360.7c-0.4,0.3-0.8,0.1-0.9-0.4c-0.1-0.6,0.1-1.3,0.5-1.6c0.4-0.3,0.8-0.1,0.9,0.4
C-124,359.6-124.3,360.4-124.6,360.7z"/>
<path fill="#AAAAAA" d="M-149.6,359.2c-0.8-3.1-1.3-5.5-0.7-7.4c0.1-0.4,1.1-0.4,1.3-0.8c0.3-0.7,0.7-2.1,0.7-2.1
c0.8-1.6,1.3-6.9,3.2-8.9c0,0,3.6,1,4.5,0.1c1.9-1.9,3.3-3.2,3.3-3.2s2.8,1.1,3.7,2c0.9-0.2,2.8-1.1,4.6-2c0,0,2.1,3.3,3.5,3.7
c2.2,0.5,5.2,0.8,5.2,0.8s-1,3.6-0.7,5.2c1.6,0.9,4.9,3.3,4.9,3.3s-3.5,3.4-4.3,6.6c0,0-5.1-7.8-19.4-3.8c-4,1.1-5.6,3.1-7.1,5.2
c-1.4,2.1-0.4,5.3,0.2,8.2c-0.9-1.6-1.6-3.1-2.1-4.4c0,0,0,0,0,0.1C-149.2,360.9-149.4,360-149.6,359.2z"/>
<path fill="#EC7B31" d="M-149.3,360.1l-1.3-1.3l0.4-2.2c2-3.3,4.7-6.5,9.8-7.7c18.2-4.4,21.7,3.5,21.9,3.8l-0.5,2.3l-1.5,2.6
c-0.2-0.3-4.2-8.3-19.5-4.6c-4.1,1-7.6,4.3-9.1,6.9L-149.3,360.1z"/>
<polygon fill="#808184" points="-130.1,364.9 -129.1,363.9 -132,364.6 "/>
<path fill="#808184" d="M-129.7,362.1c-0.2-1-0.5-2-0.5-2c0.1,0,0.1,0,0.1,0.1h0l1,3.7l-0.6,0.1C-129.7,364-129.6,363.1-129.7,362.1
z"/>
<path fill="#18A9D2" d="M-122.9,429.5c-9.5-20.4-10.5-30.8-6-52.2c-1,4.6-3.4,11.5-5.1,11.7c-4.1,0.6-5.4-10.6-11.6-14.7
c3.5,6.7,3.2,13.5-1,14.9c-2.5,0.8-7.1,0.1-8.4,1.9c-0.8-1.9-1.2-7.6-1.4-7.8c-0.1,0.7-0.4,1.4-0.4,2.1c-0.1,21.5-3.5,33-1.9,44.6
c5,6.5,25,6.6,36.9,6.6C-121.9,436.5-120.7,433.9-122.9,429.5z"/>
<path fill="#F0D0B3" d="M-141.7,407c5.4-0.5,14.7-4.8,19.4-8.6c2.2-1.8,2.2-2.3,0.4-4.6c-1.3-1.7-2-1.8-2.3-1.7c0,0-2.7,1.2-3.7,1.6
c-7.2,3.1-10.7,1.3-17,2.2C-150.4,401.1-143.2,407.1-141.7,407z"/>
<path fill="#F0D0B3" d="M-141.7,407c-8.6-3.2-14.8-16.2-15-22.2c-0.1-2.8,1.1-5.9,3.6-7.5c5.7-3.6,6.1,2.6,6.3,2.9
c0,0,0.2,0.6,0.7,1.5c4.3,8.5,2.9,9.7,6.1,13.9C-139.3,403.1-140.2,407.5-141.7,407z"/>
<path fill="#F0D0B3" d="M-114.3,383.3c-0.5-0.1-0.6-0.1-1.2,0.3c-0.6,0.4-1.2,0.9-1.8,1.3c0.4,1,0.4,1.2,1,0.6
c0.4-0.4,0.6-0.8,0.4-1.4c-0.2-0.6-1-0.6-1.5-0.5c-1.1,0.2-2.5-0.3-3,0.8c-0.5,1.2-0.9,1.8-1.6,2.9c-0.5,0.8-0.4,2.5-0.8,3.3
c-0.6,1.1-1,1.3-1.5,1.5c-0.4,0.2-0.4,0.8-0.5,1.2c-0.1,0.7,0.1,1.3,0.4,1.9c0.5,1.1,0.6,1.4,1.3,2.4c0.2,0.3,0.4,0.5,0.6,0.8
c1.7-1.3,3.5-2.5,5.3-3.7c1.1-0.7,2.2-1.4,3.3-2.2c0.5-0.3,1-0.6,1.6-1c0.4-0.3,0.9-0.5,1.2-1c0.1-0.1,0.1-0.5,0.1-0.7
c-0.2-1-1.2-0.3-0.9-0.5c0.7-0.5,0.5-1,0.4-1.4c-0.3-0.9-1.1-0.7-1.5-0.5c0.5-0.3,0.9-0.7,0.8-1.3c-0.1-0.5-0.4-1.1-1-1.1
c-0.3,0-0.7,0.1-1,0.3c0.1-0.3,0.5-0.3,0.6-0.6C-113.1,383.4-114.1,383.3-114.3,383.3z"/>
<path fill="#FFF4F0" d="M-110.4,408.1l0.2,0.3c0.3,0.2,0.9,0.3,1.2,0c0.3-0.3-0.9-0.8-0.9-0.8C-110.1,407.6-110.5,407.8-110.4,408.1
z"/>
<path fill="#FFF4F0" d="M-110.1,410.4l-0.4,0c-0.2,0-0.4-0.2-0.4-0.5c0-0.3,0.2-0.4,0.4-0.4l0.5,0.1
C-109.9,409.7-109.9,410.2-110.1,410.4z"/>
<path fill="#FFF4F0" d="M-111.3,412.2l-0.4,0c-0.2,0-0.4-0.3-0.3-0.5c0-0.3,0.2-0.4,0.4-0.4l0.5,0.1
C-111.1,411.5-111.1,412.1-111.3,412.2z"/>
<path fill="#FFF4F0" d="M-111.3,414.1l-0.4-0.1c-0.2-0.1-0.3-0.3-0.3-0.5c0.1-0.2,0.3-0.4,0.5-0.3l0.4,0.2
C-111,413.5-111.1,414-111.3,414.1z"/>
<path fill="#FFF4F0" d="M-111.6,415.7l-0.3-0.1c-0.1,0-0.2-0.2-0.1-0.3c0-0.1,0.2-0.2,0.3-0.2l0.3,0.2
C-111.4,415.4-111.5,415.7-111.6,415.7z"/>
</svg>
