<svg version="1.1" xmlns="http://www.w3.org/2000/svg" xmlns:xlink="http://www.w3.org/1999/xlink"
 width="160px" height="160px" viewBox="-219 321 160 160">
<path fill="#577482" d="M-75.1,366.7c-1.1-11.8-11-21.1-23.1-21.1c-12.1,0-22,9.3-23.1,21.1h-0.1v69.6c0,12.8,10.4,23.2,23.2,23.2
c12.8,0,23.2-10.4,23.2-23.2h0v-69.6H-75.1z"/>
<path fill="#FDE4DB" d="M-79.3,362.4c-1.1-11.8-11-21.1-23.1-21.1c-12.1,0-22,9.3-23.1,21.1h-0.1V432c0,12.8,10.4,23.2,23.2,23.2
c12.8,0,23.2-10.4,23.2-23.2h0v-69.6H-79.3z"/>
<path fill="#90A8A0" d="M-79.3,362.4c-1.1-11.8-11-21.1-23.1-21.1c-12.1,0-22,9.3-23.1,21.1h-0.1V432c0,12.8,10.4,23.2,23.2,23.2
c12.8,0,23.2-10.4,23.2-23.2h0v-69.6H-79.3z"/>
<path fill="none" stroke="#E2CEC6" stroke-width="2.3318" d="M-121.4,408.8c4.2-4.2,29.5-4.2,37.9,0"/>
<path fill="none" stroke="#E2CEC6" stroke-width="2.3318" d="M-121.4,399.3c4.2-4.2,29.5-4.2,37.9,0"/>
<path fill="#6BA1B2" d="M-139.4,412.6c0,8.1-14.2,14.8-31.6,14.8c-17.5,0-31.6-6.6-31.6-14.8c0-8.2,14.2-14.8,31.6-14.8
C-153.6,397.9-139.4,404.5-139.4,412.6z"/>
<rect x="-202.7" y="400" fill="#6BA1B2" width="63.2" height="12.6"/>
<path fill="#67BDE0" d="M-139.4,400c0,8.1-14.2,14.8-31.6,14.8c-17.5,0-31.6-6.6-31.6-14.8c0-8.2,14.2-14.8,31.6-14.8
C-153.6,385.2-139.4,391.8-139.4,400z"/>
<path fill="none" stroke="#C4D6E5" stroke-width="2.3318" d="M-194.2,400c8.4-4.2,37.9-4.2,50.6,0"/>
</svg>
