<svg version="1.1" xmlns="http://www.w3.org/2000/svg" xmlns:xlink="http://www.w3.org/1999/xlink"
 width="160px" height="160px" viewBox="-219 321 160 160">
<path fill="#f0d0b3" d="M-131.2,409c-6.2-3.7-9.1-14.6-8.4-19.2c0.3-2.2,1.7-4.4,3.8-5.3c4.9-1.9,4.3,2.9,4.4,3.1
c0,0,0.1,0.5,0.3,1.3c2.1,7.1,0.6,10,2.5,13.7C-129.2,408.5-130.2,409.6-131.2,409z"/>
<path fill="#F0D0B3" d="M-134,406.8c2.8,3.7,10.1,8.4,15.2,9.5c2.4,0.5,2.1,1.3,2.9-1.1c0.6-1.7,0.4-2.3,0.2-2.4c0,0-2-1-2.8-1.5
c-5.6-3.8-6.6-4.4-10.1-8.6C-134.9,401-134.7,405.7-134,406.8z"/>
<path fill="#F0D0B3" d="M-101.7,413c0.2,0.8,0.1,1.4-0.3,1.6c-1,0-3.4-0.7-5-0.7c-0.7-0.2,3.2,0.4,4.8,1.5c0.5,0.3,0.2,1.5-0.3,1.5
c-1.5,0.1-4.3-0.9-5-1.1c0.8,0.2,5.1,0.8,4.7,2.2c-0.5,1.9-4.9-1-5.3-0.3c-0.1,0.3,4.1,0.5,3.8,1.7c-0.3,1.4-12.6-2.9-14.2-3.3
c-0.4-1.8,2-4.8,5-5.2c3.6-0.5,6.9-2.6,7.4-2c1,1.5-1.7,2.1-2.2,2.7C-105.7,412.6-101.7,413-101.7,413z"/>
<path fill="#F0D0B3" d="M-113.3,411.1c-1.2,0.1-2.3,0.7-3.1,1.4c0.2,0.2,0.5,0.5,0.8,0.7c2.4,1.7,5.8,1.1,7.5-1.3
c0.5-0.6,3.2-1.3,2.2-2.7C-106.4,408.4-109.7,410.6-113.3,411.1z"/>
<path fill="#FFF4F0" d="M-107.1,410.2l0.3,0c0.3-0.1,0.7-0.6,0.6-0.9c-0.1-0.4-0.5-0.2-0.8-0.1l-0.4,0.3
C-107.5,409.6-107.5,410.1-107.1,410.2z"/>
<path fill="#F09A36" d="M-102.4,412c1.4,2.5,0.2,5.6-2.2,7c-0.2,0.1-0.3,0.6-0.5,0.7c-0.2,0.1-0.5,0.2-0.7,0.3
c-0.2,0.1-0.6-0.3-0.8-0.2c-0.9,0.1-1.7-0.2-2.6-0.3c-0.9-0.1-1.5-0.8-2.2-1.5c-1-1-1.3-2.5-1.3-3.9c0.2-1.3,0.5-2.5,1.5-3.3
c0.2-0.1,0.3-0.2,0.5-0.4c0.3-0.3,0.4-1.1,0.7-1.2c0,0,0.4-0.1,0.4-0.1c0.4-0.1,0.7,0.2,1.1,0.1c1.8-0.4,3.5-0.2,4.9,1.2
C-103.1,410.9-102.7,411.4-102.4,412z"/>
<path fill="#F09A36" d="M-102.4,412c-0.3-0.6-0.7-1.1-1.2-1.6c-1.4-1.4-3.2-1.6-4.9-1.2c-0.4,0.1-0.7-0.2-1.1-0.1
c0,0-0.4,0.1-0.4,0.1c-0.3,0.1-0.4,0.9-0.7,1.2c-0.1,0.1-0.2,0.2-0.3,0.3c-0.2,0.6-0.3,1.2-0.4,1.8c0,1.3,0.3,2.8,1.3,3.9
c0.6,0.7,1.3,1.4,2.2,1.5c0.9,0.1,1.9,0.8,2.9,0.7c0.2,0,1.6-1,1.8-1.1c0.4-0.2,0.7-0.5,1.1-0.8C-101.7,415.1-101.6,413.5-102.4,412
z"/>
<path fill="#A9C690" d="M-113.9,411.4c-0.1,0.2-0.3,0.5-0.3,0.7c-0.1,0.4,0,0.5-0.1,0.9c-0.1,0.3-0.3,0.7-0.4,1c0,0.1,0.1,0.1,0,0.2
c-0.1,0.3-0.2,0.5-0.4,0.8c0.2-0.2,0.4-0.3,0.7-0.4c0.1,0,0,0.1,0.1,0.1c0.2-0.1,0.5-0.3,0.7-0.4c0.1,0,0,0.1,0.2,0.1
c0.1,0,0.4-0.3,0.5-0.3c0.2-0.1,0.2,0.1,0.5,0c0.3-0.1,0.8-0.4,1-0.6c0.5-0.3,0.7-0.9,1-1.4c0.3-0.4,0.3-0.8,0.2-1.1
c-0.3-0.9,0.5-1.1,0.5-1.8c-0.3,0.1-0.6,0.2-0.9,0.2c-0.3,0-0.6-0.1-0.9-0.1c-0.6-0.1-1.1,0.2-1.6,0.7
C-113.4,410.4-113.6,410.9-113.9,411.4z"/>
<path fill="#D2D5A7" d="M-110.1,409.6c-1.9,0.9-3.6,2.4-4.4,4.4C-113.4,412.1-111.5,411-110.1,409.6L-110.1,409.6z"/>
<path fill="#865936" d="M-109.7,409.4c-0.1,0.1-0.4-0.1-0.4-0.1c0-0.3,0.6-0.3,0.7-0.2C-109.4,409.3-109.6,409.4-109.7,409.4z"/>
<path fill="#F0D0B3" d="M-101.7,413c-0.3,0-0.6-0.1-0.9-0.2c-0.2,0-0.5-0.1-0.7-0.1c-0.6,0.1-0.8,0.8-0.1,1.1
c0.6,0.3,0.9,0.6,1.5,0.8C-101.2,414.7-101.3,413.1-101.7,413z"/>
<path fill="#F0D0B3" d="M-102.3,415.3c-0.3,0-0.6-0.1-0.9-0.2c-0.2,0-0.5-0.1-0.7-0.1c-0.6,0.1-0.8,0.8-0.1,1.1
c0.6,0.3,0.9,0.6,1.5,0.8C-101.8,416.9-101.8,415.3-102.3,415.3z"/>
<path fill="#F0D0B3" d="M-103.1,417.2c-0.3,0-0.6-0.1-0.9-0.2c-1.1-0.2-0.9,0.9-0.6,1c0.7,0.2,0.7,0.4,1.3,0.6
C-102.5,418.7-102.6,417.3-103.1,417.2z"/>
<path fill="#F0D0B3" d="M-104.2,418.9c-0.2,0-0.4-0.1-0.6-0.1c-0.2,0-0.2,0-0.3-0.1c-0.4,0.1-0.4,0.6,0,0.9c0.4,0.3,0.3,0.2,0.7,0.3
C-103.9,419.9-103.7,419.1-104.2,418.9z"/>
<path fill="#FFF4F0" d="M-104.9,418.9l-0.2-0.1c-0.1,0-0.2,0.1-0.2,0.2c0,0.1,0.1,0.2,0.2,0.2l0.3,0
C-104.8,419.2-104.7,418.9-104.9,418.9z"/>
<path fill="#FFF4F0" d="M-103.8,417.3l-0.4-0.1c-0.2,0-0.3,0.1-0.4,0.3c0,0.2,0.1,0.3,0.3,0.4l0.4,0
C-103.7,417.9-103.6,417.5-103.8,417.3z"/>
<path fill="#FFF4F0" d="M-103.2,415.3l-0.5-0.1c-0.2,0-0.4,0.1-0.4,0.3c0,0.2,0.2,0.4,0.4,0.5l0.5,0
C-103.1,416-103,415.5-103.2,415.3z"/>
<path fill="#FFF4F0" d="M-102.8,413l-0.4-0.1c-0.2,0-0.4,0.1-0.4,0.3c0,0.2,0.1,0.4,0.3,0.4l0.4,0
C-102.7,413.5-102.6,413.1-102.8,413z"/>
<path fill="#577482" d="M-163.7,364.3c-0.7,1.4-0.2,3.2,1.1,3.9l4.2,2.2c1.4,0.7,3.1,0.1,3.8-1.3l2.7-5.2c0.7-1.4,0.2-3.2-1.1-3.9
l-4.2-2.2c-1.4-0.7-3.1-0.1-3.8,1.3L-163.7,364.3z"/>
<path fill="#F0D0B3" d="M-157.8,364.1c-1.5-7,4.2-13.6,11.1-14.4c6.9-0.8,13.2,4.4,14,11.5c0.8,7.1-3.5,16.4-10.4,17.1
C-151.9,379.2-155.4,375.3-157.8,364.1z"/>
<path fill="#808184" d="M-145.5,365.1c-0.5-0.4-0.3-1,0.4-1.3c0.6-0.3,1.5-0.2,2,0.2c0.5,0.4,0.3,1-0.4,1.3
C-144.1,365.6-145,365.5-145.5,365.1z"/>
<path fill="#808184" d="M-134.9,365.4c-0.3-0.4-0.2-0.8,0.2-1.1c0.4-0.2,1-0.1,1.3,0.2c0.3,0.4,0.2,0.8-0.2,1.1
C-134,365.8-134.6,365.7-134.9,365.4z"/>
<path fill="#A299A7" d="M-168.4,456.5c3.7,3,8.3,3.8,12.7,5.7c0.6,0.2,1.3,0.4,1.9,0.5c8.6,2.4,33.1-2.2,33.1-2.2s-1.4-2.7-2.9-6.1
c-0.7-1.7-1.5-3.6-2-5.4c-3.9-15.5-7.4-31.6-2.9-47.8c0.5-2-1-4.5-1.3-6.6c-0.2-0.8-0.9-2.9-1.1-3.6c-1.3-4.9-2.5-8.7-8.3-9.4
c-1.2-0.2-16.3-0.6-16.4,0.4c0,0-1.2,2.1-0.8,5.7c1.3,6.4,1.5,12.9,0.9,19.3c-0.1,1.6-0.3,3.2-0.6,4.8c-0.7,8.2-3.7,15.8-6.1,23.4
c-0.4,1.7-0.9,3.4-1.3,5.1c-1.3,5.1-2.8,10.2-4.7,15C-168.3,456-168.4,456.5-168.4,456.5z"/>
<path fill="none" d="M-153.2,381.5c-4.8,1.3-3.2,6.2-5.1,9.5"/>
<path fill="#577482" d="M-157.8,364.1c-1.9-6.9,4.2-13.6,11.1-14.4c6.9-0.8,13.2,4.4,14,11.5C-132.6,361.2-150.4,357.3-157.8,364.1z
"/>
<path fill="#808184" d="M-138.5,365.8c1.5,1.1,1,3.3,2.1,4.3c-1.6-0.5-1.6-2.1-1.8-3.6C-138.5,366.1-138.6,365.8-138.5,365.8z"/>
<polygon fill="#577482" points="-165,354.5 -164.1,353.8 -157.8,375.3 "/>
<polygon fill="#577482" points="-159.8,353.8 -158.8,353.8 -161,373.7 "/>
<polygon fill="#808184" points="-137.4,371 -136.5,370.1 -139.1,370.7 "/>
<path fill="#F0D0B3" d="M-139.1,381.6c0.5,0.1,0.9,0.1,1.3,0.2c0.3,1.4,1.1,3.3,1,8.2c-0.1,6.1-3.6-5.7-11.4-8.7
C-144.2,381.4-139.7,381.6-139.1,381.6z"/>
<path fill="#F0D0B3" d="M-149.4,410.7c-5.2-3.1-7.4-11.4-8-17.8c-0.2-2.3-0.1-3.8-0.3-5.9c-0.2-2.5,0.5-3.7,3-4.7
c5.7-2.3,5,3.3,5.1,3.6c-0.1,1.2,0.1,2.8,0.3,3.7c1.5,8.1,1.1,6.8,3.2,11.2C-146.7,407.7-148.2,411.5-149.4,410.7z"/>
<path fill="#F0D0B3" d="M-126.9,374.1c-1.8,2.1-2.8,4-4.7,6c-0.3-0.8,0.3-3.6-1.5-3.4c-0.8,0.1-0.4,4.3-1.7,7.9
c-1.1,3,0.6,6.8,2.5,7.3c1.1-1.3,11.1-10.8,9.9-11.8c-1-0.9-3.3,3-3.5,2.8c-0.5-0.7,3.8-3.8,2.8-4.8c-1.1-1.2-4.1,2.6-4.4,3.4
c0.7-2,5.2-5.2,4-6.3c-1.2-1.1-6.3,5.5-5.6,4.9C-128,377.9-123.5,373.6-126.9,374.1"/>
<path fill="#FFF4F0" d="M-132.6,378.3l0.2-0.3c0-0.4-0.2-1-0.6-1c-0.4,0-0.5,0.4-0.5,0.8l0.1,0.5
C-133.4,378.4-132.9,378.6-132.6,378.3z"/>
<path fill="#F0D0B3" d="M-142.9,411.3c4.4-3.4,9.9-12.1,11.2-18.2c0.6-2.8,1.5-2.5-1.3-3.5c-2-0.7-2.7-0.4-2.9-0.2
c0,0-1.1,2.5-1.7,3.4c-4.6,6.7-8,7.9-13,12.2C-152.6,412.4-144.1,412.2-142.9,411.3z"/>
<path fill="#F09A36" d="M-132.5,371c1.1,1.5,3.5,4.4,6.1,7.1c0.7,0.8,1.4,1.5,2,2.1c0.4,0.4,0.7,0.8,1,1.1c0,0,0,0,0,0c0,0,0,0,0,0
c-0.6,0-1.2-0.2-1.9-0.4c-1-0.3-2-0.7-2.9-1.3C-131.6,377.8-133.1,374.1-132.5,371z"/>
<path fill="#F09A36" d="M-133.3,377.3c-0.2-1.5-0.8-2.3-0.1-3.6c0.1-0.2,0.3-0.4,0.4-0.6c0.3-0.5,0-1.4,0.3-1.6c0,0,0.2-0.1,0.3-0.2
c-0.5,3,1,6.6,4.4,8.5c0.9,0.6,1.9,1,2.9,1.3c0.7,0.2,1.3,0.3,1.9,0.4c-0.1,0-0.1,0.1-0.2,0.1c-0.2,0.2-1,0.4-1.3,0.5
c-0.5,0.1-1.1-0.1-1.6-0.1c-0.9-0.1-1.1-0.2-1.9-0.4c-0.8-0.2-1.2-0.4-1.9-0.8C-131.7,379.8-132.9,378.8-133.3,377.3z"/>
<path fill="#F09A36" d="M-133,375.6c-0.1-0.7-0.3-1.4-0.3-2.2c0.1-0.1,0.2-0.3,0.2-0.4c0.3-0.5,0-1.4,0.3-1.6c0,0,0.2-0.1,0.3-0.2
c-0.5,3,1,6.6,4.4,8.5c0.2,0.1,0.5,0.3,0.7,0.4c-0.8,0-1.7-0.4-2.5-0.8C-131.5,378.6-132.5,377.1-133,375.6z"/>
<path fill="#865936" d="M-132.5,371.5c-0.1,0-0.3,0-0.3,0c-0.1-0.2,0.2-0.4,0.4-0.5C-132.5,371.2-132.5,371.4-132.5,371.5z"/>
<path fill="#f0d0b3" d="M-126.8,379.1c0,0.2,0.3,0.3,0.3,0.1c0-0.3-0.1-0.4-0.2-0.6c0-0.1-0.1,0.1-0.1,0.2
C-126.8,378.9-126.8,379.1-126.8,379.1z"/>
<path fill="#f0d0b3" d="M-128.7,377.8c-0.1,0.2,0,0.3,0.2,0.2c0.2-0.1,0.2-0.3,0.2-0.5c0-0.1-0.1,0-0.2,0.1
C-128.6,377.7-128.7,377.8-128.7,377.8z"/>
<path fill="#f0d0b3" d="M-130.9,374c-0.2-0.1-0.3,0.1-0.1,0.2c0.2,0.1,0.3,0.1,0.5,0.1c0.1,0,0-0.1-0.1-0.1
C-130.8,374-130.9,374-130.9,374z"/>
<path fill="#f0d0b3" d="M-130.2,376c-0.2,0.1-0.2,0.2,0,0.2c0.2,0,0.3-0.1,0.4-0.2c0,0-0.1-0.1-0.2-0.1
C-130,375.9-130.1,375.9-130.2,376z"/>
<path fill="none" d="M-130.1,377.4c0.4-0.1,0.7-0.2,1.1-0.3c0.2-0.1,0.5-0.1,0.7-0.2c0.1,0,0.2-0.1,0.3-0.1c0.2,0,0.2,0.3,0.1,0.5
c-0.1,0.2-0.1,0.4-0.1,0.7c-0.1,0.3-0.1,0.7-0.2,1c0,0.2-0.2,0.1-0.3,0.1c-0.7-0.5-1.2-1-1.7-1.5
C-130.2,377.5-130.3,377.4-130.1,377.4z"/>
<path fill="none" d="M-130.9,375.1c0.7,0.4,1.3,0.7,2,1.1c0.2,0.1,0.4,0.2,0.6,0.3c0.4,0.2,0.1,0.3-0.2,0.4
c-0.6,0.1-1.1,0.3-1.7,0.4c-0.2,0-0.3,0-0.4-0.1c-0.1-0.2-0.3-0.4-0.4-0.6c-0.1-0.1-0.2-0.3-0.3-0.4c-0.2-0.3-0.3-0.6-0.5-0.9
c-0.1-0.2-0.3-0.4-0.2-0.7C-131.5,374.6-131.2,374.9-130.9,375.1z"/>
<path fill="none" d="M-127.7,376.7c-0.1-0.1-0.3-0.2-0.4-0.2c-0.3-0.2-0.6-0.3-0.9-0.5c-0.4-0.2-0.7-0.4-1.1-0.6
c-0.4-0.2-0.7-0.4-1.1-0.6c-0.1-0.1-0.3-0.2-0.4-0.2c-0.2-0.1-0.4-0.2-0.5-0.4c-0.1-0.2-0.1-0.4-0.1-0.6c-0.1-0.4-0.1-0.7-0.1-1.1
c0-0.2,0-0.4,0-0.6c0-0.1,0-0.2,0-0.3c0,0,0-0.2,0-0.3C-131.4,372.5-129.6,374.5-127.7,376.7C-127.7,376.7-127.7,376.7-127.7,376.7z
"/>
<path fill="#f0d0b3" d="M-132.5,371c-0.6,3.1,0.8,6.7,4.3,8.7c0.9,0.6,1.9,1,2.9,1.3c0.7,0.2,1.3,0.3,1.9,0.4
c-0.1-0.1-0.2-0.2-0.3-0.3c-0.4-0.1-0.8-0.2-1.2-0.3c-1-0.3-2-0.7-2.9-1.3c-0.2-0.1-0.3-0.2-0.3-0.4c0-0.2,0.1-0.3,0.1-0.5
c0.1-0.4,0.2-0.8,0.2-1.2c0-0.2,0-0.4,0.2-0.4c0,0,0,0,0.1,0c-0.1-0.1-0.2-0.2-0.3-0.3c0,0,0,0,0,0c-0.1-0.1-0.3-0.2-0.4-0.2
c-0.3-0.2-0.6-0.3-0.9-0.5c-0.4-0.2-0.7-0.4-1.1-0.6c-0.4-0.2-0.7-0.4-1.1-0.6c-0.1-0.1-0.3-0.2-0.4-0.2c-0.2-0.1-0.4-0.2-0.5-0.4
c-0.1-0.2-0.1-0.4-0.1-0.6c-0.1-0.4-0.1-0.7-0.1-1.1c0-0.2,0-0.4,0-0.6c0-0.1,0-0.2,0-0.3c0,0,0-0.2,0-0.3
C-132.4,371.2-132.4,371.1-132.5,371z M-130.1,377.4c0.4-0.1,0.7-0.2,1.1-0.3c0.2-0.1,0.5-0.1,0.7-0.2c0.1,0,0.2-0.1,0.3-0.1
c0.2,0,0.2,0.3,0.1,0.5c-0.1,0.2-0.1,0.4-0.1,0.7c-0.1,0.3-0.1,0.7-0.2,1c0,0.2-0.2,0.1-0.3,0.1c-0.7-0.5-1.2-1-1.7-1.5
C-130.2,377.5-130.3,377.4-130.1,377.4z M-131.9,374.5c0.4,0,0.7,0.3,1,0.5c0.7,0.4,1.3,0.7,2,1.1c0.2,0.1,0.4,0.2,0.6,0.3
c0.4,0.2,0.1,0.3-0.2,0.4c-0.6,0.1-1.1,0.3-1.7,0.4c-0.2,0-0.3,0-0.4-0.1c-0.1-0.2-0.3-0.4-0.4-0.6c-0.1-0.1-0.2-0.3-0.3-0.4
c-0.2-0.3-0.3-0.6-0.5-0.9C-131.8,375-131.9,374.8-131.9,374.5z"/>
<path fill="#F09A36" d="M-132.3,371.2c-0.1-0.1-0.1-0.1-0.1-0.2C-132.4,371.1-132.4,371.2-132.3,371.2L-132.3,371.2z"/>
<path fill="#F0D0B3" d="M-126.9,374.1c-1.8,2.1-2.8,4-4.7,6c-0.3-0.8-1.9,0.9-3.2,4.5c-1.1,3,0.6,6.8,2.5,7.3
c1.1-1.3,11.1-10.8,9.9-11.8c-1-0.9-3.3,3-3.5,2.8c-0.5-0.7,3.8-3.8,2.8-4.8c-1.1-1.2-4.1,2.6-4.4,3.4c0.7-2,5.2-5.2,4-6.3
c-1.2-1.1-6.3,5.5-5.6,4.9C-128,377.9-123.5,373.6-126.9,374.1"/>
</svg>
