<svg version="1.1" xmlns="http://www.w3.org/2000/svg" xmlns:xlink="http://www.w3.org/1999/xlink"
 width="160px" height="160px" viewBox="-219 321 160 160">
<polygon fill="#EC1C24" points="-125.3,370 -133.9,371.4 -133.9,371.4 -165.9,435.5 "/>
<polygon fill="#F28D49" points="-112.9,387.3 -113.9,378.6 -114,378.6 -165.9,435.5 "/>
<polygon fill="#EC1C24" points="-114,378.6 -122.7,378.4 -122.7,378.4 -165.9,435.5 "/>
<polygon fill="#F28D49" points="-122.7,378.4 -125.3,370 -125.3,370 -165.9,435.5 "/>
<polygon fill="#F28D49" points="-146.3,366.7 -151.7,359.8 -151.7,359.8 -165.9,435.5 "/>
<polygon fill="#EC1C24" points="-138,363.7 -146.3,366.7 -146.3,366.7 -165.9,435.5 "/>
<polygon fill="#F28D49" points="-133.9,371.4 -138,363.7 -138,363.7 -165.9,435.5 "/>
<polygon fill="#F28D49" points="-99.1,409.6 -96.9,401.2 -96.9,401.2 -165.9,435.5 "/>
<polygon fill="#EC1C24" points="-89.2,428.4 -95.5,422.4 -95.5,422.3 -165.9,435.5 "/>
<polygon fill="#EC1C24" points="-104.4,389.1 -112.9,387.3 -112.9,387.3 -165.9,435.5 "/>
<polygon fill="#F28D49" points="-95.5,422.3 -91.7,414.4 -91.8,414.4 -165.9,435.5 "/>
<polygon fill="#F28D49" points="-94.2,435.5 -89.1,428.4 -89.2,428.4 -165.9,435.5 "/>
<polygon fill="#F28D49" points="-105,397.8 -104.4,389.1 -104.4,389.1 -165.9,435.5 "/>
<polygon fill="#EC1C24" points="-91.8,414.4 -99.1,409.7 -99.1,409.6 -165.9,435.5 "/>
<polygon fill="#EC1C24" points="-96.9,401.2 -105,397.8 -105,397.8 -165.9,435.5 "/>
<polygon fill="#EC1C24" points="-151.7,359.8 -159.3,364.2 -159.3,364.2 -165.9,435.5 "/>
<polygon fill="#F28D49" points="-159.3,364.2 -165.9,358.5 -165.9,358.5 -165.9,435.5 "/>
<polygon fill="#EC1C24" points="-94.2,435.5 -165.9,435.5 -89.2,442.6 -94.3,435.5 "/>
<rect x="-168.1" y="355.9" fill="#E4B885" width="4.4" height="92.1"/>
<polygon fill="#E4B885" points="-86.8,445.3 -86.4,440.9 -178,432.2 -178.4,436.5 "/>
</svg>
