<svg version="1.1" xmlns="http://www.w3.org/2000/svg" xmlns:xlink="http://www.w3.org/1999/xlink"
 width="160px" height="160px" viewBox="-219 321 160 160">
<path fill="#A36C35" d="M-167.9,421.3c0-0.9,1.2-1.6,2.6-1.6c1.5,0,2.6,0.7,2.6,1.6c0,0.2,0,0.7,0,0.9c0,0.9-1.2,1.6-2.6,1.6
c-1.5,0-2.6-0.7-2.6-1.6C-167.9,422.1-167.9,421.5-167.9,421.3z"/>
<path fill="#C08041" d="M-167.4,416.1c0-0.7,1-1.3,2.2-1.3c1.2,0,2.2,0.6,2.2,1.3c0,0.1,0.5,5.1,0.5,5.3c0,0.9-1.2,1.6-2.6,1.6
c-1.5,0-2.6-0.7-2.6-1.6C-167.9,421.2-167.4,416.2-167.4,416.1z"/>
<path fill="#A36C35" d="M-167.9,415.8c0-0.9,1.1-1.7,2.6-1.8c1.5-0.1,2.7,0.6,2.7,1.5c0,0.2,0,0.7,0,0.9c0,0.9-1.1,1.7-2.6,1.8
c-1.5,0.1-2.7-0.6-2.7-1.5C-167.9,416.6-167.9,416-167.9,415.8z"/>
<path fill="#C08041" d="M-167.5,410.5c0-0.7,0.9-1.4,2.1-1.5c1.2-0.1,2.2,0.5,2.2,1.2c0,0.1,0.6,5.1,0.6,5.2c0,0.9-1.1,1.7-2.6,1.8
c-1.5,0.1-2.7-0.6-2.7-1.5C-167.9,415.7-167.5,410.7-167.5,410.5z"/>
<path fill="#A36C35" d="M-168.1,410.7c-0.1-0.9,1.1-1.8,2.5-2c1.5-0.2,2.7,0.4,2.7,1.3c0,0.2,0,0.7,0.1,0.9c0.1,0.9-1.1,1.8-2.5,2
c-1.5,0.2-2.7-0.4-2.7-1.3C-168,411.4-168.1,410.9-168.1,410.7z"/>
<path fill="#C08041" d="M-167.9,405.4c0-0.7,0.9-1.5,2.1-1.6c1.2-0.1,2.2,0.3,2.2,1.1c0,0.1,0.8,5,0.8,5.2c0.1,0.9-1.1,1.8-2.5,2
c-1.5,0.2-2.7-0.4-2.7-1.3C-168.1,410.6-167.9,405.5-167.9,405.4z"/>
<path fill="#A36C35" d="M-168.4,405.3c-0.1-0.9,1-1.9,2.5-2.1c1.4-0.3,2.7,0.2,2.8,1.1c0,0.2,0.1,0.7,0.1,0.9c0.1,0.9-1,1.9-2.5,2.1
c-1.4,0.3-2.7-0.2-2.8-1.1C-168.4,406-168.4,405.4-168.4,405.3z"/>
<path fill="#C08041" d="M-168.4,400c-0.1-0.7,0.8-1.5,2-1.8c1.2-0.2,2.2,0.2,2.3,0.9c0,0.1,0.9,5,0.9,5.1c0.1,0.9-1,1.9-2.5,2.1
c-1.4,0.3-2.7-0.2-2.8-1.1C-168.4,405.1-168.4,400.1-168.4,400z"/>
<path fill="#A36C35" d="M-169,400.2c-0.1-0.9,1-1.9,2.4-2.3c1.4-0.4,2.7,0,2.8,0.9c0,0.2,0.1,0.7,0.1,0.9c0.1,0.9-1,1.9-2.4,2.3
c-1.4,0.4-2.7,0-2.8-0.9C-168.9,400.9-168.9,400.4-169,400.2z"/>
<path fill="#C08041" d="M-169.1,394.9c-0.1-0.7,0.8-1.6,2-1.9c1.2-0.3,2.2,0,2.3,0.8c0,0.1,1.1,4.9,1.1,5c0.1,0.9-1,1.9-2.4,2.3
c-1.4,0.4-2.7,0-2.8-0.9C-169,400.1-169.1,395-169.1,394.9z"/>
<path fill="#A36C35" d="M-169.7,394.9c-0.1-0.9,0.9-2,2.3-2.5c1.4-0.5,2.7-0.2,2.8,0.6c0,0.2,0.1,0.7,0.1,0.9c0.1,0.9-0.9,2-2.3,2.5
c-1.4,0.5-2.7,0.2-2.8-0.6C-169.6,395.7-169.7,395.1-169.7,394.9z"/>
<path fill="#C08041" d="M-170.1,389.7c-0.1-0.7,0.7-1.7,1.9-2.1c1.2-0.4,2.2-0.2,2.3,0.5c0,0.1,1.3,4.8,1.3,4.9
c0.1,0.9-0.9,2-2.3,2.5c-1.4,0.5-2.7,0.2-2.8-0.6C-169.7,394.8-170.1,389.8-170.1,389.7z"/>
<path fill="#A36C35" d="M-170.4,388.8c0-0.8,1-1.7,2.4-1.8c1.4-0.2,2.5,0.4,2.6,1.3c0,0.1,0,0.7,0,0.8c0,0.8-1,1.7-2.4,1.8
c-1.4,0.2-2.5-0.4-2.6-1.3C-170.3,389.5-170.4,388.9-170.4,388.8z"/>
<path fill="#C08041" d="M-170.2,383.8c0-0.7,0.9-1.4,2-1.5c1.1-0.1,2.1,0.3,2.1,1c0,0.1,0.7,4.7,0.7,4.9c0,0.8-1,1.7-2.4,1.8
c-1.4,0.2-2.5-0.4-2.6-1.3C-170.4,388.7-170.2,383.9-170.2,383.8z"/>
<path fill="#A36C35" d="M-170.4,382.9c0-0.8,1.2-1.4,2.6-1.3c1.4,0.1,2.5,1,2.4,1.8c0,0.1,0,0.7,0,0.8c0,0.8-1.2,1.4-2.6,1.3
c-1.4-0.1-2.5-1-2.4-1.8C-170.4,383.6-170.4,383.1-170.4,382.9z"/>
<path fill="#C08041" d="M-169.7,378.1c0-0.7,1-1.2,2.1-1c1.1,0.1,2,0.8,2,1.5c0,0.1,0.2,4.8,0.2,5c0,0.8-1.2,1.4-2.6,1.3
c-1.4-0.1-2.5-1-2.4-1.8C-170.4,382.8-169.7,378.2-169.7,378.1z"/>
<path fill="#A36C35" d="M-169.7,376.9c0.1-0.7,1.2-1.1,2.4-0.7c1.2,0.4,2.1,1.2,2,2c0,0.1-0.1,0.6-0.1,0.7c-0.1,0.7-1.2,1.1-2.4,0.7
c-1.2-0.4-2.1-1.2-2-2C-169.7,377.5-169.7,377-169.7,376.9z"/>
<path fill="#C08041" d="M-168.7,372.7c0.1-0.6,1-0.9,2-0.6c1,0.3,1.7,1,1.7,1.6c0,0.1-0.2,4.3-0.2,4.5c-0.1,0.7-1.2,1.1-2.4,0.7
c-1.2-0.4-2.1-1.2-2-2C-169.6,376.8-168.7,372.8-168.7,372.7z"/>
<path fill="#A36C35" d="M-168.2,371c0.2-0.6,1.2-0.5,2.1,0.2c1,0.7,1.6,1.8,1.4,2.4c0,0.1-0.2,0.5-0.2,0.6c-0.2,0.6-1.2,0.5-2.1-0.2
c-1-0.7-1.6-1.8-1.4-2.4C-168.4,371.5-168.3,371.1-168.2,371z"/>
<path fill="#C08041" d="M-166.8,367.7c0.2-0.5,1-0.4,1.8,0.1c0.8,0.6,1.3,1.5,1.2,2c0,0.1-0.8,3.7-0.8,3.8c-0.2,0.6-1.2,0.5-2.1-0.2
c-1-0.7-1.6-1.8-1.4-2.4C-168.2,370.9-166.8,367.8-166.8,367.7z"/>
<path fill="#A36C35" d="M-166,366.3c0.3-0.4,1.1,0,1.8,1c0.7,1,1.1,2.2,0.8,2.6c0,0.1-0.2,0.4-0.3,0.4c-0.3,0.4-1.1,0-1.8-1
c-0.7-1-1.1-2.2-0.8-2.6C-166.2,366.7-166.1,366.4-166,366.3z"/>
<path fill="#C08041" d="M-164.1,364.1c0.2-0.4,0.9,0,1.5,0.8c0.6,0.8,0.9,1.8,0.7,2.2c0,0.1-1.4,2.8-1.4,2.9c-0.3,0.4-1.1,0-1.8-1
c-0.7-1-1.1-2.2-0.8-2.6C-166,366.3-164.2,364.1-164.1,364.1z"/>
<path fill="#A9C690" d="M-151.4,388c-6.3-2.7-5-10.7-4.2-15.5c0.8-4.9,0.6-8.1-0.8-10.1c-1-1.4-4.6-2-6.1-1c2.4,0.4,2.8,5,3.2,10.5
C-158.9,376.7-157.9,385.2-151.4,388z"/>
<path fill="#A9C690" d="M-133.3,366.5c-5,4.7-11.8,0.3-15.9-2.4c-4.1-2.7-7.2-3.8-9.6-3.3c-1.7,0.4-3.7,3.4-3.4,5.1
c1.3-2.1,5.7-0.5,10.9,1.3C-146.5,368.8-138.4,371.4-133.3,366.5z"/>
<path fill="#A9C690" d="M-188,358.9c2.8,6.3,9.5,2.6,14.3,1.8c4.8-0.9,8.1-0.7,10.1,0.7c1.4,1,3.4,4.6,2.4,6
c-0.4-2.4-5.1-0.3-10.6-0.7C-176.6,366.4-185.2,365.3-188,358.9z"/>
<path fill="#A9C690" d="M-183.3,339.1c-1.3,8.9,8.5,12.8,14.5,15.2c6,2.4,9.5,4.8,10.7,7.7c0.9,2.1-0.9,6.6-3,7.4
c1.2-3-3.7-6.5-9.5-10.7C-175.8,355.1-184.6,348.2-183.3,339.1z"/>
<path fill="#A9C690" d="M-138.7,378c-6.7,1.5-10.3-5.8-12.4-10.2c-2.1-4.4-4.2-7-6.5-7.8c-1.6-0.6-5,1-5.5,2.7
c2.2-1.1,5.2,2.5,8.7,6.7C-151.2,373.1-145.5,379.5-138.7,378z"/>
<path fill="#A9C690" d="M-160.5,390.1c-5.4-4.3-1.9-11.6,0.2-16.1c2.1-4.4,2.8-7.6,2-9.9c-0.6-1.6-3.9-3.2-5.6-2.6
c2.2,1,1.3,5.6,0.2,11C-164.6,377.3-166,385.7-160.5,390.1z"/>
<path fill="#A9C690" d="M-183.8,371.2c6.1,3.2,11.4-2.9,14.6-6.6c3.2-3.7,5.9-5.4,8.3-5.8c2.8-0.5,5.3,0.9,5.5,2.6
c-1.9-1.6-6.5,2.5-11,5.6C-170.4,369.8-177.6,374.4-183.8,371.2z"/>
<path fill="#B8FFFD" d="M-83.9,431.5c0,5.5-21.2,12.8-47.4,12.8s-47.8-4.5-47.8-10C-179.2,428.8-83.9,426-83.9,431.5z"/>
<ellipse fill="#F7D992" cx="-121.8" cy="431.5" rx="37.8" ry="6"/>
<ellipse fill="#F7D992" cx="-157.8" cy="433.5" rx="28.2" ry="6"/>
<path fill="#F7D992" d="M-129.8,427.7c3,0,5.7-0.4,8.5,0.2c1,0,1.9,0.1,2.9,0.1c4.8,0.2,9.6,0.2,14.3-0.3
c-3.5-16.8-12.1-11.9-17.7-12.5c-0.9-0.1-9.1-3-15.2-6c-5.7-2.8-12.4-4.8-18.1-0.5c-6.6,4.9-13.8,11.4-18.6,19.7
C-158.5,436.5-140.6,428.5-129.8,427.7z"/>
<path fill="#A9C690" d="M-138.4,398.8c1.7,1.1,1.6,4.6,1.5,6.8c-0.1,2.1,0.1,3.5,0.5,4.4c0.3,0.6,1.3,0.9,1.6,0.4
c-0.7-0.2-0.9-2.2-1.1-4.6C-136.2,403.7-136.7,400-138.4,398.8z"/>
<path fill="#A9C690" d="M-155.9,398.1c1.4,1.5,0.4,4.9-0.2,6.9c-0.6,2-0.8,3.5-0.6,4.4c0.1,0.7,1,1.1,1.5,0.8
c-0.6-0.3-0.3-2.3,0-4.7C-154.9,403.3-154.5,399.6-155.9,398.1z"/>
<path fill="#A9C690" d="M-153.9,404.8c-0.8,0.6-0.6,2.2-0.5,3.1c0.1,1,0.1,1.6-0.1,2c-0.1,0.3-0.6,0.4-0.7,0.2
c0.3-0.1,0.3-1,0.4-2.1C-154.8,407.1-154.7,405.4-153.9,404.8z"/>
<path fill="#A9C690" d="M-158.8,415.2c-0.9,0.4-1.1,2-1.2,2.9c-0.1,1-0.3,1.6-0.5,2c-0.2,0.3-0.6,0.3-0.8,0.1c0.3,0,0.6-0.9,0.8-2
C-160.2,417.2-159.7,415.6-158.8,415.2z"/>
<path fill="#A9C690" d="M-156.6,417.2c-0.9-0.1-1.9,1.1-2.5,1.9c-0.6,0.8-1.1,1.2-1.5,1.4c-0.3,0.1-0.7-0.1-0.7-0.3
c0.3,0.1,1-0.5,1.8-1.2C-158.8,418.3-157.5,417.1-156.6,417.2z"/>
<path fill="#A9C690" d="M-163.1,417.1c0.7,0.2,1,1.3,1.2,2c0.2,0.7,0.4,1.1,0.6,1.4c0.2,0.2,0.5,0.1,0.6-0.1c-0.2,0-0.5-0.6-0.9-1.3
C-161.8,418.4-162.4,417.2-163.1,417.1z"/>
</svg>
