<svg version="1.1" xmlns="http://www.w3.org/2000/svg" xmlns:xlink="http://www.w3.org/1999/xlink"
 width="160px" height="160px" viewBox="-219 321 160 160">
<path fill="#F6EAD6" d="M-195,387.6c6.2-16.1,65.4-39.7,68.6-39.7l45.8,71c-3.2,0-52.5,22.1-58.7,38.2L-195,387.6z"/>
<g>
<path fill="#989788" d="M-139.2,432.1c-2.2,0-4.3-1.2-5.4-3.1l-19.2-32.3c-0.9-1.4-1.1-3.1-0.7-4.8s1.4-3,2.9-3.9l32.2-19.2
c1-0.6,2.1-0.9,3.2-0.9c2.2,0,4.3,1.2,5.4,3.1l19.5,30.4c1.3,2,1.7,4.3,1.1,6.6c-0.6,2.4-2.2,4.4-4.5,5.7l-31.4,17.4
C-137,431.8-138.1,432.1-139.2,432.1z M-126.2,371.5c-0.5,0-1,0.1-1.5,0.4l-32.2,19.2c-0.7,0.4-1.1,1-1.3,1.8s-0.1,1.5,0.3,2.2
l19.2,32.3c0.5,0.9,1.4,1.4,2.5,1.4c0.5,0,1-0.1,1.5-0.4l31.5-17.4c1.5-0.8,2.5-2,2.8-3.5c0.3-1.3,0.1-2.7-0.7-3.9l-19.5-30.5
C-124.2,372-125.1,371.5-126.2,371.5z"/>
</g>
<path fill="#26689E" d="M-92.1,346.6l2.2,2.1c-6,6.7-12.1,16.3-18.5,29c-6.4,12.7-10.9,24.2-13.6,34.6l-3.1,3.2
c-2.6,2.7-4.3,4.7-5.2,5.9c-0.7-1.5-2.2-3.8-4.3-7l-2-2.9c-2.9-4.2-5.4-7.2-7.5-9.1c-2.1-1.9-4.3-2.9-6.5-3.2
c2.8-4.4,5.7-6.9,8.6-7.5c2.5-0.5,6,2.4,10.4,8.6l2.2,3.1c3.7-10.4,9-20.9,15.9-31.4C-106.6,361.4-99.5,352.9-92.1,346.6z"/>
</svg>
