<svg version="1.1" xmlns="http://www.w3.org/2000/svg" xmlns:xlink="http://www.w3.org/1999/xlink" width="160px"
  height="160px" viewBox="0 0 160 160" >
  <path fill="#699676" d="M122.31268,64.36371l8.23616-5.17665l-4.69325-2.18786l2.31136-2.26194l-3.78637,0.76217l1.41856-2.79122
    l-3.11237-0.37056l-0.95983-3.04886l-3.63108,1.18919l-3.35943-6.2671c0,0-0.97744,4.14636-2.60071,4.50978
    c-2.86539,0.63877-4.94032-8.02794-4.28042-5.20492c0.65991,2.82302-1.61974,3.15121-3.42285,5.14494
    c-0.62106-2.34306-4.44275-5.89302-3.3841-3.91338c1.05505,1.97964,0.13406,1.83844,0.01762,6.78934
    c-0.42702-1.99373-1.53147-3.04533-5.08495-4.70382c1.97259,1.48206,1.30916,1.84196,2.13845,5.96709
    c-2.33611-1.16796-6.69412,1.04808-4.85559,0.69875c1.83844-0.34933,6.24586,2.68887,8.09497,6.27063L122.31268,64.36371z"/>
  <path fill="#C16558" d="M92.25815,69.78038c6.28824-11.77899,5.51198-12.61533,15.63953-14.82785
    c10.12402-2.21614,16.84985,1.88433,18.97068,4.65442c2.1314,2.75599,1.94431,15.07139-3.64174,26.34585
    c-5.59662,11.2638-8.32786,20.85502-21.80779,27.06213c-13.47993,6.18237-35.62297,7.45629-44.03204,2.37486
    c-8.41612-5.08848-10.10993-11.75784-15.59363-14.82441c-5.47313-3.04887-15.88298-2.64298-11.13326-5.83656
    c4.75324-3.18996,15.92535-6.46819,21.77609-5.7978c5.85065,0.674,14.1609,5.91425,21.41257,5.58253
    c7.25159-0.33171,12.1107-8.75136,14.83498-11.50735C91.41125,80.25382,92.25815,69.78038,92.25815,69.78038z"/>
  <polygon fill="#699676" points="112.11459,53.48104 108.45876,34.595 110.65014,33.64927 112.11106,33.8434 114.26712,36.01003
    114.21771,53.48456"/>
  <path fill="#F9BEB8" d="M105.76275,60.52088c-2.15959,0.10235-6.88112,4.37573-7.84095,9.13601
    c-0.96687,4.76028-1.43969,13.29646-5.30375,15.18432c-3.84988,1.88785,6.24596,8.89246,9.92645-7.63625
    c2.73486-12.26961,1.70791-12.99294,4.10048-14.31275C109.04449,61.57953,107.92938,60.41148,105.76275,60.52088z"/>
  <path fill="#F9BEB8" d="M111.09477,64.61078c0.51872,0.96335,0.1552,2.17368-0.81519,2.69944
    c-0.9704,0.52232-2.17721,0.15881-2.696-0.81863c-0.51872-0.9704-0.16235-2.17729,0.80814-2.70305
    C109.36564,63.27335,110.57597,63.64391,111.09477,64.61078z"/>

</svg>
