<svg xmlns="http://www.w3.org/2000/svg" width="160px" height="160px" viewBox="0 0 160 160">
  <polygon fill="#a4dbdf" points="37.4,51.6 83.2,136.9 120.9,113.9 66.3,34 "/>
  <ellipse transform="matrix(-0.5193 -0.8546 0.8546 -0.5193 42.194 109.3278)" fill="#92c3c5" cx="51.8" cy="42.8" rx="4.1" ry="16.9"/>
  <path fill="#808184" d="M56.4,30.6L39,41.2l1.8,5.6c0.9,1.5,6,0,11.5-3.3c5.4-3.3,9.1-7.2,8.2-8.7L56.4,30.6z"/>
  <ellipse transform="matrix(-0.5193 -0.8546 0.8546 -0.5193 41.718 95.2716)" fill="#808184" cx="47.7" cy="35.9" rx="3.2" ry="10.2"/>
  <path fill="#8cc89c" d="M47.1,19.6c0.7,1.2-1.8,4-5.6,6.3c-3.8,2.3-7.4,3.2-8.2,2c-0.7-1.2,0.9-5.4,4.7-7.7
    C41.9,17.9,46.4,18.4,47.1,19.6z"/>
  <ellipse transform="matrix(-0.5193 -0.8546 0.8546 -0.5193 41.6757 93.9607)" fill="#8cc89c" cx="47.3" cy="35.3" rx="2.5" ry="8"/>
  <rect x="82.2" y="124.8" transform="matrix(-0.8546 0.5193 -0.5193 -0.8546 260.5013 185.3004)" fill="#92c3c5" width="44.2" height="8.7"/>
  <path fill="#ffffff" d="M85.4,137.9l-0.4,0.3l-2.1-3.5l0.4-0.3L85.4,137.9z M84.3,133.8l-0.4,0.3l2.1,3.5l0.4-0.3L84.3,133.8z
     M85.3,133.2l-0.4,0.3L87,137l0.4-0.3L85.3,133.2z M86.4,132.6l-0.4,0.3l2.1,3.5l0.4-0.3L86.4,132.6z M87.4,131.9l-0.4,0.3l2.1,3.5
    l0.4-0.3L87.4,131.9z M88.4,131.3l-0.4,0.3l2.1,3.5l0.4-0.3L88.4,131.3z M89.5,130.7L89,131l2.1,3.5l0.4-0.3L89.5,130.7z
     M90.5,130.1l-0.4,0.3l2.1,3.5l0.4-0.3L90.5,130.1z M91.5,129.4l-0.4,0.3l2.1,3.5l0.4-0.3L91.5,129.4z M92.5,128.8l-0.4,0.3l2.1,3.5
    l0.4-0.3L92.5,128.8z M93.6,128.2l-0.4,0.3l2.1,3.5l0.4-0.3L93.6,128.2z M94.6,127.6l-0.4,0.3l2.1,3.5l0.4-0.3L94.6,127.6z
     M95.6,126.9l-0.4,0.3l2.1,3.5l0.4-0.3L95.6,126.9z M96.6,126.3l-0.4,0.3l2.1,3.5l0.4-0.3L96.6,126.3z M97.7,125.7l-0.4,0.3l2.1,3.5
    l0.4-0.3L97.7,125.7z M98.7,125.1l-0.4,0.3l2.1,3.5l0.4-0.3L98.7,125.1z M99.7,124.5l-0.4,0.3l2.1,3.5l0.4-0.3L99.7,124.5z
     M100.7,123.8l-0.4,0.3l2.1,3.5l0.4-0.3L100.7,123.8z M101.8,123.2l-0.4,0.3l2.1,3.5l0.4-0.3L101.8,123.2z M102.8,122.6l-0.4,0.3
    l2.1,3.5l0.4-0.3L102.8,122.6z M103.8,122l-0.4,0.3l2.1,3.5l0.4-0.3L103.8,122z M104.8,121.3l-0.4,0.3l2.1,3.5l0.4-0.3L104.8,121.3z
     M105.9,120.7l-0.4,0.3l2.1,3.5l0.4-0.3L105.9,120.7z M106.9,120.1l-0.4,0.3l2.1,3.5l0.4-0.3L106.9,120.1z M107.9,119.5l-0.4,0.3
    l2.1,3.5l0.4-0.3L107.9,119.5z M108.9,118.8l-0.4,0.3l2.1,3.5l0.4-0.3L108.9,118.8z M110,118.2l-0.4,0.3l2.1,3.5l0.4-0.3L110,118.2z
     M111,117.6l-0.4,0.3l2.1,3.5l0.4-0.3L111,117.6z M112,117l-0.4,0.3l2.1,3.5l0.4-0.3L112,117z M113.1,116.3l-0.4,0.3l2.1,3.5
    l0.4-0.3L113.1,116.3z M114.1,115.7l-0.4,0.3l2.1,3.5l0.4-0.3L114.1,115.7z M115.1,115.1l-0.4,0.3l2.1,3.5l0.4-0.3L115.1,115.1z
     M116.1,114.5l-0.4,0.3l2.1,3.5l0.4-0.3L116.1,114.5z M117.2,113.8l-0.4,0.3l2.1,3.5l0.4-0.3L117.2,113.8z M118.2,113.2l-0.4,0.3
    l2.1,3.5l0.4-0.3L118.2,113.2z M119.2,112.6l-0.4,0.3l2.1,3.5l0.4-0.3L119.2,112.6z"/>
  <rect x="35.7" y="22.8" transform="matrix(-0.8546 0.5193 -0.5193 -0.8546 96.5081 32.0086)" fill="#8cc89c" width="16.1" height="13.4"/>
  <path fill="#ffffff" d="M41.2,39.2c-0.1,0-0.2-0.1-0.3-0.2l-5.6-9.3c-0.1-0.2,0-0.4,0.1-0.4c0.2-0.1,0.4,0,0.4,0.1l5.6,9.3
    c0.1,0.2,0,0.4-0.1,0.4C41.3,39.1,41.3,39.2,41.2,39.2z"/>
  <path fill="#ffffff" d="M42.7,38.9c-0.1,0-0.2-0.1-0.3-0.2l-5.6-9.3c-0.1-0.2,0-0.4,0.1-0.4c0.2-0.1,0.4,0,0.4,0.1l5.6,9.3
    c0.1,0.2,0,0.4-0.1,0.4C42.8,38.9,42.8,38.9,42.7,38.9z"/>
  <path fill="#ffffff" d="M44.1,38.5c-0.1,0-0.2-0.1-0.3-0.2l-5.6-9.3c-0.1-0.2,0-0.4,0.1-0.4c0.2-0.1,0.4,0,0.4,0.1l5.6,9.3
    c0.1,0.2,0,0.4-0.1,0.4C44.2,38.5,44.1,38.5,44.1,38.5z"/>
  <path fill="#ffffff" d="M45.4,37.9c-0.1,0-0.2-0.1-0.3-0.2l-5.6-9.3c-0.1-0.2,0-0.4,0.1-0.4c0.2-0.1,0.4,0,0.4,0.1l5.6,9.3
    c0.1,0.2,0,0.4-0.1,0.4C45.5,37.9,45.4,37.9,45.4,37.9z"/>
  <path fill="#ffffff" d="M46.7,37.3c-0.1,0-0.2-0.1-0.3-0.2l-5.6-9.3c-0.1-0.2,0-0.4,0.1-0.4c0.2-0.1,0.4,0,0.4,0.1l5.6,9.3
    c0.1,0.2,0,0.4-0.1,0.4C46.8,37.3,46.7,37.3,46.7,37.3z"/>
  <path fill="#ffffff" d="M47.9,36.6c-0.1,0-0.2-0.1-0.3-0.2L42,27.2c-0.1-0.2,0-0.4,0.1-0.4c0.2-0.1,0.4,0,0.4,0.1l5.6,9.3
    c0.1,0.2,0,0.4-0.1,0.4C48,36.6,47.9,36.6,47.9,36.6z"/>
  <path fill="#ffffff" d="M49.1,35.8c-0.1,0-0.2-0.1-0.3-0.2l-5.6-9.3c-0.1-0.2,0-0.4,0.1-0.4c0.2-0.1,0.4,0,0.4,0.1l5.6,9.3
    c0.1,0.2,0,0.4-0.1,0.4C49.2,35.8,49.1,35.8,49.1,35.8z"/>
  <path fill="#ffffff" d="M50.2,35c-0.1,0-0.2-0.1-0.3-0.2l-5.6-9.3c-0.1-0.2,0-0.4,0.1-0.4c0.2-0.1,0.4,0,0.4,0.1l5.6,9.3
    c0.1,0.2,0,0.4-0.1,0.4C50.3,35,50.3,35,50.2,35z"/>
  <path fill="#ffffff" d="M51.3,34.1c-0.1,0-0.2-0.1-0.3-0.2l-5.6-9.3c-0.1-0.2,0-0.4,0.1-0.4c0.2-0.1,0.4,0,0.4,0.1l5.6,9.3
    c0.1,0.2,0,0.4-0.1,0.4C51.4,34.1,51.4,34.1,51.3,34.1z"/>
  <path fill="#ffffff" d="M52.3,33.1c-0.1,0-0.2-0.1-0.3-0.2l-5.6-9.3c-0.1-0.2,0-0.4,0.1-0.4c0.2-0.1,0.4,0,0.4,0.1l5.6,9.3
    c0.1,0.2,0,0.4-0.1,0.4C52.4,33.1,52.4,33.1,52.3,33.1z"/>
  <path fill="#ffffff" d="M53.2,31.8c-0.1,0-0.2-0.1-0.3-0.2l-5.6-9.3c-0.1-0.2,0-0.4,0.1-0.4c0.2-0.1,0.4,0,0.4,0.1l5.6,9.3
    c0.1,0.2,0,0.4-0.1,0.4C53.3,31.8,53.3,31.8,53.2,31.8z"/>
  <path fill="#e1ffe6" d="M60.7,81c-0.6-1.6-0.9-3.5-0.8-5.8l0.1-1.4l0.5,0l-0.5-2l0.7,0.1l-0.4-1.9l0.7,0.2l-0.4-1.8l0.7,0.2
    l-0.4-1.8l0.7,0.2l-0.4-1.8l0.7,0.2l-0.4-1.8l0.7,0.1l-0.4-1.8l0.7,0.1l-0.5-1.8l0.7-0.1c-0.1-0.7-0.2-2.4-0.5-3.1l0.3-0.2
    c0.9,1.1,1.7,1.5,2.3,2.1l0.3-0.6l1.4,1.5l0.2-0.6l1.3,1.4l0.2-0.7l1.3,1.4l0.2-0.7l1.3,1.4c0,0,0.2-0.7,0.2-0.7l1.3,1.4l0.2-0.7
    l1.4,1.4l0.2-0.7l1.4,1.4l0.2-0.7l1.5,1.5l0.2-0.4l1.3,0.7c2.4,1.5,4.1,3.1,5.1,4.8c0.3,0.5,0.5,1,0.7,1.5c2,5.2-0.2,10.2-6.2,13.7
    l2.6,3.4l-2.7,1.5l-1.4-4c-6.9,3.4-12.6,2.1-15.8-3.8C61.1,81.8,60.9,81.4,60.7,81z"/>
  <path fill="#a4dbdf" d="M76.1,83c-1-6.3-9.9-20.2-9.9-20.2c1,1.8,2.7,3.7,4,5.9c3.5,5.7,6.3,10.1,7.2,14C77.4,82.7,76.4,85,76.1,83
    z"/>
</svg>
