<svg version="1.1" xmlns="http://www.w3.org/2000/svg" xmlns:xlink="http://www.w3.org/1999/xlink"
 width="160px" height="160px" viewBox="-219 321 160 160">
<path fill="#CCB57A" d="M-100.6,392.1c0,2.5-8.2,14.4-10.7,14.4h-64.4c-2.5,0-10.8-11.7-10.8-14.2c0,0,8.4-9.1,10.8-9.1h64.4
C-108.8,383.2-100.6,392.1-100.6,392.1z"/>
<path fill="#E1C575" d="M-99,413.4c0,3-2.4,5.4-5.4,5.4h-78.2c-3,0-5.4-2.4-5.4-5.4V396c0-3,2.4-5.4,5.4-5.4h78.2
c3,0,5.4,2.4,5.4,5.4V413.4z"/>
<circle fill="#F0F0F0" cx="-184.3" cy="418.3" r="4.7"/>
<circle fill="#F0F0F0" cx="-197.2" cy="412.5" r="4.7"/>
<circle fill="#F0F0F0" cx="-96.1" cy="416.7" r="5.3"/>
<circle fill="#F0F0F0" cx="-187.8" cy="413.3" r="7.5"/>
<circle fill="#F0F0F0" cx="-179.6" cy="387.1" r="6.2"/>
<circle fill="#F0F0F0" cx="-97.5" cy="405.4" r="8.4"/>
<circle fill="#F0F0F0" cx="-187.8" cy="405.9" r="2.4"/>
<circle fill="#F0F0F0" cx="-189.2" cy="420.3" r="2.4"/>
<circle fill="#F0F0F0" cx="-192.1" cy="418.8" r="2.4"/>
<circle fill="#F0F0F0" cx="-195.7" cy="420.3" r="2.4"/>
<circle fill="#F0F0F0" cx="-195.7" cy="416.7" r="2.4"/>
<circle fill="#F0F0F0" cx="-191.4" cy="406.6" r="2.4"/>
<circle fill="#F0F0F0" cx="-185.6" cy="403" r="2.4"/>
<circle fill="#F0F0F0" cx="-198.1" cy="418.8" r="2.4"/>
<circle fill="#F0F0F0" cx="-200.5" cy="421.5" r="2.4"/>
<circle fill="#F0F0F0" cx="-200.5" cy="417.8" r="2.4"/>
<circle fill="#F0F0F0" cx="-194.5" cy="407.9" r="2.4"/>
<circle fill="#F0F0F0" cx="-201.9" cy="414.2" r="2.4"/>
<circle fill="#F0F0F0" cx="-204.3" cy="419.1" r="2.4"/>
<circle fill="#F0F0F0" cx="-206.7" cy="420.8" r="2.4"/>
<circle fill="#F0F0F0" cx="-185.8" cy="391.1" r="2"/>
<circle fill="#F0F0F0" cx="-183.8" cy="389.1" r="2"/>
<circle fill="#F0F0F0" cx="-173.4" cy="383.7" r="2"/>
<circle fill="#F0F0F0" cx="-173.4" cy="387.1" r="2"/>
<circle fill="#F0F0F0" cx="-171.4" cy="389.1" r="2"/>
<circle fill="#F0F0F0" cx="-110.9" cy="418.1" r="2.7"/>
<circle fill="#F0F0F0" cx="-108.1" cy="415.4" r="2.7"/>
<circle fill="#F0F0F0" cx="-105.4" cy="413.2" r="2.7"/>
<circle fill="#F0F0F0" cx="-107" cy="418.9" r="2.7"/>
<circle fill="#F0F0F0" cx="-102.1" cy="417.3" r="2.7"/>
<circle fill="#F0F0F0" cx="-101.3" cy="414" r="2.7"/>
<circle fill="#F0F0F0" cx="-102.1" cy="410" r="2.7"/>
<circle fill="#F0F0F0" cx="-90" cy="413.2" r="2.7"/>
<circle fill="#F0F0F0" cx="-90" cy="418.1" r="2.7"/>
<circle fill="#F0F0F0" cx="-85.1" cy="418.9" r="2.7"/>
<circle fill="#F0F0F0" cx="-86.7" cy="414.9" r="2.7"/>
<circle fill="#F0F0F0" cx="-88.4" cy="410" r="2.7"/>
<circle fill="#F0F0F0" cx="-82.7" cy="415.7" r="2.7"/>
<circle fill="#F0F0F0" cx="-81.1" cy="419.7" r="2.7"/>
<circle fill="#F0F0F0" cx="-78.6" cy="418.1" r="2.7"/>
<path fill="#CCB57A" d="M-170,403.5c0-2.7,2.2-4.3,4.6-4.3c1.7,0,3.3,0.8,4.3,1.4l-1.4,2.6c0,0-1.4-1.1-2.7-1.1
c-0.9,0-1.4,0.5-1.4,1.2c0,0.7,0.8,1,1.5,1.2c0.4,0.2,1.1,0.4,1.5,0.6c2,0.8,3.1,2,3.1,4.1c0,2.9-2.7,4.4-5.4,4.4
c-1.9,0-3.2-0.8-4.6-1.7c0,0,1.1-2.2,1.4-2.7c0.7,0.6,1.9,1.3,3.2,1.3c1,0,1.9-0.3,1.9-1.1c0-0.6-0.1-0.8-1.4-1.3
c-0.4-0.2-1.4-0.5-2-0.8C-169.1,406.6-170,405.4-170,403.5z"/>
<path fill="#CCB57A" d="M-159.1,406.4c0-4.3,3.3-7.2,7.4-7.2c4.2,0,7.4,3.1,7.4,7.1c0,4.4-3.3,7.4-7.4,7.4
C-156.1,413.6-159.1,410.6-159.1,406.4z M-151.7,402.5c-2.2,0-3.9,1.7-3.9,4s1.6,3.9,3.8,3.9c2.3,0,3.9-1.7,3.9-4
C-147.8,404.2-149.5,402.5-151.7,402.5z"/>
<path fill="#CCB57A" d="M-139.4,413.2h-3.7l5-13.4l4,0l5,13.5h-3.8l-0.9-2.5h-4.7L-139.4,413.2z M-136.2,403.8l-1.4,4.1h2.9
L-136.2,403.8z"/>
<path fill="#CCB57A" d="M-123.7,408.5v4.7h-3.5v-13.5c0,0,3.9,0,6,0c2.4,0,4.2,1.6,4.2,4.5c0,2.7-1.8,4.3-4.1,4.3
C-122.1,408.5-123.7,408.5-123.7,408.5z M-123.8,402.3v3.5h1.2c1.1,0,2.1-0.3,2.1-1.8c0-1.3-0.9-1.7-2-1.7
C-122.5,402.3-123.8,402.3-123.8,402.3z"/>
</svg>
