<svg version="1.1" xmlns="http://www.w3.org/2000/svg" xmlns:xlink="http://www.w3.org/1999/xlink"
 width="160px" height="160px" viewBox="-219 321 160 160">
<path fill="#D5562B" d="M-89.4,447.7c-4,0.1-8,0.2-12,0.2c-2,0-4,0.1-6,0.1c-6.2,0-12,1.4-17.9,3.5c-15.2,4.8-30.4,11.8-47,9.7
c-13.5-27-16.9-57.8-14.7-87.6c0-1.6,0.1-3.2,0.1-4.7c0.1-4.7,0.3-9.5,0.4-14.3c0-2.6,0-4.1,0-4.1l1.9-1.6c27.1,1.7,56.9,4,83.9,1.9
c-0.3,12.1-0.4,24.1-0.3,36.2c0,2,0,4,0.1,6c0.3,17,9.5,36.9,13.6,53.1L-89.4,447.7z"/>
<path fill="#BBBBBB" d="M-87.5,446.1c-4,0.1-8,0.2-12,0.2c-2,0-4,0.1-6,0.1c-6.2,0-12,1.4-17.9,3.5c-15.2,4.8-30.4,11.8-47,9.7
c-13.5-27-16.9-57.8-14.7-87.6c0-1.6,0.1-3.2,0.1-4.7c0.1-4.7,0.3-9.5,0.4-14.3c0-2.6,0-4.1,0-4.1s1.8,0,4.8,0
c27.1,1.7,54,2.4,81,0.3c-0.3,12.1-0.4,24.1-0.3,36.2c0,2,0,4,0.1,6c0.3,17,6.2,33.2,10.3,49.4C-88,444.2-87.5,446.1-87.5,446.1z"/>
<path fill="#D9DBDC" d="M-93.6,439.9c-3.6,0.1-7.1,0.1-10.7,0.2c-1.8,0-3.6,0-5.4,0.1c-5.5,0-10.7,1.3-16,3.1
c-13.6,4.3-27.2,10.5-42,8.6c-12-24.1-14.3-49.8-12.3-76.4c0-1.4,0.1-2.8,0.1-4.2c0.1-4.2,0.2-8.5,0.3-12.7c0-2.3,0-3.6,0-3.6
s0.7-3.4,3.3-3.3c24.2,1.5,49.1,5.5,73.2,3.7c-0.3,10.8-0.4,21.5-0.3,32.3c0,1.8,0,3.6,0.1,5.4c0.3,15.1,8.7,31.1,12.6,43.6
C-89.6,439.4-93.6,439.9-93.6,439.9z"/>
<path fill="#FFFFFF" d="M-90.6,436.5c-3.6,0.1-6.8,0.1-10.4,0.2c-1.8,0-3.6,0-5.4,0.1c-5.5,0-10.7,1.3-16,3.1
c-13.6,4.3-27.2,10.5-42,8.6c-12-24.1-14.3-49.8-12.3-76.4c0-1.4,0.1-2.8,0.1-4.2c0.1-4.2,0.2-8.5,0.3-12.7c0-2.3,0-3.6,0-3.6
s1.6,0,4.2,0c24.2,1.5,48.2,2.1,72.3,0.3c-0.3,10.8-1,34.8-1.1,37.6c-0.5,17,4.1,28.5,8.6,42.4C-91.1,434.8-90.6,436.5-90.6,436.5z"
/>
<path fill="#A36C35" d="M-171.8,378c0,0,44.3-6.2,69.9-4.8L-171.8,378z"/>
<path fill="#A4876D" d="M-127.6,428.7c9.1-0.5,19.2-3.1,25.6-1.7L-127.6,428.7z"/>
<path fill="#999999" d="M-159.2,372.4c-0.1,0-0.3,0-0.4,0c-1.6-0.2-2.6-0.8-2.8-1.7c-0.4-1.6,1.2-3.4,5.4-6.2
c0.1-0.1,0.2-0.1,0.3-0.2c0.7-0.5,0.9-0.8,0.8-1c-0.1-0.5-1.5-1.2-3.3-1.2c-1.2,0-2.2,0.3-2.4,0.9c-0.2,0.5-0.2,1.3-0.3,2.1
c-0.2,1.7-0.3,3.6-1.7,4.6c-0.8,0.6-2,0.7-3.4,0.3c-2.2-0.6-2.9-2-3.1-3c-0.6-3.4,3.2-8.2,5.3-9.8l1.2,1.7c-1.8,1.3-4.9,5.4-4.5,7.7
c0.1,0.4,0.3,1.1,1.6,1.4c0.5,0.1,1.3,0.2,1.7,0c0.6-0.4,0.7-1.8,0.9-3.1c0.1-0.9,0.2-1.8,0.4-2.5c0.5-1.5,2.1-2.3,4.4-2.3
c2.2,0,4.7,1,5.2,2.7c0.2,0.7,0.2,2-1.7,3.3c-0.1,0-0.2,0.1-0.3,0.2c-0.1,0.1-0.3,0.2-0.4,0.3l0.6,0.1c2.9,0.5,4.9-0.9,7.2-2.6
c0.9-0.7,1.9-1.4,2.9-2l1.7-0.9l-0.1,1.9c0,0.6,0.2,2.5,0.4,3.3l1,0.4c0.2-0.5-0.1-0.8-0.2-1c0.2,0.1,0.7,0.4,1.6,0.7
c0.1,0.1,0.3,0.1,0.3,0.1l-0.9,1.9c0,0-0.1-0.1-0.2-0.1c-0.5-0.2-0.9-0.4-1.3-0.5c-0.3,0.3-0.7,0.5-1.2,0.4c-1.1-0.2-1.5-2-1.6-3.4
c-0.4,0.3-0.8,0.6-1.2,0.9c-2.3,1.7-4.6,3.4-8,3C-155.9,370.2-156.9,372.4-159.2,372.4L-159.2,372.4z M-160.3,370
c0.1,0.1,0.4,0.2,1,0.2c1,0.1,1.6-1,2.4-2.6c0.1-0.2,0.2-0.4,0.3-0.6l0.2-0.5C-159.6,368.8-160.2,369.7-160.3,370L-160.3,370z"/>
<path fill="#999999" d="M-133.9,357.1c0,0-1.4,3.2,0.9,3.7c2.3,0.5,16-13.9,16-13.9l-5.7-1.8L-133.9,357.1z"/>
<ellipse fill="#777777" cx="-119.5" cy="345.6" rx="3" ry="2.6"/>
<g>

<rect x="-142.3" y="399.5" transform="matrix(5.785602e-02 0.9983 -0.9983 5.785602e-02 289.0417 493.4397)" fill="#C5C7C9" width="50.7" height="0.7"/>
</g>
<g>

<rect x="-154.9" y="400.9" transform="matrix(5.785721e-02 0.9983 -0.9983 5.785721e-02 278.5796 507.3837)" fill="#C5C7C9" width="50.7" height="0.7"/>
</g>
<g>

<rect x="-160.2" y="394.5" transform="matrix(5.398088e-02 0.9985 -0.9985 5.398088e-02 259.3452 516.0363)" fill="#C5C7C9" width="35.1" height="0.7"/>
</g>
<g>

<rect x="-172.8" y="396" transform="matrix(5.398088e-02 0.9985 -0.9985 5.398088e-02 248.8353 529.989)" fill="#C5C7C9" width="35.1" height="0.7"/>
</g>
<g>

<rect x="-185.4" y="397.4" transform="matrix(5.398159e-02 0.9985 -0.9985 5.398159e-02 238.3244 543.9413)" fill="#C5C7C9" width="35.1" height="0.7"/>
</g>
<g>
<path fill="#D5562B" d="M-106.4,404.7c0.9-0.9,1.7-1.7,2.4-2.3l-1.8-2.1c-0.3,0.2-1.6,1.4-3,2.9c-2.5-1.6-4.8-2.8-5.3-3l-1.3,2.5
c1,0.5,2.8,1.5,4.7,2.7c-1,1.2-1.8,2.5-2.2,3.6l2.7,0.8c0.2-0.8,1-1.8,1.9-2.9c1.8,1.2,3.3,2.4,4.1,3.3l2.2-1.7
C-102.9,407.3-104.6,406-106.4,404.7z"/>
<path fill="#D5562B" d="M-114.6,383l2.7,0.8c0.2-0.8,1-1.8,1.9-2.9c1.8,1.2,3.3,2.4,4.1,3.3l2.2-1.7c-0.9-1.2-2.6-2.5-4.4-3.7
c0.9-0.9,1.7-1.7,2.4-2.3l-1.8-2.1c-0.3,0.2-1.6,1.4-3,2.9c-2.5-1.6-4.8-2.8-5.3-3l-1.3,2.5c1,0.5,2.8,1.5,4.7,2.7
C-113.5,380.7-114.3,381.9-114.6,383z"/>
<path fill="#D5562B" d="M-120.8,391.3c0.9-0.9,1.7-1.7,2.4-2.3l-1.8-2.1c-0.3,0.2-1.6,1.4-3,2.9c-2.5-1.6-4.8-2.8-5.3-3l-1.3,2.5
c1,0.5,2.8,1.5,4.7,2.7c-1,1.2-1.8,2.5-2.2,3.6l2.7,0.8c0.2-0.8,1-1.8,1.9-2.9c1.8,1.2,3.3,2.4,4.1,3.3l2.2-1.7
C-117.3,393.9-119,392.6-120.8,391.3z"/>
</g>
<path fill="#A4876D" d="M-171.8,389.5c0,0,44.2-5,69.9-4.8L-171.8,389.5z"/>
<path fill="#A4876D" d="M-171.8,401.9c0,0,44.2-5,69.9-4.8L-171.8,401.9z"/>
<path fill="#A4876D" d="M-171.8,417c0,0,44.2-5,69.9-4.8L-171.8,417z"/>
</svg>
