<svg version="1.1" id="Layer_1" xmlns="http://www.w3.org/2000/svg" xmlns:xlink="http://www.w3.org/1999/xlink" x="0px" y="0px"
   width="160px" height="160px" viewBox="-107 254 160 160" enable-background="new -107 254 160 160" xml:space="preserve">
<path fill="#62696A" d="M-2.2,348.7l1.8,1.8c2.6,2.6,2.6,6.8,0,9.4c-2.6,2.6-6.8,2.6-9.4,0L-55,314.6l-2.3,2.3l45.2,45.2
  c3.9,3.9,10.2,3.9,14,0c3.9-3.9,3.9-10.2,0-14l-1.8-1.8L-2.2,348.7z"/>
<path fill="#B32C39" d="M-5.8,313.6c3.6-3.6,7.3-5.8,8.2-4.9c-18.1-18.1-47.5-18.1-65.6,0c-18.1,18.1-18.1,47.5,0,65.6
  c-0.9-0.9,1.3-4.6,4.9-8.2c3.6-3.6,7.3-5.8,8.2-4.9c-0.9-0.9,1.3-4.6,4.9-8.2c3.6-3.6,7.3-5.8,8.2-4.9c-0.9-0.9,1.3-4.6,4.9-8.2
  s7.3-5.8,8.2-4.9c-0.9-0.9,1.3-4.6,4.9-8.2c3.6-3.6,7.3-5.8,8.2-4.9C-11.6,320.9-9.4,317.2-5.8,313.6z"/>
<line fill="none" x1="-63.2" y1="308.7" x2="-63.2" y2="308.7"/>
<path fill="#CE3045" d="M-18.9,326.7c3.6-3.6,7.3-5.8,8.2-4.9c-18.1-18.1-41.6-24-52.5-13.1c-10.9,10.9-5,34.4,13.1,52.5
  c-0.9-0.9,1.3-4.6,4.9-8.2c3.6-3.6,7.3-5.8,8.2-4.9c-0.9-0.9,1.3-4.6,4.9-8.2s7.3-5.8,8.2-4.9C-24.7,334-22.5,330.4-18.9,326.7z"/>
<path fill="#D55A55" d="M-32,339.9c3.6-3.6,7.3-5.8,8.2-4.9c-18.1-18.1-35.8-29.9-39.4-26.3c-3.6,3.6,8.1,21.3,26.3,39.4
  C-37.9,347.2-35.7,343.5-32,339.9z"/>
<path fill="#B32C39" d="M-61.6,307.1c0.1,0.1-0.5,0.9-1.4,1.8c-0.9,0.9-1.7,1.5-1.8,1.4c-0.1-0.1,0.5-0.9,1.4-1.8
  C-62.5,307.6-61.7,306.9-61.6,307.1z"/>
<path fill="#B32C39" d="M-61.9,307c0,0,0.4,0.1,0.4,0.1s-0.9,0.9-1.6,1.6c-0.7,0.7-1.6,1.6-1.6,1.6s-0.1-0.3-0.1-0.4
  c-0.1-0.1,0.4-0.8,1.3-1.7C-62.8,307.3-62.1,306.8-61.9,307z"/>
<path fill="#62696A" d="M-62.8,307.5c0.1,0.1-0.2,0.5-0.6,0.9c-0.4,0.4-0.8,0.7-0.9,0.6c-0.1-0.1,0.2-0.5,0.6-0.9
  C-63.3,307.7-62.9,307.5-62.8,307.5z"/>
<path fill="#62696A" d="M-65.4,305.8c0,0,2.6,1.8,2.6,1.8s-0.5,0.4-0.8,0.8c-0.3,0.3-0.8,0.8-0.8,0.8s-1.7-2.6-1.8-2.6
  c-0.1-0.1,0-0.3,0.2-0.5C-65.7,305.8-65.5,305.7-65.4,305.8z"/>
<path fill="#777F7F" d="M-65.5,305.7c0,0-0.1,0.2-0.3,0.4c-0.2,0.2-0.4,0.3-0.4,0.3c0,0,0.1-0.2,0.3-0.4
  C-65.7,305.8-65.5,305.7-65.5,305.7z"/>
<path fill="#777F7F" d="M0.2,346.3c0.4,0.4,0.2,1.3-0.4,1.9c-0.6,0.6-1.5,0.8-1.9,0.4c-0.4-0.4-0.2-1.3,0.4-1.9
  C-1.1,346.1-0.2,345.9,0.2,346.3z"/>
</svg>
