<svg version="1.1" xmlns="http://www.w3.org/2000/svg" xmlns:xlink="http://www.w3.org/1999/xlink"
 width="160px" height="160px" viewBox="-219 321 160 160">
<path fill="#A6A8AB" d="M-179,440.6c1.8-1.4,36.4,9.9,45.8,18.2c13.4-13.6,40.7-36.5,40.7-36.5l1.5-86c0,0-33.3,22.9-49.5,36.5
c-11.4-8.3-45.7-18.7-47.9-17.2L-179,440.6z"/>
<path fill="#E7E7E8" d="M-180.3,444.9c1.8-1.4,37.7,8.3,47.1,16.6c13.4-13.6,43.3-33.3,43.3-33.3l2.1-86c0,0-36.4,19.7-52.7,33.3
c-11.4-8.3-47.3-17.1-49.5-15.6L-180.3,444.9z"/>
<path fill="#D0D2D3" d="M-136.8,377.5c11.5-9.6,37.3-23.6,37.3-23.6l-0.2,3.9c0,0-26.5,14.7-36,24.3L-136.8,377.5z"/>
<path fill="#D0D2D3" d="M-180.3,444.9c1.8-1.4,37.7,8.3,47.1,16.6l-7.3-86c-11.4-8.3-47.3-17.1-49.5-15.6L-180.3,444.9z"/>
<path fill="#A6A8AB" d="M-182.6,389.6c0.5-0.4,9.6,2.1,11.9,4.2l-1.8-21.8c-2.9-2.1-12-4.3-12.6-4L-182.6,389.6z"/>
<path fill="#A6A8AB" d="M-182,393.6c0.5-0.4,9,2.6,11.4,4.7l-0.2-1.7c-2.9-2.1-10.9-5.2-11.5-4.8L-182,393.6z"/>
<path fill="#A6A8AB" d="M-182,397.6c0.5-0.4,9,2.6,11.4,4.7l-0.2-1.7c-2.9-2.1-10.9-5.2-11.5-4.8L-182,397.6z"/>
<path fill="#A6A8AB" d="M-181.6,401.8c0.5-0.4,9,2.6,11.4,4.7l-0.2-1.7c-2.9-2.1-10.9-5.2-11.5-4.8L-181.6,401.8z"/>
<path fill="#A6A8AB" d="M-175.9,405.9c-2.6-1.1-4.9-1.8-5.2-1.6l0.2,1.8c0.2-0.2,2.6,0.5,5.2,1.5L-175.9,405.9z"/>
<path fill="#A6A8AB" d="M-154.5,423.9c0.5-0.4,9.6,2.1,11.9,4.2l-1.8-21.8c-2.9-2.1-12-4.3-12.6-4L-154.5,423.9z"/>
<path fill="#A6A8AB" d="M-153.9,427.9c0.5-0.4,9,2.6,11.4,4.7l-0.2-1.7c-2.9-2.1-10.9-5.2-11.5-4.8L-153.9,427.9z"/>
<path fill="#A6A8AB" d="M-153.9,431.9c0.5-0.4,9,2.6,11.4,4.7l-0.2-1.7c-2.9-2.1-10.9-5.2-11.5-4.8L-153.9,431.9z"/>
<path fill="#A6A8AB" d="M-153.4,436.1c0.5-0.4,9,2.6,11.4,4.7l-0.2-1.7c-2.9-2.1-10.9-5.2-11.5-4.8L-153.4,436.1z"/>
<path fill="#A6A8AB" d="M-147.8,440.2c-2.6-1.1-4.9-1.8-5.2-1.6l0.2,1.8c0.2-0.2,2.6,0.5,5.2,1.5L-147.8,440.2z"/>
<path fill="#D0D2D3" d="M-111.3,399.9c-0.5-0.3-19.7,13-21.8,15.4l-1.1-21.9c2.6-2.5,21.8-15.6,22.5-15.3L-111.3,399.9z"/>
<path fill="#D0D2D3" d="M-111.3,403.9c-0.5-0.3-19.1,13.5-21.2,15.9l-0.1-1.7c2.6-2.5,20.7-16.3,21.3-16L-111.3,403.9z"/>
<path fill="#D0D2D3" d="M-114.7,378c-0.5-0.3-17.4,10.7-19.5,13.1l-0.1-1.7c2.6-2.5,19-13.4,19.6-13.2V378z"/>
<path fill="#D0D2D3" d="M-121.5,420.4c-0.5-0.3-7.9,6.2-10,8.6l-0.1-1.7c2.6-2.5,9.5-8.9,10.1-8.7
C-121.5,418.6-121.5,420.4-121.5,420.4z"/>
<path fill="#D0D2D3" d="M-121,424.3c-0.5-0.3-7.9,6.2-10,8.6l-0.1-1.7c2.6-2.5,9.5-8.9,10.1-8.7L-121,424.3z"/>
<path fill="#D0D2D3" d="M-120.9,428.6c-0.5-0.3-7.9,6.2-10,8.6l-0.1-1.7c2.6-2.5,9.5-8.9,10.1-8.7L-120.9,428.6z"/>
<path fill="#D0D2D3" d="M-130.3,438.7c1.5-1.5,4-4.5,4.3-4.4l0,1.8c-0.3-0.2-3.5,3.2-4.2,4.2L-130.3,438.7z"/>
<path fill="#D0D2D3" d="M-109.8,413.3c-0.5-0.3-8.3,3.9-10.3,6.4l-0.1-1.7c2.6-2.5,9.8-6.7,10.4-6.5L-109.8,413.3z"/>
<path fill="#D0D2D3" d="M-109.3,417.2c-0.5-0.3-8.3,3.9-10.3,6.4l-0.1-1.7c2.6-2.5,9.8-6.7,10.4-6.5L-109.3,417.2z"/>
<path fill="#D0D2D3" d="M-109.2,421.5c-0.5-0.3-8.3,3.9-10.3,6.4l-0.1-1.7c2.6-2.5,9.8-6.7,10.4-6.5L-109.2,421.5z"/>
<path fill="#D0D2D3" d="M-119,429.2c0,0,4.3-3.5,4.6-3.4l0,1.8c-0.3-0.1-4.6,3.2-4.6,3.2L-119,429.2z"/>
<path fill="#A6A8AB" d="M-179.4,416c0.5-0.4,9,2.6,11.4,4.7l-0.2-1.7c-2.9-2.1-10.9-5.2-11.5-4.8L-179.4,416z"/>
<path fill="#A6A8AB" d="M-179.4,420c0.5-0.4,9,2.6,11.4,4.7l-0.2-1.7c-2.9-2.1-10.9-5.2-11.5-4.8L-179.4,420z"/>
<path fill="#A6A8AB" d="M-178.9,424.3c0.5-0.4,9,2.6,11.4,4.7l-0.2-1.7c-2.9-2.1-10.9-5.2-11.5-4.8L-178.9,424.3z"/>
<path fill="#A6A8AB" d="M-173.3,428.3c-2.6-1.1-4.9-1.8-5.2-1.6l0.2,1.8c0.2-0.2,2.6,0.5,5.2,1.5L-173.3,428.3z"/>
</svg>
