<svg version="1.1" xmlns="http://www.w3.org/2000/svg" xmlns:xlink="http://www.w3.org/1999/xlink" width="160px"
  height="160px" viewBox="0 0 160 160" >
  <circle fill="#00ADEE" cx="74.61275" cy="84.77292" r="59.48978"/>
  <polygon fill="#58595B" points="120.17651,80.73069 105.99074,90.94053 116.33152,92.08694 123.42556,81.09431"/>
  <path fill="#FFFFFF" d="M120.08771,64.06174l-13.1466,18.35789l-64.98837-7.25358c-1.79945-0.20061-4.9402,0.47401-8.17209,1.64902
    c-5.27418,1.91568-8.54937,4.44215-8.87763,7.37775c-0.24378,2.1961,11.2503,7.68675,15.98535,8.2155l69.43063,5.49065
    c3.84956,0.42839,7.34355-2.13343,8.15949-5.83257l5.79721-27.53741L120.08771,64.06174z"/>
  <path fill="#E7E7E8" d="M95.08471,121.20396l-10.6485-29.10558l-0.0035-0.00117c0.00117-0.00688,0.00571-0.0126,0.00571-0.01937
    c0.09582-0.8513-5.31165-2.15502-12.07755-2.90946c-6.76474-0.7556-11.16125-1.42217-11.99317-0.66213
    c-0.28953,0.26327-0.31462,0.93684-0.00911,1.31062l27.02804,30.52775L95.08471,121.20396z"/>
  <path fill="#E7E7E8" d="M120.82616,104.37186l-4.481-12.24618c-0.0091-0.21542-0.28486-0.55162-0.69514-0.59713
    c-0.38627-0.0433-8.48322-1.0883-8.91628-1.13732c-0.43306-0.04796-0.80345,0.0957-0.82854,0.32243
    c-0.01131,0.09464,0.04446,0.18812,0.13794,0.26781l11.53515,13.02805L120.82616,104.37186z"/>
  <path fill="#58595B" d="M41.00119,78.19851l-5.94647-0.66435c-1.8075,0.62444-4.58813,1.80972-6.10261,2.76814l10.39433,1.16007
    L41.00119,78.19851z"/>
  <polygon fill="#58595B" points="41.85133,78.29315 40.19658,81.5569 42.62163,81.82822 44.1339,78.5472"/>
  <path fill="#E7E7E8" d="M48.18522,86.45497c-0.19605-0.02159-0.46841-0.0524-0.78175-0.08659
    c-0.91851-0.10374-3.10201-0.17213-3.05416-0.59492c-0.38976-2.78518,0.82737-4.53328,1.41996-6.30204
    c0.1915-0.5766,0.30772-0.70647,0.50261-0.68489c1.01759,0.25755,3.38803,0.37833,3.58408,0.40003
    c0.19372,0.02171,0.47402-0.00117,0.28485,0.5675c-0.13677,0.40913-1.47469,2.78868-1.48834,6.23027
    C48.59203,86.55988,48.37894,86.47668,48.18522,86.45497z"/>
  <path fill="#58595B" d="M53.32941,82.85724c-0.7339-0.29629-1.63187,0.03419-2.00914-0.43877
    c-0.37717-0.4718-0.18801-2.17089,0.28379-2.54817c0.47297-0.37716,1.74822-0.23467,2.12421,0.23713
    c0.37833,0.4718-0.14132,1.27408-0.35324,2.29517C53.34761,82.67496,53.32941,82.85724,53.32941,82.85724z"/>
  <path fill="#58595B" d="M57.57562,83.33138c-0.7339-0.29641-1.62966,0.03419-2.00799-0.43877
    c-0.37611-0.4718-0.18695-2.17101,0.28485-2.54817c0.47297-0.37728,1.74706-0.23479,2.12421,0.23701
    c0.37728,0.4718-0.14237,1.27409-0.35545,2.29517C57.59384,83.14898,57.57562,83.33138,57.57562,83.33138z"/>
  <path fill="#58595B" d="M61.82406,83.80539c-0.73391-0.29629-1.63189,0.03419-2.008-0.43877
    c-0.37833-0.4718-0.188-2.17089,0.28381-2.54817c0.47297-0.37716,1.74694-0.23467,2.12305,0.23713
    c0.37834,0.4718-0.14132,1.27409-0.35324,2.29517C61.84225,83.62312,61.82406,83.80539,61.82406,83.80539z"/>
  <path fill="#58595B" d="M66.07143,84.28058c-0.73285-0.29745-1.63082,0.03314-2.00797-0.43866
    c-0.37729-0.47297-0.18813-2.17218,0.28368-2.54817c0.47297-0.37844,1.74822-0.23595,2.12421,0.23701
    c0.37844,0.47063-0.14132,1.27409-0.35324,2.29401C66.08846,84.09713,66.07143,84.28058,66.07143,84.28058z"/>
  <path fill="#58595B" d="M70.31869,84.75471c-0.7339-0.29746-1.62965,0.03302-2.00798-0.43877
    c-0.37717-0.47297-0.18684-2.17207,0.28497-2.54817c0.47169-0.37833,1.74577-0.23585,2.12305,0.23701
    c0.37717,0.47075-0.14247,1.27409-0.3544,2.29412C70.33689,84.57127,70.31869,84.75471,70.31869,84.75471z"/>
  <path fill="#58595B" d="M74.56712,85.22873c-0.73389-0.29745-1.63187,0.03314-2.00903-0.43866
    c-0.37727-0.47297-0.18812-2.17217,0.28368-2.54816c0.47414-0.37845,1.74822-0.23596,2.12421,0.23701
    c0.37846,0.47063-0.14132,1.27409-0.35323,2.29401C74.58544,85.04529,74.56712,85.22873,74.56712,85.22873z"/>
  <path fill="#58595B" d="M78.81333,85.70287c-0.73273-0.29745-1.62966,0.03303-2.00682-0.43877
    c-0.37728-0.47297-0.188-2.17206,0.2837-2.54817c0.47295-0.37833,1.74704-0.23584,2.12432,0.23701
    c0.37716,0.47076-0.14132,1.27409-0.35452,2.29413C78.83154,85.51942,78.81333,85.70287,78.81333,85.70287z"/>
  <path fill="#58595B" d="M83.06176,86.17689c-0.7339-0.29746-1.63071,0.03314-2.00799-0.43866
    c-0.37833-0.47297-0.188-2.17218,0.28497-2.54817c0.47181-0.37844,1.74589-0.23596,2.12189,0.23701
    c0.37843,0.47063-0.14133,1.27409-0.35325,2.29401C83.08008,85.99344,83.06176,86.17689,83.06176,86.17689z"/>
  <path fill="#58595B" d="M87.73414,86.6977c-0.73389-0.2963-1.63071,0.03419-2.00798-0.43877
    c-0.37833-0.4718-0.188-2.1709,0.28497-2.54806c0.4718-0.37727,1.74589-0.23479,2.12421,0.23701
    c0.37611,0.4718-0.14248,1.27409-0.35557,2.29517C87.75246,86.51542,87.73414,86.6977,87.73414,86.6977z"/>
  <path fill="#FFFFFF" d="M73.27483,63.0361c0-2.85368-2.31221-5.16473-5.16473-5.16473c-1.97717,0-3.67405,1.1225-4.54238,2.75437
    c-0.35557-3.45863-3.27752-6.15617-6.82858-6.15617c-1.27642,0-2.4673,0.3544-3.49177,0.96076
    c-1.34702-3.57043-4.7864-6.11522-8.82733-6.11522c-4.94371,0-8.99387,3.80067-9.40301,8.63829
    c-2.46041,0.39431-4.34529,2.50943-4.34529,5.08269c0,2.85356,2.31116,5.1646,5.16472,5.1646H68.1101
    C70.96262,68.20071,73.27483,65.88966,73.27483,63.0361z"/>
  <polygon fill="#EC1C24" points="109.20898,79.25262 120.89221,80.59964 122.5424,72.76258 114.5184,71.83835"/>
  <polygon fill="#EC1C24" points="122.67112,72.15179 114.95367,71.23095 115.73892,70.13354 122.91502,70.99161"/>
  <path fill="#FFFFFF" d="M119.49047,77.83045c-0.4501,2.00005-5.69231,0.81593-5.24222-1.18061
    c0.45243-1.99889,1.98978-3.35279,3.43716-3.02453C119.13383,73.95008,119.94289,75.83495,119.49047,77.83045z"/>

</svg>
