<svg version="1.1" xmlns="http://www.w3.org/2000/svg" xmlns:xlink="http://www.w3.org/1999/xlink"
 width="160px" height="160px" viewBox="-219 321 160 160">
<path fill="#A5603E" d="M-156.9,405.7c0.4-0.6,0.5-1.4,0.4-2.3c0-0.5-1.7-8.1-1.8-8.5c-0.1-0.4-0.2-0.8-0.3-1.3c0-0.2,0-0.4,0-0.8
c0-1-0.1-3.5-0.9-3.5l0-0.5c1.2,0.1,1.3,2.4,1.3,4c0,0.3,0,0.6,0,0.7c0,0.4,0.2,0.8,0.3,1.2c0.1,0.5,1.8,8.1,1.9,8.6
c0.1,1-0.1,1.9-0.5,2.6L-156.9,405.7z"/>
<path fill="#A5603E" d="M-159.1,407.4L-159.1,407.4c-0.3,0-0.5-0.1-0.7-0.2c-1.4-0.6-1.7-2.2-1.8-2.9c-0.1-1.1,0.3-11.3,0.5-12.2
c0.1-0.4,0.2-0.7,0.3-1.1c0.3-1.4-1-0.5-0.1-1.4c0.5-0.5,1-0.8,1.4-0.7c1.2,0.1,1.3,2.4,1.3,4c0,0.3,0,0.6,0,0.7
c0,0.4,0.2,0.8,0.3,1.2c0.1,0.5,1.8,8.1,1.9,8.6c0.1,1-0.1,1.9-0.5,2.6C-157.1,406.9-158.1,407.4-159.1,407.4L-159.1,407.4z
 M-159.5,389.2c-0.2,0-0.5,0.1-1,0.6c-0.8,0.8,0.5-0.1,0.2,1.2c-0.1,0.4-0.2,0.8-0.3,1.1c-0.3,1-0.6,11.1-0.5,12.1
c0.1,0.6,0.3,2,1.5,2.5c0.2,0.1,0.4,0.1,0.6,0.1c0.8,0.1,1.7-0.4,2.1-1.2c0.4-0.6,0.5-1.4,0.4-2.3c0-0.5-1.7-8.1-1.8-8.5
c-0.1-0.4-0.2-0.8-0.3-1.3c0-0.2,0-0.4,0-0.8C-158.7,391.7-158.7,389.3-159.5,389.2L-159.5,389.2z"/>
<path fill="#E28257" d="M-158.7,407.4L-158.7,407.4c-0.3,0-0.5-0.1-0.7-0.2c-1.4-0.6-1.7-2.2-1.8-2.9c-0.1-1.1,0.3-11.3,0.5-12.2
c0.1-0.4,0.2-0.7,0.3-1.1c0.3-1.4-1-0.5-0.1-1.4c0.5-0.5,1-0.8,1.4-0.7c1.2,0.1,1.3,2.4,1.3,4c0,0.3,0,0.6,0,0.7
c0,0.4,0.2,0.8,0.3,1.2c0.1,0.5,1.8,8.1,1.9,8.6c0.1,1-0.1,1.9-0.5,2.6C-156.7,406.9-157.7,407.5-158.7,407.4L-158.7,407.4z
 M-159.1,389.3c-0.2,0-0.5,0.1-1,0.6c-0.8,0.8,0.5-0.1,0.2,1.2c-0.1,0.4-0.2,0.8-0.3,1.1c-0.3,1-0.6,11.1-0.5,12.1
c0.1,0.6,0.3,2,1.5,2.5c0.2,0.1,0.4,0.1,0.6,0.1c0.8,0.1,1.7-0.4,2.1-1.2c0.4-0.6,0.5-1.4,0.4-2.3c0-0.5-1.7-8.1-1.8-8.5
c-0.1-0.4-0.2-0.8-0.3-1.3c0-0.2,0-0.4,0-0.8C-158.3,391.8-158.4,389.3-159.1,389.3L-159.1,389.3z"/>
<path fill="#E28257" d="M-159.2,406.8c0.2,0.1,0.4,0.1,0.6,0.1c0.8,0.1,1.7-0.4,2.1-1.2c0.4-0.6,0.5-1.4,0.4-2.3
c0-0.5-1.7-8.1-1.8-8.5c-0.1-0.4-0.2-0.8-0.3-1.3c0-0.2,0-0.4,0-0.8c0-1-0.1-3.5-0.9-3.5l0,0c-0.2,0-0.5,0.1-1,0.6l-0.3-0.3
c0.5-0.5,1-0.8,1.4-0.7c1.2,0.1,1.3,2.4,1.3,4c0,0.3,0,0.6,0,0.7c0,0.4,0.2,0.8,0.3,1.2c0.1,0.5,1.8,8.1,1.9,8.6
c0.1,1-0.1,1.9-0.5,2.6c-0.6,1-1.6,1.5-2.6,1.5l0,0l0,0c-0.3,0-0.5-0.1-0.7-0.2L-159.2,406.8z"/>
<path fill="#F0DBCB" d="M-134.4,396.4c6-6.2,0.1-4.8-2.1-10c-1-2.4-3.3-4.6-6.1-4.9c-6.2-0.7-4.1,4.7-4.1,5c0,0,0,0.6,0,1.6
c-0.2,8.9,1.4,9.3,0.4,14.2C-143.8,408.8-135.4,397.4-134.4,396.4z"/>
<polygon fill="#69330D" points="-148.1,376.1 -144.6,374.3 -145.8,372.5 "/>
<path fill="#F0DBCB" d="M-135,425.7c-4.3,11.5,3.3,29.2,9.2,34.8c2.7,2.6,7,4.1,10.8,3c8.6-2.6,2.8-8.5,2.6-8.9c0,0-0.4-0.7-0.9-2.1
c-4.8-11.8-7.2-11.5-8.7-18.5C-129,426.7-134.2,423.8-135,425.7z"/>
<path fill="#F0DBCB" d="M-149.8,462.8c5.2,5,8.8-4.9,9.5-8.6c0.7-3.9,0.6-8.1,0.3-12.1c-0.1-1.6-0.4-3.1-0.6-4.7
c-0.2-1.4-2-2.8-5.4-2.3c-2.8,0.4-6.4,1.5-6.8,4.2C-153.6,445.4-156.2,456.6-149.8,462.8z"/>
<path fill="#004E80" d="M-123.2,426c-7.1-4.7-14.2-13.3-21.1-11.4c-6.9,2-9.1,17.5-9.5,24.4c1.1,3.6,7.9,6.9,13.8,4.8
c2-7.5,8.8-12,15.6-16.8C-123.7,426.4-123.2,426-123.2,426z"/>
<path fill="#26689E" d="M-118.7,419.9c-8.5,0.6-20.8-2.1-26.1,2.8c-2.7,2.4,4,4.1,4.8,9.3c0.7,4.6,2.3,9.2,4.3,11.8
c3.2,4.2,12.5,0.3,19.2,1.2c-1.5-7.7-5.1-15.5-2.6-23.4C-118.8,420.5-118.7,419.9-118.7,419.9z"/>
<path fill="#F0DBCB" d="M-136.4,401.6c-4.3,2.7-13.5,4.2-19.3,4.6c0,0-2.5-1.5-2.5-3.6c0-1.5,0.4-1.9,0.6-2c0,0,2.3,0.2,3.2,0.1
c6.4-1.3,8.9-6.1,14.2-9.1C-133.3,392.3-135.2,400.8-136.4,401.6z"/>
<path fill="#806051" d="M-136.4,401.6c4.6-7.3,1.8-20.4-1.4-25c-1.5-2.1-4.8-3.9-7.5-3.6c-6.3,0.6-3.4,5.7-3.3,6c0,0,0,0.9,0.2,1.8
c0.6,3.2,0.1,5.2,0.8,6.7c4-0.6,3.5,3.5,3.5,6.7C-140.3,400-137.2,402.8-136.4,401.6z"/>
<path fill="#F0DBCB" d="M-170.2,399.5c0.3-0.4,0.4-0.4,1-0.5c0.7,0,1.4,0,2.1-0.1c0.3,0.9,0.4,1.1-0.4,1c-0.5-0.1-0.9-0.3-1.1-0.8
c-0.3-0.6,0.4-1,0.8-1.2c1-0.5,1.7-1.6,2.7-1.1c1,0.6,2.7,2.4,3.8,2.7c0.8,0.2,1.5,0.5,2.4,0.6c0.5,0.1,0.9,0.1,1.4,0.2
c0.4,0.1,0.7,0.3,0.9,0.5c0.4,0.4,0.6,0.8,0.7,1.3c0.2,0.9,0.3,1.7,0.2,2.8c0,0.3,0,0.6,0,1c-2,0-4,0.1-6,0.2
c-1.2,0.1-2.5,0.2-3.7,0.3c-0.6,0-1.1,0.1-1.7,0.2c-0.5,0-1,0.1-1.4,0c-0.1-0.1-0.4-0.3-0.5-0.5c-0.4-0.8,0.7-0.9,0.4-0.9
c-0.8,0.1-1-0.5-1.1-0.8c-0.3-0.8,0.4-1.1,0.8-1.2c-0.5,0-1,0-1.3-0.5c-0.2-0.4-0.3-1.1,0.1-1.4c0.2-0.2,0.6-0.3,0.9-0.4
c-0.2-0.1-0.6,0.1-0.7-0.1C-171,400.3-170.3,399.6-170.2,399.5z"/>
<path fill="#A5603E" d="M-157,398.6c-0.2,0-0.3,0.1-0.5,0.1c0.5,2.1,0.9,4.3,1,4.6c0.1,0.9-0.1,1.7-0.4,2.3
c-0.5,0.8-1.3,1.3-2.1,1.2c0,0-0.1,0-0.1,0c0.1,0.2,0.2,0.4,0.3,0.5c0.9,0,1.8-0.6,2.3-1.5c0.4-0.7,0.6-1.6,0.5-2.6
C-156,403-156.5,400.8-157,398.6z"/>
<path fill="#E28257" d="M-156.8,397.6c-0.2,0-0.3,0.1-0.5,0.1c0.5,2.4,1.2,5.4,1.2,5.7c0.1,0.9-0.1,1.7-0.4,2.3
c-0.5,0.8-1.3,1.3-2.1,1.2c-0.2,0-0.4-0.1-0.6-0.1l-0.2,0.4c0.2,0.1,0.5,0.2,0.7,0.2c1,0.1,2-0.5,2.6-1.5c0.4-0.7,0.6-1.6,0.5-2.6
C-155.6,403-156.3,400-156.8,397.6z"/>
<path fill="#806051" d="M-124.3,395.4c2.6-3.2,4-7.1,4.3-13.8c0.3-7-5.1-11.9-9.4-11.9c-4.3,0-8.6-0.7-16.4,3
c1.6,5.6,4.2,23.6,6.8,24.3C-136.8,397.6-124.9,396.2-124.3,395.4z"/>
<path fill="#806051" d="M-151.5,421.5c8.8-19,9.8-28.8,5.7-48.8c0.9,4.3,3.2,10.7,4.8,10.9c3.8,0.6,5-9.9,10.9-13.7
c-3.3,6.2-3,12.6,1,13.9c2.3,0.8,6.6,0.1,7.9,1.7c0.7-1.8,1.1-7.1,1.3-7.3c0.1,0.6,0.4,1.3,0.4,2c0.1,20.1,3.2,30.9,1.8,41.7
c-4.7,6.1-23.3,6.2-34.5,6.1C-152.4,428-153.6,425.5-151.5,421.5z"/>
<path fill="#F0DBCB" d="M-134,400.4c-5,0.7-14.3-1.4-19.4-3.9c-2.4-1.2-2.5-1.7-1.3-4.1c0.8-1.8,1.5-2,1.7-2c0,0,2.7,0.6,3.7,0.7
c7.2,1.3,10-1,16-1.4C-127.2,393.3-132.6,400.2-134,400.4z"/>
<path fill="#F0DBCB" d="M-133.9,400.5c7.9-3.2,13.8-15.2,14.2-20.7c0.2-2.6-0.9-5.4-3.1-6.8c-5.1-3.1-5.6,2.5-5.7,2.8
c0,0-0.2,0.5-0.7,1.4c-4.1,7.8-2.9,8.9-5.9,12.9C-135.9,397-135.2,401-133.9,400.5z"/>
<path fill="#F0DBCB" d="M-164.6,384.7c0.3-0.3,0.9-0.2,1.5,0.1c0.6,0.3,1.8,0.2,2.4,0.3c-0.1,0.9-0.1,1.2-0.8,0.7
c-0.5-0.3-0.7-0.6-0.7-1.2c0-0.6,0.8-0.7,1.2-0.7c1.1,0,2.3-0.8,2.9,0.2c0.7,1,1.1,1.4,2,2.3c0.7,0.6,0.8,2.2,1.4,2.9
c0.7,0.9,1.2,1,1.7,1.1c0.4,0.1,0.5,0.6,0.7,1c0.2,0.6,0.1,1.2,0,1.8c-0.3,1.1-0.2,1.4-0.7,2.4c-0.1,0.3-0.3,0.6-0.4,0.9
c-1.8-0.9-3.7-1.6-5.6-2.3c-1.2-0.4-1.1-0.6-2.3-1c-0.5-0.2,0.2,0-0.5-0.2c-0.4-0.1-1.1-0.3-1.5-0.5c-0.1-0.1-0.4-0.4-0.4-0.6
c-0.3-0.9,0.9-0.8,0.5-0.8c-0.8,0-0.9-0.6-0.9-0.9c-0.2-0.9,0.6-1,1-1.1c-0.5,0-2-0.4-2.2-0.9c-0.2-0.5-0.1-1.1,0.3-1.4
c0.3-0.2,0.6-0.2,0.9-0.2c-0.2-0.2-0.6,0-0.7-0.2C-165.5,385.4-164.7,384.9-164.6,384.7z"/>
<path fill="#FFF5F1" d="M-167,398.6l-0.2,0.2c-0.3,0.1-0.9,0.1-1.1-0.1c-0.2-0.3,0.9-0.6,0.9-0.6
C-167.3,398.1-166.9,398.4-167,398.6z"/>
<path fill="#FFF5F1" d="M-167.7,400.7l0.4,0.1c0.2,0,0.4-0.2,0.4-0.4c0-0.2-0.1-0.4-0.3-0.5l-0.4,0
C-167.7,400-167.8,400.5-167.7,400.7z"/>
<path fill="#FFF5F1" d="M-166.8,402.6l0.4,0.1c0.2,0,0.4-0.2,0.4-0.4c0-0.2-0.1-0.4-0.3-0.4l-0.4,0.1
C-166.9,401.9-167,402.4-166.8,402.6z"/>
<path fill="#B17C63" d="M-146.8,372.2c-0.4,1.2-1.9,3.3-1.3,3.9c0.6,0.6,1.1-2.5,2-2.3c0.9,0.2-0.1,1.5,1.1,1.8
c1.2,0.3,6.1-4.6,6.1-4.6s-3.3-1.6-4.9-1C-145.4,370.7-146.5,371.2-146.8,372.2z"/>
<path fill="#D0B69E" d="M-132.2,370.6l-9.9,2.7l-1.5,2.3c0,0-1.1,0.2-1.1-2.9c0-3.1,3.1-6.1,3.1-6.1l9.5-2.9V370.6z"/>
<path fill="#F0DBCB" d="M-151.2,364.6c-1.4-1-0.6-4-2.6-4.9c0,0-0.5,0.8-0.3,1.2c0.6,1.6,0,5.1,0,5.1s1.1,0.2,2-0.4
C-151,365-151.2,364.6-151.2,364.6z"/>
<path fill="#F0DBCB" d="M-132.1,366c3.9-4.7,4.6-6.8,4.6-14.5c-0.1-8.1-7.8-13.9-15.6-13.1c-7.8,0.8-13.5,8-12.7,16
c0.8,8,7.1,16,11.8,16.4C-140,371-134.3,368.6-132.1,366z"/>
<path fill="#6D6E70" d="M-125.5,361.2c-0.2-0.3-0.5-0.7-0.6-1.1c-0.1-0.3-0.1-0.5,0.1-0.8c0.1-0.2,0.2-0.3,0.4-0.4
c0.1-0.1,0.6-0.3,0.6-0.4c0-0.1-0.8-1-0.8-1.4c0-0.8-0.2-2.6-0.2-2.6c0-0.8,0.3-2.3,0.6-3.9c0.4-2.1-1.1-6.2-2.3-6.6
c-0.8-0.3-1.6-0.7-1.8-1.2c-0.2-0.6-0.5-1.2-0.7-1.7c-0.6-1.7-2.6-2.9-3.9-2.8c-0.6,0-1.2,0.1-1.7,0.3c-0.3-0.3-1.1-1.4-1.9-2
c-0.8-0.5-2.8-1.1-4-0.6c-0.9,0.4-1.9,0.7-2.5,0.6c-0.5-0.1-1.1-0.2-1.7-0.4c-1.8-0.5-3.8,0.5-4.2,2c-0.2,0.8-0.2,1.2-0.5,1.6
c-0.6,0.2-1.4,0.5-2,0.7c-2,0.5-2.4,1.9-1.8,4.3c0.1,0.5,0,1.3-0.1,1.9c0,0,5.8-0.7,10.9,2.3c2.2,1.3,0.4,7.5,3.4,9.4
c0.1,0.1,0.5-0.3,0.8-0.1c0.2,0.1,0.3,0.6,0.3,0.8c0-0.1-0.6,0.5-0.7,0.5c-0.2,1-0.1,1.7-0.6,2.6c-0.4,0.7-1.4,1.6-2.1,1.9
c-0.7,0.3-2.3-0.6-3-0.4c-1.4,0.5-4.1,1.7-5.6,1.7c-1.3,0,0.1,1.5,1.2,1.9c0.2,0.1,3.5-0.4,4.8-0.8c-0.1,0.3-0.2,0.5-0.4,0.7
c-0.2,0.2-0.5,0.3-0.8,0.4c-0.3,0.1-2,0.3-2.1,0.7c-0.1,0.6,1.3,1.2,2,1.7c2,1.2,6,1.1,7.3-0.4c0.9-1-0.5-1.6-0.2-3
c0.1-0.7,0.2-1.5,0.3-2.2c0.1-1.3,0.6-2.5,1.1-3.7c0.2-0.3,0.2-0.6,0-0.9c0.1,0,0.2-0.1,0.3-0.2c0.5-0.4,1.4-2.4,1.7-2.6
c1.5-1.2,1.8,2.1,1.4,4.4c0.8,0,1.1-1.8,1.1-1.8c0.3-0.6,0.5-1.2,0.6-1.8c0.8,1.5,1.2,3,1.4,4.5c0.2,1.1-0.1,2.3-0.7,3.4
c-0.8,1.5,0.5,1.4,1.1,1c0.6-0.4,1.1-0.7,1.8-1c2.2-0.8,2.3-1.3,2.9-1.6c-0.9-0.1-1.6-0.2-1.8-0.8c0,0,0,0,0,0
c0.6-0.2,1.1-0.4,1.8-0.4c0.6,0,1.5,0.1,2-0.1C-124.4,362.9-125.4,361.4-125.5,361.2z"/>
<path fill="#806051" d="M-148.7,358.9c0.3,0.6,0.2,1.5-0.2,2c-0.4,0.4-1,0.3-1.3-0.3C-150.5,359.9-149,358.3-148.7,358.9z"/>
<path fill="#B17C63" d="M-143,378c0,0,0.6-4.9,1.3-4.3c0.6,0.7,2.2,4.7,2.2,4.7l10.4-8.7l-3.1-1.6l-7.8,4.2l-3,0.9
C-143,373.3-144.7,377.6-143,378z"/>
<path fill="#B17C63" d="M-122.9,372.2c-6.2-4-6.8,2.8-7,3.1c0,0-0.3,0.6-0.8,1.7c-1.5,2.8-2.4,4.9-3,6.6c0.3,0,0.6,0,0.9,0
c4.8,0.1,9.8,0.4,10.7,7c1.9-3.7,3-7.4,3.1-10C-118.8,377.5-120.1,374-122.9,372.2z"/>
</svg>
