<svg xmlns="http://www.w3.org/2000/svg" width="160px" height="160px" viewBox="0 0 160 160">
  <path fill="#62696a" d="M58.2,104.2l-6.5,2c0,0,0-0.3-0.1-0.7c0-0.3-0.1-0.5-0.1-0.9c-4.9-7.8-7-16.5-3.2-25.2
    c0.7-1.3,2.3-0.8,4.3-0.7c-2.7,7.3-0.1,14.4,3.1,21.2c0.2,0.4,0.7,1.3,0.9,1.7c0.1,0.5,1.4,0.4,1.5,0.9
    C58.2,104.2,58.2,104.2,58.2,104.2z"/>
  <path fill="#62696a" d="M50.7,111.5c-1.1-1-3-2-3-2.6c2-4.7,7.6-6.3,11.6-9.4c0.3-0.3,0.6-0.5,0.9-0.9c3.6-3.4,6.5-7.4,7.6-12.3
    c0.2-0.4,0.4-0.8,0.7-1.2c3.2-5.2,7.5-9.8,13-13c0.5-0.1,1.9,1.6,3,2.6c-4.7,3.2-8.6,7.1-11.6,11.6c-0.2,0.3-0.5,0.7-0.7,1
    c-1.5,4.9-4.2,8.9-7.5,12.4c-0.3,0.3-0.7,0.6-0.9,1c-4.1,3.5-9.5,5.4-12.7,10.1C50.9,111.3,50.7,111.5,50.7,111.5z"/>
  <path fill="#62696a" d="M47.4,108.6c-0.7-0.1-3.3,3.4-4.7,6.3l5.4,2c1.6-2.8,4.5-6.5,4-6.5L47.4,108.6z"/>
  <path fill="#62696a" d="M83.4,124.2l-7.8,1.3c0,0,0-0.3,0-0.9c0-0.3,0-0.6,0-1.1c-4.5-9.8-5.5-20.2,0.2-29.7c1-1.4,4.7-0.4,7.1,0
    c-4.3,8.1-2.4,16.6,0.2,25.1c0.1,0.5,0.2,1,0.3,1.5c0,0.6,0,1.2,0,1.7C83.4,124.2,83.4,124.2,83.4,124.2z"/>
  <path fill="#62696a" d="M73.3,132c-1.2-1.3-3.1-2.8-3.1-3.4c3-5.2,9.8-6.1,14.9-9.1c0.4-0.3,0.8-0.5,1.2-0.9
    C91,115.2,95,111,97,105.4c0.3-0.4,0.6-0.9,1-1.3c4.5-5.6,10.2-10.2,17.2-13c0.6,0,1.9,2.1,3.1,3.5c-6,3-11.1,6.9-15.3,11.6
    c-0.3,0.3-0.6,0.8-1,1.1c-2.5,5.5-6.2,9.7-10.6,13.2c-0.4,0.3-0.9,0.6-1.2,1c-5.4,3.4-11.8,4.7-16.3,9.7
    C73.5,131.8,73.3,132,73.3,132z"/>
  <path fill="#5db3ac" d="M126.5,67.5c0,6.6-0.8,26.4-6.8,30.7c-5,3.5-5-12.7-20.8-5.4c-6.3,2.9-10.5,9.1-16.6,9.5
    c-4.5,0.2-11.3-3.7-14.4-4.3c-14.3-2.9-18.5-2.8-27.1-7.4c-10.3-5.6-7.7-9.9-7.7-23.1C33.1,42.7,65.3,29.8,87,28
    C109.3,26.1,126.5,45.6,126.5,67.5z"/>
  <path fill="#62696a" d="M90.9,113.4l6.1,5.2c2.9-3,5.4-6.4,7.5-10.2l-6.8-5.7C96,106.6,93.7,110.2,90.9,113.4z"/>
  <path fill="#62696a" d="M69.8,126.5c-1.3,3.1-3.1,7.3-4.5,9l3.2,2.7c1.5-1.6,4.9-4.4,6.6-7.3L69.8,126.5z M68.4,136.4
    c-0.8,0-1.4-0.6-1.4-1.4c0-0.8,0.6-1.4,1.4-1.4c0.8,0,1.4,0.6,1.4,1.4C69.8,135.7,69.2,136.4,68.4,136.4z"/>
  <path fill="#62696a" d="M90.5,43.3c0,1.9-1.6,3.5-3.7,3.5c-2,0-3.7-1.6-3.7-3.5c0-1.9,1.6-8.1,3.7-8.1
    C88.9,35.2,90.5,41.3,90.5,43.3z"/>
  <path fill="#62696a" d="M74.8,37.4c-2.2,1-5.2,1.3-6.6,0.6c-1.5-0.6-0.8-2,1.3-2.9c2.2-1,10.1-3.5,11.6-2.8
    C82.6,32.9,76.9,36.4,74.8,37.4z"/>
  <path fill="#62696a" d="M102.1,32.6c2,0.5,3.2,1.6,2.6,2.7c-0.6,0.9-2.8,1.4-4.8,0.8c-2-0.5-7.9-2.9-7.3-3.8
    C93.2,31.2,100,32.1,102.1,32.6z"/>
</svg>
